<?xml version="1.0" standalone="no"?><!-- Generator: Gravit.io --><svg xmlns="http://www.w3.org/2000/svg" xmlns:xlink="http://www.w3.org/1999/xlink" style="isolation:isolate" viewBox="0 0 1024 1024" width="1024" height="1024"><defs><clipPath id="_clipPath_IfEhVXoYsp0mdPmK7jWMtKE6ttR8Xv5b"><rect width="1024" height="1024"/></clipPath></defs><g clip-path="url(#_clipPath_IfEhVXoYsp0mdPmK7jWMtKE6ttR8Xv5b)"><rect x="87" y="87" width="850" height="850" transform="matrix(1,0,0,1,0,0)" fill="rgb(251,140,0)"/><path d=" M 187 122 L 837 122 C 854.2 122 870.8 128.9 883 141 C 895.1 153.2 902 169.8 902 187 L 902 837 C 902 854.2 895.1 870.8 883 883 C 870.8 895.1 854.2 902 837 902 L 187 902 C 169.8 902 153.2 895.1 141 883 C 128.9 870.8 122 854.2 122 837 L 122 187 C 122 169.8 128.9 153.2 141 141 C 153.2 128.9 169.8 122 187 122 Z  M 187 152 L 837 152 C 846.3 152 855.2 155.7 861.7 162.3 C 868.3 168.8 872 177.7 872 187 L 872 837 C 872 846.3 868.3 855.2 861.7 861.7 C 855.2 868.3 846.3 872 837 872 L 187 872 C 177.7 872 168.8 868.3 162.3 861.7 C 155.7 855.2 152 846.3 152 837 L 152 187 C 152 177.7 155.7 168.8 162.3 162.3 C 168.8 155.7 177.7 152 187 152 Z " fill-rule="evenodd" fill="rgb(238,238,238)"/><path d=" M 628.5 646 L 628.5 646 Q 632.5 655 632.5 662 L 632.5 662 L 632.5 662 Q 632.5 676 621.25 685.75 L 621.25 685.75 L 621.25 685.75 Q 610 695.5 595.5 695.5 L 595.5 695.5 L 595.5 695.5 Q 586 695.5 577.5 690.25 L 577.5 690.25 L 577.5 690.25 Q 569 685 564.5 674.5 L 564.5 674.5 L 538 615.5 L 368.5 615.5 L 342 674.5 L 342 674.5 Q 337.5 685 329.25 690.25 L 329.25 690.25 L 329.25 690.25 Q 321 695.5 311 695.5 L 311 695.5 L 311 695.5 Q 296.5 695.5 285 685.75 L 285 685.75 L 285 685.75 Q 273.5 676 273.5 662 L 273.5 662 L 273.5 662 Q 273.5 655 277.5 646 L 277.5 646 L 412.5 362.5 L 412.5 362.5 Q 418 350.5 429 344.25 L 429 344.25 L 429 344.25 Q 440 338 452.5 338 L 452.5 338 L 452.5 338 Q 465.5 338 476.5 344.5 L 476.5 344.5 L 476.5 344.5 Q 487.5 351 493.5 362.5 L 493.5 362.5 L 628.5 646 Z  M 453.5 426.5 L 395 556.5 L 511.5 556.5 L 453.5 426.5 Z  M 707.5 696.5 L 707.5 696.5 Q 691 696.5 680.25 687.5 L 680.25 687.5 L 680.25 687.5 Q 669.5 678.5 669.5 661 L 669.5 661 L 669.5 478.5 L 669.5 478.5 Q 669.5 461 680.5 452 L 680.5 452 L 680.5 452 Q 691.5 443 707.5 443 L 707.5 443 L 707.5 443 Q 723.5 443 734.25 452 L 734.25 452 L 734.25 452 Q 745 461 745 478.5 L 745 478.5 L 745 661 L 745 661 Q 745 678.5 734.25 687.5 L 734.25 687.5 L 734.25 687.5 Q 723.5 696.5 707.5 696.5 L 707.5 696.5 Z  M 707.5 403 L 707.5 403 Q 687.5 403 676 392.75 L 676 392.75 L 676 392.75 Q 664.5 382.5 664.5 365 L 664.5 365 L 664.5 365 Q 664.5 347.5 676 337.5 L 676 337.5 L 676 337.5 Q 687.5 327.5 707.5 327.5 L 707.5 327.5 L 707.5 327.5 Q 727 327.5 738.75 337.75 L 738.75 337.75 L 738.75 337.75 Q 750.5 348 750.5 365 L 750.5 365 L 750.5 365 Q 750.5 382.5 739 392.75 L 739 392.75 L 739 392.75 Q 727.5 403 707.5 403 L 707.5 403 Z " fill-rule="evenodd" fill="rgb(238,238,238)"/><g id="Group"><path d=" M 790.75 888.25 Q 790.537 898.776 787.5 902.5 Q 784.463 906.224 765.25 920.25 Q 755.398 902.674 752.979 897.276 Q 750.56 891.879 755.305 882.75 L 790.75 888.25 Z " fill-rule="evenodd" fill="rgb(230,81,0)"/><path d=" M 810.103 857.103 L 804.538 891.864 C 804.374 892.889 803.409 893.587 802.385 893.423 L 741.232 883.631 C 740.208 883.467 739.509 882.503 739.673 881.478 L 745.239 846.717 L 728.17 843.984 L 736.792 790.135 L 832.381 805.441 L 823.759 859.29 L 810.103 857.103 Z " fill="rgb(33,33,33)"/><path d=" M 893.103 426.213 L 897.169 400.82 C 897.388 399.454 896.456 398.168 895.091 397.949 L 804.45 383.436 C 803.085 383.217 801.798 384.148 801.58 385.514 L 797.494 411.028 L 789.107 409.696 C 788.082 409.533 787.117 410.232 786.953 411.257 L 784.099 429.084 C 783.935 430.109 784.633 431.076 785.656 431.243 L 901.645 450.197 C 902.669 450.364 903.651 449.671 903.836 448.651 L 907.164 430.349 C 907.349 429.329 906.668 428.368 905.644 428.205 L 893.103 426.213 Z " fill="rgb(33,33,33)"/><path d=" M 847.976 817.386 L 908.522 439.253 C 908.85 437.205 907.453 435.275 905.405 434.947 L 786.514 415.91 C 784.465 415.582 782.536 416.979 782.208 419.028 L 721.661 797.161 C 721.333 799.209 722.73 801.139 724.779 801.467 L 843.67 820.504 C 845.718 820.832 847.648 819.435 847.976 817.386 Z " fill-rule="evenodd" fill="rgb(255,183,77)"/><path d=" M 819.847 774.386 L 868.028 473.475 C 868.247 472.109 867.316 470.823 865.95 470.604 L 812.863 462.104 C 811.497 461.885 810.211 462.816 809.992 464.182 L 761.81 765.093 C 761.592 766.459 762.523 767.745 763.888 767.964 L 816.976 776.464 C 818.342 776.683 819.628 775.752 819.847 774.386 Z " fill-rule="evenodd" fill="rgb(230,81,0)"/></g></g></svg>