<?xml version="1.0" standalone="no"?><!-- Generator: Gravit.io --><svg xmlns="http://www.w3.org/2000/svg" xmlns:xlink="http://www.w3.org/1999/xlink" style="isolation:isolate" viewBox="0 0 1024 1024" width="1024" height="1024"><defs><clipPath id="_clipPath_65GblhnI2kowaxRFtCSb0jyixyZXI1lI"><rect width="1024" height="1024"/></clipPath></defs><g clip-path="url(#_clipPath_65GblhnI2kowaxRFtCSb0jyixyZXI1lI)"><g id="Adobe Illustrator 2"><rect x="87" y="87" width="850" height="850" transform="matrix(1,0,0,1,0,0)" fill="rgb(251,140,0)"/><path d=" M 187 122 L 837 122 C 854.2 122 870.8 128.9 883 141 C 895.1 153.2 902 169.8 902 187 L 902 837 C 902 854.2 895.1 870.8 883 883 C 870.8 895.1 854.2 902 837 902 L 187 902 C 169.8 902 153.2 895.1 141 883 C 128.9 870.8 122 854.2 122 837 L 122 187 C 122 169.8 128.9 153.2 141 141 C 153.2 128.9 169.8 122 187 122 Z  M 187 152 L 837 152 C 846.3 152 855.2 155.7 861.7 162.3 C 868.3 168.8 872 177.7 872 187 L 872 837 C 872 846.3 868.3 855.2 861.7 861.7 C 855.2 868.3 846.3 872 837 872 L 187 872 C 177.7 872 168.8 868.3 162.3 861.7 C 155.7 855.2 152 846.3 152 837 L 152 187 C 152 177.7 155.7 168.8 162.3 162.3 C 168.8 155.7 177.7 152 187 152 Z " fill-rule="evenodd" fill="rgb(238,238,238)"/><path d=" M 628.5 646 L 628.5 646 Q 632.5 655 632.5 662 L 632.5 662 L 632.5 662 Q 632.5 676 621.25 685.75 L 621.25 685.75 L 621.25 685.75 Q 610 695.5 595.5 695.5 L 595.5 695.5 L 595.5 695.5 Q 586 695.5 577.5 690.25 L 577.5 690.25 L 577.5 690.25 Q 569 685 564.5 674.5 L 564.5 674.5 L 538 615.5 L 368.5 615.5 L 342 674.5 L 342 674.5 Q 337.5 685 329.25 690.25 L 329.25 690.25 L 329.25 690.25 Q 321 695.5 311 695.5 L 311 695.5 L 311 695.5 Q 296.5 695.5 285 685.75 L 285 685.75 L 285 685.75 Q 273.5 676 273.5 662 L 273.5 662 L 273.5 662 Q 273.5 655 277.5 646 L 277.5 646 L 412.5 362.5 L 412.5 362.5 Q 418 350.5 429 344.25 L 429 344.25 L 429 344.25 Q 440 338 452.5 338 L 452.5 338 L 452.5 338 Q 465.5 338 476.5 344.5 L 476.5 344.5 L 476.5 344.5 Q 487.5 351 493.5 362.5 L 493.5 362.5 L 628.5 646 Z  M 453.5 426.5 L 395 556.5 L 511.5 556.5 L 453.5 426.5 Z  M 707.5 696.5 L 707.5 696.5 Q 691 696.5 680.25 687.5 L 680.25 687.5 L 680.25 687.5 Q 669.5 678.5 669.5 661 L 669.5 661 L 669.5 478.5 L 669.5 478.5 Q 669.5 461 680.5 452 L 680.5 452 L 680.5 452 Q 691.5 443 707.5 443 L 707.5 443 L 707.5 443 Q 723.5 443 734.25 452 L 734.25 452 L 734.25 452 Q 745 461 745 478.5 L 745 478.5 L 745 661 L 745 661 Q 745 678.5 734.25 687.5 L 734.25 687.5 L 734.25 687.5 Q 723.5 696.5 707.5 696.5 L 707.5 696.5 Z  M 707.5 403 L 707.5 403 Q 687.5 403 676 392.75 L 676 392.75 L 676 392.75 Q 664.5 382.5 664.5 365 L 664.5 365 L 664.5 365 Q 664.5 347.5 676 337.5 L 676 337.5 L 676 337.5 Q 687.5 327.5 707.5 327.5 L 707.5 327.5 L 707.5 327.5 Q 727 327.5 738.75 337.75 L 738.75 337.75 L 738.75 337.75 Q 750.5 348 750.5 365 L 750.5 365 L 750.5 365 Q 750.5 382.5 739 392.75 L 739 392.75 L 739 392.75 Q 727.5 403 707.5 403 L 707.5 403 Z " fill-rule="evenodd" fill="rgb(238,238,238)"/><g id="Pen"><path d=" M 379.191 853.916 Q 369.422 857.947 364.834 857.079 Q 360.247 856.21 340 846.917 Q 352.414 832.279 356.458 828.253 Q 360.501 824.228 370.715 824.265 L 379.191 853.916 Z " fill-rule="evenodd" fill="rgb(230,81,0)"/><path d=" M 415.249 856.494 L 381.13 866.038 C 380.125 866.319 379.113 865.85 378.873 864.991 L 364.529 813.714 C 364.289 812.855 364.91 811.93 365.916 811.649 L 400.034 802.104 L 396.031 787.791 L 448.884 773.006 L 471.306 853.159 L 418.452 867.944 L 415.249 856.494 Z " fill="rgb(33,33,33)"/><path d=" M 843.526 749.037 L 868.45 742.065 C 869.791 741.69 870.619 740.456 870.298 739.311 L 849.038 663.308 C 848.718 662.162 847.369 661.537 846.029 661.912 L 820.986 668.917 L 819.009 661.889 C 818.767 661.03 817.755 660.561 816.75 660.843 L 799.251 665.737 C 798.246 666.019 797.622 666.945 797.859 667.805 L 824.714 765.215 C 824.952 766.075 825.964 766.559 826.974 766.296 L 845.089 761.579 C 846.1 761.316 846.724 760.405 846.482 759.546 L 843.526 749.037 Z " fill="rgb(33,33,33)"/><path d=" M 465.757 870.145 L 837.924 766.037 C 839.653 765.554 840.664 763.757 840.18 762.029 L 812.304 662.377 C 811.821 660.648 810.025 659.637 808.296 660.121 L 436.129 764.228 C 434.4 764.712 433.389 766.508 433.873 768.237 L 461.748 867.889 C 462.232 869.617 464.028 870.628 465.757 870.145 Z " fill-rule="evenodd" fill="rgb(255,183,77)"/><path d=" M 494.76 831.165 L 790.792 748.356 C 791.944 748.033 792.618 746.836 792.296 745.683 L 779.851 701.195 C 779.529 700.043 778.331 699.369 777.179 699.691 L 481.147 782.501 C 479.994 782.824 479.32 784.021 479.643 785.173 L 492.087 829.661 C 492.41 830.814 493.607 831.488 494.76 831.165 Z " fill-rule="evenodd" fill="rgb(230,81,0)"/></g></g></g></svg>