<?xml version="1.0" standalone="no"?>
<!-- Generator: Gravit.io -->
<svg xmlns="http://www.w3.org/2000/svg" xmlns:xlink="http://www.w3.org/1999/xlink" style="isolation:isolate" viewBox="0 0 1024 1024" width="1024" height="1024">
    <defs>
        <clipPath id="_clipPath_4nrF9wXcwhgs7hCuauBf65BGn1boreK2">
            <rect width="1024" height="1024" />
        </clipPath>
    </defs>
    <g clip-path="url(#_clipPath_4nrF9wXcwhgs7hCuauBf65BGn1boreK2)">
        <g id="Adobe Photoshop 2">
            <rect x="86.875" y="87" width="850" height="850" transform="matrix(1,0,0,1,0,0)" fill="rgb(57,73,171)" />
            <path d=" M 187 122 L 837 122 C 854.2 122 870.8 128.9 883 141 C 895.1 153.2 902 169.8 902 187 L 902 837 C 902 854.2 895.1 870.8 883 883 C 870.8 895.1 854.2 902 837 902 L 187 902 C 169.8 902 153.2 895.1 141 883 C 128.9 870.8 122 854.2 122 837 L 122 187 C 122 169.8 128.9 153.2 141 141 C 153.2 128.9 169.8 122 187 122 Z  M 187 152 L 837 152 C 846.3 152 855.2 155.7 861.7 162.3 C 868.3 168.8 872 177.7 872 187 L 872 837 C 872 846.3 868.3 855.2 861.7 861.7 C 855.2 868.3 846.3 872 837 872 L 187 872 C 177.7 872 168.8 868.3 162.3 861.7 C 155.7 855.2 152 846.3 152 837 L 152 187 C 152 177.7 155.7 168.8 162.3 162.3 C 168.8 155.7 177.7 152 187 152 Z " fill-rule="evenodd" fill="rgb(238,238,238)" />
            <path d=" M 285.17 690.493 L 285.17 690.493 Q 267.044 690.493 256.471 679.919 L 256.471 679.919 L 256.471 679.919 Q 245.897 669.346 245.897 651.22 L 245.897 651.22 L 245.897 369.256 L 245.897 369.256 Q 245.897 351.633 255.464 342.067 L 255.464 342.067 L 255.464 342.067 Q 265.03 332.5 282.653 332.5 L 282.653 332.5 L 409.033 332.5 L 409.033 332.5 Q 466.936 332.5 499.161 361.703 L 499.161 361.703 L 499.161 361.703 Q 531.385 390.907 531.385 443.271 L 531.385 443.271 L 531.385 443.271 Q 531.385 495.636 499.161 524.839 L 499.161 524.839 L 499.161 524.839 Q 466.936 554.043 409.033 554.043 L 409.033 554.043 L 324.444 554.043 L 324.444 651.22 L 324.444 651.22 Q 324.444 669.346 313.87 679.919 L 313.87 679.919 L 313.87 679.919 Q 303.297 690.493 285.17 690.493 L 285.17 690.493 Z  M 324.444 494.629 L 398.963 494.629 L 398.963 494.629 Q 457.873 494.629 457.873 443.775 L 457.873 443.775 L 457.873 443.775 Q 457.873 392.417 398.963 392.417 L 398.963 392.417 L 324.444 392.417 L 324.444 494.629 Z  M 669.849 691.5 L 669.849 691.5 Q 639.135 691.5 616.478 686.465 L 616.478 686.465 L 616.478 686.465 Q 593.82 681.43 576.701 670.353 L 576.701 670.353 L 576.701 670.353 Q 569.148 665.821 565.12 658.269 L 565.12 658.269 L 565.12 658.269 Q 561.092 650.716 561.092 641.149 L 561.092 641.149 L 561.092 641.149 Q 561.092 629.569 567.637 621.764 L 567.637 621.764 L 567.637 621.764 Q 574.183 613.96 583.75 613.96 L 583.75 613.96 L 583.75 613.96 Q 590.295 613.96 596.841 616.226 L 596.841 616.226 L 596.841 616.226 Q 603.386 618.492 610.435 621.513 L 610.435 621.513 L 610.435 621.513 Q 624.534 628.058 638.128 631.835 L 638.128 631.835 L 638.128 631.835 Q 651.723 635.611 671.863 635.611 L 671.863 635.611 L 671.863 635.611 Q 689.486 635.611 699.304 630.072 L 699.304 630.072 L 699.304 630.072 Q 709.123 624.534 709.123 614.967 L 709.123 614.967 L 709.123 614.967 Q 709.123 607.918 704.843 603.638 L 704.843 603.638 L 704.843 603.638 Q 700.563 599.358 688.982 595.834 L 688.982 595.834 L 688.982 595.834 Q 677.402 592.309 652.227 587.274 L 652.227 587.274 L 652.227 587.274 Q 607.414 578.715 587.778 561.595 L 587.778 561.595 L 587.778 561.595 Q 568.141 544.476 568.141 513.762 L 568.141 513.762 L 568.141 513.762 Q 568.141 491.105 581.987 472.978 L 581.987 472.978 L 581.987 472.978 Q 595.834 454.852 620.002 444.53 L 620.002 444.53 L 620.002 444.53 Q 644.17 434.208 674.381 434.208 L 674.381 434.208 L 674.381 434.208 Q 696.032 434.208 716.675 439.747 L 716.675 439.747 L 716.675 439.747 Q 737.319 445.285 753.431 455.356 L 753.431 455.356 L 753.431 455.356 Q 769.04 464.922 769.04 483.552 L 769.04 483.552 L 769.04 483.552 Q 769.04 495.636 762.494 503.692 L 762.494 503.692 L 762.494 503.692 Q 755.949 511.748 746.382 511.748 L 746.382 511.748 L 746.382 511.748 Q 734.802 511.748 718.689 502.685 L 718.689 502.685 L 718.689 502.685 Q 706.102 496.14 695.78 492.867 L 695.78 492.867 L 695.78 492.867 Q 685.458 489.594 671.36 489.594 L 671.36 489.594 L 671.36 489.594 Q 655.751 489.594 646.688 495.384 L 646.688 495.384 L 646.688 495.384 Q 637.625 501.175 637.625 511.245 L 637.625 511.245 L 637.625 511.245 Q 637.625 521.818 648.198 527.357 L 648.198 527.357 L 648.198 527.357 Q 658.772 532.896 688.982 538.434 L 688.982 538.434 L 688.982 538.434 Q 722.717 544.98 741.851 554.295 L 741.851 554.295 L 741.851 554.295 Q 760.984 563.609 769.543 577.708 L 769.543 577.708 L 769.543 577.708 Q 778.103 591.806 778.103 613.457 L 778.103 613.457 L 778.103 613.457 Q 778.103 649.205 748.648 670.353 L 748.648 670.353 L 748.648 670.353 Q 719.193 691.5 669.849 691.5 L 669.849 691.5 Z " fill-rule="evenodd" fill="rgb(238,238,238)" />
            <g id="Pencil">
                <path d=" M 854.839 674.384 L 869.943 727.36 C 871.06 731.243 870.584 735.409 868.62 738.938 C 866.655 742.467 863.364 745.066 859.475 746.161 L 834.507 753.261 L 811.056 671.008 L 836.024 663.909 C 839.908 662.794 844.076 663.273 847.607 665.239 C 851.138 667.205 853.741 670.496 854.839 674.384 Z " fill="rgb(229,115,115)" />
                <path d=" M 423.587 870.127 L 793.409 764.977 L 769.921 682.704 L 400.113 787.85 L 423.587 870.127 Z " fill="rgb(0,188,212)" />
                <path d=" M 407.341 813.248 L 416.261 844.667 L 792.863 737.617 L 783.943 706.198 L 407.341 813.248 Z " fill="rgb(0,151,167)" />
                <path d=" M 811.065 671.013 L 769.921 682.704 L 793.314 764.973 L 834.486 753.298 L 811.065 671.013 Z " fill="rgb(176,190,197)" />
                <path d=" M 423.549 870.107 L 343.004 848.547 L 400.098 787.854 L 423.549 870.107 Z " fill="rgb(255,193,7)" />
                <path d=" M 383.74 859.439 L 343.004 848.547 L 371.887 817.862 L 383.74 859.439 Z " fill="rgb(33,33,33)" />
            </g>
        </g>
    </g>
</svg>