<?xml version="1.0" standalone="no"?><!-- Generator: Gravit.io --><svg xmlns="http://www.w3.org/2000/svg" xmlns:xlink="http://www.w3.org/1999/xlink" style="isolation:isolate" viewBox="0 0 1024 1024" width="1024" height="1024"><defs><clipPath id="_clipPath_3W2FIvLIuD3mJUWf7QwYv9Tl7rQYHsAW"><rect width="1024" height="1024"/></clipPath></defs><g clip-path="url(#_clipPath_3W2FIvLIuD3mJUWf7QwYv9Tl7rQYHsAW)"><g id="Adobe InDesign 2"><rect x="86.875" y="87" width="850" height="850" transform="matrix(1,0,0,1,0,0)" fill="rgb(216,27,96)"/><path d=" M 187 122 L 837 122 C 854.2 122 870.8 128.9 883 141 C 895.1 153.2 902 169.8 902 187 L 902 837 C 902 854.2 895.1 870.8 883 883 C 870.8 895.1 854.2 902 837 902 L 187 902 C 169.8 902 153.2 895.1 141 883 C 128.9 870.8 122 854.2 122 837 L 122 187 C 122 169.8 128.9 153.2 141 141 C 153.2 128.9 169.8 122 187 122 Z  M 187 152 L 837 152 C 846.3 152 855.2 155.7 861.7 162.3 C 868.3 168.8 872 177.7 872 187 L 872 837 C 872 846.3 868.3 855.2 861.7 861.7 C 855.2 868.3 846.3 872 837 872 L 187 872 C 177.7 872 168.8 868.3 162.3 861.7 C 155.7 855.2 152 846.3 152 837 L 152 187 C 152 177.7 155.7 168.8 162.3 162.3 C 168.8 155.7 177.7 152 187 152 Z " fill-rule="evenodd" fill="rgb(238,238,238)"/><path d=" M 355.75 690.5 L 355.75 690.5 Q 337.75 690.5 327.25 680 L 327.25 680 L 327.25 680 Q 316.75 669.5 316.75 651.5 L 316.75 651.5 L 316.75 371 L 316.75 371 Q 316.75 353.5 327.25 343 L 327.25 343 L 327.25 343 Q 337.75 332.5 355.75 332.5 L 355.75 332.5 L 355.75 332.5 Q 373.75 332.5 384.25 343 L 384.25 343 L 384.25 343 Q 394.75 353.5 394.75 371 L 394.75 371 L 394.75 651.5 L 394.75 651.5 Q 394.75 669.5 384.25 680 L 384.25 680 L 384.25 680 Q 373.75 690.5 355.75 690.5 L 355.75 690.5 Z  M 668.25 332.5 L 668.25 332.5 Q 685.75 332.5 696.5 342 L 696.5 342 L 696.5 342 Q 707.25 351.5 707.25 367 L 707.25 367 L 707.25 655 L 707.25 655 Q 707.25 671 697 680.75 L 697 680.75 L 697 680.75 Q 686.75 690.5 669.75 690.5 L 669.75 690.5 L 669.75 690.5 Q 652.75 690.5 642.5 680.75 L 642.5 680.75 L 642.5 680.75 Q 632.25 671 632.25 655 L 632.25 655 L 632.25 651 L 632.25 651 Q 621.25 670 601 680.75 L 601 680.75 L 601 680.75 Q 580.75 691.5 555.25 691.5 L 555.25 691.5 L 555.25 691.5 Q 523.75 691.5 499 675.25 L 499 675.25 L 499 675.25 Q 474.25 659 460.5 629.75 L 460.5 629.75 L 460.5 629.75 Q 446.75 600.5 446.75 562.5 L 446.75 562.5 L 446.75 562.5 Q 446.75 524.5 460.5 495.75 L 460.5 495.75 L 460.5 495.75 Q 474.25 467 498.75 451.5 L 498.75 451.5 L 498.75 451.5 Q 523.25 436 555.25 436 L 555.25 436 L 555.25 436 Q 580.25 436 600.5 446.5 L 600.5 446.5 L 600.5 446.5 Q 620.75 457 631.75 476 L 631.75 476 L 631.75 365.5 L 631.75 365.5 Q 631.75 350.5 641.75 341.5 L 641.75 341.5 L 641.75 341.5 Q 651.75 332.5 668.25 332.5 L 668.25 332.5 Z  M 577.25 634 L 577.25 634 Q 603.75 634 618 615.75 L 618 615.75 L 618 615.75 Q 632.25 597.5 632.25 563.5 L 632.25 563.5 L 632.25 563.5 Q 632.25 529.5 618 511.5 L 618 511.5 L 618 511.5 Q 603.75 493.5 577.25 493.5 L 577.25 493.5 L 577.25 493.5 Q 550.75 493.5 536.25 511.25 L 536.25 511.25 L 536.25 511.25 Q 521.75 529 521.75 562.5 L 521.75 562.5 L 521.75 562.5 Q 521.75 596.5 536.25 615.25 L 536.25 615.25 L 536.25 615.25 Q 550.75 634 577.25 634 L 577.25 634 Z " fill-rule="evenodd" fill="rgb(238,238,238)"/><g id="Elegant Pen"><path d=" M 386.64 865.37 Q 431.688 856.176 486.339 842.682 C 540.989 829.187 597.722 813.281 638.167 802.334 Q 678.611 791.387 867.495 735.216 L 854.43 690.577 Q 702.511 733.111 625.102 757.695 C 547.694 782.279 527.683 788.269 477.729 805.504 Q 427.775 822.738 379.617 841.373 L 386.64 865.37 Z " fill-rule="evenodd" fill="rgb(55,71,79)"/><path d=" M 635.101 806.573 L 642.372 804.445 C 643.373 804.152 643.948 803.102 643.655 802.1 L 629.85 754.932 C 629.557 753.931 628.506 753.356 627.505 753.649 L 620.234 755.777 C 619.233 756.07 618.658 757.121 618.951 758.122 L 632.756 805.29 C 633.049 806.291 634.1 806.866 635.101 806.573 Z " fill-rule="evenodd" fill="rgb(255,202,40)"/><path d=" M 359.829 860.399 C 358.834 856.998 353.496 855.568 347.907 857.204 C 342.317 858.84 335.707 863.767 336.702 867.167 C 337.697 870.568 345.921 871.154 351.511 869.518 C 357.1 867.882 360.825 863.799 359.829 860.399 Z " fill-rule="evenodd" fill="rgb(33,33,33)"/><path d=" M 352.234 870.631 Q 354.65 871.332 386.657 865.429 L 379.591 841.285 Q 349.047 853.631 347.741 855.277 C 346.435 856.923 349.819 869.929 352.234 870.631 Z " fill-rule="evenodd" fill="rgb(255,202,40)"/><path d=" M 869.799 734.681 Q 869.829 734.675 869.86 734.669 L 869.855 734.651 C 871.893 733.447 870.521 722.453 867.232 711.217 C 863.886 699.785 858.812 689.04 856.487 689.475 L 856.473 689.427 Q 671.92 762.905 669.172 763.932 C 666.425 764.958 664.863 766.901 666.142 770.993 C 667.421 775.085 670.366 774.651 672.226 774.267 Q 674.085 773.884 869.411 734.759 C 869.503 734.763 869.592 734.753 869.677 734.728 C 869.719 734.716 869.759 734.7 869.799 734.681 Z " fill="rgb(255,202,40)"/></g></g></g></svg>