<?xml version="1.0" standalone="no"?><!-- Generator: Gravit.io --><svg xmlns="http://www.w3.org/2000/svg" xmlns:xlink="http://www.w3.org/1999/xlink" style="isolation:isolate" viewBox="0 0 1024 1024" width="1024" height="1024"><defs><clipPath id="_clipPath_12R5ItZp7f2tC2QMKQOL4XLxz9tCRROZ"><rect width="1024" height="1024"/></clipPath></defs><g clip-path="url(#_clipPath_12R5ItZp7f2tC2QMKQOL4XLxz9tCRROZ)"><g id="Adobe Illustrator 1"><rect x="87" y="87" width="850" height="850" transform="matrix(1,0,0,1,0,0)" fill="rgb(251,140,0)"/><path d=" M 187 122 L 837 122 C 854.2 122 870.8 128.9 883 141 C 895.1 153.2 902 169.8 902 187 L 902 837 C 902 854.2 895.1 870.8 883 883 C 870.8 895.1 854.2 902 837 902 L 187 902 C 169.8 902 153.2 895.1 141 883 C 128.9 870.8 122 854.2 122 837 L 122 187 C 122 169.8 128.9 153.2 141 141 C 153.2 128.9 169.8 122 187 122 Z  M 187 152 L 837 152 C 846.3 152 855.2 155.7 861.7 162.3 C 868.3 168.8 872 177.7 872 187 L 872 837 C 872 846.3 868.3 855.2 861.7 861.7 C 855.2 868.3 846.3 872 837 872 L 187 872 C 177.7 872 168.8 868.3 162.3 861.7 C 155.7 855.2 152 846.3 152 837 L 152 187 C 152 177.7 155.7 168.8 162.3 162.3 C 168.8 155.7 177.7 152 187 152 Z " fill-rule="evenodd" fill="rgb(238,238,238)"/><path d=" M 628.5 646 L 628.5 646 Q 632.5 655 632.5 662 L 632.5 662 L 632.5 662 Q 632.5 676 621.25 685.75 L 621.25 685.75 L 621.25 685.75 Q 610 695.5 595.5 695.5 L 595.5 695.5 L 595.5 695.5 Q 586 695.5 577.5 690.25 L 577.5 690.25 L 577.5 690.25 Q 569 685 564.5 674.5 L 564.5 674.5 L 538 615.5 L 368.5 615.5 L 342 674.5 L 342 674.5 Q 337.5 685 329.25 690.25 L 329.25 690.25 L 329.25 690.25 Q 321 695.5 311 695.5 L 311 695.5 L 311 695.5 Q 296.5 695.5 285 685.75 L 285 685.75 L 285 685.75 Q 273.5 676 273.5 662 L 273.5 662 L 273.5 662 Q 273.5 655 277.5 646 L 277.5 646 L 412.5 362.5 L 412.5 362.5 Q 418 350.5 429 344.25 L 429 344.25 L 429 344.25 Q 440 338 452.5 338 L 452.5 338 L 452.5 338 Q 465.5 338 476.5 344.5 L 476.5 344.5 L 476.5 344.5 Q 487.5 351 493.5 362.5 L 493.5 362.5 L 628.5 646 Z  M 453.5 426.5 L 395 556.5 L 511.5 556.5 L 453.5 426.5 Z  M 707.5 696.5 L 707.5 696.5 Q 691 696.5 680.25 687.5 L 680.25 687.5 L 680.25 687.5 Q 669.5 678.5 669.5 661 L 669.5 661 L 669.5 478.5 L 669.5 478.5 Q 669.5 461 680.5 452 L 680.5 452 L 680.5 452 Q 691.5 443 707.5 443 L 707.5 443 L 707.5 443 Q 723.5 443 734.25 452 L 734.25 452 L 734.25 452 Q 745 461 745 478.5 L 745 478.5 L 745 661 L 745 661 Q 745 678.5 734.25 687.5 L 734.25 687.5 L 734.25 687.5 Q 723.5 696.5 707.5 696.5 L 707.5 696.5 Z  M 707.5 403 L 707.5 403 Q 687.5 403 676 392.75 L 676 392.75 L 676 392.75 Q 664.5 382.5 664.5 365 L 664.5 365 L 664.5 365 Q 664.5 347.5 676 337.5 L 676 337.5 L 676 337.5 Q 687.5 327.5 707.5 327.5 L 707.5 327.5 L 707.5 327.5 Q 727 327.5 738.75 337.75 L 738.75 337.75 L 738.75 337.75 Q 750.5 348 750.5 365 L 750.5 365 L 750.5 365 Q 750.5 382.5 739 392.75 L 739 392.75 L 739 392.75 Q 727.5 403 707.5 403 L 707.5 403 Z " fill-rule="evenodd" fill="rgb(238,238,238)"/></g></g></svg>