<?xml version="1.0" standalone="no"?>
<!-- Generator: Gravit.io -->
<svg xmlns="http://www.w3.org/2000/svg" xmlns:xlink="http://www.w3.org/1999/xlink" style="isolation:isolate" viewBox="0 0 1024 1024" width="1024" height="1024">
    <defs>
        <clipPath id="_clipPath_DutuYCCMp1M7M2Dw4tLyrsazG5FUeMeN">
            <rect width="1024" height="1024" />
        </clipPath>
    </defs>
    <g clip-path="url(#_clipPath_DutuYCCMp1M7M2Dw4tLyrsazG5FUeMeN)">
        <rect x="87" y="87" width="850" height="850" transform="matrix(1,0,0,1,0,0)" fill="rgb(238,238,238)" />
        <g id="Group">
            <rect x="136.818" y="137" width="750" height="750" transform="matrix(1,0,0,1,0,0)" fill="none" vector-effect="non-scaling-stroke" stroke-width="25" stroke="rgb(21,101,192)" stroke-linejoin="miter" stroke-linecap="square" stroke-miterlimit="3" />
            <path d=" M 137.182 273.795 L 518.515 463.636 L 887.182 274.242" fill="none" vector-effect="non-scaling-stroke" stroke-width="25" stroke="rgb(21,101,192)" stroke-linejoin="bevel" stroke-linecap="butt" stroke-miterlimit="3" />
        </g>
        <path d=" M 546.007 822.735 L 546.007 810.928 C 546.007 810.064 545.509 809.522 544.718 809.522 C 543.927 809.522 543.443 810.064 543.443 810.928 L 543.443 822.676 C 543.443 825.797 541.495 827.789 538.419 827.789 C 535.358 827.789 533.409 825.811 533.409 822.676 L 533.409 810.928 C 533.409 810.064 532.911 809.522 532.12 809.522 C 531.329 809.522 530.846 810.064 530.846 810.928 L 530.846 822.676 C 530.846 827.1 533.629 830.089 538.419 830.089 C 542.96 830.089 546.007 827.13 546.007 822.735 Z  M 549.435 825.533 C 549.435 826.412 549.977 827.364 551.031 828.316 C 552.276 829.444 554.327 830.089 556.686 830.089 C 561.08 830.089 563.834 827.847 563.834 824.258 C 563.834 821.431 562.237 819.747 558.649 818.78 L 555.323 817.872 C 553.448 817.374 552.452 816.304 552.452 814.81 C 552.452 812.818 554.122 811.529 556.715 811.529 C 558.751 811.529 560.392 812.54 561.051 814.166 C 561.3 814.752 561.681 815.015 562.267 815.015 C 562.941 815.015 563.38 814.547 563.38 813.843 C 563.38 812.877 562.838 811.851 561.857 810.972 C 560.597 809.859 558.736 809.244 556.656 809.244 C 552.555 809.244 549.786 811.558 549.786 815.001 C 549.786 817.652 551.398 819.41 554.606 820.274 L 557.975 821.182 C 560.216 821.783 561.271 822.852 561.271 824.537 C 561.271 826.588 559.601 827.803 556.847 827.803 C 554.679 827.803 553.141 827.042 552.115 825.445 C 551.559 824.61 551.149 824.302 550.548 824.302 C 549.889 824.302 549.435 824.8 549.435 825.533 Z  M 567.071 829.854 C 567.775 829.854 568.17 829.532 568.448 828.653 L 570.133 823.658 L 577.618 823.658 L 579.303 828.653 C 579.581 829.517 579.977 829.854 580.68 829.854 C 581.427 829.854 581.91 829.429 581.91 828.741 C 581.91 828.463 581.837 828.155 581.72 827.833 L 575.699 811.002 C 575.333 809.976 574.82 809.508 573.883 809.508 C 572.945 809.508 572.433 809.976 572.067 811.002 L 566.046 827.833 C 565.929 828.184 565.856 828.463 565.856 828.756 C 565.856 829.429 566.339 829.854 567.071 829.854 Z  M 570.821 821.592 L 573.824 812.686 L 573.927 812.686 L 576.93 821.592 L 570.821 821.592 Z  M 393.605 821.256 C 393.605 826.866 396.461 830.089 401.427 830.089 C 403.829 830.089 405.748 829.356 407.125 827.979 C 408.121 826.983 408.78 825.679 408.78 824.786 C 408.78 824.097 408.37 823.643 407.638 823.643 C 407.096 823.643 406.788 823.922 406.378 824.654 C 405.279 826.793 403.668 827.789 401.529 827.789 C 398.087 827.789 396.168 825.445 396.168 821.241 L 396.168 818.092 C 396.168 813.931 398.087 811.558 401.529 811.558 C 403.639 811.558 405.148 812.569 406.319 814.752 C 406.73 815.528 407.096 815.762 407.667 815.762 C 408.341 815.762 408.78 815.338 408.78 814.62 C 408.78 813.77 408.151 812.481 407.169 811.456 C 405.763 810.02 403.859 809.244 401.427 809.244 C 396.476 809.244 393.605 812.525 393.605 818.077 L 393.605 821.256 Z  M 414.215 825.123 C 414.215 823.555 415.299 822.676 417.189 822.676 L 421.129 822.676 L 421.129 824.42 C 421.129 826.339 419.474 827.803 417.35 827.803 C 415.475 827.803 414.215 826.719 414.215 825.123 Z  M 421.1 827.613 L 421.202 827.613 L 421.202 828.477 C 421.232 829.312 421.671 829.81 422.418 829.81 C 423.194 829.81 423.649 829.298 423.649 828.419 L 423.649 819.132 C 423.649 815.836 421.598 814.019 417.892 814.019 C 416.383 814.019 415.226 814.298 414.332 814.81 C 413.102 815.513 412.501 816.363 412.501 817.227 C 412.501 817.828 412.897 818.223 413.483 818.223 C 413.937 818.223 414.274 818.077 414.625 817.667 C 415.548 816.612 416.427 816.158 417.731 816.158 C 419.943 816.158 421.129 817.169 421.129 819.146 L 421.129 820.64 L 417.057 820.64 C 413.673 820.64 411.637 822.383 411.637 825.181 C 411.637 828.008 413.658 829.913 416.661 829.913 C 418.609 829.913 420.177 829.107 421.1 827.613 Z  M 429.303 829.81 C 430.021 829.81 430.563 829.356 430.563 828.404 L 430.563 809.932 C 430.563 808.98 430.021 808.526 429.303 808.526 C 428.585 808.526 428.058 808.98 428.058 809.932 L 428.058 828.404 C 428.058 829.356 428.585 829.81 429.303 829.81 Z  M 434.943 810.416 C 434.943 811.339 435.66 812.027 436.539 812.027 C 437.491 812.027 438.194 811.339 438.194 810.416 C 438.194 809.493 437.491 808.834 436.539 808.834 C 435.66 808.834 434.943 809.493 434.943 810.416 Z  M 437.814 828.404 L 437.814 815.528 C 437.814 814.591 437.286 814.122 436.568 814.122 C 435.851 814.122 435.294 814.576 435.294 815.528 L 435.294 828.404 C 435.294 829.342 435.836 829.81 436.554 829.81 C 437.272 829.81 437.814 829.356 437.814 828.404 Z  M 445.929 828.404 L 445.929 816.392 L 448.082 816.392 C 448.8 816.392 449.254 815.997 449.254 815.338 C 449.254 814.678 448.8 814.283 448.082 814.283 L 445.914 814.283 L 445.914 812.657 C 445.914 811.236 446.471 810.562 447.599 810.562 C 448.302 810.562 448.419 810.679 449.034 810.679 C 449.62 810.679 449.972 810.313 449.972 809.727 C 449.972 809.376 449.811 809.097 449.518 808.863 C 449.151 808.585 448.536 808.424 447.745 808.424 C 444.845 808.424 443.409 809.844 443.409 812.774 L 443.409 814.283 L 442.135 814.283 C 441.402 814.283 440.963 814.664 440.963 815.338 C 440.963 815.997 441.417 816.392 442.135 816.392 L 443.409 816.392 L 443.409 828.404 C 443.409 829.283 443.878 829.81 444.654 829.81 C 445.445 829.81 445.929 829.283 445.929 828.404 Z  M 458.395 814.005 C 454.601 814.005 451.774 816.48 451.774 820.787 L 451.774 823.131 C 451.774 827.452 454.601 829.927 458.395 829.927 C 462.174 829.927 465.001 827.452 465.001 823.131 L 465.001 820.787 C 465.001 816.48 462.174 814.005 458.395 814.005 Z  M 458.395 816.202 C 460.885 816.202 462.438 818.106 462.438 821.007 L 462.438 822.911 C 462.438 825.884 460.885 827.745 458.395 827.745 C 455.904 827.745 454.322 825.884 454.322 822.911 L 454.322 821.007 C 454.322 818.106 455.904 816.202 458.395 816.202 Z  M 471.388 828.404 L 471.388 820.128 C 471.388 817.593 472.56 816.378 474.816 816.363 C 475.299 816.363 475.665 816.304 475.929 816.158 C 476.266 815.967 476.427 815.66 476.427 815.206 C 476.427 814.81 476.251 814.473 475.929 814.283 C 475.651 814.107 475.284 814.019 474.845 814.019 C 473.439 814.019 472.252 814.708 471.446 816.085 L 471.373 816.085 L 471.373 815.499 C 471.373 814.649 470.919 814.122 470.143 814.122 C 469.366 814.122 468.868 814.664 468.868 815.528 L 468.868 828.404 C 468.868 829.283 469.337 829.81 470.128 829.81 C 470.934 829.81 471.388 829.283 471.388 828.404 Z  M 491.573 828.404 L 491.573 819.132 C 491.573 815.894 489.654 814.019 486.329 814.019 C 483.971 814.019 482.301 815.133 481.656 817.081 L 481.525 817.081 L 481.525 815.499 C 481.525 814.634 481.056 814.122 480.279 814.122 C 479.503 814.122 479.02 814.649 479.02 815.528 L 479.02 828.404 C 479.02 829.283 479.488 829.81 480.279 829.81 C 481.07 829.81 481.539 829.283 481.539 828.404 L 481.539 821.05 C 481.539 818.048 483.136 816.246 485.67 816.246 C 487.838 816.246 489.039 817.506 489.039 819.893 L 489.039 828.404 C 489.039 829.283 489.508 829.81 490.299 829.81 C 491.09 829.81 491.573 829.283 491.573 828.404 Z  M 495.66 810.416 C 495.66 811.339 496.378 812.027 497.257 812.027 C 498.209 812.027 498.912 811.339 498.912 810.416 C 498.912 809.493 498.209 808.834 497.257 808.834 C 496.378 808.834 495.66 809.493 495.66 810.416 Z  M 498.531 828.404 L 498.531 815.528 C 498.531 814.591 498.004 814.122 497.286 814.122 C 496.568 814.122 496.012 814.576 496.012 815.528 L 496.012 828.404 C 496.012 829.342 496.554 829.81 497.272 829.81 C 497.989 829.81 498.531 829.356 498.531 828.404 Z  M 504.874 825.123 C 504.874 823.555 505.958 822.676 507.848 822.676 L 511.788 822.676 L 511.788 824.42 C 511.788 826.339 510.133 827.803 508.009 827.803 C 506.134 827.803 504.874 826.719 504.874 825.123 Z  M 511.759 827.613 L 511.861 827.613 L 511.861 828.477 C 511.891 829.312 512.33 829.81 513.077 829.81 C 513.854 829.81 514.308 829.298 514.308 828.419 L 514.308 819.132 C 514.308 815.836 512.257 814.019 508.551 814.019 C 507.042 814.019 505.885 814.298 504.991 814.81 C 503.761 815.513 503.16 816.363 503.16 817.227 C 503.16 817.828 503.556 818.223 504.142 818.223 C 504.596 818.223 504.933 818.077 505.284 817.667 C 506.207 816.612 507.086 816.158 508.39 816.158 C 510.602 816.158 511.788 817.169 511.788 819.146 L 511.788 820.64 L 507.716 820.64 C 504.332 820.64 502.296 822.383 502.296 825.181 C 502.296 828.008 504.318 829.913 507.32 829.913 C 509.269 829.913 510.836 829.107 511.759 827.613 Z  M 517.823 832.066 C 517.633 832.667 518.087 833.253 518.732 833.253 C 519.142 833.253 519.464 833.018 519.64 832.593 L 521.456 828.463 C 521.793 827.657 521.119 826.822 520.299 826.822 C 519.669 826.822 519.2 827.203 519.025 827.862 L 517.823 832.066 Z  M 257.008 829.81 C 257.799 829.81 258.297 829.268 258.297 828.404 L 258.297 821.036 L 265.636 821.036 C 266.442 821.036 266.954 820.596 266.954 819.893 C 266.954 819.19 266.442 818.751 265.636 818.751 L 258.297 818.751 L 258.297 811.954 L 266.398 811.954 C 267.189 811.954 267.701 811.529 267.701 810.826 C 267.701 810.123 267.189 809.669 266.398 809.669 L 258.092 809.669 C 256.407 809.669 255.734 810.284 255.734 811.837 L 255.734 828.404 C 255.734 829.268 256.217 829.81 257.008 829.81 Z  M 273.165 828.404 L 273.165 820.128 C 273.165 817.593 274.337 816.378 276.593 816.363 C 277.076 816.363 277.443 816.304 277.706 816.158 C 278.043 815.967 278.204 815.66 278.204 815.206 C 278.204 814.81 278.028 814.473 277.706 814.283 C 277.428 814.107 277.062 814.019 276.622 814.019 C 275.216 814.019 274.029 814.708 273.224 816.085 L 273.151 816.085 L 273.151 815.499 C 273.151 814.649 272.696 814.122 271.92 814.122 C 271.144 814.122 270.646 814.664 270.646 815.528 L 270.646 828.404 C 270.646 829.283 271.114 829.81 271.905 829.81 C 272.711 829.81 273.165 829.283 273.165 828.404 Z  M 282.496 825.123 C 282.496 823.555 283.58 822.676 285.47 822.676 L 289.41 822.676 L 289.41 824.42 C 289.41 826.339 287.755 827.803 285.631 827.803 C 283.756 827.803 282.496 826.719 282.496 825.123 Z  M 289.381 827.613 L 289.484 827.613 L 289.484 828.477 C 289.513 829.312 289.952 829.81 290.699 829.81 C 291.476 829.81 291.93 829.298 291.93 828.419 L 291.93 819.132 C 291.93 815.836 289.879 814.019 286.173 814.019 C 284.664 814.019 283.507 814.298 282.613 814.81 C 281.383 815.513 280.782 816.363 280.782 817.227 C 280.782 817.828 281.178 818.223 281.764 818.223 C 282.218 818.223 282.555 818.077 282.906 817.667 C 283.829 816.612 284.708 816.158 286.012 816.158 C 288.224 816.158 289.41 817.169 289.41 819.146 L 289.41 820.64 L 285.338 820.64 C 281.954 820.64 279.918 822.383 279.918 825.181 C 279.918 828.008 281.94 829.913 284.943 829.913 C 286.891 829.913 288.458 829.107 289.381 827.613 Z  M 308.79 828.404 L 308.79 819.132 C 308.79 815.894 306.871 814.019 303.546 814.019 C 301.188 814.019 299.518 815.133 298.873 817.081 L 298.741 817.081 L 298.741 815.499 C 298.741 814.634 298.273 814.122 297.496 814.122 C 296.72 814.122 296.236 814.649 296.236 815.528 L 296.236 828.404 C 296.236 829.283 296.705 829.81 297.496 829.81 C 298.287 829.81 298.756 829.283 298.756 828.404 L 298.756 821.05 C 298.756 818.048 300.353 816.246 302.887 816.246 C 305.055 816.246 306.256 817.506 306.256 819.893 L 306.256 828.404 C 306.256 829.283 306.725 829.81 307.516 829.81 C 308.307 829.81 308.79 829.283 308.79 828.404 Z  M 312.467 823.292 C 312.467 827.32 314.811 829.927 318.883 829.927 C 319.996 829.927 321.315 829.722 322.516 829.019 C 323.644 828.375 324.479 827.393 324.479 826.383 C 324.479 825.562 323.937 825.225 323.395 825.225 C 322.735 825.225 322.369 825.738 322.106 826.09 C 321.197 827.305 320.055 827.686 318.883 827.686 C 316.276 827.686 315.03 825.782 315.03 823.16 L 315.03 820.758 C 315.03 818.106 316.319 816.246 318.868 816.246 C 320.231 816.246 321.285 816.773 322.047 817.842 C 322.34 818.253 322.662 818.707 323.351 818.707 C 324.054 818.707 324.435 818.194 324.435 817.535 C 324.435 816.495 323.497 815.513 322.516 814.927 C 321.344 814.224 319.982 814.005 318.839 814.005 C 314.811 814.005 312.467 816.641 312.467 820.626 L 312.467 823.292 Z  M 328.141 810.416 C 328.141 811.339 328.859 812.027 329.737 812.027 C 330.69 812.027 331.393 811.339 331.393 810.416 C 331.393 809.493 330.69 808.834 329.737 808.834 C 328.859 808.834 328.141 809.493 328.141 810.416 Z  M 331.012 828.404 L 331.012 815.528 C 331.012 814.591 330.484 814.122 329.767 814.122 C 329.049 814.122 328.492 814.576 328.492 815.528 L 328.492 828.404 C 328.492 829.342 329.034 829.81 329.752 829.81 C 330.47 829.81 331.012 829.356 331.012 828.404 Z  M 334.776 826.529 C 334.776 827.423 335.392 828.287 336.49 828.917 C 337.633 829.561 339.112 829.927 340.68 829.927 C 344.283 829.927 346.51 828.155 346.51 825.342 C 346.51 823.16 345.265 821.856 342.584 821.212 L 339.728 820.523 C 338.19 820.142 337.472 819.468 337.472 818.355 C 337.472 816.934 338.629 816.07 340.519 816.07 C 341.866 816.07 342.76 816.495 343.785 817.593 C 344.401 818.223 344.635 818.37 345.089 818.37 C 345.734 818.37 346.158 817.974 346.158 817.33 C 346.158 816.568 345.587 815.733 344.664 815.118 C 343.58 814.4 342.159 814.005 340.621 814.005 C 337.193 814.005 334.996 815.777 334.996 818.516 C 334.996 820.684 336.285 822.032 338.966 822.647 L 341.896 823.321 C 343.243 823.643 344.034 824.464 344.034 825.548 C 344.034 826.968 342.789 827.862 340.812 827.862 C 339.244 827.862 338.043 827.32 337.106 826.236 C 336.593 825.606 336.285 825.401 335.875 825.401 C 335.201 825.401 334.776 825.826 334.776 826.529 Z  M 349.571 823.292 C 349.571 827.32 351.915 829.927 355.987 829.927 C 357.101 829.927 358.419 829.722 359.62 829.019 C 360.748 828.375 361.583 827.393 361.583 826.383 C 361.583 825.562 361.041 825.225 360.499 825.225 C 359.84 825.225 359.474 825.738 359.21 826.09 C 358.302 827.305 357.159 827.686 355.987 827.686 C 353.38 827.686 352.135 825.782 352.135 823.16 L 352.135 820.758 C 352.135 818.106 353.424 816.246 355.973 816.246 C 357.335 816.246 358.39 816.773 359.151 817.842 C 359.444 818.253 359.767 818.707 360.455 818.707 C 361.158 818.707 361.539 818.194 361.539 817.535 C 361.539 816.495 360.602 815.513 359.62 814.927 C 358.448 814.224 357.086 814.005 355.943 814.005 C 351.915 814.005 349.571 816.641 349.571 820.626 L 349.571 823.292 Z  M 371.456 814.005 C 367.662 814.005 364.835 816.48 364.835 820.787 L 364.835 823.131 C 364.835 827.452 367.662 829.927 371.456 829.927 C 375.235 829.927 378.063 827.452 378.063 823.131 L 378.063 820.787 C 378.063 816.48 375.235 814.005 371.456 814.005 Z  M 371.456 816.202 C 373.946 816.202 375.499 818.106 375.499 821.007 L 375.499 822.911 C 375.499 825.884 373.946 827.745 371.456 827.745 C 368.966 827.745 367.384 825.884 367.384 822.911 L 367.384 821.007 C 367.384 818.106 368.966 816.202 371.456 816.202 Z  M 381.139 832.066 C 380.948 832.667 381.402 833.253 382.047 833.253 C 382.457 833.253 382.779 833.018 382.955 832.593 L 384.772 828.463 C 385.109 827.657 384.435 826.822 383.614 826.822 C 382.984 826.822 382.516 827.203 382.34 827.862 L 381.139 832.066 Z  M 199.381 825.533 C 199.381 826.412 199.923 827.364 200.978 828.316 C 202.223 829.444 204.274 830.089 206.632 830.089 C 211.026 830.089 213.78 827.847 213.78 824.258 C 213.78 821.431 212.184 819.747 208.595 818.78 L 205.27 817.872 C 203.395 817.374 202.399 816.304 202.399 814.81 C 202.399 812.818 204.068 811.529 206.661 811.529 C 208.697 811.529 210.338 812.54 210.997 814.166 C 211.246 814.752 211.627 815.015 212.213 815.015 C 212.887 815.015 213.326 814.547 213.326 813.843 C 213.326 812.877 212.784 811.851 211.803 810.972 C 210.543 809.859 208.683 809.244 206.603 809.244 C 202.501 809.244 199.733 811.558 199.733 815.001 C 199.733 817.652 201.344 819.41 204.552 820.274 L 207.921 821.182 C 210.162 821.783 211.217 822.852 211.217 824.537 C 211.217 826.588 209.547 827.803 206.793 827.803 C 204.625 827.803 203.087 827.042 202.062 825.445 C 201.505 824.61 201.095 824.302 200.494 824.302 C 199.835 824.302 199.381 824.8 199.381 825.533 Z  M 218.981 825.123 C 218.981 823.555 220.065 822.676 221.954 822.676 L 225.895 822.676 L 225.895 824.42 C 225.895 826.339 224.239 827.803 222.115 827.803 C 220.24 827.803 218.981 826.719 218.981 825.123 Z  M 225.865 827.613 L 225.968 827.613 L 225.968 828.477 C 225.997 829.312 226.437 829.81 227.184 829.81 C 227.96 829.81 228.414 829.298 228.414 828.419 L 228.414 819.132 C 228.414 815.836 226.363 814.019 222.657 814.019 C 221.149 814.019 219.991 814.298 219.098 814.81 C 217.867 815.513 217.267 816.363 217.267 817.227 C 217.267 817.828 217.662 818.223 218.248 818.223 C 218.702 818.223 219.039 818.077 219.391 817.667 C 220.314 816.612 221.193 816.158 222.496 816.158 C 224.708 816.158 225.895 817.169 225.895 819.146 L 225.895 820.64 L 221.822 820.64 C 218.439 820.64 216.402 822.383 216.402 825.181 C 216.402 828.008 218.424 829.913 221.427 829.913 C 223.375 829.913 224.943 829.107 225.865 827.613 Z  M 245.275 828.404 L 245.275 819.132 C 245.275 815.894 243.356 814.019 240.03 814.019 C 237.672 814.019 236.002 815.133 235.358 817.081 L 235.226 817.081 L 235.226 815.499 C 235.226 814.634 234.757 814.122 233.981 814.122 C 233.204 814.122 232.721 814.649 232.721 815.528 L 232.721 828.404 C 232.721 829.283 233.19 829.81 233.981 829.81 C 234.772 829.81 235.24 829.283 235.24 828.404 L 235.24 821.05 C 235.24 818.048 236.837 816.246 239.371 816.246 C 241.539 816.246 242.74 817.506 242.74 819.893 L 242.74 828.404 C 242.74 829.283 243.209 829.81 244 829.81 C 244.791 829.81 245.275 829.283 245.275 828.404 Z  M 307.779 794.009 C 308.57 794.009 309.068 793.467 309.068 792.603 L 309.068 775.128 C 309.068 774.263 308.57 773.721 307.779 773.721 C 306.988 773.721 306.505 774.263 306.505 775.128 L 306.505 782.379 L 296.442 782.379 L 296.442 775.128 C 296.442 774.263 295.943 773.721 295.152 773.721 C 294.361 773.721 293.878 774.263 293.878 775.128 L 293.878 792.603 C 293.878 793.467 294.361 794.009 295.152 794.009 C 295.943 794.009 296.442 793.467 296.442 792.603 L 296.442 784.664 L 306.505 784.664 L 306.505 792.603 C 306.505 793.467 306.988 794.009 307.779 794.009 Z  M 313.082 787.403 C 313.082 791.563 315.631 794.127 319.762 794.127 C 321.827 794.127 323.702 793.482 324.669 792.442 C 325.109 791.988 325.387 791.431 325.387 790.977 C 325.387 790.362 324.962 789.908 324.405 789.908 C 323.981 789.908 323.805 790.025 323.014 790.758 C 322.193 791.549 321.183 791.944 319.879 791.944 C 317.242 791.944 315.646 790.274 315.631 787.608 L 315.631 786.802 L 324.391 786.802 C 325.475 786.802 325.768 786.334 325.768 784.664 C 325.768 780.884 323.19 778.204 319.513 778.204 C 315.719 778.204 313.082 780.987 313.082 784.971 L 313.082 787.403 Z  M 315.631 784.752 L 315.631 784.708 C 315.631 782.13 317.213 780.372 319.542 780.372 C 321.813 780.372 323.263 782.056 323.263 784.708 L 323.263 784.752 L 315.631 784.752 Z  M 329.371 774.615 C 329.371 775.538 330.089 776.226 330.968 776.226 C 331.92 776.226 332.623 775.538 332.623 774.615 C 332.623 773.692 331.92 773.033 330.968 773.033 C 330.089 773.033 329.371 773.692 329.371 774.615 Z  M 332.242 792.603 L 332.242 779.727 C 332.242 778.79 331.715 778.321 330.997 778.321 C 330.279 778.321 329.723 778.775 329.723 779.727 L 329.723 792.603 C 329.723 793.541 330.265 794.009 330.983 794.009 C 331.7 794.009 332.242 793.555 332.242 792.603 Z  M 346.715 791.3 L 346.861 791.3 L 346.861 793.482 C 346.861 795.958 345.265 797.437 342.716 797.437 C 340.885 797.437 339.889 796.661 339.303 796.119 C 338.834 795.679 338.541 795.284 337.926 795.284 C 337.281 795.284 336.857 795.738 336.857 796.368 C 336.857 797.188 337.574 798.023 338.512 798.594 C 339.61 799.268 341.119 799.649 342.818 799.649 C 346.656 799.649 349.366 797.657 349.366 793.424 L 349.366 779.727 C 349.366 778.775 348.868 778.321 348.151 778.321 C 347.447 778.321 346.964 778.76 346.964 779.698 L 346.964 780.782 L 346.847 780.782 C 346.305 779.508 344.708 778.218 342.306 778.218 C 338.995 778.218 336.285 780.679 336.285 784.678 L 336.285 787.286 C 336.285 791.285 338.995 793.717 342.335 793.717 C 344.562 793.717 346.114 792.618 346.715 791.3 Z  M 338.834 786.788 L 338.834 785.191 C 338.834 782.349 340.431 780.416 342.877 780.416 C 345.455 780.416 346.847 782.51 346.847 784.766 L 346.847 787.271 C 346.847 789.468 345.499 791.534 342.965 791.534 C 340.533 791.534 338.834 789.63 338.834 786.788 Z  M 366.608 792.603 L 366.608 783.36 C 366.608 780.167 364.645 778.218 361.422 778.218 C 359.137 778.218 357.174 779.478 356.647 781.28 L 356.515 781.28 L 356.515 774.132 C 356.515 773.238 356.031 772.725 355.24 772.725 C 354.464 772.725 353.995 773.238 353.995 774.132 L 353.995 792.603 C 353.995 793.482 354.449 794.009 355.24 794.009 C 356.031 794.009 356.515 793.482 356.515 792.603 L 356.515 785.25 C 356.515 782.276 358.111 780.445 360.616 780.445 C 362.799 780.445 364.073 781.763 364.073 784.122 L 364.073 792.603 C 364.073 793.482 364.527 794.009 365.318 794.009 C 366.109 794.009 366.608 793.467 366.608 792.603 Z  M 371.793 789.776 C 371.793 792.984 372.862 794.097 375.646 794.097 C 376.481 794.097 377.052 793.995 377.462 793.79 C 377.916 793.57 378.107 793.233 378.107 792.823 C 378.107 792.252 377.711 791.885 377.14 791.885 C 376.861 791.885 376.568 791.929 376.158 791.929 C 374.737 791.929 374.327 791.446 374.327 789.805 L 374.327 780.606 L 376.378 780.606 C 377.096 780.606 377.55 780.211 377.55 779.551 C 377.55 778.892 377.11 778.482 376.378 778.482 L 374.313 778.482 L 374.313 775.948 C 374.313 775.069 373.844 774.556 373.053 774.556 C 372.276 774.556 371.808 775.069 371.808 775.948 L 371.808 778.482 L 370.68 778.482 C 369.947 778.482 369.508 778.892 369.508 779.551 C 369.508 780.211 369.962 780.606 370.68 780.606 L 371.793 780.606 L 371.793 789.776 Z  M 380.069 790.728 C 380.069 791.622 380.685 792.486 381.783 793.116 C 382.926 793.76 384.405 794.127 385.973 794.127 C 389.576 794.127 391.803 792.354 391.803 789.542 C 391.803 787.359 390.558 786.055 387.877 785.411 L 385.021 784.722 C 383.483 784.342 382.765 783.668 382.765 782.554 C 382.765 781.133 383.922 780.269 385.812 780.269 C 387.159 780.269 388.053 780.694 389.078 781.793 C 389.693 782.423 389.928 782.569 390.382 782.569 C 391.026 782.569 391.451 782.174 391.451 781.529 C 391.451 780.767 390.88 779.932 389.957 779.317 C 388.873 778.599 387.452 778.204 385.914 778.204 C 382.486 778.204 380.289 779.976 380.289 782.716 C 380.289 784.883 381.578 786.231 384.259 786.846 L 387.189 787.52 C 388.536 787.842 389.327 788.663 389.327 789.747 C 389.327 791.168 388.082 792.061 386.105 792.061 C 384.537 792.061 383.336 791.519 382.399 790.435 C 381.886 789.805 381.578 789.6 381.168 789.6 C 380.494 789.6 380.069 790.025 380.069 790.728 Z  M 201.798 794.009 C 202.589 794.009 203.072 793.467 203.072 792.603 L 203.072 786.275 L 207.76 786.275 C 211.612 786.275 214.161 783.829 214.161 780.079 C 214.161 776.358 211.612 773.868 207.789 773.868 L 202.911 773.868 C 201.183 773.868 200.524 774.483 200.524 776.08 L 200.524 792.603 C 200.524 793.467 201.007 794.009 201.798 794.009 Z  M 203.087 784.034 L 203.087 776.124 L 207.643 776.124 C 210.118 776.124 211.539 777.574 211.539 780.079 C 211.539 782.994 210.104 784.034 206.134 784.034 L 203.087 784.034 Z  M 218.893 789.322 C 218.893 787.755 219.977 786.876 221.866 786.876 L 225.807 786.876 L 225.807 788.619 C 225.807 790.538 224.151 792.003 222.027 792.003 C 220.152 792.003 218.893 790.919 218.893 789.322 Z  M 225.777 791.812 L 225.88 791.812 L 225.88 792.676 C 225.909 793.511 226.349 794.009 227.096 794.009 C 227.872 794.009 228.326 793.497 228.326 792.618 L 228.326 783.331 C 228.326 780.035 226.276 778.218 222.569 778.218 C 221.061 778.218 219.903 778.497 219.01 779.009 C 217.779 779.713 217.179 780.562 217.179 781.426 C 217.179 782.027 217.574 782.423 218.16 782.423 C 218.614 782.423 218.951 782.276 219.303 781.866 C 220.226 780.811 221.105 780.357 222.408 780.357 C 224.62 780.357 225.807 781.368 225.807 783.345 L 225.807 784.84 L 221.734 784.84 C 218.351 784.84 216.315 786.583 216.315 789.381 C 216.315 792.208 218.336 794.112 221.339 794.112 C 223.287 794.112 224.855 793.306 225.777 791.812 Z  M 232.018 787.491 C 232.018 791.519 234.361 794.127 238.434 794.127 C 239.547 794.127 240.865 793.922 242.067 793.218 C 243.194 792.574 244.029 791.592 244.029 790.582 C 244.029 789.761 243.487 789.425 242.945 789.425 C 242.286 789.425 241.92 789.937 241.656 790.289 C 240.748 791.505 239.606 791.885 238.434 791.885 C 235.826 791.885 234.581 789.981 234.581 787.359 L 234.581 784.957 C 234.581 782.305 235.87 780.445 238.419 780.445 C 239.781 780.445 240.836 780.972 241.598 782.042 C 241.891 782.452 242.213 782.906 242.901 782.906 C 243.605 782.906 243.985 782.393 243.985 781.734 C 243.985 780.694 243.048 779.713 242.067 779.127 C 240.895 778.424 239.532 778.204 238.39 778.204 C 234.361 778.204 232.018 780.841 232.018 784.825 L 232.018 787.491 Z  M 247.692 774.615 C 247.692 775.538 248.409 776.226 249.288 776.226 C 250.24 776.226 250.943 775.538 250.943 774.615 C 250.943 773.692 250.24 773.033 249.288 773.033 C 248.409 773.033 247.692 773.692 247.692 774.615 Z  M 250.563 792.603 L 250.563 779.727 C 250.563 778.79 250.035 778.321 249.318 778.321 C 248.6 778.321 248.043 778.775 248.043 779.727 L 248.043 792.603 C 248.043 793.541 248.585 794.009 249.303 794.009 C 250.021 794.009 250.563 793.555 250.563 792.603 Z  M 258.678 792.603 L 258.678 780.592 L 260.831 780.592 C 261.549 780.592 262.003 780.196 262.003 779.537 C 262.003 778.878 261.549 778.482 260.831 778.482 L 258.663 778.482 L 258.663 776.856 C 258.663 775.435 259.22 774.761 260.348 774.761 C 261.051 774.761 261.168 774.879 261.783 774.879 C 262.369 774.879 262.721 774.512 262.721 773.926 C 262.721 773.575 262.56 773.297 262.267 773.062 C 261.901 772.784 261.285 772.623 260.494 772.623 C 257.594 772.623 256.158 774.044 256.158 776.973 L 256.158 778.482 L 254.884 778.482 C 254.151 778.482 253.712 778.863 253.712 779.537 C 253.712 780.196 254.166 780.592 254.884 780.592 L 256.158 780.592 L 256.158 792.603 C 256.158 793.482 256.627 794.009 257.403 794.009 C 258.194 794.009 258.678 793.482 258.678 792.603 Z  M 264.933 774.615 C 264.933 775.538 265.651 776.226 266.529 776.226 C 267.482 776.226 268.185 775.538 268.185 774.615 C 268.185 773.692 267.482 773.033 266.529 773.033 C 265.651 773.033 264.933 773.692 264.933 774.615 Z  M 267.804 792.603 L 267.804 779.727 C 267.804 778.79 267.276 778.321 266.559 778.321 C 265.841 778.321 265.284 778.775 265.284 779.727 L 265.284 792.603 C 265.284 793.541 265.826 794.009 266.544 794.009 C 267.262 794.009 267.804 793.555 267.804 792.603 Z  M 271.832 787.491 C 271.832 791.519 274.176 794.127 278.248 794.127 C 279.361 794.127 280.68 793.922 281.881 793.218 C 283.009 792.574 283.844 791.592 283.844 790.582 C 283.844 789.761 283.302 789.425 282.76 789.425 C 282.101 789.425 281.734 789.937 281.471 790.289 C 280.563 791.505 279.42 791.885 278.248 791.885 C 275.641 791.885 274.396 789.981 274.396 787.359 L 274.396 784.957 C 274.396 782.305 275.685 780.445 278.234 780.445 C 279.596 780.445 280.651 780.972 281.412 782.042 C 281.705 782.452 282.027 782.906 282.716 782.906 C 283.419 782.906 283.8 782.393 283.8 781.734 C 283.8 780.694 282.862 779.713 281.881 779.127 C 280.709 778.424 279.347 778.204 278.204 778.204 C 274.176 778.204 271.832 780.841 271.832 784.825 L 271.832 787.491 Z  M 432.599 758.209 C 433.39 758.209 433.888 757.667 433.888 756.802 L 433.888 739.327 C 433.888 738.463 433.39 737.921 432.599 737.921 C 431.808 737.921 431.324 738.463 431.324 739.327 L 431.324 756.802 C 431.324 757.667 431.808 758.209 432.599 758.209 Z  M 440.948 755.792 C 441.622 757.74 442.047 758.209 443.102 758.209 C 444.112 758.209 444.508 757.799 445.24 755.792 L 449.225 744.703 C 449.386 744.322 449.444 744.044 449.444 743.809 C 449.444 743.135 448.917 742.593 448.243 742.593 C 447.584 742.593 447.174 742.96 446.896 743.868 L 443.116 755.572 L 442.999 755.572 L 439.484 743.868 C 439.234 742.989 438.81 742.593 438.107 742.593 C 437.418 742.593 436.861 743.15 436.861 743.809 C 436.861 744.073 436.935 744.351 437.067 744.703 L 440.948 755.792 Z  M 451.642 751.602 C 451.642 755.762 454.191 758.326 458.321 758.326 C 460.387 758.326 462.262 757.681 463.229 756.641 C 463.668 756.187 463.946 755.631 463.946 755.176 C 463.946 754.561 463.522 754.107 462.965 754.107 C 462.54 754.107 462.364 754.224 461.573 754.957 C 460.753 755.748 459.742 756.143 458.439 756.143 C 455.802 756.143 454.205 754.473 454.191 751.807 L 454.191 751.002 L 462.95 751.002 C 464.034 751.002 464.327 750.533 464.327 748.863 C 464.327 745.084 461.749 742.403 458.072 742.403 C 454.278 742.403 451.642 745.186 451.642 749.171 L 451.642 751.602 Z  M 454.191 748.951 L 454.191 748.907 C 454.191 746.329 455.773 744.571 458.102 744.571 C 460.372 744.571 461.822 746.256 461.822 748.907 L 461.822 748.951 L 454.191 748.951 Z  M 370.372 758.209 C 371.163 758.209 371.647 757.667 371.647 756.802 L 371.647 750.474 L 376.334 750.474 C 380.187 750.474 382.735 748.028 382.735 744.278 C 382.735 740.557 380.187 738.067 376.363 738.067 L 371.485 738.067 C 369.757 738.067 369.098 738.682 369.098 740.279 L 369.098 756.802 C 369.098 757.667 369.581 758.209 370.372 758.209 Z  M 371.661 748.233 L 371.661 740.323 L 376.217 740.323 C 378.693 740.323 380.113 741.773 380.113 744.278 C 380.113 747.193 378.678 748.233 374.708 748.233 L 371.661 748.233 Z  M 387.467 753.521 C 387.467 751.954 388.551 751.075 390.441 751.075 L 394.381 751.075 L 394.381 752.818 C 394.381 754.737 392.726 756.202 390.602 756.202 C 388.727 756.202 387.467 755.118 387.467 753.521 Z  M 394.352 756.011 L 394.454 756.011 L 394.454 756.876 C 394.484 757.711 394.923 758.209 395.67 758.209 C 396.446 758.209 396.901 757.696 396.901 756.817 L 396.901 747.53 C 396.901 744.234 394.85 742.418 391.144 742.418 C 389.635 742.418 388.478 742.696 387.584 743.209 C 386.354 743.912 385.753 744.761 385.753 745.626 C 385.753 746.226 386.149 746.622 386.734 746.622 C 387.189 746.622 387.526 746.475 387.877 746.065 C 388.8 745.01 389.679 744.556 390.983 744.556 C 393.194 744.556 394.381 745.567 394.381 747.545 L 394.381 749.039 L 390.309 749.039 C 386.925 749.039 384.889 750.782 384.889 753.58 C 384.889 756.407 386.91 758.311 389.913 758.311 C 391.861 758.311 393.429 757.506 394.352 756.011 Z  M 410.817 755.513 L 410.963 755.513 L 410.963 756.89 C 410.963 757.799 411.505 758.209 412.223 758.209 C 412.941 758.209 413.483 757.813 413.483 756.861 L 413.483 743.868 C 413.483 742.916 412.941 742.506 412.223 742.506 C 411.49 742.506 410.948 742.916 410.948 743.868 L 410.948 752.467 C 410.948 754.444 409.293 756.099 406.803 756.099 C 405.045 756.099 403.507 755.279 403.507 752.73 L 403.507 743.868 C 403.507 742.916 402.965 742.506 402.247 742.506 C 401.515 742.506 400.973 742.916 400.973 743.868 L 400.973 753.375 C 400.973 756.934 403.243 758.311 406.085 758.311 C 409.073 758.311 410.348 756.773 410.817 755.513 Z  M 419.313 758.209 C 420.03 758.209 420.572 757.755 420.572 756.802 L 420.572 738.331 C 420.572 737.379 420.03 736.925 419.313 736.925 C 418.595 736.925 418.068 737.379 418.068 738.331 L 418.068 756.802 C 418.068 757.755 418.595 758.209 419.313 758.209 Z  M 247.721 739.342 L 247.721 752.452 C 247.721 754.825 246.52 756.187 244.454 756.187 C 242.975 756.187 241.891 755.513 241.261 754.224 C 240.88 753.477 240.602 753.228 240.089 753.228 C 239.43 753.228 239.02 753.697 239.02 754.459 C 239.02 755.25 239.43 756.129 240.104 756.832 C 241.144 757.916 242.652 758.487 244.557 758.487 C 248.087 758.487 250.284 756.143 250.284 752.349 L 250.284 739.342 C 250.284 738.463 249.786 737.921 248.995 737.921 C 248.204 737.921 247.721 738.463 247.721 739.342 Z  M 260.89 742.403 C 257.096 742.403 254.269 744.879 254.269 749.185 L 254.269 751.529 C 254.269 755.85 257.096 758.326 260.89 758.326 C 264.669 758.326 267.496 755.85 267.496 751.529 L 267.496 749.185 C 267.496 744.879 264.669 742.403 260.89 742.403 Z  M 260.89 744.6 C 263.38 744.6 264.933 746.505 264.933 749.405 L 264.933 751.309 C 264.933 754.283 263.38 756.143 260.89 756.143 C 258.4 756.143 256.818 754.283 256.818 751.309 L 256.818 749.405 C 256.818 746.505 258.4 744.6 260.89 744.6 Z  M 283.917 756.802 L 283.917 747.53 C 283.917 744.293 281.998 742.418 278.673 742.418 C 276.315 742.418 274.645 743.531 274 745.479 L 273.868 745.479 L 273.868 743.897 C 273.868 743.033 273.4 742.52 272.623 742.52 C 271.847 742.52 271.363 743.048 271.363 743.926 L 271.363 756.802 C 271.363 757.681 271.832 758.209 272.623 758.209 C 273.414 758.209 273.883 757.681 273.883 756.802 L 273.883 749.449 C 273.883 746.446 275.48 744.644 278.014 744.644 C 280.182 744.644 281.383 745.904 281.383 748.292 L 281.383 756.802 C 281.383 757.681 281.852 758.209 282.643 758.209 C 283.434 758.209 283.917 757.681 283.917 756.802 Z  M 289.908 753.521 C 289.908 751.954 290.992 751.075 292.882 751.075 L 296.822 751.075 L 296.822 752.818 C 296.822 754.737 295.167 756.202 293.043 756.202 C 291.168 756.202 289.908 755.118 289.908 753.521 Z  M 296.793 756.011 L 296.896 756.011 L 296.896 756.876 C 296.925 757.711 297.364 758.209 298.111 758.209 C 298.888 758.209 299.342 757.696 299.342 756.817 L 299.342 747.53 C 299.342 744.234 297.291 742.418 293.585 742.418 C 292.076 742.418 290.919 742.696 290.026 743.209 C 288.795 743.912 288.194 744.761 288.194 745.626 C 288.194 746.226 288.59 746.622 289.176 746.622 C 289.63 746.622 289.967 746.475 290.318 746.065 C 291.241 745.01 292.12 744.556 293.424 744.556 C 295.636 744.556 296.822 745.567 296.822 747.545 L 296.822 749.039 L 292.75 749.039 C 289.366 749.039 287.33 750.782 287.33 753.58 C 287.33 756.407 289.352 758.311 292.355 758.311 C 294.303 758.311 295.87 757.506 296.793 756.011 Z  M 304.601 753.975 C 304.601 757.183 305.67 758.297 308.453 758.297 C 309.288 758.297 309.859 758.194 310.27 757.989 C 310.724 757.769 310.914 757.432 310.914 757.022 C 310.914 756.451 310.519 756.085 309.947 756.085 C 309.669 756.085 309.376 756.129 308.966 756.129 C 307.545 756.129 307.135 755.645 307.135 754.005 L 307.135 744.805 L 309.186 744.805 C 309.903 744.805 310.358 744.41 310.358 743.751 C 310.358 743.092 309.918 742.681 309.186 742.681 L 307.12 742.681 L 307.12 740.147 C 307.12 739.268 306.651 738.756 305.86 738.756 C 305.084 738.756 304.615 739.268 304.615 740.147 L 304.615 742.681 L 303.487 742.681 C 302.755 742.681 302.316 743.092 302.316 743.751 C 302.316 744.41 302.77 744.805 303.487 744.805 L 304.601 744.805 L 304.601 753.975 Z  M 326.412 756.802 L 326.412 747.559 C 326.412 744.366 324.449 742.418 321.227 742.418 C 318.942 742.418 316.979 743.677 316.451 745.479 L 316.319 745.479 L 316.319 738.331 C 316.319 737.437 315.836 736.925 315.045 736.925 C 314.269 736.925 313.8 737.437 313.8 738.331 L 313.8 756.802 C 313.8 757.681 314.254 758.209 315.045 758.209 C 315.836 758.209 316.319 757.681 316.319 756.802 L 316.319 749.449 C 316.319 746.475 317.916 744.644 320.421 744.644 C 322.604 744.644 323.878 745.963 323.878 748.321 L 323.878 756.802 C 323.878 757.681 324.332 758.209 325.123 758.209 C 325.914 758.209 326.412 757.667 326.412 756.802 Z  M 332.345 753.521 C 332.345 751.954 333.429 751.075 335.318 751.075 L 339.259 751.075 L 339.259 752.818 C 339.259 754.737 337.604 756.202 335.48 756.202 C 333.605 756.202 332.345 755.118 332.345 753.521 Z  M 339.23 756.011 L 339.332 756.011 L 339.332 756.876 C 339.361 757.711 339.801 758.209 340.548 758.209 C 341.324 758.209 341.778 757.696 341.778 756.817 L 341.778 747.53 C 341.778 744.234 339.728 742.418 336.022 742.418 C 334.513 742.418 333.356 742.696 332.462 743.209 C 331.232 743.912 330.631 744.761 330.631 745.626 C 330.631 746.226 331.026 746.622 331.612 746.622 C 332.067 746.622 332.403 746.475 332.755 746.065 C 333.678 745.01 334.557 744.556 335.86 744.556 C 338.072 744.556 339.259 745.567 339.259 747.545 L 339.259 749.039 L 335.187 749.039 C 331.803 749.039 329.767 750.782 329.767 753.58 C 329.767 756.407 331.788 758.311 334.791 758.311 C 336.739 758.311 338.307 757.506 339.23 756.011 Z  M 358.639 756.802 L 358.639 747.53 C 358.639 744.293 356.72 742.418 353.395 742.418 C 351.036 742.418 349.366 743.531 348.722 745.479 L 348.59 745.479 L 348.59 743.897 C 348.59 743.033 348.121 742.52 347.345 742.52 C 346.568 742.52 346.085 743.048 346.085 743.926 L 346.085 756.802 C 346.085 757.681 346.554 758.209 347.345 758.209 C 348.136 758.209 348.605 757.681 348.605 756.802 L 348.605 749.449 C 348.605 746.446 350.201 744.644 352.735 744.644 C 354.903 744.644 356.105 745.904 356.105 748.292 L 356.105 756.802 C 356.105 757.681 356.573 758.209 357.364 758.209 C 358.155 758.209 358.639 757.681 358.639 756.802 Z  M 199.381 753.931 C 199.381 754.81 199.923 755.762 200.978 756.715 C 202.223 757.842 204.274 758.487 206.632 758.487 C 211.026 758.487 213.78 756.246 213.78 752.657 C 213.78 749.83 212.184 748.145 208.595 747.178 L 205.27 746.27 C 203.395 745.772 202.399 744.703 202.399 743.209 C 202.399 741.217 204.068 739.927 206.661 739.927 C 208.697 739.927 210.338 740.938 210.997 742.564 C 211.246 743.15 211.627 743.414 212.213 743.414 C 212.887 743.414 213.326 742.945 213.326 742.242 C 213.326 741.275 212.784 740.25 211.803 739.371 C 210.543 738.258 208.683 737.642 206.603 737.642 C 202.501 737.642 199.733 739.957 199.733 743.399 C 199.733 746.05 201.344 747.808 204.552 748.673 L 207.921 749.581 C 210.162 750.181 211.217 751.251 211.217 752.935 C 211.217 754.986 209.547 756.202 206.793 756.202 C 204.625 756.202 203.087 755.44 202.062 753.843 C 201.505 753.008 201.095 752.701 200.494 752.701 C 199.835 752.701 199.381 753.199 199.381 753.931 Z  M 217.076 738.814 C 217.076 739.737 217.794 740.425 218.673 740.425 C 219.625 740.425 220.328 739.737 220.328 738.814 C 220.328 737.891 219.625 737.232 218.673 737.232 C 217.794 737.232 217.076 737.891 217.076 738.814 Z  M 219.947 756.802 L 219.947 743.926 C 219.947 742.989 219.42 742.52 218.702 742.52 C 217.984 742.52 217.428 742.974 217.428 743.926 L 217.428 756.802 C 217.428 757.74 217.97 758.209 218.688 758.209 C 219.405 758.209 219.947 757.755 219.947 756.802 Z  M 227.11 756.802 L 227.11 748.526 C 227.11 745.992 228.282 744.776 230.538 744.761 C 231.022 744.761 231.388 744.703 231.651 744.556 C 231.988 744.366 232.15 744.058 232.15 743.604 C 232.15 743.209 231.974 742.872 231.651 742.681 C 231.373 742.506 231.007 742.418 230.568 742.418 C 229.161 742.418 227.975 743.106 227.169 744.483 L 227.096 744.483 L 227.096 743.897 C 227.096 743.048 226.642 742.52 225.865 742.52 C 225.089 742.52 224.591 743.062 224.591 743.926 L 224.591 756.802 C 224.591 757.681 225.06 758.209 225.851 758.209 C 226.656 758.209 227.11 757.681 227.11 756.802 Z  M 202.545 722.408 C 204.068 722.408 204.918 721.47 204.918 719.8 L 204.918 714.732 L 211.07 714.732 C 212.213 714.732 212.989 713.97 212.989 712.842 C 212.989 711.715 212.228 710.953 211.07 710.953 L 204.918 710.953 L 204.918 706.148 L 211.818 706.148 C 212.931 706.148 213.736 705.357 213.736 704.229 C 213.736 703.087 212.931 702.266 211.818 702.266 L 202.867 702.266 C 201.051 702.266 200.069 703.248 200.069 705.035 L 200.069 719.8 C 200.069 721.441 200.978 722.408 202.545 722.408 Z  M 220.548 719.83 L 220.548 713.824 C 220.548 711.583 221.588 710.425 223.712 710.352 C 224.415 710.323 224.957 710.162 225.309 709.869 C 225.69 709.547 225.88 709.078 225.88 708.433 C 225.88 707.774 225.675 707.261 225.294 706.91 C 224.928 706.558 224.415 706.383 223.771 706.383 C 222.262 706.383 221.149 707.276 220.621 708.887 L 220.401 708.887 L 220.401 708.668 C 220.299 707.247 219.523 706.485 218.16 706.485 C 216.651 706.485 215.846 707.408 215.846 709.063 L 215.846 719.83 C 215.846 721.47 216.608 722.408 218.146 722.408 C 219.669 722.408 220.548 721.47 220.548 719.83 Z  M 234.625 706.236 C 230.099 706.236 227.096 709.049 227.096 713.648 L 227.096 715.157 C 227.096 719.918 230.099 722.642 234.625 722.642 C 239.137 722.642 242.14 719.918 242.14 715.142 L 242.14 713.619 C 242.14 709.049 239.137 706.236 234.625 706.236 Z  M 234.625 709.752 C 236.31 709.752 237.276 711.173 237.276 713.619 L 237.276 715.245 C 237.276 717.691 236.31 719.127 234.625 719.127 C 232.955 719.127 231.944 717.691 231.944 715.245 L 231.944 713.619 C 231.944 711.173 232.955 709.752 234.625 709.752 Z  M 267.994 719.83 L 267.994 711.407 C 267.994 708.287 266.105 706.383 263.028 706.383 C 260.758 706.383 258.971 707.554 258.37 709.342 L 258.151 709.342 C 257.652 707.496 256.085 706.383 253.873 706.383 C 251.749 706.383 250.065 707.525 249.581 709.283 L 249.347 709.283 L 249.347 708.843 C 249.274 707.364 248.424 706.485 247.076 706.485 C 245.655 706.485 244.776 707.437 244.776 708.99 L 244.776 719.83 C 244.776 721.514 245.626 722.408 247.135 722.408 C 248.644 722.408 249.479 721.514 249.479 719.83 L 249.479 713.018 C 249.479 711.26 250.387 710.176 251.822 710.176 C 253.258 710.176 254.137 711.202 254.137 712.916 L 254.137 719.83 C 254.137 721.514 254.913 722.408 256.393 722.408 C 257.858 722.408 258.634 721.514 258.634 719.83 L 258.634 713.018 C 258.634 711.275 259.557 710.176 261.007 710.176 C 262.443 710.176 263.292 711.158 263.292 712.886 L 263.292 719.83 C 263.292 721.514 264.127 722.408 265.636 722.408 C 267.145 722.408 267.994 721.514 267.994 719.83 Z  M 271.261 719.962 C 271.261 721.412 272.447 722.598 273.898 722.598 C 275.333 722.598 276.534 721.412 276.534 719.962 C 276.534 718.511 275.333 717.325 273.898 717.325 C 272.447 717.325 271.261 718.511 271.261 719.962 Z  M 271.261 710.323 C 271.261 711.773 272.447 712.96 273.898 712.96 C 275.333 712.96 276.534 711.773 276.534 710.323 C 276.534 708.873 275.333 707.686 273.898 707.686 C 272.447 707.686 271.261 708.873 271.261 710.323 Z "
            fill-rule="evenodd" fill="rgb(33,33,33)" />
    </g>
</svg>