<?xml version="1.0" standalone="no"?><!-- Generator: Gravit.io --><svg xmlns="http://www.w3.org/2000/svg" xmlns:xlink="http://www.w3.org/1999/xlink" style="isolation:isolate" viewBox="0 0 1024 1024" width="1024" height="1024"><defs><clipPath id="_clipPath_r003wUH2r1zJx2u0zqmBe3ZIIG50DRmg"><rect width="1024" height="1024"/></clipPath></defs><g clip-path="url(#_clipPath_r003wUH2r1zJx2u0zqmBe3ZIIG50DRmg)"><rect x="86.875" y="87" width="850" height="850" transform="matrix(1,0,0,1,0,0)" fill="rgb(238,238,238)"/><path d=" M 174.5 128.2 L 849.5 128.2 C 861.8 128.2 873.6 133.1 882.3 141.7 C 890.9 150.4 895.8 162.2 895.8 174.5 L 895.8 849.5 C 895.8 861.8 890.9 873.6 882.3 882.3 C 873.6 890.9 861.8 895.8 849.5 895.8 L 174.5 895.8 C 162.2 895.8 150.4 890.9 141.7 882.3 C 133.1 873.6 128.2 861.8 128.2 849.5 L 128.2 174.5 C 128.2 162.2 133.1 150.4 141.7 141.7 C 150.4 133.1 162.2 128.2 174.5 128.2 Z  M 174.5 145.8 L 849.5 145.8 C 857.1 145.8 864.4 148.8 869.8 154.2 C 875.2 159.6 878.2 166.9 878.2 174.5 L 878.2 849.5 C 878.2 857.1 875.2 864.4 869.8 869.8 C 864.4 875.2 857.1 878.2 849.5 878.2 L 174.5 878.2 C 166.9 878.2 159.6 875.2 154.2 869.8 C 148.8 864.4 145.8 857.1 145.8 849.5 L 145.8 174.5 C 145.8 166.9 148.8 159.6 154.2 154.2 C 159.6 148.8 166.9 145.8 174.5 145.8 Z " fill-rule="evenodd" fill="rgb(13,71,161)"/><g id="Group"><path d=" M 476.51 690.268 C 476.51 670.68 492.413 654.778 512 654.778 C 531.587 654.778 547.49 670.68 547.49 690.268 C 547.49 709.855 531.587 725.758 512 725.758 C 492.413 725.758 476.51 709.855 476.51 690.268 Z " fill="rgb(13,71,161)"/><path d=" M 251.741 440.632 L 293.738 482.64 C 415.349 365.429 608.651 365.429 730.262 482.64 L 772.259 440.632 C 627.484 300.27 396.516 300.27 251.741 440.632 Z " fill="rgb(13,71,161)"/><path d=" M 327.335 516.261 L 369.437 558.388 C 449.325 482.865 574.699 482.865 654.586 558.388 L 696.689 516.261 C 593.579 417.564 430.421 417.564 327.335 516.261 Z " fill="rgb(13,71,161)"/><path d=" M 403.023 591.973 L 445.019 633.993 C 483.239 600.082 540.773 600.082 578.993 633.993 L 620.977 591.996 C 559.616 534.976 464.361 534.988 403.023 591.973 Z " fill="rgb(13,71,161)"/></g></g></svg>