<?xml version="1.0" standalone="no"?>
<!-- Generator: Gravit.io -->
<svg xmlns="http://www.w3.org/2000/svg" xmlns:xlink="http://www.w3.org/1999/xlink" style="isolation:isolate" viewBox="0 0 1024 1024" width="1024" height="1024">
    <defs>
        <clipPath id="_clipPath_W0rUnFsyf6WIw5j8OScpmdxb7jrESHF2">
            <rect width="1024" height="1024" />
        </clipPath>
    </defs>
    <g clip-path="url(#_clipPath_W0rUnFsyf6WIw5j8OScpmdxb7jrESHF2)">
        <rect x="86.875" y="87" width="850" height="850" transform="matrix(1,0,0,1,0,0)" fill="rgb(189,189,189)" />
        <rect x="86.875" y="750" width="850" height="187" transform="matrix(1,0,0,1,0,0)" fill="rgb(117,117,117)" />
        <path d="M 282.432 165.758 L 741.568 165.758 C 754.099 165.758 764.273 175.931 764.273 188.462 L 764.273 647.598 C 764.273 660.129 754.099 670.303 741.568 670.303 L 282.432 670.303 C 269.901 670.303 259.727 660.129 259.727 647.598 L 259.727 188.462 C 259.727 175.931 269.901 165.758 282.432 165.758 Z" style="stroke:none;fill:#546E7A;stroke-miterlimit:10;" />
        <g id="Group">
            <path d=" M 493.25 502.408 C 493.25 492.059 501.652 483.658 512 483.658 C 522.348 483.658 530.75 492.059 530.75 502.408 C 530.75 512.756 522.348 521.158 512 521.158 C 501.652 521.158 493.25 512.756 493.25 502.408 Z " fill="rgb(224,224,224)" />
            <path d=" M 374.5 370.52 L 396.688 392.714 C 460.938 330.789 563.063 330.789 627.313 392.714 L 649.5 370.52 C 573.013 296.364 450.988 296.364 374.5 370.52 Z " fill="rgb(224,224,224)" />
            <path d=" M 414.438 410.476 L 436.681 432.733 C 478.888 392.833 545.125 392.833 587.331 432.733 L 609.575 410.476 C 555.1 358.333 468.9 358.333 414.438 410.476 Z " fill="rgb(224,224,224)" />
            <path d=" M 454.425 450.476 L 476.613 472.676 C 496.805 454.761 527.201 454.761 547.394 472.676 L 569.575 450.489 C 537.156 420.364 486.831 420.37 454.425 450.476 Z " fill="rgb(224,224,224)" />
        </g>
        <path d="M 778.652 798.485 L 851.652 798.485 C 859.102 798.485 865.152 804.534 865.152 811.985 L 865.152 884.985 C 865.152 892.436 859.102 898.485 851.652 898.485 L 778.652 898.485 C 771.201 898.485 765.152 892.436 765.152 884.985 L 765.152 811.985 C 765.152 804.534 771.201 798.485 778.652 798.485 Z" style="stroke:none;fill:#00E676;stroke-miterlimit:10;" />
        <path d="M 280.303 837.879 L 704.545 837.879 C 710.399 837.879 715.152 842.631 715.152 848.485 L 715.152 848.485 C 715.152 854.338 710.399 859.091 704.545 859.091 L 280.303 859.091 C 274.449 859.091 269.697 854.338 269.697 848.485 L 269.697 848.485 C 269.697 842.631 274.449 837.879 280.303 837.879 Z" style="stroke:none;fill:#FFCA28;stroke-miterlimit:10;" />
    </g>
</svg>