<?xml version="1.0" standalone="no"?>
<!-- Generator: Gravit.io -->
<svg xmlns="http://www.w3.org/2000/svg" xmlns:xlink="http://www.w3.org/1999/xlink" style="isolation:isolate" viewBox="0 0 1024 1024" width="1024" height="1024">
    <defs>
        <clipPath id="_clipPath_PpzCUYhaXpgLeeU0NiBdGt230iOdtZAr">
            <rect width="1024" height="1024" />
        </clipPath>
    </defs>
    <g clip-path="url(#_clipPath_PpzCUYhaXpgLeeU0NiBdGt230iOdtZAr)">
        <g id="Alfred">
            <rect x="86.875" y="88.515" width="850" height="850" transform="matrix(1,0,0,1,0,0)" fill="rgb(123,31,162)" />
            <g id="Hat with magnifying glass">
                <g id="Hat">
                    <path d=" M 201.362 575.275 C 201.362 487.605 340.113 416.429 511.016 416.429 C 681.918 416.429 820.67 487.605 820.67 575.275 C 820.67 662.945 681.918 734.122 511.016 734.122 C 340.113 734.122 201.362 662.945 201.362 575.275 Z " fill="rgb(33,33,33)" />
                    <path d=" M 284.032 575.54 C 283.99 576.188 283.973 576.84 283.973 577.493 C 283.973 577.68 283.975 577.866 283.979 578.052 C 283.977 578.143 283.975 578.234 283.973 578.325 L 283.982 578.325 C 285.061 629.198 385.011 670.361 507.966 670.361 C 630.922 670.361 730.872 629.198 731.951 578.325 L 732.237 578.325 C 732.526 531.58 734.177 491.832 720.316 433.616 C 706.455 375.4 692.594 333.817 643.804 303.323 C 595.013 272.829 553.43 270.057 517.946 268.948 C 476.337 267.648 416.973 272.594 368.802 314.967 C 320.632 357.339 304.95 411.454 297.144 453.015 C 289.337 494.575 284.959 535.409 284.032 575.54 Z " fill="rgb(33,33,33)" />
                    <clipPath id="_clipPath_EKAB5T8xy8rnL5s4Uw1mNS9ugGLyspmZ">
                        <path d=" M 284.032 575.54 C 283.99 576.188 283.973 576.84 283.973 577.493 C 283.973 577.68 283.975 577.866 283.979 578.052 C 283.977 578.143 283.975 578.234 283.973 578.325 L 283.982 578.325 C 285.061 629.198 385.011 670.361 507.966 670.361 C 630.922 670.361 730.872 629.198 731.951 578.325 L 732.237 578.325 C 732.526 531.58 734.177 491.832 720.316 433.616 C 706.455 375.4 692.594 333.817 643.804 303.323 C 595.013 272.829 553.43 270.057 517.946 268.948 C 476.337 267.648 416.973 272.594 368.802 314.967 C 320.632 357.339 304.95 411.454 297.144 453.015 C 289.337 494.575 284.959 535.409 284.032 575.54 Z " fill="rgb(33,33,33)" />
                    </clipPath>
                    <g clip-path="url(#_clipPath_EKAB5T8xy8rnL5s4Uw1mNS9ugGLyspmZ)">
                        <g opacity="0.89">
                            <path d=" M 520.215 679.333 Q 256.302 681.551 282.36 544.05 C 355.018 596.002 433.168 616.682 520.215 615.573 C 607.261 614.464 674.752 591.262 742.544 547.377 Q 745.921 676.662 520.215 679.333 Z " fill="rgb(123,31,162)" />
                        </g>
                    </g>
                </g>
                <g id="Magnifying Glass">
                    <rect x="515.065" y="546.064" width="37.425" height="207.914" transform="matrix(0.918,0.397,-0.397,0.918,301.773,-158.446)" fill="rgb(78,52,46)" />
                    <rect x="469.211" y="745.212" width="41.583" height="12.475" transform="matrix(0.918,0.397,-0.397,0.918,338.428,-132.747)" fill="rgb(189,189,189)" />
                    <rect x="566.238" y="508.306" width="41.583" height="37.425" transform="matrix(0.918,0.397,-0.397,0.918,257.334,-189.677)" fill="rgb(189,189,189)" />
                    <rect x="457.063" y="755.518" width="56.969" height="12.475" transform="matrix(0.918,0.397,-0.397,0.918,342.152,-130.133)" fill="rgb(189,189,189)" />
                    <rect x="548.809" y="543.3" width="56.969" height="12.475" transform="matrix(0.918,0.397,-0.397,0.918,265.471,-183.965)" fill="rgb(189,189,189)" />
                    <path d=" M 534.609 352.592 C 560.11 293.608 628.7 266.423 687.685 291.924 C 746.669 317.424 773.854 386.015 748.354 444.999 C 722.853 503.983 654.262 531.168 595.278 505.668 C 536.294 480.168 509.109 411.577 534.609 352.592 Z " fill="rgb(235,235,235)" fill-opacity="0.25" />
                    <path d=" M 527.753 349.659 C 540.789 319.505 565.315 295.679 595.821 283.588 C 626.327 271.498 660.516 272.054 690.669 285.09 C 720.823 298.126 744.573 322.618 756.664 353.124 C 768.83 383.663 768.274 417.853 755.238 448.006 C 742.202 478.159 717.71 501.909 687.127 513.967 C 656.589 526.134 622.475 525.611 592.322 512.575 C 562.169 499.539 538.342 475.013 526.285 444.431 C 514.194 413.925 514.717 379.812 527.753 349.659 Z  M 541.494 355.599 C 552.979 329.034 574.503 308.168 601.324 297.474 C 628.189 286.89 658.164 287.345 684.729 298.83 C 711.218 310.282 732.084 331.807 742.777 358.628 C 753.438 385.525 752.983 415.5 741.498 442.065 C 730.046 468.554 708.521 489.42 681.624 500.081 C 654.726 510.741 624.752 510.286 598.263 498.834 C 571.697 487.349 550.831 465.825 540.171 438.927 C 529.587 412.063 530.042 382.088 541.494 355.599 Z " fill-rule="evenodd" fill="rgb(158,158,158)" />
                    <path d=" M 522.9 346.6 C 542.2 299.8 587.8 268.9 638.4 268.1 C 654.1 268.1 669.6 271.3 684 277.5 C 727.8 297.3 755.7 341.4 755 389.4 C 754.9 407.6 751.2 425.5 744 442.2 C 724.6 489 679.1 519.9 628.4 520.7 C 612.7 520.7 597.2 517.5 582.8 511.3 C 539.1 491.5 511.1 447.4 511.8 399.4 C 511.9 381.2 515.6 363.3 522.9 346.6 Z  M 530.2 349.8 C 548.4 305.9 591 276.8 638.5 276.1 C 653 276.1 667.4 279.1 680.8 284.8 C 721.6 303.3 747.7 344.5 747 389.3 C 747 406.4 743.4 423.4 736.6 439 C 718.5 482.9 675.8 512 628.3 512.7 C 613.8 512.7 599.4 509.7 586.1 504 C 545.2 485.5 519.1 444.3 519.8 399.5 C 519.9 382.4 523.4 365.4 530.2 349.8 Z " fill-rule="evenodd" fill="rgb(224,224,224)" />
                </g>
            </g>
        </g>
    </g>
</svg>