<?xml version="1.0" standalone="no"?><!-- Generator: Gravit.io --><svg xmlns="http://www.w3.org/2000/svg" xmlns:xlink="http://www.w3.org/1999/xlink" style="isolation:isolate" viewBox="0 0 1024 1024" width="1024" height="1024"><defs><clipPath id="_clipPath_m20i5XgXROy45EDInnzbLRvBO0U9dfQi"><rect width="1024" height="1024"/></clipPath></defs><g clip-path="url(#_clipPath_m20i5XgXROy45EDInnzbLRvBO0U9dfQi)"><rect x="86.228" y="80.515" width="850" height="850" transform="matrix(1,0,0,1,0,0)" fill="rgb(69,90,100)"/><clipPath id="_clipPath_oaXgl2QRNmSPnW90vBDS44GEIYv5oxSe"><rect x="86.228" y="80.515" width="850" height="850" transform="matrix(1,0,0,1,0,0)" fill="rgb(69,90,100)"/></clipPath><g clip-path="url(#_clipPath_oaXgl2QRNmSPnW90vBDS44GEIYv5oxSe)"><path d=" M 776.325 407.655 C 776.321 386.352 759.055 369.088 737.754 369.093 C 716.456 369.076 699.191 386.371 699.196 407.675 L 699.223 569.201 C 699.221 590.525 716.479 607.759 737.793 607.766 C 759.092 607.763 776.348 590.525 776.353 569.184 L 776.325 407.655 Z  M 339.463 376.426 L 339.523 746.744 C 339.504 769.514 357.92 787.891 380.678 787.896 L 643.178 787.856 C 665.88 787.864 684.347 769.459 684.352 746.69 L 684.31 376.369 L 339.463 376.426 Z  M 590.931 300.038 C 582.898 300.046 576.36 293.534 576.362 285.474 C 576.389 277.492 582.89 270.905 590.938 270.878 C 598.926 270.9 605.48 277.485 605.473 285.482 C 605.492 293.525 598.96 300.039 590.931 300.038 Z  M 432.725 300.067 C 424.724 300.048 418.207 293.544 418.205 285.509 C 418.208 277.506 424.711 270.925 432.738 270.927 C 440.795 270.92 447.311 277.506 447.321 285.506 C 447.324 293.534 440.793 300.061 432.725 300.067 Z  M 596.97 224.097 L 623.893 174.932 C 625.328 172.364 624.387 169.091 621.781 167.641 C 619.156 166.25 615.911 167.195 614.523 169.782 L 587.331 219.459 C 564.445 209.278 538.844 203.563 511.75 203.593 C 484.727 203.571 459.133 209.261 436.347 219.386 L 409.126 169.838 C 407.708 167.224 404.452 166.279 401.882 167.702 C 399.261 169.112 398.304 172.389 399.756 174.953 L 426.691 224.08 C 373.77 251.374 338.016 303.344 338.043 363.011 L 685.492 362.976 C 685.502 303.317 649.813 251.455 596.97 224.097 Z  M 285.922 369.144 C 264.621 369.133 247.359 386.432 247.353 407.714 L 247.382 569.237 C 247.387 590.591 264.657 607.822 285.959 607.819 C 307.273 607.821 324.54 590.58 324.518 569.238 L 324.521 407.692 C 324.512 386.415 307.224 369.13 285.922 369.144 Z " fill="rgb(163,196,57)"/><path d=" M 397.853 786 L 625.853 786 L 625.853 864 L 397.853 864 L 397.853 786 M 424.687 810.06 L 478.02 810.06 L 478.02 839.552 L 424.687 839.552 L 424.687 810.06 M 397.853 786 Z  M 544.687 810.06 L 598.02 810.06 L 598.02 839.552 L 544.687 839.552 L 544.687 810.06 Z " fill-rule="evenodd" fill="rgb(163,196,57)"/></g><g id="Group"><path d=" M 453.397 573.142 C 468.573 573.142 480.875 585.457 480.875 600.648 C 480.875 615.839 468.573 628.154 453.397 628.154 C 438.222 628.154 425.92 615.839 425.92 600.648 C 425.92 585.457 438.222 573.142 453.397 573.142 Z " fill-rule="evenodd" fill="rgb(69,90,100)"/><path d=" M 512.932 417.275 C 530.636 417.275 544.988 431.642 544.988 449.365 C 544.988 467.088 530.636 481.455 512.932 481.455 C 495.227 481.455 480.875 467.088 480.875 449.365 C 480.875 431.642 495.227 417.275 512.932 417.275 Z " fill-rule="evenodd" fill="rgb(69,90,100)"/><path d=" M 554.148 654.66 L 554.148 619.985 C 554.148 619.433 554.596 618.985 555.148 618.985 L 589.784 618.985 C 590.336 618.985 590.784 619.433 590.784 619.985 L 590.784 654.66 C 590.784 655.212 590.336 655.66 589.784 655.66 L 555.148 655.66 C 554.596 655.66 554.148 655.212 554.148 654.66 Z " fill-rule="evenodd" fill="rgb(69,90,100)"/><path d=" M 512.932 729.009 L 549.568 673.997 L 476.295 673.997 L 512.932 729.009 Z " fill-rule="evenodd" fill="rgb(69,90,100)"/></g><path d=" M 86.875 80.495 L 936.915 80.495 L 936.915 930.535 L 86.875 930.535 L 86.875 80.495 Z  M 125.079 118.699 L 898.711 118.699 L 898.711 892.331 L 125.079 892.331 L 125.079 118.699 Z " fill-rule="evenodd" fill="rgb(164,198,57)"/><line x1="512" y1="479.333" x2="512" y2="685" vector-effect="non-scaling-stroke" stroke-width="12" stroke="rgb(69,90,100)" stroke-linejoin="miter" stroke-linecap="square" stroke-miterlimit="3"/><path d=" M 455.6 608.4 L 455.2 607.6 C 457.3 606.6 458.6 604.5 458.6 602.2 L 447.5 602.2 C 447.5 588.2 447.3 574.2 447 560.1 C 446.7 549.9 448.2 539.6 451.2 529.8 C 453.4 522.6 457.4 516 462.7 510.5 C 468 505.1 474.6 501.1 481.8 498.7 C 491.6 495.5 501.8 493.9 512 494 L 512 506 C 503 505.9 494.1 507.3 485.5 510.1 C 480.2 511.9 475.3 514.9 471.3 519 C 467.3 523 464.3 527.9 462.7 533.4 C 460 541.9 458.8 550.9 459 559.9 C 459.3 574 459.5 588.1 459.5 602.2 C 459.5 604.8 458 607.2 455.6 608.4 Z " fill="rgb(69,90,100)"/><path d=" M 566.8 636.1 L 563.7 630.9 L 567.2 628.8 C 567 618.3 566.6 607.8 566 597.3 C 565.4 587.8 563.6 578.3 560.6 569.2 C 558.6 563.2 555.5 557.5 551.4 552.6 C 547.5 547.9 542.5 544 536.9 541.4 C 529.9 537.9 522.2 535.8 514.4 535 L 508.4 534.4 L 509.6 522.4 L 515.6 523 C 524.8 524 533.8 526.5 542.2 530.5 C 549.3 534 555.6 538.9 560.6 544.9 C 565.7 551 569.6 557.9 572 565.4 C 575.4 575.5 577.4 586 578 596.7 C 578.6 607.5 579 618.3 579.2 629.2 C 579.3 631 579.1 632.9 578.7 634.7 C 578.5 635.4 578.2 636 577.9 636.5 L 572.3 645.2 L 566.8 636.1 Z " fill="rgb(69,90,100)"/></g></svg>