<?xml version="1.0" standalone="no"?>
<!-- Generator: Gravit.io -->
<svg xmlns="http://www.w3.org/2000/svg" xmlns:xlink="http://www.w3.org/1999/xlink" style="isolation:isolate" viewBox="0 0 1024 1024" width="1024" height="1024">
    <defs>
        <clipPath id="_clipPath_OUr9MOgfb0JlGA02FR3R7DRxCfU0p0vo">
            <rect width="1024" height="1024" />
        </clipPath>
    </defs>
    <g clip-path="url(#_clipPath_OUr9MOgfb0JlGA02FR3R7DRxCfU0p0vo)">
        <g id="Antidote">
            <rect x="86.228" y="80.515" width="850" height="850" transform="matrix(1,0,0,1,0,0)" fill="rgb(124,179,66)" />
            <rect x="86.228" y="910" width="850" height="20.515" transform="matrix(1,0,0,1,0,0)" fill="rgb(51,105,30)" />
            <rect x="86.228" y="750" width="850" height="20.515" transform="matrix(1,0,0,1,0,0)" fill="rgb(51,105,30)" />
            <rect x="86.228" y="750" width="23.772" height="180.515" transform="matrix(1,0,0,1,0,0)" fill="rgb(51,105,30)" />
            <rect x="912.457" y="80.515" width="23.772" height="669.485" transform="matrix(1,0,0,1,0,0)" fill="rgb(51,105,30)" />
            <rect x="110" y="770" width="826.228" height="140" transform="matrix(1,0,0,1,0,0)" fill="rgb(235,235,235)" />
            <g id="Shadows">
                <rect x="120" y="792" width="816.228" height="10" transform="matrix(1,0,0,1,0,0)" fill="rgb(224,224,224)" />
                <rect x="120" y="832" width="816.228" height="10" transform="matrix(1,0,0,1,0,0)" fill="rgb(224,224,224)" />
                <rect x="120" y="872" width="816.228" height="10" transform="matrix(1,0,0,1,0,0)" fill="rgb(224,224,224)" />
                <rect x="110" y="770" width="10" height="140" transform="matrix(1,0,0,1,0,0)" fill="rgb(224,224,224)" />
            </g>
            <g id="France Flag">
                <path d=" M 150 790 L 290 790 L 290 890 L 220 854.444 L 150 890 L 150 790 Z " fill="rgb(224,224,224)" />
                <path d=" M 150 790 L 190 790 L 190 870 L 150 890 L 150 790 Z " fill="rgb(48,63,159)" />
                <path d=" M 290 790 L 250 790 L 250 870 L 290 890 L 290 790 Z " fill="rgb(211,47,47)" />
            </g>
            <g id="Tube">
                <g id="Tube">
                    <path d=" M 555.079 359.619 L 554.526 498.164 C 554.526 521.254 533.679 540 508 540 C 482.321 540 461.474 521.254 461.474 498.164 L 460.594 378.927 L 555.079 359.619 Z " fill="rgb(255,193,7)" />
                    <path d=" M 554.526 288.985 L 554.526 498.164 C 554.526 521.254 533.679 540 508 540 C 482.321 540 461.474 521.254 461.474 498.164 L 461.474 288.985 L 440 288.985 L 440 237.495 L 508 237.495 L 508 237.495 L 576 237.495 L 576 288.985 L 554.526 288.985 Z " fill="rgb(250,250,250)" fill-opacity="0.15" />
                    <path d=" M 554.526 288.985 L 554.526 498.164 C 554.526 521.254 533.679 540 508 540 C 482.321 540 461.474 521.254 461.474 498.164 L 461.474 288.985 L 440 288.985 L 440 237.495 L 508 237.495 L 508 237.495 L 576 237.495 L 576 288.985 L 554.526 288.985 Z " fill="none" vector-effect="non-scaling-stroke" stroke-width="6.788" stroke="rgb(51,105,30)" stroke-linejoin="miter" stroke-linecap="square" stroke-miterlimit="3" />
                </g>
                <path d=" M 449.567 204 C 449.567 194.728 457.184 187.2 466.567 187.2 C 475.95 187.2 483.567 194.728 483.567 204 C 483.567 213.272 475.95 220.8 466.567 220.8 C 457.184 220.8 449.567 213.272 449.567 204 Z " fill="rgb(255,202,43)" />
                <path d=" M 466.567 128.4 C 466.567 123.764 470.376 120 475.067 120 C 479.758 120 483.567 123.764 483.567 128.4 C 483.567 133.036 479.758 136.8 475.067 136.8 C 470.376 136.8 466.567 133.036 466.567 128.4 Z " fill="rgb(255,202,43)" />
                <path d=" M 499.5 153.6 C 499.5 135.056 514.735 120 533.5 120 C 552.265 120 567.5 135.056 567.5 153.6 C 567.5 172.144 552.265 187.2 533.5 187.2 C 514.735 187.2 499.5 172.144 499.5 153.6 Z " fill="rgb(255,202,43)" />
            </g>
            <path d=" M 353.031 682.363 L 353.031 682.363 Q 354.122 684.666 354.122 686.848 L 354.122 686.848 L 354.122 686.848 Q 354.122 690.848 350.91 693.636 L 350.91 693.636 L 350.91 693.636 Q 347.698 696.424 343.576 696.424 L 343.576 696.424 L 343.576 696.424 Q 340.789 696.424 338.485 694.969 L 338.485 694.969 L 338.485 694.969 Q 336.182 693.515 334.849 690.606 L 334.849 690.606 L 329.395 678.363 L 290.122 678.363 L 284.546 690.606 L 284.546 690.606 Q 283.213 693.515 280.849 694.969 L 280.849 694.969 L 280.849 694.969 Q 278.486 696.424 275.698 696.424 L 275.698 696.424 L 275.698 696.424 Q 271.577 696.424 268.243 693.636 L 268.243 693.636 L 268.243 693.636 Q 264.91 690.848 264.91 686.848 L 264.91 686.848 L 264.91 686.848 Q 264.91 684.666 266.001 682.363 L 266.001 682.363 L 298.001 616.667 L 298.001 616.667 Q 299.576 613.394 302.667 611.636 L 302.667 611.636 L 302.667 611.636 Q 305.758 609.879 309.516 609.879 L 309.516 609.879 L 309.516 609.879 Q 313.152 609.879 316.304 611.636 L 316.304 611.636 L 316.304 611.636 Q 319.455 613.394 321.031 616.667 L 321.031 616.667 L 353.031 682.363 Z  M 309.758 634.606 L 297.637 661.636 L 321.88 661.636 L 309.758 634.606 Z  M 402.122 634.97 L 402.122 634.97 Q 412.788 634.97 418 641.333 L 418 641.333 L 418 641.333 Q 423.212 647.697 423.212 660.666 L 423.212 660.666 L 423.212 686.848 L 423.212 686.848 Q 423.212 691.454 420.303 694.121 L 420.303 694.121 L 420.303 694.121 Q 417.394 696.788 412.425 696.788 L 412.425 696.788 L 412.425 696.788 Q 407.455 696.788 404.546 694.121 L 404.546 694.121 L 404.546 694.121 Q 401.637 691.454 401.637 686.848 L 401.637 686.848 L 401.637 661.636 L 401.637 661.636 Q 401.637 656.303 399.758 653.879 L 399.758 653.879 L 399.758 653.879 Q 397.879 651.455 394.122 651.455 L 394.122 651.455 L 394.122 651.455 Q 389.273 651.455 386.425 654.545 L 386.425 654.545 L 386.425 654.545 Q 383.576 657.636 383.576 662.848 L 383.576 662.848 L 383.576 686.848 L 383.576 686.848 Q 383.576 691.454 380.667 694.121 L 380.667 694.121 L 380.667 694.121 Q 377.758 696.788 372.788 696.788 L 372.788 696.788 L 372.788 696.788 Q 367.819 696.788 364.91 694.121 L 364.91 694.121 L 364.91 694.121 Q 362.001 691.454 362.001 686.848 L 362.001 686.848 L 362.001 644.909 L 362.001 644.909 Q 362.001 640.667 365.031 637.939 L 365.031 637.939 L 365.031 637.939 Q 368.061 635.212 372.91 635.212 L 372.91 635.212 L 372.91 635.212 Q 377.516 635.212 380.243 637.757 L 380.243 637.757 L 380.243 637.757 Q 382.97 640.303 382.97 644.424 L 382.97 644.424 L 382.97 644.424 Q 386.122 639.818 391.091 637.394 L 391.091 637.394 L 391.091 637.394 Q 396.061 634.97 402.122 634.97 L 402.122 634.97 Z  M 470.606 681.394 L 470.606 681.394 Q 478.727 681.879 478.727 688.666 L 478.727 688.666 L 478.727 688.666 Q 478.727 692.909 475.455 694.969 L 475.455 694.969 L 475.455 694.969 Q 472.182 697.03 466.121 696.666 L 466.121 696.666 L 462.727 696.424 L 462.727 696.424 Q 451.818 695.576 446.182 689.818 L 446.182 689.818 L 446.182 689.818 Q 440.546 684.06 440.546 673.757 L 440.546 673.757 L 440.546 652.303 L 437.031 652.303 L 437.031 652.303 Q 427.334 652.303 427.334 644.303 L 427.334 644.303 L 427.334 644.303 Q 427.334 636.424 437.031 636.424 L 437.031 636.424 L 440.546 636.424 L 440.546 628.546 L 440.546 628.546 Q 440.546 623.939 443.455 621.212 L 443.455 621.212 L 443.455 621.212 Q 446.364 618.485 451.334 618.485 L 451.334 618.485 L 451.334 618.485 Q 456.303 618.485 459.212 621.212 L 459.212 621.212 L 459.212 621.212 Q 462.121 623.939 462.121 628.546 L 462.121 628.546 L 462.121 636.424 L 468.788 636.424 L 468.788 636.424 Q 478.485 636.424 478.485 644.303 L 478.485 644.303 L 478.485 644.303 Q 478.485 652.303 468.788 652.303 L 468.788 652.303 L 462.121 652.303 L 462.121 675.575 L 462.121 675.575 Q 462.121 677.879 463.515 679.454 L 463.515 679.454 L 463.515 679.454 Q 464.909 681.03 467.091 681.151 L 467.091 681.151 L 470.606 681.394 Z  M 495.212 696.788 L 495.212 696.788 Q 490.606 696.788 487.515 694.303 L 487.515 694.303 L 487.515 694.303 Q 484.424 691.818 484.424 686.848 L 484.424 686.848 L 484.424 645.151 L 484.424 645.151 Q 484.424 640.182 487.515 637.697 L 487.515 637.697 L 487.515 637.697 Q 490.606 635.212 495.212 635.212 L 495.212 635.212 L 495.212 635.212 Q 499.818 635.212 502.909 637.697 L 502.909 637.697 L 502.909 637.697 Q 506 640.182 506 645.151 L 506 645.151 L 506 686.848 L 506 686.848 Q 506 691.818 502.909 694.303 L 502.909 694.303 L 502.909 694.303 Q 499.818 696.788 495.212 696.788 L 495.212 696.788 Z  M 495.212 626.727 L 495.212 626.727 Q 489.758 626.727 486.546 623.879 L 486.546 623.879 L 486.546 623.879 Q 483.333 621.03 483.333 616.303 L 483.333 616.303 L 483.333 616.303 Q 483.333 611.576 486.546 608.788 L 486.546 608.788 L 486.546 608.788 Q 489.758 606 495.212 606 L 495.212 606 L 495.212 606 Q 500.545 606 503.818 608.788 L 503.818 608.788 L 503.818 608.788 Q 507.091 611.576 507.091 616.303 L 507.091 616.303 L 507.091 616.303 Q 507.091 621.03 503.879 623.879 L 503.879 623.879 L 503.879 623.879 Q 500.667 626.727 495.212 626.727 L 495.212 626.727 Z  M 570.606 610 L 570.606 610 Q 575.454 610 578.545 612.727 L 578.545 612.727 L 578.545 612.727 Q 581.636 615.454 581.636 619.697 L 581.636 619.697 L 581.636 686.848 L 581.636 686.848 Q 581.636 691.454 578.727 694.121 L 578.727 694.121 L 578.727 694.121 Q 575.818 696.788 570.969 696.788 L 570.969 696.788 L 570.969 696.788 Q 566.485 696.788 563.636 694.424 L 563.636 694.424 L 563.636 694.424 Q 560.788 692.06 560.424 687.939 L 560.424 687.939 L 560.424 687.939 Q 557.879 692.181 552.97 694.606 L 552.97 694.606 L 552.97 694.606 Q 548.06 697.03 542.121 697.03 L 542.121 697.03 L 542.121 697.03 Q 534.485 697.03 528.485 693.091 L 528.485 693.091 L 528.485 693.091 Q 522.485 689.151 519.091 682 L 519.091 682 L 519.091 682 Q 515.697 674.848 515.697 665.636 L 515.697 665.636 L 515.697 665.636 Q 515.697 656.424 519.03 649.454 L 519.03 649.454 L 519.03 649.454 Q 522.364 642.485 528.364 638.727 L 528.364 638.727 L 528.364 638.727 Q 534.364 634.97 542.121 634.97 L 542.121 634.97 L 542.121 634.97 Q 547.818 634.97 552.606 637.273 L 552.606 637.273 L 552.606 637.273 Q 557.394 639.576 560.061 643.455 L 560.061 643.455 L 560.061 619.333 L 560.061 619.333 Q 560.061 615.091 562.909 612.546 L 562.909 612.546 L 562.909 612.546 Q 565.757 610 570.606 610 L 570.606 610 Z  M 548.666 680.909 L 548.666 680.909 Q 554.364 680.909 557.394 677.03 L 557.394 677.03 L 557.394 677.03 Q 560.424 673.151 560.424 665.879 L 560.424 665.879 L 560.424 665.879 Q 560.424 658.727 557.394 654.909 L 557.394 654.909 L 557.394 654.909 Q 554.364 651.091 548.666 651.091 L 548.666 651.091 L 548.666 651.091 Q 543.091 651.091 540.06 654.848 L 540.06 654.848 L 540.06 654.848 Q 537.03 658.606 537.03 665.636 L 537.03 665.636 L 537.03 665.636 Q 537.03 672.909 540.121 676.909 L 540.121 676.909 L 540.121 676.909 Q 543.212 680.909 548.666 680.909 L 548.666 680.909 Z  M 624.303 697.03 L 624.303 697.03 Q 614.485 697.03 607.03 693.212 L 607.03 693.212 L 607.03 693.212 Q 599.576 689.394 595.515 682.363 L 595.515 682.363 L 595.515 682.363 Q 591.454 675.333 591.454 665.879 L 591.454 665.879 L 591.454 665.879 Q 591.454 656.424 595.515 649.454 L 595.515 649.454 L 595.515 649.454 Q 599.576 642.485 606.97 638.727 L 606.97 638.727 L 606.97 638.727 Q 614.363 634.97 624.303 634.97 L 624.303 634.97 L 624.303 634.97 Q 634.242 634.97 641.636 638.727 L 641.636 638.727 L 641.636 638.727 Q 649.03 642.485 653.091 649.454 L 653.091 649.454 L 653.091 649.454 Q 657.151 656.424 657.151 665.879 L 657.151 665.879 L 657.151 665.879 Q 657.151 675.333 653.091 682.363 L 653.091 682.363 L 653.091 682.363 Q 649.03 689.394 641.636 693.212 L 641.636 693.212 L 641.636 693.212 Q 634.242 697.03 624.303 697.03 L 624.303 697.03 Z  M 624.303 680.909 L 624.303 680.909 Q 635.818 680.909 635.818 665.879 L 635.818 665.879 L 635.818 665.879 Q 635.818 650.848 624.303 650.848 L 624.303 650.848 L 624.303 650.848 Q 612.788 650.848 612.788 665.879 L 612.788 665.879 L 612.788 665.879 Q 612.788 680.909 624.303 680.909 L 624.303 680.909 Z  M 702.242 681.394 L 702.242 681.394 Q 710.363 681.879 710.363 688.666 L 710.363 688.666 L 710.363 688.666 Q 710.363 692.909 707.09 694.969 L 707.09 694.969 L 707.09 694.969 Q 703.818 697.03 697.757 696.666 L 697.757 696.666 L 694.363 696.424 L 694.363 696.424 Q 683.454 695.576 677.818 689.818 L 677.818 689.818 L 677.818 689.818 Q 672.181 684.06 672.181 673.757 L 672.181 673.757 L 672.181 652.303 L 668.666 652.303 L 668.666 652.303 Q 658.969 652.303 658.969 644.303 L 658.969 644.303 L 658.969 644.303 Q 658.969 636.424 668.666 636.424 L 668.666 636.424 L 672.181 636.424 L 672.181 628.546 L 672.181 628.546 Q 672.181 623.939 675.09 621.212 L 675.09 621.212 L 675.09 621.212 Q 677.999 618.485 682.969 618.485 L 682.969 618.485 L 682.969 618.485 Q 687.939 618.485 690.848 621.212 L 690.848 621.212 L 690.848 621.212 Q 693.757 623.939 693.757 628.546 L 693.757 628.546 L 693.757 636.424 L 700.424 636.424 L 700.424 636.424 Q 710.121 636.424 710.121 644.303 L 710.121 644.303 L 710.121 644.303 Q 710.121 652.303 700.424 652.303 L 700.424 652.303 L 693.757 652.303 L 693.757 675.575 L 693.757 675.575 Q 693.757 677.879 695.151 679.454 L 695.151 679.454 L 695.151 679.454 Q 696.545 681.03 698.727 681.151 L 698.727 681.151 L 702.242 681.394 Z  M 764.545 676.909 L 764.545 676.909 Q 767.332 676.909 769.09 679.091 L 769.09 679.091 L 769.09 679.091 Q 770.848 681.273 770.848 684.788 L 770.848 684.788 L 770.848 684.788 Q 770.848 689.636 766.12 692.181 L 766.12 692.181 L 766.12 692.181 Q 761.999 694.242 756.363 695.636 L 756.363 695.636 L 756.363 695.636 Q 750.727 697.03 745.999 697.03 L 745.999 697.03 L 745.999 697.03 Q 736.06 697.03 728.666 693.272 L 728.666 693.272 L 728.666 693.272 Q 721.272 689.515 717.272 682.484 L 717.272 682.484 L 717.272 682.484 Q 713.272 675.454 713.272 666 L 713.272 666 L 713.272 666 Q 713.272 657.03 717.09 649.939 L 717.09 649.939 L 717.09 649.939 Q 720.909 642.848 727.757 638.909 L 727.757 638.909 L 727.757 638.909 Q 734.605 634.97 743.211 634.97 L 743.211 634.97 L 743.211 634.97 Q 751.575 634.97 757.878 638.606 L 757.878 638.606 L 757.878 638.606 Q 764.181 642.242 767.635 648.909 L 767.635 648.909 L 767.635 648.909 Q 771.09 655.576 771.09 664.545 L 771.09 664.545 L 771.09 664.545 Q 771.09 667.333 769.817 668.848 L 769.817 668.848 L 769.817 668.848 Q 768.545 670.363 766.12 670.363 L 766.12 670.363 L 734.121 670.363 L 734.121 670.363 Q 734.969 676.182 737.878 678.727 L 737.878 678.727 L 737.878 678.727 Q 740.787 681.273 746.484 681.273 L 746.484 681.273 L 746.484 681.273 Q 749.514 681.273 752.06 680.606 L 752.06 680.606 L 752.06 680.606 Q 754.605 679.939 757.757 678.727 L 757.757 678.727 L 757.757 678.727 Q 759.575 678 761.332 677.454 L 761.332 677.454 L 761.332 677.454 Q 763.09 676.909 764.545 676.909 L 764.545 676.909 Z  M 743.818 649.515 L 743.818 649.515 Q 739.575 649.515 737.029 652.242 L 737.029 652.242 L 737.029 652.242 Q 734.484 654.97 733.999 660.182 L 733.999 660.182 L 753.029 660.182 L 753.029 660.182 Q 752.302 649.515 743.818 649.515 L 743.818 649.515 Z " fill-rule="evenodd" fill="rgb(85,139,47)" />
            <path d=" M 347.031 676.363 L 347.031 676.363 Q 348.122 678.666 348.122 680.848 L 348.122 680.848 L 348.122 680.848 Q 348.122 684.848 344.91 687.636 L 344.91 687.636 L 344.91 687.636 Q 341.698 690.424 337.576 690.424 L 337.576 690.424 L 337.576 690.424 Q 334.789 690.424 332.485 688.969 L 332.485 688.969 L 332.485 688.969 Q 330.182 687.515 328.849 684.606 L 328.849 684.606 L 323.395 672.363 L 284.122 672.363 L 278.546 684.606 L 278.546 684.606 Q 277.213 687.515 274.849 688.969 L 274.849 688.969 L 274.849 688.969 Q 272.486 690.424 269.698 690.424 L 269.698 690.424 L 269.698 690.424 Q 265.577 690.424 262.243 687.636 L 262.243 687.636 L 262.243 687.636 Q 258.91 684.848 258.91 680.848 L 258.91 680.848 L 258.91 680.848 Q 258.91 678.666 260.001 676.363 L 260.001 676.363 L 292.001 610.667 L 292.001 610.667 Q 293.576 607.394 296.667 605.636 L 296.667 605.636 L 296.667 605.636 Q 299.758 603.879 303.516 603.879 L 303.516 603.879 L 303.516 603.879 Q 307.152 603.879 310.304 605.636 L 310.304 605.636 L 310.304 605.636 Q 313.455 607.394 315.031 610.667 L 315.031 610.667 L 347.031 676.363 Z  M 303.758 628.606 L 291.637 655.636 L 315.88 655.636 L 303.758 628.606 Z  M 396.122 628.97 L 396.122 628.97 Q 406.788 628.97 412 635.333 L 412 635.333 L 412 635.333 Q 417.212 641.697 417.212 654.666 L 417.212 654.666 L 417.212 680.848 L 417.212 680.848 Q 417.212 685.454 414.303 688.121 L 414.303 688.121 L 414.303 688.121 Q 411.394 690.788 406.425 690.788 L 406.425 690.788 L 406.425 690.788 Q 401.455 690.788 398.546 688.121 L 398.546 688.121 L 398.546 688.121 Q 395.637 685.454 395.637 680.848 L 395.637 680.848 L 395.637 655.636 L 395.637 655.636 Q 395.637 650.303 393.758 647.879 L 393.758 647.879 L 393.758 647.879 Q 391.879 645.455 388.122 645.455 L 388.122 645.455 L 388.122 645.455 Q 383.273 645.455 380.425 648.545 L 380.425 648.545 L 380.425 648.545 Q 377.576 651.636 377.576 656.848 L 377.576 656.848 L 377.576 680.848 L 377.576 680.848 Q 377.576 685.454 374.667 688.121 L 374.667 688.121 L 374.667 688.121 Q 371.758 690.788 366.788 690.788 L 366.788 690.788 L 366.788 690.788 Q 361.819 690.788 358.91 688.121 L 358.91 688.121 L 358.91 688.121 Q 356.001 685.454 356.001 680.848 L 356.001 680.848 L 356.001 638.909 L 356.001 638.909 Q 356.001 634.667 359.031 631.939 L 359.031 631.939 L 359.031 631.939 Q 362.061 629.212 366.91 629.212 L 366.91 629.212 L 366.91 629.212 Q 371.516 629.212 374.243 631.757 L 374.243 631.757 L 374.243 631.757 Q 376.97 634.303 376.97 638.424 L 376.97 638.424 L 376.97 638.424 Q 380.122 633.818 385.091 631.394 L 385.091 631.394 L 385.091 631.394 Q 390.061 628.97 396.122 628.97 L 396.122 628.97 Z  M 464.606 675.394 L 464.606 675.394 Q 472.727 675.879 472.727 682.666 L 472.727 682.666 L 472.727 682.666 Q 472.727 686.909 469.455 688.969 L 469.455 688.969 L 469.455 688.969 Q 466.182 691.03 460.121 690.666 L 460.121 690.666 L 456.727 690.424 L 456.727 690.424 Q 445.818 689.576 440.182 683.818 L 440.182 683.818 L 440.182 683.818 Q 434.546 678.06 434.546 667.757 L 434.546 667.757 L 434.546 646.303 L 431.031 646.303 L 431.031 646.303 Q 421.334 646.303 421.334 638.303 L 421.334 638.303 L 421.334 638.303 Q 421.334 630.424 431.031 630.424 L 431.031 630.424 L 434.546 630.424 L 434.546 622.546 L 434.546 622.546 Q 434.546 617.939 437.455 615.212 L 437.455 615.212 L 437.455 615.212 Q 440.364 612.485 445.334 612.485 L 445.334 612.485 L 445.334 612.485 Q 450.303 612.485 453.212 615.212 L 453.212 615.212 L 453.212 615.212 Q 456.121 617.939 456.121 622.546 L 456.121 622.546 L 456.121 630.424 L 462.788 630.424 L 462.788 630.424 Q 472.485 630.424 472.485 638.303 L 472.485 638.303 L 472.485 638.303 Q 472.485 646.303 462.788 646.303 L 462.788 646.303 L 456.121 646.303 L 456.121 669.575 L 456.121 669.575 Q 456.121 671.879 457.515 673.454 L 457.515 673.454 L 457.515 673.454 Q 458.909 675.03 461.091 675.151 L 461.091 675.151 L 464.606 675.394 Z  M 489.212 690.788 L 489.212 690.788 Q 484.606 690.788 481.515 688.303 L 481.515 688.303 L 481.515 688.303 Q 478.424 685.818 478.424 680.848 L 478.424 680.848 L 478.424 639.151 L 478.424 639.151 Q 478.424 634.182 481.515 631.697 L 481.515 631.697 L 481.515 631.697 Q 484.606 629.212 489.212 629.212 L 489.212 629.212 L 489.212 629.212 Q 493.818 629.212 496.909 631.697 L 496.909 631.697 L 496.909 631.697 Q 500 634.182 500 639.151 L 500 639.151 L 500 680.848 L 500 680.848 Q 500 685.818 496.909 688.303 L 496.909 688.303 L 496.909 688.303 Q 493.818 690.788 489.212 690.788 L 489.212 690.788 Z  M 489.212 620.727 L 489.212 620.727 Q 483.758 620.727 480.546 617.879 L 480.546 617.879 L 480.546 617.879 Q 477.333 615.03 477.333 610.303 L 477.333 610.303 L 477.333 610.303 Q 477.333 605.576 480.546 602.788 L 480.546 602.788 L 480.546 602.788 Q 483.758 600 489.212 600 L 489.212 600 L 489.212 600 Q 494.545 600 497.818 602.788 L 497.818 602.788 L 497.818 602.788 Q 501.091 605.576 501.091 610.303 L 501.091 610.303 L 501.091 610.303 Q 501.091 615.03 497.879 617.879 L 497.879 617.879 L 497.879 617.879 Q 494.667 620.727 489.212 620.727 L 489.212 620.727 Z  M 564.606 604 L 564.606 604 Q 569.454 604 572.545 606.727 L 572.545 606.727 L 572.545 606.727 Q 575.636 609.454 575.636 613.697 L 575.636 613.697 L 575.636 680.848 L 575.636 680.848 Q 575.636 685.454 572.727 688.121 L 572.727 688.121 L 572.727 688.121 Q 569.818 690.788 564.969 690.788 L 564.969 690.788 L 564.969 690.788 Q 560.485 690.788 557.636 688.424 L 557.636 688.424 L 557.636 688.424 Q 554.788 686.06 554.424 681.939 L 554.424 681.939 L 554.424 681.939 Q 551.879 686.181 546.97 688.606 L 546.97 688.606 L 546.97 688.606 Q 542.06 691.03 536.121 691.03 L 536.121 691.03 L 536.121 691.03 Q 528.485 691.03 522.485 687.091 L 522.485 687.091 L 522.485 687.091 Q 516.485 683.151 513.091 676 L 513.091 676 L 513.091 676 Q 509.697 668.848 509.697 659.636 L 509.697 659.636 L 509.697 659.636 Q 509.697 650.424 513.03 643.454 L 513.03 643.454 L 513.03 643.454 Q 516.364 636.485 522.364 632.727 L 522.364 632.727 L 522.364 632.727 Q 528.364 628.97 536.121 628.97 L 536.121 628.97 L 536.121 628.97 Q 541.818 628.97 546.606 631.273 L 546.606 631.273 L 546.606 631.273 Q 551.394 633.576 554.061 637.455 L 554.061 637.455 L 554.061 613.333 L 554.061 613.333 Q 554.061 609.091 556.909 606.546 L 556.909 606.546 L 556.909 606.546 Q 559.757 604 564.606 604 L 564.606 604 Z  M 542.666 674.909 L 542.666 674.909 Q 548.364 674.909 551.394 671.03 L 551.394 671.03 L 551.394 671.03 Q 554.424 667.151 554.424 659.879 L 554.424 659.879 L 554.424 659.879 Q 554.424 652.727 551.394 648.909 L 551.394 648.909 L 551.394 648.909 Q 548.364 645.091 542.666 645.091 L 542.666 645.091 L 542.666 645.091 Q 537.091 645.091 534.06 648.848 L 534.06 648.848 L 534.06 648.848 Q 531.03 652.606 531.03 659.636 L 531.03 659.636 L 531.03 659.636 Q 531.03 666.909 534.121 670.909 L 534.121 670.909 L 534.121 670.909 Q 537.212 674.909 542.666 674.909 L 542.666 674.909 Z  M 618.303 691.03 L 618.303 691.03 Q 608.485 691.03 601.03 687.212 L 601.03 687.212 L 601.03 687.212 Q 593.576 683.394 589.515 676.363 L 589.515 676.363 L 589.515 676.363 Q 585.454 669.333 585.454 659.879 L 585.454 659.879 L 585.454 659.879 Q 585.454 650.424 589.515 643.454 L 589.515 643.454 L 589.515 643.454 Q 593.576 636.485 600.97 632.727 L 600.97 632.727 L 600.97 632.727 Q 608.363 628.97 618.303 628.97 L 618.303 628.97 L 618.303 628.97 Q 628.242 628.97 635.636 632.727 L 635.636 632.727 L 635.636 632.727 Q 643.03 636.485 647.091 643.454 L 647.091 643.454 L 647.091 643.454 Q 651.151 650.424 651.151 659.879 L 651.151 659.879 L 651.151 659.879 Q 651.151 669.333 647.091 676.363 L 647.091 676.363 L 647.091 676.363 Q 643.03 683.394 635.636 687.212 L 635.636 687.212 L 635.636 687.212 Q 628.242 691.03 618.303 691.03 L 618.303 691.03 Z  M 618.303 674.909 L 618.303 674.909 Q 629.818 674.909 629.818 659.879 L 629.818 659.879 L 629.818 659.879 Q 629.818 644.848 618.303 644.848 L 618.303 644.848 L 618.303 644.848 Q 606.788 644.848 606.788 659.879 L 606.788 659.879 L 606.788 659.879 Q 606.788 674.909 618.303 674.909 L 618.303 674.909 Z  M 696.242 675.394 L 696.242 675.394 Q 704.363 675.879 704.363 682.666 L 704.363 682.666 L 704.363 682.666 Q 704.363 686.909 701.09 688.969 L 701.09 688.969 L 701.09 688.969 Q 697.818 691.03 691.757 690.666 L 691.757 690.666 L 688.363 690.424 L 688.363 690.424 Q 677.454 689.576 671.818 683.818 L 671.818 683.818 L 671.818 683.818 Q 666.181 678.06 666.181 667.757 L 666.181 667.757 L 666.181 646.303 L 662.666 646.303 L 662.666 646.303 Q 652.969 646.303 652.969 638.303 L 652.969 638.303 L 652.969 638.303 Q 652.969 630.424 662.666 630.424 L 662.666 630.424 L 666.181 630.424 L 666.181 622.546 L 666.181 622.546 Q 666.181 617.939 669.09 615.212 L 669.09 615.212 L 669.09 615.212 Q 671.999 612.485 676.969 612.485 L 676.969 612.485 L 676.969 612.485 Q 681.939 612.485 684.848 615.212 L 684.848 615.212 L 684.848 615.212 Q 687.757 617.939 687.757 622.546 L 687.757 622.546 L 687.757 630.424 L 694.424 630.424 L 694.424 630.424 Q 704.121 630.424 704.121 638.303 L 704.121 638.303 L 704.121 638.303 Q 704.121 646.303 694.424 646.303 L 694.424 646.303 L 687.757 646.303 L 687.757 669.575 L 687.757 669.575 Q 687.757 671.879 689.151 673.454 L 689.151 673.454 L 689.151 673.454 Q 690.545 675.03 692.727 675.151 L 692.727 675.151 L 696.242 675.394 Z  M 758.545 670.909 L 758.545 670.909 Q 761.332 670.909 763.09 673.091 L 763.09 673.091 L 763.09 673.091 Q 764.848 675.273 764.848 678.788 L 764.848 678.788 L 764.848 678.788 Q 764.848 683.636 760.12 686.181 L 760.12 686.181 L 760.12 686.181 Q 755.999 688.242 750.363 689.636 L 750.363 689.636 L 750.363 689.636 Q 744.727 691.03 739.999 691.03 L 739.999 691.03 L 739.999 691.03 Q 730.06 691.03 722.666 687.272 L 722.666 687.272 L 722.666 687.272 Q 715.272 683.515 711.272 676.484 L 711.272 676.484 L 711.272 676.484 Q 707.272 669.454 707.272 660 L 707.272 660 L 707.272 660 Q 707.272 651.03 711.09 643.939 L 711.09 643.939 L 711.09 643.939 Q 714.909 636.848 721.757 632.909 L 721.757 632.909 L 721.757 632.909 Q 728.605 628.97 737.211 628.97 L 737.211 628.97 L 737.211 628.97 Q 745.575 628.97 751.878 632.606 L 751.878 632.606 L 751.878 632.606 Q 758.181 636.242 761.635 642.909 L 761.635 642.909 L 761.635 642.909 Q 765.09 649.576 765.09 658.545 L 765.09 658.545 L 765.09 658.545 Q 765.09 661.333 763.817 662.848 L 763.817 662.848 L 763.817 662.848 Q 762.545 664.363 760.12 664.363 L 760.12 664.363 L 728.121 664.363 L 728.121 664.363 Q 728.969 670.182 731.878 672.727 L 731.878 672.727 L 731.878 672.727 Q 734.787 675.273 740.484 675.273 L 740.484 675.273 L 740.484 675.273 Q 743.514 675.273 746.06 674.606 L 746.06 674.606 L 746.06 674.606 Q 748.605 673.939 751.757 672.727 L 751.757 672.727 L 751.757 672.727 Q 753.575 672 755.332 671.454 L 755.332 671.454 L 755.332 671.454 Q 757.09 670.909 758.545 670.909 L 758.545 670.909 Z  M 737.818 643.515 L 737.818 643.515 Q 733.575 643.515 731.029 646.242 L 731.029 646.242 L 731.029 646.242 Q 728.484 648.97 727.999 654.182 L 727.999 654.182 L 747.029 654.182 L 747.029 654.182 Q 746.302 643.515 737.818 643.515 L 737.818 643.515 Z " fill-rule="evenodd" fill="rgb(250,250,250)" />
        </g>
    </g>
</svg>