<?xml version="1.0" standalone="no"?><!-- Generator: Gravit.io --><svg xmlns="http://www.w3.org/2000/svg" xmlns:xlink="http://www.w3.org/1999/xlink" style="isolation:isolate" viewBox="0 0 1024 1024" width="1024" height="1024"><defs><clipPath id="_clipPath_S6pYnNll2ST1bayJiGi6QAipJzz22wom"><rect width="1024" height="1024"/></clipPath></defs><g clip-path="url(#_clipPath_S6pYnNll2ST1bayJiGi6QAipJzz22wom)"><g id="App without icon"><rect x="87" y="87" width="850" height="850" transform="matrix(1,0,0,1,0,0)" fill="rgb(227,242,253)"/><path d=" M 87 87 L 937 87 L 937 937 L 87 937 L 87 87 Z  M 115.977 115.977 L 908.023 115.977 L 908.023 908.023 L 115.977 908.023 L 115.977 115.977 Z " fill-rule="evenodd" fill="rgb(25,118,210)"/><g id="Accessories"><g id="Ruler"><path d=" M 242 376.583 L 242 476.203 L 782 476.203 L 782 376.583 L 242 376.583 Z " fill-rule="evenodd" fill="rgb(139,104,69)" fill-opacity="0.8369715073529411"/><path d=" M 262 400.937 L 262 401.468 C 262 404.081 264.121 406.203 266.735 406.203 L 757.265 406.203 C 759.879 406.203 762 404.081 762 401.468 L 762 400.937 C 762 398.324 759.879 396.203 757.265 396.203 L 266.735 396.203 C 264.121 396.203 262 398.324 262 400.937 Z " fill-rule="evenodd" fill="rgb(118,89,60)" fill-opacity="0.8256261488970589"/></g><g id="Pen"><path d=" M 282.443 590.435 L 292.334 517.794 C 323.969 506.007 347.454 521.271 351.041 555.919 L 287.922 593.993 Q 284.107 596.111 282.953 595.362 Q 281.8 594.613 282.443 590.435 Z " fill="rgb(255,204,128)"/><path d=" M 417.601 324.9 L 476.308 363.025 L 351.041 555.919 C 335.268 533.471 311.794 518.263 292.334 517.794 L 417.601 324.9 Z " fill="rgb(66,165,245)"/><rect x="413.029" y="304.409" width="90" height="45" transform="matrix(0.839,0.545,-0.545,0.839,251.941,-196.721)" fill="rgb(189,189,189)"/><path d=" M 480.462 270.333 L 500.59 283.404 C 511.236 290.318 514.266 304.574 507.353 315.22 L 498.094 329.478 L 439.387 291.353 L 448.646 277.096 C 455.559 266.45 469.816 263.419 480.462 270.333 Z " fill="rgb(139,195,74)"/></g><g id="Paint Pencil"><path d=" M 733.769 598.879 Q 710.719 604.756 700.13 606.328 C 697.4 606.733 694.369 604.975 693.365 602.405 L 650.918 493.746 L 693.866 468.144 L 769.259 557.163 C 771.043 559.269 771.095 562.731 769.376 564.89 Q 761.963 574.202 746.875 590.958 C 743.92 594.239 738.048 597.788 733.769 598.879 Z " fill="rgb(121,85,72)"/><path d=" M 614.992 432.56 Q 478.575 189.014 493.177 180.309 Q 507.78 171.604 658.023 408.017 C 648.734 423.673 632.63 432.176 614.992 432.56 Z " fill="rgb(136,14,79)"/><path d=" M 614.992 432.56 C 630.453 430.07 646.584 421.574 658.023 408.017 L 693.866 468.144 C 682.859 480.924 666.839 490.486 650.918 493.746 L 614.992 432.56 Z " fill="rgb(235,235,235)"/></g></g><path d=" M 493.74 796.8 L 493.74 796.8 Q 490.7 796.8 488.66 795.16 L 488.66 795.16 L 488.66 795.16 Q 486.62 793.52 486.62 790.24 L 486.62 790.24 L 486.62 762.72 L 486.62 762.72 Q 486.62 759.44 488.66 757.8 L 488.66 757.8 L 488.66 757.8 Q 490.7 756.16 493.74 756.16 L 493.74 756.16 L 493.74 756.16 Q 496.78 756.16 498.82 757.8 L 498.82 757.8 L 498.82 757.8 Q 500.86 759.44 500.86 762.72 L 500.86 762.72 L 500.86 790.24 L 500.86 790.24 Q 500.86 793.52 498.82 795.16 L 498.82 795.16 L 498.82 795.16 Q 496.78 796.8 493.74 796.8 L 493.74 796.8 Z  M 493.74 750.56 L 493.74 750.56 Q 490.14 750.56 488.02 748.68 L 488.02 748.68 L 488.02 748.68 Q 485.9 746.8 485.9 743.68 L 485.9 743.68 L 485.9 743.68 Q 485.9 740.56 488.02 738.72 L 488.02 738.72 L 488.02 738.72 Q 490.14 736.88 493.74 736.88 L 493.74 736.88 L 493.74 736.88 Q 497.26 736.88 499.42 738.72 L 499.42 738.72 L 499.42 738.72 Q 501.58 740.56 501.58 743.68 L 501.58 743.68 L 501.58 743.68 Q 501.58 746.8 499.46 748.68 L 499.46 748.68 L 499.46 748.68 Q 497.34 750.56 493.74 750.56 L 493.74 750.56 Z  M 528.06 796.96 L 528.06 796.96 Q 518.46 796.96 512.86 791.52 L 512.86 791.52 L 512.86 791.52 Q 507.26 786.08 507.26 776.72 L 507.26 776.72 L 507.26 776.72 Q 507.26 770.56 509.98 765.84 L 509.98 765.84 L 509.98 765.84 Q 512.7 761.12 517.62 758.56 L 517.62 758.56 L 517.62 758.56 Q 522.54 756 528.86 756 L 528.86 756 L 528.86 756 Q 532.22 756 535.58 756.88 L 535.58 756.88 L 535.58 756.88 Q 538.94 757.76 541.5 759.36 L 541.5 759.36 L 541.5 759.36 Q 543.98 760.88 543.98 764 L 543.98 764 L 543.98 764 Q 543.98 766.48 542.82 768.04 L 542.82 768.04 L 542.82 768.04 Q 541.66 769.6 539.82 769.6 L 539.82 769.6 L 539.82 769.6 Q 538.62 769.6 537.5 769.24 L 537.5 769.24 L 537.5 769.24 Q 536.38 768.88 535.02 768.16 L 535.02 768.16 L 535.02 768.16 Q 533.42 767.44 532.3 767.08 L 532.3 767.08 L 532.3 767.08 Q 531.18 766.72 529.82 766.72 L 529.82 766.72 L 529.82 766.72 Q 521.9 766.72 521.9 776.4 L 521.9 776.4 L 521.9 776.4 Q 521.9 781.2 523.94 783.72 L 523.94 783.72 L 523.94 783.72 Q 525.98 786.24 529.82 786.24 L 529.82 786.24 L 529.82 786.24 Q 531.18 786.24 532.34 785.88 L 532.34 785.88 L 532.34 785.88 Q 533.5 785.52 534.94 784.8 L 534.94 784.8 L 534.94 784.8 Q 536.54 784.08 537.54 783.72 L 537.54 783.72 L 537.54 783.72 Q 538.54 783.36 539.74 783.36 L 539.74 783.36 L 539.74 783.36 Q 541.58 783.36 542.74 784.92 L 542.74 784.92 L 542.74 784.92 Q 543.9 786.48 543.9 788.96 L 543.9 788.96 L 543.9 788.96 Q 543.9 790.48 543.26 791.72 L 543.26 791.72 L 543.26 791.72 Q 542.62 792.96 541.5 793.6 L 541.5 793.6 L 541.5 793.6 Q 535.98 796.96 528.06 796.96 L 528.06 796.96 Z  M 568.94 796.96 L 568.94 796.96 Q 562.46 796.96 557.54 794.44 L 557.54 794.44 L 557.54 794.44 Q 552.62 791.92 549.94 787.28 L 549.94 787.28 L 549.94 787.28 Q 547.26 782.64 547.26 776.4 L 547.26 776.4 L 547.26 776.4 Q 547.26 770.16 549.94 765.56 L 549.94 765.56 L 549.94 765.56 Q 552.62 760.96 557.5 758.48 L 557.5 758.48 L 557.5 758.48 Q 562.38 756 568.94 756 L 568.94 756 L 568.94 756 Q 575.5 756 580.38 758.48 L 580.38 758.48 L 580.38 758.48 Q 585.26 760.96 587.94 765.56 L 587.94 765.56 L 587.94 765.56 Q 590.62 770.16 590.62 776.4 L 590.62 776.4 L 590.62 776.4 Q 590.62 782.64 587.94 787.28 L 587.94 787.28 L 587.94 787.28 Q 585.26 791.92 580.38 794.44 L 580.38 794.44 L 580.38 794.44 Q 575.5 796.96 568.94 796.96 L 568.94 796.96 Z  M 568.94 786.32 L 568.94 786.32 Q 576.54 786.32 576.54 776.4 L 576.54 776.4 L 576.54 776.4 Q 576.54 766.48 568.94 766.48 L 568.94 766.48 L 568.94 766.48 Q 561.34 766.48 561.34 776.4 L 561.34 776.4 L 561.34 776.4 Q 561.34 786.32 568.94 786.32 L 568.94 786.32 Z  M 615.42 756 L 615.42 756 Q 624.54 756 628.9 760.36 L 628.9 760.36 L 628.9 760.36 Q 633.26 764.72 633.26 773.6 L 633.26 773.6 L 633.26 790.32 L 633.26 790.32 Q 633.26 793.36 631.46 795.08 L 631.46 795.08 L 631.46 795.08 Q 629.66 796.8 626.46 796.8 L 626.46 796.8 L 626.46 796.8 Q 623.66 796.8 621.86 795.2 L 621.86 795.2 L 621.86 795.2 Q 620.06 793.6 619.9 790.88 L 619.9 790.88 L 619.9 790.88 Q 618.78 793.76 616.14 795.36 L 616.14 795.36 L 616.14 795.36 Q 613.5 796.96 609.82 796.96 L 609.82 796.96 L 609.82 796.96 Q 605.74 796.96 602.46 795.32 L 602.46 795.32 L 602.46 795.32 Q 599.18 793.68 597.3 790.76 L 597.3 790.76 L 597.3 790.76 Q 595.42 787.84 595.42 784.16 L 595.42 784.16 L 595.42 784.16 Q 595.42 779.92 597.62 777.4 L 597.62 777.4 L 597.62 777.4 Q 599.82 774.88 604.62 773.76 L 604.62 773.76 L 604.62 773.76 Q 609.42 772.64 617.58 772.64 L 617.58 772.64 L 619.74 772.64 L 619.74 771.68 L 619.74 771.68 Q 619.74 768.88 618.46 767.64 L 618.46 767.64 L 618.46 767.64 Q 617.18 766.4 614.14 766.4 L 614.14 766.4 L 614.14 766.4 Q 610.86 766.4 604.54 768.64 L 604.54 768.64 L 604.54 768.64 Q 602.7 769.28 601.42 769.28 L 601.42 769.28 L 601.42 769.28 Q 599.42 769.28 598.22 767.84 L 598.22 767.84 L 598.22 767.84 Q 597.02 766.4 597.02 764.08 L 597.02 764.08 L 597.02 764.08 Q 597.02 762.32 597.74 761.2 L 597.74 761.2 L 597.74 761.2 Q 598.46 760.08 600.06 759.2 L 600.06 759.2 L 600.06 759.2 Q 602.86 757.76 607.1 756.88 L 607.1 756.88 L 607.1 756.88 Q 611.34 756 615.42 756 L 615.42 756 Z  M 613.18 787.44 L 613.18 787.44 Q 616.06 787.44 617.9 785.4 L 617.9 785.4 L 617.9 785.4 Q 619.74 783.36 619.74 780.16 L 619.74 780.16 L 619.74 779.2 L 618.46 779.2 L 618.46 779.2 Q 613.34 779.2 611.18 780.12 L 611.18 780.12 L 611.18 780.12 Q 609.02 781.04 609.02 783.2 L 609.02 783.2 L 609.02 783.2 Q 609.02 785.04 610.18 786.24 L 610.18 786.24 L 610.18 786.24 Q 611.34 787.44 613.18 787.44 L 613.18 787.44 Z  M 667.74 756 L 667.74 756 Q 674.78 756 678.22 760.2 L 678.22 760.2 L 678.22 760.2 Q 681.66 764.4 681.66 772.96 L 681.66 772.96 L 681.66 790.24 L 681.66 790.24 Q 681.66 793.28 679.74 795.04 L 679.74 795.04 L 679.74 795.04 Q 677.82 796.8 674.54 796.8 L 674.54 796.8 L 674.54 796.8 Q 671.26 796.8 669.34 795.04 L 669.34 795.04 L 669.34 795.04 Q 667.42 793.28 667.42 790.24 L 667.42 790.24 L 667.42 773.6 L 667.42 773.6 Q 667.42 770.08 666.18 768.48 L 666.18 768.48 L 666.18 768.48 Q 664.94 766.88 662.46 766.88 L 662.46 766.88 L 662.46 766.88 Q 659.26 766.88 657.38 768.92 L 657.38 768.92 L 657.38 768.92 Q 655.5 770.96 655.5 774.4 L 655.5 774.4 L 655.5 790.24 L 655.5 790.24 Q 655.5 793.28 653.58 795.04 L 653.58 795.04 L 653.58 795.04 Q 651.66 796.8 648.38 796.8 L 648.38 796.8 L 648.38 796.8 Q 645.1 796.8 643.18 795.04 L 643.18 795.04 L 643.18 795.04 Q 641.26 793.28 641.26 790.24 L 641.26 790.24 L 641.26 762.56 L 641.26 762.56 Q 641.26 759.76 643.26 757.96 L 643.26 757.96 L 643.26 757.96 Q 645.26 756.16 648.46 756.16 L 648.46 756.16 L 648.46 756.16 Q 651.5 756.16 653.3 757.84 L 653.3 757.84 L 653.3 757.84 Q 655.1 759.52 655.1 762.24 L 655.1 762.24 L 655.1 762.24 Q 657.18 759.2 660.46 757.6 L 660.46 757.6 L 660.46 757.6 Q 663.74 756 667.74 756 L 667.74 756 Z  M 707.98 756 L 707.98 756 Q 717.1 756 721.46 760.36 L 721.46 760.36 L 721.46 760.36 Q 725.82 764.72 725.82 773.6 L 725.82 773.6 L 725.82 790.32 L 725.82 790.32 Q 725.82 793.36 724.02 795.08 L 724.02 795.08 L 724.02 795.08 Q 722.22 796.8 719.02 796.8 L 719.02 796.8 L 719.02 796.8 Q 716.22 796.8 714.42 795.2 L 714.42 795.2 L 714.42 795.2 Q 712.62 793.6 712.46 790.88 L 712.46 790.88 L 712.46 790.88 Q 711.34 793.76 708.7 795.36 L 708.7 795.36 L 708.7 795.36 Q 706.06 796.96 702.38 796.96 L 702.38 796.96 L 702.38 796.96 Q 698.3 796.96 695.02 795.32 L 695.02 795.32 L 695.02 795.32 Q 691.74 793.68 689.86 790.76 L 689.86 790.76 L 689.86 790.76 Q 687.98 787.84 687.98 784.16 L 687.98 784.16 L 687.98 784.16 Q 687.98 779.92 690.18 777.4 L 690.18 777.4 L 690.18 777.4 Q 692.38 774.88 697.18 773.76 L 697.18 773.76 L 697.18 773.76 Q 701.98 772.64 710.14 772.64 L 710.14 772.64 L 712.3 772.64 L 712.3 771.68 L 712.3 771.68 Q 712.3 768.88 711.02 767.64 L 711.02 767.64 L 711.02 767.64 Q 709.74 766.4 706.7 766.4 L 706.7 766.4 L 706.7 766.4 Q 703.42 766.4 697.1 768.64 L 697.1 768.64 L 697.1 768.64 Q 695.26 769.28 693.98 769.28 L 693.98 769.28 L 693.98 769.28 Q 691.98 769.28 690.78 767.84 L 690.78 767.84 L 690.78 767.84 Q 689.58 766.4 689.58 764.08 L 689.58 764.08 L 689.58 764.08 Q 689.58 762.32 690.3 761.2 L 690.3 761.2 L 690.3 761.2 Q 691.02 760.08 692.62 759.2 L 692.62 759.2 L 692.62 759.2 Q 695.42 757.76 699.66 756.88 L 699.66 756.88 L 699.66 756.88 Q 703.9 756 707.98 756 L 707.98 756 Z  M 705.74 787.44 L 705.74 787.44 Q 708.62 787.44 710.46 785.4 L 710.46 785.4 L 710.46 785.4 Q 712.3 783.36 712.3 780.16 L 712.3 780.16 L 712.3 779.2 L 711.02 779.2 L 711.02 779.2 Q 705.9 779.2 703.74 780.12 L 703.74 780.12 L 703.74 780.12 Q 701.58 781.04 701.58 783.2 L 701.58 783.2 L 701.58 783.2 Q 701.58 785.04 702.74 786.24 L 702.74 786.24 L 702.74 786.24 Q 703.9 787.44 705.74 787.44 L 705.74 787.44 Z  M 707.98 750.72 L 707.98 750.72 Q 703.1 750.72 699.06 748.08 L 699.06 748.08 L 699.06 748.08 Q 695.02 745.44 693.58 741.44 L 693.58 741.44 L 693.58 741.44 Q 693.34 740.56 693.34 739.92 L 693.34 739.92 L 693.34 739.92 Q 693.34 738.32 694.46 737.28 L 694.46 737.28 L 694.46 737.28 Q 695.58 736.24 697.1 736.24 L 697.1 736.24 L 697.1 736.24 Q 699.1 736.24 700.38 738.08 L 700.38 738.08 L 700.38 738.08 Q 703.1 741.84 707.98 741.84 L 707.98 741.84 L 707.98 741.84 Q 712.86 741.84 715.58 738.08 L 715.58 738.08 L 715.58 738.08 Q 716.86 736.24 718.86 736.24 L 718.86 736.24 L 718.86 736.24 Q 720.38 736.24 721.5 737.28 L 721.5 737.28 L 721.5 737.28 Q 722.62 738.32 722.62 739.92 L 722.62 739.92 L 722.62 739.92 Q 722.62 740.56 722.38 741.44 L 722.38 741.44 L 722.38 741.44 Q 720.94 745.44 716.9 748.08 L 716.9 748.08 L 716.9 748.08 Q 712.86 750.72 707.98 750.72 L 707.98 750.72 Z  M 303.9 796.8 L 303.9 796.8 Q 300.62 796.8 298.62 794.8 L 298.62 794.8 L 298.62 794.8 Q 296.62 792.8 296.62 789.52 L 296.62 789.52 L 296.62 746.72 L 296.62 746.72 Q 296.62 743.44 298.38 741.68 L 298.38 741.68 L 298.38 741.68 Q 300.14 739.92 303.42 739.92 L 303.42 739.92 L 330.3 739.92 L 330.3 739.92 Q 333.9 739.92 335.58 741.32 L 335.58 741.32 L 335.58 741.32 Q 337.26 742.72 337.26 745.76 L 337.26 745.76 L 337.26 745.76 Q 337.26 748.72 335.54 750.08 L 335.54 750.08 L 335.54 750.08 Q 333.82 751.44 330.3 751.44 L 330.3 751.44 L 311.1 751.44 L 311.1 761.84 L 328.7 761.84 L 328.7 761.84 Q 332.22 761.84 333.94 763.28 L 333.94 763.28 L 333.94 763.28 Q 335.66 764.72 335.66 767.68 L 335.66 767.68 L 335.66 767.68 Q 335.66 770.64 333.94 772 L 333.94 772 L 333.94 772 Q 332.22 773.36 328.7 773.36 L 328.7 773.36 L 311.1 773.36 L 311.1 789.52 L 311.1 789.52 Q 311.1 792.88 309.14 794.84 L 309.14 794.84 L 309.14 794.84 Q 307.18 796.8 303.9 796.8 L 303.9 796.8 Z  M 360.22 756 L 360.22 756 Q 369.34 756 373.7 760.36 L 373.7 760.36 L 373.7 760.36 Q 378.06 764.72 378.06 773.6 L 378.06 773.6 L 378.06 790.32 L 378.06 790.32 Q 378.06 793.36 376.26 795.08 L 376.26 795.08 L 376.26 795.08 Q 374.46 796.8 371.26 796.8 L 371.26 796.8 L 371.26 796.8 Q 368.46 796.8 366.66 795.2 L 366.66 795.2 L 366.66 795.2 Q 364.86 793.6 364.7 790.88 L 364.7 790.88 L 364.7 790.88 Q 363.58 793.76 360.94 795.36 L 360.94 795.36 L 360.94 795.36 Q 358.3 796.96 354.62 796.96 L 354.62 796.96 L 354.62 796.96 Q 350.54 796.96 347.26 795.32 L 347.26 795.32 L 347.26 795.32 Q 343.98 793.68 342.1 790.76 L 342.1 790.76 L 342.1 790.76 Q 340.22 787.84 340.22 784.16 L 340.22 784.16 L 340.22 784.16 Q 340.22 779.92 342.42 777.4 L 342.42 777.4 L 342.42 777.4 Q 344.62 774.88 349.42 773.76 L 349.42 773.76 L 349.42 773.76 Q 354.22 772.64 362.38 772.64 L 362.38 772.64 L 364.54 772.64 L 364.54 771.68 L 364.54 771.68 Q 364.54 768.88 363.26 767.64 L 363.26 767.64 L 363.26 767.64 Q 361.98 766.4 358.94 766.4 L 358.94 766.4 L 358.94 766.4 Q 355.66 766.4 349.34 768.64 L 349.34 768.64 L 349.34 768.64 Q 347.5 769.28 346.22 769.28 L 346.22 769.28 L 346.22 769.28 Q 344.22 769.28 343.02 767.84 L 343.02 767.84 L 343.02 767.84 Q 341.82 766.4 341.82 764.08 L 341.82 764.08 L 341.82 764.08 Q 341.82 762.32 342.54 761.2 L 342.54 761.2 L 342.54 761.2 Q 343.26 760.08 344.86 759.2 L 344.86 759.2 L 344.86 759.2 Q 347.66 757.76 351.9 756.88 L 351.9 756.88 L 351.9 756.88 Q 356.14 756 360.22 756 L 360.22 756 Z  M 357.98 787.44 L 357.98 787.44 Q 360.86 787.44 362.7 785.4 L 362.7 785.4 L 362.7 785.4 Q 364.54 783.36 364.54 780.16 L 364.54 780.16 L 364.54 779.2 L 363.26 779.2 L 363.26 779.2 Q 358.14 779.2 355.98 780.12 L 355.98 780.12 L 355.98 780.12 Q 353.82 781.04 353.82 783.2 L 353.82 783.2 L 353.82 783.2 Q 353.82 785.04 354.98 786.24 L 354.98 786.24 L 354.98 786.24 Q 356.14 787.44 357.98 787.44 L 357.98 787.44 Z  M 360.22 750.72 L 360.22 750.72 Q 355.34 750.72 351.3 748.08 L 351.3 748.08 L 351.3 748.08 Q 347.26 745.44 345.82 741.44 L 345.82 741.44 L 345.82 741.44 Q 345.58 740.56 345.58 739.92 L 345.58 739.92 L 345.58 739.92 Q 345.58 738.32 346.7 737.28 L 346.7 737.28 L 346.7 737.28 Q 347.82 736.24 349.34 736.24 L 349.34 736.24 L 349.34 736.24 Q 351.34 736.24 352.62 738.08 L 352.62 738.08 L 352.62 738.08 Q 355.34 741.84 360.22 741.84 L 360.22 741.84 L 360.22 741.84 Q 365.1 741.84 367.82 738.08 L 367.82 738.08 L 367.82 738.08 Q 369.1 736.24 371.1 736.24 L 371.1 736.24 L 371.1 736.24 Q 372.62 736.24 373.74 737.28 L 373.74 737.28 L 373.74 737.28 Q 374.86 738.32 374.86 739.92 L 374.86 739.92 L 374.86 739.92 Q 374.86 740.56 374.62 741.44 L 374.62 741.44 L 374.62 741.44 Q 373.18 745.44 369.14 748.08 L 369.14 748.08 L 369.14 748.08 Q 365.1 750.72 360.22 750.72 L 360.22 750.72 Z  M 411.02 756.16 L 411.02 756.16 Q 413.74 755.92 415.34 757.4 L 415.34 757.4 L 415.34 757.4 Q 416.94 758.88 416.94 761.76 L 416.94 761.76 L 416.94 761.76 Q 416.94 764.96 415.46 766.4 L 415.46 766.4 L 415.46 766.4 Q 413.98 767.84 410.14 768.24 L 410.14 768.24 L 407.74 768.48 L 407.74 768.48 Q 403.74 768.96 402.02 771 L 402.02 771 L 402.02 771 Q 400.3 773.04 400.3 776.56 L 400.3 776.56 L 400.3 790.24 L 400.3 790.24 Q 400.3 793.52 398.26 795.16 L 398.26 795.16 L 398.26 795.16 Q 396.22 796.8 393.18 796.8 L 393.18 796.8 L 393.18 796.8 Q 390.14 796.8 388.1 795.16 L 388.1 795.16 L 388.1 795.16 Q 386.06 793.52 386.06 790.24 L 386.06 790.24 L 386.06 762.56 L 386.06 762.56 Q 386.06 759.52 388.1 757.84 L 388.1 757.84 L 388.1 757.84 Q 390.14 756.16 393.02 756.16 L 393.02 756.16 L 393.02 756.16 Q 395.98 756.16 397.78 757.76 L 397.78 757.76 L 397.78 757.76 Q 399.58 759.36 399.58 762.24 L 399.58 762.24 L 399.58 763.76 L 399.58 763.76 Q 400.86 760.24 403.78 758.32 L 403.78 758.32 L 403.78 758.32 Q 406.7 756.4 409.9 756.24 L 409.9 756.24 L 411.02 756.16 Z  M 437.9 756 L 437.9 756 Q 447.02 756 451.38 760.36 L 451.38 760.36 L 451.38 760.36 Q 455.74 764.72 455.74 773.6 L 455.74 773.6 L 455.74 790.32 L 455.74 790.32 Q 455.74 793.36 453.94 795.08 L 453.94 795.08 L 453.94 795.08 Q 452.14 796.8 448.94 796.8 L 448.94 796.8 L 448.94 796.8 Q 446.14 796.8 444.34 795.2 L 444.34 795.2 L 444.34 795.2 Q 442.54 793.6 442.38 790.88 L 442.38 790.88 L 442.38 790.88 Q 441.26 793.76 438.62 795.36 L 438.62 795.36 L 438.62 795.36 Q 435.98 796.96 432.3 796.96 L 432.3 796.96 L 432.3 796.96 Q 428.22 796.96 424.94 795.32 L 424.94 795.32 L 424.94 795.32 Q 421.66 793.68 419.78 790.76 L 419.78 790.76 L 419.78 790.76 Q 417.9 787.84 417.9 784.16 L 417.9 784.16 L 417.9 784.16 Q 417.9 779.92 420.1 777.4 L 420.1 777.4 L 420.1 777.4 Q 422.3 774.88 427.1 773.76 L 427.1 773.76 L 427.1 773.76 Q 431.9 772.64 440.06 772.64 L 440.06 772.64 L 442.22 772.64 L 442.22 771.68 L 442.22 771.68 Q 442.22 768.88 440.94 767.64 L 440.94 767.64 L 440.94 767.64 Q 439.66 766.4 436.62 766.4 L 436.62 766.4 L 436.62 766.4 Q 433.34 766.4 427.02 768.64 L 427.02 768.64 L 427.02 768.64 Q 425.18 769.28 423.9 769.28 L 423.9 769.28 L 423.9 769.28 Q 421.9 769.28 420.7 767.84 L 420.7 767.84 L 420.7 767.84 Q 419.5 766.4 419.5 764.08 L 419.5 764.08 L 419.5 764.08 Q 419.5 762.32 420.22 761.2 L 420.22 761.2 L 420.22 761.2 Q 420.94 760.08 422.54 759.2 L 422.54 759.2 L 422.54 759.2 Q 425.34 757.76 429.58 756.88 L 429.58 756.88 L 429.58 756.88 Q 433.82 756 437.9 756 L 437.9 756 Z  M 435.66 787.44 L 435.66 787.44 Q 438.54 787.44 440.38 785.4 L 440.38 785.4 L 440.38 785.4 Q 442.22 783.36 442.22 780.16 L 442.22 780.16 L 442.22 779.2 L 440.94 779.2 L 440.94 779.2 Q 435.82 779.2 433.66 780.12 L 433.66 780.12 L 433.66 780.12 Q 431.5 781.04 431.5 783.2 L 431.5 783.2 L 431.5 783.2 Q 431.5 785.04 432.66 786.24 L 432.66 786.24 L 432.66 786.24 Q 433.82 787.44 435.66 787.44 L 435.66 787.44 Z  M 437.9 750.72 L 437.9 750.72 Q 433.02 750.72 428.98 748.08 L 428.98 748.08 L 428.98 748.08 Q 424.94 745.44 423.5 741.44 L 423.5 741.44 L 423.5 741.44 Q 423.26 740.56 423.26 739.92 L 423.26 739.92 L 423.26 739.92 Q 423.26 738.32 424.38 737.28 L 424.38 737.28 L 424.38 737.28 Q 425.5 736.24 427.02 736.24 L 427.02 736.24 L 427.02 736.24 Q 429.02 736.24 430.3 738.08 L 430.3 738.08 L 430.3 738.08 Q 433.02 741.84 437.9 741.84 L 437.9 741.84 L 437.9 741.84 Q 442.78 741.84 445.5 738.08 L 445.5 738.08 L 445.5 738.08 Q 446.78 736.24 448.78 736.24 L 448.78 736.24 L 448.78 736.24 Q 450.3 736.24 451.42 737.28 L 451.42 737.28 L 451.42 737.28 Q 452.54 738.32 452.54 739.92 L 452.54 739.92 L 452.54 739.92 Q 452.54 740.56 452.3 741.44 L 452.3 741.44 L 452.3 741.44 Q 450.86 745.44 446.82 748.08 L 446.82 748.08 L 446.82 748.08 Q 442.78 750.72 437.9 750.72 L 437.9 750.72 Z " fill-rule="evenodd" fill="rgb(25,118,210)"/></g></g></svg>