<?xml version="1.0" standalone="no"?>
<!-- Generator: Gravit.io -->
<svg xmlns="http://www.w3.org/2000/svg" xmlns:xlink="http://www.w3.org/1999/xlink" style="isolation:isolate" viewBox="0 0 1024 1024" width="1024" height="1024">
    <defs>
        <clipPath id="_clipPath_MnmiQM6wVlk88ONAFTos0fWtDVAxvJtc">
            <rect width="1024" height="1024" />
        </clipPath>
    </defs>
    <g clip-path="url(#_clipPath_MnmiQM6wVlk88ONAFTos0fWtDVAxvJtc)">
        <g id="App Store 2">
            <rect x="87" y="87" width="850" height="850" transform="matrix(1,0,0,1,0,0)" fill="rgb(235,235,235)" />
            <g id="Accessories">
                <g id="Ruler">
                    <path d=" M 242 594.583 L 242 694.203 L 782 694.203 L 782 594.583 L 242 594.583 Z " fill-rule="evenodd" fill="rgb(139,104,69)" fill-opacity="0.8369715073529411" />
                    <path d=" M 262 618.937 L 262 619.468 C 262 622.081 264.121 624.203 266.735 624.203 L 757.265 624.203 C 759.879 624.203 762 622.081 762 619.468 L 762 618.937 C 762 616.324 759.879 614.203 757.265 614.203 L 266.735 614.203 C 264.121 614.203 262 616.324 262 618.937 Z " fill-rule="evenodd" fill="rgb(118,89,60)" fill-opacity="0.8256261488970589" />
                </g>
                <g id="Pen">
                    <path d=" M 282.443 808.435 L 292.334 735.794 C 323.969 724.007 347.454 739.271 351.041 773.919 L 287.922 811.993 Q 284.107 814.111 282.953 813.362 Q 281.8 812.613 282.443 808.435 Z " fill="rgb(255,204,128)" />
                    <path d=" M 417.601 542.9 L 476.308 581.025 L 351.041 773.919 C 335.268 751.471 311.794 736.263 292.334 735.794 L 417.601 542.9 Z " fill="rgb(66,165,245)" />
                    <rect x="413.029" y="522.409" width="90" height="45" transform="matrix(0.839,0.545,-0.545,0.839,370.672,-161.551)" fill="rgb(189,189,189)" />
                    <path d=" M 480.462 488.333 L 500.59 501.404 C 511.236 508.318 514.266 522.574 507.353 533.22 L 498.094 547.478 L 439.387 509.353 L 448.646 495.096 C 455.559 484.45 469.816 481.419 480.462 488.333 Z " fill="rgb(139,195,74)" />
                </g>
                <g id="Paint Pencil">
                    <path d=" M 733.769 816.879 Q 710.719 822.756 700.13 824.328 C 697.4 824.733 694.369 822.975 693.365 820.405 L 650.918 711.746 L 693.866 686.144 L 769.259 775.163 C 771.043 777.269 771.095 780.731 769.376 782.89 Q 761.963 792.202 746.875 808.958 C 743.92 812.239 738.048 815.788 733.769 816.879 Z " fill="rgb(121,85,72)" />
                    <path d=" M 614.992 650.56 Q 478.575 407.014 493.177 398.309 Q 507.78 389.604 658.023 626.017 C 648.734 641.673 632.63 650.176 614.992 650.56 Z " fill="rgb(136,14,79)" />
                    <path d=" M 614.992 650.56 C 630.453 648.07 646.584 639.574 658.023 626.017 L 693.866 686.144 C 682.859 698.924 666.839 708.486 650.918 711.746 L 614.992 650.56 Z " fill="rgb(235,235,235)" />
                </g>
            </g>
            <path d=" M 112 147.697 L 112 273.385 C 112 293.639 128.443 310.083 148.697 310.083 L 875.303 310.083 C 895.557 310.083 912 293.639 912 273.385 L 912 147.697 C 912 127.443 895.557 111 875.303 111 L 148.697 111 C 128.443 111 112 127.443 112 147.697 Z " fill-rule="evenodd" fill="rgb(189,189,189)" />
            <clipPath id="_clipPath_xeOfqXV4LI2l7Moe5NOmfU35xeJq3SJR">
                <path d=" M 112 147.697 L 112 273.385 C 112 293.639 128.443 310.083 148.697 310.083 L 875.303 310.083 C 895.557 310.083 912 293.639 912 273.385 L 912 147.697 C 912 127.443 895.557 111 875.303 111 L 148.697 111 C 128.443 111 112 127.443 112 147.697 Z " fill-rule="evenodd" fill="rgb(189,189,189)" />
            </clipPath>
            <g clip-path="url(#_clipPath_xeOfqXV4LI2l7Moe5NOmfU35xeJq3SJR)">
                <path d=" M 145.243 159.146 L 145.243 338.084 C 145.243 350.478 155.306 360.541 167.701 360.541 L 856.299 360.541 C 868.694 360.541 878.757 350.478 878.757 338.084 L 878.757 159.146 C 878.757 146.751 868.694 136.688 856.299 136.688 L 167.701 136.688 C 155.306 136.688 145.243 146.751 145.243 159.146 Z " fill-rule="evenodd" fill="rgb(0,150,136)" />
                <path d=" M 145.243 194.136 L 145.243 347.13 C 145.243 359.595 155.364 369.716 167.829 369.716 L 856.171 369.716 C 868.636 369.716 878.757 359.595 878.757 347.13 L 878.757 194.136 C 878.757 181.671 868.636 171.55 856.171 171.55 L 167.829 171.55 C 155.364 171.55 145.243 181.671 145.243 194.136 Z " fill-rule="evenodd" fill="rgb(136,14,79)" />
                <path d=" M 145.243 226.916 L 145.243 349.213 C 145.243 360.529 154.43 369.716 165.746 369.716 L 858.254 369.716 C 869.57 369.716 878.757 360.529 878.757 349.213 L 878.757 226.916 C 878.757 215.6 869.57 206.413 858.254 206.413 L 165.746 206.413 C 154.43 206.413 145.243 215.6 145.243 226.916 Z " fill-rule="evenodd" fill="rgb(255,193,7)" />
                <path d=" M 145.243 260.311 L 145.243 351.598 C 145.243 361.597 153.362 369.716 163.361 369.716 L 860.639 369.716 C 870.638 369.716 878.757 361.597 878.757 351.598 L 878.757 260.311 C 878.757 250.311 870.638 242.193 860.639 242.193 L 163.361 242.193 C 153.362 242.193 145.243 250.311 145.243 260.311 Z " fill-rule="evenodd" fill="rgb(183,28,28)" />
            </g>
        </g>
    </g>
</svg>