<?xml version="1.0" standalone="no"?><!-- Generator: Gravit.io --><svg xmlns="http://www.w3.org/2000/svg" xmlns:xlink="http://www.w3.org/1999/xlink" style="isolation:isolate" viewBox="0 0 1024 1024" width="1024" height="1024"><defs><clipPath id="_clipPath_kwOubkjgIcryN75VN3fd4oODqO28fC2G"><rect width="1024" height="1024"/></clipPath></defs><g clip-path="url(#_clipPath_kwOubkjgIcryN75VN3fd4oODqO28fC2G)"><g id="App without icon"><rect x="87" y="87" width="850" height="850" transform="matrix(1,0,0,1,0,0)" fill="rgb(227,242,253)"/><path d=" M 87 87 L 937 87 L 937 937 L 87 937 L 87 87 Z  M 115.977 115.977 L 908.023 115.977 L 908.023 908.023 L 115.977 908.023 L 115.977 115.977 Z " fill-rule="evenodd" fill="rgb(25,118,210)"/><g id="Accessories"><g id="Ruler"><path d=" M 242 376.583 L 242 476.203 L 782 476.203 L 782 376.583 L 242 376.583 Z " fill-rule="evenodd" fill="rgb(139,104,69)" fill-opacity="0.8369715073529411"/><path d=" M 262 400.937 L 262 401.468 C 262 404.081 264.121 406.203 266.735 406.203 L 757.265 406.203 C 759.879 406.203 762 404.081 762 401.468 L 762 400.937 C 762 398.324 759.879 396.203 757.265 396.203 L 266.735 396.203 C 264.121 396.203 262 398.324 262 400.937 Z " fill-rule="evenodd" fill="rgb(118,89,60)" fill-opacity="0.8256261488970589"/></g><g id="Pen"><path d=" M 282.443 590.435 L 292.334 517.794 C 323.969 506.007 347.454 521.271 351.041 555.919 L 287.922 593.993 Q 284.107 596.111 282.953 595.362 Q 281.8 594.613 282.443 590.435 Z " fill="rgb(255,204,128)"/><path d=" M 417.601 324.9 L 476.308 363.025 L 351.041 555.919 C 335.268 533.471 311.794 518.263 292.334 517.794 L 417.601 324.9 Z " fill="rgb(66,165,245)"/><rect x="413.029" y="304.409" width="90" height="45" transform="matrix(0.839,0.545,-0.545,0.839,251.941,-196.721)" fill="rgb(189,189,189)"/><path d=" M 480.462 270.333 L 500.59 283.404 C 511.236 290.318 514.266 304.574 507.353 315.22 L 498.094 329.478 L 439.387 291.353 L 448.646 277.096 C 455.559 266.45 469.816 263.419 480.462 270.333 Z " fill="rgb(139,195,74)"/></g><g id="Paint Pencil"><path d=" M 733.769 598.879 Q 710.719 604.756 700.13 606.328 C 697.4 606.733 694.369 604.975 693.365 602.405 L 650.918 493.746 L 693.866 468.144 L 769.259 557.163 C 771.043 559.269 771.095 562.731 769.376 564.89 Q 761.963 574.202 746.875 590.958 C 743.92 594.239 738.048 597.788 733.769 598.879 Z " fill="rgb(121,85,72)"/><path d=" M 614.992 432.56 Q 478.575 189.014 493.177 180.309 Q 507.78 171.604 658.023 408.017 C 648.734 423.673 632.63 432.176 614.992 432.56 Z " fill="rgb(136,14,79)"/><path d=" M 614.992 432.56 C 630.453 430.07 646.584 421.574 658.023 408.017 L 693.866 468.144 C 682.859 480.924 666.839 490.486 650.918 493.746 L 614.992 432.56 Z " fill="rgb(235,235,235)"/></g></g><path d=" M 544.98 796.8 L 544.98 796.8 Q 541.94 796.8 539.9 795.16 L 539.9 795.16 L 539.9 795.16 Q 537.86 793.52 537.86 790.24 L 537.86 790.24 L 537.86 762.72 L 537.86 762.72 Q 537.86 759.44 539.9 757.8 L 539.9 757.8 L 539.9 757.8 Q 541.94 756.16 544.98 756.16 L 544.98 756.16 L 544.98 756.16 Q 548.02 756.16 550.06 757.8 L 550.06 757.8 L 550.06 757.8 Q 552.1 759.44 552.1 762.72 L 552.1 762.72 L 552.1 790.24 L 552.1 790.24 Q 552.1 793.52 550.06 795.16 L 550.06 795.16 L 550.06 795.16 Q 548.02 796.8 544.98 796.8 L 544.98 796.8 Z  M 544.98 750.56 L 544.98 750.56 Q 541.38 750.56 539.26 748.68 L 539.26 748.68 L 539.26 748.68 Q 537.14 746.8 537.14 743.68 L 537.14 743.68 L 537.14 743.68 Q 537.14 740.56 539.26 738.72 L 539.26 738.72 L 539.26 738.72 Q 541.38 736.88 544.98 736.88 L 544.98 736.88 L 544.98 736.88 Q 548.5 736.88 550.66 738.72 L 550.66 738.72 L 550.66 738.72 Q 552.82 740.56 552.82 743.68 L 552.82 743.68 L 552.82 743.68 Q 552.82 746.8 550.7 748.68 L 550.7 748.68 L 550.7 748.68 Q 548.58 750.56 544.98 750.56 L 544.98 750.56 Z  M 579.3 796.96 L 579.3 796.96 Q 569.7 796.96 564.1 791.52 L 564.1 791.52 L 564.1 791.52 Q 558.5 786.08 558.5 776.72 L 558.5 776.72 L 558.5 776.72 Q 558.5 770.56 561.22 765.84 L 561.22 765.84 L 561.22 765.84 Q 563.94 761.12 568.86 758.56 L 568.86 758.56 L 568.86 758.56 Q 573.78 756 580.1 756 L 580.1 756 L 580.1 756 Q 583.46 756 586.82 756.88 L 586.82 756.88 L 586.82 756.88 Q 590.18 757.76 592.74 759.36 L 592.74 759.36 L 592.74 759.36 Q 595.22 760.88 595.22 764 L 595.22 764 L 595.22 764 Q 595.22 766.48 594.06 768.04 L 594.06 768.04 L 594.06 768.04 Q 592.9 769.6 591.06 769.6 L 591.06 769.6 L 591.06 769.6 Q 589.86 769.6 588.74 769.24 L 588.74 769.24 L 588.74 769.24 Q 587.62 768.88 586.26 768.16 L 586.26 768.16 L 586.26 768.16 Q 584.66 767.44 583.54 767.08 L 583.54 767.08 L 583.54 767.08 Q 582.42 766.72 581.06 766.72 L 581.06 766.72 L 581.06 766.72 Q 573.14 766.72 573.14 776.4 L 573.14 776.4 L 573.14 776.4 Q 573.14 781.2 575.18 783.72 L 575.18 783.72 L 575.18 783.72 Q 577.22 786.24 581.06 786.24 L 581.06 786.24 L 581.06 786.24 Q 582.42 786.24 583.58 785.88 L 583.58 785.88 L 583.58 785.88 Q 584.74 785.52 586.18 784.8 L 586.18 784.8 L 586.18 784.8 Q 587.78 784.08 588.78 783.72 L 588.78 783.72 L 588.78 783.72 Q 589.78 783.36 590.98 783.36 L 590.98 783.36 L 590.98 783.36 Q 592.82 783.36 593.98 784.92 L 593.98 784.92 L 593.98 784.92 Q 595.14 786.48 595.14 788.96 L 595.14 788.96 L 595.14 788.96 Q 595.14 790.48 594.5 791.72 L 594.5 791.72 L 594.5 791.72 Q 593.86 792.96 592.74 793.6 L 592.74 793.6 L 592.74 793.6 Q 587.22 796.96 579.3 796.96 L 579.3 796.96 Z  M 620.18 796.96 L 620.18 796.96 Q 613.7 796.96 608.78 794.44 L 608.78 794.44 L 608.78 794.44 Q 603.86 791.92 601.18 787.28 L 601.18 787.28 L 601.18 787.28 Q 598.5 782.64 598.5 776.4 L 598.5 776.4 L 598.5 776.4 Q 598.5 770.16 601.18 765.56 L 601.18 765.56 L 601.18 765.56 Q 603.86 760.96 608.74 758.48 L 608.74 758.48 L 608.74 758.48 Q 613.62 756 620.18 756 L 620.18 756 L 620.18 756 Q 626.74 756 631.62 758.48 L 631.62 758.48 L 631.62 758.48 Q 636.5 760.96 639.18 765.56 L 639.18 765.56 L 639.18 765.56 Q 641.86 770.16 641.86 776.4 L 641.86 776.4 L 641.86 776.4 Q 641.86 782.64 639.18 787.28 L 639.18 787.28 L 639.18 787.28 Q 636.5 791.92 631.62 794.44 L 631.62 794.44 L 631.62 794.44 Q 626.74 796.96 620.18 796.96 L 620.18 796.96 Z  M 620.18 786.32 L 620.18 786.32 Q 627.78 786.32 627.78 776.4 L 627.78 776.4 L 627.78 776.4 Q 627.78 766.48 620.18 766.48 L 620.18 766.48 L 620.18 766.48 Q 612.58 766.48 612.58 776.4 L 612.58 776.4 L 612.58 776.4 Q 612.58 786.32 620.18 786.32 L 620.18 786.32 Z  M 674.82 756 L 674.82 756 Q 681.86 756 685.3 760.2 L 685.3 760.2 L 685.3 760.2 Q 688.74 764.4 688.74 772.96 L 688.74 772.96 L 688.74 790.24 L 688.74 790.24 Q 688.74 793.28 686.82 795.04 L 686.82 795.04 L 686.82 795.04 Q 684.9 796.8 681.62 796.8 L 681.62 796.8 L 681.62 796.8 Q 678.34 796.8 676.42 795.04 L 676.42 795.04 L 676.42 795.04 Q 674.5 793.28 674.5 790.24 L 674.5 790.24 L 674.5 773.6 L 674.5 773.6 Q 674.5 770.08 673.26 768.48 L 673.26 768.48 L 673.26 768.48 Q 672.02 766.88 669.54 766.88 L 669.54 766.88 L 669.54 766.88 Q 666.34 766.88 664.46 768.92 L 664.46 768.92 L 664.46 768.92 Q 662.58 770.96 662.58 774.4 L 662.58 774.4 L 662.58 790.24 L 662.58 790.24 Q 662.58 793.28 660.66 795.04 L 660.66 795.04 L 660.66 795.04 Q 658.74 796.8 655.46 796.8 L 655.46 796.8 L 655.46 796.8 Q 652.18 796.8 650.26 795.04 L 650.26 795.04 L 650.26 795.04 Q 648.34 793.28 648.34 790.24 L 648.34 790.24 L 648.34 762.56 L 648.34 762.56 Q 648.34 759.76 650.34 757.96 L 650.34 757.96 L 650.34 757.96 Q 652.34 756.16 655.54 756.16 L 655.54 756.16 L 655.54 756.16 Q 658.58 756.16 660.38 757.84 L 660.38 757.84 L 660.38 757.84 Q 662.18 759.52 662.18 762.24 L 662.18 762.24 L 662.18 762.24 Q 664.26 759.2 667.54 757.6 L 667.54 757.6 L 667.54 757.6 Q 670.82 756 674.82 756 L 674.82 756 Z  M 715.06 756 L 715.06 756 Q 724.18 756 728.54 760.36 L 728.54 760.36 L 728.54 760.36 Q 732.9 764.72 732.9 773.6 L 732.9 773.6 L 732.9 790.32 L 732.9 790.32 Q 732.9 793.36 731.1 795.08 L 731.1 795.08 L 731.1 795.08 Q 729.3 796.8 726.1 796.8 L 726.1 796.8 L 726.1 796.8 Q 723.3 796.8 721.5 795.2 L 721.5 795.2 L 721.5 795.2 Q 719.7 793.6 719.54 790.88 L 719.54 790.88 L 719.54 790.88 Q 718.42 793.76 715.78 795.36 L 715.78 795.36 L 715.78 795.36 Q 713.14 796.96 709.46 796.96 L 709.46 796.96 L 709.46 796.96 Q 705.38 796.96 702.1 795.32 L 702.1 795.32 L 702.1 795.32 Q 698.82 793.68 696.94 790.76 L 696.94 790.76 L 696.94 790.76 Q 695.06 787.84 695.06 784.16 L 695.06 784.16 L 695.06 784.16 Q 695.06 779.92 697.26 777.4 L 697.26 777.4 L 697.26 777.4 Q 699.46 774.88 704.26 773.76 L 704.26 773.76 L 704.26 773.76 Q 709.06 772.64 717.22 772.64 L 717.22 772.64 L 719.38 772.64 L 719.38 771.68 L 719.38 771.68 Q 719.38 768.88 718.1 767.64 L 718.1 767.64 L 718.1 767.64 Q 716.82 766.4 713.78 766.4 L 713.78 766.4 L 713.78 766.4 Q 710.5 766.4 704.18 768.64 L 704.18 768.64 L 704.18 768.64 Q 702.34 769.28 701.06 769.28 L 701.06 769.28 L 701.06 769.28 Q 699.06 769.28 697.86 767.84 L 697.86 767.84 L 697.86 767.84 Q 696.66 766.4 696.66 764.08 L 696.66 764.08 L 696.66 764.08 Q 696.66 762.32 697.38 761.2 L 697.38 761.2 L 697.38 761.2 Q 698.1 760.08 699.7 759.2 L 699.7 759.2 L 699.7 759.2 Q 702.5 757.76 706.74 756.88 L 706.74 756.88 L 706.74 756.88 Q 710.98 756 715.06 756 L 715.06 756 Z  M 712.82 787.44 L 712.82 787.44 Q 715.7 787.44 717.54 785.4 L 717.54 785.4 L 717.54 785.4 Q 719.38 783.36 719.38 780.16 L 719.38 780.16 L 719.38 779.2 L 718.1 779.2 L 718.1 779.2 Q 712.98 779.2 710.82 780.12 L 710.82 780.12 L 710.82 780.12 Q 708.66 781.04 708.66 783.2 L 708.66 783.2 L 708.66 783.2 Q 708.66 785.04 709.82 786.24 L 709.82 786.24 L 709.82 786.24 Q 710.98 787.44 712.82 787.44 L 712.82 787.44 Z  M 310.82 797.04 L 310.82 797.04 Q 304.42 797.04 298.94 795.64 L 298.94 795.64 L 298.94 795.64 Q 293.46 794.24 289.94 791.76 L 289.94 791.76 L 289.94 791.76 Q 288.58 790.72 287.98 789.6 L 287.98 789.6 L 287.98 789.6 Q 287.38 788.48 287.38 786.72 L 287.38 786.72 L 287.38 786.72 Q 287.38 784.32 288.82 782.56 L 288.82 782.56 L 288.82 782.56 Q 290.26 780.8 292.18 780.8 L 292.18 780.8 L 292.18 780.8 Q 293.22 780.8 294.18 781.12 L 294.18 781.12 L 294.18 781.12 Q 295.14 781.44 296.58 782.32 L 296.58 782.32 L 296.58 782.32 Q 299.86 784.16 303.1 784.96 L 303.1 784.96 L 303.1 784.96 Q 306.34 785.76 310.42 785.76 L 310.42 785.76 L 310.42 785.76 Q 315.14 785.76 317.58 784.36 L 317.58 784.36 L 317.58 784.36 Q 320.02 782.96 320.02 780.24 L 320.02 780.24 L 320.02 780.24 Q 320.02 778.4 317.74 777.08 L 317.74 777.08 L 317.74 777.08 Q 315.46 775.76 309.06 774.48 L 309.06 774.48 L 309.06 774.48 Q 301.14 772.8 296.66 770.48 L 296.66 770.48 L 296.66 770.48 Q 292.18 768.16 290.38 765 L 290.38 765 L 290.38 765 Q 288.58 761.84 288.58 757.36 L 288.58 757.36 L 288.58 757.36 Q 288.58 752.24 291.62 748.08 L 291.62 748.08 L 291.62 748.08 Q 294.66 743.92 299.98 741.56 L 299.98 741.56 L 299.98 741.56 Q 305.3 739.2 311.94 739.2 L 311.94 739.2 L 311.94 739.2 Q 317.78 739.2 322.34 740.48 L 322.34 740.48 L 322.34 740.48 Q 326.9 741.76 330.66 744.48 L 330.66 744.48 L 330.66 744.48 Q 332.1 745.52 332.7 746.68 L 332.7 746.68 L 332.7 746.68 Q 333.3 747.84 333.3 749.52 L 333.3 749.52 L 333.3 749.52 Q 333.3 751.92 331.9 753.68 L 331.9 753.68 L 331.9 753.68 Q 330.5 755.44 328.58 755.44 L 328.58 755.44 L 328.58 755.44 Q 327.54 755.44 326.66 755.16 L 326.66 755.16 L 326.66 755.16 Q 325.78 754.88 324.18 753.92 L 324.18 753.92 L 324.18 753.92 Q 323.78 753.68 321.9 752.68 L 321.9 752.68 L 321.9 752.68 Q 320.02 751.68 317.5 751.08 L 317.5 751.08 L 317.5 751.08 Q 314.98 750.48 312.02 750.48 L 312.02 750.48 L 312.02 750.48 Q 307.94 750.48 305.46 752.04 L 305.46 752.04 L 305.46 752.04 Q 302.98 753.6 302.98 756.16 L 302.98 756.16 L 302.98 756.16 Q 302.98 757.68 303.86 758.64 L 303.86 758.64 L 303.86 758.64 Q 304.74 759.6 307.14 760.52 L 307.14 760.52 L 307.14 760.52 Q 309.54 761.44 314.26 762.4 L 314.26 762.4 L 314.26 762.4 Q 321.94 764.08 326.34 766.44 L 326.34 766.44 L 326.34 766.44 Q 330.74 768.8 332.58 771.92 L 332.58 771.92 L 332.58 771.92 Q 334.42 775.04 334.42 779.28 L 334.42 779.28 L 334.42 779.28 Q 334.42 784.56 331.46 788.6 L 331.46 788.6 L 331.46 788.6 Q 328.5 792.64 323.18 794.84 L 323.18 794.84 L 323.18 794.84 Q 317.86 797.04 310.82 797.04 L 310.82 797.04 Z  M 373.78 783.68 L 373.78 783.68 Q 375.62 783.68 376.78 785.12 L 376.78 785.12 L 376.78 785.12 Q 377.94 786.56 377.94 788.88 L 377.94 788.88 L 377.94 788.88 Q 377.94 792.08 374.82 793.76 L 374.82 793.76 L 374.82 793.76 Q 372.1 795.12 368.38 796.04 L 368.38 796.04 L 368.38 796.04 Q 364.66 796.96 361.54 796.96 L 361.54 796.96 L 361.54 796.96 Q 354.98 796.96 350.1 794.48 L 350.1 794.48 L 350.1 794.48 Q 345.22 792 342.58 787.36 L 342.58 787.36 L 342.58 787.36 Q 339.94 782.72 339.94 776.48 L 339.94 776.48 L 339.94 776.48 Q 339.94 770.56 342.46 765.88 L 342.46 765.88 L 342.46 765.88 Q 344.98 761.2 349.5 758.6 L 349.5 758.6 L 349.5 758.6 Q 354.02 756 359.7 756 L 359.7 756 L 359.7 756 Q 365.22 756 369.38 758.4 L 369.38 758.4 L 369.38 758.4 Q 373.54 760.8 375.82 765.2 L 375.82 765.2 L 375.82 765.2 Q 378.1 769.6 378.1 775.52 L 378.1 775.52 L 378.1 775.52 Q 378.1 777.36 377.26 778.36 L 377.26 778.36 L 377.26 778.36 Q 376.42 779.36 374.82 779.36 L 374.82 779.36 L 353.7 779.36 L 353.7 779.36 Q 354.26 783.2 356.18 784.88 L 356.18 784.88 L 356.18 784.88 Q 358.1 786.56 361.86 786.56 L 361.86 786.56 L 361.86 786.56 Q 363.86 786.56 365.54 786.12 L 365.54 786.12 L 365.54 786.12 Q 367.22 785.68 369.3 784.88 L 369.3 784.88 L 369.3 784.88 Q 370.5 784.4 371.66 784.04 L 371.66 784.04 L 371.66 784.04 Q 372.82 783.68 373.78 783.68 L 373.78 783.68 Z  M 360.1 765.6 L 360.1 765.6 Q 357.3 765.6 355.62 767.4 L 355.62 767.4 L 355.62 767.4 Q 353.94 769.2 353.62 772.64 L 353.62 772.64 L 366.18 772.64 L 366.18 772.64 Q 365.7 765.6 360.1 765.6 L 360.1 765.6 Z  M 411.06 756 L 411.06 756 Q 418.1 756 421.54 760.2 L 421.54 760.2 L 421.54 760.2 Q 424.98 764.4 424.98 772.96 L 424.98 772.96 L 424.98 790.24 L 424.98 790.24 Q 424.98 793.28 423.06 795.04 L 423.06 795.04 L 423.06 795.04 Q 421.14 796.8 417.86 796.8 L 417.86 796.8 L 417.86 796.8 Q 414.58 796.8 412.66 795.04 L 412.66 795.04 L 412.66 795.04 Q 410.74 793.28 410.74 790.24 L 410.74 790.24 L 410.74 773.6 L 410.74 773.6 Q 410.74 770.08 409.5 768.48 L 409.5 768.48 L 409.5 768.48 Q 408.26 766.88 405.78 766.88 L 405.78 766.88 L 405.78 766.88 Q 402.58 766.88 400.7 768.92 L 400.7 768.92 L 400.7 768.92 Q 398.82 770.96 398.82 774.4 L 398.82 774.4 L 398.82 790.24 L 398.82 790.24 Q 398.82 793.28 396.9 795.04 L 396.9 795.04 L 396.9 795.04 Q 394.98 796.8 391.7 796.8 L 391.7 796.8 L 391.7 796.8 Q 388.42 796.8 386.5 795.04 L 386.5 795.04 L 386.5 795.04 Q 384.58 793.28 384.58 790.24 L 384.58 790.24 L 384.58 762.56 L 384.58 762.56 Q 384.58 759.76 386.58 757.96 L 386.58 757.96 L 386.58 757.96 Q 388.58 756.16 391.78 756.16 L 391.78 756.16 L 391.78 756.16 Q 394.82 756.16 396.62 757.84 L 396.62 757.84 L 396.62 757.84 Q 398.42 759.52 398.42 762.24 L 398.42 762.24 L 398.42 762.24 Q 400.5 759.2 403.78 757.6 L 403.78 757.6 L 403.78 757.6 Q 407.06 756 411.06 756 L 411.06 756 Z  M 448.5 796.96 L 448.5 796.96 Q 443.14 796.96 439.46 796.16 L 439.46 796.16 L 439.46 796.16 Q 435.78 795.36 432.98 793.6 L 432.98 793.6 L 432.98 793.6 Q 431.86 793.04 431.22 791.68 L 431.22 791.68 L 431.22 791.68 Q 430.58 790.32 430.58 788.64 L 430.58 788.64 L 430.58 788.64 Q 430.58 786.48 431.74 785.08 L 431.74 785.08 L 431.74 785.08 Q 432.9 783.68 434.66 783.68 L 434.66 783.68 L 434.66 783.68 Q 435.86 783.68 436.9 783.96 L 436.9 783.96 L 436.9 783.96 Q 437.94 784.24 439.46 784.88 L 439.46 784.88 L 439.46 784.88 Q 442.02 785.76 443.98 786.24 L 443.98 786.24 L 443.98 786.24 Q 445.94 786.72 448.98 786.72 L 448.98 786.72 L 448.98 786.72 Q 451.14 786.72 452.38 786.12 L 452.38 786.12 L 452.38 786.12 Q 453.62 785.52 453.62 784.4 L 453.62 784.4 L 453.62 784.4 Q 453.62 783.52 453.02 783.04 L 453.02 783.04 L 453.02 783.04 Q 452.42 782.56 450.74 782.12 L 450.74 782.12 L 450.74 782.12 Q 449.06 781.68 445.06 780.88 L 445.06 780.88 L 445.06 780.88 Q 437.94 779.52 434.78 776.76 L 434.78 776.76 L 434.78 776.76 Q 431.62 774 431.62 768.96 L 431.62 768.96 L 431.62 768.96 Q 431.62 765.28 433.9 762.32 L 433.9 762.32 L 433.9 762.32 Q 436.18 759.36 440.18 757.68 L 440.18 757.68 L 440.18 757.68 Q 444.18 756 449.14 756 L 449.14 756 L 449.14 756 Q 452.74 756 456.14 756.88 L 456.14 756.88 L 456.14 756.88 Q 459.54 757.76 462.18 759.36 L 462.18 759.36 L 462.18 759.36 Q 464.66 760.8 464.66 764 L 464.66 764 L 464.66 764 Q 464.66 766.24 463.46 767.76 L 463.46 767.76 L 463.46 767.76 Q 462.26 769.28 460.5 769.28 L 460.5 769.28 L 460.5 769.28 Q 458.42 769.28 455.54 767.92 L 455.54 767.92 L 455.54 767.92 Q 453.62 767.04 452.14 766.6 L 452.14 766.6 L 452.14 766.6 Q 450.66 766.16 448.66 766.16 L 448.66 766.16 L 448.66 766.16 Q 446.66 766.16 445.54 766.76 L 445.54 766.76 L 445.54 766.76 Q 444.42 767.36 444.42 768.48 L 444.42 768.48 L 444.42 768.48 Q 444.42 769.76 445.98 770.48 L 445.98 770.48 L 445.98 770.48 Q 447.54 771.2 452.18 772.08 L 452.18 772.08 L 452.18 772.08 Q 459.94 773.44 463.14 776.2 L 463.14 776.2 L 463.14 776.2 Q 466.34 778.96 466.34 784.16 L 466.34 784.16 L 466.34 784.16 Q 466.34 790 461.5 793.48 L 461.5 793.48 L 461.5 793.48 Q 456.66 796.96 448.5 796.96 L 448.5 796.96 Z  M 504.18 783.68 L 504.18 783.68 Q 506.02 783.68 507.18 785.12 L 507.18 785.12 L 507.18 785.12 Q 508.34 786.56 508.34 788.88 L 508.34 788.88 L 508.34 788.88 Q 508.34 792.08 505.22 793.76 L 505.22 793.76 L 505.22 793.76 Q 502.5 795.12 498.78 796.04 L 498.78 796.04 L 498.78 796.04 Q 495.06 796.96 491.94 796.96 L 491.94 796.96 L 491.94 796.96 Q 485.38 796.96 480.5 794.48 L 480.5 794.48 L 480.5 794.48 Q 475.62 792 472.98 787.36 L 472.98 787.36 L 472.98 787.36 Q 470.34 782.72 470.34 776.48 L 470.34 776.48 L 470.34 776.48 Q 470.34 770.56 472.86 765.88 L 472.86 765.88 L 472.86 765.88 Q 475.38 761.2 479.9 758.6 L 479.9 758.6 L 479.9 758.6 Q 484.42 756 490.1 756 L 490.1 756 L 490.1 756 Q 495.62 756 499.78 758.4 L 499.78 758.4 L 499.78 758.4 Q 503.94 760.8 506.22 765.2 L 506.22 765.2 L 506.22 765.2 Q 508.5 769.6 508.5 775.52 L 508.5 775.52 L 508.5 775.52 Q 508.5 777.36 507.66 778.36 L 507.66 778.36 L 507.66 778.36 Q 506.82 779.36 505.22 779.36 L 505.22 779.36 L 484.1 779.36 L 484.1 779.36 Q 484.66 783.2 486.58 784.88 L 486.58 784.88 L 486.58 784.88 Q 488.5 786.56 492.26 786.56 L 492.26 786.56 L 492.26 786.56 Q 494.26 786.56 495.94 786.12 L 495.94 786.12 L 495.94 786.12 Q 497.62 785.68 499.7 784.88 L 499.7 784.88 L 499.7 784.88 Q 500.9 784.4 502.06 784.04 L 502.06 784.04 L 502.06 784.04 Q 503.22 783.68 504.18 783.68 L 504.18 783.68 Z  M 490.5 765.6 L 490.5 765.6 Q 487.7 765.6 486.02 767.4 L 486.02 767.4 L 486.02 767.4 Q 484.34 769.2 484.02 772.64 L 484.02 772.64 L 496.58 772.64 L 496.58 772.64 Q 496.1 765.6 490.5 765.6 L 490.5 765.6 Z " fill-rule="evenodd" fill="rgb(25,118,210)"/></g></g></svg>