<?xml version="1.0" standalone="no"?><!-- Generator: Gravit.io --><svg xmlns="http://www.w3.org/2000/svg" xmlns:xlink="http://www.w3.org/1999/xlink" style="isolation:isolate" viewBox="0 0 1024 1024" width="1024" height="1024"><defs><clipPath id="_clipPath_hoONyj1bUrcGdVn829yo3CX2NC9n54uD"><rect width="1024" height="1024"/></clipPath></defs><g clip-path="url(#_clipPath_hoONyj1bUrcGdVn829yo3CX2NC9n54uD)"><g id="App without icon"><rect x="87" y="87" width="850" height="850" transform="matrix(1,0,0,1,0,0)" fill="rgb(227,242,253)"/><path d=" M 87 87 L 937 87 L 937 937 L 87 937 L 87 87 Z  M 115.977 115.977 L 908.023 115.977 L 908.023 908.023 L 115.977 908.023 L 115.977 115.977 Z " fill-rule="evenodd" fill="rgb(25,118,210)"/><g id="Accessories"><g id="Ruler"><path d=" M 242 376.583 L 242 476.203 L 782 476.203 L 782 376.583 L 242 376.583 Z " fill-rule="evenodd" fill="rgb(139,104,69)" fill-opacity="0.8369715073529411"/><path d=" M 262 400.937 L 262 401.468 C 262 404.081 264.121 406.203 266.735 406.203 L 757.265 406.203 C 759.879 406.203 762 404.081 762 401.468 L 762 400.937 C 762 398.324 759.879 396.203 757.265 396.203 L 266.735 396.203 C 264.121 396.203 262 398.324 262 400.937 Z " fill-rule="evenodd" fill="rgb(118,89,60)" fill-opacity="0.8256261488970589"/></g><g id="Pen"><path d=" M 282.443 590.435 L 292.334 517.794 C 323.969 506.007 347.454 521.271 351.041 555.919 L 287.922 593.993 Q 284.107 596.111 282.953 595.362 Q 281.8 594.613 282.443 590.435 Z " fill="rgb(255,204,128)"/><path d=" M 417.601 324.9 L 476.308 363.025 L 351.041 555.919 C 335.268 533.471 311.794 518.263 292.334 517.794 L 417.601 324.9 Z " fill="rgb(66,165,245)"/><rect x="413.029" y="304.409" width="90" height="45" transform="matrix(0.839,0.545,-0.545,0.839,251.941,-196.721)" fill="rgb(189,189,189)"/><path d=" M 480.462 270.333 L 500.59 283.404 C 511.236 290.318 514.266 304.574 507.353 315.22 L 498.094 329.478 L 439.387 291.353 L 448.646 277.096 C 455.559 266.45 469.816 263.419 480.462 270.333 Z " fill="rgb(139,195,74)"/></g><g id="Paint Pencil"><path d=" M 733.769 598.879 Q 710.719 604.756 700.13 606.328 C 697.4 606.733 694.369 604.975 693.365 602.405 L 650.918 493.746 L 693.866 468.144 L 769.259 557.163 C 771.043 559.269 771.095 562.731 769.376 564.89 Q 761.963 574.202 746.875 590.958 C 743.92 594.239 738.048 597.788 733.769 598.879 Z " fill="rgb(121,85,72)"/><path d=" M 614.992 432.56 Q 478.575 189.014 493.177 180.309 Q 507.78 171.604 658.023 408.017 C 648.734 423.673 632.63 432.176 614.992 432.56 Z " fill="rgb(136,14,79)"/><path d=" M 614.992 432.56 C 630.453 430.07 646.584 421.574 658.023 408.017 L 693.866 468.144 C 682.859 480.924 666.839 490.486 650.918 493.746 L 614.992 432.56 Z " fill="rgb(235,235,235)"/></g></g><path d=" M 614.52 796.8 L 614.52 796.8 Q 611.48 796.8 609.44 795.16 L 609.44 795.16 L 609.44 795.16 Q 607.4 793.52 607.4 790.24 L 607.4 790.24 L 607.4 762.72 L 607.4 762.72 Q 607.4 759.44 609.44 757.8 L 609.44 757.8 L 609.44 757.8 Q 611.48 756.16 614.52 756.16 L 614.52 756.16 L 614.52 756.16 Q 617.56 756.16 619.6 757.8 L 619.6 757.8 L 619.6 757.8 Q 621.64 759.44 621.64 762.72 L 621.64 762.72 L 621.64 790.24 L 621.64 790.24 Q 621.64 793.52 619.6 795.16 L 619.6 795.16 L 619.6 795.16 Q 617.56 796.8 614.52 796.8 L 614.52 796.8 Z  M 614.52 750.56 L 614.52 750.56 Q 610.92 750.56 608.8 748.68 L 608.8 748.68 L 608.8 748.68 Q 606.68 746.8 606.68 743.68 L 606.68 743.68 L 606.68 743.68 Q 606.68 740.56 608.8 738.72 L 608.8 738.72 L 608.8 738.72 Q 610.92 736.88 614.52 736.88 L 614.52 736.88 L 614.52 736.88 Q 618.04 736.88 620.2 738.72 L 620.2 738.72 L 620.2 738.72 Q 622.36 740.56 622.36 743.68 L 622.36 743.68 L 622.36 743.68 Q 622.36 746.8 620.24 748.68 L 620.24 748.68 L 620.24 748.68 Q 618.12 750.56 614.52 750.56 L 614.52 750.56 Z  M 648.84 796.96 L 648.84 796.96 Q 639.24 796.96 633.64 791.52 L 633.64 791.52 L 633.64 791.52 Q 628.04 786.08 628.04 776.72 L 628.04 776.72 L 628.04 776.72 Q 628.04 770.56 630.76 765.84 L 630.76 765.84 L 630.76 765.84 Q 633.48 761.12 638.4 758.56 L 638.4 758.56 L 638.4 758.56 Q 643.32 756 649.64 756 L 649.64 756 L 649.64 756 Q 653 756 656.36 756.88 L 656.36 756.88 L 656.36 756.88 Q 659.72 757.76 662.28 759.36 L 662.28 759.36 L 662.28 759.36 Q 664.76 760.88 664.76 764 L 664.76 764 L 664.76 764 Q 664.76 766.48 663.6 768.04 L 663.6 768.04 L 663.6 768.04 Q 662.44 769.6 660.6 769.6 L 660.6 769.6 L 660.6 769.6 Q 659.4 769.6 658.28 769.24 L 658.28 769.24 L 658.28 769.24 Q 657.16 768.88 655.8 768.16 L 655.8 768.16 L 655.8 768.16 Q 654.2 767.44 653.08 767.08 L 653.08 767.08 L 653.08 767.08 Q 651.96 766.72 650.6 766.72 L 650.6 766.72 L 650.6 766.72 Q 642.68 766.72 642.68 776.4 L 642.68 776.4 L 642.68 776.4 Q 642.68 781.2 644.72 783.72 L 644.72 783.72 L 644.72 783.72 Q 646.76 786.24 650.6 786.24 L 650.6 786.24 L 650.6 786.24 Q 651.96 786.24 653.12 785.88 L 653.12 785.88 L 653.12 785.88 Q 654.28 785.52 655.72 784.8 L 655.72 784.8 L 655.72 784.8 Q 657.32 784.08 658.32 783.72 L 658.32 783.72 L 658.32 783.72 Q 659.32 783.36 660.52 783.36 L 660.52 783.36 L 660.52 783.36 Q 662.36 783.36 663.52 784.92 L 663.52 784.92 L 663.52 784.92 Q 664.68 786.48 664.68 788.96 L 664.68 788.96 L 664.68 788.96 Q 664.68 790.48 664.04 791.72 L 664.04 791.72 L 664.04 791.72 Q 663.4 792.96 662.28 793.6 L 662.28 793.6 L 662.28 793.6 Q 656.76 796.96 648.84 796.96 L 648.84 796.96 Z  M 689.72 796.96 L 689.72 796.96 Q 683.24 796.96 678.32 794.44 L 678.32 794.44 L 678.32 794.44 Q 673.4 791.92 670.72 787.28 L 670.72 787.28 L 670.72 787.28 Q 668.04 782.64 668.04 776.4 L 668.04 776.4 L 668.04 776.4 Q 668.04 770.16 670.72 765.56 L 670.72 765.56 L 670.72 765.56 Q 673.4 760.96 678.28 758.48 L 678.28 758.48 L 678.28 758.48 Q 683.16 756 689.72 756 L 689.72 756 L 689.72 756 Q 696.28 756 701.16 758.48 L 701.16 758.48 L 701.16 758.48 Q 706.04 760.96 708.72 765.56 L 708.72 765.56 L 708.72 765.56 Q 711.4 770.16 711.4 776.4 L 711.4 776.4 L 711.4 776.4 Q 711.4 782.64 708.72 787.28 L 708.72 787.28 L 708.72 787.28 Q 706.04 791.92 701.16 794.44 L 701.16 794.44 L 701.16 794.44 Q 696.28 796.96 689.72 796.96 L 689.72 796.96 Z  M 689.72 786.32 L 689.72 786.32 Q 697.32 786.32 697.32 776.4 L 697.32 776.4 L 697.32 776.4 Q 697.32 766.48 689.72 766.48 L 689.72 766.48 L 689.72 766.48 Q 682.12 766.48 682.12 776.4 L 682.12 776.4 L 682.12 776.4 Q 682.12 786.32 689.72 786.32 L 689.72 786.32 Z  M 744.36 756 L 744.36 756 Q 751.4 756 754.84 760.2 L 754.84 760.2 L 754.84 760.2 Q 758.28 764.4 758.28 772.96 L 758.28 772.96 L 758.28 790.24 L 758.28 790.24 Q 758.28 793.28 756.36 795.04 L 756.36 795.04 L 756.36 795.04 Q 754.44 796.8 751.16 796.8 L 751.16 796.8 L 751.16 796.8 Q 747.88 796.8 745.96 795.04 L 745.96 795.04 L 745.96 795.04 Q 744.04 793.28 744.04 790.24 L 744.04 790.24 L 744.04 773.6 L 744.04 773.6 Q 744.04 770.08 742.8 768.48 L 742.8 768.48 L 742.8 768.48 Q 741.56 766.88 739.08 766.88 L 739.08 766.88 L 739.08 766.88 Q 735.88 766.88 734 768.92 L 734 768.92 L 734 768.92 Q 732.12 770.96 732.12 774.4 L 732.12 774.4 L 732.12 790.24 L 732.12 790.24 Q 732.12 793.28 730.2 795.04 L 730.2 795.04 L 730.2 795.04 Q 728.28 796.8 725 796.8 L 725 796.8 L 725 796.8 Q 721.72 796.8 719.8 795.04 L 719.8 795.04 L 719.8 795.04 Q 717.88 793.28 717.88 790.24 L 717.88 790.24 L 717.88 762.56 L 717.88 762.56 Q 717.88 759.76 719.88 757.96 L 719.88 757.96 L 719.88 757.96 Q 721.88 756.16 725.08 756.16 L 725.08 756.16 L 725.08 756.16 Q 728.12 756.16 729.92 757.84 L 729.92 757.84 L 729.92 757.84 Q 731.72 759.52 731.72 762.24 L 731.72 762.24 L 731.72 762.24 Q 733.8 759.2 737.08 757.6 L 737.08 757.6 L 737.08 757.6 Q 740.36 756 744.36 756 L 744.36 756 Z  M 333.16 744 L 333.16 744 Q 333.96 741.76 335.76 740.56 L 335.76 740.56 L 335.76 740.56 Q 337.56 739.36 339.72 739.36 L 339.72 739.36 L 339.72 739.36 Q 342.36 739.36 344.32 741.04 L 344.32 741.04 L 344.32 741.04 Q 346.28 742.72 346.28 745.6 L 346.28 745.6 L 346.28 745.6 Q 346.28 746.88 345.64 748.8 L 345.64 748.8 L 329.56 792.32 L 329.56 792.32 Q 328.76 794.56 326.64 795.8 L 326.64 795.8 L 326.64 795.8 Q 324.52 797.04 321.96 797.04 L 321.96 797.04 L 321.96 797.04 Q 319.4 797.04 317.32 795.8 L 317.32 795.8 L 317.32 795.8 Q 315.24 794.56 314.44 792.32 L 314.44 792.32 L 304.04 762.64 L 293.16 792.32 L 293.16 792.32 Q 292.28 794.56 290.2 795.8 L 290.2 795.8 L 290.2 795.8 Q 288.12 797.04 285.64 797.04 L 285.64 797.04 L 285.64 797.04 Q 283.08 797.04 281 795.8 L 281 795.8 L 281 795.8 Q 278.92 794.56 278.12 792.32 L 278.12 792.32 L 261.96 748.8 L 261.96 748.8 Q 261.4 747.2 261.4 745.76 L 261.4 745.76 L 261.4 745.76 Q 261.4 742.8 263.52 741.08 L 263.52 741.08 L 263.52 741.08 Q 265.64 739.36 268.44 739.36 L 268.44 739.36 L 268.44 739.36 Q 270.68 739.36 272.56 740.52 L 272.56 740.52 L 272.56 740.52 Q 274.44 741.68 275.24 744 L 275.24 744 L 286.2 775.52 L 297.8 744 L 297.8 744 Q 298.6 741.76 300.4 740.56 L 300.4 740.56 L 300.4 740.56 Q 302.2 739.36 304.36 739.36 L 304.36 739.36 L 304.36 739.36 Q 306.52 739.36 308.28 740.56 L 308.28 740.56 L 308.28 740.56 Q 310.04 741.76 310.84 744.08 L 310.84 744.08 L 321.72 776.24 L 333.16 744 Z  M 359.96 796.8 L 359.96 796.8 Q 356.92 796.8 354.88 795.16 L 354.88 795.16 L 354.88 795.16 Q 352.84 793.52 352.84 790.24 L 352.84 790.24 L 352.84 762.72 L 352.84 762.72 Q 352.84 759.44 354.88 757.8 L 354.88 757.8 L 354.88 757.8 Q 356.92 756.16 359.96 756.16 L 359.96 756.16 L 359.96 756.16 Q 363 756.16 365.04 757.8 L 365.04 757.8 L 365.04 757.8 Q 367.08 759.44 367.08 762.72 L 367.08 762.72 L 367.08 790.24 L 367.08 790.24 Q 367.08 793.52 365.04 795.16 L 365.04 795.16 L 365.04 795.16 Q 363 796.8 359.96 796.8 L 359.96 796.8 Z  M 359.96 750.56 L 359.96 750.56 Q 356.36 750.56 354.24 748.68 L 354.24 748.68 L 354.24 748.68 Q 352.12 746.8 352.12 743.68 L 352.12 743.68 L 352.12 743.68 Q 352.12 740.56 354.24 738.72 L 354.24 738.72 L 354.24 738.72 Q 356.36 736.88 359.96 736.88 L 359.96 736.88 L 359.96 736.88 Q 363.48 736.88 365.64 738.72 L 365.64 738.72 L 365.64 738.72 Q 367.8 740.56 367.8 743.68 L 367.8 743.68 L 367.8 743.68 Q 367.8 746.8 365.68 748.68 L 365.68 748.68 L 365.68 748.68 Q 363.56 750.56 359.96 750.56 L 359.96 750.56 Z  M 398.6 786.64 L 398.6 786.64 Q 403.96 786.96 403.96 791.44 L 403.96 791.44 L 403.96 791.44 Q 403.96 794.24 401.8 795.6 L 401.8 795.6 L 401.8 795.6 Q 399.64 796.96 395.64 796.72 L 395.64 796.72 L 393.4 796.56 L 393.4 796.56 Q 386.2 796 382.48 792.2 L 382.48 792.2 L 382.48 792.2 Q 378.76 788.4 378.76 781.6 L 378.76 781.6 L 378.76 767.44 L 376.44 767.44 L 376.44 767.44 Q 370.04 767.44 370.04 762.16 L 370.04 762.16 L 370.04 762.16 Q 370.04 756.96 376.44 756.96 L 376.44 756.96 L 378.76 756.96 L 378.76 751.76 L 378.76 751.76 Q 378.76 748.72 380.68 746.92 L 380.68 746.92 L 380.68 746.92 Q 382.6 745.12 385.88 745.12 L 385.88 745.12 L 385.88 745.12 Q 389.16 745.12 391.08 746.92 L 391.08 746.92 L 391.08 746.92 Q 393 748.72 393 751.76 L 393 751.76 L 393 756.96 L 397.4 756.96 L 397.4 756.96 Q 403.8 756.96 403.8 762.16 L 403.8 762.16 L 403.8 762.16 Q 403.8 767.44 397.4 767.44 L 397.4 767.44 L 393 767.44 L 393 782.8 L 393 782.8 Q 393 784.32 393.92 785.36 L 393.92 785.36 L 393.92 785.36 Q 394.84 786.4 396.28 786.48 L 396.28 786.48 L 398.6 786.64 Z  M 434.52 756 L 434.52 756 Q 441.4 756 444.76 760.2 L 444.76 760.2 L 444.76 760.2 Q 448.12 764.4 448.12 772.96 L 448.12 772.96 L 448.12 790.24 L 448.12 790.24 Q 448.12 793.28 446.2 795.04 L 446.2 795.04 L 446.2 795.04 Q 444.28 796.8 441 796.8 L 441 796.8 L 441 796.8 Q 437.72 796.8 435.8 795.04 L 435.8 795.04 L 435.8 795.04 Q 433.88 793.28 433.88 790.24 L 433.88 790.24 L 433.88 772.64 L 433.88 772.64 Q 433.88 766.88 428.92 766.88 L 428.92 766.88 L 428.92 766.88 Q 425.72 766.88 423.84 768.92 L 423.84 768.92 L 423.84 768.92 Q 421.96 770.96 421.96 774.4 L 421.96 774.4 L 421.96 790.24 L 421.96 790.24 Q 421.96 793.28 420.04 795.04 L 420.04 795.04 L 420.04 795.04 Q 418.12 796.8 414.84 796.8 L 414.84 796.8 L 414.84 796.8 Q 411.56 796.8 409.64 795.04 L 409.64 795.04 L 409.64 795.04 Q 407.72 793.28 407.72 790.24 L 407.72 790.24 L 407.72 745.92 L 407.72 745.92 Q 407.72 743.12 409.72 741.32 L 409.72 741.32 L 409.72 741.32 Q 411.72 739.52 415 739.52 L 415 739.52 L 415 739.52 Q 418.12 739.52 420.04 741.2 L 420.04 741.2 L 420.04 741.2 Q 421.96 742.88 421.96 745.68 L 421.96 745.68 L 421.96 761.68 L 421.96 761.68 Q 424.12 758.88 427.32 757.44 L 427.32 757.44 L 427.32 757.44 Q 430.52 756 434.52 756 L 434.52 756 Z  M 475.96 796.96 L 475.96 796.96 Q 469.48 796.96 464.56 794.44 L 464.56 794.44 L 464.56 794.44 Q 459.64 791.92 456.96 787.28 L 456.96 787.28 L 456.96 787.28 Q 454.28 782.64 454.28 776.4 L 454.28 776.4 L 454.28 776.4 Q 454.28 770.16 456.96 765.56 L 456.96 765.56 L 456.96 765.56 Q 459.64 760.96 464.52 758.48 L 464.52 758.48 L 464.52 758.48 Q 469.4 756 475.96 756 L 475.96 756 L 475.96 756 Q 482.52 756 487.4 758.48 L 487.4 758.48 L 487.4 758.48 Q 492.28 760.96 494.96 765.56 L 494.96 765.56 L 494.96 765.56 Q 497.64 770.16 497.64 776.4 L 497.64 776.4 L 497.64 776.4 Q 497.64 782.64 494.96 787.28 L 494.96 787.28 L 494.96 787.28 Q 492.28 791.92 487.4 794.44 L 487.4 794.44 L 487.4 794.44 Q 482.52 796.96 475.96 796.96 L 475.96 796.96 Z  M 475.96 786.32 L 475.96 786.32 Q 483.56 786.32 483.56 776.4 L 483.56 776.4 L 483.56 776.4 Q 483.56 766.48 475.96 766.48 L 475.96 766.48 L 475.96 766.48 Q 468.36 766.48 468.36 776.4 L 468.36 776.4 L 468.36 776.4 Q 468.36 786.32 475.96 786.32 L 475.96 786.32 Z  M 536.68 756.16 L 536.68 756.16 Q 539.96 756.16 541.88 757.92 L 541.88 757.92 L 541.88 757.92 Q 543.8 759.68 543.8 762.72 L 543.8 762.72 L 543.8 790.4 L 543.8 790.4 Q 543.8 793.2 541.8 795 L 541.8 795 L 541.8 795 Q 539.8 796.8 536.6 796.8 L 536.6 796.8 L 536.6 796.8 Q 533.72 796.8 531.88 795.24 L 531.88 795.24 L 531.88 795.24 Q 530.04 793.68 529.96 791.04 L 529.96 791.04 L 529.96 791.04 Q 528.12 793.92 525.28 795.44 L 525.28 795.44 L 525.28 795.44 Q 522.44 796.96 518.76 796.96 L 518.76 796.96 L 518.76 796.96 Q 511.16 796.96 507.48 792.76 L 507.48 792.76 L 507.48 792.76 Q 503.8 788.56 503.8 780 L 503.8 780 L 503.8 762.72 L 503.8 762.72 Q 503.8 759.68 505.72 757.92 L 505.72 757.92 L 505.72 757.92 Q 507.64 756.16 510.92 756.16 L 510.92 756.16 L 510.92 756.16 Q 514.2 756.16 516.12 757.92 L 516.12 757.92 L 516.12 757.92 Q 518.04 759.68 518.04 762.72 L 518.04 762.72 L 518.04 780.32 L 518.04 780.32 Q 518.04 786.08 523 786.08 L 523 786.08 L 523 786.08 Q 525.88 786.08 527.72 784 L 527.72 784 L 527.72 784 Q 529.56 781.92 529.56 778.56 L 529.56 778.56 L 529.56 762.72 L 529.56 762.72 Q 529.56 759.68 531.48 757.92 L 531.48 757.92 L 531.48 757.92 Q 533.4 756.16 536.68 756.16 L 536.68 756.16 Z  M 575.4 786.64 L 575.4 786.64 Q 580.76 786.96 580.76 791.44 L 580.76 791.44 L 580.76 791.44 Q 580.76 794.24 578.6 795.6 L 578.6 795.6 L 578.6 795.6 Q 576.44 796.96 572.44 796.72 L 572.44 796.72 L 570.2 796.56 L 570.2 796.56 Q 563 796 559.28 792.2 L 559.28 792.2 L 559.28 792.2 Q 555.56 788.4 555.56 781.6 L 555.56 781.6 L 555.56 767.44 L 553.24 767.44 L 553.24 767.44 Q 546.84 767.44 546.84 762.16 L 546.84 762.16 L 546.84 762.16 Q 546.84 756.96 553.24 756.96 L 553.24 756.96 L 555.56 756.96 L 555.56 751.76 L 555.56 751.76 Q 555.56 748.72 557.48 746.92 L 557.48 746.92 L 557.48 746.92 Q 559.4 745.12 562.68 745.12 L 562.68 745.12 L 562.68 745.12 Q 565.96 745.12 567.88 746.92 L 567.88 746.92 L 567.88 746.92 Q 569.8 748.72 569.8 751.76 L 569.8 751.76 L 569.8 756.96 L 574.2 756.96 L 574.2 756.96 Q 580.6 756.96 580.6 762.16 L 580.6 762.16 L 580.6 762.16 Q 580.6 767.44 574.2 767.44 L 574.2 767.44 L 569.8 767.44 L 569.8 782.8 L 569.8 782.8 Q 569.8 784.32 570.72 785.36 L 570.72 785.36 L 570.72 785.36 Q 571.64 786.4 573.08 786.48 L 573.08 786.48 L 575.4 786.64 Z " fill-rule="evenodd" fill="rgb(25,118,210)"/></g></g></svg>