<?xml version="1.0" standalone="no"?>
<!-- Generator: Gravit.io -->
<svg xmlns="http://www.w3.org/2000/svg" xmlns:xlink="http://www.w3.org/1999/xlink" style="isolation:isolate" viewBox="0 0 1024 1024" width="1024" height="1024">
    <defs>
        <clipPath id="_clipPath_l6JIsEA8G9ePNyrCuHVgcxM8sjcmZe9X">
            <rect width="1024" height="1024" />
        </clipPath>
    </defs>
    <g clip-path="url(#_clipPath_l6JIsEA8G9ePNyrCuHVgcxM8sjcmZe9X)">
        <g id="App Store 1 – Teal">
            <rect x="87" y="87" width="850" height="850" transform="matrix(1,0,0,1,0,0)" fill="rgb(235,235,235)" />
            <mask id="_mask_4c07fPtU5QStQYLpBnLabn51c28POxe4">
                <path d=" M 512 869.5 C 709.442 869.5 869.5 709.442 869.5 512 C 869.5 314.558 709.442 154.5 512 154.5 C 314.558 154.5 154.5 314.558 154.5 512 C 154.5 709.442 314.558 869.5 512 869.5 Z " fill-rule="evenodd" fill="white" stroke="none" />
            </mask>
            <path d=" M 512 869.5 C 709.442 869.5 869.5 709.442 869.5 512 C 869.5 314.558 709.442 154.5 512 154.5 C 314.558 154.5 154.5 314.558 154.5 512 C 154.5 709.442 314.558 869.5 512 869.5 Z " fill-rule="evenodd" fill="none" mask="url(#_mask_4c07fPtU5QStQYLpBnLabn51c28POxe4)" vector-effect="non-scaling-stroke" stroke-width="70" stroke="rgb(0,96,100)" stroke-linejoin="miter" stroke-linecap="square" stroke-miterlimit="10" />
            <g id="Accessories">
                <g id="Ruler">
                    <path d=" M 242 455.39 L 242 555.01 L 782 555.01 L 782 455.39 L 242 455.39 Z " fill-rule="evenodd" fill="rgb(139,104,69)" fill-opacity="0.8369715073529411" />
                    <path d=" M 262 479.744 L 262 480.275 C 262 482.888 264.121 485.01 266.735 485.01 L 757.265 485.01 C 759.879 485.01 762 482.888 762 480.275 L 762 479.744 C 762 477.131 759.879 475.01 757.265 475.01 L 266.735 475.01 C 264.121 475.01 262 477.131 262 479.744 Z " fill-rule="evenodd" fill="rgb(118,89,60)" fill-opacity="0.8256261488970589" />
                </g>
                <g id="Pen">
                    <path d=" M 282.443 669.242 L 292.334 596.601 C 323.969 584.814 347.454 600.078 351.041 634.726 L 287.922 672.8 Q 284.107 674.918 282.953 674.169 Q 281.8 673.42 282.443 669.242 Z " fill="rgb(255,204,128)" />
                    <path d=" M 417.601 403.707 L 476.308 441.832 L 351.041 634.726 C 335.268 612.278 311.794 597.07 292.334 596.601 L 417.601 403.707 Z " fill="rgb(66,165,245)" />
                    <rect x="413.029" y="383.216" width="90" height="45" transform="matrix(0.839,0.545,-0.545,0.839,294.862,-184.007)" fill="rgb(189,189,189)" />
                    <path d=" M 480.462 349.14 L 500.59 362.211 C 511.236 369.125 514.266 383.381 507.353 394.027 L 498.094 408.285 L 439.387 370.16 L 448.646 355.903 C 455.559 345.257 469.816 342.226 480.462 349.14 Z " fill="rgb(139,195,74)" />
                </g>
                <g id="Paint Pencil">
                    <path d=" M 733.769 677.686 Q 710.719 683.563 700.13 685.135 C 697.4 685.54 694.369 683.782 693.365 681.212 L 650.918 572.553 L 693.866 546.951 L 769.259 635.97 C 771.043 638.076 771.095 641.538 769.376 643.697 Q 761.963 653.009 746.875 669.765 C 743.92 673.046 738.048 676.595 733.769 677.686 Z " fill="rgb(121,85,72)" />
                    <path d=" M 614.992 511.367 Q 478.575 267.821 493.177 259.116 Q 507.78 250.411 658.023 486.824 C 648.734 502.48 632.63 510.983 614.992 511.367 Z " fill="rgb(136,14,79)" />
                    <path d=" M 614.992 511.367 C 630.453 508.877 646.584 500.381 658.023 486.824 L 693.866 546.951 C 682.859 559.731 666.839 569.293 650.918 572.553 L 614.992 511.367 Z " fill="rgb(235,235,235)" />
                </g>
            </g>
        </g>
    </g>
</svg>