<?xml version="1.0" standalone="no"?><!-- Generator: Gravit.io --><svg xmlns="http://www.w3.org/2000/svg" xmlns:xlink="http://www.w3.org/1999/xlink" style="isolation:isolate" viewBox="0 0 1024 1024" width="1024" height="1024"><defs><clipPath id="_clipPath_diidtzwRtuHARobvpYoqs7jZnhhqwACi"><rect width="1024" height="1024"/></clipPath></defs><g clip-path="url(#_clipPath_diidtzwRtuHARobvpYoqs7jZnhhqwACi)"><g id="App without icon"><rect x="87" y="87" width="850" height="850" transform="matrix(1,0,0,1,0,0)" fill="rgb(227,242,253)"/><path d=" M 87 87 L 937 87 L 937 937 L 87 937 L 87 87 Z  M 115.977 115.977 L 908.023 115.977 L 908.023 908.023 L 115.977 908.023 L 115.977 115.977 Z " fill-rule="evenodd" fill="rgb(25,118,210)"/><g id="Accessories"><g id="Ruler"><path d=" M 242 376.583 L 242 476.203 L 782 476.203 L 782 376.583 L 242 376.583 Z " fill-rule="evenodd" fill="rgb(139,104,69)" fill-opacity="0.8369715073529411"/><path d=" M 262 400.937 L 262 401.468 C 262 404.081 264.121 406.203 266.735 406.203 L 757.265 406.203 C 759.879 406.203 762 404.081 762 401.468 L 762 400.937 C 762 398.324 759.879 396.203 757.265 396.203 L 266.735 396.203 C 264.121 396.203 262 398.324 262 400.937 Z " fill-rule="evenodd" fill="rgb(118,89,60)" fill-opacity="0.8256261488970589"/></g><g id="Pen"><path d=" M 282.443 590.435 L 292.334 517.794 C 323.969 506.007 347.454 521.271 351.041 555.919 L 287.922 593.993 Q 284.107 596.111 282.953 595.362 Q 281.8 594.613 282.443 590.435 Z " fill="rgb(255,204,128)"/><path d=" M 417.601 324.9 L 476.308 363.025 L 351.041 555.919 C 335.268 533.471 311.794 518.263 292.334 517.794 L 417.601 324.9 Z " fill="rgb(66,165,245)"/><rect x="413.029" y="304.409" width="90" height="45" transform="matrix(0.839,0.545,-0.545,0.839,251.941,-196.721)" fill="rgb(189,189,189)"/><path d=" M 480.462 270.333 L 500.59 283.404 C 511.236 290.318 514.266 304.574 507.353 315.22 L 498.094 329.478 L 439.387 291.353 L 448.646 277.096 C 455.559 266.45 469.816 263.419 480.462 270.333 Z " fill="rgb(139,195,74)"/></g><g id="Paint Pencil"><path d=" M 733.769 598.879 Q 710.719 604.756 700.13 606.328 C 697.4 606.733 694.369 604.975 693.365 602.405 L 650.918 493.746 L 693.866 468.144 L 769.259 557.163 C 771.043 559.269 771.095 562.731 769.376 564.89 Q 761.963 574.202 746.875 590.958 C 743.92 594.239 738.048 597.788 733.769 598.879 Z " fill="rgb(121,85,72)"/><path d=" M 614.992 432.56 Q 478.575 189.014 493.177 180.309 Q 507.78 171.604 658.023 408.017 C 648.734 423.673 632.63 432.176 614.992 432.56 Z " fill="rgb(136,14,79)"/><path d=" M 614.992 432.56 C 630.453 430.07 646.584 421.574 658.023 408.017 L 693.866 468.144 C 682.859 480.924 666.839 490.486 650.918 493.746 L 614.992 432.56 Z " fill="rgb(235,235,235)"/></g></g><path d=" M 516.34 796.8 L 516.34 796.8 Q 513.3 796.8 511.26 795.16 L 511.26 795.16 L 511.26 795.16 Q 509.22 793.52 509.22 790.24 L 509.22 790.24 L 509.22 762.72 L 509.22 762.72 Q 509.22 759.44 511.26 757.8 L 511.26 757.8 L 511.26 757.8 Q 513.3 756.16 516.34 756.16 L 516.34 756.16 L 516.34 756.16 Q 519.38 756.16 521.42 757.8 L 521.42 757.8 L 521.42 757.8 Q 523.46 759.44 523.46 762.72 L 523.46 762.72 L 523.46 790.24 L 523.46 790.24 Q 523.46 793.52 521.42 795.16 L 521.42 795.16 L 521.42 795.16 Q 519.38 796.8 516.34 796.8 L 516.34 796.8 Z  M 519.06 751.44 L 519.06 751.44 Q 517.94 752.24 516.66 752.24 L 516.66 752.24 L 516.66 752.24 Q 515.14 752.24 514.1 751.2 L 514.1 751.2 L 514.1 751.2 Q 513.06 750.16 513.06 748.8 L 513.06 748.8 L 513.06 748.8 Q 513.06 747.52 513.94 746.4 L 513.94 746.4 L 519.86 738.24 L 519.86 738.24 Q 520.98 736.72 522.38 735.96 L 522.38 735.96 L 522.38 735.96 Q 523.78 735.2 525.22 735.2 L 525.22 735.2 L 525.22 735.2 Q 527.54 735.2 529.3 736.84 L 529.3 736.84 L 529.3 736.84 Q 531.06 738.48 531.06 740.72 L 531.06 740.72 L 531.06 740.72 Q 531.06 743.52 528.1 745.52 L 528.1 745.52 L 519.06 751.44 Z  M 550.66 796.96 L 550.66 796.96 Q 541.06 796.96 535.46 791.52 L 535.46 791.52 L 535.46 791.52 Q 529.86 786.08 529.86 776.72 L 529.86 776.72 L 529.86 776.72 Q 529.86 770.56 532.58 765.84 L 532.58 765.84 L 532.58 765.84 Q 535.3 761.12 540.22 758.56 L 540.22 758.56 L 540.22 758.56 Q 545.14 756 551.46 756 L 551.46 756 L 551.46 756 Q 554.82 756 558.18 756.88 L 558.18 756.88 L 558.18 756.88 Q 561.54 757.76 564.1 759.36 L 564.1 759.36 L 564.1 759.36 Q 566.58 760.88 566.58 764 L 566.58 764 L 566.58 764 Q 566.58 766.48 565.42 768.04 L 565.42 768.04 L 565.42 768.04 Q 564.26 769.6 562.42 769.6 L 562.42 769.6 L 562.42 769.6 Q 561.22 769.6 560.1 769.24 L 560.1 769.24 L 560.1 769.24 Q 558.98 768.88 557.62 768.16 L 557.62 768.16 L 557.62 768.16 Q 556.02 767.44 554.9 767.08 L 554.9 767.08 L 554.9 767.08 Q 553.78 766.72 552.42 766.72 L 552.42 766.72 L 552.42 766.72 Q 544.5 766.72 544.5 776.4 L 544.5 776.4 L 544.5 776.4 Q 544.5 781.2 546.54 783.72 L 546.54 783.72 L 546.54 783.72 Q 548.58 786.24 552.42 786.24 L 552.42 786.24 L 552.42 786.24 Q 553.78 786.24 554.94 785.88 L 554.94 785.88 L 554.94 785.88 Q 556.1 785.52 557.54 784.8 L 557.54 784.8 L 557.54 784.8 Q 559.14 784.08 560.14 783.72 L 560.14 783.72 L 560.14 783.72 Q 561.14 783.36 562.34 783.36 L 562.34 783.36 L 562.34 783.36 Q 564.18 783.36 565.34 784.92 L 565.34 784.92 L 565.34 784.92 Q 566.5 786.48 566.5 788.96 L 566.5 788.96 L 566.5 788.96 Q 566.5 790.48 565.86 791.72 L 565.86 791.72 L 565.86 791.72 Q 565.22 792.96 564.1 793.6 L 564.1 793.6 L 564.1 793.6 Q 558.58 796.96 550.66 796.96 L 550.66 796.96 Z  M 591.54 796.96 L 591.54 796.96 Q 585.06 796.96 580.14 794.44 L 580.14 794.44 L 580.14 794.44 Q 575.22 791.92 572.54 787.28 L 572.54 787.28 L 572.54 787.28 Q 569.86 782.64 569.86 776.4 L 569.86 776.4 L 569.86 776.4 Q 569.86 770.16 572.54 765.56 L 572.54 765.56 L 572.54 765.56 Q 575.22 760.96 580.1 758.48 L 580.1 758.48 L 580.1 758.48 Q 584.98 756 591.54 756 L 591.54 756 L 591.54 756 Q 598.1 756 602.98 758.48 L 602.98 758.48 L 602.98 758.48 Q 607.86 760.96 610.54 765.56 L 610.54 765.56 L 610.54 765.56 Q 613.22 770.16 613.22 776.4 L 613.22 776.4 L 613.22 776.4 Q 613.22 782.64 610.54 787.28 L 610.54 787.28 L 610.54 787.28 Q 607.86 791.92 602.98 794.44 L 602.98 794.44 L 602.98 794.44 Q 598.1 796.96 591.54 796.96 L 591.54 796.96 Z  M 591.54 786.32 L 591.54 786.32 Q 599.14 786.32 599.14 776.4 L 599.14 776.4 L 599.14 776.4 Q 599.14 766.48 591.54 766.48 L 591.54 766.48 L 591.54 766.48 Q 583.94 766.48 583.94 776.4 L 583.94 776.4 L 583.94 776.4 Q 583.94 786.32 591.54 786.32 L 591.54 786.32 Z  M 646.18 756 L 646.18 756 Q 653.22 756 656.66 760.2 L 656.66 760.2 L 656.66 760.2 Q 660.1 764.4 660.1 772.96 L 660.1 772.96 L 660.1 790.24 L 660.1 790.24 Q 660.1 793.28 658.18 795.04 L 658.18 795.04 L 658.18 795.04 Q 656.26 796.8 652.98 796.8 L 652.98 796.8 L 652.98 796.8 Q 649.7 796.8 647.78 795.04 L 647.78 795.04 L 647.78 795.04 Q 645.86 793.28 645.86 790.24 L 645.86 790.24 L 645.86 773.6 L 645.86 773.6 Q 645.86 770.08 644.62 768.48 L 644.62 768.48 L 644.62 768.48 Q 643.38 766.88 640.9 766.88 L 640.9 766.88 L 640.9 766.88 Q 637.7 766.88 635.82 768.92 L 635.82 768.92 L 635.82 768.92 Q 633.94 770.96 633.94 774.4 L 633.94 774.4 L 633.94 790.24 L 633.94 790.24 Q 633.94 793.28 632.02 795.04 L 632.02 795.04 L 632.02 795.04 Q 630.1 796.8 626.82 796.8 L 626.82 796.8 L 626.82 796.8 Q 623.54 796.8 621.62 795.04 L 621.62 795.04 L 621.62 795.04 Q 619.7 793.28 619.7 790.24 L 619.7 790.24 L 619.7 762.56 L 619.7 762.56 Q 619.7 759.76 621.7 757.96 L 621.7 757.96 L 621.7 757.96 Q 623.7 756.16 626.9 756.16 L 626.9 756.16 L 626.9 756.16 Q 629.94 756.16 631.74 757.84 L 631.74 757.84 L 631.74 757.84 Q 633.54 759.52 633.54 762.24 L 633.54 762.24 L 633.54 762.24 Q 635.62 759.2 638.9 757.6 L 638.9 757.6 L 638.9 757.6 Q 642.18 756 646.18 756 L 646.18 756 Z  M 700.1 783.68 L 700.1 783.68 Q 701.94 783.68 703.1 785.12 L 703.1 785.12 L 703.1 785.12 Q 704.26 786.56 704.26 788.88 L 704.26 788.88 L 704.26 788.88 Q 704.26 792.08 701.14 793.76 L 701.14 793.76 L 701.14 793.76 Q 698.42 795.12 694.7 796.04 L 694.7 796.04 L 694.7 796.04 Q 690.98 796.96 687.86 796.96 L 687.86 796.96 L 687.86 796.96 Q 681.3 796.96 676.42 794.48 L 676.42 794.48 L 676.42 794.48 Q 671.54 792 668.9 787.36 L 668.9 787.36 L 668.9 787.36 Q 666.26 782.72 666.26 776.48 L 666.26 776.48 L 666.26 776.48 Q 666.26 770.56 668.78 765.88 L 668.78 765.88 L 668.78 765.88 Q 671.3 761.2 675.82 758.6 L 675.82 758.6 L 675.82 758.6 Q 680.34 756 686.02 756 L 686.02 756 L 686.02 756 Q 691.54 756 695.7 758.4 L 695.7 758.4 L 695.7 758.4 Q 699.86 760.8 702.14 765.2 L 702.14 765.2 L 702.14 765.2 Q 704.42 769.6 704.42 775.52 L 704.42 775.52 L 704.42 775.52 Q 704.42 777.36 703.58 778.36 L 703.58 778.36 L 703.58 778.36 Q 702.74 779.36 701.14 779.36 L 701.14 779.36 L 680.02 779.36 L 680.02 779.36 Q 680.58 783.2 682.5 784.88 L 682.5 784.88 L 682.5 784.88 Q 684.42 786.56 688.18 786.56 L 688.18 786.56 L 688.18 786.56 Q 690.18 786.56 691.86 786.12 L 691.86 786.12 L 691.86 786.12 Q 693.54 785.68 695.62 784.88 L 695.62 784.88 L 695.62 784.88 Q 696.82 784.4 697.98 784.04 L 697.98 784.04 L 697.98 784.04 Q 699.14 783.68 700.1 783.68 L 700.1 783.68 Z  M 686.42 765.6 L 686.42 765.6 Q 683.62 765.6 681.94 767.4 L 681.94 767.4 L 681.94 767.4 Q 680.26 769.2 679.94 772.64 L 679.94 772.64 L 692.5 772.64 L 692.5 772.64 Q 692.02 765.6 686.42 765.6 L 686.42 765.6 Z  M 340.82 797.04 L 340.82 797.04 Q 334.42 797.04 328.94 795.64 L 328.94 795.64 L 328.94 795.64 Q 323.46 794.24 319.94 791.76 L 319.94 791.76 L 319.94 791.76 Q 318.58 790.72 317.98 789.6 L 317.98 789.6 L 317.98 789.6 Q 317.38 788.48 317.38 786.72 L 317.38 786.72 L 317.38 786.72 Q 317.38 784.32 318.82 782.56 L 318.82 782.56 L 318.82 782.56 Q 320.26 780.8 322.18 780.8 L 322.18 780.8 L 322.18 780.8 Q 323.22 780.8 324.18 781.12 L 324.18 781.12 L 324.18 781.12 Q 325.14 781.44 326.58 782.32 L 326.58 782.32 L 326.58 782.32 Q 329.86 784.16 333.1 784.96 L 333.1 784.96 L 333.1 784.96 Q 336.34 785.76 340.42 785.76 L 340.42 785.76 L 340.42 785.76 Q 345.14 785.76 347.58 784.36 L 347.58 784.36 L 347.58 784.36 Q 350.02 782.96 350.02 780.24 L 350.02 780.24 L 350.02 780.24 Q 350.02 778.4 347.74 777.08 L 347.74 777.08 L 347.74 777.08 Q 345.46 775.76 339.06 774.48 L 339.06 774.48 L 339.06 774.48 Q 331.14 772.8 326.66 770.48 L 326.66 770.48 L 326.66 770.48 Q 322.18 768.16 320.38 765 L 320.38 765 L 320.38 765 Q 318.58 761.84 318.58 757.36 L 318.58 757.36 L 318.58 757.36 Q 318.58 752.24 321.62 748.08 L 321.62 748.08 L 321.62 748.08 Q 324.66 743.92 329.98 741.56 L 329.98 741.56 L 329.98 741.56 Q 335.3 739.2 341.94 739.2 L 341.94 739.2 L 341.94 739.2 Q 347.78 739.2 352.34 740.48 L 352.34 740.48 L 352.34 740.48 Q 356.9 741.76 360.66 744.48 L 360.66 744.48 L 360.66 744.48 Q 362.1 745.52 362.7 746.68 L 362.7 746.68 L 362.7 746.68 Q 363.3 747.84 363.3 749.52 L 363.3 749.52 L 363.3 749.52 Q 363.3 751.92 361.9 753.68 L 361.9 753.68 L 361.9 753.68 Q 360.5 755.44 358.58 755.44 L 358.58 755.44 L 358.58 755.44 Q 357.54 755.44 356.66 755.16 L 356.66 755.16 L 356.66 755.16 Q 355.78 754.88 354.18 753.92 L 354.18 753.92 L 354.18 753.92 Q 353.78 753.68 351.9 752.68 L 351.9 752.68 L 351.9 752.68 Q 350.02 751.68 347.5 751.08 L 347.5 751.08 L 347.5 751.08 Q 344.98 750.48 342.02 750.48 L 342.02 750.48 L 342.02 750.48 Q 337.94 750.48 335.46 752.04 L 335.46 752.04 L 335.46 752.04 Q 332.98 753.6 332.98 756.16 L 332.98 756.16 L 332.98 756.16 Q 332.98 757.68 333.86 758.64 L 333.86 758.64 L 333.86 758.64 Q 334.74 759.6 337.14 760.52 L 337.14 760.52 L 337.14 760.52 Q 339.54 761.44 344.26 762.4 L 344.26 762.4 L 344.26 762.4 Q 351.94 764.08 356.34 766.44 L 356.34 766.44 L 356.34 766.44 Q 360.74 768.8 362.58 771.92 L 362.58 771.92 L 362.58 771.92 Q 364.42 775.04 364.42 779.28 L 364.42 779.28 L 364.42 779.28 Q 364.42 784.56 361.46 788.6 L 361.46 788.6 L 361.46 788.6 Q 358.5 792.64 353.18 794.84 L 353.18 794.84 L 353.18 794.84 Q 347.86 797.04 340.82 797.04 L 340.82 797.04 Z  M 403.78 783.68 L 403.78 783.68 Q 405.62 783.68 406.78 785.12 L 406.78 785.12 L 406.78 785.12 Q 407.94 786.56 407.94 788.88 L 407.94 788.88 L 407.94 788.88 Q 407.94 792.08 404.82 793.76 L 404.82 793.76 L 404.82 793.76 Q 402.1 795.12 398.38 796.04 L 398.38 796.04 L 398.38 796.04 Q 394.66 796.96 391.54 796.96 L 391.54 796.96 L 391.54 796.96 Q 384.98 796.96 380.1 794.48 L 380.1 794.48 L 380.1 794.48 Q 375.22 792 372.58 787.36 L 372.58 787.36 L 372.58 787.36 Q 369.94 782.72 369.94 776.48 L 369.94 776.48 L 369.94 776.48 Q 369.94 770.56 372.46 765.88 L 372.46 765.88 L 372.46 765.88 Q 374.98 761.2 379.5 758.6 L 379.5 758.6 L 379.5 758.6 Q 384.02 756 389.7 756 L 389.7 756 L 389.7 756 Q 395.22 756 399.38 758.4 L 399.38 758.4 L 399.38 758.4 Q 403.54 760.8 405.82 765.2 L 405.82 765.2 L 405.82 765.2 Q 408.1 769.6 408.1 775.52 L 408.1 775.52 L 408.1 775.52 Q 408.1 777.36 407.26 778.36 L 407.26 778.36 L 407.26 778.36 Q 406.42 779.36 404.82 779.36 L 404.82 779.36 L 383.7 779.36 L 383.7 779.36 Q 384.26 783.2 386.18 784.88 L 386.18 784.88 L 386.18 784.88 Q 388.1 786.56 391.86 786.56 L 391.86 786.56 L 391.86 786.56 Q 393.86 786.56 395.54 786.12 L 395.54 786.12 L 395.54 786.12 Q 397.22 785.68 399.3 784.88 L 399.3 784.88 L 399.3 784.88 Q 400.5 784.4 401.66 784.04 L 401.66 784.04 L 401.66 784.04 Q 402.82 783.68 403.78 783.68 L 403.78 783.68 Z  M 390.1 765.6 L 390.1 765.6 Q 387.3 765.6 385.62 767.4 L 385.62 767.4 L 385.62 767.4 Q 383.94 769.2 383.62 772.64 L 383.62 772.64 L 396.18 772.64 L 396.18 772.64 Q 395.7 765.6 390.1 765.6 L 390.1 765.6 Z  M 464.82 756 L 464.82 756 Q 471.3 756 474.82 759.88 L 474.82 759.88 L 474.82 759.88 Q 478.34 763.76 478.34 772.96 L 478.34 772.96 L 478.34 790.24 L 478.34 790.24 Q 478.34 793.52 476.3 795.16 L 476.3 795.16 L 476.3 795.16 Q 474.26 796.8 471.22 796.8 L 471.22 796.8 L 471.22 796.8 Q 468.18 796.8 466.14 795.16 L 466.14 795.16 L 466.14 795.16 Q 464.1 793.52 464.1 790.24 L 464.1 790.24 L 464.1 772.64 L 464.1 772.64 Q 464.1 769.44 462.98 768.16 L 462.98 768.16 L 462.98 768.16 Q 461.86 766.88 459.7 766.88 L 459.7 766.88 L 459.7 766.88 Q 456.9 766.88 455.22 768.88 L 455.22 768.88 L 455.22 768.88 Q 453.54 770.88 453.54 774.4 L 453.54 774.4 L 453.54 790.24 L 453.54 790.24 Q 453.54 793.52 451.54 795.16 L 451.54 795.16 L 451.54 795.16 Q 449.54 796.8 446.42 796.8 L 446.42 796.8 L 446.42 796.8 Q 443.38 796.8 441.34 795.16 L 441.34 795.16 L 441.34 795.16 Q 439.3 793.52 439.3 790.24 L 439.3 790.24 L 439.3 772.64 L 439.3 772.64 Q 439.3 769.44 438.18 768.16 L 438.18 768.16 L 438.18 768.16 Q 437.06 766.88 434.9 766.88 L 434.9 766.88 L 434.9 766.88 Q 432.1 766.88 430.46 768.88 L 430.46 768.88 L 430.46 768.88 Q 428.82 770.88 428.82 774.4 L 428.82 774.4 L 428.82 790.24 L 428.82 790.24 Q 428.82 793.52 426.78 795.16 L 426.78 795.16 L 426.78 795.16 Q 424.74 796.8 421.7 796.8 L 421.7 796.8 L 421.7 796.8 Q 418.66 796.8 416.62 795.16 L 416.62 795.16 L 416.62 795.16 Q 414.58 793.52 414.58 790.24 L 414.58 790.24 L 414.58 762.56 L 414.58 762.56 Q 414.58 759.44 416.7 757.8 L 416.7 757.8 L 416.7 757.8 Q 418.82 756.16 421.78 756.16 L 421.78 756.16 L 421.78 756.16 Q 424.58 756.16 426.46 757.64 L 426.46 757.64 L 426.46 757.64 Q 428.34 759.12 428.42 761.92 L 428.42 761.92 L 428.42 761.92 Q 432.34 756 440.42 756 L 440.42 756 L 440.42 756 Q 448.98 756 451.86 762.96 L 451.86 762.96 L 451.86 762.96 Q 453.86 759.76 457.22 757.88 L 457.22 757.88 L 457.22 757.88 Q 460.58 756 464.82 756 L 464.82 756 Z " fill-rule="evenodd" fill="rgb(25,118,210)"/></g></g></svg>