<?xml version="1.0" standalone="no"?>
<!-- Generator: Gravit.io -->
<svg xmlns="http://www.w3.org/2000/svg" xmlns:xlink="http://www.w3.org/1999/xlink" style="isolation:isolate" viewBox="0 0 1024 1024" width="1024" height="1024">
    <defs>
        <clipPath id="_clipPath_rNEc1IUX2Z9MMS3gSZVNuSnkMwoNCekx">
            <rect width="1024" height="1024" />
        </clipPath>
    </defs>
    <g clip-path="url(#_clipPath_rNEc1IUX2Z9MMS3gSZVNuSnkMwoNCekx)">
        <rect x="87" y="87" width="850" height="850" transform="matrix(1,0,0,1,0,0)" fill="rgb(238,238,238)" />
        <defs>
            <mask id="_mask_ZVOFQowWNUftuQtjpUpHBqXAKHiFhWcQ">
                <path d="M 1148 425 L 1660 425 L 1660 937 L 1148 937 L 1148 425 Z" style="stroke:black;fill:white;stroke-miterlimit:10;" />
            </mask>
            <mask id="_mask_stj2k7QkGIsh6KlWEnsD9U85cm44mcjK">
                <path d="M 1148 425 L 1660 425 L 1660 937 L 1148 937 L 1148 425 Z" style="stroke:black;fill:white;stroke-miterlimit:10;" />
            </mask>
        </defs>
        <g mask="url(#_mask_stj2k7QkGIsh6KlWEnsD9U85cm44mcjK)">
            <g mask="url(#_mask_ZVOFQowWNUftuQtjpUpHBqXAKHiFhWcQ)" /></g>
        <g mask="url(#_mask_ZVOFQowWNUftuQtjpUpHBqXAKHiFhWcQ)">
        </g>
        <g id="trash icon">
            <g id="things">
                <g id="paper">
                    <path d=" M 331.577 292.605 L 352.204 170.716 L 507.501 214.721 L 474.593 305.481 L 331.577 292.605 Z " fill="rgb(255,255,255)" />
                    <path d=" M 336.485 290.774 L 355.639 177.592 L 499.842 218.454 L 469.285 302.731 L 336.485 290.774 Z " fill="rgb(238,238,238)" />
                    <path d=" M 309.575 343.985 L 297.198 286.229 L 506.221 250.475 L 474.593 356.362 L 309.575 343.985 Z " fill="rgb(255,255,255)" />
                    <path d=" M 316.7 345.11 L 305.449 292.605 L 495.47 260.101 L 466.717 356.362 L 316.7 345.11 Z " fill="rgb(238,238,238)" />
                    <path d=" M 466.717 349.486 L 500.72 180.342 C 656.937 204.015 747.711 232.448 773 265.602 L 750.998 343.985 L 466.717 349.486 Z " fill="rgb(255,255,255)" />
                    <path d=" M 475.432 348.798 L 507.501 189.281 C 654.827 211.606 740.435 238.422 764.285 269.688 L 743.534 343.611 L 475.432 348.798 Z " fill="rgb(238,238,238)" />
                </g>
                <g id="widget">
                    <path d="M 563.657 173.184 L 723.788 215.043 C 745.685 220.767 758.815 243.192 753.091 265.089 L 711.233 425.219 C 705.509 447.116 683.084 460.247 661.187 454.523 L 501.056 412.664 C 479.159 406.94 466.029 384.515 471.753 362.618 L 513.611 202.488 C 519.335 180.59 541.76 167.46 563.657 173.184 Z" style="stroke:none;fill:#212121;stroke-miterlimit:10;" />
                    <g id="icons">
                        <path d=" M 570.601 249.428 L 570.408 249.378 C 567.858 253.128 564.654 254.492 560.786 253.481 C 557.883 252.723 555.832 251.034 554.622 248.402 C 553.406 245.777 553.301 242.546 554.302 238.719 C 555.595 233.769 557.879 230.061 561.155 227.593 C 564.422 225.134 567.793 224.358 571.254 225.263 C 574.39 226.082 576.025 227.859 576.163 230.602 L 576.292 230.636 L 577.443 227.504 L 584.535 229.358 C 581.182 238.33 579.127 244.224 578.385 247.063 C 577.593 250.092 577.998 251.814 579.597 252.232 C 581.285 252.673 582.968 251.882 584.661 249.882 C 586.349 247.872 587.684 245.018 588.649 241.325 C 589.972 236.263 589.491 231.705 587.202 227.645 C 584.915 223.597 580.971 220.834 575.358 219.367 C 569.347 217.795 563.784 218.646 558.675 221.922 C 553.565 225.2 550.198 229.94 548.574 236.152 C 547.002 242.166 547.526 247.358 550.137 251.741 C 552.759 256.124 557.158 259.128 563.362 260.75 C 568.096 261.987 572.664 262.191 577.085 261.354 L 575.465 267.552 C 571.455 268.188 566.626 267.77 560.973 266.292 C 553.209 264.262 547.499 260.327 543.833 254.482 C 540.163 248.628 539.339 241.844 541.358 234.121 C 543.417 226.245 547.744 220.313 554.336 216.303 C 560.926 212.299 568.312 211.356 576.493 213.495 C 584.056 215.472 589.637 219.152 593.225 224.538 C 596.815 229.93 597.712 236.032 595.931 242.846 C 594.466 248.45 591.859 252.568 588.119 255.214 C 584.374 257.848 580.388 258.616 576.167 257.513 C 574.088 256.969 572.543 255.951 571.54 254.467 C 570.537 252.976 570.224 251.295 570.6 249.43 L 570.601 249.428 Z  M 570.884 231.197 C 568.995 230.703 567.163 231.412 565.399 233.316 C 563.626 235.228 562.366 237.641 561.604 240.557 C 561.06 242.637 561.045 244.358 561.549 245.728 C 562.054 247.1 562.941 247.946 564.229 248.283 C 566.204 248.799 568.048 248.12 569.757 246.224 C 571.453 244.337 572.785 241.567 573.74 237.913 C 574.194 236.177 574.156 234.716 573.627 233.51 C 573.102 232.315 572.186 231.537 570.882 231.196 L 570.884 231.197 Z " fill="rgb(245,245,245)" />
                        <path d=" M 558.787 346.027 C 557.933 345.804 557.052 346.32 556.829 347.173 L 553.583 359.591 C 551.344 368.154 542.55 373.303 533.987 371.065 C 525.424 368.826 520.275 360.032 522.513 351.469 L 525.759 339.052 C 525.982 338.198 525.466 337.317 524.613 337.094 C 523.759 336.871 522.878 337.386 522.655 338.24 L 519.409 350.658 C 516.859 360.411 522.291 370.398 531.644 373.686 L 530.004 379.959 L 524.455 378.509 C 523.601 378.286 522.72 378.801 522.497 379.655 C 522.274 380.509 522.79 381.39 523.643 381.613 L 537.846 385.326 C 538.699 385.549 539.581 385.033 539.804 384.179 C 540.027 383.326 539.511 382.444 538.657 382.221 L 533.108 380.771 L 534.748 374.497 C 544.5 376.204 554.141 370.142 556.687 360.402 L 559.933 347.985 C 560.156 347.131 559.64 346.25 558.787 346.027 L 558.787 346.027 Z  M 537.114 333.729 C 537.971 333.953 538.485 334.829 538.26 335.687 C 538.036 336.544 537.16 337.057 536.302 336.833 C 535.445 336.609 534.932 335.732 535.156 334.875 C 535.38 334.018 536.257 333.505 537.114 333.729 Z  M 549.544 336.978 C 550.402 337.202 550.915 338.079 550.691 338.936 C 550.467 339.793 549.59 340.306 548.733 340.082 C 547.876 339.858 547.362 338.982 547.586 338.124 C 547.811 337.267 548.687 336.754 549.544 336.978 Z  M 547.239 333.059 C 548.096 333.283 548.609 334.159 548.385 335.017 C 548.161 335.874 547.284 336.387 546.427 336.163 C 545.57 335.939 545.057 335.062 545.281 334.205 C 545.505 333.348 546.381 332.835 547.239 333.059 Z  M 541.03 331.436 C 541.887 331.66 542.4 332.536 542.176 333.394 C 541.952 334.251 541.076 334.764 540.218 334.54 C 539.361 334.316 538.848 333.439 539.072 332.582 C 539.296 331.725 540.173 331.212 541.03 331.436 Z  M 548.862 326.85 C 549.719 327.074 550.232 327.951 550.008 328.808 C 549.784 329.665 548.907 330.178 548.05 329.954 C 547.193 329.73 546.68 328.854 546.904 327.996 C 547.128 327.139 548.004 326.626 548.862 326.85 Z  M 542.653 325.227 C 543.51 325.451 544.023 326.328 543.799 327.185 C 543.575 328.042 542.699 328.555 541.841 328.331 C 540.984 328.107 540.471 327.231 540.695 326.373 C 540.919 325.516 541.796 325.003 542.653 325.227 Z  M 543.323 335.352 C 544.18 335.576 544.693 336.452 544.469 337.31 C 544.245 338.167 543.368 338.68 542.511 338.456 C 541.654 338.232 541.141 337.355 541.365 336.498 C 541.589 335.641 542.465 335.128 543.323 335.352 Z  M 538.737 327.52 C 539.594 327.744 540.107 328.621 539.883 329.478 C 539.659 330.335 538.783 330.848 537.925 330.624 C 537.068 330.4 536.555 329.524 536.779 328.666 C 537.003 327.809 537.88 327.296 538.737 327.52 Z  M 551.167 330.769 C 552.025 330.993 552.538 331.87 552.314 332.727 C 552.09 333.584 551.213 334.098 550.356 333.874 C 549.499 333.65 548.985 332.773 549.209 331.916 C 549.434 331.058 550.31 330.545 551.167 330.769 Z  M 544.946 329.143 C 545.803 329.367 546.316 330.244 546.092 331.101 C 545.868 331.958 544.991 332.471 544.134 332.247 C 543.277 332.023 542.764 331.147 542.988 330.289 C 543.212 329.432 544.088 328.919 544.946 329.143 Z  M 556.97 333.944 C 558.762 327.089 554.641 320.07 547.799 318.281 C 540.956 316.492 533.924 320.61 532.135 327.452 L 525.643 352.287 C 523.851 359.143 527.959 366.159 534.815 367.951 C 541.67 369.743 548.686 365.635 550.478 358.779 L 556.97 333.944 L 556.97 333.944 Z  M 551.026 343.998 L 532.387 339.126 L 535.227 328.261 C 536.569 323.125 541.839 320.04 546.974 321.382 C 552.11 322.724 555.195 327.994 553.853 333.13 L 551.013 343.995 L 551.026 343.998 L 551.026 343.998 Z " fill="rgb(245,245,245)" />
                        <path d=" M 703.817 251.103 C 703.825 251.072 703.823 251.037 703.821 251.003 C 703.826 250.982 703.821 250.958 703.813 250.945 C 703.811 250.91 703.817 250.889 703.814 250.855 C 703.809 250.831 703.804 250.807 703.807 250.796 C 703.802 250.773 703.8 250.738 703.795 250.714 C 703.79 250.69 703.782 250.677 703.777 250.653 C 703.772 250.629 703.767 250.605 703.754 250.568 C 703.749 250.544 703.741 250.531 703.736 250.507 C 703.731 250.483 703.715 250.457 703.7 250.43 C 703.692 250.417 703.687 250.393 703.669 250.377 L 703.622 250.297 C 703.614 250.284 703.596 250.267 703.588 250.254 L 703.541 250.174 C 703.533 250.161 703.515 250.145 703.507 250.132 C 703.492 250.105 703.463 250.086 703.447 250.059 L 703.392 250.011 L 703.337 249.963 C 703.319 249.947 703.29 249.928 703.271 249.912 C 703.253 249.896 703.235 249.88 703.224 249.877 C 703.195 249.858 703.177 249.842 703.145 249.834 C 703.124 249.828 703.116 249.815 703.095 249.81 C 703.066 249.791 703.035 249.782 703.003 249.774 C 702.982 249.769 702.974 249.755 702.953 249.75 L 702.805 249.711 C 702.773 249.703 702.752 249.697 702.718 249.7 L 702.655 249.683 C 702.633 249.678 702.61 249.683 702.578 249.674 C 702.557 249.669 702.533 249.674 702.512 249.668 L 668.843 248.988 C 668.237 248.975 667.701 249.381 667.549 249.969 L 659.659 280.151 C 658.516 278.274 656.687 276.914 654.56 276.36 C 650.021 275.173 645.36 277.902 644.173 282.442 C 642.987 286.981 645.716 291.642 650.255 292.829 C 654.795 294.015 659.455 291.286 660.642 286.747 L 667.009 262.392 L 697.986 263.012 L 693.331 280.821 C 692.187 278.944 690.359 277.584 688.231 277.03 C 683.692 275.843 679.031 278.572 677.844 283.112 C 676.658 287.651 679.387 292.312 683.926 293.499 C 688.466 294.685 693.127 291.956 694.313 287.417 L 703.754 251.301 C 703.768 251.249 703.779 251.206 703.782 251.151 C 703.809 251.135 703.812 251.125 703.817 251.103 Z " fill="rgb(245,245,245)" />
                        <path d=" M 671.611 381.923 C 671.657 369.498 663.612 358.149 650.973 354.845 C 640.994 352.237 630.947 355.303 624.123 362.403 C 614.375 361.631 604.973 367.694 602.365 377.673 C 599.495 388.649 606.128 399.977 617.105 402.846 L 660.344 414.149 C 669.657 416.584 678.887 411.179 681.322 401.866 C 683.495 393.551 679.336 384.994 671.611 381.923 Z " fill="rgb(245,245,245)" />
                    </g>
                </g>
                <g id="Accessories">
                    <g id="Ruler">
                        <path d=" M 251 300.662 L 265.334 363.9 L 608.124 286.203 L 593.79 222.965 L 251 300.662 Z " fill-rule="evenodd" fill="rgb(139,104,69)" fill-opacity="0.85" />
                        <path d=" M 266.962 312.195 L 267.514 314.63 C 267.759 315.71 268.834 316.388 269.914 316.143 L 583.4 245.089 C 584.479 244.844 585.157 243.769 584.913 242.689 L 584.36 240.253 C 584.116 239.174 583.041 238.496 581.961 238.741 L 268.475 309.795 C 267.395 310.04 266.718 311.115 266.962 312.195 Z " fill-rule="evenodd" fill="rgb(118,89,60)" fill-opacity="0.8256261488970589" />
                    </g>
                    <g id="Pen">
                        <path d=" M 307.443 430.595 L 303.27 383.06 C 321.655 371.026 338.76 377.336 346.022 398.814 L 311.433 432.065 Q 309.315 433.959 308.475 433.649 Q 307.636 433.34 307.443 430.595 Z " fill="rgb(255,204,128)" />
                        <path d=" M 355.035 242.587 L 397.787 258.342 L 346.022 398.814 C 332.78 386.834 315.69 380.557 303.27 383.06 L 355.035 242.587 Z " fill="rgb(66,165,245)" />
                        <rect x="351.697" y="223.4" width="58.581" height="29.29" transform="matrix(0.938,0.346,-0.346,0.938,105.811,-117.053)" fill="rgb(189,189,189)" />
                        <path d=" M 382.183 197.097 L 406.649 206.112 C 411.695 207.972 414.283 213.579 412.423 218.625 L 406.79 233.912 L 364.037 218.157 L 369.671 202.871 C 371.53 197.824 377.137 195.237 382.183 197.097 Z " fill="rgb(139,195,74)" />
                    </g>
                    <g id="Paint Pencil">
                        <path d=" M 596.776 370.19 Q 581.371 378.064 573.816 380.997 C 572.726 381.42 571.309 380.978 570.654 380.01 L 527.438 316.2 L 551.017 293.768 L 612.592 340.113 C 613.526 340.816 613.872 342.242 613.364 343.295 Q 609.505 351.296 601.45 365.69 C 600.536 367.322 598.442 369.338 596.776 370.19 Z " fill="rgb(121,85,72)" />
                        <path d=" M 495.828 282.529 Q 374.189 147.554 382.206 139.927 Q 390.223 132.301 519.613 260.757 C 515.968 272.032 506.969 279.747 495.828 282.529 Z " fill="rgb(136,14,79)" />
                        <path d=" M 495.828 282.529 C 505.284 278.723 514.302 271.009 519.613 260.757 L 551.017 293.768 C 545.869 303.465 537.075 311.84 527.438 316.2 L 495.828 282.529 Z " fill="rgb(235,235,235)" />
                    </g>
                </g>
            </g>
            <g id="trash">
                <path d=" M 269.875 379.955 L 753.966 379.955 L 699.691 861.915 C 698.287 874.38 686.964 884.5 674.42 884.5 L 349.42 884.5 C 336.877 884.5 325.554 874.38 324.15 861.915 L 269.875 379.955 Z " fill="rgb(97,97,97)" />
                <path d=" M 320.201 834.5 L 703.799 834.5 L 700.145 861.971 C 698.491 874.405 686.964 884.5 674.42 884.5 L 349.42 884.5 C 336.877 884.5 325.382 874.401 323.767 861.962 L 320.201 834.5 Z " fill="rgb(66,66,66)" />
                <path d="M 247.227 339.773 L 776.773 339.773 C 788.689 339.773 798.364 349.447 798.364 361.364 L 798.364 361.364 C 798.364 373.28 788.689 382.955 776.773 382.955 L 247.227 382.955 C 235.311 382.955 225.636 373.28 225.636 361.364 L 225.636 361.364 C 225.636 349.447 235.311 339.773 247.227 339.773 Z" style="stroke:none;fill:#BDBDBD;stroke-miterlimit:10;" />
                <g id="drawers">
                    <path d="M 327.471 407.796 L 327.471 407.796 C 339.946 406.484 351.138 415.548 352.449 428.023 L 390.46 789.667 C 391.771 802.142 382.707 813.334 370.233 814.645 L 370.233 814.645 C 357.758 815.957 346.565 806.893 345.254 794.418 L 307.244 432.774 C 305.933 420.299 314.996 409.107 327.471 407.796 Z" style="stroke:none;fill:#9E9E9E;stroke-miterlimit:10;" />
                    <path d="M 418.716 406.21 L 418.716 406.21 C 431.242 405.553 441.945 415.19 442.602 427.716 L 461.633 790.854 C 462.289 803.381 452.653 814.083 440.126 814.74 L 440.126 814.74 C 427.6 815.396 416.897 805.76 416.241 793.233 L 397.209 430.095 C 396.553 417.569 406.19 406.866 418.716 406.21 Z" style="stroke:none;fill:#9E9E9E;stroke-miterlimit:10;" />
                    <path d="M 694.582 407.796 L 694.582 407.796 C 682.107 406.484 670.915 415.548 669.603 428.023 L 631.593 789.667 C 630.282 802.142 639.345 813.334 651.82 814.645 L 651.82 814.645 C 664.295 815.957 675.487 806.893 676.799 794.418 L 714.809 432.774 C 716.12 420.299 707.057 409.107 694.582 407.796 Z" style="stroke:none;fill:#9E9E9E;stroke-miterlimit:10;" />
                    <path d="M 602.596 406.21 L 602.596 406.21 C 590.07 405.553 579.367 415.19 578.711 427.716 L 559.679 790.854 C 559.023 803.381 568.66 814.083 581.186 814.74 L 581.186 814.74 C 593.712 815.396 604.415 805.76 605.072 793.233 L 624.103 430.095 C 624.759 417.569 615.123 406.866 602.596 406.21 Z" style="stroke:none;fill:#9E9E9E;stroke-miterlimit:10;" />
                    <path d="M 510.36 405.681 L 510.36 405.681 C 522.903 405.681 533.087 415.864 533.087 428.408 L 533.087 792.044 C 533.087 804.588 522.903 814.772 510.36 814.772 L 510.36 814.772 C 497.816 814.772 487.632 804.588 487.632 792.044 L 487.632 428.408 C 487.632 415.864 497.816 405.681 510.36 405.681 Z" style="stroke:none;fill:#9E9E9E;stroke-miterlimit:10;" />
                </g>
            </g>
            <g id="recycle symbol">
                <path d=" M 376.529 609.318 C 376.529 526.531 443.742 459.318 526.529 459.318 C 609.316 459.318 676.529 526.531 676.529 609.318 C 676.529 692.105 609.316 759.318 526.529 759.318 C 443.742 759.318 376.529 692.105 376.529 609.318 Z " fill="rgb(235,235,235)" />
                <g id="recycle">
                    <path d=" M 627.939 610.265 C 637.005 630.453 620.241 650.426 612.369 650.584 L 592.745 650.584 L 563.272 598.271 L 606.738 573.128 L 627.59 609.224 L 627.939 610.265 Z  M 524.119 522.91 L 513.161 510.179 L 501.381 510.179 C 491.875 510.021 480.281 513.388 473.445 523.153 L 472.916 524.014 L 452.064 560.109 L 495.53 585.275 L 527.047 533.733 L 524.119 522.91 Z  M 475.151 700.993 C 453.088 698.775 443.437 676.183 447.198 669.167 L 456.079 650.866 L 521.185 650.866 L 517.936 701.174 L 476.187 701.174 L 475.151 700.993 Z " fill="rgb(117,117,117)" />
                    <path d=" M 610.674 650.274 C 616.654 650.094 620.726 646.53 625.805 639.181 L 592.677 694.929 C 590.307 700.222 587.046 701.106 583.617 700.751 L 554.369 700.751 L 554.189 718.545 L 529.553 675.766 L 554.369 632.497 L 554.369 650.274 L 610.674 650.274 Z  M 516.044 516.818 C 511.449 509.452 504.827 510.173 502.738 510.173 L 563.621 510.173 C 569.432 509.627 571.825 511.868 573.363 515.128 L 587.908 540.446 L 603.281 531.554 L 578.645 574.497 L 528.888 574.666 L 544.109 565.786 L 516.044 516.818 Z  M 448.448 666.526 C 445.565 671.672 446.404 676.577 449.946 683.683 L 418.688 628.566 C 415.433 623.752 416.289 620.694 418.159 617.766 L 432.879 592.471 L 417.506 583.388 L 466.947 583.388 L 492.089 626.5 L 476.694 617.637 L 448.448 666.526 Z " fill="rgb(158,158,158)" />
                </g>
            </g>
        </g>
    </g>
</svg>