<?xml version="1.0" standalone="no"?>
<!-- Generator: Gravit.io -->
<svg xmlns="http://www.w3.org/2000/svg" xmlns:xlink="http://www.w3.org/1999/xlink" style="isolation:isolate" viewBox="0 0 1024 1024" width="1024" height="1024">
    <defs>
        <clipPath id="_clipPath_RjAPO7AodmtzMBof9LDvgDkfHR7GHTAs">
            <rect width="1024" height="1024" />
        </clipPath>
    </defs>
    <g clip-path="url(#_clipPath_RjAPO7AodmtzMBof9LDvgDkfHR7GHTAs)">
        <rect x="87" y="87" width="850" height="850" transform="matrix(1,0,0,1,0,0)" fill="rgb(251,192,45)" />
        <clipPath id="_clipPath_jp9NPqbE58yqNxsOXbLyYZH7r81DumSX">
            <rect x="87" y="87" width="850" height="850" transform="matrix(1,0,0,1,0,0)" fill="rgb(251,192,45)" />
        </clipPath>
        <g clip-path="url(#_clipPath_jp9NPqbE58yqNxsOXbLyYZH7r81DumSX)">
            <g id="ziper closing">
                <path d=" M 601.658 87.01 L 556.564 206 L 511.534 325.179 L 466.564 206.08 L 421.454 86.971 L 511.519 87.08 L 601.658 87.01 Z " fill="rgb(66,66,66)" />
                <path d=" M 390.014 87.037 L 422.022 86.971 L 511.9 323.3 L 600.952 86.97 L 633.028 87.008 L 512.1 408.7 L 390.014 87.037 Z " fill="rgb(117,117,117)" />
                <path d=" M 483.333 330.667 L 540.667 330.667 L 540.667 651.333 C 540.667 667.891 527.822 681.333 512 681.333 L 512 681.333 C 496.178 681.333 483.333 667.891 483.333 651.333 L 483.333 330.667 Z " fill="rgb(117,117,117)" />
                <line x1="421.333" y1="88.667" x2="502.667" y2="299.333" vector-effect="non-scaling-stroke" stroke-width="30" stroke-dasharray="19,19,19,19" stroke="rgb(253,216,53)" stroke-linejoin="bevel" stroke-linecap="butt" stroke-miterlimit="3" />
                <line x1="501.333" y1="322.667" x2="500.667" y2="625" vector-effect="non-scaling-stroke" stroke-width="30" stroke-dasharray="19,19,19,19" stroke="rgb(253,216,53)" stroke-linejoin="bevel" stroke-linecap="butt" stroke-miterlimit="3" />
                <line x1="521.333" y1="341.667" x2="520.667" y2="644" vector-effect="non-scaling-stroke" stroke-width="30" stroke-dasharray="19,19,19,19" stroke="rgb(253,216,53)" stroke-linejoin="bevel" stroke-linecap="butt" stroke-miterlimit="3" />
                <line x1="609.667" y1="68.667" x2="514.667" y2="316" vector-effect="non-scaling-stroke" stroke-width="30" stroke-dasharray="19,19,19,19" stroke="rgb(253,216,53)" stroke-linejoin="bevel" stroke-linecap="butt" stroke-miterlimit="3" />
            </g>
            <g id="ziper">
                <path d=" M 491.667 331.481 C 494.103 330.717 490.446 321.727 483.133 308.83 C 481.772 306.43 482.061 302.727 483.778 300.567 C 501.333 278.481 521.677 278.491 538.618 300.518 C 540.301 302.705 540.483 306.383 539.025 308.726 C 533.237 318.029 529.58 327.039 530.667 331.481 L 491.667 331.481 Z " fill="rgb(121,85,72)" />
                <path d="M 510.917 289.481 L 510.917 289.481 C 517.899 289.481 523.568 295.15 523.568 302.132 L 523.568 318.83 C 523.568 325.812 517.899 331.481 510.917 331.481 L 510.917 331.481 C 503.934 331.481 498.266 325.812 498.266 318.83 L 498.266 302.132 C 498.266 295.15 503.934 289.481 510.917 289.481 Z" style="stroke:none;fill:#8D6E63;stroke-miterlimit:10;" />
                <path d="M 510.917 299.276 L 510.917 299.276 C 513.4 299.276 515.417 301.293 515.417 303.776 L 515.417 326.981 C 515.417 329.465 513.4 331.481 510.917 331.481 L 510.917 331.481 C 508.433 331.481 506.417 329.465 506.417 326.981 L 506.417 303.776 C 506.417 301.293 508.433 299.276 510.917 299.276 Z" style="stroke:none;fill:#BCAAA4;stroke-miterlimit:10;" />
                <path d=" M 484.168 418.981 C 484.167 419.064 484.167 419.148 484.167 419.231 C 484.167 434.409 496.489 446.731 511.667 446.731 C 526.844 446.731 539.167 434.409 539.167 419.231 C 539.167 419.148 539.166 419.064 539.166 418.981 L 539.667 418.981 L 534.667 336.481 L 534.293 336.481 C 533.105 325.108 523.477 316.231 511.792 316.231 C 500.107 316.231 490.479 325.108 489.29 336.481 L 489.167 336.481 L 483.917 418.981 L 484.168 418.981 M 505.667 337.981 C 505.667 334.945 508.131 332.481 511.167 332.481 C 514.202 332.481 516.667 334.945 516.667 337.981 C 516.667 341.016 514.202 343.481 511.167 343.481 C 508.131 343.481 505.667 341.016 505.667 337.981 M 484.168 418.981 Z  M 503.167 419.731 C 503.167 415.454 506.639 411.981 510.917 411.981 C 515.194 411.981 518.667 415.454 518.667 419.731 C 518.667 424.008 515.194 427.481 510.917 427.481 C 506.639 427.481 503.167 424.008 503.167 419.731 Z " fill-rule="evenodd" fill="rgb(141,110,99)" />
                <path d=" M 496.764 407.06 C 493.75 410.423 491.917 414.864 491.917 419.731 C 491.917 430.217 500.43 438.731 510.917 438.731 C 521.403 438.731 529.917 430.217 529.917 419.731 C 529.917 414.696 527.954 410.117 524.753 406.715 L 521.927 346.933 C 523.95 344.506 525.167 341.384 525.167 337.981 C 525.167 330.254 518.893 323.981 511.167 323.981 C 503.44 323.981 497.167 330.254 497.167 337.981 C 497.167 341.714 498.631 345.107 501.015 347.618 L 496.764 407.06 M 505.667 337.981 C 505.667 334.945 508.131 332.481 511.167 332.481 C 514.202 332.481 516.667 334.945 516.667 337.981 C 516.667 341.016 514.202 343.481 511.167 343.481 C 508.131 343.481 505.667 341.016 505.667 337.981 M 496.764 407.06 Z  M 503.167 419.731 C 503.167 415.454 506.639 411.981 510.917 411.981 C 515.194 411.981 518.667 415.454 518.667 419.731 C 518.667 424.008 515.194 427.481 510.917 427.481 C 506.639 427.481 503.167 424.008 503.167 419.731 Z " fill-rule="evenodd" fill="rgb(188,170,164)" />
            </g>
        </g>
    </g>
</svg>