<?xml version="1.0" standalone="no"?>
<!-- Generator: Gravit.io -->
<svg xmlns="http://www.w3.org/2000/svg" xmlns:xlink="http://www.w3.org/1999/xlink" style="isolation:isolate" viewBox="0 0 1024 1024" width="1024" height="1024">
    <defs>
        <clipPath id="_clipPath_jy2WXBWakcTUr9T2dR22fcXy7DCSiw1g">
            <rect width="1024" height="1024" />
        </clipPath>
    </defs>
    <g clip-path="url(#_clipPath_jy2WXBWakcTUr9T2dR22fcXy7DCSiw1g)">
        <rect x="87" y="87" width="850" height="850" transform="matrix(1,0,0,1,0,0)" fill="rgb(235,235,235)" />
        <path d=" M 551.213 124.47 L 551.213 299.391 L 592.675 299.391 C 596.995 299.391 600.235 301.499 603.475 305.713 C 604.555 309.928 604.555 314.156 602.395 317.304 C 572.141 360.504 521.473 401.623 519.313 402.651 C 517.245 403.678 514.177 404.653 512.004 404.705 L 511.793 404.758 C 509.633 404.758 506.393 403.731 505.313 402.651 C 503.153 401.623 452.327 361.544 422.073 317.304 C 419.913 313.089 418.833 308.861 420.993 305.713 C 423.153 301.499 426.393 299.391 430.713 299.391 L 472.188 299.391 L 472.188 124.47 L 551.213 124.47 Z " fill="rgb(0,137,123)" />
        <path d=" M 87 87 L 937 87 L 937 937 L 87 937 L 87 87 Z  M 125.202 125.202 L 898.798 125.202 L 898.798 898.798 L 125.202 898.798 L 125.202 125.202 Z " fill-rule="evenodd" fill="rgb(117,117,117)" />
        <path d=" M 695.925 801.37 L 560.671 523.69 C 556.06 514.468 549.4 507.296 540.69 502.173 C 531.981 497.562 522.246 495 512 495 C 501.241 495 492.019 497.562 483.31 502.173 C 474.6 507.296 467.94 514.468 463.329 523.69 L 328.075 801.37 C 325.001 808.031 323.464 814.178 323.464 820.326 C 323.464 831.597 328.075 841.332 337.81 849.017 C 347.031 856.701 357.278 860.8 369.061 860.8 C 376.746 860.8 384.431 858.751 391.091 854.652 C 397.752 850.554 402.875 844.406 406.461 836.208 L 430.028 784.464 L 596.021 784.464 L 619.076 836.208 C 622.662 844.406 627.785 850.554 634.446 854.652 C 641.106 858.751 648.278 860.8 655.963 860.8 C 667.747 860.8 677.993 856.701 687.215 849.017 C 695.925 841.332 700.536 831.597 700.536 820.326 C 700.536 814.178 698.999 808.031 695.925 801.37 Z  M 513.025 599.514 L 564.257 713.763 L 461.792 713.763 L 513.025 599.514 Z " fill-rule="evenodd" fill="rgb(123,31,162)" />
    </g>
</svg>