<?xml version="1.0" standalone="no"?>
<!-- Generator: Gravit.io -->
<svg xmlns="http://www.w3.org/2000/svg" xmlns:xlink="http://www.w3.org/1999/xlink" style="isolation:isolate" viewBox="0 0 1024 1024" width="1024" height="1024">
    <defs>
        <clipPath id="_clipPath_V5VjSvBunORMAO0CKp0bQFCPJul8ZRI1">
            <rect width="1024" height="1024" />
        </clipPath>
    </defs>
    <g clip-path="url(#_clipPath_V5VjSvBunORMAO0CKp0bQFCPJul8ZRI1)">
        <path d=" M 86.558 87 L 86.558 937 L 936.558 937 L 936.558 87 L 86.558 87 Z " fill-rule="evenodd" fill="rgb(77,208,225)" />
        <g id="keyboard">
            <rect x="227" y="437" width="570" height="500" transform="matrix(1,0,0,1,0,0)" fill="rgb(235,235,235)" />
            <rect x="329" y="457.162" width="10" height="479.838" transform="matrix(1,0,0,1,0,0)" fill="rgb(0,0,0)" />
            <rect x="498" y="457.162" width="10" height="479.838" transform="matrix(1,0,0,1,0,0)" fill="rgb(0,0,0)" />
            <rect x="415" y="457.162" width="10" height="479.838" transform="matrix(1,0,0,1,0,0)" fill="rgb(0,0,0)" />
            <rect x="584" y="457.162" width="10" height="479.838" transform="matrix(1,0,0,1,0,0)" fill="rgb(0,0,0)" />
            <rect x="677" y="457.162" width="10" height="479.838" transform="matrix(1,0,0,1,0,0)" fill="rgb(0,0,0)" />
            <path d=" M 305.533 457.162 L 305.533 677.162 L 365.533 677.162 L 365.533 457.162 L 305.533 457.162 Z " fill-rule="evenodd" fill="rgb(74,74,74)" />
            <path d=" M 391.346 457.162 L 391.346 677.162 L 451.346 677.162 L 451.346 457.162 L 391.346 457.162 Z " fill-rule="evenodd" fill="rgb(74,74,74)" />
            <path d=" M 561.323 457.162 L 561.323 677.162 L 621.323 677.162 L 621.323 457.162 L 561.323 457.162 Z " fill-rule="evenodd" fill="rgb(74,74,74)" />
            <path d=" M 653.737 457.162 L 653.737 677.162 L 713.737 677.162 L 713.737 457.162 L 653.737 457.162 Z " fill-rule="evenodd" fill="rgb(74,74,74)" />
        </g>
        <g id="settings">
            <g id="sound settings">
                <path d=" M 161.139 181.776 L 161.139 341.776 C 161.139 350.055 167.86 356.776 176.139 356.776 L 176.139 356.776 C 184.418 356.776 191.139 350.055 191.139 341.776 L 191.139 181.776 C 191.139 173.497 184.418 166.776 176.139 166.776 L 176.139 166.776 C 167.86 166.776 161.139 173.497 161.139 181.776 Z " fill-rule="evenodd" fill="rgb(66,66,66)" />
                <path d=" M 215.696 181.776 L 215.696 341.776 C 215.696 350.055 222.417 356.776 230.696 356.776 L 230.696 356.776 C 238.975 356.776 245.696 350.055 245.696 341.776 L 245.696 181.776 C 245.696 173.497 238.975 166.776 230.696 166.776 L 230.696 166.776 C 222.417 166.776 215.696 173.497 215.696 181.776 Z " fill-rule="evenodd" fill="rgb(66,66,66)" />
                <path d=" M 270.253 181.776 L 270.253 341.776 C 270.253 350.055 276.974 356.776 285.253 356.776 L 285.253 356.776 C 293.532 356.776 300.253 350.055 300.253 341.776 L 300.253 181.776 C 300.253 173.497 293.532 166.776 285.253 166.776 L 285.253 166.776 C 276.974 166.776 270.253 173.497 270.253 181.776 Z " fill-rule="evenodd" fill="rgb(66,66,66)" />
                <path d=" M 324.81 181.776 L 324.81 341.776 C 324.81 350.055 331.531 356.776 339.81 356.776 L 339.81 356.776 C 348.089 356.776 354.81 350.055 354.81 341.776 L 354.81 290.508 L 354.81 181.776 C 354.81 173.497 348.089 166.776 339.81 166.776 L 339.81 166.776 C 331.531 166.776 324.81 173.497 324.81 181.776 Z " fill-rule="evenodd" fill="rgb(66,66,66)" />
                <path d=" M 159.139 193.233 L 159.139 203.718 C 159.139 205.516 160.599 206.975 162.397 206.975 L 189.881 206.975 C 191.679 206.975 193.139 205.516 193.139 203.718 L 193.139 193.233 C 193.139 191.435 191.679 189.975 189.881 189.975 L 162.397 189.975 C 160.599 189.975 159.139 191.435 159.139 193.233 Z " fill-rule="evenodd" fill="rgb(216,216,216)" />
                <path d=" M 213.696 229.432 L 213.696 239.916 C 213.696 241.715 215.156 243.174 216.954 243.174 L 244.438 243.174 C 246.236 243.174 247.696 241.715 247.696 239.916 L 247.696 229.432 C 247.696 227.634 246.236 226.174 244.438 226.174 L 216.954 226.174 C 215.156 226.174 213.696 227.634 213.696 229.432 Z " fill-rule="evenodd" fill="rgb(216,216,216)" />
                <path d=" M 268.253 199.733 L 268.253 210.217 C 268.253 212.015 269.713 213.475 271.511 213.475 L 298.995 213.475 C 300.793 213.475 302.253 212.015 302.253 210.217 L 302.253 199.733 C 302.253 197.935 300.793 196.475 298.995 196.475 L 271.511 196.475 C 269.713 196.475 268.253 197.935 268.253 199.733 Z " fill-rule="evenodd" fill="rgb(216,216,216)" />
                <path d=" M 322.81 282.231 L 322.81 292.715 C 322.81 294.513 324.27 295.973 326.068 295.973 L 353.552 295.973 C 355.35 295.973 356.81 294.513 356.81 292.715 L 356.81 282.231 C 356.81 280.433 355.35 278.973 353.552 278.973 L 326.068 278.973 C 324.27 278.973 322.81 280.433 322.81 282.231 Z " fill-rule="evenodd" fill="rgb(216,216,216)" />
            </g>
            <g id="number set screen">
                <path d=" M 410.172 166.776 L 410.172 356.776 L 670.172 356.776 L 670.172 166.776 L 410.172 166.776 Z " fill-rule="evenodd" fill="rgb(33,33,33)" />
                <path d=" M 419.446 175.807 L 419.446 347.727 L 660.872 347.727 L 660.872 175.807 L 419.446 175.807 Z  M 410.172 166.776 L 410.172 356.776 L 670.172 356.776 L 670.172 166.776 L 410.172 166.776 Z " fill-rule="evenodd" fill="rgb(0,0,0)" />
            </g>
            <g id="number set 1">
                <path d=" M 724.861 166.776 L 724.861 356.776 L 784.861 356.776 L 784.861 166.776 L 724.861 166.776 Z " fill-rule="evenodd" fill="rgb(33,33,33)" />
                <path d=" M 734.134 175.807 L 734.134 347.727 L 775.561 347.727 L 775.561 175.807 L 734.134 175.807 Z  M 724.861 166.776 L 724.861 356.776 L 784.861 356.776 L 784.861 166.776 L 724.861 166.776 Z " fill-rule="evenodd" fill="rgb(0,0,0)" />
                <path d="M 754.564 175.807 L 754.564 175.807 C 763.119 175.807 770.064 182.752 770.064 191.307 L 770.064 331.5 C 770.064 340.055 763.119 347 754.564 347 L 754.564 347 C 746.01 347 739.064 340.055 739.064 331.5 L 739.064 191.307 C 739.064 182.752 746.01 175.807 754.564 175.807 Z" style="stroke:none;fill:#616161;stroke-miterlimit:10;" />
                <clipPath id="_clipPath_yD9A4XIvr4l3NJQRQ4lXWDMjG27oRQgQ">
                    <path d="M 754.564 175.807 L 754.564 175.807 C 763.119 175.807 770.064 182.752 770.064 191.307 L 770.064 331.5 C 770.064 340.055 763.119 347 754.564 347 L 754.564 347 C 746.01 347 739.064 340.055 739.064 331.5 L 739.064 191.307 C 739.064 182.752 746.01 175.807 754.564 175.807 Z" style="stroke:black;fill:white;stroke-miterlimit:10;" />
                </clipPath>
                <g clip-path="url(#_clipPath_yD9A4XIvr4l3NJQRQ4lXWDMjG27oRQgQ)">
                    <rect x="766.064" y="175.807" width="4" height="171.193" transform="matrix(1,0,0,1,0,0)" fill="rgb(158,158,158)" />
                    <rect x="739.064" y="175.807" width="4" height="171.193" transform="matrix(1,0,0,1,0,0)" fill="rgb(158,158,158)" />
                    <path d=" M 745.064 195 L 743.064 195 L 743.064 189 L 745.064 189 L 764.064 189 L 766.064 189 L 766.064 195 L 764.064 195 L 745.064 195 Z " fill="rgb(66,66,66)" />
                    <path d=" M 745.064 215 L 743.064 215 L 743.064 209 L 745.064 209 L 764.064 209 L 766.064 209 L 766.064 215 L 764.064 215 L 745.064 215 Z " fill="rgb(66,66,66)" />
                    <path d=" M 745.064 235 L 743.064 235 L 743.064 229 L 745.064 229 L 764.064 229 L 766.064 229 L 766.064 235 L 764.064 235 L 745.064 235 Z " fill="rgb(66,66,66)" />
                    <path d=" M 745.064 255 L 743.064 255 L 743.064 249 L 745.064 249 L 764.064 249 L 766.064 249 L 766.064 255 L 764.064 255 L 745.064 255 Z " fill="rgb(66,66,66)" />
                    <path d=" M 745.064 275 L 743.064 275 L 743.064 269 L 745.064 269 L 764.064 269 L 766.064 269 L 766.064 275 L 764.064 275 L 745.064 275 Z " fill="rgb(66,66,66)" />
                    <path d=" M 745.064 295 L 743.064 295 L 743.064 289 L 745.064 289 L 764.064 289 L 766.064 289 L 766.064 295 L 764.064 295 L 745.064 295 Z " fill="rgb(66,66,66)" />
                    <path d=" M 745.064 315 L 743.064 315 L 743.064 309 L 745.064 309 L 764.064 309 L 766.064 309 L 766.064 315 L 764.064 315 L 745.064 315 Z " fill="rgb(66,66,66)" />
                    <path d=" M 745.064 335 L 743.064 335 L 743.064 329 L 745.064 329 L 764.064 329 L 766.064 329 L 766.064 335 L 764.064 335 L 745.064 335 Z " fill="rgb(66,66,66)" />
                </g>
            </g>
            <g id="number set 2">
                <path d=" M 804.861 166.776 L 804.861 356.776 L 864.861 356.776 L 864.861 166.776 L 804.861 166.776 Z " fill-rule="evenodd" fill="rgb(33,33,33)" />
                <path d=" M 814.134 175.807 L 814.134 347.727 L 855.561 347.727 L 855.561 175.807 L 814.134 175.807 Z  M 804.861 166.776 L 804.861 356.776 L 864.861 356.776 L 864.861 166.776 L 804.861 166.776 Z " fill-rule="evenodd" fill="rgb(0,0,0)" />
                <path d="M 834.564 175.807 L 834.564 175.807 C 843.119 175.807 850.064 182.752 850.064 191.307 L 850.064 331.5 C 850.064 340.055 843.119 347 834.564 347 L 834.564 347 C 826.01 347 819.064 340.055 819.064 331.5 L 819.064 191.307 C 819.064 182.752 826.01 175.807 834.564 175.807 Z" style="stroke:none;fill:#616161;stroke-miterlimit:10;" />
                <clipPath id="_clipPath_yoYXVoZHOxUMMkSalKSDaksOBTAjOQg6">
                    <path d="M 834.564 175.807 L 834.564 175.807 C 843.119 175.807 850.064 182.752 850.064 191.307 L 850.064 331.5 C 850.064 340.055 843.119 347 834.564 347 L 834.564 347 C 826.01 347 819.064 340.055 819.064 331.5 L 819.064 191.307 C 819.064 182.752 826.01 175.807 834.564 175.807 Z" style="stroke:black;fill:white;stroke-miterlimit:10;" />
                </clipPath>
                <g clip-path="url(#_clipPath_yoYXVoZHOxUMMkSalKSDaksOBTAjOQg6)">
                    <rect x="846.064" y="175.807" width="4" height="171.193" transform="matrix(1,0,0,1,0,0)" fill="rgb(158,158,158)" />
                    <rect x="819.064" y="175.807" width="4" height="171.193" transform="matrix(1,0,0,1,0,0)" fill="rgb(158,158,158)" />
                    <path d=" M 825.064 195 L 823.064 195 L 823.064 189 L 825.064 189 L 844.064 189 L 846.064 189 L 846.064 195 L 844.064 195 L 825.064 195 Z " fill="rgb(66,66,66)" />
                    <path d=" M 825.064 215 L 823.064 215 L 823.064 209 L 825.064 209 L 844.064 209 L 846.064 209 L 846.064 215 L 844.064 215 L 825.064 215 Z " fill="rgb(66,66,66)" />
                    <path d=" M 825.064 235 L 823.064 235 L 823.064 229 L 825.064 229 L 844.064 229 L 846.064 229 L 846.064 235 L 844.064 235 L 825.064 235 Z " fill="rgb(66,66,66)" />
                    <path d=" M 825.064 255 L 823.064 255 L 823.064 249 L 825.064 249 L 844.064 249 L 846.064 249 L 846.064 255 L 844.064 255 L 825.064 255 Z " fill="rgb(66,66,66)" />
                    <path d=" M 825.064 275 L 823.064 275 L 823.064 269 L 825.064 269 L 844.064 269 L 846.064 269 L 846.064 275 L 844.064 275 L 825.064 275 Z " fill="rgb(66,66,66)" />
                    <path d=" M 825.064 295 L 823.064 295 L 823.064 289 L 825.064 289 L 844.064 289 L 846.064 289 L 846.064 295 L 844.064 295 L 825.064 295 Z " fill="rgb(66,66,66)" />
                    <path d=" M 825.064 315 L 823.064 315 L 823.064 309 L 825.064 309 L 844.064 309 L 846.064 309 L 846.064 315 L 844.064 315 L 825.064 315 Z " fill="rgb(66,66,66)" />
                    <path d=" M 825.064 335 L 823.064 335 L 823.064 329 L 825.064 329 L 844.064 329 L 846.064 329 L 846.064 335 L 844.064 335 L 825.064 335 Z " fill="rgb(66,66,66)" />
                </g>
            </g>
            <path d=" M 464.53 204.119 L 468.631 201.776 L 523.61 201.776 L 527.041 205.207 L 517.25 212.906 L 471.057 212.906 L 464.53 204.119 Z  M 459.844 207.634 L 462.773 205.29 L 469.802 214.077 L 462.773 255.081 L 457.333 259.265 L 452.229 253.324 L 459.844 207.634 Z  M 518.756 213.91 L 528.296 206.462 L 531.225 209.977 L 524.195 254.495 L 517.752 259.767 L 513.066 254.495 L 518.756 213.91 Z  M 458.087 260.939 L 465.116 255.667 L 511.559 255.667 L 516.58 261.19 L 509.969 267.299 L 463.944 267.299 L 458.087 260.939 Z  M 451.057 266.713 L 456.915 262.613 L 461.601 268.47 L 455.492 308.805 L 445.785 316.504 L 443.442 312.989 L 451.057 266.713 Z  M 511.392 268.387 L 517.166 263.198 L 522.438 269.056 L 514.823 314.914 L 511.308 317.09 L 504.446 308.805 L 511.392 268.387 Z  M 447.543 318.261 L 457.166 309.977 L 502.94 310.06 L 509.551 318.847 L 504.865 321.776 L 450.472 321.776 L 447.543 318.261 Z  M 565.116 204.119 L 569.216 201.776 L 624.195 201.776 L 627.626 205.207 L 617.836 212.906 L 571.643 212.906 L 565.116 204.119 Z  M 560.43 207.634 L 563.359 205.29 L 570.388 214.077 L 563.359 255.081 L 557.919 259.265 L 552.815 253.324 L 560.43 207.634 Z  M 619.342 213.91 L 628.882 206.462 L 631.81 209.977 L 624.781 254.495 L 618.338 259.767 L 613.651 254.495 L 619.342 213.91 Z  M 558.672 260.939 L 565.702 255.667 L 612.145 255.667 L 617.166 261.19 L 610.555 267.299 L 564.53 267.299 L 558.672 260.939 Z  M 551.643 266.713 L 557.501 262.613 L 562.187 268.47 L 556.078 308.805 L 546.371 316.504 L 544.028 312.989 L 551.643 266.713 Z  M 611.978 268.387 L 617.752 263.198 L 623.024 269.056 L 615.409 314.914 L 611.894 317.09 L 605.032 308.805 L 611.978 268.387 Z  M 548.128 318.261 L 557.752 309.977 L 603.526 310.06 L 610.137 318.847 L 605.451 321.776 L 551.057 321.776 L 548.128 318.261 Z " fill-rule="evenodd" fill="rgb(239,83,80)" />
        </g>
        <path d=" M 248.182 926.464 L 248.182 937 L 227 937 L 227 926.464 L 227 437 L 797 437 L 797 926.464 L 797 937 L 775.818 937 L 775.818 926.464 L 775.818 458.073 L 248.182 458.073 L 248.182 926.464 Z " fill="rgb(0,151,167)" />
    </g>
</svg>