<?xml version="1.0" standalone="no"?>
<!-- Generator: Gravit.io -->
<svg xmlns="http://www.w3.org/2000/svg" xmlns:xlink="http://www.w3.org/1999/xlink" style="isolation:isolate" viewBox="0 0 1024 1024" width="1024" height="1024">
    <defs>
        <clipPath id="_clipPath_YmImxfqqg8vWiRCCfMMezmYxZa2NExww">
            <rect width="1024" height="1024" />
        </clipPath>
    </defs>
    <g clip-path="url(#_clipPath_YmImxfqqg8vWiRCCfMMezmYxZa2NExww)">
        <rect x="87" y="87.5" width="850" height="850" transform="matrix(1,0,0,1,0,0)" fill="rgb(120,144,156)" />
        <g id="robot with tube">
            <g id="robot">
                <g id="left foot">
                    <path d=" M 387 763.942 C 396.841 767.72 404.48 769.39 409.525 769.443 C 463.285 770.01 478.252 710.589 431.11 687.522 C 424.547 684.311 359.598 713.061 359.598 737.702 C 359.598 742.591 366.302 755.997 387 763.942 Z " fill-rule="evenodd" fill="rgb(1,87,155)" />
                    <path d=" M 387 755.273 C 396.841 759.051 404.48 760.721 409.525 760.774 C 463.285 761.341 478.252 701.92 431.11 678.853 C 424.547 675.642 359.598 704.391 359.598 729.033 C 359.598 733.922 366.302 747.328 387 755.273 Z " fill-rule="evenodd" fill="rgb(235,235,235)" />
                </g>
                <g id="leg">
                    <g id="right foot">
                        <path d=" M 521.004 754.639 C 534.55 754.639 552.013 751.98 560.683 744.9 C 565.416 741.035 570.495 732.979 568.619 717.51 C 566.743 702.041 539.365 669.425 513.068 669.425 C 499.722 669.425 491.19 674.701 482.545 681.599 C 473.9 688.496 467.894 700.715 467.894 710.815 C 467.894 731.32 494.706 754.639 521.004 754.639 Z " fill-rule="evenodd" fill="rgb(1,87,155)" />
                        <path d=" M 521.004 745.095 C 534.55 745.095 551.514 741.778 560.683 735.356 C 566.609 731.206 571.579 726.911 568.619 707.966 C 565.659 689.021 539.365 659.881 513.068 659.881 C 499.722 659.881 491.19 665.157 482.545 672.055 C 473.9 678.952 467.894 691.171 467.894 701.271 C 467.894 721.776 494.706 745.095 521.004 745.095 Z " fill-rule="evenodd" fill="rgb(235,235,235)" />
                    </g>
                    <path d=" M 487.679 656.164 C 489.327 662.245 489.748 668.438 488.891 674.69 C 503.705 683.844 519.265 683.653 535.546 674.093 C 538.28 663.599 539.097 652.054 537.969 639.43 L 487.679 656.164 Z " fill-rule="evenodd" fill="rgb(55,71,79)" />
                </g>
                <g id="Group">
                    <path d=" M 348.626 600.223 C 369.421 687.29 524.852 661.541 565.077 631.884 C 618.271 592.664 611.443 461.902 546.345 412.348 C 481.247 362.794 388.15 374.963 354.101 430.841 C 320.053 486.718 327.831 513.156 348.626 600.223 Z " fill-rule="evenodd" fill="rgb(238,238,238)" />
                    <path d=" M 416.689 380.549 L 418.307 416.724 C 418.564 422.46 422.99 429.1 428.186 431.543 C 432.865 433.744 446.133 437.311 461.754 436.492 C 473.183 436.203 487.904 431.728 492.284 429.234 C 497.274 426.393 501.324 419.425 501.324 413.683 L 501.324 380.559 C 501.324 374.817 496.663 370.156 490.921 370.156 L 426.627 370.156 C 420.886 370.156 416.432 374.813 416.689 380.549 Z " fill-rule="evenodd" fill="rgb(55,71,79)" />
                    <path d=" M 452.543 398.106 C 527.338 398.106 587.97 356.445 587.97 305.053 C 587.97 253.661 527.338 212 452.543 212 C 377.749 212 317.116 253.661 317.116 305.053 C 317.116 356.445 377.749 398.106 452.543 398.106 Z " fill-rule="evenodd" fill="rgb(224,224,224)" />
                    <path d=" M 486.333 350.281 C 525.559 346.85 556.28 331.754 554.951 316.564 C 553.622 301.373 520.746 291.841 481.521 295.273 C 442.295 298.705 411.574 313.801 412.903 328.991 C 414.232 344.181 447.108 353.713 486.333 350.281 Z " fill-rule="evenodd" fill="rgb(33,150,243)" />
                </g>
                <g id="left arm">
                    <path d=" M 348.75 489.743 C 304.423 512.203 304.423 614.789 343.326 639.43 Q 343.326 639.43 316.863 676.242 C 250.142 609.868 243.649 536.55 304.134 467.701 Q 356.806 485.661 348.75 489.743 Z " fill-rule="evenodd" fill="rgb(55,71,79)" />
                    <path d=" M 360.44 712.389 C 390.466 720.434 419.389 709.858 425.041 688.765 C 430.693 667.672 410.933 644.051 380.907 636.005 C 350.88 627.96 321.957 638.537 316.305 659.629 C 310.654 680.722 330.413 704.343 360.44 712.389 Z " fill-rule="evenodd" fill="rgb(84,110,122)" />
                    <path d=" M 351.763 634.896 C 349.598 635.112 344.174 636.317 340.313 636.703 Q 340.313 636.703 343.929 628.872 L 340.313 623.751 L 343.326 615.016 L 348.75 610.798 L 357.187 613.208 Q 365.313 622.075 369.843 626.462 Q 374.373 630.849 376.472 631.884 L 369.843 636.703 L 359.598 628.872 L 358.393 634.896 Q 353.929 634.68 351.763 634.896 Z " fill-rule="evenodd" fill="rgb(189,189,189)" />
                </g>
                <path d=" M 289.144 458.025 C 305.558 433.796 328.404 418.149 357.655 411.058 C 370.346 414.169 381.47 421.09 391.001 431.797 C 395.321 455.76 386.841 475.084 365.537 489.743 C 324.956 492.502 299.501 481.938 289.144 458.025 Z " fill-rule="evenodd" fill="rgb(224,224,224)" />
                <g id="right arm">
                    <path d=" M 602.298 562.676 L 618.669 549.445 C 628.429 560.838 632.078 573.567 629.583 586.379 L 644.834 602.074 L 640.499 609.009 C 624.36 600.353 611.635 584.917 602.298 562.676 Z " fill="rgb(55,71,79)" />
                    <path d=" M 623.161 551.793 L 644.962 545.311 L 655.237 542.257 C 658.598 560.461 669.926 572.029 668.389 592.538 C 665.416 606.371 657.615 612.837 644.834 610.798 C 625.429 607.704 630.963 572.707 623.161 551.793 Z " fill="rgb(69,90,100)" />
                    <path d=" M 608.064 542.643 C 620.89 555.925 640.618 557.68 652.128 546.565 C 663.638 535.45 662.572 515.673 649.747 502.391 C 636.921 489.11 617.193 487.354 605.683 498.47 C 594.173 509.585 595.239 529.362 608.064 542.643 Z " fill-rule="evenodd" fill="rgb(84,110,122)" />
                    <path d=" M 587.795 452.642 L 602.298 472.523 L 590.212 478.547 L 581.148 455.655 L 587.795 452.642 Z " fill-rule="evenodd" fill="rgb(38,50,56)" />
                </g>
                <path d=" M 561.202 429.758 Q 547.95 414.618 531.267 402.196 C 570.348 405.428 595.222 422.137 609.802 452.295 Q 603.107 453.332 596.437 454.732 Q 589.768 456.131 583.282 460.823 Q 574.454 444.899 561.202 429.758 Z " fill-rule="evenodd" fill="rgb(224,224,224)" />
            </g>
            <g id="setting">
                <path d=" M 673.179 404.848 Q 686.121 433.503 696.557 447.296 Q 706.992 461.089 731.049 481.335 L 744.941 470.824 L 687.072 394.337 L 673.179 404.848 Z " fill="rgb(38,50,56)" />
                <rect x="477.144" y="281.028" width="78.474" height="605.172" transform="matrix(0.603,0.797,-0.797,0.603,670.236,-180.312)" fill="rgb(96,125,139)" />
                <path d=" M 728.75 362.804 Q 752.807 383.05 763.242 396.843 Q 773.677 410.636 786.619 439.291 L 731.049 481.335 Q 718.106 452.68 707.671 438.887 Q 697.236 425.094 673.179 404.848 L 728.75 362.804 Z " fill="rgb(69,90,100)" />
                <path d=" M 237.381 735.513 Q 250.323 764.168 260.758 777.961 Q 271.193 791.754 295.25 812 L 309.142 801.489 L 251.273 725.002 L 237.381 735.513 Z " fill="rgb(38,50,56)" />
                <path d=" M 292.951 693.469 Q 317.008 713.715 327.443 727.508 Q 337.879 741.301 350.821 769.956 L 295.25 812 Q 282.308 783.345 271.872 769.552 Q 261.437 755.759 237.381 735.513 L 292.951 693.469 Z " fill="rgb(69,90,100)" />
            </g>
            <g id="fingers">
                <path d=" M 428.97 693.968 L 437.807 699.374 L 437.193 686.823 L 442.719 679.651 L 461.754 703.557 Q 458.599 714.172 455 717.901 Q 451.4 721.63 442.719 723.28 L 418.567 701.764 L 428.97 693.968 Z " fill-rule="evenodd" fill="rgb(224,224,224)" />
                <path d=" M 392.56 721.263 L 401.647 726.642 L 400.362 711.306 L 406.56 706.919 L 425.595 730.826 Q 422.44 741.44 418.84 745.169 Q 415.241 748.899 406.56 750.548 L 382.156 729.033 L 392.56 721.263 Z " fill-rule="evenodd" fill="rgb(224,224,224)" />
            </g>
            <g id="right hand">
                <path d=" M 700.136 499.777 L 697.716 490.241 L 705.518 482.439 L 722.857 496.31 L 715.077 501.511 L 715.077 513.406 L 701.184 523.184 L 687.195 517.983 L 680.074 504.112 L 688.401 498.044 L 695.539 502.764 L 700.136 499.777 Z " fill="rgb(216,216,216)" />
                <path d=" M 659.571 519.68 L 670.841 525.585 L 674.309 522.317 L 670.841 511.047 L 678.644 500.297 L 694.402 514.011 L 687.195 525.741 L 685.579 537.055 L 670.841 545.724 L 654.37 539.656 L 652.784 525.585 L 659.571 519.68 Z " fill-rule="evenodd" fill="rgb(189,189,189)" />
                <path d=" M 622.979 449.229 L 622.979 433.467 L 629.062 432.254 L 638.186 438.317 L 652.784 427.405 L 644.269 416.492 L 616.225 412.218 L 604.731 421.342 L 606.556 443.167 L 602.298 449.229 L 607.772 460.141 L 622.979 449.229 Z " fill-rule="evenodd" fill="rgb(189,189,189)" />
            </g>
        </g>
    </g>
</svg>