<?xml version="1.0" standalone="no"?>
<!-- Generator: Gravit.io -->
<svg xmlns="http://www.w3.org/2000/svg" xmlns:xlink="http://www.w3.org/1999/xlink" style="isolation:isolate" viewBox="0 0 1024 1024" width="1024" height="1024">
    <defs>
        <clipPath id="_clipPath_oZvFjxyjfHSKXWNqXHuQUONwLKt4VLR8">
            <rect width="1024" height="1024" />
        </clipPath>
    </defs>
    <g clip-path="url(#_clipPath_oZvFjxyjfHSKXWNqXHuQUONwLKt4VLR8)">
        <rect x="87" y="87" width="850" height="850" transform="matrix(1,0,0,1,0,0)" fill="rgb(121,134,203)" />
        <g id="Group">
            <path d="M 843.138 503.606 L 520.394 180.862 C 515.761 176.23 508.239 176.23 503.606 180.862 L 180.862 503.606 C 176.23 508.239 176.23 515.761 180.862 520.394 L 503.606 843.138 C 508.239 847.77 515.761 847.77 520.394 843.138 L 843.138 520.394 C 847.77 515.761 847.77 508.239 843.138 503.606 Z" style="stroke:none;fill:#E0E0E0;stroke-miterlimit:10;" />
            <clipPath id="_clipPath_bQzI6cMfw904pT0xN6aAntVRdd45AJmH">
                <path d="M 843.138 503.606 L 520.394 180.862 C 515.761 176.23 508.239 176.23 503.606 180.862 L 180.862 503.606 C 176.23 508.239 176.23 515.761 180.862 520.394 L 503.606 843.138 C 508.239 847.77 515.761 847.77 520.394 843.138 L 843.138 520.394 C 847.77 515.761 847.77 508.239 843.138 503.606 Z" style="stroke:black;fill:white;stroke-miterlimit:10;" />
            </clipPath>
            <g clip-path="url(#_clipPath_bQzI6cMfw904pT0xN6aAntVRdd45AJmH)">
                <path d=" M 512.97 852.501 L 512.97 512.97 L 172.469 512 L 512.97 852.501 Z " fill="rgb(57,73,171)" />
                <path d=" M 851.531 512 L 512 512 L 511.03 171.499 L 851.531 512 Z " fill="rgb(57,73,171)" />
            </g>
            <path d=" M 271.915 512.686 L 357.66 512.686 L 357.66 697.894 L 444.776 783.639 L 276.62 783.639 C 274.023 783.639 271.915 781.531 271.915 778.934 L 271.915 512.686 Z " fill="rgb(224,224,224)" />
            <path d=" M 271.915 512 L 357.66 512 L 357.66 326.792 L 444.776 241.047 L 276.62 241.047 C 274.023 241.047 271.915 243.155 271.915 245.752 L 271.915 512 Z " fill="rgb(57,73,171)" />
            <path d=" M 752.771 512 L 667.026 512 L 667.026 328.164 L 579.91 241.047 L 748.066 241.047 C 750.662 241.047 752.771 243.155 752.771 245.752 L 752.771 512 Z " fill="rgb(224,224,224)" />
            <path d=" M 752.771 512.686 L 667.026 512.686 L 667.026 696.522 L 579.91 783.639 L 748.066 783.639 C 750.662 783.639 752.771 781.531 752.771 778.934 L 752.771 512.686 Z " fill="rgb(57,73,171)" />
        </g>
        <g id="B">
            <path d=" M 582.218 504.837 C 582.326 504.837 582.326 504.946 582.326 504.946 C 588.295 508.31 593.505 512.977 597.52 518.512 C 601.427 524.047 604.358 530.124 606.094 536.527 C 608.265 544.559 609.35 552.698 609.35 560.946 C 609.35 567.132 608.699 573.21 607.505 579.179 C 606.42 584.497 604.575 589.706 602.296 594.59 C 600.017 599.365 597.195 603.815 593.83 607.939 C 590.358 612.172 586.451 615.97 582.109 619.335 C 573.536 625.955 563.877 630.839 553.566 633.769 C 540.326 637.567 526.543 639.521 512.76 639.521 L 414.65 639.521 L 414.65 384.479 L 498.108 384.479 C 515.039 384.479 531.861 386.107 548.466 389.363 C 558.233 391.316 567.567 395.006 575.923 400.324 C 580.264 403.037 584.171 406.185 587.644 409.983 C 591.009 413.565 593.939 417.58 596.218 421.921 C 598.606 426.48 600.342 431.363 601.536 436.464 C 602.838 442.325 603.489 448.402 603.489 454.371 C 603.489 462.185 602.404 469.891 600.234 477.379 C 598.389 483.783 595.458 489.752 591.551 495.07 C 588.838 498.76 585.799 502.015 582.218 504.837 Z " fill="rgb(238,238,238)" />
            <path d=" M 425.496 628.668 L 425.496 395.332 L 498.115 395.332 L 498.115 395.332 Q 547.751 395.332 570.174 409.457 L 570.174 409.457 L 570.174 409.457 Q 592.598 423.581 592.598 454.384 L 592.598 454.384 L 592.598 454.384 Q 592.598 475.292 582.783 488.698 L 582.783 488.698 L 582.783 488.698 Q 572.967 502.105 556.688 504.818 L 556.688 504.818 L 556.688 506.414 L 556.688 506.414 Q 578.873 511.362 588.688 524.928 L 588.688 524.928 L 588.688 524.928 Q 598.504 538.494 598.504 560.997 L 598.504 560.997 L 598.504 560.997 Q 598.504 592.918 575.441 610.793 L 575.441 610.793 L 575.441 610.793 Q 552.379 628.668 512.798 628.668 L 512.798 628.668 L 425.496 628.668 Z  M 474.973 435.87 L 474.973 487.741 L 503.701 487.741 L 503.701 487.741 Q 523.81 487.741 532.828 481.516 L 532.828 481.516 L 532.828 481.516 Q 541.845 475.292 541.845 460.928 L 541.845 460.928 L 541.845 460.928 Q 541.845 447.521 532.03 441.696 L 532.03 441.696 L 532.03 441.696 Q 522.214 435.87 500.988 435.87 L 500.988 435.87 L 474.973 435.87 Z  M 505.616 527.002 L 474.973 527.002 L 474.973 587.81 L 507.212 587.81 L 507.212 587.81 Q 527.641 587.81 537.377 579.99 L 537.377 579.99 L 537.377 579.99 Q 547.112 572.169 547.112 556.05 L 547.112 556.05 L 547.112 556.05 Q 547.112 527.002 505.616 527.002 L 505.616 527.002 Z " fill-rule="evenodd" fill="rgb(0,0,0)" />
        </g>
    </g>
</svg>