<?xml version="1.0" standalone="no"?>
<!-- Generator: Gravit.io -->
<svg xmlns="http://www.w3.org/2000/svg" xmlns:xlink="http://www.w3.org/1999/xlink" style="isolation:isolate" viewBox="0 0 1024 1024" width="1024" height="1024">
    <defs>
        <clipPath id="_clipPath_yEUi7KwPvF2EJPAZIQh8NGCVLAsF5tHh">
            <rect width="1024" height="1024" />
        </clipPath>
    </defs>
    <g clip-path="url(#_clipPath_yEUi7KwPvF2EJPAZIQh8NGCVLAsF5tHh)">
        <rect x="87" y="87" width="850" height="850" transform="matrix(1,0,0,1,0,0)" fill="rgb(40,53,147)" />
        <clipPath id="_clipPath_SsH9FNKgAmez08mfGHcKulBePDcTYX0z">
            <rect x="87" y="87" width="850" height="850" transform="matrix(1,0,0,1,0,0)" fill="rgb(40,53,147)" />
        </clipPath>
        <g clip-path="url(#_clipPath_SsH9FNKgAmez08mfGHcKulBePDcTYX0z)">
            <g id="Canada">
                <rect x="402" y="402" width="850" height="220" transform="matrix(0,-1,1,0,315,1339)" fill="rgb(183,28,28)" />
                <rect x="87" y="307" width="850" height="410" transform="matrix(0,-1,1,0,0,1024)" fill="rgb(238,238,238)" />
                <path d=" M 511.995 362 L 487.736 407.245 C 484.984 412.162 480.052 411.706 475.12 408.959 L 457.558 399.865 L 470.647 469.36 C 473.4 482.056 464.568 482.056 460.21 476.567 L 429.56 442.255 L 424.584 459.679 C 424.01 461.968 421.487 464.371 417.702 463.799 L 378.946 455.65 L 389.125 492.659 C 391.304 500.894 393.004 504.304 386.925 506.476 L 373.111 512.969 L 439.828 567.161 C 442.469 569.21 443.803 572.898 442.863 576.237 L 437.024 595.399 C 459.996 592.751 480.579 588.767 503.562 586.314 C 505.591 586.097 508.988 589.445 508.974 591.797 L 505.93 662 L 517.099 662 L 515.341 591.947 C 515.327 589.596 518.409 586.097 520.438 586.314 C 543.421 588.767 564.004 592.751 586.976 595.399 L 581.137 576.237 C 580.197 572.898 581.531 569.21 584.172 567.161 L 650.889 512.969 L 637.075 506.476 C 630.996 504.304 632.695 500.894 634.875 492.659 L 645.054 455.65 L 606.298 463.799 C 602.513 464.371 599.99 461.968 599.416 459.679 L 594.44 442.255 L 563.79 476.567 C 559.432 482.056 550.6 482.056 553.353 469.36 L 566.442 399.865 L 548.88 408.959 C 543.948 411.706 539.016 412.162 536.264 407.245" fill="rgb(183,28,28)" />
                <rect x="-228" y="402" width="850" height="220" transform="matrix(0,-1,1,0,-315,709)" fill="rgb(183,28,28)" />
            </g>
            <path d=" M 707.3 564.1 C 710.1 569.578 710.7 576.023 709 582.038 C 707.4 588.053 703.6 593.101 698.4 596.109 C 693.3 599.116 687.3 599.761 681.7 597.935 C 676.1 596.216 671.4 592.135 668.6 586.549 C 654.8 559.374 634.3 536.71 609.3 521.136 C 586.8 507.709 561.5 500.727 535.7 500.835 C 510.1 500.835 484.9 507.387 462.2 519.847 C 440.4 531.555 422 549.277 408.7 571.189 C 393.7 597.72 386 628.225 386.5 659.267 C 386.5 701.48 401.4 742.188 428.3 773.016 C 446.5 793.209 468 809.643 491.8 821.566 C 524.8 837.892 559.8 849.278 595.7 855.185 C 631.3 860.234 667.2 862.597 703.2 862.167 C 757.9 861.737 812.5 858.945 867 853.574 C 921.1 848.418 975 842.511 1028.9 835.636 C 1034.7 834.885 1040.5 836.711 1045.1 840.577 C 1049.7 844.444 1052.6 850.137 1053.3 856.367 C 1054 862.597 1052.4 868.827 1048.7 873.768 C 1045.1 878.708 1039.8 881.823 1034.1 882.575 C 979.8 889.45 925.4 895.465 870.9 900.62 C 815.3 906.098 759.4 908.999 703.5 909.428 C 665.4 909.858 627.3 907.387 589.5 902.017 C 549.3 895.357 510.2 882.79 473.3 864.423 C 444.5 850.03 418.5 830.159 396.5 805.561 C 361.9 766.141 342.6 713.832 342.5 659.696 C 341.9 619.632 352 580.212 371.5 546.055 C 388.9 516.839 413.4 493.316 442.3 477.741 C 471.2 461.844 503.2 453.574 535.6 453.574 C 569 453.466 601.9 462.596 631 480.104 C 663.2 499.976 689.6 528.977 707.3 564.1 Z " fill="rgb(33,33,33)" />
            <path d=" M 672.8 398.472 C 678 401.372 681.9 406.313 683.7 412.328 C 685.5 418.235 685 424.787 682.3 430.265 C 679.6 435.851 675 440.147 669.5 441.973 C 663.9 443.907 657.9 443.37 652.7 440.577 C 613.4 418.88 570 407.279 525.9 406.635 C 464 406.528 404.6 432.843 360.9 479.89 C 318.9 524.788 295 586.012 294.7 649.707 C 294.7 657.763 295.1 665.711 295.9 673.66 C 299.4 711.469 309.6 748.204 326 781.931 C 343.4 817.054 367.4 847.989 396.5 872.693 C 431.2 901.587 470.6 923.284 512.8 936.388 C 567.3 953.359 623.9 961.523 680.7 960.771 C 738.8 960.341 796.7 954.326 853.8 942.941 C 859.5 941.759 865.4 943.155 870.2 946.7 C 875.1 950.245 878.4 955.615 879.4 961.845 C 880.5 967.967 879.2 974.305 875.9 979.568 C 872.6 984.724 867.6 988.268 861.8 989.342 C 802.2 1001.265 741.8 1007.495 681.2 1008.032 C 620.1 1008.891 559.2 1000.083 500.5 981.824 C 453 966.893 408.5 942.511 369.4 909.965 C 335.4 881.072 307.4 844.981 287.1 803.95 C 268 764.852 256.1 722.21 252.1 678.386 C 251.2 668.826 250.7 659.267 250.7 649.6 C 251.1 573.338 279.5 500.19 329.9 446.377 C 381.9 390.523 452.6 359.159 526.2 359.374 C 577.2 360.018 627.4 373.445 672.8 398.472 Z " fill="rgb(33,33,33)" />
            <path d=" M 529.4 268.719 C 535.2 269.363 540.5 272.478 544.2 277.312 C 547.8 282.252 549.6 288.482 548.9 294.712 C 548.3 300.942 545.4 306.635 540.9 310.609 C 536.4 314.476 530.6 316.409 524.8 315.765 C 516.2 314.798 507.6 314.261 499 314.261 C 460.7 314.476 422.9 323.821 388.3 341.544 C 353 359.696 321.1 384.938 294.6 415.98 C 238 480.964 206.4 566.571 206 655.615 C 206.5 722.317 224.4 787.516 257.7 843.907 C 277.5 877.634 301.3 908.461 328.5 935.744 C 360.9 968.29 396.7 996.861 435 1021.029 C 440 1024.144 443.7 1029.407 445.1 1035.422 C 446.6 1041.437 445.8 1047.882 442.8 1053.36 C 439.9 1058.73 435 1062.704 429.4 1064.208 C 423.7 1065.819 417.7 1064.96 412.7 1061.738 C 371.6 1035.852 333.3 1005.239 298.4 970.331 C 268.5 940.255 242.4 906.313 220.5 869.149 C 182.8 805.239 162.5 731.34 162 655.615 C 162.3 554.755 198.2 457.548 262.3 383.864 C 292.6 348.418 329 319.632 369.4 298.901 C 409.8 278.063 454.1 267.215 498.9 267 C 509.1 267 519.3 267.537 529.4 268.719 Z " fill="rgb(33,33,33)" />
        </g>
    </g>
</svg>