<?xml version="1.0" standalone="no"?>
<!-- Generator: Gravit.io -->
<svg xmlns="http://www.w3.org/2000/svg" xmlns:xlink="http://www.w3.org/1999/xlink" style="isolation:isolate" viewBox="0 0 1024 1024" width="1024" height="1024">
    <defs>
        <clipPath id="_clipPath_CiYkAvPTLMo1lIotBVVoMPUokFirdpub">
            <rect width="1024" height="1024" />
        </clipPath>
    </defs>
    <g clip-path="url(#_clipPath_CiYkAvPTLMo1lIotBVVoMPUokFirdpub)">
        <rect x="87" y="87" width="850" height="850" transform="matrix(1,0,0,1,0,0)" fill="rgb(96,125,139)" />
        <g id="Blogo">
            <path d=" M 555 479 L 437 411 L 571 360 L 604 372 L 596 481 L 555 479 Z " fill="rgb(255,204,128)" />
            <clipPath id="_clipPath_8z2IGeGtuZQ1DuIJHnvg7woiSLBUw6xy">
                <path d=" M 555 479 L 437 411 L 571 360 L 604 372 L 596 481 L 555 479 Z " fill="rgb(255,204,128)" />
            </clipPath>
            <g clip-path="url(#_clipPath_8z2IGeGtuZQ1DuIJHnvg7woiSLBUw6xy)">
                <path d=" M 499 447 C 522.333 430.333 524.343 409.677 505 385 L 437 411 L 499 447 Z " fill="rgb(0,0,0)" />
            </g>
            <path d=" M 222 265 L 245 234 L 353 584.706 C 366.815 627.619 391.491 667.727 427 705 C 474.89 748.466 535.9 771.143 610 773 C 681.309 770.302 744.902 716.228 786.25 644.25 C 774.733 683.44 746.826 732.533 717 758 C 681 782.5 641.825 794.344 610 797 C 574.667 801.556 540.677 799.232 508 790 C 465.261 777.24 442 769.5 403 737 C 364 704.5 333.232 645.01 319 592 L 289 493 L 222 265 Z " fill="rgb(245,127,23)" />
            <path d=" M 245 234 L 301 216 L 409 573 C 446.467 660.504 505.81 712.181 587 728 C 667.778 737.889 726.121 707.566 762 637 C 779.778 581.667 774.454 529.01 746 479 C 710.906 428.183 654.582 396.86 577 385 C 589.212 375.99 587.242 367.687 571 360 C 657.521 373.19 735.5 420 766 473 C 796.5 526 800.677 582.788 787 641 C 757.222 732.111 675.333 789.333 587 777 C 498.667 764.667 460.387 742.944 423 705 C 391.261 671.542 367.948 633.895 353 592 L 245 234 Z " fill="rgb(251,192,45)" />
            <path d=" M 640.125 684.938 C 652.875 679.125 676.875 661.375 684.875 653.125 C 692.875 644.875 713.663 598.341 697 559 C 680.337 519.659 626.333 487.667 555 479 C 592 476.667 606.667 456.667 583 444 C 672 454.667 721.333 504.961 728 586 C 725.983 648.189 663.91 693.29 614.938 694.25 C 620.25 692.813 627.375 690.75 640.125 684.938 Z " fill="rgb(249,168,37)" />
            <path d=" M 775 573 C 772 690 695.981 729.594 629.27 733 C 584.69 735.276 553.333 722 529 713 C 504.667 704 443.384 661.949 413 584.706 Q 374.362 499.599 301 216 L 342 221 L 427 515 C 461.251 654.263 578.015 706.319 629.27 692 C 680.525 677.681 742 636.667 717 548.088 C 701.064 489.786 656.408 455.1 583 444 C 600.556 423.667 598.566 404.01 577 385 C 696.592 399.059 772 468 775 573 Z " fill="rgb(255,245,157)" />
        </g>
    </g>
</svg>