<?xml version="1.0" standalone="no"?>
<!-- Generator: Gravit.io -->
<svg xmlns="http://www.w3.org/2000/svg" xmlns:xlink="http://www.w3.org/1999/xlink" style="isolation:isolate" viewBox="0 0 1024 1024" width="1024" height="1024">
    <defs>
        <clipPath id="_clipPath_AiBtRKx0cs13Rbua6wUq3DlIsVRz2xSn">
            <rect width="1024" height="1024" />
        </clipPath>
    </defs>
    <g clip-path="url(#_clipPath_AiBtRKx0cs13Rbua6wUq3DlIsVRz2xSn)">
        <rect x="87" y="87" width="850" height="850" transform="matrix(1,0,0,1,0,0)" fill="rgb(238,238,238)" />
        <rect x="213" y="214" width="596" height="595" transform="matrix(1,0,0,1,0,0)" fill="rgb(55,71,79)" />
        <clipPath id="_clipPath_x07w42HU7QIRuhYVpAdVmNcuHB98r9Mw">
            <rect x="213" y="214" width="596" height="595" transform="matrix(1,0,0,1,0,0)" fill="rgb(55,71,79)" />
        </clipPath>
        <g clip-path="url(#_clipPath_x07w42HU7QIRuhYVpAdVmNcuHB98r9Mw)">
            <g id="hexagons with lines">
                <path d=" M 209.852 273.768 L 230.188 238.543 L 270.862 238.543 L 291.199 273.768 L 270.862 308.992 L 230.188 308.992 L 209.852 273.768 Z " fill-rule="evenodd" fill="rgb(38,50,56)" />
                <path d=" M 334.363 273.768 L 354.7 238.543 L 395.374 238.543 L 415.711 273.768 L 395.374 308.992 L 354.7 308.992 L 334.363 273.768 Z " fill-rule="evenodd" fill="rgb(38,50,56)" />
                <path d=" M 458.875 273.768 L 479.212 238.543 L 519.886 238.543 L 540.223 273.768 L 519.886 308.992 L 479.212 308.992 L 458.875 273.768 Z " fill-rule="evenodd" fill="rgb(38,50,56)" />
                <path d=" M 583.387 273.768 L 603.724 238.543 L 644.397 238.543 L 664.734 273.768 L 644.397 308.992 L 603.724 308.992 L 583.387 273.768 Z " fill-rule="evenodd" fill="rgb(38,50,56)" />
                <path d=" M 707.898 273.768 L 728.235 238.543 L 768.909 238.543 L 789.246 273.768 L 768.909 308.992 L 728.235 308.992 L 707.898 273.768 Z " fill-rule="evenodd" fill="rgb(38,50,56)" />
                <path d=" M 209.852 512.83 L 230.188 477.606 L 270.862 477.606 L 291.199 512.83 L 270.862 548.055 L 230.188 548.055 L 209.852 512.83 Z " fill-rule="evenodd" fill="rgb(38,50,56)" />
                <path d=" M 334.363 512.83 L 354.7 477.606 L 395.374 477.606 L 415.711 512.83 L 395.374 548.055 L 354.7 548.055 L 334.363 512.83 Z " fill-rule="evenodd" fill="rgb(38,50,56)" />
                <path d=" M 458.875 512.83 L 479.212 477.606 L 519.886 477.606 L 540.223 512.83 L 519.886 548.055 L 479.212 548.055 L 458.875 512.83 Z " fill-rule="evenodd" fill="rgb(38,50,56)" />
                <path d=" M 583.387 512.83 L 603.724 477.606 L 644.397 477.606 L 664.734 512.83 L 644.397 548.055 L 603.724 548.055 L 583.387 512.83 Z " fill-rule="evenodd" fill="rgb(38,50,56)" />
                <path d=" M 707.898 512.83 L 728.235 477.606 L 768.909 477.606 L 789.246 512.83 L 768.909 548.055 L 728.235 548.055 L 707.898 512.83 Z " fill-rule="evenodd" fill="rgb(38,50,56)" />
                <path d=" M 209.852 753.553 L 230.188 718.328 L 270.862 718.328 L 291.199 753.553 L 270.862 788.777 L 230.188 788.777 L 209.852 753.553 Z " fill-rule="evenodd" fill="rgb(38,50,56)" />
                <path d=" M 334.363 753.553 L 354.7 718.328 L 395.374 718.328 L 415.711 753.553 L 395.374 788.777 L 354.7 788.777 L 334.363 753.553 Z " fill-rule="evenodd" fill="rgb(38,50,56)" />
                <path d=" M 458.875 753.553 L 479.212 718.328 L 519.886 718.328 L 540.223 753.553 L 519.886 788.777 L 479.212 788.777 L 458.875 753.553 Z " fill-rule="evenodd" fill="rgb(38,50,56)" />
                <path d=" M 583.387 753.553 L 603.724 718.328 L 644.397 718.328 L 664.734 753.553 L 644.397 788.777 L 603.724 788.777 L 583.387 753.553 Z " fill-rule="evenodd" fill="rgb(38,50,56)" />
                <path d=" M 707.898 753.553 L 728.235 718.328 L 768.909 718.328 L 789.246 753.553 L 768.909 788.777 L 728.235 788.777 L 707.898 753.553 Z " fill-rule="evenodd" fill="rgb(38,50,56)" />
                <path d=" M 272.107 392.469 L 292.444 357.244 L 333.118 357.244 L 353.455 392.469 L 333.118 427.693 L 292.444 427.693 L 272.107 392.469 Z " fill-rule="evenodd" fill="rgb(38,50,56)" />
                <path d=" M 396.619 392.469 L 416.956 357.244 L 457.63 357.244 L 477.967 392.469 L 457.63 427.693 L 416.956 427.693 L 396.619 392.469 Z " fill-rule="evenodd" fill="rgb(38,50,56)" />
                <path d=" M 521.131 392.469 L 541.468 357.244 L 582.142 357.244 L 602.479 392.469 L 582.142 427.693 L 541.468 427.693 L 521.131 392.469 Z " fill-rule="evenodd" fill="rgb(38,50,56)" />
                <path d=" M 645.643 392.469 L 665.979 357.244 L 706.653 357.244 L 726.99 392.469 L 706.653 427.693 L 665.979 427.693 L 645.643 392.469 Z " fill-rule="evenodd" fill="rgb(38,50,56)" />
                <path d=" M 770.154 392.469 L 790.491 357.244 L 831.165 357.244 L 851.502 392.469 L 831.165 427.693 L 790.491 427.693 L 770.154 392.469 Z " fill-rule="evenodd" fill="rgb(38,50,56)" />
                <path d=" M 272.107 633.191 L 292.444 597.967 L 333.118 597.967 L 353.455 633.191 L 333.118 668.416 L 292.444 668.416 L 272.107 633.191 Z " fill-rule="evenodd" fill="rgb(38,50,56)" />
                <path d=" M 396.619 633.191 L 416.956 597.967 L 457.63 597.967 L 477.967 633.191 L 457.63 668.416 L 416.956 668.416 L 396.619 633.191 Z " fill-rule="evenodd" fill="rgb(38,50,56)" />
                <path d=" M 521.131 633.191 L 541.468 597.967 L 582.142 597.967 L 602.479 633.191 L 582.142 668.416 L 541.468 668.416 L 521.131 633.191 Z " fill-rule="evenodd" fill="rgb(38,50,56)" />
                <path d=" M 645.643 633.191 L 665.979 597.967 L 706.653 597.967 L 726.99 633.191 L 706.653 668.416 L 665.979 668.416 L 645.643 633.191 Z " fill-rule="evenodd" fill="rgb(38,50,56)" />
                <path d=" M 770.154 633.191 L 790.491 597.967 L 831.165 597.967 L 851.502 633.191 L 831.165 668.416 L 790.491 668.416 L 770.154 633.191 Z " fill-rule="evenodd" fill="rgb(38,50,56)" />
                <path d=" M 213.3 214.4 L 211.9 211.8 L 217.2 208.9 L 218.7 211.6 L 535 809.8 L 536.4 812.5 L 531.1 815.3 L 529.7 812.6 L 213.3 214.4 Z " fill="rgb(38,50,56)" />
                <path d=" M 529.7 211.4 L 531.1 208.7 L 536.4 211.5 L 535 214.2 L 218.7 816.4 L 217.3 819.1 L 211.9 816.3 L 213.3 813.6 L 529.7 211.4 Z " fill="rgb(38,50,56)" />
                <path d=" M 783.7 211.3 L 785.1 208.7 L 790.4 211.5 L 789 214.2 L 468.6 805.2 L 467.1 807.8 L 461.9 805 L 463.3 802.3 L 783.7 211.3 Z " fill="rgb(38,50,56)" />
                <path d=" M 338.8 215.8 L 337.4 213.2 L 342.7 210.4 L 344.1 213 L 661.2 809.8 L 662.6 812.5 L 657.3 815.3 L 655.9 812.7 L 338.8 215.8 Z " fill="rgb(38,50,56)" />
                <path d=" M 655.9 213 L 657.3 210.4 L 662.6 213.2 L 661.2 215.8 L 344.1 812.7 L 342.7 815.3 L 337.4 812.5 L 338.8 809.8 L 655.9 213 Z " fill="rgb(38,50,56)" />
                <path d=" M 467.4 220.8 L 466 218.1 L 471.3 215.3 L 472.7 218 L 785.7 809.8 L 787.1 812.5 L 781.8 815.3 L 780.4 812.6 L 467.4 220.8 Z " fill="rgb(38,50,56)" />
                <path d=" M 589.4 214.4 L 588 211.7 L 593.4 208.9 L 594.8 211.6 L 871.2 735.1 L 872.6 737.8 L 867.3 740.6 L 865.9 737.9 L 589.4 214.4 Z " fill="rgb(38,50,56)" />
                <path d=" M 716.4 220 L 715.1 217.3 L 720.4 214.5 L 721.8 217.2 L 867 493.6 L 868.4 496.2 L 863.1 499 L 861.7 496.4 L 716.4 220 Z " fill="rgb(38,50,56)" />
                <path d=" M 207.2 442.4 L 205.8 439.8 L 211.1 436.9 L 212.5 439.6 L 411.3 809.8 L 412.7 812.5 L 407.4 815.3 L 406 812.7 L 207.2 442.4 Z " fill="rgb(38,50,56)" />
                <path d=" M 794.5 419.7 L 795.9 417.1 L 801.2 419.8 L 799.8 422.5 L 594.8 812.6 L 593.4 815.3 L 588.1 812.5 L 589.4 809.8 L 794.5 419.7 Z " fill="rgb(38,50,56)" />
                <path d=" M 828.5 600.6 L 830 598 L 835.2 600.9 L 833.8 603.5 L 718.4 812.7 L 717 815.3 L 711.7 812.4 L 713.2 809.8 L 828.5 600.6 Z " fill="rgb(38,50,56)" />
                <path d=" M 413.1 211.3 L 414.6 208.7 L 419.8 211.6 L 418.3 214.2 L 212.5 578.5 L 211 581.1 L 205.8 578.1 L 207.2 575.5 L 413.1 211.3 Z " fill="rgb(38,50,56)" />
                <path d=" M 278.3 218.6 L 279.9 216.1 L 285 219.3 L 283.3 221.9 L 167.1 402 L 165.5 404.5 L 160.5 401.2 L 162.1 398.7 L 278.3 218.6 Z " fill="rgb(38,50,56)" />
                <path d=" M 160.4 611.9 L 158.8 609.3 L 164 606.2 L 165.5 608.8 L 286.7 809.7 L 288.3 812.3 L 283.1 815.4 L 281.6 812.8 L 160.4 611.9 Z " fill="rgb(38,50,56)" />
                <path d=" M 211 276 L 208 276 L 208 270 L 211 270 L 802.1 271.2 L 805.1 271.2 L 805.1 277.2 L 802.1 277.2 L 211 276 Z " fill="rgb(38,50,56)" />
                <path d=" M 221.1 395.9 L 218.1 395.9 L 218.1 389.9 L 221.1 389.9 L 802.1 389.9 L 805.1 389.9 L 805.1 395.9 L 802.1 395.9 L 221.1 395.9 Z " fill="rgb(38,50,56)" />
                <path d=" M 203 636.2 L 200 636.2 L 200 630.2 L 203 630.2 L 802.1 630.6 L 805.1 630.6 L 805.1 636.6 L 802.1 636.6 L 203 636.2 Z " fill="rgb(38,50,56)" />
                <path d=" M 221.1 757.8 L 218.1 757.8 L 218.1 751.8 L 221.1 751.8 L 802.1 751.8 L 805.1 751.8 L 805.1 757.8 L 802.1 757.8 L 221.1 757.8 Z " fill="rgb(38,50,56)" />
                <path d=" M 209.9 515.8 L 206.9 515.8 L 206.8 509.8 L 209.8 509.8 L 802.1 509.4 L 805.1 509.4 L 805.1 515.4 L 802.1 515.4 L 209.9 515.8 Z " fill="rgb(38,50,56)" />
            </g>
        </g>
        <g id="Bluestacks logo">
            <path d="M 308.718 548.511 L 511.462 442.318 C 521.02 437.312 535.921 438.321 544.717 444.57 L 716.663 566.731 C 725.458 572.98 724.84 582.118 715.282 587.124 L 512.538 693.317 C 502.98 698.323 488.079 697.314 479.283 691.065 L 307.337 568.904 C 298.542 562.655 299.16 553.517 308.718 548.511 Z" style="stroke:none;fill:#1976D2;stroke-miterlimit:10;" />
            <path d="M 308.718 510.966 L 511.462 404.773 C 521.02 399.767 535.921 400.776 544.717 407.025 L 716.663 529.186 C 725.458 535.435 724.84 544.573 715.282 549.579 L 512.538 655.772 C 502.98 660.778 488.079 659.769 479.283 653.52 L 307.337 531.359 C 298.542 525.11 299.16 515.972 308.718 510.966 Z" style="stroke:none;fill:#D32F2F;stroke-miterlimit:10;" />
            <path d="M 308.718 473.421 L 511.462 367.228 C 521.02 362.222 535.921 363.231 544.717 369.48 L 716.663 491.641 C 725.458 497.89 724.84 507.028 715.282 512.034 L 512.538 618.227 C 502.98 623.233 488.079 622.224 479.283 615.975 L 307.337 493.814 C 298.542 487.565 299.16 478.427 308.718 473.421 Z" style="stroke:none;fill:#FBC02D;stroke-miterlimit:10;" />
            <path d="M 308.718 435.876 L 511.462 329.683 C 521.02 324.677 535.921 325.686 544.717 331.935 L 716.663 454.096 C 725.458 460.345 724.84 469.483 715.282 474.489 L 512.538 580.682 C 502.98 585.688 488.079 584.679 479.283 578.43 L 307.337 456.269 C 298.542 450.02 299.16 440.882 308.718 435.876 Z" style="stroke:none;fill:#388E3C;stroke-miterlimit:10;" />
        </g>
        <g id="Linux Mint logo">
            <path d=" M 546.609 907.96 C 546.609 897.784 546.609 873.779 546.609 873.779 C 546.609 862.36 536.594 853.103 524.238 853.103 L 511.414 853.103 L 511.414 853.075 L 476.728 852.924 L 476.728 865.395 C 476.728 865.395 479.56 865.395 482.053 865.395 C 485.769 865.395 486.426 867.961 486.426 871.512 L 486.453 893.56 C 486.453 904.979 496.468 914.236 508.81 914.236 L 539.284 914.236 C 543.19 914.236 546.609 911.762 546.609 907.96 L 546.609 907.96 Z " fill-rule="evenodd" fill="rgb(156,204,101)" />
            <path d=" M 543.924 911.286 C 536.131 905.916 530.272 899.308 525.623 891.142 C 516.458 874.211 519.005 863.227 495.905 862.946 C 489.356 862.946 484.21 862.946 477.316 862.946 L 477.316 865.916 Q 481.638 865.566 483.499 866.881 Q 485.263 868.127 486.453 872.048 L 486.453 892.964 C 486.453 903.936 496.952 913.534 508.81 913.534 L 538.193 913.534 C 540.342 913.534 542.611 912.637 543.924 911.286 Z " fill="rgb(139,195,74)" />
            <path d=" M 516.462 865.916 C 513.682 865.916 511.211 866.948 509.225 868.954 C 507.241 870.958 506.199 873.46 506.199 876.284 L 506.199 890.559 L 512.674 890.559 L 512.674 876.284 C 512.674 875.202 513.027 874.356 513.8 873.575 C 514.575 872.792 515.396 872.437 516.462 872.437 C 517.551 872.437 518.36 872.79 519.137 873.575 C 519.91 874.356 520.263 875.202 520.263 876.284 L 520.263 890.559 L 526.738 890.559 L 526.738 876.284 C 526.738 875.202 527.091 874.356 527.864 873.575 C 528.641 872.79 529.449 872.437 530.538 872.437 C 531.604 872.437 532.425 872.792 533.201 873.575 C 533.973 874.356 534.327 875.202 534.327 876.284 L 534.362 892.964 C 534.362 896.522 530.973 899.521 526.62 899.521 L 505.742 899.439 C 502.382 899.439 499.513 896.169 499.513 891.967 L 499.513 860.557 L 493.39 860.557 L 493.39 893.175 C 493.39 896.636 494.657 899.671 497.12 902.125 C 499.226 904.203 501.759 905.433 504.604 905.737 L 504.604 905.855 L 527.852 905.855 C 531.424 905.855 534.563 904.526 537.095 901.949 L 537.107 901.949 C 539.26 899.736 540.519 897.085 540.825 894.102 L 540.801 876.284 C 540.801 873.46 539.759 870.958 537.775 868.954 C 535.79 866.948 533.319 865.916 530.538 865.916 C 527.808 865.916 525.42 866.931 523.488 868.789 C 521.563 866.934 519.191 865.916 516.462 865.916 L 516.462 865.916 Z " fill-rule="evenodd" fill="rgb(0,0,0)" fill-opacity="0.08040203" />
            <path d=" M 515.945 866.086 C 513.165 866.086 510.694 867.118 508.708 869.124 C 506.724 871.128 505.682 873.63 505.682 876.454 L 505.682 890.729 L 512.157 890.729 L 512.157 876.454 C 512.157 875.372 512.51 874.526 513.283 873.745 C 514.058 872.962 514.879 872.607 515.945 872.607 C 517.034 872.607 517.843 872.96 518.62 873.745 C 519.393 874.526 519.746 875.372 519.746 876.454 L 519.746 890.729 L 526.22 890.729 L 526.22 876.454 C 526.22 875.372 526.574 874.526 527.347 873.745 C 528.124 872.96 528.932 872.607 530.021 872.607 C 531.087 872.607 531.908 872.962 532.683 873.745 C 533.456 874.526 533.81 875.372 533.81 876.454 L 533.845 893.134 C 533.845 896.692 530.456 899.691 526.103 899.691 L 505.225 899.609 C 501.865 899.609 498.996 896.339 498.996 892.137 L 498.996 860.727 L 492.873 860.727 L 492.873 893.345 C 492.873 896.806 494.14 899.841 496.603 902.295 C 498.709 904.373 501.241 905.721 504.087 906.025 L 527.335 906.025 C 530.907 906.025 534.046 904.696 536.578 902.119 L 536.589 902.119 C 538.743 899.906 540.002 897.255 540.308 894.272 L 540.284 876.454 C 540.284 873.63 539.242 871.128 537.258 869.124 C 535.273 867.118 532.802 866.086 530.021 866.086 C 527.291 866.086 524.903 867.101 522.971 868.959 C 521.046 867.104 518.674 866.086 515.945 866.086 L 515.945 866.086 Z " fill-rule="evenodd" fill="rgb(255,255,255)" />
            <path d=" M 512.138 899.63 L 512.138 906.025 L 527.346 906.025 C 530.918 906.025 534.038 904.692 536.57 902.115 L 536.592 902.115 C 538.746 899.902 540.002 897.256 540.308 894.273 L 540.308 890.644 L 533.849 890.644 L 533.849 893.128 C 533.849 896.686 530.468 899.674 526.115 899.674 L 512.138 899.63 L 512.138 899.63 Z " fill-rule="evenodd" fill="rgb(197,225,165)" />
            <path d=" M 508.608 918.97 C 493.89 918.97 481.118 907.812 481.118 893.108 L 481.105 875.254 L 481.105 870.701 L 471.774 870.701 L 471.774 848.016 L 511.122 848.201 L 523.431 848.227 C 538.162 848.227 550.921 859.371 550.921 874.089 L 550.921 918.97 L 508.608 918.97 L 508.608 918.97 L 508.608 918.97 L 508.608 918.97 Z  M 544.925 906.93 C 544.925 897.153 544.925 874.089 544.925 874.089 C 544.925 863.117 535.303 854.223 523.431 854.223 L 511.109 854.223 L 511.109 854.196 L 477.783 854.051 L 477.783 864.705 C 477.783 864.705 479.121 864.705 481.516 864.705 C 484.051 864.705 487.1 867.087 487.1 870.582 L 487.127 893.095 C 487.127 904.067 496.749 912.961 508.608 912.961 L 537.887 912.961 C 541.64 912.961 544.925 910.584 544.925 906.93 L 544.925 906.93 Z " fill-rule="evenodd" fill="rgb(255,255,255)" />
        </g>
        <path d=" M 218.098 218.098 L 218.098 805.053 L 805.053 805.053 L 805.053 218.098 L 218.098 218.098 Z  M 196 196 L 196 827.1 L 827.1 827.1 L 827.1 196 L 196 196 Z " fill-rule="evenodd" fill="rgb(33,33,33)" />
    </g>
</svg>