<?xml version="1.0" standalone="no"?>
<!-- Generator: Gravit.io -->
<svg xmlns="http://www.w3.org/2000/svg" xmlns:xlink="http://www.w3.org/1999/xlink" style="isolation:isolate" viewBox="0 0 1024 1024" width="1024" height="1024">
    <defs>
        <clipPath id="_clipPath_LvVmiGGO9LtLFTfiYd4kX6KU07uP2sUN">
            <rect width="1024" height="1024" />
        </clipPath>
    </defs>
    <g clip-path="url(#_clipPath_LvVmiGGO9LtLFTfiYd4kX6KU07uP2sUN)">
        <rect x="87" y="87" width="850" height="850" transform="matrix(1,0,0,1,0,0)" fill="rgb(238,238,238)" />
        <rect x="213" y="214" width="596" height="595" transform="matrix(1,0,0,1,0,0)" fill="rgb(55,71,79)" />
        <clipPath id="_clipPath_IzghuE2Kdd4Fjn7WrXFdhrzBmD7ZjmVX">
            <rect x="213" y="214" width="596" height="595" transform="matrix(1,0,0,1,0,0)" fill="rgb(55,71,79)" />
        </clipPath>
        <g clip-path="url(#_clipPath_IzghuE2Kdd4Fjn7WrXFdhrzBmD7ZjmVX)">
            <g id="hexagons with lines">
                <path d=" M 209.852 273.768 L 230.188 238.543 L 270.862 238.543 L 291.199 273.768 L 270.862 308.992 L 230.188 308.992 L 209.852 273.768 Z " fill-rule="evenodd" fill="rgb(38,50,56)" />
                <path d=" M 334.363 273.768 L 354.7 238.543 L 395.374 238.543 L 415.711 273.768 L 395.374 308.992 L 354.7 308.992 L 334.363 273.768 Z " fill-rule="evenodd" fill="rgb(38,50,56)" />
                <path d=" M 458.875 273.768 L 479.212 238.543 L 519.886 238.543 L 540.223 273.768 L 519.886 308.992 L 479.212 308.992 L 458.875 273.768 Z " fill-rule="evenodd" fill="rgb(38,50,56)" />
                <path d=" M 583.387 273.768 L 603.724 238.543 L 644.397 238.543 L 664.734 273.768 L 644.397 308.992 L 603.724 308.992 L 583.387 273.768 Z " fill-rule="evenodd" fill="rgb(38,50,56)" />
                <path d=" M 707.898 273.768 L 728.235 238.543 L 768.909 238.543 L 789.246 273.768 L 768.909 308.992 L 728.235 308.992 L 707.898 273.768 Z " fill-rule="evenodd" fill="rgb(38,50,56)" />
                <path d=" M 209.852 512.83 L 230.188 477.606 L 270.862 477.606 L 291.199 512.83 L 270.862 548.055 L 230.188 548.055 L 209.852 512.83 Z " fill-rule="evenodd" fill="rgb(38,50,56)" />
                <path d=" M 334.363 512.83 L 354.7 477.606 L 395.374 477.606 L 415.711 512.83 L 395.374 548.055 L 354.7 548.055 L 334.363 512.83 Z " fill-rule="evenodd" fill="rgb(38,50,56)" />
                <path d=" M 458.875 512.83 L 479.212 477.606 L 519.886 477.606 L 540.223 512.83 L 519.886 548.055 L 479.212 548.055 L 458.875 512.83 Z " fill-rule="evenodd" fill="rgb(38,50,56)" />
                <path d=" M 583.387 512.83 L 603.724 477.606 L 644.397 477.606 L 664.734 512.83 L 644.397 548.055 L 603.724 548.055 L 583.387 512.83 Z " fill-rule="evenodd" fill="rgb(38,50,56)" />
                <path d=" M 707.898 512.83 L 728.235 477.606 L 768.909 477.606 L 789.246 512.83 L 768.909 548.055 L 728.235 548.055 L 707.898 512.83 Z " fill-rule="evenodd" fill="rgb(38,50,56)" />
                <path d=" M 209.852 753.553 L 230.188 718.328 L 270.862 718.328 L 291.199 753.553 L 270.862 788.777 L 230.188 788.777 L 209.852 753.553 Z " fill-rule="evenodd" fill="rgb(38,50,56)" />
                <path d=" M 334.363 753.553 L 354.7 718.328 L 395.374 718.328 L 415.711 753.553 L 395.374 788.777 L 354.7 788.777 L 334.363 753.553 Z " fill-rule="evenodd" fill="rgb(38,50,56)" />
                <path d=" M 458.875 753.553 L 479.212 718.328 L 519.886 718.328 L 540.223 753.553 L 519.886 788.777 L 479.212 788.777 L 458.875 753.553 Z " fill-rule="evenodd" fill="rgb(38,50,56)" />
                <path d=" M 583.387 753.553 L 603.724 718.328 L 644.397 718.328 L 664.734 753.553 L 644.397 788.777 L 603.724 788.777 L 583.387 753.553 Z " fill-rule="evenodd" fill="rgb(38,50,56)" />
                <path d=" M 707.898 753.553 L 728.235 718.328 L 768.909 718.328 L 789.246 753.553 L 768.909 788.777 L 728.235 788.777 L 707.898 753.553 Z " fill-rule="evenodd" fill="rgb(38,50,56)" />
                <path d=" M 272.107 392.469 L 292.444 357.244 L 333.118 357.244 L 353.455 392.469 L 333.118 427.693 L 292.444 427.693 L 272.107 392.469 Z " fill-rule="evenodd" fill="rgb(38,50,56)" />
                <path d=" M 396.619 392.469 L 416.956 357.244 L 457.63 357.244 L 477.967 392.469 L 457.63 427.693 L 416.956 427.693 L 396.619 392.469 Z " fill-rule="evenodd" fill="rgb(38,50,56)" />
                <path d=" M 521.131 392.469 L 541.468 357.244 L 582.142 357.244 L 602.479 392.469 L 582.142 427.693 L 541.468 427.693 L 521.131 392.469 Z " fill-rule="evenodd" fill="rgb(38,50,56)" />
                <path d=" M 645.643 392.469 L 665.979 357.244 L 706.653 357.244 L 726.99 392.469 L 706.653 427.693 L 665.979 427.693 L 645.643 392.469 Z " fill-rule="evenodd" fill="rgb(38,50,56)" />
                <path d=" M 770.154 392.469 L 790.491 357.244 L 831.165 357.244 L 851.502 392.469 L 831.165 427.693 L 790.491 427.693 L 770.154 392.469 Z " fill-rule="evenodd" fill="rgb(38,50,56)" />
                <path d=" M 272.107 633.191 L 292.444 597.967 L 333.118 597.967 L 353.455 633.191 L 333.118 668.416 L 292.444 668.416 L 272.107 633.191 Z " fill-rule="evenodd" fill="rgb(38,50,56)" />
                <path d=" M 396.619 633.191 L 416.956 597.967 L 457.63 597.967 L 477.967 633.191 L 457.63 668.416 L 416.956 668.416 L 396.619 633.191 Z " fill-rule="evenodd" fill="rgb(38,50,56)" />
                <path d=" M 521.131 633.191 L 541.468 597.967 L 582.142 597.967 L 602.479 633.191 L 582.142 668.416 L 541.468 668.416 L 521.131 633.191 Z " fill-rule="evenodd" fill="rgb(38,50,56)" />
                <path d=" M 645.643 633.191 L 665.979 597.967 L 706.653 597.967 L 726.99 633.191 L 706.653 668.416 L 665.979 668.416 L 645.643 633.191 Z " fill-rule="evenodd" fill="rgb(38,50,56)" />
                <path d=" M 770.154 633.191 L 790.491 597.967 L 831.165 597.967 L 851.502 633.191 L 831.165 668.416 L 790.491 668.416 L 770.154 633.191 Z " fill-rule="evenodd" fill="rgb(38,50,56)" />
                <path d=" M 213.3 214.4 L 211.9 211.8 L 217.2 208.9 L 218.7 211.6 L 535 809.8 L 536.4 812.5 L 531.1 815.3 L 529.7 812.6 L 213.3 214.4 Z " fill="rgb(38,50,56)" />
                <path d=" M 529.7 211.4 L 531.1 208.7 L 536.4 211.5 L 535 214.2 L 218.7 816.4 L 217.3 819.1 L 211.9 816.3 L 213.3 813.6 L 529.7 211.4 Z " fill="rgb(38,50,56)" />
                <path d=" M 783.7 211.3 L 785.1 208.7 L 790.4 211.5 L 789 214.2 L 468.6 805.2 L 467.1 807.8 L 461.9 805 L 463.3 802.3 L 783.7 211.3 Z " fill="rgb(38,50,56)" />
                <path d=" M 338.8 215.8 L 337.4 213.2 L 342.7 210.4 L 344.1 213 L 661.2 809.8 L 662.6 812.5 L 657.3 815.3 L 655.9 812.7 L 338.8 215.8 Z " fill="rgb(38,50,56)" />
                <path d=" M 655.9 213 L 657.3 210.4 L 662.6 213.2 L 661.2 215.8 L 344.1 812.7 L 342.7 815.3 L 337.4 812.5 L 338.8 809.8 L 655.9 213 Z " fill="rgb(38,50,56)" />
                <path d=" M 467.4 220.8 L 466 218.1 L 471.3 215.3 L 472.7 218 L 785.7 809.8 L 787.1 812.5 L 781.8 815.3 L 780.4 812.6 L 467.4 220.8 Z " fill="rgb(38,50,56)" />
                <path d=" M 589.4 214.4 L 588 211.7 L 593.4 208.9 L 594.8 211.6 L 871.2 735.1 L 872.6 737.8 L 867.3 740.6 L 865.9 737.9 L 589.4 214.4 Z " fill="rgb(38,50,56)" />
                <path d=" M 716.4 220 L 715.1 217.3 L 720.4 214.5 L 721.8 217.2 L 867 493.6 L 868.4 496.2 L 863.1 499 L 861.7 496.4 L 716.4 220 Z " fill="rgb(38,50,56)" />
                <path d=" M 207.2 442.4 L 205.8 439.8 L 211.1 436.9 L 212.5 439.6 L 411.3 809.8 L 412.7 812.5 L 407.4 815.3 L 406 812.7 L 207.2 442.4 Z " fill="rgb(38,50,56)" />
                <path d=" M 794.5 419.7 L 795.9 417.1 L 801.2 419.8 L 799.8 422.5 L 594.8 812.6 L 593.4 815.3 L 588.1 812.5 L 589.4 809.8 L 794.5 419.7 Z " fill="rgb(38,50,56)" />
                <path d=" M 828.5 600.6 L 830 598 L 835.2 600.9 L 833.8 603.5 L 718.4 812.7 L 717 815.3 L 711.7 812.4 L 713.2 809.8 L 828.5 600.6 Z " fill="rgb(38,50,56)" />
                <path d=" M 413.1 211.3 L 414.6 208.7 L 419.8 211.6 L 418.3 214.2 L 212.5 578.5 L 211 581.1 L 205.8 578.1 L 207.2 575.5 L 413.1 211.3 Z " fill="rgb(38,50,56)" />
                <path d=" M 278.3 218.6 L 279.9 216.1 L 285 219.3 L 283.3 221.9 L 167.1 402 L 165.5 404.5 L 160.5 401.2 L 162.1 398.7 L 278.3 218.6 Z " fill="rgb(38,50,56)" />
                <path d=" M 160.4 611.9 L 158.8 609.3 L 164 606.2 L 165.5 608.8 L 286.7 809.7 L 288.3 812.3 L 283.1 815.4 L 281.6 812.8 L 160.4 611.9 Z " fill="rgb(38,50,56)" />
                <path d=" M 211 276 L 208 276 L 208 270 L 211 270 L 802.1 271.2 L 805.1 271.2 L 805.1 277.2 L 802.1 277.2 L 211 276 Z " fill="rgb(38,50,56)" />
                <path d=" M 221.1 395.9 L 218.1 395.9 L 218.1 389.9 L 221.1 389.9 L 802.1 389.9 L 805.1 389.9 L 805.1 395.9 L 802.1 395.9 L 221.1 395.9 Z " fill="rgb(38,50,56)" />
                <path d=" M 203 636.2 L 200 636.2 L 200 630.2 L 203 630.2 L 802.1 630.6 L 805.1 630.6 L 805.1 636.6 L 802.1 636.6 L 203 636.2 Z " fill="rgb(38,50,56)" />
                <path d=" M 221.1 757.8 L 218.1 757.8 L 218.1 751.8 L 221.1 751.8 L 802.1 751.8 L 805.1 751.8 L 805.1 757.8 L 802.1 757.8 L 221.1 757.8 Z " fill="rgb(38,50,56)" />
                <path d=" M 209.9 515.8 L 206.9 515.8 L 206.8 509.8 L 209.8 509.8 L 802.1 509.4 L 805.1 509.4 L 805.1 515.4 L 802.1 515.4 L 209.9 515.8 Z " fill="rgb(38,50,56)" />
            </g>
        </g>
        <g id="Bluestacks logo">
            <path d="M 308.718 548.511 L 511.462 442.318 C 521.02 437.312 535.921 438.321 544.717 444.57 L 716.663 566.731 C 725.458 572.98 724.84 582.118 715.282 587.124 L 512.538 693.317 C 502.98 698.323 488.079 697.314 479.283 691.065 L 307.337 568.904 C 298.542 562.655 299.16 553.517 308.718 548.511 Z" style="stroke:none;fill:#1976D2;stroke-miterlimit:10;" />
            <path d="M 308.718 510.966 L 511.462 404.773 C 521.02 399.767 535.921 400.776 544.717 407.025 L 716.663 529.186 C 725.458 535.435 724.84 544.573 715.282 549.579 L 512.538 655.772 C 502.98 660.778 488.079 659.769 479.283 653.52 L 307.337 531.359 C 298.542 525.11 299.16 515.972 308.718 510.966 Z" style="stroke:none;fill:#D32F2F;stroke-miterlimit:10;" />
            <path d="M 308.718 473.421 L 511.462 367.228 C 521.02 362.222 535.921 363.231 544.717 369.48 L 716.663 491.641 C 725.458 497.89 724.84 507.028 715.282 512.034 L 512.538 618.227 C 502.98 623.233 488.079 622.224 479.283 615.975 L 307.337 493.814 C 298.542 487.565 299.16 478.427 308.718 473.421 Z" style="stroke:none;fill:#FBC02D;stroke-miterlimit:10;" />
            <path d="M 308.718 435.876 L 511.462 329.683 C 521.02 324.677 535.921 325.686 544.717 331.935 L 716.663 454.096 C 725.458 460.345 724.84 469.483 715.282 474.489 L 512.538 580.682 C 502.98 585.688 488.079 584.679 479.283 578.43 L 307.337 456.269 C 298.542 450.02 299.16 440.882 308.718 435.876 Z" style="stroke:none;fill:#388E3C;stroke-miterlimit:10;" />
        </g>
        <path d=" M 549 842.472 L 512 847.674 L 512 875.772 L 549 875.772 L 549 842.472 Z  M 504.6 848.717 L 475 852.876 L 475 875.772 L 504.6 875.772 L 504.6 848.717 Z  M 475 883.172 L 475 906.067 L 504.6 910.23 L 504.6 883.172 L 475 883.172 Z  M 512 883.172 L 512 911.27 L 549 916.472 L 549 883.172 L 512 883.172 Z " fill="rgb(40,53,147)" />
        <path d=" M 218.098 218.098 L 218.098 805.053 L 805.053 805.053 L 805.053 218.098 L 218.098 218.098 Z  M 196 196 L 196 827.1 L 827.1 827.1 L 827.1 196 L 196 196 Z " fill-rule="evenodd" fill="rgb(33,33,33)" />
    </g>
</svg>