<?xml version="1.0" standalone="no"?><!-- Generator: Gravit.io --><svg xmlns="http://www.w3.org/2000/svg" xmlns:xlink="http://www.w3.org/1999/xlink" style="isolation:isolate" viewBox="0 0 1024 1024" width="1024" height="1024"><defs><clipPath id="_clipPath_vsGT9IXBRmnICjNr7CttwZRhbi0iEF3a"><rect width="1024" height="1024"/></clipPath></defs><g clip-path="url(#_clipPath_vsGT9IXBRmnICjNr7CttwZRhbi0iEF3a)"><rect x="87" y="87" width="850" height="850" transform="matrix(1,0,0,1,0,0)" fill="rgb(235,235,235)"/><path d=" M 87 87 L 937 87 L 937 937 L 87 937 L 87 87 Z  M 115.977 115.977 L 908.023 115.977 L 908.023 908.023 L 115.977 908.023 L 115.977 115.977 Z " fill-rule="evenodd" fill="rgb(13,71,161)"/><path d=" M 491.747 262 L 491.747 454.197 L 412.923 374.579 L 378.351 409.175 L 481.993 512 L 378.351 614.849 L 412.947 649.421 L 491.747 569.803 L 491.747 762 L 533.046 721.47 L 629.144 625.372 L 645.649 608.098 L 629.144 590.825 L 559.304 521.754 L 550.319 512 L 629.12 433.175 L 645.649 415.902 L 629.144 398.628 L 533.046 302.53 L 491.747 262 Z  M 539.796 378.351 L 577.347 415.902 L 539.796 453.452 L 539.796 378.351 Z  M 539.796 570.548 L 577.347 608.098 L 539.796 645.649 L 539.796 570.548 Z " fill="rgb(13,71,161)"/></g></svg>