<?xml version="1.0" standalone="no"?>
<!-- Generator: Gravit.io -->
<svg xmlns="http://www.w3.org/2000/svg" xmlns:xlink="http://www.w3.org/1999/xlink" style="isolation:isolate" viewBox="0 0 1024 1024" width="1024" height="1024">
    <defs>
        <clipPath id="_clipPath_ZGhiNvpmUjtHLcA2FhqLCNsNEKDcNMuG">
            <rect width="1024" height="1024" />
        </clipPath>
    </defs>
    <g clip-path="url(#_clipPath_ZGhiNvpmUjtHLcA2FhqLCNsNEKDcNMuG)">
        <rect x="87" y="87" width="850" height="850" transform="matrix(1,0,0,1,0,0)" fill="rgb(189,189,189)" />
        <rect x="213" y="214" width="596" height="595" transform="matrix(1,0,0,1,0,0)" fill="rgb(55,71,79)" />
        <clipPath id="_clipPath_tuUYIPGi0oXnDOW3jIA5gpv6X7lBcVLe">
            <rect x="213" y="214" width="596" height="595" transform="matrix(1,0,0,1,0,0)" fill="rgb(55,71,79)" />
        </clipPath>
        <g clip-path="url(#_clipPath_tuUYIPGi0oXnDOW3jIA5gpv6X7lBcVLe)">
            <g id="hexagons with lines">
                <path d=" M 209.852 273.768 L 230.188 238.543 L 270.862 238.543 L 291.199 273.768 L 270.862 308.992 L 230.188 308.992 L 209.852 273.768 Z " fill-rule="evenodd" fill="rgb(38,50,56)" />
                <path d=" M 334.363 273.768 L 354.7 238.543 L 395.374 238.543 L 415.711 273.768 L 395.374 308.992 L 354.7 308.992 L 334.363 273.768 Z " fill-rule="evenodd" fill="rgb(38,50,56)" />
                <path d=" M 458.875 273.768 L 479.212 238.543 L 519.886 238.543 L 540.223 273.768 L 519.886 308.992 L 479.212 308.992 L 458.875 273.768 Z " fill-rule="evenodd" fill="rgb(38,50,56)" />
                <path d=" M 583.387 273.768 L 603.724 238.543 L 644.397 238.543 L 664.734 273.768 L 644.397 308.992 L 603.724 308.992 L 583.387 273.768 Z " fill-rule="evenodd" fill="rgb(38,50,56)" />
                <path d=" M 707.898 273.768 L 728.235 238.543 L 768.909 238.543 L 789.246 273.768 L 768.909 308.992 L 728.235 308.992 L 707.898 273.768 Z " fill-rule="evenodd" fill="rgb(38,50,56)" />
                <path d=" M 209.852 512.83 L 230.188 477.606 L 270.862 477.606 L 291.199 512.83 L 270.862 548.055 L 230.188 548.055 L 209.852 512.83 Z " fill-rule="evenodd" fill="rgb(38,50,56)" />
                <path d=" M 334.363 512.83 L 354.7 477.606 L 395.374 477.606 L 415.711 512.83 L 395.374 548.055 L 354.7 548.055 L 334.363 512.83 Z " fill-rule="evenodd" fill="rgb(38,50,56)" />
                <path d=" M 458.875 512.83 L 479.212 477.606 L 519.886 477.606 L 540.223 512.83 L 519.886 548.055 L 479.212 548.055 L 458.875 512.83 Z " fill-rule="evenodd" fill="rgb(38,50,56)" />
                <path d=" M 583.387 512.83 L 603.724 477.606 L 644.397 477.606 L 664.734 512.83 L 644.397 548.055 L 603.724 548.055 L 583.387 512.83 Z " fill-rule="evenodd" fill="rgb(38,50,56)" />
                <path d=" M 707.898 512.83 L 728.235 477.606 L 768.909 477.606 L 789.246 512.83 L 768.909 548.055 L 728.235 548.055 L 707.898 512.83 Z " fill-rule="evenodd" fill="rgb(38,50,56)" />
                <path d=" M 209.852 753.553 L 230.188 718.328 L 270.862 718.328 L 291.199 753.553 L 270.862 788.777 L 230.188 788.777 L 209.852 753.553 Z " fill-rule="evenodd" fill="rgb(38,50,56)" />
                <path d=" M 334.363 753.553 L 354.7 718.328 L 395.374 718.328 L 415.711 753.553 L 395.374 788.777 L 354.7 788.777 L 334.363 753.553 Z " fill-rule="evenodd" fill="rgb(38,50,56)" />
                <path d=" M 458.875 753.553 L 479.212 718.328 L 519.886 718.328 L 540.223 753.553 L 519.886 788.777 L 479.212 788.777 L 458.875 753.553 Z " fill-rule="evenodd" fill="rgb(38,50,56)" />
                <path d=" M 583.387 753.553 L 603.724 718.328 L 644.397 718.328 L 664.734 753.553 L 644.397 788.777 L 603.724 788.777 L 583.387 753.553 Z " fill-rule="evenodd" fill="rgb(38,50,56)" />
                <path d=" M 707.898 753.553 L 728.235 718.328 L 768.909 718.328 L 789.246 753.553 L 768.909 788.777 L 728.235 788.777 L 707.898 753.553 Z " fill-rule="evenodd" fill="rgb(38,50,56)" />
                <path d=" M 272.107 392.469 L 292.444 357.244 L 333.118 357.244 L 353.455 392.469 L 333.118 427.693 L 292.444 427.693 L 272.107 392.469 Z " fill-rule="evenodd" fill="rgb(38,50,56)" />
                <path d=" M 396.619 392.469 L 416.956 357.244 L 457.63 357.244 L 477.967 392.469 L 457.63 427.693 L 416.956 427.693 L 396.619 392.469 Z " fill-rule="evenodd" fill="rgb(38,50,56)" />
                <path d=" M 521.131 392.469 L 541.468 357.244 L 582.142 357.244 L 602.479 392.469 L 582.142 427.693 L 541.468 427.693 L 521.131 392.469 Z " fill-rule="evenodd" fill="rgb(38,50,56)" />
                <path d=" M 645.643 392.469 L 665.979 357.244 L 706.653 357.244 L 726.99 392.469 L 706.653 427.693 L 665.979 427.693 L 645.643 392.469 Z " fill-rule="evenodd" fill="rgb(38,50,56)" />
                <path d=" M 770.154 392.469 L 790.491 357.244 L 831.165 357.244 L 851.502 392.469 L 831.165 427.693 L 790.491 427.693 L 770.154 392.469 Z " fill-rule="evenodd" fill="rgb(38,50,56)" />
                <path d=" M 272.107 633.191 L 292.444 597.967 L 333.118 597.967 L 353.455 633.191 L 333.118 668.416 L 292.444 668.416 L 272.107 633.191 Z " fill-rule="evenodd" fill="rgb(38,50,56)" />
                <path d=" M 396.619 633.191 L 416.956 597.967 L 457.63 597.967 L 477.967 633.191 L 457.63 668.416 L 416.956 668.416 L 396.619 633.191 Z " fill-rule="evenodd" fill="rgb(38,50,56)" />
                <path d=" M 521.131 633.191 L 541.468 597.967 L 582.142 597.967 L 602.479 633.191 L 582.142 668.416 L 541.468 668.416 L 521.131 633.191 Z " fill-rule="evenodd" fill="rgb(38,50,56)" />
                <path d=" M 645.643 633.191 L 665.979 597.967 L 706.653 597.967 L 726.99 633.191 L 706.653 668.416 L 665.979 668.416 L 645.643 633.191 Z " fill-rule="evenodd" fill="rgb(38,50,56)" />
                <path d=" M 770.154 633.191 L 790.491 597.967 L 831.165 597.967 L 851.502 633.191 L 831.165 668.416 L 790.491 668.416 L 770.154 633.191 Z " fill-rule="evenodd" fill="rgb(38,50,56)" />
                <path d=" M 213.3 214.4 L 211.9 211.8 L 217.2 208.9 L 218.7 211.6 L 535 809.8 L 536.4 812.5 L 531.1 815.3 L 529.7 812.6 L 213.3 214.4 Z " fill="rgb(38,50,56)" />
                <path d=" M 529.7 211.4 L 531.1 208.7 L 536.4 211.5 L 535 214.2 L 218.7 816.4 L 217.3 819.1 L 211.9 816.3 L 213.3 813.6 L 529.7 211.4 Z " fill="rgb(38,50,56)" />
                <path d=" M 783.7 211.3 L 785.1 208.7 L 790.4 211.5 L 789 214.2 L 468.6 805.2 L 467.1 807.8 L 461.9 805 L 463.3 802.3 L 783.7 211.3 Z " fill="rgb(38,50,56)" />
                <path d=" M 338.8 215.8 L 337.4 213.2 L 342.7 210.4 L 344.1 213 L 661.2 809.8 L 662.6 812.5 L 657.3 815.3 L 655.9 812.7 L 338.8 215.8 Z " fill="rgb(38,50,56)" />
                <path d=" M 655.9 213 L 657.3 210.4 L 662.6 213.2 L 661.2 215.8 L 344.1 812.7 L 342.7 815.3 L 337.4 812.5 L 338.8 809.8 L 655.9 213 Z " fill="rgb(38,50,56)" />
                <path d=" M 467.4 220.8 L 466 218.1 L 471.3 215.3 L 472.7 218 L 785.7 809.8 L 787.1 812.5 L 781.8 815.3 L 780.4 812.6 L 467.4 220.8 Z " fill="rgb(38,50,56)" />
                <path d=" M 589.4 214.4 L 588 211.7 L 593.4 208.9 L 594.8 211.6 L 871.2 735.1 L 872.6 737.8 L 867.3 740.6 L 865.9 737.9 L 589.4 214.4 Z " fill="rgb(38,50,56)" />
                <path d=" M 716.4 220 L 715.1 217.3 L 720.4 214.5 L 721.8 217.2 L 867 493.6 L 868.4 496.2 L 863.1 499 L 861.7 496.4 L 716.4 220 Z " fill="rgb(38,50,56)" />
                <path d=" M 207.2 442.4 L 205.8 439.8 L 211.1 436.9 L 212.5 439.6 L 411.3 809.8 L 412.7 812.5 L 407.4 815.3 L 406 812.7 L 207.2 442.4 Z " fill="rgb(38,50,56)" />
                <path d=" M 794.5 419.7 L 795.9 417.1 L 801.2 419.8 L 799.8 422.5 L 594.8 812.6 L 593.4 815.3 L 588.1 812.5 L 589.4 809.8 L 794.5 419.7 Z " fill="rgb(38,50,56)" />
                <path d=" M 828.5 600.6 L 830 598 L 835.2 600.9 L 833.8 603.5 L 718.4 812.7 L 717 815.3 L 711.7 812.4 L 713.2 809.8 L 828.5 600.6 Z " fill="rgb(38,50,56)" />
                <path d=" M 413.1 211.3 L 414.6 208.7 L 419.8 211.6 L 418.3 214.2 L 212.5 578.5 L 211 581.1 L 205.8 578.1 L 207.2 575.5 L 413.1 211.3 Z " fill="rgb(38,50,56)" />
                <path d=" M 278.3 218.6 L 279.9 216.1 L 285 219.3 L 283.3 221.9 L 167.1 402 L 165.5 404.5 L 160.5 401.2 L 162.1 398.7 L 278.3 218.6 Z " fill="rgb(38,50,56)" />
                <path d=" M 160.4 611.9 L 158.8 609.3 L 164 606.2 L 165.5 608.8 L 286.7 809.7 L 288.3 812.3 L 283.1 815.4 L 281.6 812.8 L 160.4 611.9 Z " fill="rgb(38,50,56)" />
                <path d=" M 211 276 L 208 276 L 208 270 L 211 270 L 802.1 271.2 L 805.1 271.2 L 805.1 277.2 L 802.1 277.2 L 211 276 Z " fill="rgb(38,50,56)" />
                <path d=" M 221.1 395.9 L 218.1 395.9 L 218.1 389.9 L 221.1 389.9 L 802.1 389.9 L 805.1 389.9 L 805.1 395.9 L 802.1 395.9 L 221.1 395.9 Z " fill="rgb(38,50,56)" />
                <path d=" M 203 636.2 L 200 636.2 L 200 630.2 L 203 630.2 L 802.1 630.6 L 805.1 630.6 L 805.1 636.6 L 802.1 636.6 L 203 636.2 Z " fill="rgb(38,50,56)" />
                <path d=" M 221.1 757.8 L 218.1 757.8 L 218.1 751.8 L 221.1 751.8 L 802.1 751.8 L 805.1 751.8 L 805.1 757.8 L 802.1 757.8 L 221.1 757.8 Z " fill="rgb(38,50,56)" />
                <path d=" M 209.9 515.8 L 206.9 515.8 L 206.8 509.8 L 209.8 509.8 L 802.1 509.4 L 805.1 509.4 L 805.1 515.4 L 802.1 515.4 L 209.9 515.8 Z " fill="rgb(38,50,56)" />
            </g>
        </g>
        <g id="Deepin logo">
            <path d=" M 522.675 847.614 C 502.521 841.879 481.409 853.123 475.512 872.733 C 469.618 892.34 481.176 912.885 501.33 918.62 C 521.479 924.355 542.596 913.111 548.488 893.504 C 554.382 873.891 542.824 853.349 522.675 847.614 Z " fill-rule="evenodd" fill="rgb(239,244,248)" />
            <path d=" M 522.432 848.421 C 502.736 842.816 482.104 853.804 476.341 872.969 C 470.581 892.131 481.876 912.208 501.572 917.813 C 521.264 923.417 541.901 912.43 547.659 893.267 C 553.419 874.101 542.124 854.026 522.432 848.421 Z " fill-rule="evenodd" fill="rgb(255,255,255)" />
            <g opacity="0.8">
                <path d=" M 523.232 853.015 C 518.513 851.339 513.678 850.887 508.986 851.312 C 503.546 851.73 500.891 853.369 501.048 853.072 C 492.153 856.162 484.632 862.809 481.148 872.13 C 474.946 888.731 483.731 907.089 500.766 913.133 C 517.809 919.177 536.648 910.617 542.851 894.017 C 549.055 877.417 540.27 859.061 523.232 853.015 L 523.232 853.015 Z  M 501.888 910.131 C 500.072 909.485 498.376 908.664 496.778 907.726 C 504.717 908.319 515.076 906.539 522.062 900.177 C 522.062 900.177 535.379 889.824 525.745 872.833 C 525.745 872.833 527.298 879.681 525.318 885.314 C 525.318 885.314 523.429 892.974 515.036 895.199 C 502.674 898.477 488.587 890.057 482.699 885.978 C 482.255 881.785 482.65 877.453 484.228 873.226 C 486.569 866.963 490.97 862.076 496.347 858.794 C 495.003 867.944 496.065 876.369 497.592 879.898 C 499.643 884.629 503.206 890.148 510.157 890.856 C 517.107 891.566 520.941 885.236 520.941 885.236 C 524.506 879.964 525.064 872.393 525.011 872.21 C 524.957 872.025 524.06 871.526 524.06 871.526 C 521.661 880.975 517.703 884.132 517.703 884.132 C 511.463 889.993 507.044 885.928 507.044 885.928 C 502.294 880.964 505.62 872.895 505.62 872.895 C 507.48 867.399 512.901 859.355 519.045 855.265 C 520.068 855.512 521.098 855.665 522.109 856.023 C 525.827 857.342 529.083 859.33 531.837 861.773 C 527.345 863.368 520.091 866.742 520.091 866.742 C 508.594 871.453 507.818 878.578 507.818 878.578 C 506.629 885.923 512.618 882.815 512.618 882.815 C 518.782 879.893 521.811 870.788 521.811 870.788 C 519.887 870.432 518.372 871.001 518.372 871.001 C 515.911 876.91 510.891 879.341 510.891 879.341 C 508.916 880.359 508.456 878.56 508.456 878.56 C 508.123 877.214 509.885 876.983 509.885 876.983 C 512.62 875.949 514.37 873.153 514.766 872.009 C 515.16 870.864 515.895 870.775 515.895 870.775 C 519.643 869.611 523.061 869.35 523.061 869.35 C 527.715 868.793 534.84 870.953 534.84 870.953 C 536.437 871.578 537.969 872.046 539.329 872.42 C 541.94 878.768 542.353 885.996 539.766 892.926 C 534.187 907.865 517.227 915.57 501.888 910.131 L 501.888 910.131 Z " fill-rule="evenodd" fill="rgb(33,150,243)" />
            </g>
        </g>
        <path d=" M 218.098 218.098 L 218.098 805.053 L 805.053 805.053 L 805.053 218.098 L 218.098 218.098 Z  M 196 196 L 196 827.1 L 827.1 827.1 L 827.1 196 L 196 196 Z " fill-rule="evenodd" fill="rgb(33,33,33)" />
        <path d=" M 757.597 674.006 C 757.594 655.062 742.24 639.71 723.298 639.714 C 704.358 639.699 689.005 655.079 689.009 674.024 L 689.033 817.663 C 689.032 836.626 704.379 851.952 723.332 851.958 C 742.273 851.955 757.618 836.626 757.623 817.648 L 757.597 674.006 Z  M 369.112 646.236 L 369.164 805.405 L 675.809 805.357 L 675.771 646.184 L 369.112 646.236 Z  M 592.733 578.306 C 585.59 578.313 579.776 572.522 579.777 565.354 C 579.802 558.257 585.582 552.399 592.739 552.375 C 599.843 552.394 605.671 558.251 605.665 565.362 C 605.681 572.514 599.873 578.307 592.733 578.306 Z  M 452.046 578.331 C 444.931 578.315 439.136 572.531 439.134 565.386 C 439.137 558.269 444.919 552.417 452.058 552.418 C 459.222 552.412 465.017 558.269 465.026 565.383 C 465.029 572.522 459.221 578.327 452.046 578.331 Z  M 598.104 510.774 L 622.045 467.054 C 623.321 464.77 622.484 461.86 620.167 460.57 C 617.833 459.333 614.947 460.173 613.713 462.474 L 589.532 506.65 C 569.18 497.597 546.414 492.514 522.32 492.541 C 498.29 492.522 475.53 497.582 455.267 506.585 L 431.06 462.524 C 429.799 460.199 426.904 459.359 424.618 460.624 C 422.288 461.878 421.437 464.793 422.728 467.072 L 446.68 510.759 C 399.62 535.031 367.825 581.246 367.849 634.306 L 676.823 634.274 C 676.832 581.222 645.094 535.103 598.104 510.774 Z  M 321.499 639.759 C 302.557 639.75 287.206 655.133 287.202 674.058 L 287.227 817.695 C 287.232 836.685 302.589 852.008 321.532 852.005 C 340.486 852.006 355.841 836.674 355.821 817.696 L 355.824 674.039 C 355.816 655.118 340.442 639.747 321.499 639.759 Z " fill="rgb(163,196,57)" />
    </g>
</svg>