<?xml version="1.0" standalone="no"?>
<!-- Generator: Gravit.io -->
<svg xmlns="http://www.w3.org/2000/svg" xmlns:xlink="http://www.w3.org/1999/xlink" style="isolation:isolate" viewBox="0 0 1024 1024" width="1024" height="1024">
    <defs>
        <clipPath id="_clipPath_ph1brdVhx8FRBQerCSVkB6c39Q4L8WH1">
            <rect width="1024" height="1024" />
        </clipPath>
    </defs>
    <g clip-path="url(#_clipPath_ph1brdVhx8FRBQerCSVkB6c39Q4L8WH1)">
        <rect x="87" y="87" width="850" height="850" transform="matrix(1,0,0,1,0,0)" fill="rgb(124,179,66)" />
        <g id="Bootcamp">
            <g id="Drive">
                <g id="bottom">
                    <path d=" M 167.585 760.806 L 852.731 760.806 L 852.731 841.576 C 852.731 852.848 843.579 862 832.306 862 L 187.081 862 C 176.321 862 167.585 853.264 167.585 842.504 L 167.585 760.806 Z " fill="rgb(66,66,66)" />
                    <g opacity="0.7">
                        <path d=" M 255.781 755.236 L 259.495 805.369 C 311.54 840.664 381.797 855.527 470.237 848.074 L 669.84 848.074 L 687.479 843.432 L 786.816 843.432 L 801.67 852.716 L 835.092 852.716 L 852.731 838.79 L 852.731 757.093 L 255.781 755.236 Z " fill="rgb(255,255,255)" />
                    </g>
                    <g id="air entrance">
                        <g opacity="0.7">
                            <rect x="472.094" y="767.305" width="19.496" height="80.769" transform="matrix(1,0,0,1,0,0)" fill="rgb(0,0,0)" />
                        </g>
                        <g opacity="0.7">
                            <rect x="497.161" y="767.305" width="19.496" height="80.769" transform="matrix(1,0,0,1,0,0)" fill="rgb(0,0,0)" />
                        </g>
                        <g opacity="0.7">
                            <rect x="522.227" y="767.305" width="19.496" height="80.769" transform="matrix(1,0,0,1,0,0)" fill="rgb(0,0,0)" />
                        </g>
                        <g opacity="0.7">
                            <rect x="546.365" y="767.305" width="19.496" height="80.769" transform="matrix(1,0,0,1,0,0)" fill="rgb(0,0,0)" />
                        </g>
                        <g opacity="0.7">
                            <rect x="571.431" y="767.305" width="19.496" height="80.769" transform="matrix(1,0,0,1,0,0)" fill="rgb(0,0,0)" />
                        </g>
                        <g opacity="0.7">
                            <rect x="596.497" y="767.305" width="19.496" height="80.769" transform="matrix(1,0,0,1,0,0)" fill="rgb(0,0,0)" />
                        </g>
                        <g opacity="0.7">
                            <rect x="621.564" y="767.305" width="19.496" height="80.769" transform="matrix(1,0,0,1,0,0)" fill="rgb(0,0,0)" />
                        </g>
                        <g opacity="0.7">
                            <rect x="646.63" y="767.305" width="19.496" height="80.769" transform="matrix(1,0,0,1,0,0)" fill="rgb(0,0,0)" />
                        </g>
                    </g>
                    <g opacity="0.7">
                        <path d=" M 786.816 843.432 L 801.67 852.716 L 801.67 760.806 L 786.816 760.806 L 786.816 843.432 Z " fill="rgb(66,66,66)" />
                    </g>
                    <g opacity="0.7">
                        <path d=" M 835.092 760.806 L 835.092 852.716 L 852.731 838.79 L 852.731 757.093 L 835.092 760.806 Z " fill="rgb(66,66,66)" />
                    </g>
                    <path d=" M 161.086 755.236 L 168.434 832.384 C 169.502 843.606 179.517 852.404 190.783 852.02 L 237.222 850.437 C 245.416 850.158 252.62 843.298 253.301 835.128 L 255.781 805.369 L 252.068 760.806 L 161.086 755.236 Z " fill="rgb(158,158,158)" />
                    <path d=" M 238.142 760.806 L 235.675 850.49 L 237.222 850.437 C 245.416 850.158 252.62 843.298 253.301 835.128 L 255.781 805.369 L 252.068 760.806 L 238.142 760.806 Z " fill="rgb(97,97,97)" />
                </g>
                <path d=" M 154.872 739.561 L 210.935 183.245 C 212.116 171.52 222.644 162 234.428 162 L 788.672 162 C 800.457 162 810.999 171.518 812.199 183.242 L 869.125 739.564 C 870.325 751.288 861.731 760.806 849.946 760.806 L 174.084 760.806 C 162.299 760.806 153.69 751.287 154.872 739.561 Z " fill="rgb(189,189,189)" />
                <g id="sign">
                    <path d=" M 720.901 814.653 C 720.901 805.43 728.388 797.942 737.611 797.942 C 746.834 797.942 754.322 805.43 754.322 814.653 C 754.322 823.876 746.834 831.363 737.611 831.363 C 728.388 831.363 720.901 823.876 720.901 814.653 Z " fill="rgb(33,33,33)" />
                    <path d=" M 728.328 814.653 C 728.328 809.529 732.488 805.369 737.611 805.369 C 742.735 805.369 746.895 809.529 746.895 814.653 C 746.895 819.776 742.735 823.936 737.611 823.936 C 732.488 823.936 728.328 819.776 728.328 814.653 Z " fill="rgb(253,216,53)" />
                </g>
                <g id="fasteners">
                    <g opacity="0.7">
                        <path d=" M 829.521 736.204 C 829.521 731.849 834.721 728.313 841.126 728.313 C 847.531 728.313 852.731 731.849 852.731 736.204 C 852.731 740.56 847.531 744.095 841.126 744.095 C 834.721 744.095 829.521 740.56 829.521 736.204 Z " fill="rgb(0,0,0)" />
                    </g>
                    <g opacity="0.7">
                        <path d=" M 170.37 736.204 C 170.37 731.849 175.57 728.313 181.975 728.313 C 188.38 728.313 193.58 731.849 193.58 736.204 C 193.58 740.56 188.38 744.095 181.975 744.095 C 175.57 744.095 170.37 740.56 170.37 736.204 Z " fill="rgb(0,0,0)" />
                    </g>
                    <g opacity="0.7">
                        <path d=" M 226.073 178.247 C 226.073 175.429 229.193 173.141 233.036 173.141 C 236.879 173.141 239.999 175.429 239.999 178.247 C 239.999 181.065 236.879 183.353 233.036 183.353 C 229.193 183.353 226.073 181.065 226.073 178.247 Z " fill="rgb(0,0,0)" />
                    </g>
                    <g opacity="0.7">
                        <path d=" M 783.102 178.247 C 783.102 175.429 786.222 173.141 790.065 173.141 C 793.908 173.141 797.028 175.429 797.028 178.247 C 797.028 181.065 793.908 183.353 790.065 183.353 C 786.222 183.353 783.102 181.065 783.102 178.247 Z " fill="rgb(0,0,0)" />
                    </g>
                </g>
            </g>
            <g id="Windows Logo">
                <g id="yellow">
                    <path d=" M 497.55 455.054 L 705.258 455.054 L 715.084 606.695 L 496.998 582.501 L 497.55 455.054 Z " fill-rule="evenodd" fill="rgb(255,202,40)" />
                </g>
                <g id="blue">
                    <path d=" M 315.806 455.054 L 471.587 455.054 L 469.973 579.446 L 308.916 561.339 L 315.806 455.054 Z " fill-rule="evenodd" fill="rgb(2,136,209)" />
                </g>
                <g id="green">
                    <path d=" M 694.03 281.761 L 703.856 433.402 L 497.644 433.402 L 498.196 305.979 L 694.03 281.761 Z " fill-rule="evenodd" fill="rgb(67,160,71)" />
                </g>
                <g id="red">
                    <path d=" M 324.099 327.117 L 473.482 309.012 L 471.868 433.402 L 317.209 433.402 L 324.099 327.117 Z " fill-rule="evenodd" fill="rgb(211,47,47)" />
                </g>
            </g>
        </g>
    </g>
</svg>