<?xml version="1.0" standalone="no"?>
<!-- Generator: Gravit.io -->
<svg xmlns="http://www.w3.org/2000/svg" xmlns:xlink="http://www.w3.org/1999/xlink" style="isolation:isolate" viewBox="0 0 1024 1024" width="1024" height="1024">
    <defs>
        <clipPath id="_clipPath_9BGvrelqGUWey21tQruXle9zKYDbOGOK">
            <rect width="1024" height="1024" />
        </clipPath>
    </defs>
    <g clip-path="url(#_clipPath_9BGvrelqGUWey21tQruXle9zKYDbOGOK)">
        <rect x="87" y="87" width="850" height="850" transform="matrix(1,0,0,1,0,0)" fill="rgb(245,127,23)" />
        <path d="M 177.2 152 L 846.8 152 C 860.708 152 872 163.292 872 177.2 L 872 846.8 C 872 860.708 860.708 872 846.8 872 L 177.2 872 C 163.292 872 152 860.708 152 846.8 L 152 177.2 C 152 163.292 163.292 152 177.2 152 Z" style="stroke:none;fill:#EBEBEB;stroke-miterlimit:10;" />
        <g id="buttons">
            <path d="M 219.25 201.5 L 804.75 201.5 C 817.306 201.5 827.5 211.694 827.5 224.25 L 827.5 353.75 C 827.5 366.306 817.306 376.5 804.75 376.5 L 219.25 376.5 C 206.694 376.5 196.5 366.306 196.5 353.75 L 196.5 224.25 C 196.5 211.694 206.694 201.5 219.25 201.5 Z" style="stroke:none;fill:#424242;stroke-miterlimit:10;" />
            <path d="M 663.587 419.5 L 811.413 419.5 C 820.292 419.5 827.5 426.708 827.5 435.587 L 827.5 583.413 C 827.5 592.292 820.292 599.5 811.413 599.5 L 663.587 599.5 C 654.708 599.5 647.5 592.292 647.5 583.413 L 647.5 435.587 C 647.5 426.708 654.708 419.5 663.587 419.5 Z" style="stroke:none;fill:#607D8B;stroke-miterlimit:10;" />
            <path d="M 663.587 642.5 L 811.413 642.5 C 820.292 642.5 827.5 649.708 827.5 658.587 L 827.5 806.413 C 827.5 815.292 820.292 822.5 811.413 822.5 L 663.587 822.5 C 654.708 822.5 647.5 815.292 647.5 806.413 L 647.5 658.587 C 647.5 649.708 654.708 642.5 663.587 642.5 Z" style="stroke:none;fill:#607D8B;stroke-miterlimit:10;" />
            <path d="M 437.996 640.985 L 585.822 640.985 C 594.701 640.985 601.909 648.193 601.909 657.072 L 601.909 804.898 C 601.909 813.776 594.701 820.985 585.822 820.985 L 437.996 820.985 C 429.117 820.985 421.909 813.776 421.909 804.898 L 421.909 657.072 C 421.909 648.193 429.117 640.985 437.996 640.985 Z" style="stroke:none;fill:#607D8B;stroke-miterlimit:10;" />
            <path d="M 212.587 642.5 L 360.413 642.5 C 369.292 642.5 376.5 649.708 376.5 658.587 L 376.5 806.413 C 376.5 815.292 369.292 822.5 360.413 822.5 L 212.587 822.5 C 203.708 822.5 196.5 815.292 196.5 806.413 L 196.5 658.587 C 196.5 649.708 203.708 642.5 212.587 642.5 Z" style="stroke:none;fill:#607D8B;stroke-miterlimit:10;" />
            <path d="M 437.996 417.985 L 585.822 417.985 C 594.701 417.985 601.909 425.193 601.909 434.072 L 601.909 581.898 C 601.909 590.776 594.701 597.985 585.822 597.985 L 437.996 597.985 C 429.117 597.985 421.909 590.776 421.909 581.898 L 421.909 434.072 C 421.909 425.193 429.117 417.985 437.996 417.985 Z" style="stroke:none;fill:#607D8B;stroke-miterlimit:10;" />
            <path d="M 212.587 419.5 L 360.413 419.5 C 369.292 419.5 376.5 426.708 376.5 435.587 L 376.5 583.413 C 376.5 592.292 369.292 599.5 360.413 599.5 L 212.587 599.5 C 203.708 599.5 196.5 592.292 196.5 583.413 L 196.5 435.587 C 196.5 426.708 203.708 419.5 212.587 419.5 Z" style="stroke:none;fill:#607D8B;stroke-miterlimit:10;" />
            <path d=" M 292.286 254.557 L 295.01 253 L 331.535 253 L 333.814 255.279 L 327.31 260.394 L 296.622 260.394 L 292.286 254.557 Z  M 328.311 261.061 L 334.648 256.113 L 336.594 258.448 L 331.924 288.024 L 327.644 291.527 L 324.53 288.024 L 328.311 261.061 Z  M 288.005 292.305 L 292.675 288.803 L 323.53 288.803 L 326.865 292.472 L 322.473 296.53 L 291.896 296.53 L 288.005 292.305 Z  M 323.418 297.253 L 327.254 293.806 L 330.757 297.698 L 325.698 328.163 L 323.363 329.609 L 318.804 324.105 L 323.418 297.253 Z  M 281 330.387 L 287.393 324.883 L 317.803 324.939 L 322.195 330.776 L 319.082 332.722 L 282.946 332.722 L 281 330.387 Z  M 353.161 323.438 L 353.161 323.438 L 357.72 318.768 L 357.72 318.768 Q 358.554 317.99 359.332 317.99 L 359.332 317.99 L 359.332 317.99 Q 360.055 317.99 361.056 318.879 L 361.056 318.879 L 365.503 323.66 L 365.503 323.66 Q 366.17 324.55 366.17 325.272 L 366.17 325.272 L 366.17 325.272 Q 366.17 326.106 365.392 326.996 L 365.392 326.996 L 360.944 331.888 L 360.944 331.888 Q 359.833 333 359.332 333 L 359.332 333 L 359.332 333 Q 358.443 333 357.72 332.222 L 357.72 332.222 L 352.828 326.607 L 352.828 326.607 Q 352.272 325.884 352.272 325.161 L 352.272 325.161 L 352.272 325.161 Q 352.272 324.327 353.161 323.438 Z  M 426.101 261.061 L 432.438 256.113 L 434.384 258.448 L 429.714 288.024 L 425.434 291.527 L 422.32 288.024 L 426.101 261.061 Z  M 421.208 297.253 L 425.044 293.806 L 428.547 297.698 L 423.488 328.163 L 421.153 329.609 L 416.594 324.105 L 421.208 297.253 Z  M 453.787 256.892 L 455.732 255.335 L 460.402 261.172 L 455.732 288.413 L 452.119 291.193 L 448.728 287.246 L 453.787 256.892 Z  M 492.925 261.061 L 499.263 256.113 L 501.208 258.448 L 496.539 288.024 L 492.258 291.527 L 489.145 288.024 L 492.925 261.061 Z  M 452.619 292.305 L 457.289 288.803 L 488.144 288.803 L 491.479 292.472 L 487.088 296.53 L 456.511 296.53 L 452.619 292.305 Z  M 488.033 297.253 L 491.869 293.806 L 495.371 297.698 L 490.312 328.163 L 487.977 329.609 L 483.418 324.105 L 488.033 297.253 Z  M 523.557 254.557 L 526.281 253 L 562.807 253 L 565.086 255.279 L 558.582 260.394 L 527.894 260.394 L 523.557 254.557 Z  M 559.582 261.061 L 565.92 256.113 L 567.866 258.448 L 563.196 288.024 L 558.915 291.527 L 555.802 288.024 L 559.582 261.061 Z  M 519.277 292.305 L 523.946 288.803 L 554.801 288.803 L 558.137 292.472 L 553.745 296.53 L 523.168 296.53 L 519.277 292.305 Z  M 554.69 297.253 L 558.526 293.806 L 562.028 297.698 L 556.969 328.163 L 554.634 329.609 L 550.076 324.105 L 554.69 297.253 Z  M 512.272 330.387 L 518.665 324.883 L 549.075 324.939 L 553.467 330.776 L 550.354 332.722 L 514.218 332.722 L 512.272 330.387 Z  M 626.407 261.061 L 632.744 256.113 L 634.69 258.448 L 630.02 288.024 L 625.739 291.527 L 622.626 288.024 L 626.407 261.061 Z  M 621.514 297.253 L 625.35 293.806 L 628.853 297.698 L 623.794 328.163 L 621.459 329.609 L 616.9 324.105 L 621.514 297.253 Z  M 657.206 254.557 L 659.93 253 L 696.455 253 L 698.735 255.279 L 692.23 260.394 L 661.542 260.394 L 657.206 254.557 Z  M 654.092 256.892 L 656.038 255.335 L 660.708 261.172 L 656.038 288.413 L 652.425 291.193 L 649.033 287.246 L 654.092 256.892 Z  M 652.925 292.305 L 657.595 288.803 L 688.45 288.803 L 691.785 292.472 L 687.393 296.53 L 656.817 296.53 L 652.925 292.305 Z  M 688.338 297.253 L 692.174 293.806 L 695.677 297.698 L 690.618 328.163 L 688.283 329.609 L 683.724 324.105 L 688.338 297.253 Z  M 645.92 330.387 L 652.313 324.883 L 682.723 324.939 L 687.115 330.776 L 684.002 332.722 L 647.866 332.722 L 645.92 330.387 Z  M 723.863 254.557 L 726.587 253 L 763.113 253 L 765.392 255.279 L 758.887 260.394 L 728.199 260.394 L 723.863 254.557 Z  M 720.75 256.892 L 722.696 255.335 L 727.366 261.172 L 722.696 288.413 L 719.082 291.193 L 715.691 287.246 L 720.75 256.892 Z  M 759.888 261.061 L 766.226 256.113 L 768.172 258.448 L 763.502 288.024 L 759.221 291.527 L 756.108 288.024 L 759.888 261.061 Z  M 719.582 292.305 L 724.252 288.803 L 755.107 288.803 L 758.443 292.472 L 754.051 296.53 L 723.474 296.53 L 719.582 292.305 Z  M 754.996 297.253 L 758.832 293.806 L 762.334 297.698 L 757.275 328.163 L 754.94 329.609 L 750.382 324.105 L 754.996 297.253 Z  M 712.577 330.387 L 718.971 324.883 L 749.381 324.939 L 753.773 330.776 L 750.659 332.722 L 714.523 332.722 L 712.577 330.387 Z " fill-rule="evenodd" fill="rgb(239,83,80)" />
            <path d=" M 737.62 526.78 L 716.5 483.42 C 715.78 481.98 714.74 480.86 713.38 480.06 C 712.02 479.34 710.5 478.94 708.9 478.94 C 707.22 478.94 705.78 479.34 704.42 480.06 C 703.06 480.86 702.02 481.98 701.3 483.42 L 680.18 526.78 C 679.7 527.82 679.46 528.78 679.46 529.74 C 679.46 531.5 680.18 533.02 681.7 534.22 C 683.14 535.42 684.74 536.06 686.58 536.06 C 687.78 536.06 688.98 535.74 690.02 535.1 C 691.06 534.46 691.86 533.5 692.42 532.22 L 696.1 524.14 L 722.02 524.14 L 725.62 532.22 C 726.18 533.5 726.98 534.46 728.02 535.1 C 729.06 535.74 730.18 536.06 731.38 536.06 C 733.22 536.06 734.82 535.42 736.26 534.22 C 737.62 533.02 738.34 531.5 738.34 529.74 C 738.34 528.78 738.1 527.82 737.62 526.78 Z  M 709.06 495.26 L 717.06 513.1 L 701.06 513.1 L 709.06 495.26 Z  M 771.22 536.54 C 778.02 536.54 783.94 534.78 789.06 531.18 C 789.94 530.54 790.66 529.82 791.06 529.02 C 791.46 528.3 791.62 527.34 791.62 526.22 C 791.62 524.54 791.14 523.18 790.26 521.98 C 789.3 520.86 788.18 520.3 786.82 520.3 C 786.1 520.3 785.46 520.38 784.9 520.62 C 784.34 520.86 783.54 521.26 782.42 521.82 C 780.1 522.86 778.18 523.66 776.66 524.14 C 775.14 524.7 773.62 524.94 772.02 524.94 C 767.3 524.94 763.78 523.5 761.46 520.62 C 759.14 517.82 757.94 513.42 757.94 507.58 C 757.94 501.74 759.14 497.42 761.46 494.54 C 763.78 491.74 767.3 490.3 772.02 490.3 C 773.78 490.3 775.46 490.54 777.14 491.02 C 778.82 491.5 780.58 492.3 782.42 493.42 C 783.3 493.98 784.02 494.3 784.66 494.54 C 785.3 494.78 786.02 494.94 786.82 494.94 C 788.18 494.94 789.3 494.38 790.26 493.18 C 791.14 492.06 791.62 490.7 791.62 489.02 C 791.62 487.82 791.46 486.86 791.06 486.14 C 790.66 485.42 789.94 484.7 789.06 484.06 C 783.94 480.46 778.02 478.7 771.22 478.7 C 765.54 478.7 760.66 479.9 756.42 482.22 C 752.18 484.54 748.9 487.9 746.58 492.3 C 744.26 496.7 743.06 501.74 743.06 507.58 C 743.06 513.42 744.26 518.54 746.58 522.94 C 748.9 527.34 752.18 530.7 756.42 533.02 C 760.66 535.34 765.54 536.54 771.22 536.54 Z " fill-rule="evenodd" fill="rgb(224,224,224)" />
            <path d=" M 772.237 744.828 L 711.581 744.828 C 708.794 744.828 706.499 745.812 704.696 747.615 C 702.893 749.418 701.909 751.713 701.909 754.5 C 701.909 757.287 702.893 759.582 704.696 761.385 C 706.499 763.352 708.794 764.336 711.581 764.336 L 772.237 764.336 C 775.024 764.336 777.319 763.352 779.122 761.385 C 780.926 759.582 781.909 757.287 781.909 754.5 C 781.909 751.713 780.926 749.418 779.122 747.615 C 777.319 745.812 775.024 744.828 772.237 744.828 Z  M 772.237 704.828 L 711.581 704.828 C 708.794 704.828 706.499 705.812 704.696 707.615 C 702.893 709.418 701.909 711.713 701.909 714.5 C 701.909 717.287 702.893 719.582 704.696 721.385 C 706.499 723.352 708.794 724.336 711.581 724.336 L 772.237 724.336 C 775.024 724.336 777.319 723.352 779.122 721.385 C 780.926 719.582 781.909 717.287 781.909 714.5 C 781.909 711.713 780.926 709.418 779.122 707.615 C 777.319 705.812 775.024 704.828 772.237 704.828 Z " fill-rule="evenodd" fill="rgb(224,224,224)" />
            <path d=" M 500 696.5 C 500 690.153 505.387 685 512.023 685 C 518.658 685 524.045 690.153 524.045 696.5 C 524.045 702.847 518.658 708 512.023 708 C 505.387 708 500 702.847 500 696.5 Z  M 500 767.5 C 500 761.153 505.387 756 512.023 756 C 518.658 756 524.045 761.153 524.045 767.5 C 524.045 773.847 518.658 779 512.023 779 C 505.387 779 500 773.847 500 767.5 Z  M 543.237 722.828 L 482.581 722.828 C 479.794 722.828 477.499 723.812 475.696 725.615 C 473.893 727.418 472.909 729.713 472.909 732.5 C 472.909 735.287 473.893 737.582 475.696 739.385 C 477.499 741.352 479.794 742.336 482.581 742.336 L 543.237 742.336 C 546.024 742.336 548.319 741.352 550.122 739.385 C 551.926 737.582 552.909 735.287 552.909 732.5 C 552.909 729.713 551.926 727.418 550.122 725.615 C 548.319 723.812 546.024 722.828 543.237 722.828 Z " fill-rule="evenodd" fill="rgb(224,224,224)" />
            <path d=" M 301.199 704.266 L 286.543 718.822 L 271.987 704.166 C 270.023 702.188 267.708 701.253 265.158 701.244 C 262.608 701.236 260.286 702.155 258.309 704.119 C 256.332 706.083 255.396 708.398 255.387 710.948 C 255.379 713.499 256.298 715.82 258.262 717.797 L 272.818 732.453 L 258.162 747.009 C 256.185 748.973 255.249 751.288 255.24 753.838 C 255.232 756.389 256.151 758.71 258.115 760.687 C 260.079 762.665 262.394 763.6 264.944 763.609 C 267.61 763.734 269.931 762.814 271.909 760.85 L 286.565 746.295 L 301.005 760.834 C 302.969 762.812 305.284 763.747 307.834 763.756 C 310.384 763.764 312.706 762.845 314.683 760.881 C 316.661 758.917 317.712 756.486 317.721 753.936 C 317.73 751.386 316.694 749.18 314.73 747.203 L 300.29 732.663 L 314.946 718.107 C 316.923 716.143 317.858 713.828 317.752 711.162 C 317.76 708.612 316.841 706.29 314.877 704.313 C 312.913 702.335 310.598 701.4 308.048 701.391 C 305.498 701.383 303.176 702.302 301.199 704.266 Z " fill="rgb(224,224,224)" />
            <path d=" M 542.237 499.828 L 481.581 499.828 C 478.794 499.828 476.499 500.812 474.696 502.615 C 472.893 504.418 471.909 506.713 471.909 509.5 C 471.909 512.287 472.893 514.582 474.696 516.385 C 476.499 518.352 478.794 519.336 481.581 519.336 L 542.237 519.336 C 545.024 519.336 547.319 518.352 549.122 516.385 C 550.926 514.582 551.909 512.287 551.909 509.5 C 551.909 506.713 550.926 504.418 549.122 502.615 C 547.319 500.812 545.024 499.828 542.237 499.828 Z " fill="rgb(224,224,224)" />
            <path d=" M 316.828 499.828 L 296.172 499.828 L 296.172 479.172 C 296.172 476.385 295.189 474.09 293.385 472.287 C 291.582 470.484 289.287 469.5 286.5 469.5 C 283.713 469.5 281.418 470.484 279.615 472.287 C 277.811 474.09 276.828 476.385 276.828 479.172 L 276.828 499.828 L 256.172 499.828 C 253.385 499.828 251.09 500.811 249.287 502.615 C 247.484 504.418 246.5 506.713 246.5 509.5 C 246.5 512.287 247.484 514.582 249.287 516.385 C 251.09 518.352 253.385 519.336 256.172 519.336 L 276.828 519.336 L 276.828 539.828 C 276.828 542.615 277.811 544.91 279.615 546.713 C 281.418 548.516 283.713 549.5 286.5 549.5 C 289.287 549.5 291.746 548.516 293.549 546.713 C 295.352 544.91 296.172 542.615 296.172 539.828 L 296.172 519.336 L 316.828 519.336 C 319.615 519.336 321.91 518.352 323.713 516.385 C 325.516 514.582 326.5 512.287 326.5 509.5 C 326.5 506.713 325.516 504.418 323.713 502.615 C 321.91 500.811 319.615 499.828 316.828 499.828 Z " fill="rgb(224,224,224)" />
        </g>
    </g>
</svg>