<?xml version="1.0" standalone="no"?>
<!-- Generator: Gravit.io -->
<svg xmlns="http://www.w3.org/2000/svg" xmlns:xlink="http://www.w3.org/1999/xlink" style="isolation:isolate" viewBox="0 0 1024 1024" width="1024" height="1024">
    <defs>
        <clipPath id="_clipPath_c1Ly5O2jBigRJMFoU05x7hVdGUDHB2Vz">
            <rect width="1024" height="1024" />
        </clipPath>
    </defs>
    <g clip-path="url(#_clipPath_c1Ly5O2jBigRJMFoU05x7hVdGUDHB2Vz)">
        <rect x="87" y="87" width="850" height="850" transform="matrix(1,0,0,1,0,0)" fill="rgb(238,238,238)" />
        <g id="Romania Flag">
            <rect x="87" y="87" width="283.333" height="850" transform="matrix(1,0,0,1,0,0)" fill="rgb(26,35,126)" />
            <rect x="370.333" y="87" width="283.333" height="850" transform="matrix(1,0,0,1,0,0)" fill="rgb(251,192,45)" />
            <rect x="653.667" y="87" width="283.333" height="850" transform="matrix(1,0,0,1,0,0)" fill="rgb(183,28,28)" />
        </g>
        <g id="Calendar">
            <path d=" M 156.285 406.955 L 814.612 298.735 L 898.965 810.988 L 236.582 920.582 L 156.285 406.955 Z " fill-rule="evenodd" fill="rgb(255,255,255)" />
            <path d=" M 229.089 874 Q 465.333 852 585 832 Q 704.667 812 893.385 782 L 898.965 810.988 L 236.582 920.582 L 229.089 874 Z " fill-rule="evenodd" fill="rgb(200,199,199)" />
            <path d=" M 156.648 409.277 L 125.035 207.066 L 782.449 103.418 L 815.375 303.366 L 156.648 409.277 Z " fill-rule="evenodd" fill="rgb(69,90,100)" />
            <g id="Romania Date">
                <path d=" M 436.462 214.349 L 436.462 214.349 Q 440.965 213.629 444.282 216.137 L 444.282 216.137 L 444.282 216.137 Q 447.599 218.645 448.356 223.385 L 448.356 223.385 L 458.656 287.848 L 458.656 287.848 Q 459.375 292.35 457.185 295.374 L 457.185 295.374 L 457.185 295.374 Q 454.994 298.397 450.728 299.079 L 450.728 299.079 L 450.728 299.079 Q 446.581 299.742 443.498 297.561 L 443.498 297.561 L 443.498 297.561 Q 440.416 295.38 439.696 290.877 L 439.696 290.877 L 434.13 256.039 L 424.597 283.081 L 424.597 283.081 Q 423.189 287.195 421.193 289.154 L 421.193 289.154 L 421.193 289.154 Q 419.197 291.114 416.116 291.606 L 416.116 291.606 L 416.116 291.606 Q 413.035 292.098 410.528 290.858 L 410.528 290.858 L 410.528 290.858 Q 408.021 289.618 405.401 286.148 L 405.401 286.148 L 388.148 264.114 L 393.601 298.242 L 393.601 298.242 Q 394.301 302.626 392.061 305.718 L 392.061 305.718 L 392.061 305.718 Q 389.821 308.81 385.555 309.492 L 385.555 309.492 L 385.555 309.492 Q 381.408 310.154 378.325 307.974 L 378.325 307.974 L 378.325 307.974 Q 375.242 305.793 374.523 301.29 L 374.523 301.29 L 364.223 236.827 L 364.223 236.827 Q 363.466 232.087 365.896 228.661 L 365.896 228.661 L 365.896 228.661 Q 368.326 225.235 372.829 224.515 L 372.829 224.515 L 372.829 224.515 Q 376.028 224.004 378.929 225.424 L 378.929 225.424 L 378.929 225.424 Q 381.829 226.845 384.155 229.997 L 384.155 229.997 L 412.51 267.513 L 427.644 223.049 L 427.644 223.049 Q 430.181 215.352 436.462 214.349 L 436.462 214.349 Z  M 491.671 230.561 L 491.671 230.561 Q 505.18 228.403 512.67 233.829 L 512.67 233.829 L 512.67 233.829 Q 520.16 239.255 522.261 252.409 L 522.261 252.409 L 526.218 277.174 L 526.218 277.174 Q 526.937 281.677 524.678 284.651 L 524.678 284.651 L 524.678 284.651 Q 522.419 287.625 517.679 288.382 L 517.679 288.382 L 517.679 288.382 Q 513.532 289.045 510.487 287.101 L 510.487 287.101 L 510.487 287.101 Q 507.442 285.157 506.562 281.166 L 506.562 281.166 L 506.562 281.166 Q 505.584 285.697 502.052 288.691 L 502.052 288.691 L 502.052 288.691 Q 498.521 291.686 493.07 292.557 L 493.07 292.557 L 493.07 292.557 Q 487.026 293.523 481.78 291.87 L 481.78 291.87 L 481.78 291.87 Q 476.533 290.217 473.058 286.336 L 473.058 286.336 L 473.058 286.336 Q 469.582 282.456 468.711 277.005 L 468.711 277.005 L 468.711 277.005 Q 467.708 270.725 470.37 266.472 L 470.37 266.472 L 470.37 266.472 Q 473.032 262.218 479.877 259.423 L 479.877 259.423 L 479.877 259.423 Q 486.722 256.628 498.808 254.697 L 498.808 254.697 L 502.008 254.186 L 501.781 252.764 L 501.781 252.764 Q 501.118 248.617 498.929 247.083 L 498.929 247.083 L 498.929 247.083 Q 496.739 245.549 492.236 246.269 L 492.236 246.269 L 492.236 246.269 Q 487.378 247.045 478.547 251.859 L 478.547 251.859 L 478.547 251.859 Q 475.973 253.242 474.077 253.545 L 474.077 253.545 L 474.077 253.545 Q 471.114 254.018 468.996 252.169 L 468.996 252.169 L 468.996 252.169 Q 466.878 250.32 466.329 246.884 L 466.329 246.884 L 466.329 246.884 Q 465.912 244.277 466.714 242.448 L 466.714 242.448 L 466.714 242.448 Q 467.515 240.618 469.677 238.936 L 469.677 238.936 L 469.677 238.936 Q 473.484 236.141 479.556 233.834 L 479.556 233.834 L 479.556 233.834 Q 485.628 231.527 491.671 230.561 L 491.671 230.561 Z  M 495.794 277.661 L 495.794 277.661 Q 500.06 276.979 502.302 273.522 L 502.302 273.522 L 502.302 273.522 Q 504.545 270.065 503.788 265.325 L 503.788 265.325 L 503.56 263.903 L 501.664 264.206 L 501.664 264.206 Q 494.081 265.418 491.099 267.291 L 491.099 267.291 L 491.099 267.291 Q 488.117 269.165 488.628 272.365 L 488.628 272.365 L 488.628 272.365 Q 489.064 275.09 491.066 276.593 L 491.066 276.593 L 491.066 276.593 Q 493.068 278.096 495.794 277.661 L 495.794 277.661 Z  M 550.147 283.194 L 550.147 283.194 Q 545.645 283.914 542.235 281.967 L 542.235 281.967 L 542.235 281.967 Q 538.825 280.021 538.049 275.163 L 538.049 275.163 L 531.536 234.4 L 531.536 234.4 Q 530.76 229.541 533.393 226.629 L 533.393 226.629 L 533.393 226.629 Q 536.027 223.717 540.53 222.998 L 540.53 222.998 L 540.53 222.998 Q 545.033 222.278 548.442 224.225 L 548.442 224.225 L 548.442 224.225 Q 551.852 226.171 552.628 231.03 L 552.628 231.03 L 559.141 271.793 L 559.141 271.793 Q 559.917 276.651 557.284 279.563 L 557.284 279.563 L 557.284 279.563 Q 554.65 282.475 550.147 283.194 L 550.147 283.194 Z  M 539.204 214.703 L 539.204 214.703 Q 533.872 215.555 530.287 213.272 L 530.287 213.272 L 530.287 213.272 Q 526.702 210.989 525.964 206.368 L 525.964 206.368 L 525.964 206.368 Q 525.225 201.746 527.93 198.519 L 527.93 198.519 L 527.93 198.519 Q 530.635 195.292 535.967 194.44 L 535.967 194.44 L 535.967 194.44 Q 541.181 193.607 544.816 195.821 L 544.816 195.821 L 544.816 195.821 Q 548.451 198.036 549.189 202.657 L 549.189 202.657 L 549.189 202.657 Q 549.927 207.278 547.232 210.565 L 547.232 210.565 L 547.232 210.565 Q 544.537 213.851 539.204 214.703 L 539.204 214.703 Z " fill-rule="evenodd" fill="rgb(250,250,250)" />
                <path d=" M 512.395 665.814 L 512.395 665.814 Q 528.393 663.258 536.88 668.464 L 536.88 668.464 L 536.88 668.464 Q 545.368 673.67 547.413 686.468 L 547.413 686.468 L 547.413 686.468 Q 551.616 712.774 520.688 717.715 L 520.688 717.715 L 397.332 737.424 L 397.332 737.424 Q 366.405 742.366 362.202 716.059 L 362.202 716.059 L 362.202 716.059 Q 360.157 703.262 366.6 695.67 L 366.6 695.67 L 366.6 695.67 Q 373.043 688.078 389.04 685.523 L 389.04 685.523 L 417.835 680.922 L 397.331 552.59 L 371.561 573.841 L 371.561 573.841 Q 366.086 578.362 359.687 579.384 L 359.687 579.384 L 359.687 579.384 Q 349.733 580.975 341.232 573.401 L 341.232 573.401 L 341.232 573.401 Q 332.73 565.827 331.026 555.163 L 331.026 555.163 L 331.026 555.163 Q 328.698 540.588 339.947 531.134 L 339.947 531.134 L 391.543 488.986 L 391.543 488.986 Q 405.765 477.6 419.629 475.385 L 419.629 475.385 L 419.629 475.385 Q 433.849 473.113 443.922 480.253 L 443.922 480.253 L 443.922 480.253 Q 453.994 487.393 456.323 501.968 L 456.323 501.968 L 483.245 670.471 L 512.395 665.814 Z  M 659.13 698.877 L 659.13 698.877 Q 612.56 706.318 582.749 677.176 L 582.749 677.176 L 582.749 677.176 Q 552.938 648.034 542.942 585.468 L 542.942 585.468 L 542.942 585.468 Q 533.002 523.257 552.249 486.277 L 552.249 486.277 L 552.249 486.277 Q 571.495 449.298 618.065 441.857 L 618.065 441.857 L 618.065 441.857 Q 664.279 434.473 694.268 463.587 L 694.268 463.587 L 694.268 463.587 Q 724.256 492.7 734.196 554.911 L 734.196 554.911 L 734.196 554.911 Q 744.192 617.477 724.946 654.457 L 724.946 654.457 L 724.946 654.457 Q 705.699 691.437 659.13 698.877 L 659.13 698.877 Z  M 651.235 649.464 L 651.235 649.464 Q 668.298 646.738 672.81 627.059 L 672.81 627.059 L 672.81 627.059 Q 677.322 607.381 670.563 565.078 L 670.563 565.078 L 670.563 565.078 Q 663.861 523.13 653.442 505.837 L 653.442 505.837 L 653.442 505.837 Q 643.023 488.544 625.96 491.27 L 625.96 491.27 L 625.96 491.27 Q 608.896 493.997 604.356 513.497 L 604.356 513.497 L 604.356 513.497 Q 599.816 532.998 606.575 575.301 L 606.575 575.301 L 606.575 575.301 Q 613.334 617.605 623.752 634.897 L 623.752 634.897 L 623.752 634.897 Q 634.171 652.19 651.235 649.464 L 651.235 649.464 Z " fill-rule="evenodd" fill="rgb(33,33,33)" />
            </g>
        </g>
    </g>
</svg>