<?xml version="1.0" standalone="no"?>
<!-- Generator: Gravit.io -->
<svg xmlns="http://www.w3.org/2000/svg" xmlns:xlink="http://www.w3.org/1999/xlink" style="isolation:isolate" viewBox="0 0 1024 1024" width="1024" height="1024">
    <defs>
        <clipPath id="_clipPath_JSnaoynzRf2lz7bff7N8xS6RIhOFeQ7j">
            <rect width="1024" height="1024" />
        </clipPath>
    </defs>
    <g clip-path="url(#_clipPath_JSnaoynzRf2lz7bff7N8xS6RIhOFeQ7j)">
        <rect x="87" y="87" width="850" height="850" transform="matrix(1,0,0,1,0,0)" fill="rgb(238,238,238)" />
        <rect x="87" y="512" width="850" height="425" transform="matrix(1,0,0,1,0,0)" fill="rgb(183,28,28)" />
        <g id="Calendar">
            <path d=" M 156.285 406.955 L 814.612 298.735 L 898.965 810.988 L 236.582 920.582 L 156.285 406.955 Z " fill-rule="evenodd" fill="rgb(255,255,255)" />
            <path d=" M 229.089 874 Q 465.333 852 585 832 Q 704.667 812 893.385 782 L 898.965 810.988 L 236.582 920.582 L 229.089 874 Z " fill-rule="evenodd" fill="rgb(200,199,199)" />
            <path d=" M 156.648 409.277 L 125.035 207.066 L 782.449 103.418 L 815.375 303.366 L 156.648 409.277 Z " fill-rule="evenodd" fill="rgb(183,28,28)" />
            <g id="Indonesia Date">
                <path d=" M 315.571 307.834 L 315.571 307.834 Q 316.997 309.915 317.338 312.048 L 317.338 312.048 L 317.338 312.048 Q 317.963 315.958 315.258 319.186 L 315.258 319.186 L 315.258 319.186 Q 312.553 322.413 308.524 323.056 L 308.524 323.056 L 308.524 323.056 Q 305.799 323.492 303.32 322.43 L 303.32 322.43 L 303.32 322.43 Q 300.842 321.367 299.084 318.732 L 299.084 318.732 L 291.839 307.616 L 253.446 313.75 L 249.907 326.589 L 249.907 326.589 Q 249.058 329.641 246.975 331.432 L 246.975 331.432 L 246.975 331.432 Q 244.891 333.223 242.166 333.659 L 242.166 333.659 L 242.166 333.659 Q 238.137 334.302 234.443 332.098 L 234.443 332.098 L 234.443 332.098 Q 230.749 329.893 230.124 325.982 L 230.124 325.982 L 230.124 325.982 Q 229.783 323.85 230.49 321.428 L 230.49 321.428 L 251.512 252.204 L 251.512 252.204 Q 252.541 248.759 255.288 246.558 L 255.288 246.558 L 255.288 246.558 Q 258.035 244.357 261.709 243.77 L 261.709 243.77 L 261.709 243.77 Q 265.264 243.202 268.619 244.428 L 268.619 244.428 L 268.619 244.428 Q 271.974 245.654 274.026 248.607 L 274.026 248.607 L 315.571 307.834 Z  M 265.808 267.905 L 258.18 296.223 L 281.88 292.437 L 265.808 267.905 Z  M 368.758 252.064 L 368.758 252.064 Q 373.498 251.307 376.768 253.519 L 376.768 253.519 L 376.768 253.519 Q 380.038 255.73 380.738 260.115 L 380.738 260.115 L 387.554 302.774 L 387.554 302.774 Q 389.864 317.23 382.347 326.087 L 382.347 326.087 L 382.347 326.087 Q 374.83 334.944 358.004 337.633 L 358.004 337.633 L 358.004 337.633 Q 351.486 338.674 345.491 338.417 L 345.491 338.417 L 345.491 338.417 Q 339.495 338.159 335.106 336.552 L 335.106 336.552 L 335.106 336.552 Q 332.784 335.707 331.237 334.01 L 331.237 334.01 L 331.237 334.01 Q 329.69 332.313 329.311 329.943 L 329.311 329.943 L 329.311 329.943 Q 328.762 326.507 330.139 324.099 L 330.139 324.099 L 330.139 324.099 Q 331.517 321.692 334.242 321.256 L 334.242 321.256 L 334.242 321.256 Q 336.375 320.916 342.229 321.803 L 342.229 321.803 L 342.229 321.803 Q 346.091 322.401 349.039 322.599 L 349.039 322.599 L 349.039 322.599 Q 351.987 322.796 354.95 322.323 L 354.95 322.323 L 354.95 322.323 Q 362.178 321.168 365.073 317.606 L 365.073 317.606 L 365.073 317.606 Q 367.967 314.045 366.926 307.528 L 366.926 307.528 L 366.206 303.025 L 366.206 303.025 Q 364.224 307.352 359.735 310.439 L 359.735 310.439 L 359.735 310.439 Q 355.246 313.526 349.558 314.435 L 349.558 314.435 L 349.558 314.435 Q 341.974 315.646 335.481 313.038 L 335.481 313.038 L 335.481 313.038 Q 328.988 310.43 324.62 304.383 L 324.62 304.383 L 324.62 304.383 Q 320.251 298.337 318.869 289.686 L 318.869 289.686 L 318.869 289.686 Q 317.487 281.036 319.745 273.87 L 319.745 273.87 L 319.745 273.87 Q 322.002 266.704 327.35 262.143 L 327.35 262.143 L 327.35 262.143 Q 332.697 257.583 340.281 256.371 L 340.281 256.371 L 340.281 256.371 Q 346.087 255.443 351.324 257.037 L 351.324 257.037 L 351.324 257.037 Q 356.561 258.631 359.831 262.362 L 359.831 262.362 L 359.831 262.362 Q 359.424 258.295 361.84 255.539 L 361.84 255.539 L 361.84 255.539 Q 364.255 252.784 368.758 252.064 L 368.758 252.064 Z  M 353.439 297.652 L 353.439 297.652 Q 359.008 296.762 361.54 292.834 L 361.54 292.834 L 361.54 292.834 Q 364.072 288.905 363.068 282.625 L 363.068 282.625 L 363.068 282.625 Q 362.065 276.344 358.416 273.282 L 358.416 273.282 L 358.416 273.282 Q 354.767 270.219 349.198 271.109 L 349.198 271.109 L 349.198 271.109 Q 343.747 271.98 341.224 275.968 L 341.224 275.968 L 341.224 275.968 Q 338.702 279.955 339.724 286.354 L 339.724 286.354 L 339.724 286.354 Q 340.709 292.516 344.408 295.51 L 344.408 295.51 L 344.408 295.51 Q 348.106 298.504 353.439 297.652 L 353.439 297.652 Z  M 439.738 240.724 L 439.738 240.724 Q 444.596 239.947 447.857 242.1 L 447.857 242.1 L 447.857 242.1 Q 451.117 244.252 451.837 248.755 L 451.837 248.755 L 458.387 289.755 L 458.387 289.755 Q 459.05 293.903 456.513 297.042 L 456.513 297.042 L 456.513 297.042 Q 453.977 300.182 449.237 300.939 L 449.237 300.939 L 449.237 300.939 Q 444.971 301.621 441.877 299.745 L 441.877 299.745 L 441.877 299.745 Q 438.782 297.87 438.039 293.979 L 438.039 293.979 L 438.039 293.979 Q 435.995 298.68 432.148 301.603 L 432.148 301.603 L 432.148 301.603 Q 428.301 304.527 422.85 305.398 L 422.85 305.398 L 422.85 305.398 Q 411.593 307.197 405.148 301.846 L 405.148 301.846 L 405.148 301.846 Q 398.703 296.496 396.677 283.817 L 396.677 283.817 L 392.588 258.222 L 392.588 258.222 Q 391.869 253.719 394.296 250.657 L 394.296 250.657 L 394.296 250.657 Q 396.723 247.596 401.582 246.82 L 401.582 246.82 L 401.582 246.82 Q 406.44 246.044 409.701 248.196 L 409.701 248.196 L 409.701 248.196 Q 412.961 250.349 413.68 254.852 L 413.68 254.852 L 417.846 280.921 L 417.846 280.921 Q 419.209 289.453 426.556 288.279 L 426.556 288.279 L 426.556 288.279 Q 430.821 287.597 433.055 284.081 L 433.055 284.081 L 433.055 284.081 Q 435.288 280.565 434.493 275.588 L 434.493 275.588 L 430.744 252.125 L 430.744 252.125 Q 430.025 247.622 432.452 244.561 L 432.452 244.561 L 432.452 244.561 Q 434.879 241.5 439.738 240.724 L 439.738 240.724 Z  M 495.252 293.83 L 495.252 293.83 Q 487.312 295.099 481.672 294.785 L 481.672 294.785 L 481.672 294.785 Q 476.032 294.47 471.468 292.526 L 471.468 292.526 L 471.468 292.526 Q 469.677 291.962 468.407 290.099 L 468.407 290.099 L 468.407 290.099 Q 467.137 288.236 466.739 285.747 L 466.739 285.747 L 466.739 285.747 Q 466.228 282.548 467.615 280.2 L 467.615 280.2 L 467.615 280.2 Q 469.002 277.851 471.609 277.435 L 471.609 277.435 L 471.609 277.435 Q 473.386 277.151 474.993 277.32 L 474.993 277.32 L 474.993 277.32 Q 476.6 277.488 479.003 278.076 L 479.003 278.076 L 479.003 278.076 Q 483.003 278.774 486.02 279.021 L 486.02 279.021 L 486.02 279.021 Q 489.037 279.268 493.539 278.549 L 493.539 278.549 L 493.539 278.549 Q 496.739 278.038 498.434 276.856 L 498.434 276.856 L 498.434 276.856 Q 500.128 275.673 499.863 274.014 L 499.863 274.014 L 499.863 274.014 Q 499.655 272.711 498.653 272.142 L 498.653 272.142 L 498.653 272.142 Q 497.65 271.573 495.058 271.319 L 495.058 271.319 L 495.058 271.319 Q 492.465 271.065 486.351 270.826 L 486.351 270.826 L 486.351 270.826 Q 475.483 270.497 470.149 267.157 L 470.149 267.157 L 470.149 267.157 Q 464.815 263.816 463.622 256.351 L 463.622 256.351 L 463.622 256.351 Q 462.752 250.9 465.428 245.976 L 465.428 245.976 L 465.428 245.976 Q 468.105 241.052 473.632 237.617 L 473.632 237.617 L 473.632 237.617 Q 479.159 234.182 486.506 233.008 L 486.506 233.008 L 486.506 233.008 Q 491.839 232.156 497.083 232.655 L 497.083 232.655 L 497.083 232.655 Q 502.327 233.154 506.616 234.899 L 506.616 234.899 L 506.616 234.899 Q 510.631 236.445 511.388 241.185 L 511.388 241.185 L 511.388 241.185 Q 511.918 244.503 510.5 247.038 L 510.5 247.038 L 510.5 247.038 Q 509.083 249.574 506.476 249.99 L 506.476 249.99 L 506.476 249.99 Q 503.395 250.482 498.807 249.15 L 498.807 249.15 L 498.807 249.15 Q 495.755 248.301 493.458 247.999 L 493.458 247.999 L 493.458 247.999 Q 491.162 247.698 488.2 248.171 L 488.2 248.171 L 488.2 248.171 Q 485.237 248.644 483.72 249.798 L 483.72 249.798 L 483.72 249.798 Q 482.203 250.952 482.468 252.611 L 482.468 252.611 L 482.468 252.611 Q 482.771 254.507 485.252 255.204 L 485.252 255.204 L 485.252 255.204 Q 487.734 255.901 494.815 256.107 L 494.815 256.107 L 494.815 256.107 Q 506.631 256.285 512.024 259.615 L 512.024 259.615 L 512.024 259.615 Q 517.417 262.946 518.647 270.649 L 518.647 270.649 L 518.647 270.649 Q 520.029 279.299 513.684 285.599 L 513.684 285.599 L 513.684 285.599 Q 507.338 291.899 495.252 293.83 L 495.252 293.83 Z  M 562.367 267.431 L 562.367 267.431 Q 570.382 266.636 571.443 273.272 L 571.443 273.272 L 571.443 273.272 Q 572.105 277.419 569.228 279.945 L 569.228 279.945 L 569.228 279.945 Q 566.35 282.471 560.368 283.062 L 560.368 283.062 L 557.013 283.355 L 557.013 283.355 Q 546.215 284.229 539.806 279.481 L 539.806 279.481 L 539.806 279.481 Q 533.397 274.733 531.787 264.661 L 531.787 264.661 L 528.436 243.687 L 525 244.236 L 525 244.236 Q 515.52 245.75 514.27 237.929 L 514.27 237.929 L 514.27 237.929 Q 513.04 230.227 522.52 228.712 L 522.52 228.712 L 525.956 228.163 L 524.725 220.461 L 524.725 220.461 Q 524.006 215.958 526.424 212.838 L 526.424 212.838 L 526.424 212.838 Q 528.842 209.717 533.7 208.941 L 533.7 208.941 L 533.7 208.941 Q 538.559 208.165 541.828 210.376 L 541.828 210.376 L 541.828 210.376 Q 545.098 212.588 545.818 217.091 L 545.818 217.091 L 547.048 224.793 L 553.566 223.752 L 553.566 223.752 Q 563.046 222.238 564.276 229.94 L 564.276 229.94 L 564.276 229.94 Q 565.526 237.761 556.046 239.275 L 556.046 239.275 L 549.529 240.317 L 553.164 263.068 L 553.164 263.068 Q 553.523 265.319 555.132 266.642 L 555.132 266.642 L 555.132 266.642 Q 556.741 267.965 558.893 267.743 L 558.893 267.743 L 562.367 267.431 Z  M 616.891 212.419 L 616.891 212.419 Q 621.749 211.643 625.01 213.796 L 625.01 213.796 L 625.01 213.796 Q 628.27 215.948 628.99 220.451 L 628.99 220.451 L 635.54 261.451 L 635.54 261.451 Q 636.203 265.598 633.667 268.738 L 633.667 268.738 L 633.667 268.738 Q 631.13 271.877 626.39 272.635 L 626.39 272.635 L 626.39 272.635 Q 622.124 273.316 619.03 271.441 L 619.03 271.441 L 619.03 271.441 Q 615.935 269.566 615.192 265.674 L 615.192 265.674 L 615.192 265.674 Q 613.148 270.376 609.301 273.299 L 609.301 273.299 L 609.301 273.299 Q 605.454 276.223 600.003 277.094 L 600.003 277.094 L 600.003 277.094 Q 588.746 278.892 582.301 273.542 L 582.301 273.542 L 582.301 273.542 Q 575.856 268.192 573.831 255.513 L 573.831 255.513 L 569.741 229.917 L 569.741 229.917 Q 569.022 225.414 571.449 222.353 L 571.449 222.353 L 571.449 222.353 Q 573.876 219.292 578.735 218.516 L 578.735 218.516 L 578.735 218.516 Q 583.593 217.739 586.854 219.892 L 586.854 219.892 L 586.854 219.892 Q 590.114 222.044 590.834 226.547 L 590.834 226.547 L 594.999 252.617 L 594.999 252.617 Q 596.362 261.148 603.709 259.975 L 603.709 259.975 L 603.709 259.975 Q 607.975 259.293 610.208 255.777 L 610.208 255.777 L 610.208 255.777 Q 612.441 252.26 611.646 247.283 L 611.646 247.283 L 607.897 223.821 L 607.897 223.821 Q 607.178 219.318 609.605 216.257 L 609.605 216.257 L 609.605 216.257 Q 612.033 213.195 616.891 212.419 L 616.891 212.419 Z  M 672.405 265.526 L 672.405 265.526 Q 664.466 266.794 658.825 266.48 L 658.825 266.48 L 658.825 266.48 Q 653.185 266.166 648.621 264.222 L 648.621 264.222 L 648.621 264.222 Q 646.83 263.657 645.56 261.794 L 645.56 261.794 L 645.56 261.794 Q 644.29 259.931 643.893 257.443 L 643.893 257.443 L 643.893 257.443 Q 643.381 254.244 644.768 251.895 L 644.768 251.895 L 644.768 251.895 Q 646.155 249.547 648.762 249.131 L 648.762 249.131 L 648.762 249.131 Q 650.54 248.847 652.146 249.015 L 652.146 249.015 L 652.146 249.015 Q 653.753 249.184 656.156 249.772 L 656.156 249.772 L 656.156 249.772 Q 660.156 250.47 663.173 250.717 L 663.173 250.717 L 663.173 250.717 Q 666.19 250.964 670.693 250.245 L 670.693 250.245 L 670.693 250.245 Q 673.892 249.733 675.587 248.551 L 675.587 248.551 L 675.587 248.551 Q 677.281 247.369 677.016 245.71 L 677.016 245.71 L 677.016 245.71 Q 676.808 244.407 675.806 243.838 L 675.806 243.838 L 675.806 243.838 Q 674.803 243.269 672.211 243.015 L 672.211 243.015 L 672.211 243.015 Q 669.618 242.76 663.504 242.522 L 663.504 242.522 L 663.504 242.522 Q 652.636 242.193 647.302 238.852 L 647.302 238.852 L 647.302 238.852 Q 641.968 235.512 640.776 228.047 L 640.776 228.047 L 640.776 228.047 Q 639.905 222.596 642.581 217.672 L 642.581 217.672 L 642.581 217.672 Q 645.258 212.748 650.785 209.313 L 650.785 209.313 L 650.785 209.313 Q 656.313 205.878 663.659 204.704 L 663.659 204.704 L 663.659 204.704 Q 668.992 203.852 674.236 204.351 L 674.236 204.351 L 674.236 204.351 Q 679.481 204.85 683.77 206.595 L 683.77 206.595 L 683.77 206.595 Q 687.784 208.141 688.541 212.881 L 688.541 212.881 L 688.541 212.881 Q 689.071 216.199 687.653 218.734 L 687.653 218.734 L 687.653 218.734 Q 686.236 221.269 683.629 221.686 L 683.629 221.686 L 683.629 221.686 Q 680.548 222.178 675.96 220.845 L 675.96 220.845 L 675.96 220.845 Q 672.908 219.996 670.612 219.695 L 670.612 219.695 L 670.612 219.695 Q 668.315 219.393 665.353 219.867 L 665.353 219.867 L 665.353 219.867 Q 662.39 220.34 660.873 221.494 L 660.873 221.494 L 660.873 221.494 Q 659.356 222.647 659.622 224.306 L 659.622 224.306 L 659.622 224.306 Q 659.924 226.202 662.406 226.9 L 662.406 226.9 L 662.406 226.9 Q 664.887 227.597 671.968 227.802 L 671.968 227.802 L 671.968 227.802 Q 683.784 227.98 689.177 231.311 L 689.177 231.311 L 689.177 231.311 Q 694.57 234.642 695.801 242.344 L 695.801 242.344 L 695.801 242.344 Q 697.183 250.995 690.837 257.295 L 690.837 257.295 L 690.837 257.295 Q 684.492 263.595 672.405 265.526 L 672.405 265.526 Z " fill-rule="evenodd" fill="rgb(250,250,250)" />
                <path d=" M 519.395 661.814 L 519.395 661.814 Q 535.393 659.258 543.88 664.464 L 543.88 664.464 L 543.88 664.464 Q 552.368 669.67 554.413 682.468 L 554.413 682.468 L 554.413 682.468 Q 558.616 708.774 527.688 713.715 L 527.688 713.715 L 404.332 733.424 L 404.332 733.424 Q 373.405 738.366 369.202 712.059 L 369.202 712.059 L 369.202 712.059 Q 367.157 699.262 373.6 691.67 L 373.6 691.67 L 373.6 691.67 Q 380.043 684.078 396.04 681.523 L 396.04 681.523 L 424.835 676.922 L 404.331 548.59 L 378.561 569.841 L 378.561 569.841 Q 373.086 574.362 366.687 575.384 L 366.687 575.384 L 366.687 575.384 Q 356.733 576.975 348.232 569.401 L 348.232 569.401 L 348.232 569.401 Q 339.73 561.827 338.026 551.163 L 338.026 551.163 L 338.026 551.163 Q 335.698 536.588 346.947 527.134 L 346.947 527.134 L 398.543 484.986 L 398.543 484.986 Q 412.765 473.6 426.629 471.385 L 426.629 471.385 L 426.629 471.385 Q 440.849 469.113 450.922 476.253 L 450.922 476.253 L 450.922 476.253 Q 460.994 483.393 463.323 497.968 L 463.323 497.968 L 490.245 666.471 L 519.395 661.814 Z  M 697.385 429.583 L 697.385 429.583 Q 710.183 427.539 718.336 434.074 L 718.336 434.074 L 718.336 434.074 Q 726.489 440.61 728.364 452.341 L 728.364 452.341 L 728.364 452.341 Q 730.295 464.428 725.358 476.882 L 725.358 476.882 L 647.463 680.725 L 647.463 680.725 Q 643.849 690.052 637.215 695.305 L 637.215 695.305 L 637.215 695.305 Q 630.581 700.557 622.76 701.807 L 622.76 701.807 L 622.76 701.807 Q 610.318 703.794 599.385 696.974 L 599.385 696.974 L 599.385 696.974 Q 588.452 690.153 586.52 678.067 L 586.52 678.067 L 586.52 678.067 Q 585.157 669.535 588.771 660.208 L 588.771 660.208 L 655.198 489.55 L 566.325 503.75 L 566.325 503.75 Q 549.973 506.363 541.663 501.128 L 541.663 501.128 L 541.663 501.128 Q 533.353 495.894 531.308 483.096 L 531.308 483.096 L 531.308 483.096 Q 529.206 469.943 535.621 462.173 L 535.621 462.173 L 535.621 462.173 Q 542.036 454.404 558.033 451.848 L 558.033 451.848 L 697.385 429.583 Z " fill-rule="evenodd" fill="rgb(33,33,33)" />
            </g>
        </g>
    </g>
</svg>