<?xml version="1.0" standalone="no"?>
<!-- Generator: Gravit.io -->
<svg xmlns="http://www.w3.org/2000/svg" xmlns:xlink="http://www.w3.org/1999/xlink" style="isolation:isolate" viewBox="0 0 1024 1024" width="1024" height="1024">
    <defs>
        <clipPath id="_clipPath_1AwnWDTLAdke6qZtqQK01OBFrMF5SztT">
            <rect width="1024" height="1024" />
        </clipPath>
    </defs>
    <g clip-path="url(#_clipPath_1AwnWDTLAdke6qZtqQK01OBFrMF5SztT)">
        <rect x="87" y="87" width="850" height="850" transform="matrix(1,0,0,1,0,0)" fill="rgb(33,33,33)" />
        <g id="Calendar">
            <path d=" M 156.285 406.955 L 814.612 298.735 L 898.965 810.988 L 236.582 920.582 L 156.285 406.955 Z " fill-rule="evenodd" fill="rgb(255,255,255)" />
            <path d=" M 229.089 874 Q 465.333 852 585 832 Q 704.667 812 893.385 782 L 898.965 810.988 L 236.582 920.582 L 229.089 874 Z " fill-rule="evenodd" fill="rgb(200,199,199)" />
            <path d=" M 156.648 409.277 L 125.035 207.066 L 782.449 103.418 L 815.375 303.366 L 156.648 409.277 Z " fill-rule="evenodd" fill="rgb(198,40,40)" />
            <path d=" M 383.571 304.164 L 383.571 304.164 Q 384.997 306.245 385.338 308.378 L 385.338 308.378 L 385.338 308.378 Q 385.963 312.288 383.258 315.515 L 383.258 315.515 L 383.258 315.515 Q 380.553 318.742 376.524 319.386 L 376.524 319.386 L 376.524 319.386 Q 373.799 319.821 371.32 318.759 L 371.32 318.759 L 371.32 318.759 Q 368.842 317.697 367.084 315.061 L 367.084 315.061 L 359.839 303.945 L 321.446 310.079 L 317.907 322.918 L 317.907 322.918 Q 317.058 325.971 314.975 327.762 L 314.975 327.762 L 314.975 327.762 Q 312.891 329.553 310.166 329.988 L 310.166 329.988 L 310.166 329.988 Q 306.137 330.632 302.443 328.427 L 302.443 328.427 L 302.443 328.427 Q 298.749 326.222 298.124 322.312 L 298.124 322.312 L 298.124 322.312 Q 297.783 320.179 298.49 317.757 L 298.49 317.757 L 319.512 248.534 L 319.512 248.534 Q 320.541 245.088 323.288 242.887 L 323.288 242.887 L 323.288 242.887 Q 326.035 240.686 329.709 240.099 L 329.709 240.099 L 329.709 240.099 Q 333.264 239.531 336.619 240.757 L 336.619 240.757 L 336.619 240.757 Q 339.974 241.983 342.026 244.936 L 342.026 244.936 L 383.571 304.164 Z  M 333.808 264.235 L 326.18 292.553 L 349.88 288.766 L 333.808 264.235 Z  M 406.798 314.914 L 406.798 314.914 Q 401.821 315.709 398.454 313.27 L 398.454 313.27 L 398.454 313.27 Q 395.087 310.83 394.292 305.853 L 394.292 305.853 L 384.163 242.457 L 384.163 242.457 Q 383.386 237.599 385.577 234.576 L 385.577 234.576 L 385.577 234.576 Q 387.767 231.552 392.626 230.776 L 392.626 230.776 L 422.961 225.929 L 422.961 225.929 Q 436.825 223.714 445.654 229.534 L 445.654 229.534 L 445.654 229.534 Q 454.483 235.354 456.49 247.915 L 456.49 247.915 L 456.49 247.915 Q 458.478 260.357 451.852 268.707 L 451.852 268.707 L 451.852 268.707 Q 445.226 277.057 431.481 279.253 L 431.481 279.253 L 412.877 282.225 L 416.095 302.37 L 416.095 302.37 Q 416.89 307.347 414.392 310.723 L 414.392 310.723 L 414.392 310.723 Q 411.893 314.1 406.798 314.914 L 406.798 314.914 Z  M 410.264 265.873 L 425.906 263.374 L 425.906 263.374 Q 431.949 262.408 434.454 259.456 L 434.454 259.456 L 434.454 259.456 Q 436.96 256.503 436.127 251.29 L 436.127 251.29 L 436.127 251.29 Q 434.48 240.98 422.63 242.874 L 422.63 242.874 L 406.989 245.373 L 410.264 265.873 Z  M 544.177 278.017 L 544.177 278.017 Q 546.821 280.876 547.276 283.72 L 547.276 283.72 L 547.276 283.72 Q 547.881 287.511 545.148 290.561 L 545.148 290.561 L 545.148 290.561 Q 542.415 293.61 538.268 294.273 L 538.268 294.273 L 538.268 294.273 Q 535.424 294.727 532.727 293.821 L 532.727 293.821 L 532.727 293.821 Q 530.031 292.916 527.837 290.593 L 527.837 290.593 L 508.835 270.539 L 508.835 270.539 Q 506.797 268.435 504.781 267.602 L 504.781 267.602 L 504.781 267.602 Q 502.764 266.77 500.276 267.168 L 500.276 267.168 L 492.573 268.398 L 495.962 289.609 L 495.962 289.609 Q 496.757 294.586 494.377 297.944 L 494.377 297.944 L 494.377 297.944 Q 491.997 301.301 487.02 302.096 L 487.02 302.096 L 487.02 302.096 Q 482.043 302.892 478.676 300.452 L 478.676 300.452 L 478.676 300.452 Q 475.309 298.013 474.514 293.036 L 474.514 293.036 L 464.385 229.64 L 464.385 229.64 Q 463.609 224.782 465.799 221.758 L 465.799 221.758 L 465.799 221.758 Q 467.99 218.735 472.848 217.959 L 472.848 217.959 L 502.591 213.206 L 502.591 213.206 Q 517.759 210.783 526.452 216.138 L 526.452 216.138 L 526.452 216.138 Q 535.146 221.494 537.134 233.936 L 537.134 233.936 L 537.134 233.936 Q 538.649 243.416 534.486 250.826 L 534.486 250.826 L 534.486 250.826 Q 530.323 258.235 521.203 262.001 L 521.203 262.001 L 521.203 262.001 Q 525.208 261.969 528.433 263.519 L 528.433 263.519 L 528.433 263.519 Q 531.658 265.07 535.145 268.645 L 535.145 268.645 L 544.177 278.017 Z  M 504.891 249.66 L 504.891 249.66 Q 512.119 248.505 514.9 245.752 L 514.9 245.752 L 514.9 245.752 Q 517.68 242.999 516.866 237.904 L 516.866 237.904 L 516.866 237.904 Q 516.033 232.69 512.524 230.881 L 512.524 230.881 L 512.524 230.881 Q 509.015 229.072 501.786 230.227 L 501.786 230.227 L 486.619 232.65 L 489.724 252.083 L 504.891 249.66 Z  M 570.798 288.711 L 570.798 288.711 Q 565.821 289.506 562.454 287.067 L 562.454 287.067 L 562.454 287.067 Q 559.087 284.627 558.292 279.651 L 558.292 279.651 L 548.163 216.255 L 548.163 216.255 Q 547.386 211.396 549.826 208.029 L 549.826 208.029 L 549.826 208.029 Q 552.265 204.662 557.242 203.867 L 557.242 203.867 L 557.242 203.867 Q 562.337 203.053 565.764 205.483 L 565.764 205.483 L 565.764 205.483 Q 569.19 207.913 569.966 212.771 L 569.966 212.771 L 580.095 276.167 L 580.095 276.167 Q 580.89 281.144 578.392 284.52 L 578.392 284.52 L 578.392 284.52 Q 575.893 287.897 570.798 288.711 L 570.798 288.711 Z  M 606.944 282.207 L 606.944 282.207 Q 602.086 282.983 599.062 280.792 L 599.062 280.792 L 599.062 280.792 Q 596.039 278.602 595.244 273.625 L 595.244 273.625 L 585.134 210.348 L 585.134 210.348 Q 584.358 205.489 586.797 202.122 L 586.797 202.122 L 586.797 202.122 Q 589.236 198.755 594.213 197.96 L 594.213 197.96 L 594.213 197.96 Q 599.308 197.146 602.735 199.576 L 602.735 199.576 L 602.735 199.576 Q 606.161 202.006 606.937 206.864 L 606.937 206.864 L 615.854 262.676 L 643.109 258.322 L 643.109 258.322 Q 653.418 256.675 654.838 265.562 L 654.838 265.562 L 654.838 265.562 Q 655.557 270.065 653.351 272.605 L 653.351 272.605 L 653.351 272.605 Q 651.144 275.145 645.93 275.978 L 645.93 275.978 L 606.944 282.207 Z " fill-rule="evenodd" fill="rgb(250,250,250)" />
            <path d=" M 610.91 648.44 L 610.91 648.44 Q 626.886 645.813 635.393 650.978 L 635.393 650.978 L 635.393 650.978 Q 643.9 656.142 646.001 668.924 L 646.001 668.924 L 646.001 668.924 Q 650.321 695.196 619.433 700.275 L 619.433 700.275 L 496.236 720.533 L 496.236 720.533 Q 465.348 725.613 461.028 699.34 L 461.028 699.34 L 461.028 699.34 Q 458.927 686.559 465.331 678.942 L 465.331 678.942 L 465.331 678.942 Q 471.736 671.325 487.713 668.698 L 487.713 668.698 L 516.471 663.97 L 495.395 535.802 L 469.736 557.159 L 469.736 557.159 Q 464.285 561.702 457.894 562.753 L 457.894 562.753 L 457.894 562.753 Q 447.953 564.387 439.422 556.857 L 439.422 556.857 L 439.422 556.857 Q 430.891 549.326 429.14 538.675 L 429.14 538.675 L 429.14 538.675 Q 426.746 524.119 437.946 514.619 L 437.946 514.619 L 489.322 472.26 L 489.322 472.26 Q 503.484 460.816 517.331 458.539 L 517.331 458.539 L 517.331 458.539 Q 531.532 456.204 541.631 463.294 L 541.631 463.294 L 541.631 463.294 Q 551.731 470.385 554.125 484.941 L 554.125 484.941 L 581.797 653.227 L 610.91 648.44 Z " fill="rgb(33,33,33)" />
        </g>
    </g>
</svg>