<?xml version="1.0" standalone="no"?>
<!-- Generator: Gravit.io -->
<svg xmlns="http://www.w3.org/2000/svg" xmlns:xlink="http://www.w3.org/1999/xlink" style="isolation:isolate" viewBox="0 0 1024 1024" width="1024" height="1024">
    <defs>
        <clipPath id="_clipPath_6rvcnDomOWw9TMYXI8tslUZ9HCCTbTmT">
            <rect width="1024" height="1024" />
        </clipPath>
    </defs>
    <g clip-path="url(#_clipPath_6rvcnDomOWw9TMYXI8tslUZ9HCCTbTmT)">
        <rect x="87" y="87" width="850" height="850" transform="matrix(1,0,0,1,0,0)" fill="rgb(238,238,238)" />
        <g id="Belgium Flag">
            <rect x="87" y="87" width="283.333" height="850" transform="matrix(1,0,0,1,0,0)" fill="rgb(0,0,0)" />
            <rect x="370.333" y="87" width="283.333" height="850" transform="matrix(1,0,0,1,0,0)" fill="rgb(251,192,45)" />
            <rect x="653.667" y="87" width="283.333" height="850" transform="matrix(1,0,0,1,0,0)" fill="rgb(183,28,28)" />
        </g>
        <g id="Calendar">
            <path d=" M 156.285 406.955 L 814.612 298.735 L 898.965 810.988 L 236.582 920.582 L 156.285 406.955 Z " fill-rule="evenodd" fill="rgb(255,255,255)" />
            <path d=" M 229.089 874 Q 465.333 852 585 832 Q 704.667 812 893.385 782 L 898.965 810.988 L 236.582 920.582 L 229.089 874 Z " fill-rule="evenodd" fill="rgb(200,199,199)" />
            <path d=" M 156.648 409.277 L 125.035 207.066 L 782.449 103.418 L 815.375 303.366 L 156.648 409.277 Z " fill-rule="evenodd" fill="rgb(55,71,79)" />
            <g id="Belgium Date">
                <path d=" M 409.156 310.514 L 409.156 310.514 Q 396.216 313.189 394.721 303.828 L 394.721 303.828 L 394.721 303.828 Q 394.058 299.681 395.75 297.344 L 395.75 297.344 L 395.75 297.344 Q 397.443 295.008 401.79 294.07 L 401.79 294.07 L 405.781 293.19 L 405.781 293.19 Q 409.317 292.503 410.803 290.018 L 410.803 290.018 L 410.803 290.018 Q 412.289 287.532 411.684 283.74 L 411.684 283.74 L 403.94 235.275 L 403.94 235.275 Q 403.164 230.416 405.663 227.04 L 405.663 227.04 L 405.663 227.04 Q 408.161 223.663 413.257 222.849 L 413.257 222.849 L 413.257 222.849 Q 418.115 222.073 421.6 224.493 L 421.6 224.493 L 421.6 224.493 Q 425.086 226.914 425.862 231.772 L 425.862 231.772 L 433.549 279.882 L 433.549 279.882 Q 435.442 291.732 430.272 299.302 L 430.272 299.302 L 430.272 299.302 Q 425.101 306.873 412.91 309.671 L 412.91 309.671 L 409.156 310.514 Z  M 490.07 235.853 L 490.07 235.853 Q 494.929 235.077 498.189 237.229 L 498.189 237.229 L 498.189 237.229 Q 501.449 239.382 502.169 243.885 L 502.169 243.885 L 508.72 284.885 L 508.72 284.885 Q 509.382 289.032 506.846 292.172 L 506.846 292.172 L 506.846 292.172 Q 504.309 295.311 499.569 296.069 L 499.569 296.069 L 499.569 296.069 Q 495.304 296.75 492.209 294.875 L 492.209 294.875 L 492.209 294.875 Q 489.114 293 488.371 289.108 L 488.371 289.108 L 488.371 289.108 Q 486.327 293.81 482.48 296.733 L 482.48 296.733 L 482.48 296.733 Q 478.633 299.657 473.182 300.528 L 473.182 300.528 L 473.182 300.528 Q 461.925 302.326 455.48 296.976 L 455.48 296.976 L 455.48 296.976 Q 449.036 291.626 447.01 278.947 L 447.01 278.947 L 442.92 253.351 L 442.92 253.351 Q 442.201 248.848 444.628 245.787 L 444.628 245.787 L 444.628 245.787 Q 447.056 242.726 451.914 241.949 L 451.914 241.949 L 451.914 241.949 Q 456.773 241.173 460.033 243.326 L 460.033 243.326 L 460.033 243.326 Q 463.293 245.478 464.013 249.981 L 464.013 249.981 L 468.178 276.051 L 468.178 276.051 Q 469.541 284.582 476.888 283.409 L 476.888 283.409 L 476.888 283.409 Q 481.154 282.727 483.387 279.211 L 483.387 279.211 L 483.387 279.211 Q 485.62 275.694 484.825 270.717 L 484.825 270.717 L 481.076 247.255 L 481.076 247.255 Q 480.357 242.752 482.784 239.691 L 482.784 239.691 L 482.784 239.691 Q 485.212 236.629 490.07 235.853 L 490.07 235.853 Z  M 533.104 290.711 L 533.104 290.711 Q 528.601 291.43 525.191 289.484 L 525.191 289.484 L 525.191 289.484 Q 521.782 287.537 521.005 282.679 L 521.005 282.679 L 510.574 217.387 L 510.574 217.387 Q 509.797 212.529 512.421 209.557 L 512.421 209.557 L 512.421 209.557 Q 515.045 206.586 519.548 205.867 L 519.548 205.867 L 519.548 205.867 Q 524.051 205.147 527.471 207.153 L 527.471 207.153 L 527.471 207.153 Q 530.89 209.159 531.666 214.017 L 531.666 214.017 L 542.098 279.309 L 542.098 279.309 Q 542.874 284.167 540.241 287.079 L 540.241 287.079 L 540.241 287.079 Q 537.607 289.991 533.104 290.711 L 533.104 290.711 Z " fill-rule="evenodd" fill="rgb(250,250,250)" />
                <path d=" M 503.153 662.29 L 503.153 662.29 Q 518.794 659.791 527.431 664.791 L 527.431 664.791 L 527.431 664.791 Q 536.068 669.791 538.17 682.944 L 538.17 682.944 L 538.17 682.944 Q 540.328 696.453 533.707 704.073 L 533.707 704.073 L 533.707 704.073 Q 527.087 711.693 511.445 714.192 L 511.445 714.192 L 381.691 734.923 L 381.691 734.923 Q 368.893 736.968 360.207 730.518 L 360.207 730.518 L 360.207 730.518 Q 351.52 724.067 349.646 712.336 L 349.646 712.336 L 349.646 712.336 Q 347.204 697.05 357.302 682.677 L 357.302 682.677 L 420.114 592.072 L 420.114 592.072 Q 439.658 563.795 436.363 543.176 L 436.363 543.176 L 436.363 543.176 Q 434.432 531.089 426.478 525.798 L 426.478 525.798 L 426.478 525.798 Q 418.523 520.507 405.726 522.551 L 405.726 522.551 L 405.726 522.551 Q 395.416 524.199 387.19 528.612 L 387.19 528.612 L 387.19 528.612 Q 378.963 533.025 368.496 540.53 L 368.496 540.53 L 361.954 545.221 L 361.954 545.221 Q 360.646 546.16 356.927 549.123 L 356.927 549.123 L 356.927 549.123 Q 353.208 552.087 350.179 553.665 L 350.179 553.665 L 350.179 553.665 Q 347.15 555.243 343.595 555.811 L 343.595 555.811 L 343.595 555.811 Q 334.707 557.23 327.386 550.197 L 327.386 550.197 L 327.386 550.197 Q 320.065 543.164 318.304 532.144 L 318.304 532.144 L 318.304 532.144 Q 317.055 524.323 318.57 518.977 L 318.57 518.977 L 318.57 518.977 Q 320.086 513.631 325.803 508.343 L 325.803 508.343 L 325.803 508.343 Q 340.693 494.298 360.467 484.576 L 360.467 484.576 L 360.467 484.576 Q 380.241 474.855 400.504 471.617 L 400.504 471.617 L 400.504 471.617 Q 426.811 467.414 448.11 472.943 L 448.11 472.943 L 448.11 472.943 Q 469.409 478.472 482.835 492.915 L 482.835 492.915 L 482.835 492.915 Q 496.262 507.357 499.613 528.331 L 499.613 528.331 L 499.613 528.331 Q 503.078 550.016 497.237 569.36 L 497.237 569.36 L 497.237 569.36 Q 491.395 588.704 473.943 614.095 L 473.943 614.095 L 431.699 673.707 L 503.153 662.29 Z  M 726.046 626.678 L 726.046 626.678 Q 742.043 624.122 750.53 629.328 L 750.53 629.328 L 750.53 629.328 Q 759.018 634.534 761.063 647.332 L 761.063 647.332 L 761.063 647.332 Q 765.266 673.638 734.338 678.58 L 734.338 678.58 L 610.983 698.289 L 610.983 698.289 Q 580.055 703.23 575.852 676.924 L 575.852 676.924 L 575.852 676.924 Q 573.807 664.126 580.25 656.535 L 580.25 656.535 L 580.25 656.535 Q 586.693 648.943 602.69 646.387 L 602.69 646.387 L 631.485 641.786 L 610.981 513.454 L 585.211 534.706 L 585.211 534.706 Q 579.736 539.226 573.337 540.249 L 573.337 540.249 L 573.337 540.249 Q 563.383 541.839 554.882 534.266 L 554.882 534.266 L 554.882 534.266 Q 546.38 526.692 544.677 516.027 L 544.677 516.027 L 544.677 516.027 Q 542.348 501.452 553.597 491.999 L 553.597 491.999 L 605.194 449.851 L 605.194 449.851 Q 619.415 438.464 633.279 436.249 L 633.279 436.249 L 633.279 436.249 Q 647.499 433.977 657.572 441.117 L 657.572 441.117 L 657.572 441.117 Q 667.644 448.258 669.973 462.833 L 669.973 462.833 L 696.895 631.336 L 726.046 626.678 Z " fill-rule="evenodd" fill="rgb(33,33,33)" />
            </g>
        </g>
    </g>
</svg>