<?xml version="1.0" standalone="no"?>
<!-- Generator: Gravit.io -->
<svg xmlns="http://www.w3.org/2000/svg" xmlns:xlink="http://www.w3.org/1999/xlink" style="isolation:isolate" viewBox="0 0 1024 1024" width="1024" height="1024">
    <defs>
        <clipPath id="_clipPath_CltihRRGvX8RD2PABEKjhOZnBYdHnSwZ">
            <rect width="1024" height="1024" />
        </clipPath>
    </defs>
    <g clip-path="url(#_clipPath_CltihRRGvX8RD2PABEKjhOZnBYdHnSwZ)">
        <rect x="87" y="87" width="850" height="850" transform="matrix(1,0,0,1,0,0)" fill="rgb(238,238,238)" />
        <g id="Greece Flag">
            <rect x="87" y="87" width="850" height="849.001" transform="matrix(1,0,0,1,0,0)" fill="rgb(13,94,175)" />
            <path d=" M 323.111 87 L 323.111 606.444 M 87 323.111 L 559.222 323.111 M 559.222 228.667 L 937 228.667 M 559.222 417.556 L 937 417.556 M 87 606.444 L 937 606.444 M 87 795.333 L 937 795.333" fill="none" vector-effect="non-scaling-stroke" stroke-width="94.444" stroke="rgb(255,255,255)" stroke-linejoin="miter" stroke-linecap="butt" stroke-miterlimit="4" />
        </g>
        <g id="Calendar">
            <path d=" M 156.285 406.955 L 814.612 298.735 L 898.965 810.988 L 236.582 920.582 L 156.285 406.955 Z " fill-rule="evenodd" fill="rgb(255,255,255)" />
            <path d=" M 229.089 874 Q 465.333 852 585 832 Q 704.667 812 893.385 782 L 898.965 810.988 L 236.582 920.582 L 229.089 874 Z " fill-rule="evenodd" fill="rgb(200,199,199)" />
            <path d=" M 156.648 409.277 L 125.035 207.066 L 782.449 103.418 L 815.375 303.366 L 156.648 409.277 Z " fill-rule="evenodd" fill="rgb(26,35,126)" />
            <g id="Greece Date">
                <path d=" M 316.462 244.349 C 312.314 245.011 309.375 247.911 307.644 253.049 L 292.51 297.513 L 264.155 259.997 C 262.611 257.935 260.905 256.385 258.919 255.365 C 256.952 254.464 254.962 254.175 252.829 254.515 C 249.866 254.989 247.529 256.334 245.955 258.652 C 244.263 260.988 243.712 263.628 244.223 266.827 L 254.523 331.29 C 254.996 334.252 256.323 336.471 258.384 337.964 C 260.446 339.458 262.83 339.927 265.555 339.492 C 268.399 339.037 270.617 337.711 272.111 335.649 C 273.604 333.588 274.074 331.204 273.601 328.242 L 268.148 294.114 L 285.401 316.148 C 287.102 318.429 288.808 319.979 290.519 320.799 C 292.229 321.62 294.101 321.928 296.116 321.606 C 298.13 321.284 299.813 320.408 301.183 319.095 C 302.553 317.783 303.691 315.778 304.597 313.081 L 314.13 286.039 L 319.696 320.877 C 320.17 323.839 321.496 326.058 323.558 327.551 C 325.619 329.045 328.003 329.514 330.728 329.079 C 333.572 328.625 335.691 327.435 337.185 325.374 C 338.678 323.312 339.129 320.81 338.656 317.848 L 328.356 253.385 C 327.845 250.186 326.5 247.849 324.282 246.137 C 322.064 244.426 319.424 243.875 316.462 244.349 Z  M 397.067 256.747 C 394.105 257.22 391.73 258.328 390.199 260.153 C 388.549 261.996 387.823 264.3 388.14 267.044 C 386.046 264.584 383.316 262.711 379.871 261.682 C 376.425 260.652 372.738 260.391 368.827 261.016 C 363.85 261.811 359.674 263.815 356.161 266.928 C 352.667 270.16 350.173 274.325 348.66 279.306 C 347.147 284.287 346.933 289.79 347.898 295.834 C 348.864 301.877 350.763 306.92 353.734 311.064 C 356.606 315.344 360.236 318.288 364.544 320.152 C 368.852 322.016 373.425 322.5 378.521 321.686 C 382.431 321.061 385.853 319.664 388.807 317.612 C 391.76 315.561 393.77 312.93 394.994 309.94 C 395.666 312.628 397.054 314.472 399.197 315.709 C 401.22 316.966 403.723 317.416 406.685 316.943 C 409.884 316.432 412.24 315.205 413.852 313.124 C 415.464 311.044 416.034 308.523 415.56 305.56 L 409.048 264.797 C 408.574 261.835 407.248 259.616 405.068 258.142 C 402.888 256.667 400.267 256.235 397.067 256.747 Z  M 382.401 304.904 C 378.728 305.49 375.813 304.741 373.401 302.574 C 370.989 300.408 369.492 297.123 368.754 292.501 C 367.996 287.762 368.476 283.918 370.074 280.989 C 371.672 278.06 374.189 276.321 377.744 275.753 C 381.417 275.166 384.47 276.015 386.882 278.182 C 389.294 280.349 390.829 283.871 391.586 288.61 C 392.324 293.232 391.944 296.938 390.327 299.749 C 388.71 302.559 386.075 304.317 382.401 304.904 Z  M 374.56 247.461 L 381.19 232.67 C 382.612 229.405 382.533 226.622 381.068 224.304 C 379.78 222.323 378.012 221.147 375.628 220.677 C 373.282 220.445 371.149 220.785 369.168 222.074 C 367.94 222.756 366.906 223.894 366.148 225.23 C 365.526 226.666 364.943 228.339 364.872 230.173 L 364.001 245.26 C 363.854 246.62 364.18 247.904 364.844 249.014 C 365.507 250.123 366.606 250.919 368.123 251.285 C 369.621 251.532 370.924 251.323 372.252 250.504 C 373.342 249.722 374.157 248.741 374.56 247.461 Z  M 468.277 278.788 C 469.507 286.49 466.406 292.94 460.718 293.849 C 454.793 294.796 449.339 290.32 447.9 281.314 C 446.442 272.19 449.918 265.802 456.317 264.779 C 462.479 263.795 466.8 269.545 468.277 278.788 Z  M 445.078 334.384 C 450.528 333.513 455.506 329.68 454.654 324.348 L 451.322 303.492 C 453.16 305.872 455.359 307.465 458.075 308.489 C 460.791 309.514 463.511 309.808 466.355 309.354 C 479.864 307.195 486.593 292.267 484.037 276.27 C 481.159 258.258 470.962 246.155 453.306 248.976 C 432.806 252.252 423.806 267.422 427.214 288.751 L 433.443 327.737 C 434.295 333.069 439.982 335.198 445.078 334.384 Z  M 486.351 248.922 C 487.033 253.188 491.018 256.075 495.284 255.394 L 502.275 254.277 L 507.993 290.063 C 508.504 293.262 509.968 295.58 512.229 296.799 C 514.508 298.136 517.129 298.568 520.092 298.095 C 523.054 297.621 525.528 296.375 527.278 294.395 C 529.046 292.532 529.597 289.892 529.085 286.693 L 523.368 250.907 L 530.478 249.771 C 534.625 249.108 537.512 245.123 536.831 240.857 C 536.168 236.709 532.183 233.822 528.035 234.485 L 492.842 240.108 C 488.576 240.789 485.688 244.775 486.351 248.922 Z  M 565.59 291.554 C 568.552 291.081 571.026 289.835 572.776 287.854 C 574.544 285.992 575.095 283.352 574.583 280.153 L 568.071 239.39 C 567.559 236.19 566.214 233.853 563.934 232.516 C 561.674 231.298 558.934 230.885 555.972 231.358 C 553.009 231.831 550.654 233.058 548.885 234.921 C 547.136 236.901 546.467 239.56 546.978 242.76 L 553.491 283.523 C 554.002 286.722 555.466 289.04 557.727 290.259 C 560.006 291.596 562.627 292.028 565.59 291.554 Z  M 620.492 283.026 C 627.009 281.984 632.37 279.791 636.831 276.526 C 641.292 273.262 644.416 269.238 646.403 264.182 C 648.272 259.144 648.723 253.603 647.739 247.441 C 646.754 241.279 644.599 236.155 641.253 231.95 C 637.809 227.883 633.586 225.033 628.33 223.321 C 623.074 221.609 617.315 221.314 610.798 222.355 C 604.281 223.396 598.901 225.471 594.44 228.736 C 589.979 232.001 586.855 236.024 584.967 240.943 C 582.98 246 582.529 251.541 583.513 257.703 C 584.498 263.864 586.653 268.989 590.117 273.175 C 593.462 277.379 597.803 280.21 603.059 281.922 C 608.315 283.634 614.093 284.048 620.492 283.026 Z  M 617.974 267.266 C 610.508 268.458 605.94 264.206 604.369 254.37 C 602.797 244.535 605.813 239.071 613.278 237.878 C 620.744 236.686 625.312 240.938 626.883 250.773 C 628.455 260.609 625.439 266.073 617.974 267.266 Z  M 701.193 228.328 C 703.563 227.95 705.601 227.016 706.957 224.855 C 708.232 222.95 708.11 220.661 707.731 218.291 C 707.485 216.751 706.765 215.286 705.334 213.935 C 701.315 210.08 692.817 209.372 686.774 210.338 C 678.36 211.682 668.899 216.353 663.248 223.575 C 657.615 230.916 655.409 239.167 656.886 248.41 C 657.454 251.965 658.302 254.989 659.486 257.838 C 660.533 260.587 661.623 262.844 663.03 264.806 C 664.845 267.797 669.536 271.301 672.683 272.743 C 676.242 274.483 680.555 275.617 686.413 275.774 C 690.2 275.898 692.825 278.638 693.166 280.771 C 693.223 281.127 693.356 281.956 693.407 283.042 C 693.459 284.127 693.492 285.094 693.625 285.924 C 694.401 290.782 699.515 293.125 705.44 292.178 C 712.905 290.985 715.95 281.141 714.662 273.084 C 713.943 268.581 710.953 264.319 707.062 262.024 C 702.916 259.649 697.531 259.415 692.128 259.063 C 687.18 258.517 682.625 258.151 679.683 255.705 C 678.839 254.989 677.92 253.799 677.062 252.235 C 676.205 250.67 675.376 247.765 675.016 245.513 C 674.24 240.655 675.094 236.873 677.483 233.575 C 679.854 230.158 683.044 228.068 687.073 227.425 C 692.287 226.592 696.097 229.142 701.193 228.328 Z " fill-rule="evenodd" fill="rgb(250,250,250)" />
                <path d=" M 510.153 663.29 L 510.153 663.29 Q 525.794 660.791 534.431 665.791 L 534.431 665.791 L 534.431 665.791 Q 543.068 670.791 545.17 683.944 L 545.17 683.944 L 545.17 683.944 Q 547.328 697.453 540.707 705.073 L 540.707 705.073 L 540.707 705.073 Q 534.087 712.693 518.445 715.192 L 518.445 715.192 L 388.691 735.923 L 388.691 735.923 Q 375.893 737.968 367.207 731.518 L 367.207 731.518 L 367.207 731.518 Q 358.52 725.067 356.646 713.336 L 356.646 713.336 L 356.646 713.336 Q 354.204 698.05 364.302 683.677 L 364.302 683.677 L 427.114 593.072 L 427.114 593.072 Q 446.658 564.795 443.363 544.176 L 443.363 544.176 L 443.363 544.176 Q 441.432 532.089 433.478 526.798 L 433.478 526.798 L 433.478 526.798 Q 425.523 521.507 412.726 523.551 L 412.726 523.551 L 412.726 523.551 Q 402.416 525.199 394.19 529.612 L 394.19 529.612 L 394.19 529.612 Q 385.963 534.025 375.496 541.53 L 375.496 541.53 L 368.954 546.221 L 368.954 546.221 Q 367.646 547.16 363.927 550.123 L 363.927 550.123 L 363.927 550.123 Q 360.208 553.087 357.179 554.665 L 357.179 554.665 L 357.179 554.665 Q 354.15 556.243 350.595 556.811 L 350.595 556.811 L 350.595 556.811 Q 341.707 558.23 334.386 551.197 L 334.386 551.197 L 334.386 551.197 Q 327.065 544.164 325.304 533.144 L 325.304 533.144 L 325.304 533.144 Q 324.055 525.323 325.57 519.977 L 325.57 519.977 L 325.57 519.977 Q 327.086 514.631 332.803 509.343 L 332.803 509.343 L 332.803 509.343 Q 347.693 495.298 367.467 485.576 L 367.467 485.576 L 367.467 485.576 Q 387.241 475.855 407.504 472.617 L 407.504 472.617 L 407.504 472.617 Q 433.811 468.414 455.11 473.943 L 455.11 473.943 L 455.11 473.943 Q 476.409 479.472 489.835 493.915 L 489.835 493.915 L 489.835 493.915 Q 503.262 508.357 506.613 529.331 L 506.613 529.331 L 506.613 529.331 Q 510.078 551.016 504.237 570.36 L 504.237 570.36 L 504.237 570.36 Q 498.395 589.704 480.943 615.095 L 480.943 615.095 L 438.699 674.707 L 510.153 663.29 Z  M 657.209 524.956 L 657.209 524.956 Q 680.316 521.265 699.887 528.528 L 699.887 528.528 L 699.887 528.528 Q 719.458 535.791 732.515 552.48 L 732.515 552.48 L 732.515 552.48 Q 745.571 569.169 749.377 592.987 L 749.377 592.987 L 749.377 592.987 Q 753.466 618.582 744.504 640.066 L 744.504 640.066 L 744.504 640.066 Q 735.541 661.549 715.204 675.735 L 715.204 675.735 L 715.204 675.735 Q 694.868 689.921 666.073 694.522 L 666.073 694.522 L 666.073 694.522 Q 644.032 698.043 621.858 695.024 L 621.858 695.024 L 621.858 695.024 Q 599.684 692.004 582.581 683.071 L 582.581 683.071 L 582.581 683.071 Q 576.154 679.358 572.665 674.63 L 572.665 674.63 L 572.665 674.63 Q 569.175 669.901 568.039 662.791 L 568.039 662.791 L 568.039 662.791 Q 566.278 651.771 571.1 643.162 L 571.1 643.162 L 571.1 643.162 Q 575.923 634.554 584.81 633.134 L 584.81 633.134 L 584.81 633.134 Q 590.142 632.282 593.924 633.136 L 593.924 633.136 L 593.924 633.136 Q 597.706 633.99 605.441 636.764 L 605.441 636.764 L 613.119 639.183 L 613.119 639.183 Q 624.991 642.755 634.567 644.506 L 634.567 644.506 L 634.567 644.506 Q 644.143 646.257 654.808 644.553 L 654.808 644.553 L 654.808 644.553 Q 674.716 641.372 683.036 631.84 L 683.036 631.84 L 683.036 631.84 Q 691.356 622.308 688.63 605.245 L 688.63 605.245 L 688.63 605.245 Q 686.074 589.248 674.7 581.951 L 674.7 581.951 L 674.7 581.951 Q 663.327 574.654 645.552 577.494 L 645.552 577.494 L 645.552 577.494 Q 634.887 579.198 626.462 582.367 L 626.462 582.367 L 626.462 582.367 Q 618.036 585.536 607.043 592.031 L 607.043 592.031 L 607.043 592.031 Q 600.203 597.134 591.671 598.498 L 591.671 598.498 L 591.671 598.498 Q 581.717 600.088 574.026 595.301 L 574.026 595.301 L 574.026 595.301 Q 566.334 590.515 564.801 580.917 L 564.801 580.917 L 549.409 484.579 L 549.409 484.579 Q 547.023 469.648 553.594 460.578 L 553.594 460.578 L 553.594 460.578 Q 560.166 451.507 574.741 449.179 L 574.741 449.179 L 684.943 431.571 L 684.943 431.571 Q 715.871 426.63 719.79 451.159 L 719.79 451.159 L 719.79 451.159 Q 723.766 476.043 692.838 480.985 L 692.838 480.985 L 616.052 493.253 L 623.038 536.978 L 623.038 536.978 Q 636.946 528.194 657.209 524.956 L 657.209 524.956 Z " fill-rule="evenodd" fill="rgb(33,33,33)" />
            </g>
        </g>
    </g>
</svg>