<?xml version="1.0" standalone="no"?>
<!-- Generator: Gravit.io -->
<svg xmlns="http://www.w3.org/2000/svg" xmlns:xlink="http://www.w3.org/1999/xlink" style="isolation:isolate" viewBox="0 0 1024 1024" width="1024" height="1024">
    <defs>
        <clipPath id="_clipPath_dUzwGstqO7utTvYnGMPcSsU3fgXxOdBB">
            <rect width="1024" height="1024" />
        </clipPath>
    </defs>
    <g clip-path="url(#_clipPath_dUzwGstqO7utTvYnGMPcSsU3fgXxOdBB)">
        <rect x="87" y="87" width="850" height="850" transform="matrix(1,0,0,1,0,0)" fill="rgb(238,238,238)" />
        <g id="Argentina Flag">
            <rect x="370.333" y="370.333" width="283.333" height="850" transform="matrix(0,-1,1,0,-283.333,1307.333)" fill="rgb(33,150,243)" />
            <rect x="370.333" y="87" width="283.333" height="850" transform="matrix(0,-1,1,0,0,1024)" fill="rgb(238,238,238)" />
            <rect x="370.333" y="-196.333" width="283.333" height="850" transform="matrix(0,-1,1,0,283.333,740.667)" fill="rgb(33,150,243)" />
        </g>
        <g id="Calendar">
            <path d=" M 156.285 406.955 L 814.612 298.735 L 898.965 810.988 L 236.582 920.582 L 156.285 406.955 Z " fill-rule="evenodd" fill="rgb(255,255,255)" />
            <path d=" M 229.089 874 Q 465.333 852 585 832 Q 704.667 812 893.385 782 L 898.965 810.988 L 236.582 920.582 L 229.089 874 Z " fill-rule="evenodd" fill="rgb(200,199,199)" />
            <path d=" M 156.648 409.277 L 125.035 207.066 L 782.449 103.418 L 815.375 303.366 L 156.648 409.277 Z " fill-rule="evenodd" fill="rgb(13,71,161)" />
            <g id="Argentina Date">
                <path d=" M 359.156 320.514 L 359.156 320.514 Q 346.216 323.189 344.721 313.828 L 344.721 313.828 L 344.721 313.828 Q 344.058 309.681 345.75 307.344 L 345.75 307.344 L 345.75 307.344 Q 347.443 305.008 351.79 304.07 L 351.79 304.07 L 355.781 303.19 L 355.781 303.19 Q 359.317 302.503 360.803 300.018 L 360.803 300.018 L 360.803 300.018 Q 362.289 297.532 361.684 293.74 L 361.684 293.74 L 353.94 245.275 L 353.94 245.275 Q 353.164 240.416 355.663 237.04 L 355.663 237.04 L 355.663 237.04 Q 358.161 233.663 363.257 232.849 L 363.257 232.849 L 363.257 232.849 Q 368.115 232.073 371.6 234.493 L 371.6 234.493 L 371.6 234.493 Q 375.086 236.914 375.862 241.772 L 375.862 241.772 L 383.549 289.882 L 383.549 289.882 Q 385.442 301.732 380.272 309.302 L 380.272 309.302 L 380.272 309.302 Q 375.101 316.873 362.91 319.671 L 362.91 319.671 L 359.156 320.514 Z  M 440.07 245.853 L 440.07 245.853 Q 444.929 245.077 448.189 247.229 L 448.189 247.229 L 448.189 247.229 Q 451.449 249.382 452.169 253.885 L 452.169 253.885 L 458.72 294.885 L 458.72 294.885 Q 459.382 299.032 456.846 302.172 L 456.846 302.172 L 456.846 302.172 Q 454.309 305.311 449.569 306.069 L 449.569 306.069 L 449.569 306.069 Q 445.304 306.75 442.209 304.875 L 442.209 304.875 L 442.209 304.875 Q 439.114 303 438.371 299.108 L 438.371 299.108 L 438.371 299.108 Q 436.327 303.81 432.48 306.733 L 432.48 306.733 L 432.48 306.733 Q 428.633 309.657 423.182 310.528 L 423.182 310.528 L 423.182 310.528 Q 411.925 312.326 405.48 306.976 L 405.48 306.976 L 405.48 306.976 Q 399.036 301.626 397.01 288.947 L 397.01 288.947 L 392.92 263.351 L 392.92 263.351 Q 392.201 258.848 394.628 255.787 L 394.628 255.787 L 394.628 255.787 Q 397.056 252.726 401.914 251.949 L 401.914 251.949 L 401.914 251.949 Q 406.773 251.173 410.033 253.326 L 410.033 253.326 L 410.033 253.326 Q 413.293 255.478 414.013 259.981 L 414.013 259.981 L 418.178 286.051 L 418.178 286.051 Q 419.541 294.582 426.888 293.409 L 426.888 293.409 L 426.888 293.409 Q 431.154 292.727 433.387 289.211 L 433.387 289.211 L 433.387 289.211 Q 435.62 285.694 434.825 280.717 L 434.825 280.717 L 431.076 257.255 L 431.076 257.255 Q 430.357 252.752 432.784 249.691 L 432.784 249.691 L 432.784 249.691 Q 435.212 246.629 440.07 245.853 L 440.07 245.853 Z  M 483.104 300.711 L 483.104 300.711 Q 478.601 301.43 475.191 299.484 L 475.191 299.484 L 475.191 299.484 Q 471.782 297.537 471.005 292.679 L 471.005 292.679 L 460.574 227.387 L 460.574 227.387 Q 459.797 222.529 462.421 219.557 L 462.421 219.557 L 462.421 219.557 Q 465.045 216.586 469.548 215.867 L 469.548 215.867 L 469.548 215.867 Q 474.051 215.147 477.471 217.153 L 477.471 217.153 L 477.471 217.153 Q 480.89 219.159 481.666 224.017 L 481.666 224.017 L 492.098 289.309 L 492.098 289.309 Q 492.874 294.167 490.241 297.079 L 490.241 297.079 L 490.241 297.079 Q 487.607 299.991 483.104 300.711 L 483.104 300.711 Z  M 516.402 295.391 L 516.402 295.391 Q 511.899 296.11 508.489 294.164 L 508.489 294.164 L 508.489 294.164 Q 505.079 292.217 504.303 287.359 L 504.303 287.359 L 497.79 246.596 L 497.79 246.596 Q 497.014 241.737 499.648 238.826 L 499.648 238.826 L 499.648 238.826 Q 502.281 235.914 506.784 235.194 L 506.784 235.194 L 506.784 235.194 Q 511.287 234.475 514.697 236.421 L 514.697 236.421 L 514.697 236.421 Q 518.107 238.367 518.883 243.226 L 518.883 243.226 L 525.396 283.989 L 525.396 283.989 Q 526.172 288.847 523.538 291.759 L 523.538 291.759 L 523.538 291.759 Q 520.905 294.671 516.402 295.391 L 516.402 295.391 Z  M 505.459 226.899 L 505.459 226.899 Q 500.126 227.751 496.541 225.468 L 496.541 225.468 L 496.541 225.468 Q 492.956 223.185 492.218 218.564 L 492.218 218.564 L 492.218 218.564 Q 491.479 213.943 494.184 210.715 L 494.184 210.715 L 494.184 210.715 Q 496.889 207.488 502.221 206.636 L 502.221 206.636 L 502.221 206.636 Q 507.435 205.803 511.07 208.018 L 511.07 208.018 L 511.07 208.018 Q 514.705 210.232 515.443 214.853 L 515.443 214.853 L 515.443 214.853 Q 516.182 219.475 513.486 222.761 L 513.486 222.761 L 513.486 222.761 Q 510.791 226.047 505.459 226.899 L 505.459 226.899 Z  M 568.578 287.297 L 568.578 287.297 Q 558.98 288.831 551.096 286.262 L 551.096 286.262 L 551.096 286.262 Q 543.212 283.694 538.144 277.456 L 538.144 277.456 L 538.144 277.456 Q 533.077 271.217 531.6 261.974 L 531.6 261.974 L 531.6 261.974 Q 530.123 252.731 533.004 245.284 L 533.004 245.284 L 533.004 245.284 Q 535.885 237.836 542.527 233.008 L 542.527 233.008 L 542.527 233.008 Q 549.168 228.179 558.885 226.627 L 558.885 226.627 L 558.885 226.627 Q 568.602 225.074 576.417 227.593 L 576.417 227.593 L 576.417 227.593 Q 584.232 230.111 589.29 236.291 L 589.29 236.291 L 589.29 236.291 Q 594.349 242.47 595.825 251.713 L 595.825 251.713 L 595.825 251.713 Q 597.302 260.956 594.431 268.463 L 594.431 268.463 L 594.431 268.463 Q 591.559 275.97 584.927 280.857 L 584.927 280.857 L 584.927 280.857 Q 578.295 285.745 568.578 287.297 L 568.578 287.297 Z  M 566.06 271.537 L 566.06 271.537 Q 577.318 269.739 574.97 255.045 L 574.97 255.045 L 574.97 255.045 Q 572.622 240.351 561.365 242.15 L 561.365 242.15 L 561.365 242.15 Q 550.108 243.948 552.455 258.642 L 552.455 258.642 L 552.455 258.642 Q 554.803 273.336 566.06 271.537 L 566.06 271.537 Z " fill-rule="evenodd" fill="rgb(250,250,250)" />
                <path d=" M 495.883 462.356 L 495.883 462.356 Q 546.007 454.347 578.605 482.679 L 578.605 482.679 L 578.605 482.679 Q 611.204 511.011 620.859 571.444 L 620.859 571.444 L 620.859 571.444 Q 627.221 611.259 618.988 643.016 L 618.988 643.016 L 618.988 643.016 Q 610.755 674.773 589.671 694.547 L 589.671 694.547 L 589.671 694.547 Q 568.586 714.321 536.948 719.376 L 536.948 719.376 L 536.948 719.376 Q 517.04 722.557 495.222 719.48 L 495.222 719.48 L 495.222 719.48 Q 473.403 716.404 456.655 707.414 L 456.655 707.414 L 456.655 707.414 Q 449.873 703.758 446.412 699.207 L 446.412 699.207 L 446.412 699.207 Q 442.95 694.656 441.758 687.191 L 441.758 687.191 L 441.758 687.191 Q 439.997 676.171 444.997 667.534 L 444.997 667.534 L 444.997 667.534 Q 449.997 658.897 458.884 657.477 L 458.884 657.477 L 458.884 657.477 Q 463.861 656.682 468.027 657.657 L 468.027 657.657 L 468.027 657.657 Q 472.193 658.632 479.515 661.107 L 479.515 661.107 L 487.961 663.768 L 487.961 663.768 Q 500.601 667.582 508.876 669.176 L 508.876 669.176 L 508.876 669.176 Q 517.151 670.77 525.683 669.407 L 525.683 669.407 L 525.683 669.407 Q 543.813 666.511 552.37 648.191 L 552.37 648.191 L 552.37 648.191 Q 560.927 629.872 558.289 599.67 L 558.289 599.67 L 558.289 599.67 Q 551.93 612.352 539.294 621.115 L 539.294 621.115 L 539.294 621.115 Q 526.659 629.878 510.306 632.491 L 510.306 632.491 L 510.306 632.491 Q 488.977 635.899 470.237 628.138 L 470.237 628.138 L 470.237 628.138 Q 451.498 620.377 438.74 603.276 L 438.74 603.276 L 438.74 603.276 Q 425.983 586.175 422.234 562.712 L 422.234 562.712 L 422.234 562.712 Q 418.258 537.828 426.304 516.309 L 426.304 516.309 L 426.304 516.309 Q 434.349 494.79 452.496 480.589 L 452.496 480.589 L 452.496 480.589 Q 470.643 466.388 495.883 462.356 L 495.883 462.356 Z  M 518.593 579.399 L 518.593 579.399 Q 532.457 577.183 539.335 566.606 L 539.335 566.606 L 539.335 566.606 Q 546.212 556.028 543.77 540.742 L 543.77 540.742 L 543.77 540.742 Q 541.384 525.812 531.347 517.754 L 531.347 517.754 L 531.347 517.754 Q 521.31 509.697 507.802 511.855 L 507.802 511.855 L 507.802 511.855 Q 493.938 514.07 487.238 524.619 L 487.238 524.619 L 487.238 524.619 Q 480.538 535.169 482.981 550.455 L 482.981 550.455 L 482.981 550.455 Q 485.48 566.096 494.927 573.883 L 494.927 573.883 L 494.927 573.883 Q 504.374 581.67 518.593 579.399 L 518.593 579.399 Z " fill-rule="evenodd" fill="rgb(33,33,33)" />
            </g>
        </g>
    </g>
</svg>