<?xml version="1.0" standalone="no"?>
<!-- Generator: Gravit.io -->
<svg xmlns="http://www.w3.org/2000/svg" xmlns:xlink="http://www.w3.org/1999/xlink" style="isolation:isolate" viewBox="0 0 1024 1024" width="1024" height="1024">
    <defs>
        <clipPath id="_clipPath_6kFkNhnOUolvKZRyrlvBQrH84uE0TDt9">
            <rect width="1024" height="1024" />
        </clipPath>
    </defs>
    <g clip-path="url(#_clipPath_6kFkNhnOUolvKZRyrlvBQrH84uE0TDt9)">
        <rect x="87" y="87" width="850" height="850" transform="matrix(1,0,0,1,0,0)" fill="rgb(238,238,238)" />
        <g id="Italy Flag">
            <rect x="87" y="87" width="283.333" height="850" transform="matrix(1,0,0,1,0,0)" fill="rgb(46,125,50)" />
            <rect x="370.333" y="87" width="283.333" height="850" transform="matrix(1,0,0,1,0,0)" fill="rgb(238,238,238)" />
            <rect x="653.667" y="87" width="283.333" height="850" transform="matrix(1,0,0,1,0,0)" fill="rgb(183,28,28)" />
        </g>
        <g id="Calendar">
            <path d=" M 156.285 406.955 L 814.612 298.735 L 898.965 810.988 L 236.582 920.582 L 156.285 406.955 Z " fill-rule="evenodd" fill="rgb(255,255,255)" />
            <path d=" M 229.089 874 Q 465.333 852 585 832 Q 704.667 812 893.385 782 L 898.965 810.988 L 236.582 920.582 L 229.089 874 Z " fill-rule="evenodd" fill="rgb(200,199,199)" />
            <path d=" M 156.648 409.277 L 125.035 207.066 L 782.449 103.418 L 815.375 303.366 L 156.648 409.277 Z " fill-rule="evenodd" fill="rgb(198,40,40)" />
            <g id="Italy Date">
                <path d=" M 356.462 231.349 L 356.462 231.349 Q 360.965 230.629 364.282 233.137 L 364.282 233.137 L 364.282 233.137 Q 367.599 235.645 368.356 240.385 L 368.356 240.385 L 378.656 304.848 L 378.656 304.848 Q 379.375 309.35 377.185 312.374 L 377.185 312.374 L 377.185 312.374 Q 374.994 315.397 370.728 316.079 L 370.728 316.079 L 370.728 316.079 Q 366.581 316.742 363.498 314.561 L 363.498 314.561 L 363.498 314.561 Q 360.416 312.38 359.696 307.877 L 359.696 307.877 L 354.13 273.039 L 344.597 300.081 L 344.597 300.081 Q 343.189 304.195 341.193 306.154 L 341.193 306.154 L 341.193 306.154 Q 339.197 308.114 336.116 308.606 L 336.116 308.606 L 336.116 308.606 Q 333.035 309.098 330.528 307.858 L 330.528 307.858 L 330.528 307.858 Q 328.021 306.618 325.401 303.148 L 325.401 303.148 L 308.148 281.114 L 313.601 315.242 L 313.601 315.242 Q 314.301 319.626 312.061 322.718 L 312.061 322.718 L 312.061 322.718 Q 309.821 325.81 305.555 326.492 L 305.555 326.492 L 305.555 326.492 Q 301.408 327.154 298.325 324.974 L 298.325 324.974 L 298.325 324.974 Q 295.242 322.793 294.523 318.29 L 294.523 318.29 L 284.223 253.827 L 284.223 253.827 Q 283.466 249.087 285.896 245.661 L 285.896 245.661 L 285.896 245.661 Q 288.326 242.235 292.829 241.515 L 292.829 241.515 L 292.829 241.515 Q 296.028 241.004 298.929 242.424 L 298.929 242.424 L 298.929 242.424 Q 301.829 243.845 304.155 246.997 L 304.155 246.997 L 332.51 284.513 L 347.644 240.049 L 347.644 240.049 Q 350.181 232.352 356.462 231.349 L 356.462 231.349 Z  M 411.671 247.561 L 411.671 247.561 Q 425.18 245.403 432.67 250.829 L 432.67 250.829 L 432.67 250.829 Q 440.16 256.255 442.261 269.409 L 442.261 269.409 L 446.218 294.174 L 446.218 294.174 Q 446.937 298.677 444.678 301.651 L 444.678 301.651 L 444.678 301.651 Q 442.419 304.625 437.679 305.382 L 437.679 305.382 L 437.679 305.382 Q 433.532 306.045 430.487 304.101 L 430.487 304.101 L 430.487 304.101 Q 427.442 302.157 426.562 298.166 L 426.562 298.166 L 426.562 298.166 Q 425.584 302.697 422.052 305.691 L 422.052 305.691 L 422.052 305.691 Q 418.521 308.686 413.07 309.557 L 413.07 309.557 L 413.07 309.557 Q 407.026 310.523 401.78 308.87 L 401.78 308.87 L 401.78 308.87 Q 396.533 307.217 393.058 303.336 L 393.058 303.336 L 393.058 303.336 Q 389.582 299.456 388.711 294.005 L 388.711 294.005 L 388.711 294.005 Q 387.708 287.725 390.37 283.472 L 390.37 283.472 L 390.37 283.472 Q 393.032 279.218 399.877 276.423 L 399.877 276.423 L 399.877 276.423 Q 406.722 273.628 418.808 271.697 L 418.808 271.697 L 422.008 271.186 L 421.781 269.764 L 421.781 269.764 Q 421.118 265.617 418.929 264.083 L 418.929 264.083 L 418.929 264.083 Q 416.739 262.549 412.236 263.269 L 412.236 263.269 L 412.236 263.269 Q 407.378 264.045 398.547 268.859 L 398.547 268.859 L 398.547 268.859 Q 395.973 270.242 394.077 270.545 L 394.077 270.545 L 394.077 270.545 Q 391.114 271.018 388.996 269.169 L 388.996 269.169 L 388.996 269.169 Q 386.878 267.32 386.329 263.884 L 386.329 263.884 L 386.329 263.884 Q 385.912 261.277 386.714 259.448 L 386.714 259.448 L 386.714 259.448 Q 387.515 257.618 389.677 255.936 L 389.677 255.936 L 389.677 255.936 Q 393.484 253.141 399.556 250.834 L 399.556 250.834 L 399.556 250.834 Q 405.628 248.527 411.671 247.561 L 411.671 247.561 Z  M 415.794 294.661 L 415.794 294.661 Q 420.06 293.979 422.302 290.522 L 422.302 290.522 L 422.302 290.522 Q 424.545 287.065 423.788 282.325 L 423.788 282.325 L 423.56 280.903 L 421.664 281.206 L 421.664 281.206 Q 414.081 282.418 411.099 284.291 L 411.099 284.291 L 411.099 284.291 Q 408.117 286.165 408.628 289.365 L 408.628 289.365 L 408.628 289.365 Q 409.064 292.09 411.066 293.593 L 411.066 293.593 L 411.066 293.593 Q 413.068 295.096 415.794 294.661 L 415.794 294.661 Z  M 486.955 235.776 L 486.955 235.776 Q 490.927 234.777 493.647 236.59 L 493.647 236.59 L 493.647 236.59 Q 496.367 238.404 497.049 242.67 L 497.049 242.67 L 497.049 242.67 Q 497.806 247.41 495.955 249.893 L 495.955 249.893 L 495.955 249.893 Q 494.103 252.376 488.51 253.877 L 488.51 253.877 L 485.012 254.801 L 485.012 254.801 Q 479.201 256.458 477.136 259.887 L 477.136 259.887 L 477.136 259.887 Q 475.071 263.316 475.904 268.53 L 475.904 268.53 L 479.141 288.793 L 479.141 288.793 Q 479.917 293.651 477.284 296.563 L 477.284 296.563 L 477.284 296.563 Q 474.65 299.475 470.147 300.194 L 470.147 300.194 L 470.147 300.194 Q 465.645 300.914 462.235 298.967 L 462.235 298.967 L 462.235 298.967 Q 458.825 297.021 458.049 292.163 L 458.049 292.163 L 451.498 251.163 L 451.498 251.163 Q 450.779 246.66 453.403 243.689 L 453.403 243.689 L 453.403 243.689 Q 456.027 240.717 460.293 240.036 L 460.293 240.036 L 460.293 240.036 Q 464.677 239.335 467.722 241.279 L 467.722 241.279 L 467.722 241.279 Q 470.767 243.223 471.448 247.489 L 471.448 247.489 L 471.808 249.741 L 471.808 249.741 Q 472.871 244.224 476.742 240.689 L 476.742 240.689 L 476.742 240.689 Q 480.613 237.154 485.315 236.159 L 485.315 236.159 L 486.955 235.776 Z  M 550.857 270.651 L 550.857 270.651 Q 560.337 269.136 561.568 276.838 L 561.568 276.838 L 561.568 276.838 Q 562.817 284.659 553.337 286.174 L 553.337 286.174 L 516.011 292.138 L 516.011 292.138 Q 511.863 292.8 508.84 290.61 L 508.84 290.61 L 508.84 290.61 Q 505.816 288.419 505.23 284.746 L 505.23 284.746 L 505.23 284.746 Q 504.605 280.836 507.037 277.044 L 507.037 277.044 L 527.662 246.407 L 508.584 249.455 L 508.584 249.455 Q 499.104 250.969 497.854 243.149 L 497.854 243.149 L 497.854 243.149 Q 496.624 235.446 506.103 233.932 L 506.103 233.932 L 542.008 228.195 L 542.008 228.195 Q 546.155 227.532 549.179 229.723 L 549.179 229.723 L 549.179 229.723 Q 552.202 231.913 552.789 235.587 L 552.789 235.587 L 552.789 235.587 Q 553.395 239.379 550.963 243.17 L 550.963 243.17 L 530.239 273.945 L 550.857 270.651 Z  M 600.177 279.662 L 600.177 279.662 Q 590.578 281.196 582.694 278.628 L 582.694 278.628 L 582.694 278.628 Q 574.81 276.059 569.743 269.821 L 569.743 269.821 L 569.743 269.821 Q 564.675 263.582 563.198 254.339 L 563.198 254.339 L 563.198 254.339 Q 561.721 245.097 564.603 237.649 L 564.603 237.649 L 564.603 237.649 Q 567.484 230.201 574.125 225.373 L 574.125 225.373 L 574.125 225.373 Q 580.766 220.544 590.483 218.992 L 590.483 218.992 L 590.483 218.992 Q 600.2 217.439 608.015 219.958 L 608.015 219.958 L 608.015 219.958 Q 615.83 222.476 620.889 228.656 L 620.889 228.656 L 620.889 228.656 Q 625.947 234.835 627.424 244.078 L 627.424 244.078 L 627.424 244.078 Q 628.9 253.321 626.029 260.828 L 626.029 260.828 L 626.029 260.828 Q 623.157 268.335 616.525 273.222 L 616.525 273.222 L 616.525 273.222 Q 609.893 278.11 600.177 279.662 L 600.177 279.662 Z  M 597.659 263.902 L 597.659 263.902 Q 608.916 262.104 606.568 247.41 L 606.568 247.41 L 606.568 247.41 Q 604.221 232.716 592.963 234.515 L 592.963 234.515 L 592.963 234.515 Q 581.706 236.314 584.054 251.007 L 584.054 251.007 L 584.054 251.007 Q 586.401 265.701 597.659 263.902 L 597.659 263.902 Z " fill-rule="evenodd" fill="rgb(250,250,250)" />
                <path d=" M 512.395 667.814 L 512.395 667.814 Q 528.393 665.258 536.88 670.464 L 536.88 670.464 L 536.88 670.464 Q 545.368 675.67 547.413 688.468 L 547.413 688.468 L 547.413 688.468 Q 551.616 714.774 520.688 719.715 L 520.688 719.715 L 397.332 739.424 L 397.332 739.424 Q 366.405 744.366 362.202 718.059 L 362.202 718.059 L 362.202 718.059 Q 360.157 705.262 366.6 697.67 L 366.6 697.67 L 366.6 697.67 Q 373.043 690.078 389.04 687.523 L 389.04 687.523 L 417.835 682.922 L 397.331 554.59 L 371.561 575.841 L 371.561 575.841 Q 366.086 580.362 359.687 581.384 L 359.687 581.384 L 359.687 581.384 Q 349.733 582.975 341.232 575.401 L 341.232 575.401 L 341.232 575.401 Q 332.73 567.827 331.026 557.163 L 331.026 557.163 L 331.026 557.163 Q 328.698 542.588 339.947 533.134 L 339.947 533.134 L 391.543 490.986 L 391.543 490.986 Q 405.765 479.6 419.629 477.385 L 419.629 477.385 L 419.629 477.385 Q 433.849 475.113 443.922 482.253 L 443.922 482.253 L 443.922 482.253 Q 453.994 489.393 456.323 503.968 L 456.323 503.968 L 483.245 672.471 L 512.395 667.814 Z  M 690.385 435.583 L 690.385 435.583 Q 703.183 433.539 711.336 440.074 L 711.336 440.074 L 711.336 440.074 Q 719.489 446.61 721.364 458.341 L 721.364 458.341 L 721.364 458.341 Q 723.295 470.428 718.358 482.882 L 718.358 482.882 L 640.463 686.725 L 640.463 686.725 Q 636.849 696.052 630.215 701.305 L 630.215 701.305 L 630.215 701.305 Q 623.581 706.557 615.76 707.807 L 615.76 707.807 L 615.76 707.807 Q 603.318 709.794 592.385 702.974 L 592.385 702.974 L 592.385 702.974 Q 581.452 696.153 579.52 684.067 L 579.52 684.067 L 579.52 684.067 Q 578.157 675.535 581.771 666.208 L 581.771 666.208 L 648.198 495.55 L 559.325 509.75 L 559.325 509.75 Q 542.973 512.363 534.663 507.128 L 534.663 507.128 L 534.663 507.128 Q 526.353 501.894 524.308 489.096 L 524.308 489.096 L 524.308 489.096 Q 522.206 475.943 528.621 468.173 L 528.621 468.173 L 528.621 468.173 Q 535.036 460.404 551.033 457.848 L 551.033 457.848 L 690.385 435.583 Z " fill-rule="evenodd" fill="rgb(33,33,33)" />
            </g>
        </g>
    </g>
</svg>