<?xml version="1.0" standalone="no"?>
<!-- Generator: Gravit.io -->
<svg xmlns="http://www.w3.org/2000/svg" xmlns:xlink="http://www.w3.org/1999/xlink" style="isolation:isolate" viewBox="0 0 1024 1024" width="1024" height="1024">
    <defs>
        <clipPath id="_clipPath_STB4srZxhS0nBpWXwof5WEQqWyAIgd5W">
            <rect width="1024" height="1024" />
        </clipPath>
    </defs>
    <g clip-path="url(#_clipPath_STB4srZxhS0nBpWXwof5WEQqWyAIgd5W)">
        <linearGradient id="_lgradient_1" x1="49.99982416629791%" y1="0%" x2="49.9998241662979%" y2="100%">
            <stop offset="0%" stop-opacity="1" style="stop-color:rgb(0,0,0)" />
            <stop offset="30.88335718002081%" stop-opacity="1" style="stop-color:rgb(0,0,0)" />
            <stop offset="31.176470588235293%" stop-opacity="1" style="stop-color:rgb(200,0,0)" />
            <stop offset="66.889145421436%" stop-opacity="1" style="stop-color:rgb(208,2,27)" />
            <stop offset="67.05882352941175%" stop-opacity="1" style="stop-color:rgb(247,197,0)" />
            <stop offset="100%" stop-opacity="1" style="stop-color:rgb(248,198,0)" />
        </linearGradient>
        <rect x="87" y="87" width="850" height="850" transform="matrix(1,0,0,1,0,0)" fill="url(#_lgradient_1)" />
        <g id="Calendar">
            <path d=" M 156.285 406.955 L 814.612 298.735 L 898.965 810.988 L 236.582 920.582 L 156.285 406.955 Z " fill-rule="evenodd" fill="rgb(255,255,255)" />
            <path d=" M 229.089 874 Q 465.333 852 585 832 Q 704.667 812 893.385 782 L 898.965 810.988 L 236.582 920.582 L 229.089 874 Z " fill-rule="evenodd" fill="rgb(200,199,199)" />
            <path d=" M 156.648 409.277 L 125.035 207.066 L 782.449 103.418 L 815.375 303.366 L 156.648 409.277 Z " fill-rule="evenodd" fill="rgb(198,40,40)" />
            <g id="Germany Unified Date">
                <path d=" M 295.592 335.057 L 295.592 335.057 Q 282.794 337.102 272.531 333.334 L 272.531 333.334 L 272.531 333.334 Q 262.268 329.566 255.629 320.723 L 255.629 320.723 L 255.629 320.723 Q 248.991 311.879 246.909 298.845 L 246.909 298.845 L 246.909 298.845 Q 244.826 285.81 248.378 275.338 L 248.378 275.338 L 248.378 275.338 Q 251.931 264.867 260.518 258.148 L 260.518 258.148 L 260.518 258.148 Q 269.106 251.429 281.903 249.384 L 281.903 249.384 L 281.903 249.384 Q 294.701 247.339 304.955 251.048 L 304.955 251.048 L 304.955 251.048 Q 315.208 254.757 321.787 263.61 L 321.787 263.61 L 321.787 263.61 Q 328.366 272.462 330.449 285.497 L 330.449 285.497 L 330.449 285.497 Q 332.532 298.532 328.979 309.003 L 328.979 309.003 L 328.979 309.003 Q 325.427 319.475 316.849 326.253 L 316.849 326.253 L 316.849 326.253 Q 308.271 333.032 295.592 335.057 L 295.592 335.057 Z  M 292.922 318.349 L 292.922 318.349 Q 302.402 316.835 306.665 309.288 L 306.665 309.288 L 306.665 309.288 Q 310.927 301.741 308.882 288.943 L 308.882 288.943 L 308.882 288.943 Q 306.838 276.145 300.386 270.371 L 300.386 270.371 L 300.386 270.371 Q 293.934 264.596 284.573 266.092 L 284.573 266.092 L 284.573 266.092 Q 275.093 267.607 270.811 275.035 L 270.811 275.035 L 270.811 275.035 Q 266.53 282.464 268.593 295.38 L 268.593 295.38 L 268.593 295.38 Q 270.657 308.296 277.05 314.08 L 277.05 314.08 L 277.05 314.08 Q 283.442 319.864 292.922 318.349 L 292.922 318.349 Z  M 404.196 299.842 L 404.196 299.842 Q 407.75 302.312 408.375 306.222 L 408.375 306.222 L 408.375 306.222 Q 409 310.133 406.707 313.658 L 406.707 313.658 L 406.707 313.658 Q 404.415 317.184 400.504 317.809 L 400.504 317.809 L 400.504 317.809 Q 397.186 318.339 393.395 315.907 L 393.395 315.907 L 365.686 296.88 L 368.242 312.877 L 368.242 312.877 Q 369.018 317.736 366.394 320.707 L 366.394 320.707 L 366.394 320.707 Q 363.77 323.678 359.267 324.398 L 359.267 324.398 L 359.267 324.398 Q 354.764 325.117 351.345 323.111 L 351.345 323.111 L 351.345 323.111 Q 347.926 321.106 347.15 316.247 L 347.15 316.247 L 336.756 251.192 L 336.756 251.192 Q 335.979 246.334 338.603 243.363 L 338.603 243.363 L 338.603 243.363 Q 341.228 240.392 345.73 239.672 L 345.73 239.672 L 345.73 239.672 Q 350.233 238.953 353.653 240.958 L 353.653 240.958 L 353.653 240.958 Q 357.072 242.964 357.848 247.822 L 357.848 247.822 L 364.266 287.993 L 382.629 262.213 L 382.629 262.213 Q 385.099 258.659 389.009 258.034 L 389.009 258.034 L 389.009 258.034 Q 392.801 257.428 396.168 259.867 L 396.168 259.867 L 396.168 259.867 Q 399.535 262.307 400.122 265.98 L 400.122 265.98 L 400.122 265.98 Q 400.709 269.654 398.121 273.227 L 398.121 273.227 L 387.249 288.088 L 404.196 299.842 Z  M 449.546 294.662 L 449.546 294.662 Q 457.562 293.867 458.622 300.503 L 458.622 300.503 L 458.622 300.503 Q 459.284 304.65 456.407 307.176 L 456.407 307.176 L 456.407 307.176 Q 453.529 309.702 447.548 310.293 L 447.548 310.293 L 444.192 310.586 L 444.192 310.586 Q 433.395 311.46 426.985 306.712 L 426.985 306.712 L 426.985 306.712 Q 420.576 301.964 418.966 291.892 L 418.966 291.892 L 415.615 270.918 L 412.179 271.467 L 412.179 271.467 Q 402.699 272.981 401.45 265.161 L 401.45 265.161 L 401.45 265.161 Q 400.219 257.458 409.699 255.944 L 409.699 255.944 L 413.135 255.395 L 411.905 247.692 L 411.905 247.692 Q 411.185 243.189 413.603 240.069 L 413.603 240.069 L 413.603 240.069 Q 416.021 236.948 420.879 236.172 L 420.879 236.172 L 420.879 236.172 Q 425.738 235.396 429.008 237.608 L 429.008 237.608 L 429.008 237.608 Q 432.278 239.819 432.997 244.322 L 432.997 244.322 L 434.228 252.025 L 440.745 250.983 L 440.745 250.983 Q 450.225 249.469 451.455 257.171 L 451.455 257.171 L 451.455 257.171 Q 452.705 264.992 443.225 266.506 L 443.225 266.506 L 436.708 267.548 L 440.343 290.299 L 440.343 290.299 Q 440.703 292.551 442.311 293.873 L 442.311 293.873 L 442.311 293.873 Q 443.92 295.196 446.072 294.974 L 446.072 294.974 L 449.546 294.662 Z  M 494.885 303.094 L 494.885 303.094 Q 485.286 304.628 477.403 302.059 L 477.403 302.059 L 477.403 302.059 Q 469.519 299.491 464.451 293.253 L 464.451 293.253 L 464.451 293.253 Q 459.383 287.014 457.906 277.771 L 457.906 277.771 L 457.906 277.771 Q 456.43 268.528 459.311 261.081 L 459.311 261.081 L 459.311 261.081 Q 462.192 253.633 468.833 248.804 L 468.833 248.804 L 468.833 248.804 Q 475.474 243.976 485.191 242.424 L 485.191 242.424 L 485.191 242.424 Q 494.908 240.871 502.723 243.39 L 502.723 243.39 L 502.723 243.39 Q 510.538 245.908 515.597 252.088 L 515.597 252.088 L 515.597 252.088 Q 520.655 258.267 522.132 267.51 L 522.132 267.51 L 522.132 267.51 Q 523.609 276.753 520.737 284.26 L 520.737 284.26 L 520.737 284.26 Q 517.865 291.767 511.233 296.654 L 511.233 296.654 L 511.233 296.654 Q 504.601 301.542 494.885 303.094 L 494.885 303.094 Z  M 492.367 287.334 L 492.367 287.334 Q 503.624 285.536 501.276 270.842 L 501.276 270.842 L 501.276 270.842 Q 498.929 256.148 487.671 257.947 L 487.671 257.947 L 487.671 257.947 Q 476.414 259.745 478.762 274.439 L 478.762 274.439 L 478.762 274.439 Q 481.109 289.133 492.367 287.334 L 492.367 287.334 Z  M 565.532 229.587 L 565.532 229.587 Q 573.116 228.376 579.509 231.121 L 579.509 231.121 L 579.509 231.121 Q 585.903 233.867 590.25 240.16 L 590.25 240.16 L 590.25 240.16 Q 594.597 246.453 596.036 255.459 L 596.036 255.459 L 596.036 255.459 Q 597.475 264.465 595.333 271.977 L 595.333 271.977 L 595.333 271.977 Q 593.192 279.489 587.941 284.277 L 587.941 284.277 L 587.941 284.277 Q 582.691 289.065 575.226 290.258 L 575.226 290.258 L 575.226 290.258 Q 569.419 291.186 564.242 289.582 L 564.242 289.582 L 564.242 289.582 Q 559.064 287.979 555.913 284.229 L 555.913 284.229 L 555.913 284.229 Q 556.201 288.315 553.785 291.071 L 553.785 291.071 L 553.785 291.071 Q 551.37 293.826 546.867 294.546 L 546.867 294.546 L 546.867 294.546 Q 542.127 295.303 538.917 293.082 L 538.917 293.082 L 538.917 293.082 Q 535.706 290.861 535.005 286.476 L 535.005 286.476 L 524.517 220.829 L 524.517 220.829 Q 523.854 216.681 526.391 213.542 L 526.391 213.542 L 526.391 213.542 Q 528.927 210.402 533.785 209.626 L 533.785 209.626 L 533.785 209.626 Q 538.407 208.888 541.648 210.922 L 541.648 210.922 L 541.648 210.922 Q 544.89 212.956 545.552 217.103 L 545.552 217.103 L 549.32 240.684 L 549.32 240.684 Q 551.321 236.476 555.642 233.477 L 555.642 233.477 L 555.642 233.477 Q 559.963 230.477 565.532 229.587 L 565.532 229.587 Z  M 566.19 275.539 L 566.19 275.539 Q 571.641 274.668 573.988 270.344 L 573.988 270.344 L 573.988 270.344 Q 576.335 266.019 575.181 258.791 L 575.181 258.791 L 575.181 258.791 Q 574.082 251.918 570.592 248.709 L 570.592 248.709 L 570.592 248.709 Q 567.102 245.499 561.651 246.37 L 561.651 246.37 L 561.651 246.37 Q 556.082 247.26 553.716 251.466 L 553.716 251.466 L 553.716 251.466 Q 551.35 255.672 552.467 262.663 L 552.467 262.663 L 552.467 262.663 Q 553.603 269.773 557.171 273.091 L 557.171 273.091 L 557.171 273.091 Q 560.74 276.41 566.19 275.539 L 566.19 275.539 Z  M 654.912 257.353 L 654.912 257.353 Q 657.638 256.918 659.697 258.776 L 659.697 258.776 L 659.697 258.776 Q 661.756 260.635 662.305 264.071 L 662.305 264.071 L 662.305 264.071 Q 663.062 268.811 658.838 272.038 L 658.838 272.038 L 658.838 272.038 Q 655.131 274.696 649.839 276.939 L 649.839 276.939 L 649.839 276.939 Q 644.547 279.182 639.925 279.921 L 639.925 279.921 L 639.925 279.921 Q 630.208 281.473 622.393 278.955 L 622.393 278.955 L 622.393 278.955 Q 614.578 276.436 609.569 270.188 L 609.569 270.188 L 609.569 270.188 Q 604.561 263.94 603.084 254.697 L 603.084 254.697 L 603.084 254.697 Q 601.683 245.928 604.308 238.4 L 604.308 238.4 L 604.308 238.4 Q 606.933 230.872 613.013 225.951 L 613.013 225.951 L 613.013 225.951 Q 619.093 221.03 627.506 219.686 L 627.506 219.686 L 627.506 219.686 Q 635.683 218.379 642.412 220.95 L 642.412 220.95 L 642.412 220.95 Q 649.142 223.52 653.561 229.498 L 653.561 229.498 L 653.561 229.498 Q 657.979 235.476 659.38 244.244 L 659.38 244.244 L 659.38 244.244 Q 659.816 246.97 658.808 248.65 L 658.808 248.65 L 658.808 248.65 Q 657.8 250.33 655.43 250.709 L 655.43 250.709 L 624.147 255.707 L 624.147 255.707 Q 625.886 261.262 629.127 263.296 L 629.127 263.296 L 629.127 263.296 Q 632.369 265.33 637.938 264.44 L 637.938 264.44 L 637.938 264.44 Q 640.9 263.967 643.285 262.918 L 643.285 262.918 L 643.285 262.918 Q 645.669 261.868 648.561 260.191 L 648.561 260.191 L 648.561 260.191 Q 650.224 259.196 651.857 258.388 L 651.857 258.388 L 651.857 258.388 Q 653.49 257.581 654.912 257.353 L 654.912 257.353 Z  M 630.371 233.811 L 630.371 233.811 Q 626.223 234.473 624.161 237.537 L 624.161 237.537 L 624.161 237.537 Q 622.098 240.601 622.438 245.772 L 622.438 245.772 L 641.042 242.799 L 641.042 242.799 Q 638.665 232.485 630.371 233.811 L 630.371 233.811 Z  M 701.368 208.128 L 701.368 208.128 Q 705.34 207.128 708.06 208.942 L 708.06 208.942 L 708.06 208.942 Q 710.78 210.756 711.462 215.021 L 711.462 215.021 L 711.462 215.021 Q 712.219 219.761 710.368 222.244 L 710.368 222.244 L 710.368 222.244 Q 708.516 224.728 702.923 226.229 L 702.923 226.229 L 699.425 227.152 L 699.425 227.152 Q 693.614 228.81 691.549 232.239 L 691.549 232.239 L 691.549 232.239 Q 689.484 235.667 690.317 240.881 L 690.317 240.881 L 693.554 261.144 L 693.554 261.144 Q 694.331 266.003 691.697 268.915 L 691.697 268.915 L 691.697 268.915 Q 689.064 271.827 684.561 272.546 L 684.561 272.546 L 684.561 272.546 Q 680.058 273.266 676.648 271.319 L 676.648 271.319 L 676.648 271.319 Q 673.238 269.373 672.462 264.514 L 672.462 264.514 L 665.911 223.514 L 665.911 223.514 Q 665.192 219.011 667.816 216.04 L 667.816 216.04 L 667.816 216.04 Q 670.44 213.069 674.706 212.387 L 674.706 212.387 L 674.706 212.387 Q 679.09 211.687 682.135 213.631 L 682.135 213.631 L 682.135 213.631 Q 685.18 215.575 685.862 219.841 L 685.862 219.841 L 686.221 222.092 L 686.221 222.092 Q 687.284 216.575 691.155 213.04 L 691.155 213.04 L 691.155 213.04 Q 695.026 209.505 699.728 208.511 L 699.728 208.511 L 701.368 208.128 Z " fill-rule="evenodd" fill="rgb(250,250,250)" />
                <path d=" M 569.854 578.5 L 569.854 578.5 Q 591.793 581.192 606.258 595.287 L 606.258 595.287 L 606.258 595.287 Q 620.723 609.381 624.358 632.132 L 624.358 632.132 L 624.358 632.132 Q 627.823 653.817 618.647 671.689 L 618.647 671.689 L 618.647 671.689 Q 609.472 689.56 589.356 701.706 L 589.356 701.706 L 589.356 701.706 Q 569.241 713.852 540.446 718.452 L 540.446 718.452 L 540.446 718.452 Q 517.339 722.144 495.015 719.331 L 495.015 719.331 L 495.015 719.331 Q 472.692 716.518 455.176 707.286 L 455.176 707.286 L 455.176 707.286 Q 448.394 703.63 445.082 698.873 L 445.082 698.873 L 445.082 698.873 Q 441.77 694.116 440.634 687.006 L 440.634 687.006 L 440.634 687.006 Q 438.874 675.986 443.696 667.377 L 443.696 667.377 L 443.696 667.377 Q 448.518 658.769 457.405 657.349 L 457.405 657.349 L 457.405 657.349 Q 462.382 656.553 466.548 657.528 L 466.548 657.528 L 466.548 657.528 Q 470.714 658.503 478.036 660.979 L 478.036 660.979 L 478.036 660.979 Q 479.572 661.463 481.669 662.039 L 481.669 662.039 L 481.669 662.039 Q 483.766 662.615 486.425 663.284 L 486.425 663.284 L 486.425 663.284 Q 498.71 667.155 508.258 668.728 L 508.258 668.728 L 508.258 668.728 Q 517.805 670.301 529.181 668.484 L 529.181 668.484 L 529.181 668.484 Q 549.089 665.303 556.776 657.513 L 556.776 657.513 L 556.776 657.513 Q 564.463 649.722 562.077 634.792 L 562.077 634.792 L 562.077 634.792 Q 559.862 620.928 550.009 616.304 L 550.009 616.304 L 550.009 616.304 Q 540.157 611.681 519.894 614.918 L 519.894 614.918 L 497.853 618.44 L 497.853 618.44 Q 487.188 620.144 479.952 613.644 L 479.952 613.644 L 479.952 613.644 Q 472.716 607.144 471.069 596.835 L 471.069 596.835 L 471.069 596.835 Q 469.422 586.526 474.273 578.095 L 474.273 578.095 L 474.273 578.095 Q 479.123 569.664 489.788 567.96 L 489.788 567.96 L 505.429 565.461 L 505.429 565.461 Q 524.981 562.337 532.96 555.229 L 532.96 555.229 L 532.96 555.229 Q 540.939 548.121 538.951 535.679 L 538.951 535.679 L 538.951 535.679 Q 536.849 522.526 527.864 516.488 L 527.864 516.488 L 527.864 516.488 Q 518.879 510.45 505.015 512.665 L 505.015 512.665 L 505.015 512.665 Q 495.061 514.255 486.862 518.846 L 486.862 518.846 L 486.862 518.846 Q 478.664 523.437 468.851 530.474 L 468.851 530.474 L 461.954 535.221 L 461.954 535.221 Q 455.768 539.855 452.113 542.08 L 452.113 542.08 L 452.113 542.08 Q 448.458 544.304 443.481 545.1 L 443.481 545.1 L 443.481 545.1 Q 434.594 546.519 427.329 539.842 L 427.329 539.842 L 427.329 539.842 Q 420.065 533.164 418.304 522.144 L 418.304 522.144 L 418.304 522.144 Q 417.111 514.679 418.805 509.304 L 418.805 509.304 L 418.805 509.304 Q 420.498 503.93 425.803 498.343 L 425.803 498.343 L 425.803 498.343 Q 439.271 484.525 459.045 474.804 L 459.045 474.804 L 459.045 474.804 Q 478.819 465.082 500.149 461.674 L 500.149 461.674 L 500.149 461.674 Q 526.455 457.471 547.903 462.794 L 547.903 462.794 L 547.903 462.794 Q 569.352 468.117 582.693 482.026 L 582.693 482.026 L 582.693 482.026 Q 596.035 495.935 599.329 516.554 L 599.329 516.554 L 599.329 516.554 Q 602.453 536.106 594.679 552.477 L 594.679 552.477 L 594.679 552.477 Q 586.904 568.849 569.854 578.5 L 569.854 578.5 Z " fill="rgb(33,33,33)" />
            </g>
        </g>
    </g>
</svg>