<?xml version="1.0" standalone="no"?>
<!-- Generator: Gravit.io -->
<svg xmlns="http://www.w3.org/2000/svg" xmlns:xlink="http://www.w3.org/1999/xlink" style="isolation:isolate" viewBox="0 0 1024 1024" width="1024" height="1024">
    <defs>
        <clipPath id="_clipPath_yLbxfLAYKhqhVdzl9WQsISkRmviGNNld">
            <rect width="1024" height="1024" />
        </clipPath>
    </defs>
    <g clip-path="url(#_clipPath_yLbxfLAYKhqhVdzl9WQsISkRmviGNNld)">
        <rect x="87" y="87" width="850" height="850" transform="matrix(1,0,0,1,0,0)" fill="rgb(33,33,33)" />
        <g id="Calendar">
            <path d=" M 156.285 406.955 L 814.612 298.735 L 898.965 810.988 L 236.582 920.582 L 156.285 406.955 Z " fill-rule="evenodd" fill="rgb(255,255,255)" />
            <path d=" M 229.089 874 Q 465.333 852 585 832 Q 704.667 812 893.385 782 L 898.965 810.988 L 236.582 920.582 L 229.089 874 Z " fill-rule="evenodd" fill="rgb(200,199,199)" />
            <path d=" M 156.648 409.277 L 125.035 207.066 L 782.449 103.418 L 815.375 303.366 L 156.648 409.277 Z " fill-rule="evenodd" fill="rgb(198,40,40)" />
            <path d=" M 433.571 294.164 L 433.571 294.164 Q 434.997 296.245 435.338 298.378 L 435.338 298.378 L 435.338 298.378 Q 435.963 302.288 433.258 305.515 L 433.258 305.515 L 433.258 305.515 Q 430.553 308.742 426.524 309.386 L 426.524 309.386 L 426.524 309.386 Q 423.799 309.821 421.32 308.759 L 421.32 308.759 L 421.32 308.759 Q 418.842 307.697 417.084 305.061 L 417.084 305.061 L 409.839 293.945 L 371.446 300.079 L 367.907 312.918 L 367.907 312.918 Q 367.058 315.971 364.975 317.762 L 364.975 317.762 L 364.975 317.762 Q 362.891 319.553 360.166 319.988 L 360.166 319.988 L 360.166 319.988 Q 356.137 320.632 352.443 318.427 L 352.443 318.427 L 352.443 318.427 Q 348.749 316.222 348.124 312.312 L 348.124 312.312 L 348.124 312.312 Q 347.783 310.179 348.49 307.757 L 348.49 307.757 L 369.512 238.534 L 369.512 238.534 Q 370.541 235.088 373.288 232.887 L 373.288 232.887 L 373.288 232.887 Q 376.035 230.686 379.709 230.099 L 379.709 230.099 L 379.709 230.099 Q 383.264 229.531 386.619 230.757 L 386.619 230.757 L 386.619 230.757 Q 389.974 231.983 392.026 234.936 L 392.026 234.936 L 433.571 294.164 Z  M 383.808 254.235 L 376.18 282.553 L 399.88 278.766 L 383.808 254.235 Z  M 482.568 301.161 L 482.568 301.161 Q 464.438 304.058 453.541 296.32 L 453.541 296.32 L 453.541 296.32 Q 442.644 288.582 439.804 270.808 L 439.804 270.808 L 433.689 232.533 L 433.689 232.533 Q 432.913 227.675 435.352 224.308 L 435.352 224.308 L 435.352 224.308 Q 437.791 220.941 442.65 220.164 L 442.65 220.164 L 442.65 220.164 Q 447.508 219.388 450.875 221.828 L 450.875 221.828 L 450.875 221.828 Q 454.242 224.267 455.018 229.125 L 455.018 229.125 L 461.266 268.229 L 461.266 268.229 Q 462.705 277.235 467.51 281.45 L 467.51 281.45 L 467.51 281.45 Q 472.315 285.664 479.899 284.453 L 479.899 284.453 L 479.899 284.453 Q 487.483 283.241 490.735 277.739 L 490.735 277.739 L 490.735 277.739 Q 493.988 272.237 492.549 263.231 L 492.549 263.231 L 486.301 224.127 L 486.301 224.127 Q 485.525 219.269 487.965 215.902 L 487.965 215.902 L 487.965 215.902 Q 490.404 212.535 495.262 211.758 L 495.262 211.758 L 495.262 211.758 Q 500.121 210.982 503.547 213.412 L 503.547 213.412 L 503.547 213.412 Q 506.973 215.842 507.749 220.7 L 507.749 220.7 L 513.865 258.975 L 513.865 258.975 Q 516.686 276.631 508.633 287.457 L 508.633 287.457 L 508.633 287.457 Q 500.58 298.283 482.568 301.161 L 482.568 301.161 Z  M 592.056 234.208 L 592.056 234.208 Q 595.967 233.583 598.628 235.406 L 598.628 235.406 L 598.628 235.406 Q 601.289 237.229 601.876 240.903 L 601.876 240.903 L 605.17 261.521 L 605.17 261.521 Q 606.117 267.446 605.73 270.728 L 605.73 270.728 L 605.73 270.728 Q 605.343 274.01 603.316 276.157 L 603.316 276.157 L 603.316 276.157 Q 601.289 278.304 596.876 280.346 L 596.876 280.346 L 596.876 280.346 Q 592.444 282.269 586.919 283.82 L 586.919 283.82 L 586.919 283.82 Q 581.395 285.371 576.537 286.147 L 576.537 286.147 L 576.537 286.147 Q 562.909 288.325 552.073 284.77 L 552.073 284.77 L 552.073 284.77 Q 541.236 281.215 534.361 272.409 L 534.361 272.409 L 534.361 272.409 Q 527.486 263.604 525.365 250.332 L 525.365 250.332 L 525.365 250.332 Q 523.283 237.297 527.072 226.788 L 527.072 226.788 L 527.072 226.788 Q 530.861 216.278 539.863 209.493 L 539.863 209.493 L 539.863 209.493 Q 548.866 202.708 562.019 200.606 L 562.019 200.606 L 562.019 200.606 Q 570.314 199.281 577.203 200.186 L 577.203 200.186 L 577.203 200.186 Q 584.092 201.09 590.423 204.21 L 590.423 204.21 L 590.423 204.21 Q 592.665 205.31 593.819 206.827 L 593.819 206.827 L 593.819 206.827 Q 594.972 208.344 595.389 210.951 L 595.389 210.951 L 595.389 210.951 Q 595.976 214.625 594.368 217.494 L 594.368 217.494 L 594.368 217.494 Q 592.761 220.364 589.917 220.818 L 589.917 220.818 L 589.917 220.818 Q 588.021 221.121 586.573 220.805 L 586.573 220.805 L 586.573 220.805 Q 585.125 220.49 582.784 219.527 L 582.784 219.527 L 582.784 219.527 Q 578.021 217.858 574 217.407 L 574 217.407 L 574 217.407 Q 569.978 216.955 565.475 217.675 L 565.475 217.675 L 565.475 217.675 Q 554.218 219.473 549.711 226.634 L 549.711 226.634 L 549.711 226.634 Q 545.204 233.795 547.287 246.83 L 547.287 246.83 L 547.287 246.83 Q 549.426 260.22 556.205 265.76 L 556.205 265.76 L 556.205 265.76 Q 562.984 271.299 574.834 269.406 L 574.834 269.406 L 574.834 269.406 Q 580.522 268.497 585.902 266.423 L 585.902 266.423 L 583.422 250.9 L 574.89 252.263 L 574.89 252.263 Q 570.98 252.887 568.534 251.273 L 568.534 251.273 L 568.534 251.273 Q 566.089 249.659 565.521 246.104 L 565.521 246.104 L 565.521 246.104 Q 564.953 242.549 566.773 240.253 L 566.773 240.253 L 566.773 240.253 Q 568.594 237.957 572.504 237.332 L 572.504 237.332 L 592.056 234.208 Z " fill-rule="evenodd" fill="rgb(250,250,250)" />
            <path d=" M 496.012 668.661 L 496.012 668.661 Q 511.653 666.162 520.29 671.161 L 520.29 671.161 L 520.29 671.161 Q 528.927 676.161 531.029 689.315 L 531.029 689.315 L 531.029 689.315 Q 533.187 702.823 526.566 710.443 L 526.566 710.443 L 526.566 710.443 Q 519.946 718.063 504.304 720.562 L 504.304 720.562 L 374.55 741.294 L 374.55 741.294 Q 361.752 743.338 353.066 736.888 L 353.066 736.888 L 353.066 736.888 Q 344.379 730.438 342.505 718.706 L 342.505 718.706 L 342.505 718.706 Q 340.062 703.42 350.161 689.047 L 350.161 689.047 L 412.973 598.442 L 412.973 598.442 Q 432.516 570.165 429.222 549.546 L 429.222 549.546 L 429.222 549.546 Q 427.291 537.46 419.337 532.168 L 419.337 532.168 L 419.337 532.168 Q 411.382 526.877 398.584 528.922 L 398.584 528.922 L 398.584 528.922 Q 388.275 530.569 380.048 534.982 L 380.048 534.982 L 380.048 534.982 Q 371.822 539.395 361.355 546.901 L 361.355 546.901 L 354.813 551.592 L 354.813 551.592 Q 353.505 552.53 349.786 555.494 L 349.786 555.494 L 349.786 555.494 Q 346.067 558.457 343.038 560.035 L 343.038 560.035 L 343.038 560.035 Q 340.009 561.613 336.454 562.181 L 336.454 562.181 L 336.454 562.181 Q 327.566 563.601 320.245 556.568 L 320.245 556.568 L 320.245 556.568 Q 312.924 549.535 311.163 538.515 L 311.163 538.515 L 311.163 538.515 Q 309.913 530.694 311.429 525.348 L 311.429 525.348 L 311.429 525.348 Q 312.945 520.002 318.662 514.713 L 318.662 514.713 L 318.662 514.713 Q 333.552 500.668 353.326 490.947 L 353.326 490.947 L 353.326 490.947 Q 373.1 481.225 393.363 477.988 L 393.363 477.988 L 393.363 477.988 Q 419.669 473.785 440.969 479.313 L 440.969 479.313 L 440.969 479.313 Q 462.268 484.842 475.694 499.285 L 475.694 499.285 L 475.694 499.285 Q 489.121 513.727 492.472 534.701 L 492.472 534.701 L 492.472 534.701 Q 495.937 556.386 490.096 575.73 L 490.096 575.73 L 490.096 575.73 Q 484.254 595.074 466.802 620.465 L 466.802 620.465 L 424.558 680.077 L 496.012 668.661 Z  M 643.068 530.327 L 643.068 530.327 Q 666.175 526.635 685.746 533.898 L 685.746 533.898 L 685.746 533.898 Q 705.317 541.161 718.374 557.85 L 718.374 557.85 L 718.374 557.85 Q 731.43 574.539 735.236 598.357 L 735.236 598.357 L 735.236 598.357 Q 739.325 623.953 730.362 645.436 L 730.362 645.436 L 730.362 645.436 Q 721.4 666.919 701.063 681.105 L 701.063 681.105 L 701.063 681.105 Q 680.727 695.291 651.932 699.892 L 651.932 699.892 L 651.932 699.892 Q 629.891 703.413 607.717 700.394 L 607.717 700.394 L 607.717 700.394 Q 585.543 697.375 568.439 688.441 L 568.439 688.441 L 568.439 688.441 Q 562.013 684.729 558.524 680 L 558.524 680 L 558.524 680 Q 555.034 675.271 553.898 668.162 L 553.898 668.162 L 553.898 668.162 Q 552.137 657.141 556.959 648.533 L 556.959 648.533 L 556.959 648.533 Q 561.781 639.924 570.669 638.504 L 570.669 638.504 L 570.669 638.504 Q 576.001 637.652 579.783 638.506 L 579.783 638.506 L 579.783 638.506 Q 583.565 639.36 591.3 642.135 L 591.3 642.135 L 598.978 644.554 L 598.978 644.554 Q 610.85 648.125 620.426 649.876 L 620.426 649.876 L 620.426 649.876 Q 630.002 651.627 640.667 649.923 L 640.667 649.923 L 640.667 649.923 Q 660.575 646.743 668.895 637.211 L 668.895 637.211 L 668.895 637.211 Q 677.215 627.679 674.489 610.615 L 674.489 610.615 L 674.489 610.615 Q 671.933 594.618 660.559 587.321 L 660.559 587.321 L 660.559 587.321 Q 649.186 580.024 631.411 582.864 L 631.411 582.864 L 631.411 582.864 Q 620.746 584.568 612.321 587.737 L 612.321 587.737 L 612.321 587.737 Q 603.895 590.906 592.902 597.402 L 592.902 597.402 L 592.902 597.402 Q 586.062 602.505 577.53 603.868 L 577.53 603.868 L 577.53 603.868 Q 567.576 605.458 559.885 600.672 L 559.885 600.672 L 559.885 600.672 Q 552.193 595.885 550.66 586.287 L 550.66 586.287 L 535.268 489.949 L 535.268 489.949 Q 532.882 475.018 539.453 465.948 L 539.453 465.948 L 539.453 465.948 Q 546.025 456.878 560.6 454.549 L 560.6 454.549 L 670.802 436.942 L 670.802 436.942 Q 701.73 432 705.649 456.529 L 705.649 456.529 L 705.649 456.529 Q 709.625 481.413 678.697 486.355 L 678.697 486.355 L 601.911 498.623 L 608.897 542.349 L 608.897 542.349 Q 622.805 533.564 643.068 530.327 L 643.068 530.327 Z " fill-rule="evenodd" fill="rgb(33,33,33)" />
        </g>
    </g>
</svg>