<?xml version="1.0" standalone="no"?>
<!-- Generator: Gravit.io -->
<svg xmlns="http://www.w3.org/2000/svg" xmlns:xlink="http://www.w3.org/1999/xlink" style="isolation:isolate" viewBox="0 0 1024 1024" width="1024" height="1024">
    <defs>
        <clipPath id="_clipPath_IdYwKqMiMWU7bDaZhjPcd7ldxbmXSi3U">
            <rect width="1024" height="1024" />
        </clipPath>
    </defs>
    <g clip-path="url(#_clipPath_IdYwKqMiMWU7bDaZhjPcd7ldxbmXSi3U)">
        <rect x="87" y="87" width="850" height="850" transform="matrix(1,0,0,1,0,0)" fill="rgb(238,238,238)" />
        <g id="France Flaf">
            <rect x="87" y="87" width="283.333" height="850" transform="matrix(1,0,0,1,0,0)" fill="rgb(26,35,126)" />
            <rect x="370.333" y="87" width="283.333" height="850" transform="matrix(1,0,0,1,0,0)" fill="rgb(238,238,238)" />
            <rect x="653.667" y="87" width="283.333" height="850" transform="matrix(1,0,0,1,0,0)" fill="rgb(183,28,28)" />
        </g>
        <g id="Calendar">
            <path d=" M 156.285 406.955 L 814.612 298.735 L 898.965 810.988 L 236.582 920.582 L 156.285 406.955 Z " fill-rule="evenodd" fill="rgb(255,255,255)" />
            <path d=" M 229.089 874 Q 465.333 852 585 832 Q 704.667 812 893.385 782 L 898.965 810.988 L 236.582 920.582 L 229.089 874 Z " fill-rule="evenodd" fill="rgb(200,199,199)" />
            <path d=" M 156.648 409.277 L 125.035 207.066 L 782.449 103.418 L 815.375 303.366 L 156.648 409.277 Z " fill-rule="evenodd" fill="rgb(198,40,40)" />
            <g id="France Date">
                <path d=" M 309.156 320.514 L 309.156 320.514 Q 296.216 323.189 294.721 313.828 L 294.721 313.828 L 294.721 313.828 Q 294.058 309.681 295.75 307.344 L 295.75 307.344 L 295.75 307.344 Q 297.443 305.008 301.79 304.07 L 301.79 304.07 L 305.781 303.19 L 305.781 303.19 Q 309.317 302.503 310.803 300.018 L 310.803 300.018 L 310.803 300.018 Q 312.289 297.532 311.684 293.74 L 311.684 293.74 L 303.94 245.275 L 303.94 245.275 Q 303.164 240.416 305.663 237.04 L 305.663 237.04 L 305.663 237.04 Q 308.161 233.663 313.257 232.849 L 313.257 232.849 L 313.257 232.849 Q 318.115 232.073 321.6 234.493 L 321.6 234.493 L 321.6 234.493 Q 325.086 236.914 325.862 241.772 L 325.862 241.772 L 333.549 289.882 L 333.549 289.882 Q 335.442 301.732 330.272 309.302 L 330.272 309.302 L 330.272 309.302 Q 325.101 316.873 312.91 319.671 L 312.91 319.671 L 309.156 320.514 Z  M 390.07 245.853 L 390.07 245.853 Q 394.929 245.077 398.189 247.229 L 398.189 247.229 L 398.189 247.229 Q 401.449 249.382 402.169 253.885 L 402.169 253.885 L 408.72 294.885 L 408.72 294.885 Q 409.382 299.032 406.846 302.172 L 406.846 302.172 L 406.846 302.172 Q 404.309 305.311 399.569 306.069 L 399.569 306.069 L 399.569 306.069 Q 395.304 306.75 392.209 304.875 L 392.209 304.875 L 392.209 304.875 Q 389.114 303 388.371 299.108 L 388.371 299.108 L 388.371 299.108 Q 386.327 303.81 382.48 306.733 L 382.48 306.733 L 382.48 306.733 Q 378.633 309.657 373.182 310.528 L 373.182 310.528 L 373.182 310.528 Q 361.925 312.326 355.48 306.976 L 355.48 306.976 L 355.48 306.976 Q 349.036 301.626 347.01 288.947 L 347.01 288.947 L 342.92 263.351 L 342.92 263.351 Q 342.201 258.848 344.628 255.787 L 344.628 255.787 L 344.628 255.787 Q 347.056 252.726 351.914 251.949 L 351.914 251.949 L 351.914 251.949 Q 356.773 251.173 360.033 253.326 L 360.033 253.326 L 360.033 253.326 Q 363.293 255.478 364.013 259.981 L 364.013 259.981 L 368.178 286.051 L 368.178 286.051 Q 369.541 294.582 376.888 293.409 L 376.888 293.409 L 376.888 293.409 Q 381.154 292.727 383.387 289.211 L 383.387 289.211 L 383.387 289.211 Q 385.62 285.694 384.825 280.717 L 384.825 280.717 L 381.076 257.255 L 381.076 257.255 Q 380.357 252.752 382.784 249.691 L 382.784 249.691 L 382.784 249.691 Q 385.212 246.629 390.07 245.853 L 390.07 245.853 Z  M 433.104 300.711 L 433.104 300.711 Q 428.601 301.43 425.191 299.484 L 425.191 299.484 L 425.191 299.484 Q 421.782 297.537 421.005 292.679 L 421.005 292.679 L 414.493 251.916 L 414.493 251.916 Q 413.716 247.058 416.35 244.146 L 416.35 244.146 L 416.35 244.146 Q 418.983 241.234 423.486 240.514 L 423.486 240.514 L 423.486 240.514 Q 427.989 239.795 431.399 241.741 L 431.399 241.741 L 431.399 241.741 Q 434.809 243.688 435.585 248.546 L 435.585 248.546 L 442.098 289.309 L 442.098 289.309 Q 442.874 294.167 440.241 297.079 L 440.241 297.079 L 440.241 297.079 Q 437.607 299.991 433.104 300.711 L 433.104 300.711 Z  M 422.161 232.219 L 422.161 232.219 Q 416.829 233.071 413.244 230.788 L 413.244 230.788 L 413.244 230.788 Q 409.659 228.505 408.92 223.884 L 408.92 223.884 L 408.92 223.884 Q 408.182 219.263 410.887 216.035 L 410.887 216.035 L 410.887 216.035 Q 413.591 212.808 418.924 211.956 L 418.924 211.956 L 418.924 211.956 Q 424.137 211.123 427.772 213.338 L 427.772 213.338 L 427.772 213.338 Q 431.407 215.552 432.146 220.173 L 432.146 220.173 L 432.146 220.173 Q 432.884 224.795 430.189 228.081 L 430.189 228.081 L 430.189 228.081 Q 427.493 231.367 422.161 232.219 L 422.161 232.219 Z  M 466.402 295.391 L 466.402 295.391 Q 461.899 296.11 458.489 294.164 L 458.489 294.164 L 458.489 294.164 Q 455.079 292.217 454.303 287.359 L 454.303 287.359 L 443.871 222.067 L 443.871 222.067 Q 443.095 217.209 445.719 214.237 L 445.719 214.237 L 445.719 214.237 Q 448.343 211.266 452.846 210.547 L 452.846 210.547 L 452.846 210.547 Q 457.349 209.827 460.768 211.833 L 460.768 211.833 L 460.768 211.833 Q 464.187 213.839 464.964 218.697 L 464.964 218.697 L 475.396 283.989 L 475.396 283.989 Q 476.172 288.847 473.538 291.759 L 473.538 291.759 L 473.538 291.759 Q 470.905 294.671 466.402 295.391 L 466.402 295.391 Z  M 499.699 290.071 L 499.699 290.071 Q 495.197 290.79 491.787 288.844 L 491.787 288.844 L 491.787 288.844 Q 488.377 286.897 487.601 282.039 L 487.601 282.039 L 477.169 216.747 L 477.169 216.747 Q 476.393 211.889 479.017 208.917 L 479.017 208.917 L 479.017 208.917 Q 481.641 205.946 486.144 205.227 L 486.144 205.227 L 486.144 205.227 Q 490.647 204.507 494.066 206.513 L 494.066 206.513 L 494.066 206.513 Q 497.485 208.519 498.261 213.377 L 498.261 213.377 L 508.693 278.669 L 508.693 278.669 Q 509.469 283.527 506.836 286.439 L 506.836 286.439 L 506.836 286.439 Q 504.202 289.351 499.699 290.071 L 499.699 290.071 Z  M 566.745 259.429 L 566.745 259.429 Q 569.47 258.993 571.529 260.852 L 571.529 260.852 L 571.529 260.852 Q 573.588 262.71 574.137 266.147 L 574.137 266.147 L 574.137 266.147 Q 574.895 270.887 570.671 274.113 L 570.671 274.113 L 570.671 274.113 Q 566.964 276.772 561.671 279.015 L 561.671 279.015 L 561.671 279.015 Q 556.379 281.258 551.758 281.996 L 551.758 281.996 L 551.758 281.996 Q 542.041 283.549 534.226 281.03 L 534.226 281.03 L 534.226 281.03 Q 526.41 278.512 521.402 272.264 L 521.402 272.264 L 521.402 272.264 Q 516.393 266.015 514.917 256.773 L 514.917 256.773 L 514.917 256.773 Q 513.516 248.004 516.141 240.475 L 516.141 240.475 L 516.141 240.475 Q 518.766 232.947 524.846 228.026 L 524.846 228.026 L 524.846 228.026 Q 530.925 223.105 539.339 221.761 L 539.339 221.761 L 539.339 221.761 Q 547.515 220.455 554.245 223.025 L 554.245 223.025 L 554.245 223.025 Q 560.975 225.596 565.393 231.573 L 565.393 231.573 L 565.393 231.573 Q 569.812 237.551 571.213 246.32 L 571.213 246.32 L 571.213 246.32 Q 571.648 249.045 570.64 250.725 L 570.64 250.725 L 570.64 250.725 Q 569.633 252.405 567.263 252.784 L 567.263 252.784 L 535.98 257.782 L 535.98 257.782 Q 537.718 263.337 540.959 265.372 L 540.959 265.372 L 540.959 265.372 Q 544.201 267.406 549.77 266.516 L 549.77 266.516 L 549.77 266.516 Q 552.733 266.042 555.117 264.993 L 555.117 264.993 L 555.117 264.993 Q 557.501 263.944 560.393 262.267 L 560.393 262.267 L 560.393 262.267 Q 562.057 261.272 563.69 260.464 L 563.69 260.464 L 563.69 260.464 Q 565.323 259.656 566.745 259.429 L 566.745 259.429 Z  M 542.203 235.886 L 542.203 235.886 Q 538.056 236.549 535.993 239.612 L 535.993 239.612 L 535.993 239.612 Q 533.931 242.676 534.271 247.847 L 534.271 247.847 L 552.875 244.875 L 552.875 244.875 Q 550.498 234.561 542.203 235.886 L 542.203 235.886 Z  M 617.925 255.748 L 617.925 255.748 Q 625.94 254.954 627 261.589 L 627 261.589 L 627 261.589 Q 627.663 265.737 624.785 268.262 L 624.785 268.262 L 624.785 268.262 Q 621.908 270.788 615.926 271.379 L 615.926 271.379 L 612.57 271.672 L 612.57 271.672 Q 601.773 272.547 595.364 267.798 L 595.364 267.798 L 595.364 267.798 Q 588.954 263.05 587.345 252.978 L 587.345 252.978 L 583.994 232.004 L 580.558 232.553 L 580.558 232.553 Q 571.078 234.068 569.828 226.247 L 569.828 226.247 L 569.828 226.247 Q 568.598 218.545 578.077 217.03 L 578.077 217.03 L 581.514 216.481 L 580.283 208.779 L 580.283 208.779 Q 579.564 204.276 581.982 201.155 L 581.982 201.155 L 581.982 201.155 Q 584.4 198.035 589.258 197.258 L 589.258 197.258 L 589.258 197.258 Q 594.116 196.482 597.386 198.694 L 597.386 198.694 L 597.386 198.694 Q 600.656 200.906 601.376 205.409 L 601.376 205.409 L 602.606 213.111 L 609.124 212.07 L 609.124 212.07 Q 618.603 210.555 619.834 218.257 L 619.834 218.257 L 619.834 218.257 Q 621.084 226.078 611.604 227.593 L 611.604 227.593 L 605.086 228.634 L 608.722 251.385 L 608.722 251.385 Q 609.081 253.637 610.69 254.96 L 610.69 254.96 L 610.69 254.96 Q 612.299 256.282 614.451 256.06 L 614.451 256.06 L 617.925 255.748 Z " fill-rule="evenodd" fill="rgb(250,250,250)" />
                <path d=" M 492.395 670.814 L 492.395 670.814 Q 508.393 668.258 516.88 673.464 L 516.88 673.464 L 516.88 673.464 Q 525.368 678.67 527.413 691.468 L 527.413 691.468 L 527.413 691.468 Q 531.616 717.774 500.688 722.715 L 500.688 722.715 L 377.332 742.424 L 377.332 742.424 Q 346.405 747.366 342.202 721.059 L 342.202 721.059 L 342.202 721.059 Q 340.157 708.262 346.6 700.67 L 346.6 700.67 L 346.6 700.67 Q 353.043 693.078 369.04 690.523 L 369.04 690.523 L 397.835 685.922 L 377.331 557.59 L 351.561 578.841 L 351.561 578.841 Q 346.086 583.362 339.687 584.384 L 339.687 584.384 L 339.687 584.384 Q 329.733 585.975 321.232 578.401 L 321.232 578.401 L 321.232 578.401 Q 312.73 570.827 311.026 560.163 L 311.026 560.163 L 311.026 560.163 Q 308.698 545.588 319.947 536.134 L 319.947 536.134 L 371.543 493.986 L 371.543 493.986 Q 385.765 482.6 399.629 480.385 L 399.629 480.385 L 399.629 480.385 Q 413.849 478.113 423.922 485.253 L 423.922 485.253 L 423.922 485.253 Q 433.994 492.393 436.323 506.968 L 436.323 506.968 L 463.245 675.471 L 492.395 670.814 Z  M 700.338 596.394 L 700.338 596.394 Q 731.266 591.453 735.185 615.982 L 735.185 615.982 L 735.185 615.982 Q 739.218 641.221 708.29 646.163 L 708.29 646.163 L 700.469 647.412 L 702.4 659.499 L 702.4 659.499 Q 704.956 675.496 697.375 685.092 L 697.375 685.092 L 697.375 685.092 Q 689.795 694.689 675.575 696.961 L 675.575 696.961 L 675.575 696.961 Q 661.355 699.232 651.339 692.448 L 651.339 692.448 L 651.339 692.448 Q 641.323 685.663 638.768 669.666 L 638.768 669.666 L 636.836 657.579 L 557.562 670.245 L 557.562 670.245 Q 544.764 672.29 536.049 665.662 L 536.049 665.662 L 536.049 665.662 Q 527.334 659.034 525.46 647.303 L 525.46 647.303 L 525.46 647.303 Q 523.472 634.86 529.532 622.591 L 529.532 622.591 L 608.029 461.306 L 608.029 461.306 Q 611.87 453.401 618.917 448.447 L 618.917 448.447 L 618.917 448.447 Q 625.964 443.493 634.14 442.187 L 634.14 442.187 L 634.14 442.187 Q 647.649 440.029 658.61 447.027 L 658.61 447.027 L 658.61 447.027 Q 669.571 454.025 672.014 469.311 L 672.014 469.311 L 692.518 597.644 L 700.338 596.394 Z  M 619.059 546.31 L 586.226 614.626 L 628.885 607.81 L 619.059 546.31 Z " fill-rule="evenodd" fill="rgb(33,33,33)" />
            </g>
        </g>
    </g>
</svg>