<?xml version="1.0" standalone="no"?>
<!-- Generator: Gravit.io -->
<svg xmlns="http://www.w3.org/2000/svg" xmlns:xlink="http://www.w3.org/1999/xlink" style="isolation:isolate" viewBox="0 0 1024 1024" width="1024" height="1024">
    <defs>
        <clipPath id="_clipPath_YJSDgYc74vJaQxlWwA4mNxaEllJuzmVA">
            <rect width="1024" height="1024" />
        </clipPath>
    </defs>
    <g clip-path="url(#_clipPath_YJSDgYc74vJaQxlWwA4mNxaEllJuzmVA)">
        <rect x="87" y="87" width="850" height="850" transform="matrix(1,0,0,1,0,0)" fill="rgb(238,238,238)" />
        <g id="Austria Flag">
            <rect x="370.333" y="370.333" width="283.333" height="850" transform="matrix(0,-1,1,0,-283.333,1307.333)" fill="rgb(183,28,28)" />
            <rect x="370.333" y="87" width="283.333" height="850" transform="matrix(0,-1,1,0,0,1024)" fill="rgb(238,238,238)" />
            <rect x="370.333" y="-196.333" width="283.333" height="850" transform="matrix(0,-1,1,0,283.333,740.667)" fill="rgb(183,28,28)" />
        </g>
        <g id="Calendar">
            <path d=" M 156.285 406.955 L 814.612 298.735 L 898.965 810.988 L 236.582 920.582 L 156.285 406.955 Z " fill-rule="evenodd" fill="rgb(255,255,255)" />
            <path d=" M 229.089 874 Q 465.333 852 585 832 Q 704.667 812 893.385 782 L 898.965 810.988 L 236.582 920.582 L 229.089 874 Z " fill-rule="evenodd" fill="rgb(200,199,199)" />
            <path d=" M 156.648 409.277 L 125.035 207.066 L 782.449 103.418 L 815.375 303.366 L 156.648 409.277 Z " fill-rule="evenodd" fill="rgb(33,33,33)" />
            <g id="Austria Date">
                <path d=" M 295.592 325.057 L 295.592 325.057 Q 282.794 327.102 272.531 323.334 L 272.531 323.334 L 272.531 323.334 Q 262.268 319.566 255.629 310.723 L 255.629 310.723 L 255.629 310.723 Q 248.991 301.879 246.909 288.845 L 246.909 288.845 L 246.909 288.845 Q 244.826 275.81 248.378 265.338 L 248.378 265.338 L 248.378 265.338 Q 251.931 254.867 260.518 248.148 L 260.518 248.148 L 260.518 248.148 Q 269.106 241.429 281.903 239.384 L 281.903 239.384 L 281.903 239.384 Q 294.701 237.339 304.955 241.048 L 304.955 241.048 L 304.955 241.048 Q 315.208 244.757 321.787 253.61 L 321.787 253.61 L 321.787 253.61 Q 328.366 262.462 330.449 275.497 L 330.449 275.497 L 330.449 275.497 Q 332.532 288.532 328.979 299.003 L 328.979 299.003 L 328.979 299.003 Q 325.427 309.475 316.849 316.253 L 316.849 316.253 L 316.849 316.253 Q 308.271 323.032 295.592 325.057 L 295.592 325.057 Z  M 292.922 308.349 L 292.922 308.349 Q 302.402 306.835 306.665 299.288 L 306.665 299.288 L 306.665 299.288 Q 310.927 291.741 308.882 278.943 L 308.882 278.943 L 308.882 278.943 Q 306.838 266.145 300.386 260.371 L 300.386 260.371 L 300.386 260.371 Q 293.934 254.596 284.573 256.092 L 284.573 256.092 L 284.573 256.092 Q 275.093 257.607 270.811 265.035 L 270.811 265.035 L 270.811 265.035 Q 266.53 272.464 268.593 285.38 L 268.593 285.38 L 268.593 285.38 Q 270.657 298.296 277.05 304.08 L 277.05 304.08 L 277.05 304.08 Q 283.442 309.864 292.922 308.349 L 292.922 308.349 Z  M 404.196 289.842 L 404.196 289.842 Q 407.75 292.312 408.375 296.222 L 408.375 296.222 L 408.375 296.222 Q 409 300.133 406.707 303.658 L 406.707 303.658 L 406.707 303.658 Q 404.415 307.184 400.504 307.809 L 400.504 307.809 L 400.504 307.809 Q 397.186 308.339 393.395 305.907 L 393.395 305.907 L 365.686 286.88 L 368.242 302.877 L 368.242 302.877 Q 369.018 307.736 366.394 310.707 L 366.394 310.707 L 366.394 310.707 Q 363.77 313.678 359.267 314.398 L 359.267 314.398 L 359.267 314.398 Q 354.764 315.117 351.345 313.111 L 351.345 313.111 L 351.345 313.111 Q 347.926 311.106 347.15 306.247 L 347.15 306.247 L 336.756 241.192 L 336.756 241.192 Q 335.979 236.334 338.603 233.363 L 338.603 233.363 L 338.603 233.363 Q 341.228 230.392 345.73 229.672 L 345.73 229.672 L 345.73 229.672 Q 350.233 228.953 353.653 230.958 L 353.653 230.958 L 353.653 230.958 Q 357.072 232.964 357.848 237.822 L 357.848 237.822 L 364.266 277.993 L 382.629 252.213 L 382.629 252.213 Q 385.099 248.659 389.009 248.034 L 389.009 248.034 L 389.009 248.034 Q 392.801 247.428 396.168 249.867 L 396.168 249.867 L 396.168 249.867 Q 399.535 252.307 400.122 255.98 L 400.122 255.98 L 400.122 255.98 Q 400.709 259.654 398.121 263.227 L 398.121 263.227 L 387.249 278.088 L 404.196 289.842 Z  M 449.546 284.662 L 449.546 284.662 Q 457.562 283.867 458.622 290.503 L 458.622 290.503 L 458.622 290.503 Q 459.284 294.65 456.407 297.176 L 456.407 297.176 L 456.407 297.176 Q 453.529 299.702 447.548 300.293 L 447.548 300.293 L 444.192 300.586 L 444.192 300.586 Q 433.395 301.46 426.985 296.712 L 426.985 296.712 L 426.985 296.712 Q 420.576 291.964 418.966 281.892 L 418.966 281.892 L 415.615 260.918 L 412.179 261.467 L 412.179 261.467 Q 402.699 262.981 401.45 255.161 L 401.45 255.161 L 401.45 255.161 Q 400.219 247.458 409.699 245.944 L 409.699 245.944 L 413.135 245.395 L 411.905 237.692 L 411.905 237.692 Q 411.185 233.189 413.603 230.069 L 413.603 230.069 L 413.603 230.069 Q 416.021 226.948 420.879 226.172 L 420.879 226.172 L 420.879 226.172 Q 425.738 225.396 429.008 227.608 L 429.008 227.608 L 429.008 227.608 Q 432.278 229.819 432.997 234.322 L 432.997 234.322 L 434.228 242.025 L 440.745 240.983 L 440.745 240.983 Q 450.225 239.469 451.455 247.171 L 451.455 247.171 L 451.455 247.171 Q 452.705 254.992 443.225 256.506 L 443.225 256.506 L 436.708 257.548 L 440.343 280.299 L 440.343 280.299 Q 440.703 282.551 442.311 283.873 L 442.311 283.873 L 442.311 283.873 Q 443.92 285.196 446.072 284.974 L 446.072 284.974 L 449.546 284.662 Z  M 494.885 293.094 L 494.885 293.094 Q 485.286 294.628 477.403 292.059 L 477.403 292.059 L 477.403 292.059 Q 469.519 289.491 464.451 283.253 L 464.451 283.253 L 464.451 283.253 Q 459.383 277.014 457.906 267.771 L 457.906 267.771 L 457.906 267.771 Q 456.43 258.528 459.311 251.081 L 459.311 251.081 L 459.311 251.081 Q 462.192 243.633 468.833 238.804 L 468.833 238.804 L 468.833 238.804 Q 475.474 233.976 485.191 232.424 L 485.191 232.424 L 485.191 232.424 Q 494.908 230.871 502.723 233.39 L 502.723 233.39 L 502.723 233.39 Q 510.538 235.908 515.597 242.088 L 515.597 242.088 L 515.597 242.088 Q 520.655 248.267 522.132 257.51 L 522.132 257.51 L 522.132 257.51 Q 523.609 266.753 520.737 274.26 L 520.737 274.26 L 520.737 274.26 Q 517.865 281.767 511.233 286.654 L 511.233 286.654 L 511.233 286.654 Q 504.601 291.542 494.885 293.094 L 494.885 293.094 Z  M 492.367 277.334 L 492.367 277.334 Q 503.624 275.536 501.276 260.842 L 501.276 260.842 L 501.276 260.842 Q 498.929 246.148 487.671 247.947 L 487.671 247.947 L 487.671 247.947 Q 476.414 249.745 478.762 264.439 L 478.762 264.439 L 478.762 264.439 Q 481.109 279.133 492.367 277.334 L 492.367 277.334 Z  M 565.532 219.587 L 565.532 219.587 Q 573.116 218.376 579.509 221.121 L 579.509 221.121 L 579.509 221.121 Q 585.903 223.867 590.25 230.16 L 590.25 230.16 L 590.25 230.16 Q 594.597 236.453 596.036 245.459 L 596.036 245.459 L 596.036 245.459 Q 597.475 254.465 595.333 261.977 L 595.333 261.977 L 595.333 261.977 Q 593.192 269.489 587.941 274.277 L 587.941 274.277 L 587.941 274.277 Q 582.691 279.065 575.226 280.258 L 575.226 280.258 L 575.226 280.258 Q 569.419 281.186 564.242 279.582 L 564.242 279.582 L 564.242 279.582 Q 559.064 277.979 555.913 274.229 L 555.913 274.229 L 555.913 274.229 Q 556.201 278.315 553.785 281.071 L 553.785 281.071 L 553.785 281.071 Q 551.37 283.826 546.867 284.546 L 546.867 284.546 L 546.867 284.546 Q 542.127 285.303 538.917 283.082 L 538.917 283.082 L 538.917 283.082 Q 535.706 280.861 535.005 276.476 L 535.005 276.476 L 524.517 210.829 L 524.517 210.829 Q 523.854 206.681 526.391 203.542 L 526.391 203.542 L 526.391 203.542 Q 528.927 200.402 533.785 199.626 L 533.785 199.626 L 533.785 199.626 Q 538.407 198.888 541.648 200.922 L 541.648 200.922 L 541.648 200.922 Q 544.89 202.956 545.552 207.103 L 545.552 207.103 L 549.32 230.684 L 549.32 230.684 Q 551.321 226.476 555.642 223.477 L 555.642 223.477 L 555.642 223.477 Q 559.963 220.477 565.532 219.587 L 565.532 219.587 Z  M 566.19 265.539 L 566.19 265.539 Q 571.641 264.668 573.988 260.344 L 573.988 260.344 L 573.988 260.344 Q 576.335 256.019 575.181 248.791 L 575.181 248.791 L 575.181 248.791 Q 574.082 241.918 570.592 238.709 L 570.592 238.709 L 570.592 238.709 Q 567.102 235.499 561.651 236.37 L 561.651 236.37 L 561.651 236.37 Q 556.082 237.26 553.716 241.466 L 553.716 241.466 L 553.716 241.466 Q 551.35 245.672 552.467 252.663 L 552.467 252.663 L 552.467 252.663 Q 553.603 259.773 557.171 263.091 L 557.171 263.091 L 557.171 263.091 Q 560.74 266.41 566.19 265.539 L 566.19 265.539 Z  M 654.912 247.353 L 654.912 247.353 Q 657.638 246.918 659.697 248.776 L 659.697 248.776 L 659.697 248.776 Q 661.756 250.635 662.305 254.071 L 662.305 254.071 L 662.305 254.071 Q 663.062 258.811 658.838 262.038 L 658.838 262.038 L 658.838 262.038 Q 655.131 264.696 649.839 266.939 L 649.839 266.939 L 649.839 266.939 Q 644.547 269.182 639.925 269.921 L 639.925 269.921 L 639.925 269.921 Q 630.208 271.473 622.393 268.955 L 622.393 268.955 L 622.393 268.955 Q 614.578 266.436 609.569 260.188 L 609.569 260.188 L 609.569 260.188 Q 604.561 253.94 603.084 244.697 L 603.084 244.697 L 603.084 244.697 Q 601.683 235.928 604.308 228.4 L 604.308 228.4 L 604.308 228.4 Q 606.933 220.872 613.013 215.951 L 613.013 215.951 L 613.013 215.951 Q 619.093 211.03 627.506 209.686 L 627.506 209.686 L 627.506 209.686 Q 635.683 208.379 642.412 210.95 L 642.412 210.95 L 642.412 210.95 Q 649.142 213.52 653.561 219.498 L 653.561 219.498 L 653.561 219.498 Q 657.979 225.476 659.38 234.244 L 659.38 234.244 L 659.38 234.244 Q 659.816 236.97 658.808 238.65 L 658.808 238.65 L 658.808 238.65 Q 657.8 240.33 655.43 240.709 L 655.43 240.709 L 624.147 245.707 L 624.147 245.707 Q 625.886 251.262 629.127 253.296 L 629.127 253.296 L 629.127 253.296 Q 632.369 255.33 637.938 254.44 L 637.938 254.44 L 637.938 254.44 Q 640.9 253.967 643.285 252.918 L 643.285 252.918 L 643.285 252.918 Q 645.669 251.868 648.561 250.191 L 648.561 250.191 L 648.561 250.191 Q 650.224 249.196 651.857 248.388 L 651.857 248.388 L 651.857 248.388 Q 653.49 247.581 654.912 247.353 L 654.912 247.353 Z  M 630.371 223.811 L 630.371 223.811 Q 626.223 224.473 624.161 227.537 L 624.161 227.537 L 624.161 227.537 Q 622.098 230.601 622.438 235.772 L 622.438 235.772 L 641.042 232.799 L 641.042 232.799 Q 638.665 222.485 630.371 223.811 L 630.371 223.811 Z  M 701.368 198.128 L 701.368 198.128 Q 705.34 197.128 708.06 198.942 L 708.06 198.942 L 708.06 198.942 Q 710.78 200.756 711.462 205.021 L 711.462 205.021 L 711.462 205.021 Q 712.219 209.761 710.368 212.244 L 710.368 212.244 L 710.368 212.244 Q 708.516 214.728 702.923 216.229 L 702.923 216.229 L 699.425 217.152 L 699.425 217.152 Q 693.614 218.81 691.549 222.239 L 691.549 222.239 L 691.549 222.239 Q 689.484 225.667 690.317 230.881 L 690.317 230.881 L 693.554 251.144 L 693.554 251.144 Q 694.331 256.003 691.697 258.915 L 691.697 258.915 L 691.697 258.915 Q 689.064 261.827 684.561 262.546 L 684.561 262.546 L 684.561 262.546 Q 680.058 263.266 676.648 261.319 L 676.648 261.319 L 676.648 261.319 Q 673.238 259.373 672.462 254.514 L 672.462 254.514 L 665.911 213.514 L 665.911 213.514 Q 665.192 209.011 667.816 206.04 L 667.816 206.04 L 667.816 206.04 Q 670.44 203.069 674.706 202.387 L 674.706 202.387 L 674.706 202.387 Q 679.09 201.687 682.135 203.631 L 682.135 203.631 L 682.135 203.631 Q 685.18 205.575 685.862 209.841 L 685.862 209.841 L 686.221 212.092 L 686.221 212.092 Q 687.284 206.575 691.155 203.04 L 691.155 203.04 L 691.155 203.04 Q 695.026 199.505 699.728 198.511 L 699.728 198.511 L 701.368 198.128 Z " fill-rule="evenodd" fill="rgb(250,250,250)" />
                <path d=" M 503.153 669.29 L 503.153 669.29 Q 518.794 666.791 527.431 671.791 L 527.431 671.791 L 527.431 671.791 Q 536.068 676.791 538.17 689.944 L 538.17 689.944 L 538.17 689.944 Q 540.328 703.453 533.707 711.073 L 533.707 711.073 L 533.707 711.073 Q 527.087 718.693 511.445 721.192 L 511.445 721.192 L 381.691 741.923 L 381.691 741.923 Q 368.893 743.968 360.207 737.518 L 360.207 737.518 L 360.207 737.518 Q 351.52 731.067 349.646 719.336 L 349.646 719.336 L 349.646 719.336 Q 347.204 704.05 357.302 689.677 L 357.302 689.677 L 420.114 599.072 L 420.114 599.072 Q 439.658 570.795 436.363 550.176 L 436.363 550.176 L 436.363 550.176 Q 434.432 538.089 426.478 532.798 L 426.478 532.798 L 426.478 532.798 Q 418.523 527.507 405.726 529.551 L 405.726 529.551 L 405.726 529.551 Q 395.416 531.199 387.19 535.612 L 387.19 535.612 L 387.19 535.612 Q 378.963 540.025 368.496 547.53 L 368.496 547.53 L 361.954 552.221 L 361.954 552.221 Q 360.646 553.16 356.927 556.123 L 356.927 556.123 L 356.927 556.123 Q 353.208 559.087 350.179 560.665 L 350.179 560.665 L 350.179 560.665 Q 347.15 562.243 343.595 562.811 L 343.595 562.811 L 343.595 562.811 Q 334.707 564.23 327.386 557.197 L 327.386 557.197 L 327.386 557.197 Q 320.065 550.164 318.304 539.144 L 318.304 539.144 L 318.304 539.144 Q 317.055 531.323 318.57 525.977 L 318.57 525.977 L 318.57 525.977 Q 320.086 520.631 325.803 515.343 L 325.803 515.343 L 325.803 515.343 Q 340.693 501.298 360.467 491.576 L 360.467 491.576 L 360.467 491.576 Q 380.241 481.855 400.504 478.617 L 400.504 478.617 L 400.504 478.617 Q 426.811 474.414 448.11 479.943 L 448.11 479.943 L 448.11 479.943 Q 469.409 485.472 482.835 499.915 L 482.835 499.915 L 482.835 499.915 Q 496.262 514.357 499.613 535.331 L 499.613 535.331 L 499.613 535.331 Q 503.078 557.016 497.237 576.36 L 497.237 576.36 L 497.237 576.36 Q 491.395 595.704 473.943 621.095 L 473.943 621.095 L 431.699 680.707 L 503.153 669.29 Z  M 609.533 445.22 L 609.533 445.22 Q 659.657 437.212 692.256 465.543 L 692.256 465.543 L 692.256 465.543 Q 724.854 493.875 734.509 554.309 L 734.509 554.309 L 734.509 554.309 Q 740.871 594.124 732.638 625.88 L 732.638 625.88 L 732.638 625.88 Q 724.405 657.637 703.321 677.411 L 703.321 677.411 L 703.321 677.411 Q 682.237 697.185 650.598 702.24 L 650.598 702.24 L 650.598 702.24 Q 630.69 705.421 608.872 702.345 L 608.872 702.345 L 608.872 702.345 Q 587.053 699.269 570.305 690.279 L 570.305 690.279 L 570.305 690.279 Q 563.523 686.623 560.062 682.072 L 560.062 682.072 L 560.062 682.072 Q 556.601 677.521 555.408 670.056 L 555.408 670.056 L 555.408 670.056 Q 553.647 659.035 558.647 650.398 L 558.647 650.398 L 558.647 650.398 Q 563.647 641.761 572.534 640.341 L 572.534 640.341 L 572.534 640.341 Q 577.511 639.546 581.677 640.521 L 581.677 640.521 L 581.677 640.521 Q 585.843 641.496 593.165 643.972 L 593.165 643.972 L 601.611 646.633 L 601.611 646.633 Q 614.251 650.446 622.526 652.041 L 622.526 652.041 L 622.526 652.041 Q 630.801 653.635 639.333 652.272 L 639.333 652.272 L 639.333 652.272 Q 657.463 649.375 666.02 631.056 L 666.02 631.056 L 666.02 631.056 Q 674.577 612.736 671.939 582.534 L 671.939 582.534 L 671.939 582.534 Q 665.58 595.216 652.944 603.979 L 652.944 603.979 L 652.944 603.979 Q 640.309 612.743 623.956 615.356 L 623.956 615.356 L 623.956 615.356 Q 602.627 618.763 583.888 611.003 L 583.888 611.003 L 583.888 611.003 Q 565.149 603.242 552.391 586.141 L 552.391 586.141 L 552.391 586.141 Q 539.633 569.039 535.884 545.577 L 535.884 545.577 L 535.884 545.577 Q 531.908 520.692 539.954 499.174 L 539.954 499.174 L 539.954 499.174 Q 548 477.655 566.146 463.454 L 566.146 463.454 L 566.146 463.454 Q 584.293 449.253 609.533 445.22 L 609.533 445.22 Z  M 632.244 562.263 L 632.244 562.263 Q 646.108 560.048 652.985 549.47 L 652.985 549.47 L 652.985 549.47 Q 659.862 538.893 657.42 523.607 L 657.42 523.607 L 657.42 523.607 Q 655.034 508.676 644.998 500.619 L 644.998 500.619 L 644.998 500.619 Q 634.961 492.561 621.452 494.72 L 621.452 494.72 L 621.452 494.72 Q 607.588 496.935 600.888 507.484 L 600.888 507.484 L 600.888 507.484 Q 594.189 518.033 596.631 533.319 L 596.631 533.319 L 596.631 533.319 Q 599.13 548.961 608.577 556.748 L 608.577 556.748 L 608.577 556.748 Q 618.024 564.535 632.244 562.263 L 632.244 562.263 Z " fill-rule="evenodd" fill="rgb(33,33,33)" />
            </g>
        </g>
    </g>
</svg>