<?xml version="1.0" standalone="no"?>
<!-- Generator: Gravit.io -->
<svg xmlns="http://www.w3.org/2000/svg" xmlns:xlink="http://www.w3.org/1999/xlink" style="isolation:isolate" viewBox="0 0 1024 1024" width="1024" height="1024">
    <defs>
        <clipPath id="_clipPath_tNiQ3MwSYrfMVSpX7dv7Vi1cIFqFUMNz">
            <rect width="1024" height="1024" />
        </clipPath>
    </defs>
    <g clip-path="url(#_clipPath_tNiQ3MwSYrfMVSpX7dv7Vi1cIFqFUMNz)">
        <rect x="87" y="87" width="850" height="850" transform="matrix(1,0,0,1,0,0)" fill="rgb(69,90,100)" />
        <g id="window">
            <path d="M 261 161 L 937 161 L 937 865 L 261 865 C 249.962 865 241 856.038 241 845 L 241 181 C 241 169.962 249.962 161 261 161 Z" style="stroke:none;fill:#EBEBEB;stroke-miterlimit:10;" />
            <path d="M 261 161 L 937 161 L 937 233 L 241 233 L 241 181 C 241 169.962 249.962 161 261 161 Z" style="stroke:none;fill:#BDBDBD;stroke-miterlimit:10;" />
            <g id="window buttons">
                <path d=" M 259 195.5 C 259 185.841 266.841 178 276.5 178 C 286.159 178 294 185.841 294 195.5 C 294 205.159 286.159 213 276.5 213 C 266.841 213 259 205.159 259 195.5 Z " fill="rgb(244,67,54)" />
                <path d=" M 309 195.5 C 309 185.841 316.841 178 326.5 178 C 336.159 178 344 185.841 344 195.5 C 344 205.159 336.159 213 326.5 213 C 316.841 213 309 205.159 309 195.5 Z " fill="rgb(251,192,45)" />
                <path d=" M 359 195.5 C 359 185.841 366.841 178 376.5 178 C 386.159 178 394 185.841 394 195.5 C 394 205.159 386.159 213 376.5 213 C 366.841 213 359 205.159 359 195.5 Z " fill="rgb(76,175,80)" />
            </g>
            <path d=" M 611.951 213.837 L 611.951 213.837 L 611.951 213.837 Q 617.71 213.837 621.679 210.869 L 621.679 210.869 L 621.679 210.869 Q 625.648 207.902 626.55 202.919 L 626.55 202.919 L 621.967 202.919 L 621.967 202.919 Q 621.116 206.049 618.424 207.864 L 618.424 207.864 L 618.424 207.864 Q 615.732 209.68 611.951 209.68 L 611.951 209.68 L 611.951 209.68 Q 606.743 209.68 603.688 205.698 L 603.688 205.698 L 603.688 205.698 Q 600.633 201.717 600.633 194.931 L 600.633 194.931 L 600.633 194.931 Q 600.633 188.12 603.675 184.138 L 603.675 184.138 L 603.675 184.138 Q 606.717 180.157 611.926 180.157 L 611.926 180.157 L 611.926 180.157 Q 615.657 180.157 618.361 182.198 L 618.361 182.198 L 618.361 182.198 Q 621.066 184.238 621.967 187.744 L 621.967 187.744 L 626.55 187.744 L 626.55 187.744 Q 625.749 182.511 621.692 179.255 L 621.692 179.255 L 621.692 179.255 Q 617.635 176 611.926 176 L 611.926 176 L 611.926 176 Q 604.564 176 600.282 181.083 L 600.282 181.083 L 600.282 181.083 Q 596 186.167 596 194.931 L 596 194.931 L 596 194.931 Q 596 203.67 600.295 208.753 L 600.295 208.753 L 600.295 208.753 Q 604.589 213.837 611.951 213.837 Z  M 641.875 209.68 L 641.875 209.68 L 641.875 209.68 Q 639.521 209.68 637.968 208.528 L 637.968 208.528 L 637.968 208.528 Q 636.416 207.376 636.416 205.323 L 636.416 205.323 L 636.416 205.323 Q 636.416 201.316 642.326 200.916 L 642.326 200.916 L 649.587 200.44 L 649.587 202.919 L 649.587 202.919 Q 649.587 205.799 647.396 207.739 L 647.396 207.739 L 647.396 207.739 Q 645.205 209.68 641.875 209.68 Z  M 641.073 213.461 L 641.073 213.461 L 641.073 213.461 Q 643.778 213.461 645.931 212.309 L 645.931 212.309 L 645.931 212.309 Q 648.085 211.157 649.387 209.004 L 649.387 209.004 L 649.788 209.004 L 649.788 212.985 L 653.894 212.985 L 653.894 194.505 L 653.894 194.505 Q 653.894 190.298 651.228 187.907 L 651.228 187.907 L 651.228 187.907 Q 648.561 185.516 643.628 185.516 L 643.628 185.516 L 643.628 185.516 Q 639.321 185.516 636.391 187.481 L 636.391 187.481 L 636.391 187.481 Q 633.461 189.447 633.035 192.702 L 633.035 192.702 L 637.392 192.702 L 637.392 192.702 Q 637.843 191.1 639.446 190.223 L 639.446 190.223 L 639.446 190.223 Q 641.048 189.347 643.477 189.347 L 643.477 189.347 L 643.477 189.347 Q 649.587 189.347 649.587 194.505 L 649.587 194.505 L 649.587 196.959 L 641.8 197.435 L 641.8 197.435 Q 631.959 198.011 631.959 205.423 L 631.959 205.423 L 631.959 205.423 Q 631.959 209.129 634.55 211.295 L 634.55 211.295 L 634.55 211.295 Q 637.142 213.461 641.073 213.461 Z  M 675.004 185.516 L 675.004 185.516 L 675.004 185.516 Q 672.249 185.516 669.958 186.843 L 669.958 186.843 L 669.958 186.843 Q 667.667 188.17 666.365 190.499 L 666.365 190.499 L 665.964 190.499 L 665.964 185.991 L 661.857 185.991 L 661.857 222 L 666.164 222 L 666.164 208.929 L 666.565 208.929 L 666.565 208.929 Q 667.667 211.057 669.895 212.259 L 669.895 212.259 L 669.895 212.259 Q 672.124 213.461 675.004 213.461 L 675.004 213.461 L 675.004 213.461 Q 680.162 213.461 683.255 209.642 L 683.255 209.642 L 683.255 209.642 Q 686.347 205.824 686.347 199.488 L 686.347 199.488 L 686.347 199.488 Q 686.347 193.128 683.255 189.322 L 683.255 189.322 L 683.255 189.322 Q 680.162 185.516 675.004 185.516 Z  M 673.977 209.58 L 673.977 209.58 L 673.977 209.58 Q 670.346 209.58 668.193 206.85 L 668.193 206.85 L 668.193 206.85 Q 666.039 204.121 666.039 199.488 L 666.039 199.488 L 666.039 199.488 Q 666.039 194.831 668.193 192.114 L 668.193 192.114 L 668.193 192.114 Q 670.346 189.397 674.002 189.397 L 674.002 189.397 L 674.002 189.397 Q 677.708 189.397 679.799 192.076 L 679.799 192.076 L 679.799 192.076 Q 681.89 194.756 681.89 199.488 L 681.89 199.488 L 681.89 199.488 Q 681.89 204.221 679.799 206.9 L 679.799 206.9 L 679.799 206.9 Q 677.708 209.58 673.977 209.58 Z  M 694.911 179.005 L 694.911 179.005 L 694.911 185.991 L 690.554 185.991 L 690.554 189.597 L 694.911 189.597 L 694.911 205.974 L 694.911 205.974 Q 694.911 209.83 696.727 211.508 L 696.727 211.508 L 696.727 211.508 Q 698.542 213.186 702.699 213.186 L 702.699 213.186 L 702.699 213.186 Q 703.35 213.186 703.976 213.123 L 703.976 213.123 L 703.976 213.123 Q 704.602 213.06 705.228 212.935 L 705.228 212.935 L 705.228 209.304 L 705.228 209.304 Q 704.627 209.354 704.214 209.379 L 704.214 209.379 L 704.214 209.379 Q 703.801 209.404 703.225 209.404 L 703.225 209.404 L 703.225 209.404 Q 701.121 209.404 700.17 208.328 L 700.17 208.328 L 700.17 208.328 Q 699.218 207.251 699.218 204.872 L 699.218 204.872 L 699.218 189.597 L 705.228 189.597 L 705.228 185.991 L 699.218 185.991 L 699.218 179.005 L 699.218 179.005 Q 699.218 179.005 698.567 179.005 L 698.567 179.005 L 698.567 179.005 Q 697.916 179.005 697.065 179.005 L 697.065 179.005 L 697.065 179.005 Q 696.213 179.005 695.562 179.005 L 695.562 179.005 L 695.562 179.005 Q 694.911 179.005 694.911 179.005 Z  M 733.574 185.991 L 733.574 185.991 L 729.267 185.991 L 729.267 201.967 L 729.267 201.967 Q 729.267 205.523 727.377 207.526 L 727.377 207.526 L 727.377 207.526 Q 725.486 209.53 721.905 209.53 L 721.905 209.53 L 721.905 209.53 Q 718.675 209.53 717.235 207.789 L 717.235 207.789 L 717.235 207.789 Q 715.795 206.049 715.795 202.418 L 715.795 202.418 L 715.795 185.991 L 711.488 185.991 L 711.488 203.47 L 711.488 203.47 Q 711.488 208.253 713.83 210.857 L 713.83 210.857 L 713.83 210.857 Q 716.171 213.461 720.703 213.461 L 720.703 213.461 L 720.703 213.461 Q 723.808 213.461 725.937 212.234 L 725.937 212.234 L 725.937 212.234 Q 728.065 211.007 729.067 208.753 L 729.067 208.753 L 729.468 208.753 L 729.468 212.985 L 733.574 212.985 L 733.574 212.985 Q 733.574 212.985 733.574 210.256 L 733.574 210.256 L 733.574 210.256 Q 733.574 207.526 733.574 203.507 L 733.574 203.507 L 733.574 203.507 Q 733.574 199.488 733.574 195.469 L 733.574 195.469 L 733.574 195.469 Q 733.574 191.45 733.574 188.721 L 733.574 188.721 L 733.574 188.721 Q 733.574 185.991 733.574 185.991 Z  M 741.688 212.985 L 741.688 212.985 L 745.995 212.985 L 745.995 196.258 L 745.995 196.258 Q 745.995 193.403 747.998 191.55 L 747.998 191.55 L 747.998 191.55 Q 750.001 189.697 753.081 189.697 L 753.081 189.697 L 753.081 189.697 Q 753.732 189.697 754.659 189.785 L 754.659 189.785 L 754.659 189.785 Q 755.585 189.873 755.836 189.948 L 755.836 189.948 L 755.836 185.641 L 755.836 185.641 Q 755.435 185.591 754.821 185.553 L 754.821 185.553 L 754.821 185.553 Q 754.208 185.516 753.682 185.516 L 753.682 185.516 L 753.682 185.516 Q 751.003 185.516 748.899 186.768 L 748.899 186.768 L 748.899 186.768 Q 746.796 188.02 746.195 189.998 L 746.195 189.998 L 745.794 189.998 L 745.794 185.991 L 741.688 185.991 L 741.688 185.991 Q 741.688 185.991 741.688 188.721 L 741.688 188.721 L 741.688 188.721 Q 741.688 191.45 741.688 195.469 L 741.688 195.469 L 741.688 195.469 Q 741.688 199.488 741.688 203.507 L 741.688 203.507 L 741.688 203.507 Q 741.688 207.526 741.688 210.256 L 741.688 210.256 L 741.688 210.256 Q 741.688 212.985 741.688 212.985 Z  M 771.987 189.322 L 771.987 189.322 L 771.987 189.322 Q 775.192 189.322 777.17 191.5 L 777.17 191.5 L 777.17 191.5 Q 779.149 193.679 779.224 197.26 L 779.224 197.26 L 764.349 197.26 L 764.349 197.26 Q 764.6 193.679 766.678 191.5 L 766.678 191.5 L 766.678 191.5 Q 768.757 189.322 771.987 189.322 Z  M 779.099 205.999 L 779.099 205.999 L 779.099 205.999 Q 778.247 207.777 776.494 208.716 L 776.494 208.716 L 776.494 208.716 Q 774.741 209.655 772.137 209.655 L 772.137 209.655 L 772.137 209.655 Q 768.707 209.655 766.616 207.301 L 766.616 207.301 L 766.616 207.301 Q 764.525 204.947 764.349 200.941 L 764.349 200.941 L 764.349 200.74 L 783.756 200.74 L 783.756 199.088 L 783.756 199.088 Q 783.756 192.802 780.626 189.159 L 780.626 189.159 L 780.626 189.159 Q 777.496 185.516 772.037 185.516 L 772.037 185.516 L 772.037 185.516 Q 766.478 185.516 763.173 189.334 L 763.173 189.334 L 763.173 189.334 Q 759.867 193.153 759.867 199.513 L 759.867 199.513 L 759.867 199.513 Q 759.867 205.924 763.148 209.692 L 763.148 209.692 L 763.148 209.692 Q 766.428 213.461 772.037 213.461 L 772.037 213.461 L 772.037 213.461 Q 776.469 213.461 779.449 211.47 L 779.449 211.47 L 779.449 211.47 Q 782.429 209.48 783.406 205.999 L 783.406 205.999 L 783.406 205.999 Q 783.406 205.999 782.754 205.999 L 782.754 205.999 L 782.754 205.999 Q 782.103 205.999 781.252 205.999 L 781.252 205.999 L 781.252 205.999 Q 780.401 205.999 779.75 205.999 L 779.75 205.999 L 779.75 205.999 Q 779.099 205.999 779.099 205.999 Z " fill-rule="evenodd" fill="rgb(0,0,0)" />
        </g>
        <clipPath id="_clipPath_C4LVSSkWmY1MM2zNjkh7BaxH58oTbt62">
            <rect x="87" y="87" width="850" height="850" transform="matrix(1,0,0,1,0,0)" fill="rgb(255,255,255)" />
        </clipPath>
        <g clip-path="url(#_clipPath_C4LVSSkWmY1MM2zNjkh7BaxH58oTbt62)">
            <g id="scissors">
                <path d=" M 904.069 805.717 C 900.234 788.212 897.89 761.461 899.548 738.655 C 900.954 719.299 906.515 703.153 903.101 694.039 C 899.686 684.924 872.598 619.343 844.402 555.228 C 791.03 433.866 718.845 279.079 685.702 265.643 C 722.564 408.501 758.792 529.736 792.676 634.732 C 805.871 675.619 817.637 717.749 830.285 753.113 C 857.037 820.725 880.474 872.801 903.646 922.198 Q 910.242 939.771 903.719 939.918 C 897.195 940.065 872.856 953.314 859.528 966.681 C 846.201 980.047 819.986 1034.292 850.613 1076.537 C 881.24 1118.783 931.201 1136.288 977.024 1103.782 C 1022.848 1071.276 1041.045 1009.053 978.162 941.7 C 967.761 932.634 958.705 919.088 946.167 901.199 C 933.628 883.31 914.141 851.696 904.069 805.717 Z  M 944.614 969.462 C 912.011 960.019 877.937 978.606 868.571 1010.944 C 859.204 1043.281 878.069 1077.202 910.672 1086.645 C 943.275 1096.089 977.348 1077.501 986.715 1045.164 C 996.081 1012.826 977.217 978.905 944.614 969.462 Z " fill-rule="evenodd" fill="rgb(189,189,189)" />
                <path d=" M 917 796 C 901.253 787.447 876.209 777.753 853.843 773 C 834.86 768.966 817.805 769.815 810 764 C 802.195 758.185 746.739 713.92 693 669 C 591.278 583.971 462.685 471.572 459 436 C 585.962 511.151 692.332 579.678 783.756 641.435 C 819.358 665.484 856.551 688.507 887 710.494 C 944.5 755 988 792 1029 828 Q 1044.044 839.225 1046 833 C 1047.956 826.775 1067.454 807.082 1084 798 C 1100.546 788.918 1159.943 778.829 1192 820 C 1224.057 861.171 1226.971 914.029 1183 949 C 1139.029 983.971 1074.2 984.139 1027 905 C 1021.186 892.488 1010.694 880.02 997 863 C 983.306 845.98 958.361 818.466 917 796 Z  M 1063 880.5 C 1063 846.557 1090.333 819 1124 819 C 1157.667 819 1185 846.557 1185 880.5 C 1185 914.443 1157.667 942 1124 942 C 1090.333 942 1063 914.443 1063 880.5 Z " fill-rule="evenodd" fill="rgb(224,224,224)" />
                <path d=" M 842.189 728.655 C 842.189 723.136 846.67 718.655 852.189 718.655 C 857.708 718.655 862.189 723.136 862.189 728.655 C 862.189 734.174 857.708 738.655 852.189 738.655 C 846.67 738.655 842.189 734.174 842.189 728.655 Z " fill="rgb(33,33,33)" />
            </g>
        </g>
    </g>
</svg>