<?xml version="1.0" standalone="no"?>
<!-- Generator: Gravit.io -->
<svg xmlns="http://www.w3.org/2000/svg" xmlns:xlink="http://www.w3.org/1999/xlink" style="isolation:isolate" viewBox="0 0 1024 1024" width="1024" height="1024">
    <defs>
        <clipPath id="_clipPath_E4rUA5lANhqtqi5wDsr4ZkadH6SDNJed">
            <rect width="1024" height="1024" />
        </clipPath>
    </defs>
    <g clip-path="url(#_clipPath_E4rUA5lANhqtqi5wDsr4ZkadH6SDNJed)">
        <rect x="87" y="87" width="850" height="850" transform="matrix(1,0,0,1,0,0)" fill="rgb(96,125,139)" />
        <path d=" M 189.722 492 C 189.722 446.063 197.949 404.45 214.405 367.16 C 230.86 329.87 253.348 297.984 281.87 271.503 C 310.392 245.022 343.987 224.62 382.657 210.299 C 421.326 195.977 462.6 188.817 506.48 188.817 C 550.36 188.817 593.965 195.977 634.006 210.299 C 674.047 224.62 707.505 243.941 734.381 268.26 C 734.381 268.26 614.26 410.935 614.26 410.935 C 603.29 396.884 589.578 386.21 573.123 378.914 C 556.668 371.618 538.293 367.97 517.999 367.97 C 497.704 367.97 486.186 370.808 471.925 376.482 C 457.664 382.157 445.185 390.398 434.49 401.207 C 423.794 412.016 415.429 425.121 409.396 440.524 C 403.362 455.926 400.346 473.085 400.346 492 C 400.346 510.915 403.499 527.804 409.807 542.666 C 416.115 557.528 424.617 570.363 435.312 581.172 C 446.008 591.98 458.486 600.222 472.747 605.896 C 487.009 611.571 502.092 614.408 517.999 614.408 C 540.487 614.408 559.822 609.815 576.002 600.627 C 592.183 591.44 604.936 580.631 614.26 568.201 C 614.26 568.201 734.381 710.065 734.381 710.065 C 708.053 736.006 675.692 756.677 637.297 772.08 C 598.902 787.482 555.297 795.183 506.48 795.183 C 457.664 795.183 421.326 787.888 382.657 773.296 C 343.987 758.704 310.392 738.033 281.87 711.281 C 253.348 684.529 230.86 652.644 214.405 615.624 C 197.949 578.604 189.722 537.397 189.722 492 C 189.722 492 189.722 492 189.722 492 Z " fill-rule="evenodd" fill="rgb(183,28,28)" />
        <g id="Varrer">
            <path d=" M 636.75 594.599 L 510.104 751.647 Q 565.645 792.865 641.474 817.503 Q 717.303 842.141 800.225 845.914 L 768.25 637.599 L 636.75 594.599 Z " fill-rule="evenodd" fill="rgb(255,193,7)" />
            <clipPath id="_clipPath_41CTmiSiO9fkKZCOq4g3JIGP6lluHwJD">
                <path d=" M 636.75 594.599 L 510.104 751.647 Q 565.645 792.865 641.474 817.503 Q 717.303 842.141 800.225 845.914 L 768.25 637.599 L 636.75 594.599 Z " fill-rule="evenodd" fill="rgb(255,193,7)" />
            </clipPath>
            <g clip-path="url(#_clipPath_41CTmiSiO9fkKZCOq4g3JIGP6lluHwJD)">
                <path d=" M 701.876 833.967 L 733.372 751.647 L 720.339 837.225 L 701.876 833.967 Z " fill="rgb(230,81,0)" />
                <path d=" M 607.39 805.73 L 659.52 690.608 L 639.836 816.998 L 607.39 805.73 Z " fill="rgb(230,81,0)" />
                <path d=" M 550.915 778.714 L 607.39 699.297 L 587.434 796.906 L 550.915 778.714 Z " fill="rgb(230,81,0)" />
            </g>
            <path d=" M 762.741 504.079 L 783.433 510.802 C 797.115 515.248 804.66 529.98 800.272 543.68 L 769.212 640.65 L 634.49 597.735 L 666.207 500.12 C 670.653 486.438 685.369 478.939 699.051 483.385 L 716.511 489.058 L 792.443 255.364 C 796.703 242.252 810.782 235.058 823.862 239.308 C 836.943 243.558 844.056 257.638 839.736 270.73 L 762.741 504.079 Z " fill="rgb(57,73,171)" />
        </g>
    </g>
</svg>