<?xml version="1.0" standalone="no"?>
<!-- Generator: Gravit.io -->
<svg xmlns="http://www.w3.org/2000/svg" xmlns:xlink="http://www.w3.org/1999/xlink" style="isolation:isolate" viewBox="0 0 1024 1024" width="1024" height="1024">
    <defs>
        <clipPath id="_clipPath_h4xXyCXuM92WETOHLvocjKCsqV7REWHK">
            <rect width="1024" height="1024" />
        </clipPath>
    </defs>
    <g clip-path="url(#_clipPath_h4xXyCXuM92WETOHLvocjKCsqV7REWHK)">
        <rect x="87" y="87" width="850" height="850" transform="matrix(1,0,0,1,0,0)" fill="rgb(176,190,197)" />
        <g id="Statues">
            <g id="Soldier 1">
                <path d=" M 303.315 655.802 Q 312.443 636.632 317.84 617.942 Q 323.237 599.251 325.206 579.992 L 352.639 580.276 Q 353.755 598.113 359.231 617.942 Q 364.707 637.771 373.522 655.891 L 303.315 655.802 Z " fill-rule="evenodd" fill="rgb(236,239,241)" />
                <path d=" M 298.466 661.813 Q 302.186 658.516 301.174 668.637 C 300.162 678.758 295.538 686.021 295.757 688.916 Q 296.095 693.391 301.174 697.654 L 376.874 697.976 Q 382.101 698.012 382.101 688.83 C 382.101 679.648 376.547 671.716 375.814 668.637 Q 375.08 665.558 375.814 662.438 L 298.466 661.813 Z " fill-rule="evenodd" fill="rgb(120,144,156)" />
                <path d=" M 338.716 577.415 C 353.127 577.415 364.81 566.462 364.81 552.95 C 364.81 539.438 353.127 528.485 338.716 528.485 C 324.304 528.485 312.621 539.438 312.621 552.95 C 312.621 566.462 324.304 577.415 338.716 577.415 Z " fill-rule="evenodd" fill="rgb(236,239,241)" />
                <path d=" M 286.527 680.169 L 286.527 680.169 C 286.527 684.669 290.181 688.324 294.682 688.324 L 381.01 688.324 C 385.511 688.324 389.165 684.669 389.165 680.169 L 389.165 680.169 C 389.165 675.668 385.511 672.014 381.01 672.014 L 294.682 672.014 C 290.181 672.014 286.527 675.668 286.527 680.169 Z " fill-rule="evenodd" fill="rgb(236,239,241)" />
                <path d=" M 312.621 590.463 L 312.621 590.463 C 312.621 593.164 314.814 595.356 317.514 595.356 L 359.917 595.356 C 362.618 595.356 364.81 593.164 364.81 590.463 L 364.81 590.463 C 364.81 587.763 362.618 585.57 359.917 585.57 L 317.514 585.57 C 314.814 585.57 312.621 587.763 312.621 590.463 Z " fill-rule="evenodd" fill="rgb(120,144,156)" />
                <path d=" M 295.225 651.626 L 295.225 651.626 C 295.225 653.876 297.052 655.703 299.302 655.703 L 376.389 655.703 C 378.64 655.703 380.467 653.876 380.467 651.626 L 380.467 651.626 C 380.467 649.375 378.64 647.548 376.389 647.548 L 299.302 647.548 C 297.052 647.548 295.225 649.375 295.225 651.626 Z " fill-rule="evenodd" fill="rgb(120,144,156)" />
                <path d=" M 290.006 659.781 L 290.006 659.781 C 290.006 662.031 291.833 663.859 294.084 663.859 L 381.608 663.859 C 383.859 663.859 385.686 662.031 385.686 659.781 L 385.686 659.781 C 385.686 657.531 383.859 655.703 381.608 655.703 L 294.084 655.703 C 291.833 655.703 290.006 657.531 290.006 659.781 Z " fill-rule="evenodd" fill="rgb(236,239,241)" />
                <path d=" M 312.621 576.6 L 312.621 576.6 C 312.621 578.85 314.448 580.677 316.699 580.677 L 360.733 580.677 C 362.983 580.677 364.81 578.85 364.81 576.6 L 364.81 576.6 C 364.81 574.349 362.983 572.522 360.733 572.522 L 316.699 572.522 C 314.448 572.522 312.621 574.349 312.621 576.6 Z " fill-rule="evenodd" fill="rgb(120,144,156)" />
            </g>
            <g id="Soldier 2">
                <path d=" M 133.071 655.802 Q 142.199 636.632 147.596 617.942 Q 152.993 599.251 154.962 579.992 L 182.395 580.276 Q 183.511 598.113 188.987 617.942 Q 194.463 637.771 203.278 655.891 L 133.071 655.802 Z " fill-rule="evenodd" fill="rgb(236,239,241)" />
                <path d=" M 128.222 661.813 Q 131.942 658.516 130.93 668.637 C 129.918 678.758 125.294 686.021 125.513 688.916 Q 125.851 693.391 130.93 697.654 L 206.629 697.976 Q 211.857 698.012 211.857 688.83 C 211.857 679.648 206.303 671.716 205.569 668.637 Q 204.836 665.558 205.569 662.438 L 128.222 661.813 Z " fill-rule="evenodd" fill="rgb(120,144,156)" />
                <path d=" M 168.471 577.415 C 182.883 577.415 194.566 566.462 194.566 552.95 C 194.566 539.438 182.883 528.485 168.471 528.485 C 154.06 528.485 142.377 539.438 142.377 552.95 C 142.377 566.462 154.06 577.415 168.471 577.415 Z " fill-rule="evenodd" fill="rgb(236,239,241)" />
                <path d=" M 116.283 680.169 L 116.283 680.169 C 116.283 684.669 119.937 688.324 124.438 688.324 L 210.766 688.324 C 215.267 688.324 218.921 684.669 218.921 680.169 L 218.921 680.169 C 218.921 675.668 215.267 672.014 210.766 672.014 L 124.438 672.014 C 119.937 672.014 116.283 675.668 116.283 680.169 Z " fill-rule="evenodd" fill="rgb(236,239,241)" />
                <path d=" M 142.377 590.463 L 142.377 590.463 C 142.377 593.164 144.57 595.356 147.27 595.356 L 189.673 595.356 C 192.373 595.356 194.566 593.164 194.566 590.463 L 194.566 590.463 C 194.566 587.763 192.373 585.57 189.673 585.57 L 147.27 585.57 C 144.57 585.57 142.377 587.763 142.377 590.463 Z " fill-rule="evenodd" fill="rgb(120,144,156)" />
                <path d=" M 124.981 651.626 L 124.981 651.626 C 124.981 653.876 126.808 655.703 129.058 655.703 L 206.145 655.703 C 208.395 655.703 210.223 653.876 210.223 651.626 L 210.223 651.626 C 210.223 649.375 208.395 647.548 206.145 647.548 L 129.058 647.548 C 126.808 647.548 124.981 649.375 124.981 651.626 Z " fill-rule="evenodd" fill="rgb(120,144,156)" />
                <path d=" M 119.762 659.781 L 119.762 659.781 C 119.762 662.031 121.589 663.859 123.839 663.859 L 211.364 663.859 C 213.614 663.859 215.441 662.031 215.441 659.781 L 215.441 659.781 C 215.441 657.531 213.614 655.703 211.364 655.703 L 123.839 655.703 C 121.589 655.703 119.762 657.531 119.762 659.781 Z " fill-rule="evenodd" fill="rgb(236,239,241)" />
                <path d=" M 142.377 576.6 L 142.377 576.6 C 142.377 578.85 144.204 580.677 146.455 580.677 L 190.488 580.677 C 192.739 580.677 194.566 578.85 194.566 576.6 L 194.566 576.6 C 194.566 574.349 192.739 572.522 190.488 572.522 L 146.455 572.522 C 144.204 572.522 142.377 574.349 142.377 576.6 Z " fill-rule="evenodd" fill="rgb(120,144,156)" />
            </g>
            <g id="Soldier 3">
                <path d=" M 812.12 655.802 Q 821.248 636.632 826.645 617.942 Q 832.042 599.251 834.011 579.992 L 861.444 580.276 Q 862.56 598.113 868.036 617.942 Q 873.512 637.771 882.326 655.891 L 812.12 655.802 Z " fill-rule="evenodd" fill="rgb(236,239,241)" />
                <path d=" M 807.271 661.813 Q 810.991 658.516 809.979 668.637 C 808.967 678.758 804.343 686.021 804.561 688.916 Q 804.899 693.391 809.979 697.654 L 885.678 697.976 Q 890.906 698.012 890.906 688.83 C 890.906 679.648 885.352 671.716 884.618 668.637 Q 883.885 665.558 884.618 662.438 L 807.271 661.813 Z " fill-rule="evenodd" fill="rgb(120,144,156)" />
                <path d=" M 847.52 577.415 C 861.932 577.415 873.615 566.462 873.615 552.95 C 873.615 539.438 861.932 528.485 847.52 528.485 C 833.109 528.485 821.426 539.438 821.426 552.95 C 821.426 566.462 833.109 577.415 847.52 577.415 Z " fill-rule="evenodd" fill="rgb(236,239,241)" />
                <path d=" M 795.331 680.169 L 795.331 680.169 C 795.331 684.669 798.986 688.324 803.487 688.324 L 889.815 688.324 C 894.315 688.324 897.97 684.669 897.97 680.169 L 897.97 680.169 C 897.97 675.668 894.315 672.014 889.815 672.014 L 803.487 672.014 C 798.986 672.014 795.331 675.668 795.331 680.169 Z " fill-rule="evenodd" fill="rgb(236,239,241)" />
                <path d=" M 821.426 590.463 L 821.426 590.463 C 821.426 593.164 823.618 595.356 826.319 595.356 L 868.722 595.356 C 871.422 595.356 873.615 593.164 873.615 590.463 L 873.615 590.463 C 873.615 587.763 871.422 585.57 868.722 585.57 L 826.319 585.57 C 823.618 585.57 821.426 587.763 821.426 590.463 Z " fill-rule="evenodd" fill="rgb(120,144,156)" />
                <path d=" M 804.03 651.626 L 804.03 651.626 C 804.03 653.876 805.857 655.703 808.107 655.703 L 885.194 655.703 C 887.444 655.703 889.271 653.876 889.271 651.626 L 889.271 651.626 C 889.271 649.375 887.444 647.548 885.194 647.548 L 808.107 647.548 C 805.857 647.548 804.03 649.375 804.03 651.626 Z " fill-rule="evenodd" fill="rgb(120,144,156)" />
                <path d=" M 798.811 659.781 L 798.811 659.781 C 798.811 662.031 800.638 663.859 802.888 663.859 L 890.413 663.859 C 892.663 663.859 894.49 662.031 894.49 659.781 L 894.49 659.781 C 894.49 657.531 892.663 655.703 890.413 655.703 L 802.888 655.703 C 800.638 655.703 798.811 657.531 798.811 659.781 Z " fill-rule="evenodd" fill="rgb(236,239,241)" />
                <path d=" M 821.426 576.6 L 821.426 576.6 C 821.426 578.85 823.253 580.677 825.503 580.677 L 869.537 580.677 C 871.788 580.677 873.615 578.85 873.615 576.6 L 873.615 576.6 C 873.615 574.349 871.788 572.522 869.537 572.522 L 825.503 572.522 C 823.253 572.522 821.426 574.349 821.426 576.6 Z " fill-rule="evenodd" fill="rgb(120,144,156)" />
            </g>
            <g id="King">
                <path d=" M 448.08 688.353 L 448.08 688.353 C 448.08 693.754 452.465 698.139 457.866 698.139 L 568.766 698.139 C 574.167 698.139 578.552 693.754 578.552 688.353 L 578.552 688.353 C 578.552 682.952 574.167 678.567 568.766 678.567 L 457.866 678.567 C 452.465 678.567 448.08 682.952 448.08 688.353 Z " fill-rule="evenodd" fill="rgb(120,144,156)" />
                <path d=" M 434.163 674.489 L 434.163 674.489 C 434.163 681.241 439.644 686.722 446.395 686.722 L 578.497 686.722 C 585.248 686.722 590.729 681.241 590.729 674.489 L 590.729 674.489 C 590.729 667.738 585.248 662.257 578.497 662.257 L 446.395 662.257 C 439.644 662.257 434.163 667.738 434.163 674.489 Z " fill-rule="evenodd" fill="rgb(69,90,100)" />
                <path d=" M 446.34 649.209 Q 455.21 652.471 455.21 655.733 Q 455.21 658.995 446.34 662.257 L 578.552 662.257 Q 571.354 658.995 571.354 655.733 Q 571.354 652.471 578.552 649.209 L 446.34 649.209 Z " fill-rule="evenodd" fill="rgb(120,144,156)" />
                <path d=" M 439.382 642.685 L 439.382 642.685 C 439.382 646.285 442.305 649.209 445.906 649.209 L 578.986 649.209 C 582.587 649.209 585.51 646.285 585.51 642.685 L 585.51 642.685 C 585.51 639.084 582.587 636.161 578.986 636.161 L 445.906 636.161 C 442.305 636.161 439.382 639.084 439.382 642.685 Z " fill-rule="evenodd" fill="rgb(69,90,100)" />
                <path d=" M 461.18 623.514 Q 483.031 552.673 487.821 520.569 Q 492.611 488.466 487.821 444.966 L 539.589 445.127 Q 536.353 459.36 535.977 477.424 C 535.6 495.488 537.96 509.12 539.589 520.569 Q 544.353 554.064 564.884 623.802 L 461.18 623.514 Z " fill-rule="evenodd" fill="rgb(69,90,100)" />
                <path d=" M 448.08 629.637 L 448.08 629.637 C 448.08 633.237 451.003 636.161 454.604 636.161 L 572.028 636.161 C 575.628 636.161 578.552 633.237 578.552 629.637 L 578.552 629.637 C 578.552 626.036 575.628 623.112 572.028 623.112 L 454.604 623.112 C 451.003 623.112 448.08 626.036 448.08 629.637 Z " fill-rule="evenodd" fill="rgb(120,144,156)" />
                <path d=" M 474.174 508.126 L 474.174 508.126 C 474.174 511.277 476.732 513.835 479.883 513.835 L 545.009 513.835 C 548.16 513.835 550.718 511.277 550.718 508.126 L 550.718 508.126 C 550.718 504.976 548.16 502.418 545.009 502.418 L 479.883 502.418 C 476.732 502.418 474.174 504.976 474.174 508.126 Z " fill-rule="evenodd" fill="rgb(120,144,156)" />
                <path d=" M 474.174 490.185 L 474.174 490.185 C 474.174 493.336 476.732 495.894 479.883 495.894 L 545.009 495.894 C 548.16 495.894 550.718 493.336 550.718 490.185 L 550.718 490.185 C 550.718 487.035 548.16 484.477 545.009 484.477 L 479.883 484.477 C 476.732 484.477 474.174 487.035 474.174 490.185 Z " fill-rule="evenodd" fill="rgb(120,144,156)" />
                <path d=" M 478.343 437.941 L 466.821 390.648 L 560.442 390.629 L 547.746 439.924 L 478.343 437.941 Z " fill-rule="evenodd" fill="rgb(69,90,100)" />
                <path d=" M 467.216 441.255 L 467.216 441.255 C 467.216 444.406 469.774 446.964 472.924 446.964 L 553.707 446.964 C 556.858 446.964 559.416 444.406 559.416 441.255 L 559.416 441.255 C 559.416 438.105 556.858 435.547 553.707 435.547 L 472.924 435.547 C 469.774 435.547 467.216 438.105 467.216 441.255 Z " fill-rule="evenodd" fill="rgb(120,144,156)" />
                <path d=" M 466.898 391.164 L 477.997 379.607 L 549.017 379.624 L 560.649 390.976 L 466.898 391.164 Z " fill-rule="evenodd" fill="rgb(120,144,156)" />
                <path d=" M 510.706 384.985 C 526.079 384.985 538.54 373.302 538.54 358.889 C 538.54 344.477 526.079 332.793 510.706 332.793 C 495.334 332.793 482.872 344.477 482.872 358.889 C 482.872 373.302 495.334 384.985 510.706 384.985 Z " fill-rule="evenodd" fill="rgb(69,90,100)" />
            </g>
            <g id="Horse">
                <path d=" M 633.385 691.615 L 633.385 691.615 C 633.385 695.215 636.308 698.139 639.909 698.139 L 724.28 698.139 C 727.881 698.139 730.804 695.215 730.804 691.615 L 730.804 691.615 C 730.804 688.014 727.881 685.091 724.28 685.091 L 639.909 685.091 C 636.308 685.091 633.385 688.014 633.385 691.615 Z " fill-rule="evenodd" fill="rgb(120,144,156)" />
                <path d=" M 622.947 680.198 L 622.947 680.198 C 622.947 685.599 627.332 689.984 632.733 689.984 L 729.716 689.984 C 735.117 689.984 739.502 685.599 739.502 680.198 L 739.502 680.198 C 739.502 674.797 735.117 670.412 729.716 670.412 L 632.733 670.412 C 627.332 670.412 622.947 674.797 622.947 680.198 Z " fill-rule="evenodd" fill="rgb(236,239,241)" />
                <path d=" M 633.385 660.626 Q 637.105 663.828 637.105 665.519 Q 637.105 667.209 633.385 670.412 L 727.325 670.412 Q 724.037 667.138 724.037 665.519 Q 724.037 663.9 727.325 660.626 L 633.385 660.626 Z " fill-rule="evenodd" fill="rgb(120,144,156)" />
                <path d=" M 626.426 657.364 L 626.426 657.364 C 626.426 660.064 628.619 662.257 631.319 662.257 L 731.13 662.257 C 733.83 662.257 736.023 660.064 736.023 657.364 L 736.023 657.364 C 736.023 654.663 733.83 652.471 731.13 652.471 L 631.319 652.471 C 628.619 652.471 626.426 654.663 626.426 657.364 Z " fill-rule="evenodd" fill="rgb(236,239,241)" />
                <path d=" M 719.456 643.396 Q 733.992 572.05 729.09 547.812 C 726.877 536.873 723.93 521.721 716.508 511.161 Q 709.087 500.6 686.42 485.487 Q 700.13 495.906 708.88 511.161 C 710.511 514.005 717.038 524.598 719.456 538.037 C 721.873 551.477 720.577 570.973 719.456 579.329 Q 715.105 611.739 701.396 643.396 L 719.456 643.396 Z " fill-rule="evenodd" fill="rgb(120,144,156)" />
                <path d=" M 646.012 644.464 L 636.614 610.748 Q 660.124 593.659 666.242 578.929 C 668.499 573.496 674.013 561.732 674.923 552.255 Q 675.834 542.779 672.411 524.567 L 655.446 523.25 Q 656.982 530.344 652.434 532.99 C 647.886 535.635 642.634 540.393 634.506 538.033 Q 626.378 535.672 618.892 523.25 Q 642.485 486.41 646.012 482.664 Q 649.54 478.918 660.41 479.16 L 660.257 460.047 L 674.923 478.695 Q 690.316 483.884 702.666 498.219 C 715.015 512.555 718.889 526.724 720.439 535.872 C 723.019 551.106 722.592 574.91 718.113 596.519 Q 713.634 618.128 702.666 642.481 L 646.012 644.464 Z " fill-rule="evenodd" fill="rgb(236,239,241)" />
                <path d=" M 633.385 647.578 L 633.385 647.578 C 633.385 650.278 635.577 652.471 638.278 652.471 L 725.911 652.471 C 728.611 652.471 730.804 650.278 730.804 647.578 L 730.804 647.578 C 730.804 644.877 728.611 642.685 725.911 642.685 L 638.278 642.685 C 635.577 642.685 633.385 644.877 633.385 647.578 Z " fill-rule="evenodd" fill="rgb(120,144,156)" />
                <path d=" M 652.521 502.418 C 654.442 502.418 656 500.592 656 498.34 C 656 496.088 654.442 494.263 652.521 494.263 C 650.599 494.263 649.041 496.088 649.041 498.34 C 649.041 500.592 650.599 502.418 652.521 502.418 Z " fill-rule="evenodd" fill="rgb(120,144,156)" />
                <path d=" M 662.061 478.881 L 662.061 467.869 L 669.47 478.652 L 662.061 478.881 Z " fill-rule="evenodd" fill="rgb(120,144,156)" />
            </g>
        </g>
        <g id="Chess Desk">
            <rect x="87" y="697" width="170.109" height="120" transform="matrix(1,0,0,1,0,0)" fill="rgb(235,235,235)" />
            <rect x="427.218" y="697" width="170.109" height="120" transform="matrix(1,0,0,1,0,0)" fill="rgb(235,235,235)" />
            <rect x="767.435" y="697" width="170.109" height="120" transform="matrix(1,0,0,1,0,0)" fill="rgb(235,235,235)" />
            <rect x="257.109" y="697" width="170.109" height="120" transform="matrix(1,0,0,1,0,0)" fill="rgb(66,66,66)" />
            <rect x="597.326" y="697" width="170.109" height="120" transform="matrix(1,0,0,1,0,0)" fill="rgb(66,66,66)" />
            <rect x="87.718" y="817" width="170.109" height="120" transform="matrix(1,0,0,1,0,0)" fill="rgb(66,66,66)" />
            <rect x="427.935" y="817" width="170.109" height="120" transform="matrix(1,0,0,1,0,0)" fill="rgb(66,66,66)" />
            <rect x="768.153" y="817" width="170.109" height="120" transform="matrix(1,0,0,1,0,0)" fill="rgb(66,66,66)" />
            <rect x="257.827" y="817" width="170.109" height="120" transform="matrix(1,0,0,1,0,0)" fill="rgb(235,235,235)" />
            <rect x="598.044" y="817" width="170.109" height="120" transform="matrix(1,0,0,1,0,0)" fill="rgb(235,235,235)" />
        </g>
    </g>
</svg>