<?xml version="1.0" standalone="no"?>
<!-- Generator: Gravit.io -->
<svg xmlns="http://www.w3.org/2000/svg" xmlns:xlink="http://www.w3.org/1999/xlink" style="isolation:isolate" viewBox="0 0 1024 1024" width="1024" height="1024">
    <defs>
        <clipPath id="_clipPath_qyhwo3YlrFxOEiy1D3HNducUrUezoqOQ">
            <rect width="1024" height="1024" />
        </clipPath>
    </defs>
    <g clip-path="url(#_clipPath_qyhwo3YlrFxOEiy1D3HNducUrUezoqOQ)">
        <rect x="87" y="87" width="850" height="850" transform="matrix(1,0,0,1,0,0)" fill="rgb(144,202,249)" />
        <g id="suitcase">
            <path d=" M 182 359.812 L 182 757.475 C 182 787.568 206.432 812 236.525 812 L 787.475 812 C 817.568 812 842 787.568 842 757.475 L 842 359.812 L 182 359.812 Z " fill-rule="evenodd" fill="rgb(243,243,243)" />
            <path d=" M 182 749.812 L 182 757.475 C 182 787.568 206.432 812 236.525 812 L 787.475 812 C 817.568 812 842 787.568 842 757.475 L 842 749.812 C 601.384 752.766 381.394 752.776 182 749.812 Z " fill-rule="evenodd" fill="rgb(30,136,229)" />
            <path d=" M 182 359.812 L 182 414.496 L 842 414.496 L 842 359.812 L 182 359.812 Z " fill-rule="evenodd" fill="rgb(30,136,229)" />
            <path d=" M 332 390 L 332 280 C 332 252.404 354.404 230 382 230 L 642 230 C 669.596 230 692 252.404 692 280 L 692 385.949 M 372 390 L 372 280 C 372 277.3 373.1 274.8 374.9 272.9 C 376.8 271.1 379.3 270 382 270 L 642 270 C 644.7 270 647.2 271.1 649.1 272.9 C 650.9 274.8 652 277.3 652 280 L 652 385.9" fill-rule="evenodd" fill="rgb(30,136,229)" />
        </g>
        <g id="Google Chrome">
            <clipPath id="_clipPath_yw8w2ON3o5rghJdfeFKMqTFrbhFhZBUa">
                <path d="M 512 463 L 512 463 C 577.162 463 630.064 515.903 630.064 581.065 L 630.064 581.065 C 630.064 646.226 577.162 699.129 512 699.129 L 512 699.129 C 446.838 699.129 393.936 646.226 393.936 581.065 L 393.936 581.065 C 393.936 515.903 446.838 463 512 463 Z" style="stroke:black;fill:white;stroke-miterlimit:10;" />
            </clipPath>
            <g clip-path="url(#_clipPath_yw8w2ON3o5rghJdfeFKMqTFrbhFhZBUa)">
                <path d=" M 478.856 702.505 L 514.386 642.666 Q 469.566 542.764 415.922 451.361 L 393.961 451.223 L 393.961 702.926 L 478.856 702.505 Z " fill="rgb(67,160,71)" />
                <path d=" M 461.718 561.257 L 418.211 458.379 L 630.284 457.958 L 630.284 561.08 L 461.718 561.257 Z " fill="rgb(229,57,53)" />
                <path d=" M 476.75 702.505 L 558.548 544.91 L 629.989 544.665 L 629.989 702.505 L 476.75 702.505 Z " fill="rgb(253,216,53)" />
                <path d=" M 449.533 580.759 C 449.533 546.385 477.457 518.477 511.851 518.477 C 546.245 518.477 574.169 546.385 574.169 580.759 C 574.169 615.134 546.245 643.042 511.851 643.042 C 477.457 643.042 449.533 615.134 449.533 580.759 Z " fill="rgb(238,238,238)" />
                <path d=" M 475.049 580.759 C 475.049 560.46 491.539 543.979 511.851 543.979 C 532.162 543.979 548.653 560.46 548.653 580.759 C 548.653 601.06 532.162 617.541 511.851 617.541 C 491.539 617.541 475.049 601.06 475.049 580.759 Z " fill="rgb(30,136,229)" />
            </g>
        </g>
    </g>
</svg>