<?xml version="1.0" standalone="no"?>
<!-- Generator: Gravit.io -->
<svg xmlns="http://www.w3.org/2000/svg" xmlns:xlink="http://www.w3.org/1999/xlink" style="isolation:isolate" viewBox="0 0 1024 1024" width="1024" height="1024">
    <defs>
        <clipPath id="_clipPath_55rZy2fMiQP7MpXE7tlIWjoeZWzsCyi2">
            <rect width="1024" height="1024" />
        </clipPath>
    </defs>
    <g clip-path="url(#_clipPath_55rZy2fMiQP7MpXE7tlIWjoeZWzsCyi2)">
        <rect x="87" y="87" width="850" height="850" transform="matrix(1,0,0,1,0,0)" fill="rgb(144,164,174)" />
        <rect x="87" y="762" width="850" height="175" transform="matrix(1,0,0,1,0,0)" fill="rgb(55,71,79)" />
        <g id="apps box">
            <path d=" M 374.944 329.522 L 374.944 362.78 L 649.046 363.115 L 649.046 329.522 C 649.046 316.197 638.401 305.38 625.288 305.38 L 398.702 305.38 C 385.59 305.38 374.944 316.197 374.944 329.522 Z  M 347 319.225 L 347 363.115 L 347 377 L 677 377 L 677 363.115 L 677 319.225 C 677 308.071 672.581 297.279 664.812 289.385 C 656.972 281.49 646.423 277 635.376 277 L 388.624 277 C 377.577 277 366.957 281.49 359.188 289.385 C 351.419 297.279 347 308.071 347 319.225 Z " fill-rule="evenodd" fill="rgb(66,66,66)" />
            <path d=" M 198.284 378.229 L 198.284 708.172 L 818.284 708.172 L 818.284 378.229 C 818.284 361.64 804.816 348.172 788.228 348.172 L 228.341 348.172 C 211.752 348.172 198.284 361.64 198.284 378.229 Z " fill-rule="evenodd" fill="rgb(211,47,47)" />
            <path d=" M 247 562.213 L 247 566.787 C 247 572.424 251.576 577 257.213 577 L 766.787 577 C 772.424 577 777 572.424 777 566.787 L 777 562.213 C 777 556.576 772.424 552 766.787 552 L 257.213 552 C 251.576 552 247 556.576 247 562.213 Z " fill-rule="evenodd" fill="rgb(33,33,33)" />
            <path d=" M 247 614.633 L 247 619.206 C 247 624.843 251.576 629.419 257.213 629.419 L 766.787 629.419 C 772.424 629.419 777 624.843 777 619.206 L 777 614.633 C 777 608.996 772.424 604.419 766.787 604.419 L 257.213 604.419 C 251.576 604.419 247 608.996 247 614.633 Z " fill-rule="evenodd" fill="rgb(33,33,33)" />
            <path d=" M 247 667.052 L 247 671.625 C 247 677.262 251.576 681.839 257.213 681.839 L 766.787 681.839 C 772.424 681.839 777 677.262 777 671.625 L 777 667.052 C 777 661.415 772.424 656.839 766.787 656.839 L 257.213 656.839 C 251.576 656.839 247 661.415 247 667.052 Z " fill-rule="evenodd" fill="rgb(33,33,33)" />
            <path d=" M 198.284 703.884 L 198.284 762 L 819.702 762 L 819.702 703.884 L 198.284 703.884 Z " fill-rule="evenodd" fill="rgb(183,28,28)" />
            <path d=" M 198.284 474.373 L 198.284 484.373 L 818.284 484.373 L 818.284 474.373 L 198.284 474.373 Z " fill-rule="evenodd" fill="rgb(66,66,66)" />
            <path d=" M 182 439.373 L 182 474.373 L 842 474.373 L 842 439.373 L 182 439.373 Z " fill-rule="evenodd" fill="rgb(117,117,117)" />
            <rect x="478.5" y="427.5" width="67" height="81" transform="matrix(1,0,0,1,0,0)" fill="rgb(158,158,158)" />
            <path d=" M 480.058 437.211 L 480.058 498.809 C 480.058 503.048 483.499 506.489 487.737 506.489 L 536.258 506.489 C 540.496 506.489 543.937 503.048 543.937 498.809 L 543.937 437.211 C 543.937 432.972 540.496 429.53 536.258 429.53 L 487.737 429.53 C 483.499 429.53 480.058 432.972 480.058 437.211 Z  M 468.538 437.201 L 468.538 498.799 C 468.538 503.868 470.535 508.783 474.144 512.393 C 477.753 516.003 482.667 518 487.735 518 L 536.265 518 C 541.333 518 546.247 516.003 549.856 512.393 C 553.465 508.783 555.462 503.868 555.462 498.799 L 555.462 437.201 C 555.462 432.132 553.465 427.217 549.856 423.607 C 546.247 419.997 541.333 418 536.265 418 L 487.735 418 C 482.667 418 477.753 419.997 474.144 423.607 C 470.535 427.217 468.538 432.132 468.538 437.201 Z " fill-rule="evenodd" fill="rgb(80,80,80)" />
        </g>
    </g>
</svg>