<?xml version="1.0" standalone="no"?>
<!-- Generator: Gravit.io -->
<svg xmlns="http://www.w3.org/2000/svg" xmlns:xlink="http://www.w3.org/1999/xlink" style="isolation:isolate" viewBox="0 0 1024 1024" width="1024" height="1024">
    <defs>
        <clipPath id="_clipPath_u3j47auXFu0xS7faxRPmxGTqWmFZGrD6">
            <rect width="1024" height="1024" />
        </clipPath>
    </defs>
    <g clip-path="url(#_clipPath_u3j47auXFu0xS7faxRPmxGTqWmFZGrD6)">
        <rect x="87" y="87" width="850" height="850" transform="matrix(1,0,0,1,0,0)" fill="rgb(120,144,156)" />
        <mask id="_mask_zuXiht1cIsCeH2SsHjijmPWNyhvZVahm">
            <path d=" M 157.676 234.696 L 157.676 789.304 C 157.676 835.311 195.028 872.662 241.034 872.662 L 795.642 872.662 C 841.649 872.662 879 835.311 879 789.304 L 879 234.696 C 879 188.689 841.649 151.338 795.642 151.338 L 241.034 151.338 C 195.028 151.338 157.676 188.689 157.676 234.696 Z " fill-rule="evenodd" fill="white" stroke="none" />
        </mask>
        <path d=" M 157.676 234.696 L 157.676 789.304 C 157.676 835.311 195.028 872.662 241.034 872.662 L 795.642 872.662 C 841.649 872.662 879 835.311 879 789.304 L 879 234.696 C 879 188.689 841.649 151.338 795.642 151.338 L 241.034 151.338 C 195.028 151.338 157.676 188.689 157.676 234.696 Z " fill-rule="evenodd" fill="none" mask="url(#_mask_zuXiht1cIsCeH2SsHjijmPWNyhvZVahm)" vector-effect="non-scaling-stroke" stroke-width="46.803" stroke-dasharray="50,50,50,50" stroke="rgb(255,255,255)" stroke-linejoin="miter" stroke-linecap="butt" stroke-miterlimit="10" />
        <g id="window">
            <path d=" M 116.431 277.12 L 116.431 746.88 C 116.431 752.399 120.912 756.88 126.431 756.88 L 733.307 756.88 C 738.826 756.88 743.307 752.399 743.307 746.88 L 743.307 277.12 C 743.307 271.601 738.826 267.12 733.307 267.12 L 126.431 267.12 C 120.912 267.12 116.431 271.601 116.431 277.12 Z " fill-rule="evenodd" fill="rgb(224,224,224)" />
            <path d=" M 116.431 276.71 L 116.431 318.753 L 743.307 318.753 L 743.307 276.71 C 743.307 271.191 738.826 266.71 733.307 266.71 L 126.431 266.71 C 120.912 266.71 116.431 271.191 116.431 276.71 Z " fill-rule="evenodd" fill="rgb(189,189,189)" />
            <g id="windows buttons">
                <path d=" M 149.76 308.731 C 158.596 308.731 165.76 301.568 165.76 292.731 C 165.76 283.895 158.596 276.731 149.76 276.731 C 140.923 276.731 133.76 283.895 133.76 292.731 C 133.76 301.568 140.923 308.731 149.76 308.731 Z " fill-rule="evenodd" fill="rgb(244,67,54)" />
                <path d=" M 201.746 308.731 C 210.583 308.731 217.746 301.568 217.746 292.731 C 217.746 283.895 210.583 276.731 201.746 276.731 C 192.909 276.731 185.746 283.895 185.746 292.731 C 185.746 301.568 192.909 308.731 201.746 308.731 Z " fill-rule="evenodd" fill="rgb(253,216,53)" />
                <path d=" M 255.465 308.731 C 264.302 308.731 271.465 301.568 271.465 292.731 C 271.465 283.895 264.302 276.731 255.465 276.731 C 246.629 276.731 239.465 283.895 239.465 292.731 C 239.465 301.568 246.629 308.731 255.465 308.731 Z " fill-rule="evenodd" fill="rgb(76,175,80)" />
            </g>
        </g>
        <g id="arrow">
            <path d=" M 602.214 476.028 L 740.044 672.261 L 793.841 635.8 L 653.57 440.01 L 749.21 430.414 L 483.76 257.821 L 563.24 563.737 L 602.214 476.028 Z " fill="rgb(74,74,74)" />
            <path d=" M 601.762 465.236 L 743.662 664.424 L 787.981 632.651 L 646.536 436.429 L 734.558 426.883 L 492.678 269.616 L 565.1 548.368 L 601.762 465.236 Z  M 603.876 486.879 L 741.184 679.7 L 803.312 635.151 L 666.458 445.295 L 766.287 434.424 L 475 245 L 562.21 580.738 L 603.876 486.879 Z " fill-rule="evenodd" fill="rgb(255,255,255)" />
        </g>
    </g>
</svg>