<?xml version="1.0" standalone="no"?>
<!-- Generator: Gravit.io -->
<svg xmlns="http://www.w3.org/2000/svg" xmlns:xlink="http://www.w3.org/1999/xlink" style="isolation:isolate" viewBox="0 0 1024 1024" width="1024" height="1024">
    <defs>
        <clipPath id="_clipPath_70KeK6kUB4z5A98HWQgu8rNcjybMo0ib">
            <rect width="1024" height="1024" />
        </clipPath>
    </defs>
    <g clip-path="url(#_clipPath_70KeK6kUB4z5A98HWQgu8rNcjybMo0ib)">
        <rect x="87" y="87" width="850" height="850" transform="matrix(1,0,0,1,0,0)" fill="rgb(120,144,156)" />
        <clipPath id="_clipPath_zrhUpVP3zjFbBWBLpR8uKvoeMHTv3Gn8">
            <rect x="87" y="87" width="850" height="850" transform="matrix(1,0,0,1,0,0)" fill="rgb(120,144,156)" />
        </clipPath>
        <g clip-path="url(#_clipPath_zrhUpVP3zjFbBWBLpR8uKvoeMHTv3Gn8)">
            <g id="Coruscant">
                <path d=" M 102.858 49.644 L 102.858 314.337 L 107.473 314.337 L 107.473 49.644 L 121 49.644 C 121.286 126.782 121.241 194 121 247.999 L 119 247.999 L 119 49.644 L 140.629 49.644 L 140.629 265.663 L 138 265.663 L 138 49.644 L 144.99 49.793 L 144.99 252 L 147 252 L 147 49.644 L 154.726 50 L 154.726 156.5 L 154.726 334.865 L 160.018 339.003 L 160.018 369.786 L 162.945 375.565 L 162.945 404.075 L 206.786 470.991 L 221.403 470.991 L 230.113 477.414 L 230.113 515.213 L 233.751 515.213 L 233.751 492.166 L 236.708 481.66 L 243.164 481.66 L 246.202 485.239 L 246.202 492.166 L 249.296 515.213 L 251.522 520.142 L 251.522 558.388 L 251.522 660.26 L 397.671 660.26 L 397.671 586.162 L 411.273 586.162 L 414.716 581.547 L 422.04 589.574 L 422.04 564.315 L 425.198 562.606 L 425.198 558.388 L 431.492 558.388 L 431.492 562.606 L 436.256 567.121 L 436.256 589.574 L 436.256 593.504 L 442.123 599.388 L 442.123 572.535 L 450.823 572.535 L 450.823 558.388 L 455.548 555.452 L 455.548 545.645 L 462.718 545.645 L 462.718 539.31 L 465.098 532.213 L 465.098 506.548 L 469.106 503.065 L 468.624 463.225 L 472.126 460.771 L 472.126 434.03 L 473.638 430.907 L 473.638 415.842 L 473.638 389.415 L 479 381.547 L 479 359.782 L 497.837 359.782 L 497.837 381.547 L 503.42 389.415 L 503.42 413.486 L 505.841 417.306 L 505.841 432.143 L 508.809 434.295 L 508.809 460.771 L 512.939 463.225 L 512.939 503.065 L 515.14 506.548 L 515.14 532.213 L 518.03 539.31 L 518.03 545.645 L 524.505 545.645 L 524.505 555.452 L 529.044 560.775 L 529.044 572.535 L 536.656 572.535 L 536.656 596.39 L 542.323 596.39 L 547.163 588.161 L 547.163 562.606 L 549 558.388 L 555.295 558.388 L 557.946 562.606 L 557.946 586.162 L 561.779 586.162 L 561.779 599.388 L 565.596 599.388 L 565.596 612.92 L 575.556 612.92 L 580.611 619.58 L 580.611 636.633 L 597.071 636.633 L 597.071 614.468 L 600.206 623.395 L 607.9 623.395 L 607.9 610.4 L 611.2 608.394 L 611.2 599.388 L 617.891 599.388 L 617.891 567.121 L 620.089 560.775 L 623.468 555.452 L 623.468 541.303 L 624.964 529.7 L 628.827 529.7 L 628.827 541.303 L 632.338 545.645 L 632.338 558.388 L 633.756 584.648 L 637.354 589.574 L 637.354 599.388 L 639.59 608.394 L 643.862 608.394 L 643.862 619.58 L 658.953 619.58 L 658.953 634.706 L 696.723 634.706 L 696.723 584.648 L 701.317 586.162 L 701.317 562.606 L 714.309 560.775 L 714.309 553.377 L 717.11 473.327 L 720.812 463.225 L 720.812 453.057 L 723.246 473.327 L 726.193 497.491 L 728.466 499.47 L 728.466 522.139 L 732.645 524.854 L 732.645 629.564 L 736.055 632.46 L 736.055 728.474 L 755.883 728.474 L 755.883 576.69 L 757.615 572.535 L 757.615 555.452 L 763.375 545.645 L 761.28 522.139 Q 763.359 521.15 763.375 520.142 Q 763.392 519.135 763.375 394.729 L 766.052 365.872 L 768.986 394.729 L 771.034 520.142 L 773.297 522.139 L 773.297 545.645 L 780.698 555.452 L 780.698 572.535 L 783.68 576.69 L 783.68 685.244 L 841.857 685.244 L 841.857 569.858 L 847.133 560.775 L 847.133 572.535 L 851.45 572.535 L 851.45 529.7 L 867.016 529.7 L 867.016 492.166 L 870.147 487.705 L 870.147 475.982 L 871.625 473.327 L 871.625 453.057 L 875.386 450.589 L 875.386 387.737 L 880.568 378.556 L 880.568 404.075 L 891.688 404.075 L 891.688 417.306 L 893.86 421.919 L 893.86 441.109 L 896.169 443.84 L 896.169 475.982 L 902.308 481.66 L 902.308 522.139 L 907.917 487.705 L 921.83 487.705 L 927.379 522.139 L 927.379 545.645 L 941.882 596.39 L 941.882 669.642 L 941.882 728.474 L 1012.636 728.474 L 1012.636 664.094 L 1014.287 649.795 L 1016.711 506.548 L 1020.03 504.617 L 1020.03 469.457 L 1022.89 504.617 L 1027.196 506.548 L 1027.196 708.594 L 1034.319 708.594 L 1034.319 682.388 L 1043.766 665.804 L 1048.971 665.804 L 1048.971 575.02 L 1054.602 569.858 L 1054.602 447.268 L 1070.266 447.268 L 1074.5 424.052 L 1074.5 359.782 L 1084.904 334.865 L 1084.904 301.994 L 1091.684 301.994 L 1091.684 334.865 L 1100.738 350.21 L 1100.738 434.03 L 1104.066 434.03 L 1104.066 421.919 L 1112.883 428.361 L 1112.883 529.7 L 1123.828 529.7 L 1130.196 547.926 L 1130.196 664.094 L 1162.116 664.094 L 1162.116 510.729 L 1165.466 504.617 L 1165.466 413.486 L 1172.802 406.043 L 1179.034 415.842 L 1179.034 508.063 L 1181.493 510.729 L 1181.493 623.395 L 1181.493 762.639 L 357.194 762.639 L 85.041 762.639 L 85.041 318.059 L 85.041 49.644 L 102.858 49.644 Z " fill-rule="evenodd" fill="rgb(69,90,100)" />
                <path d=" M 98.389 340.295 Q 115.41 352.719 117.691 370.609 C 124.235 421.943 115.795 487.229 117.673 516.745 C 118.053 522.722 122.538 520.893 122.578 528.273 Q 122.809 571.155 123.092 728.496 L 131.691 728.211 L 132.13 604.006 Q 142.642 608.892 149.554 620.499 Q 156.466 632.107 157.402 646.447 L 151.607 646.064 L 151.266 664.347 L 160.415 664.347 Q 160.415 537.96 160.415 455.305 Q 160.415 372.651 181.847 364.371 L 182.39 374.878 L 191.417 374.878 L 191.417 364.371 Q 210.81 374.878 210.81 452.533 Q 210.81 530.188 210.039 653.65 L 243.686 687.247 Q 243.237 566.524 243.686 557.073 Q 244.134 547.621 252.5 545.645 L 252.5 552.67 Q 261.636 553.223 261.885 560.566 Q 262.134 567.908 261.912 591.521 L 269.182 588.161 L 269.182 528.273 L 270.805 526.181 L 271.259 429.321 L 274.287 453.19 L 276.073 455.305 L 276.073 572.85 Q 280.444 579.61 281.483 583.632 Q 282.521 587.655 281.158 592.541 L 286.328 593.504 L 286.328 607.849 L 289.966 612.305 L 289.966 570.74 L 294.019 568.08 L 294.019 508.205 Q 294.772 494.102 300.261 494.301 Q 305.75 494.5 306.931 508.205 L 306.931 641.153 L 314 653.65 L 314 526.181 L 319.72 521.569 L 319.854 461.212 L 324.696 457.741 L 324.696 429.321 L 340.32 429.321 L 340.32 385.616 L 343.953 385.616 L 343.75 370.564 L 349.184 368.024 L 348.76 275.698 Q 351.651 266.857 356.747 266.857 Q 361.842 266.857 367.238 275.698 L 367.238 285.306 L 370.007 287.711 L 370.007 324.545 L 371.748 327.063 L 371.748 364.371 L 377.199 364.371 L 377.199 378.027 L 386.01 385.616 L 386.01 432.143 L 395.333 432.143 L 395.333 455.305 L 398.733 461.212 L 398.733 512.892 L 407.323 530.776 L 407.323 675.974 L 437.745 675.974 L 446.441 685.241 L 451.174 685.241 L 451.174 598.068 L 459.609 598.068 L 459.609 685.241 L 468.624 685.241 L 469.106 635.01 L 472.757 641.153 L 472.757 672.177 L 479 685.241 L 491.936 685.244 L 491.936 725.922 L 496.007 725.922 L 496.246 706.886 L 500.87 702.934 L 532.657 702.738 L 536.474 696.435 L 570.528 696.435 Q 608.059 684.393 629.086 680.892 Q 650.113 677.392 663.497 680.958 L 663.939 674.33 L 671.284 673.778 L 671.592 653.749 Q 672.849 646.365 676.862 646.447 Q 680.876 646.528 682.207 654.038 L 682.121 671.439 L 689.367 671.439 L 689.454 657.544 Q 690.173 648.223 694.595 648.231 Q 699.017 648.239 700.235 657.924 L 700.572 694.327 Q 711.675 696.448 722.5 703.285 Q 733.325 710.121 740.604 719.61 L 759.759 717.99 Q 760.753 709.762 764.743 707.318 Q 768.732 704.874 780.918 705.026 L 780.646 670.681 L 811.713 670.897 Q 812.767 642.044 814.808 631.059 C 815.822 625.6 818.36 612.315 823.856 602.253 C 829.352 592.191 837.941 585.139 839.2 585.139 C 840.459 585.139 847.324 589.522 853.993 602.262 Q 857.797 609.529 865.047 632.267 L 865.429 670.837 L 869.043 662.186 L 880.811 662.186 L 880.659 670.77 L 937.497 669.966 L 937.497 654.945 L 988.785 654.945 L 988.785 693.076 L 992.796 693.076 L 992.796 707.318 L 1012.435 707.318 L 1012.435 686.334 L 1049.457 686.334 Q 1057.049 686.605 1063.27 686.724 Q 1069.49 686.843 1072.346 694.933 Q 1072.414 697.812 1071.891 698.547 Q 1071.368 699.282 1068.746 699.993 L 1068.746 711.079 L 1078.765 711.079 L 1080.879 720.66 L 1084.585 688.709 L 1089 689 L 1089.24 658.869 L 1143 652 L 1143 544 L 1147.473 541.208 L 1148.366 517.814 L 1151.569 543.494 L 1153.958 547.201 L 1154 591.521 L 1158 591.521 L 1157 646.064 L 1164 646.064 L 1185 606 Q 1184.886 493.597 1184.886 472.225 Q 1184.886 450.852 1203.508 434.227 L 1203.093 441.768 L 1209.896 441.768 L 1209.896 434.227 Q 1220.835 447.686 1223.511 455.208 C 1226.186 462.729 1226.392 466.28 1226.392 472.225 Q 1226.392 493.563 1226.16 595.488 L 1239.652 595.488 L 1251.621 610.504 Q 1258.488 598.542 1262.873 592.922 Q 1267.257 587.301 1272.583 583.632 L 1271.442 515.17 L 1260.867 504.312 L 1260.867 493.087 L 1266.688 492.263 L 1266.688 486.821 L 1272.579 487.399 L 1272.583 476.726 L 1278.515 476.726 L 1278.454 470.037 L 1271.442 469.906 L 1272.579 455.305 L 1262.873 455.305 L 1262.873 406.814 L 1341.081 346.238 L 1336 941 L 82.919 941 L 82.919 340.295 L 98.389 340.295 Z " fill-rule="evenodd" fill="rgb(38,50,56)" />
            </g>
        </g>
        <mask id="_mask_dM8r9oIUbiBfR8h8JJaDvf6XQaymrxZZ">
            <path d=" M 152 201.667 L 152 201.667 L 152 788.795 C 152 834.717 189.283 872 235.205 872 L 788.795 872 C 834.717 872 872 834.717 872 788.795 L 872 235.205 C 872 189.283 834.717 152 788.795 152 L 235.205 152 C 189.283 152 152 174.255 152 201.667 Z " fill-rule="evenodd" fill="white" stroke="none" />
        </mask>
        <path d=" M 152 201.667 L 152 201.667 L 152 788.795 C 152 834.717 189.283 872 235.205 872 L 788.795 872 C 834.717 872 872 834.717 872 788.795 L 872 235.205 C 872 189.283 834.717 152 788.795 152 L 235.205 152 C 189.283 152 152 174.255 152 201.667 Z " fill-rule="evenodd" fill="none" mask="url(#_mask_dM8r9oIUbiBfR8h8JJaDvf6XQaymrxZZ)" vector-effect="non-scaling-stroke" stroke-width="50" stroke-dasharray="50,50,50,50" stroke="rgb(255,255,255)" stroke-linejoin="miter" stroke-linecap="butt" stroke-miterlimit="10" />
        <g id="window">
            <path d=" M 116.431 277.12 L 116.431 746.88 C 116.431 752.399 120.912 756.88 126.431 756.88 L 733.307 756.88 C 738.826 756.88 743.307 752.399 743.307 746.88 L 743.307 277.12 C 743.307 271.601 738.826 267.12 733.307 267.12 L 126.431 267.12 C 120.912 267.12 116.431 271.601 116.431 277.12 Z " fill-rule="evenodd" fill="rgb(224,224,224)" fill-opacity="0.75" />
            <path d=" M 116.431 276.71 L 116.431 318.753 L 743.307 318.753 L 743.307 276.71 C 743.307 271.191 738.826 266.71 733.307 266.71 L 126.431 266.71 C 120.912 266.71 116.431 271.191 116.431 276.71 Z " fill-rule="evenodd" fill="rgb(189,189,189)" />
            <g id="windows buttons">
                <path d=" M 149.76 308.731 C 158.596 308.731 165.76 301.568 165.76 292.731 C 165.76 283.895 158.596 276.731 149.76 276.731 C 140.923 276.731 133.76 283.895 133.76 292.731 C 133.76 301.568 140.923 308.731 149.76 308.731 Z " fill-rule="evenodd" fill="rgb(244,67,54)" />
                <path d=" M 201.746 308.731 C 210.583 308.731 217.746 301.568 217.746 292.731 C 217.746 283.895 210.583 276.731 201.746 276.731 C 192.909 276.731 185.746 283.895 185.746 292.731 C 185.746 301.568 192.909 308.731 201.746 308.731 Z " fill-rule="evenodd" fill="rgb(253,216,53)" />
                <path d=" M 255.465 308.731 C 264.302 308.731 271.465 301.568 271.465 292.731 C 271.465 283.895 264.302 276.731 255.465 276.731 C 246.629 276.731 239.465 283.895 239.465 292.731 C 239.465 301.568 246.629 308.731 255.465 308.731 Z " fill-rule="evenodd" fill="rgb(76,175,80)" />
            </g>
        </g>
        <g id="arrow">
            <path d=" M 602.214 476.028 L 740.044 672.261 L 793.841 635.8 L 653.57 440.01 L 749.21 430.414 L 483.76 257.821 L 563.24 563.737 L 602.214 476.028 Z " fill="rgb(74,74,74)" />
            <path d=" M 601.762 465.236 L 743.662 664.424 L 787.981 632.651 L 646.536 436.429 L 734.558 426.883 L 492.678 269.616 L 565.1 548.368 L 601.762 465.236 Z  M 603.876 486.879 L 741.184 679.7 L 803.312 635.151 L 666.458 445.295 L 766.287 434.424 L 475 245 L 562.21 580.738 L 603.876 486.879 Z " fill-rule="evenodd" fill="rgb(255,255,255)" />
        </g>
    </g>
</svg>