<?xml version="1.0" standalone="no"?>
<!-- Generator: Gravit.io -->
<svg xmlns="http://www.w3.org/2000/svg" xmlns:xlink="http://www.w3.org/1999/xlink" style="isolation:isolate" viewBox="0 0 1024 1024" width="1024" height="1024">
    <defs>
        <clipPath id="_clipPath_sgl7MpMeOgo9xMkZwG5ZUQRSfkGAaMww">
            <rect width="1024" height="1024" />
        </clipPath>
    </defs>
    <g clip-path="url(#_clipPath_sgl7MpMeOgo9xMkZwG5ZUQRSfkGAaMww)">
        <path d=" M 177.272 177.272 L 177.272 848.728 L 847.728 848.728 L 847.728 177.272 L 177.272 177.272 Z  M 87 87 L 87 937 L 937 937 L 937 87 L 87 87 Z " fill-rule="evenodd" fill="rgb(224,224,224)" />
        <path d=" M 170 170 L 854 170 L 854 854 L 170 854 L 170 170 Z  M 221.074 221.074 L 802.984 221.074 L 802.984 802.984 L 221.074 802.984 L 221.074 221.074 Z " fill-rule="evenodd" fill="rgb(66,66,66)" />
        <rect x="221.074" y="221.074" width="581.91" height="581.91" transform="matrix(1,0,0,1,0,0)" fill="rgb(216,27,96)" />
        <g id="screen cleaner">
            <path d=" M 681.099 274.026 L 671.775 258.75 C 675.203 251.424 681.562 247.559 690.822 247.125 L 701.127 264.009 L 681.099 274.026 Z " fill="rgb(0,0,0)" />
            <path d=" M 680.838 273.625 C 684.266 266.299 690.625 262.434 699.885 262 L 893.162 578.678 C 884.179 579.227 877.85 583.122 874.115 590.303 L 680.838 273.625 Z " fill="rgb(33,33,33)" />
            <path d="M 760.271 363.272 L 760.271 363.272 C 766.053 359.696 773.869 361.84 777.714 368.056 L 791.912 391.012 C 795.757 397.228 794.184 405.178 788.402 408.754 L 788.402 408.754 C 782.62 412.33 774.804 410.187 770.96 403.971 L 756.761 381.015 C 752.917 374.798 754.49 366.848 760.271 363.272 Z" style="stroke:none;fill:#424242;stroke-miterlimit:10;" />
            <path d=" M 890.875 574.875 L 901.148 591.652 C 897.72 598.978 891.361 602.843 882.101 603.276 L 871.796 586.392 C 876.174 578.237 882.544 574.407 890.875 574.875 Z " fill="rgb(0,0,0)" />
            <path d=" M 498.78 209.528 L 499.125 207 L 573.25 257.25 L 619 271 L 782.875 389 L 782.337 389.692 C 780.219 392.414 776.253 392.954 773.485 390.895 L 623.012 278.984 C 620.798 277.337 616.883 275.267 614.275 274.363 Q 608.265 272.281 602.375 270.5 Q 591.706 267.274 576.503 263.849 C 573.811 263.242 569.778 261.483 567.502 259.922 L 500.849 214.197 C 499.483 213.26 498.557 211.168 498.78 209.528 Z " fill="rgb(117,117,117)" />
            <path d=" M 501.123 210.828 L 568.153 256.797 C 570.429 258.358 574.462 260.117 577.154 260.722 Q 597.668 265.336 615.276 272.167 C 617.883 273.179 621.816 275.362 624.054 277.04 L 775.2 390.4 C 777.849 392.387 781.344 391.76 783 389 L 783 389 C 784.656 386.24 783.909 382.31 781.334 380.228 Q 643.75 269 631 263 C 618.25 257 596.25 249.5 589 245 Q 581.75 240.5 514.223 197.678 C 511.892 196.2 508.416 196.584 506.464 198.536 L 500.536 204.464 C 498.584 206.416 498.848 209.267 501.123 210.828 Z " fill="rgb(33,33,33)" />
        </g>
        <g id="MacPaw Logo">
            <g opacity="0.79">
                <path d=" M 502.874 882.001 C 502.489 882.162 500.127 883.526 498.781 886.549 C 497.313 889.681 497.3 894.335 497.784 896.555 C 498.001 898.415 500.52 901.862 501.743 903.003 C 502.966 904.144 505.405 905.948 508.879 906.748 C 511.572 907.069 515.265 906.911 517.577 906.106 C 519.881 905.305 521.639 903.881 523.286 902.2 C 526.086 899.345 526.814 892.89 527.622 890.991 C 528.43 889.091 529.022 888.422 530.072 887.513 C 534.435 884.008 539.902 885.533 541.41 890.563 C 542.918 895.592 541.518 903.535 537.424 908.22 C 532.422 916.708 522.064 922.209 511.895 921.918 C 501.878 921.704 493.298 916.032 490.998 913.678 C 488.698 911.323 477.641 898.803 483.889 883.072 C 485.72 877.721 492.679 869.837 498.969 866.912 Q 504.063 864.544 508.664 868.197 C 515.019 874.056 507.802 879.594 502.874 882.001 Z " fill="rgb(0,0,0)" />
            </g>
            <g opacity="0.79">
                <path d=" M 505.318 864.697 C 504.771 864.414 504.833 863.586 505.457 862.849 C 506.081 862.111 507.032 861.741 507.579 862.023 C 508.127 862.306 508.064 863.134 507.44 863.872 C 506.816 864.609 505.865 864.979 505.318 864.697 Z " fill="rgb(0,0,0)" />
            </g>
            <g opacity="0.79">
                <path d=" M 511.757 874.986 C 511.435 874.356 512.054 873.623 513.137 873.349 C 514.22 873.075 515.361 873.363 515.682 873.993 C 516.004 874.623 515.385 875.356 514.302 875.63 C 513.219 875.904 512.078 875.616 511.757 874.986 Z " fill="rgb(0,0,0)" />
            </g>
            <path d=" M 509.149 865.682 C 509.095 864.772 512.057 862.685 513.134 863.916 C 514.211 865.147 511.68 867.929 510.98 867.608 C 510.28 867.287 509.202 866.591 509.149 865.682 Z " fill="rgb(0,0,0)" />
            <path d=" M 514.211 867.688 C 512.96 867.614 511.744 868.516 511.761 869.775 C 511.774 870.789 512.573 871.474 513.565 871.541 C 514.75 871.621 516.231 870.578 516.258 869.213 C 516.277 868.245 515.161 867.745 514.211 867.688 Z " fill="rgb(0,0,0)" />
        </g>
    </g>
</svg>