<?xml version="1.0" standalone="no"?>
<!-- Generator: Gravit.io -->
<svg xmlns="http://www.w3.org/2000/svg" xmlns:xlink="http://www.w3.org/1999/xlink" style="isolation:isolate" viewBox="0 0 1024 1024" width="1024" height="1024">
    <defs>
        <clipPath id="_clipPath_BcXLIuBRTFEP2MANiLxouN3xuOzxIZ3Q">
            <rect width="1024" height="1024" />
        </clipPath>
    </defs>
    <g clip-path="url(#_clipPath_BcXLIuBRTFEP2MANiLxouN3xuOzxIZ3Q)">
        <path d=" M 177.272 177.272 L 177.272 848.728 L 847.728 848.728 L 847.728 177.272 L 177.272 177.272 Z  M 87 87 L 87 937 L 937 937 L 937 87 L 87 87 Z " fill-rule="evenodd" fill="rgb(224,224,224)" />
        <path d=" M 170 170 L 854 170 L 854 854 L 170 854 L 170 170 Z  M 221.074 221.074 L 802.984 221.074 L 802.984 802.984 L 221.074 802.984 L 221.074 221.074 Z " fill-rule="evenodd" fill="rgb(66,66,66)" />
        <rect x="221.074" y="221.074" width="581.91" height="581.91" transform="matrix(1,0,0,1,0,0)" fill="rgb(216,27,96)" />
        <g id="MacPaw Logo">
            <g opacity="0.79">
                <path d=" M 502.874 882.001 C 502.489 882.162 500.127 883.526 498.781 886.549 C 497.313 889.681 497.3 894.335 497.784 896.555 C 498.001 898.415 500.52 901.862 501.743 903.003 C 502.966 904.144 505.405 905.948 508.879 906.748 C 511.572 907.069 515.265 906.911 517.577 906.106 C 519.881 905.305 521.639 903.881 523.286 902.2 C 526.086 899.345 526.814 892.89 527.622 890.991 C 528.43 889.091 529.022 888.422 530.072 887.513 C 534.435 884.008 539.902 885.533 541.41 890.563 C 542.918 895.592 541.518 903.535 537.424 908.22 C 532.422 916.708 522.064 922.209 511.895 921.918 C 501.878 921.704 493.298 916.032 490.998 913.678 C 488.698 911.323 477.641 898.803 483.889 883.072 C 485.72 877.721 492.679 869.837 498.969 866.912 Q 504.063 864.544 508.664 868.197 C 515.019 874.056 507.802 879.594 502.874 882.001 Z " fill="rgb(0,0,0)" />
            </g>
            <g opacity="0.79">
                <path d=" M 505.318 864.697 C 504.771 864.414 504.833 863.586 505.457 862.849 C 506.081 862.111 507.032 861.741 507.579 862.023 C 508.127 862.306 508.064 863.134 507.44 863.872 C 506.816 864.609 505.865 864.979 505.318 864.697 Z " fill="rgb(0,0,0)" />
            </g>
            <g opacity="0.79">
                <path d=" M 511.757 874.986 C 511.435 874.356 512.054 873.623 513.137 873.349 C 514.22 873.075 515.361 873.363 515.682 873.993 C 516.004 874.623 515.385 875.356 514.302 875.63 C 513.219 875.904 512.078 875.616 511.757 874.986 Z " fill="rgb(0,0,0)" />
            </g>
            <path d=" M 509.149 865.682 C 509.095 864.772 512.057 862.685 513.134 863.916 C 514.211 865.147 511.68 867.929 510.98 867.608 C 510.28 867.287 509.202 866.591 509.149 865.682 Z " fill="rgb(0,0,0)" />
            <path d=" M 514.211 867.688 C 512.96 867.614 511.744 868.516 511.761 869.775 C 511.774 870.789 512.573 871.474 513.565 871.541 C 514.75 871.621 516.231 870.578 516.258 869.213 C 516.277 868.245 515.161 867.745 514.211 867.688 Z " fill="rgb(0,0,0)" />
        </g>
        <path d=" M 436.812 221.074 L 469.922 292.411 C 525.692 305.168 584.703 299.873 646.925 276.495 L 802.984 535.828 C 643.778 641.32 449.828 655.706 221.074 578.926 L 221.074 802.984 L 802.775 802.984 L 802.984 220.912 L 436.812 221.074 Z " fill-rule="evenodd" fill="rgb(240,98,146)" />
    </g>
</svg>