<?xml version="1.0" standalone="no"?>
<!-- Generator: Gravit.io -->
<svg xmlns="http://www.w3.org/2000/svg" xmlns:xlink="http://www.w3.org/1999/xlink" style="isolation:isolate" viewBox="0 0 1024 1024" width="1024" height="1024">
    <defs>
        <clipPath id="_clipPath_BAatd0lecWyL8EtfXWmr1gyTHr1cIJxZ">
            <rect width="1024" height="1024" />
        </clipPath>
    </defs>
    <g clip-path="url(#_clipPath_BAatd0lecWyL8EtfXWmr1gyTHr1cIJxZ)">
        <rect x="87" y="87" width="850" height="850" transform="matrix(1,0,0,1,0,0)" fill="rgb(176,190,197)" />
        <path d=" M 192 512 C 192 335.387 335.387 192 512 192 C 688.613 192 832 335.387 832 512 C 832 688.613 688.613 832 512 832 C 335.387 832 192 688.613 192 512 Z " fill="rgb(235,235,235)" />
        <path d=" M 512.033 823.42 C 684.008 823.42 823.42 684.008 823.42 512.033 C 823.42 340.059 684.008 200.646 512.033 200.646 C 340.059 200.646 200.646 340.059 200.646 512.033 C 200.646 684.008 340.059 823.42 512.033 823.42 Z  M 512.048 852 C 602.136 852 688.697 816.155 752.474 752.474 C 816.155 688.697 852 602.136 852 512.048 C 852 421.864 816.155 335.398 752.474 271.621 C 688.697 207.845 602.136 172 512.048 172 C 421.864 172 335.398 207.845 271.621 271.621 C 207.845 335.398 172 421.864 172 512.048 C 172 602.136 207.845 688.697 271.621 752.474 C 335.398 816.155 421.864 852 512.048 852 Z " fill-rule="evenodd" fill="rgb(69,90,100)" />
        <g id="hours">
            <path d=" M 278.748 400.77 C 287.917 400.77 295.35 393.151 295.35 383.753 C 295.35 374.355 287.917 366.736 278.748 366.736 C 269.579 366.736 262.146 374.355 262.146 383.753 C 262.146 393.151 269.579 400.77 278.748 400.77 Z " fill-rule="evenodd" fill="rgb(96,125,139)" />
            <path d=" M 351.795 321.082 C 360.964 321.082 368.396 313.463 368.396 304.065 C 368.396 294.667 360.964 287.049 351.795 287.049 C 342.626 287.049 335.193 294.667 335.193 304.065 C 335.193 313.463 342.626 321.082 351.795 321.082 Z " fill-rule="evenodd" fill="rgb(96,125,139)" />
            <path d=" M 659.754 746.082 C 668.923 746.082 676.355 738.463 676.355 729.065 C 676.355 719.667 668.923 712.049 659.754 712.049 C 650.585 712.049 643.152 719.667 643.152 729.065 C 643.152 738.463 650.585 746.082 659.754 746.082 Z " fill-rule="evenodd" fill="rgb(96,125,139)" />
            <path d=" M 732.801 666.395 C 741.97 666.395 749.402 658.776 749.402 649.378 C 749.402 639.98 741.97 632.361 732.801 632.361 C 723.632 632.361 716.199 639.98 716.199 649.378 C 716.199 658.776 723.632 666.395 732.801 666.395 Z " fill-rule="evenodd" fill="rgb(96,125,139)" />
            <path d=" M 278.748 632.361 C 287.917 632.361 295.35 639.98 295.35 649.378 C 295.35 658.776 287.917 666.395 278.748 666.395 C 269.579 666.395 262.146 658.776 262.146 649.378 C 262.146 639.98 269.579 632.361 278.748 632.361 Z " fill-rule="evenodd" fill="rgb(96,125,139)" />
            <path d=" M 351.795 712.049 C 360.964 712.049 368.396 719.667 368.396 729.065 C 368.396 738.463 360.964 746.082 351.795 746.082 C 342.626 746.082 335.193 738.463 335.193 729.065 C 335.193 719.667 342.626 712.049 351.795 712.049 Z " fill-rule="evenodd" fill="rgb(96,125,139)" />
            <path d=" M 659.754 287.049 C 668.923 287.049 676.355 294.667 676.355 304.065 C 676.355 313.463 668.923 321.082 659.754 321.082 C 650.585 321.082 643.152 313.463 643.152 304.065 C 643.152 294.667 650.585 287.049 659.754 287.049 Z " fill-rule="evenodd" fill="rgb(96,125,139)" />
            <path d=" M 732.801 366.736 C 741.97 366.736 749.402 374.355 749.402 383.753 C 749.402 393.151 741.97 400.77 732.801 400.77 C 723.632 400.77 716.199 393.151 716.199 383.753 C 716.199 374.355 723.632 366.736 732.801 366.736 Z " fill-rule="evenodd" fill="rgb(96,125,139)" />
        </g>
        <path d=" M 506.393 533.997 L 506.393 714.954 C 506.393 718.39 509.183 721.18 512.619 721.18 L 512.619 721.18 C 516.055 721.18 518.844 718.39 518.844 714.954 L 518.844 533.997 C 518.844 530.561 516.055 527.771 512.619 527.771 L 512.619 527.771 C 509.183 527.771 506.393 530.561 506.393 533.997 Z " fill-rule="evenodd" fill="rgb(244,67,54)" />
        <path d=" M 512.415 545.203 C 530.982 545.203 546.033 530.152 546.033 511.585 C 546.033 493.018 530.982 477.967 512.415 477.967 C 493.848 477.967 478.797 493.018 478.797 511.585 C 478.797 530.152 493.848 545.203 512.415 545.203 Z " fill-rule="evenodd" fill="rgb(158,158,158)" />
        <path d=" M 679.765 401.322 L 533.193 489.391 C 528.481 492.223 526.954 498.347 529.785 503.06 L 529.785 503.06 C 532.617 507.772 538.741 509.299 543.454 506.467 L 690.026 418.398 C 694.738 415.567 696.265 409.442 693.434 404.73 L 693.434 404.73 C 690.602 400.017 684.478 398.49 679.765 401.322 Z " fill-rule="evenodd" fill="rgb(158,158,158)" />
        <path d=" M 501.809 484.183 L 370.426 309.832 C 367.117 305.441 360.867 304.563 356.476 307.872 L 356.476 307.872 C 352.086 311.18 351.207 317.431 354.516 321.821 L 485.898 496.172 C 489.207 500.562 495.457 501.441 499.848 498.132 L 499.848 498.132 C 504.239 494.824 505.117 488.573 501.809 484.183 Z " fill-rule="evenodd" fill="rgb(158,158,158)" />
        <path d=" M 505.839 257.109 L 500.919 257.109 L 500.919 228.669 C 500.919 227.049 500.439 225.729 499.479 224.769 C 498.459 223.809 497.199 223.329 495.579 223.329 C 494.019 223.329 492.339 223.809 490.599 224.829 L 480.999 230.409 C 479.619 231.249 478.899 232.509 478.899 234.129 C 478.899 235.329 479.319 236.409 480.099 237.369 C 480.879 238.389 481.839 238.869 482.979 238.869 C 483.699 238.869 484.419 238.689 485.079 238.269 L 489.879 235.449 L 489.879 257.109 L 485.019 257.109 C 483.219 257.109 481.899 257.469 481.059 258.189 C 480.219 258.909 479.799 259.989 479.799 261.429 C 479.799 264.369 481.539 265.869 485.019 265.869 L 505.839 265.869 C 509.319 265.869 511.059 264.369 511.059 261.429 C 511.059 259.989 510.639 258.909 509.799 258.189 C 508.959 257.469 507.639 257.109 505.839 257.109 Z  M 540.279 257.109 L 528.219 257.109 L 536.739 248.409 C 539.079 245.949 540.759 243.669 541.779 241.629 C 542.739 239.649 543.219 237.429 543.219 234.969 C 543.219 232.629 542.619 230.529 541.419 228.669 C 540.159 226.869 538.419 225.489 536.199 224.469 C 533.979 223.509 531.339 223.029 528.399 223.029 C 526.119 223.029 523.839 223.389 521.499 224.109 C 519.159 224.829 516.999 225.849 515.139 227.109 C 514.419 227.589 513.939 228.129 513.699 228.669 C 513.399 229.209 513.279 229.929 513.279 230.829 C 513.279 232.089 513.639 233.109 514.299 234.009 C 514.959 234.909 515.799 235.389 516.819 235.389 C 517.239 235.389 517.599 235.329 517.959 235.209 C 518.319 235.089 518.739 234.909 519.219 234.609 C 519.639 234.369 519.939 234.189 520.119 234.129 L 521.319 233.529 C 522.579 232.869 523.719 232.389 524.739 232.029 C 525.699 231.729 526.779 231.549 527.919 231.549 C 529.359 231.549 530.499 231.909 531.279 232.629 C 532.059 233.349 532.419 234.369 532.419 235.749 C 532.419 238.089 531.099 240.609 528.459 243.369 L 515.739 256.629 C 514.359 258.009 513.699 259.569 513.699 261.309 C 513.699 262.629 514.119 263.709 514.959 264.549 C 515.799 265.449 516.939 265.869 518.379 265.869 L 540.279 265.869 C 542.019 265.869 543.339 265.509 544.239 264.789 C 545.079 264.069 545.499 262.929 545.499 261.429 C 545.499 259.929 545.079 258.849 544.239 258.129 C 543.339 257.469 542.019 257.109 540.279 257.109 Z " fill-rule="evenodd" fill="rgb(38,50,56)" />
        <path d=" M 240.646 488.9 C 237.826 488.9 235.246 489.5 233.026 490.76 C 230.806 492.02 229.066 493.7 227.806 495.92 C 226.546 498.14 225.886 500.66 225.886 503.48 C 225.886 506.12 226.426 508.46 227.566 510.56 C 228.646 512.66 230.146 514.34 232.066 515.48 C 233.986 516.68 236.146 517.28 238.546 517.28 C 240.406 517.28 242.086 516.92 243.646 516.14 C 245.146 515.42 246.406 514.4 247.306 513.14 C 247.066 516.5 246.346 519.08 245.086 520.94 C 243.826 522.8 242.146 523.76 240.106 523.76 C 239.146 523.76 238.246 523.58 237.346 523.28 C 236.446 522.98 235.366 522.5 234.046 521.84 L 232.726 521.18 C 231.946 520.76 231.346 520.46 230.926 520.28 C 230.506 520.1 229.966 520.04 229.426 520.04 C 228.406 520.04 227.566 520.46 226.906 521.3 C 226.186 522.2 225.826 523.22 225.826 524.48 C 225.826 525.32 226.006 526.04 226.306 526.58 C 226.606 527.12 227.086 527.66 227.746 528.2 C 229.426 529.46 231.466 530.48 233.806 531.2 C 236.146 531.92 238.426 532.28 240.646 532.28 C 244.186 532.28 247.306 531.38 250.006 529.58 C 252.646 527.78 254.686 525.2 256.186 521.84 C 257.626 518.54 258.346 514.64 258.346 510.14 C 258.346 503.36 256.786 498.08 253.726 494.42 C 250.666 490.76 246.286 488.9 240.646 488.9 Z  M 241.306 508.76 C 239.686 508.76 238.486 508.22 237.586 507.2 C 236.686 506.18 236.206 504.8 236.206 503.06 C 236.206 501.32 236.686 499.94 237.586 498.92 C 238.486 497.9 239.746 497.36 241.306 497.36 C 242.806 497.36 244.066 497.9 245.026 498.92 C 245.986 500 246.466 501.38 246.466 503.06 C 246.466 504.8 245.986 506.18 245.086 507.2 C 244.126 508.22 242.866 508.76 241.306 508.76 Z " fill-rule="evenodd" fill="rgb(38,50,56)" />
        <path d=" M 514.6 768.902 C 512.74 768.902 511.06 769.262 509.56 769.982 C 508 770.762 506.74 771.782 505.84 773.042 C 506.08 769.682 506.86 767.042 508.12 765.182 C 509.38 763.322 511 762.422 513.04 762.422 C 514 762.422 514.9 762.602 515.8 762.902 C 516.7 763.202 517.78 763.682 519.1 764.342 L 520.42 765.002 C 521.2 765.422 521.8 765.662 522.22 765.842 C 522.64 766.022 523.18 766.142 523.72 766.142 C 524.74 766.142 525.58 765.722 526.3 764.822 C 526.96 763.982 527.32 762.962 527.32 761.702 C 527.32 760.862 527.2 760.142 526.9 759.602 C 526.6 759.062 526.06 758.522 525.4 757.982 C 523.72 756.722 521.74 755.702 519.4 754.982 C 517.06 754.262 514.72 753.902 512.5 753.902 C 508.96 753.902 505.84 754.802 503.2 756.602 C 500.5 758.402 498.46 760.982 497.02 764.282 C 495.52 767.642 494.8 771.542 494.8 776.042 C 494.8 782.822 496.36 788.102 499.42 791.762 C 502.48 795.422 506.86 797.282 512.5 797.282 C 515.32 797.282 517.9 796.682 520.12 795.422 C 522.34 794.162 524.14 792.422 525.4 790.202 C 526.66 787.982 527.26 785.522 527.26 782.702 C 527.26 780.062 526.72 777.662 525.64 775.562 C 524.5 773.462 523 771.842 521.08 770.642 C 519.16 769.502 517 768.902 514.6 768.902 Z  M 511.84 788.822 C 510.34 788.822 509.08 788.282 508.12 787.202 C 507.16 786.182 506.68 784.802 506.68 783.122 C 506.68 781.382 507.16 780.002 508.12 778.982 C 509.02 777.962 510.28 777.422 511.84 777.422 C 513.46 777.422 514.72 777.902 515.62 778.922 C 516.52 779.942 516.94 781.382 516.94 783.122 C 516.94 784.862 516.46 786.242 515.56 787.262 C 514.66 788.282 513.4 788.822 511.84 788.822 Z " fill-rule="evenodd" fill="rgb(38,50,56)" />
        <path d=" M 788.766 509.96 C 790.806 509.18 792.426 507.98 793.566 506.3 C 794.706 504.68 795.246 502.76 795.246 500.54 C 795.246 498.2 794.646 496.16 793.446 494.42 C 792.186 492.68 790.446 491.3 788.226 490.34 C 785.946 489.38 783.306 488.9 780.366 488.9 C 777.966 488.9 775.626 489.26 773.286 489.98 C 770.946 490.7 768.906 491.72 767.166 492.98 C 766.506 493.52 766.026 494.06 765.726 494.6 C 765.426 495.14 765.306 495.86 765.306 496.7 C 765.306 497.96 765.666 498.98 766.326 499.82 C 766.986 500.72 767.826 501.14 768.846 501.14 C 769.386 501.14 769.926 501.02 770.346 500.84 C 770.766 500.66 771.366 500.42 772.146 500 L 773.406 499.4 C 774.606 498.8 775.686 498.32 776.706 497.96 C 777.666 497.6 778.686 497.42 779.826 497.42 C 781.386 497.42 782.586 497.84 783.486 498.62 C 784.386 499.46 784.806 500.6 784.806 502.1 C 784.806 503.48 784.326 504.5 783.306 505.16 C 782.286 505.82 780.726 506.12 778.506 506.12 L 775.866 506.12 C 774.666 506.12 773.706 506.54 773.046 507.38 C 772.386 508.22 772.026 509.24 772.026 510.38 C 772.026 511.52 772.386 512.54 773.046 513.38 C 773.706 514.22 774.666 514.64 775.866 514.64 L 779.586 514.64 C 781.866 514.64 783.486 515 784.506 515.66 C 785.526 516.32 786.006 517.46 786.006 519.02 C 786.006 520.7 785.526 521.9 784.566 522.62 C 783.546 523.34 781.926 523.7 779.706 523.7 C 778.446 523.7 777.306 523.52 776.286 523.16 C 775.266 522.86 774.066 522.38 772.806 521.72 C 772.506 521.6 772.266 521.48 772.086 521.36 C 771.846 521.3 771.666 521.18 771.486 521.12 C 770.706 520.7 770.106 520.4 769.686 520.22 C 769.266 520.04 768.726 519.98 768.186 519.98 C 767.166 519.98 766.326 520.4 765.666 521.24 C 765.006 522.14 764.646 523.16 764.646 524.42 C 764.646 525.2 764.766 525.92 765.066 526.46 C 765.366 527.06 765.846 527.6 766.506 528.14 C 768.246 529.46 770.346 530.48 772.746 531.14 C 775.146 531.86 777.666 532.22 780.246 532.22 C 783.486 532.22 786.306 531.74 788.766 530.72 C 791.166 529.76 793.026 528.38 794.346 526.58 C 795.666 524.78 796.326 522.68 796.326 520.22 C 796.326 517.64 795.666 515.48 794.346 513.68 C 792.966 511.88 791.106 510.62 788.766 509.96 Z " fill="rgb(38,50,56)" />
    </g>
</svg>