<?xml version="1.0" standalone="no"?>
<!-- Generator: Gravit.io -->
<svg xmlns="http://www.w3.org/2000/svg" xmlns:xlink="http://www.w3.org/1999/xlink" style="isolation:isolate" viewBox="0 0 1024 1024" width="1024" height="1024">
    <defs>
        <clipPath id="_clipPath_H4hErGsyQ8SzDehIZw9RtRAibE7FYreo">
            <rect width="1024" height="1024" />
        </clipPath>
    </defs>
    <g clip-path="url(#_clipPath_H4hErGsyQ8SzDehIZw9RtRAibE7FYreo)">
        <rect x="87" y="87" width="850" height="850" transform="matrix(1,0,0,1,0,0)" fill="rgb(235,235,235)" />
        <path d=" M 744.972 821.115 C 718.062 840.666 680.17 844.721 663.678 822.022 Q 647.186 799.322 348.507 416.626 Q 298.354 412.19 273.919 401.103 C 249.485 390.016 236.677 382.962 218.165 357.483 C 199.653 332.003 194.99 308.57 193.223 290.034 Q 191.457 271.498 203.899 224.887 L 276.201 326.504 L 357.506 319.043 L 386.651 245.543 L 314.724 146.543 Q 359.071 150.225 381.159 160.664 C 403.246 171.102 416.184 177.206 435.31 203.53 C 454.435 229.854 455.96 246.212 458.444 267.038 Q 460.928 287.863 452.161 344.787 Q 749.631 724.067 766.515 747.306 C 783.4 770.546 771.881 801.564 744.972 821.115 Z " fill-rule="evenodd" fill="rgb(66,66,66)" />
        <g id="screwdriver">
            <path d=" M 426.461 508.859 L 238.491 737.534 C 229.085 748.978 230.925 765.672 242.598 774.792 L 328.913 842.229 C 340.585 851.348 357.229 849.095 366.057 837.2 L 542.466 599.492 C 551.293 587.596 548.983 570.535 537.311 561.415 L 464.654 504.649 C 452.981 495.529 435.867 497.416 426.461 508.859 Z " fill-rule="evenodd" fill="rgb(109,76,65)" />
            <path d=" M 653.092 285.555 L 495.914 486.734 L 543.717 524.082 L 700.895 322.903 L 719.106 337.131 L 783.521 237 C 824 180 762 127 712.718 184.667 L 634.881 271.327 L 653.092 285.555 Z " fill="rgb(158,158,158)" />
            <linearGradient id="_lgradient_1" x1="-57.3333531583448%" y1="50%" x2="100%" y2="50%">
                <stop offset="0%" stop-opacity="1" style="stop-color:rgb(185,191,205)" />
                <stop offset="100%" stop-opacity="1" style="stop-color:rgb(94,94,106)" />
            </linearGradient>
            <path d=" M 457.992 467.236 L 452.639 474.088 C 443.519 485.761 445.591 502.642 457.264 511.762 L 529.921 568.527 C 541.594 577.647 558.475 575.574 567.595 563.901 L 572.948 557.049 C 582.068 545.376 579.995 528.495 568.323 519.376 L 495.666 462.61 C 483.993 453.49 467.112 455.563 457.992 467.236 Z " fill-rule="evenodd" fill="url(#_lgradient_1)" />
        </g>
        <path d=" M 629.139 399.02 C 599.655 368.665 558.411 349.793 512.793 349.793 C 423.269 349.793 350.587 422.476 350.587 512 C 350.587 601.524 423.269 674.207 512.793 674.207 C 558.153 674.207 599.189 655.548 628.638 625.493 L 512 512 L 629.139 399.02 Z " fill="rgb(33,33,33)" />
        <g id="rainbow circle">
            <clipPath id="_clipPath_sxm6mxFF6SZvBZcTaNDmVM3vjWrQdhHi">
                <path d=" M 386.831 512 C 386.831 442.479 443.273 386.037 512.793 386.037 C 582.314 386.037 638.756 442.479 638.756 512 C 638.756 581.521 582.314 637.963 512.793 637.963 C 443.273 637.963 386.831 581.521 386.831 512 Z " fill="rgb(255,255,255)" />
            </clipPath>
            <g clip-path="url(#_clipPath_sxm6mxFF6SZvBZcTaNDmVM3vjWrQdhHi)">
                <g id="Group">
                    <path d=" M 606.052 604.29 C 562.567 602.322 531.265 571.907 512.121 513.017 L 646.162 526.309 C 642.157 556.084 628.796 582.087 606.052 604.29 Z " fill="rgb(174,234,0)" />
                    <path d=" M 646.162 526.309 C 603.157 554.173 558.486 549.752 512.121 513.017 L 621.117 438.581 C 639.279 460.992 647.636 491.425 646.162 526.309 Z " fill="rgb(253,216,53)" />
                    <path d=" M 621.117 438.581 C 610.453 485.311 574.13 511.313 512.121 513.017 C 526.571 471.056 540.472 428.834 553.77 389.844 C 581.733 397.228 604.19 413.483 621.117 438.581 Z " fill="rgb(245,124,0)" />
                    <path d=" M 553.77 389.844 C 572.152 433.584 558.304 475.859 512.121 513.017 L 464.27 391.616 C 500.114 380.969 529.956 379.206 553.77 389.844 Z " fill="rgb(198,40,40)" />
                    <path d=" M 464.27 391.616 C 511.265 418.191 527.225 458.666 512.121 513.017 L 400.468 440.354 C 416.516 419.958 437.793 403.721 464.27 391.616 Z " fill="rgb(233,30,99)" />
                    <path d=" M 400.468 440.354 C 459.088 437.304 496.315 461.534 512.121 513.017 L 379.282 517.448 C 378.806 490.765 385.877 465.076 400.468 440.354 Z " fill="rgb(194,24,91)" />
                    <path d=" M 383.631 551.466 Q 379.904 539.869 379.282 517.448 C 419.225 484.138 463.514 482.67 512.121 513.017 L 400.468 583.022 Q 387.401 563.198 383.631 551.466 Z " fill="rgb(123,31,162)" />
                    <path d=" M 400.468 583.022 C 417.994 532.709 455.22 509.383 512.121 513.017 C 465.245 548.651 446.368 588.258 455.408 631.76 C 429.998 616.8 411.693 600.563 400.468 583.022 Z " fill="rgb(26,35,126)" />
                    <path d=" M 512.121 513.017 C 504.861 561.385 510.795 604.559 529.844 642.459 Q 503.421 642.872 489.313 640.621 Q 477.135 638.678 455.408 631.76 C 446.785 584.427 465.698 544.855 512.121 513.017 Z " fill="rgb(41,98,255)" />
                    <path d=" M 529.844 642.459 C 560.761 636.584 586.172 623.87 606.052 604.29 C 562.076 600.807 530.819 570.436 512.121 513.017 C 488.663 562.842 494.579 605.998 529.844 642.459 Z " fill="rgb(0,230,118)" />
                </g>
            </g>
        </g>
    </g>
</svg>