<?xml version="1.0" standalone="no"?><!-- Generator: Gravit.io --><svg xmlns="http://www.w3.org/2000/svg" xmlns:xlink="http://www.w3.org/1999/xlink" style="isolation:isolate" viewBox="0 0 1024 1024" width="1024" height="1024"><defs><clipPath id="_clipPath_WbahBGMNgsAYRBJR0jRrS3aniqHbsPyL"><rect width="1024" height="1024"/></clipPath></defs><g clip-path="url(#_clipPath_WbahBGMNgsAYRBJR0jRrS3aniqHbsPyL)"><rect x="87" y="87" width="850" height="850" transform="matrix(1,0,0,1,0,0)" fill="rgb(66,66,66)"/><rect x="157" y="157" width="710" height="710" transform="matrix(1,0,0,1,0,0)" fill="rgb(238,238,238)"/><rect x="194" y="194" width="636" height="636" transform="matrix(1,0,0,1,0,0)" fill="rgb(255,204,128)"/><clipPath id="_clipPath_kxtjwQMzYM5AtdC14k036qE9U36CUdjk"><rect x="194" y="194" width="636" height="636" transform="matrix(1,0,0,1,0,0)" fill="rgb(255,204,128)"/></clipPath><g clip-path="url(#_clipPath_kxtjwQMzYM5AtdC14k036qE9U36CUdjk)"><g id="Tatooine"><path d=" M 194 567 L 388.501 570.682 L 830 578 L 830 835 L 194 835 L 194 567 Z " fill="rgb(161,136,127)"/><path d=" M 365 578 Q 381.058 572.665 390 570.682 C 397.995 568.91 405.06 569.031 413 567 C 416.555 566.091 419.42 564.813 423 564 C 434.747 561.331 450.25 564 457 564 Q 470.269 564 476 564 Q 491.576 562.8 500 562 C 520.09 560.092 536.883 556.638 557 555 C 569.628 553.972 580.323 552.421 593 553 C 607.981 553.684 620.077 558.731 635 560 C 650.773 561.342 664.25 560.75 680 560 C 685.027 559.761 688.966 557.083 694 557 C 709.25 556.75 722.394 562.521 738 562 C 745.063 561.764 750.925 559.963 758 560 Q 764.724 560.035 777 562 Q 801.696 564.233 809 563 Q 816.304 561.767 830 563 L 830 579 L 365 578 Z " fill="rgb(141,110,99)"/><g id="Tatooinean house"><path d=" M 512 683 L 606 683 C 619.074 703.969 623.438 728.999 619 758 Q 618.693 760.004 528 758 L 512 683 Z " fill="rgb(93,64,55)"/><path d=" M 194 765 L 194 581 C 240.605 548.758 283.303 530.937 324.699 532 C 358.528 532.869 391.488 547.599 425 567 C 480.29 599.01 515.633 662.686 531 758 L 491 765 L 194 765 Z " fill="rgb(109,76,65)"/><path d=" M 494 835 L 494 770 L 526 765 L 626 765 L 626 835 L 494 835 Z " fill="rgb(121,85,72)"/><path d=" M 453 770 L 491 770 L 491 835 L 494 835 L 494 770 L 528 765 L 540 765 L 540 835 L 544 835 L 544 765 L 626 765 L 619 758 L 531 758 L 494 762 L 450 762 L 453 770 Z " fill="rgb(141,110,99)"/><path d=" M 232 835 L 218 835 L 218 770 L 194 770 L 194 762 L 213 758 L 273 758 C 284.804 704.918 317.814 680.594 372 685 C 363.321 729.985 332.998 759.328 281 773 L 232 773 L 232 835 Z " fill="rgb(141,110,99)"/><path d=" M 232 835 L 232 770 L 281 770 Q 294.539 687.359 362 685 Q 433.5 682.5 453 770 L 491 770 L 491 835" fill="rgb(121,85,72)"/><path d=" M 218 835 L 218 770 L 194 770 L 194 835 L 218 835 Z " fill="rgb(121,85,72)"/></g><g id="Group"><path d=" M 736.508 615 L 736.508 562.479 L 738.609 560.378 L 738.609 532.017 L 740.71 529.916 L 740.71 490 L 742.811 490 L 742.811 529.916 L 744.912 532.017 L 744.912 560.378 L 747.012 562.479 L 747.012 615" fill="rgb(78,52,46)"/><path d=" M 725.92 557.227 L 729.155 557.227 L 729.155 615 L 725.92 615" fill="rgb(78,52,46)"/><path d=" M 753.231 557.227 L 756.466 557.227 L 756.466 615 L 753.231 615" fill="rgb(78,52,46)"/><path d=" M 727.538 572.983 L 754.849 572.983 L 754.849 575.084 L 727.538 575.084" fill="rgb(78,52,46)"/><path d=" M 727.538 603.445 L 754.849 603.445 L 754.849 605.546 L 727.538 605.546" fill="rgb(78,52,46)"/></g><g id="twin suns"><g id="sun 1"><path d=" M 528 265 C 528 234.093 553.093 209 584 209 C 614.907 209 640 234.093 640 265 C 640 295.907 614.907 321 584 321 C 553.093 321 528 295.907 528 265 Z " fill="rgb(255,224,178)"/><path d=" M 534 265 C 534 237.404 556.404 215 584 215 C 611.596 215 634 237.404 634 265 C 634 292.596 611.596 315 584 315 C 556.404 315 534 292.596 534 265 Z " fill="rgb(245,245,245)"/></g><g id="sun 2"><path d=" M 610 399 C 610 368.093 635.093 343 666 343 C 696.907 343 722 368.093 722 399 C 722 429.907 696.907 455 666 455 C 635.093 455 610 429.907 610 399 Z " fill="rgb(255,224,178)"/><path d=" M 616 399 C 616 371.404 638.404 349 666 349 C 693.596 349 716 371.404 716 399 C 716 426.596 693.596 449 666 449 C 638.404 449 616 426.596 616 399 Z " fill="rgb(255,213,79)"/></g></g></g></g><path d=" M 194 393 L 194 663 C 415.705 595.193 629.895 545.684 830 542 L 830 386 C 616.503 351.708 404.513 337.384 194 393 Z " fill="rgb(0,0,0)" style="mix-blend-mode:color;"/><g id="paint pencil"><path d=" M 645.291 782.685 L 783.686 644.291 L 681.356 542 L 543 680.355 L 645.291 782.685 Z " fill="rgb(117,117,117)"/><path d=" M 783.686 644.291 L 820.54 681.222 C 822.677 683.339 823.29 686.554 822.08 689.309 C 809.747 717.44 800.341 753.091 806.513 759.252 C 820.28 773.058 833.931 778.7 847.092 784.149 C 857.923 788.626 868.147 792.881 876.456 801.189 C 904.52 829.244 920.501 875.763 898.618 897.656 C 891.956 904.299 882.367 907.842 870.891 907.842 C 848.748 907.842 821.782 895.172 802.113 875.542 C 793.015 866.396 786.247 852.224 779.739 838.534 C 773.76 825.932 767.589 812.925 760.224 805.589 C 758.452 803.779 754.804 802.797 749.768 802.797 C 727.5 802.797 690.983 820.781 690.608 820.974 C 687.799 822.375 684.41 821.829 682.184 819.616 L 645.33 782.685 L 783.686 644.291 Z  M 858 876.332 C 868.634 876.332 877.255 867.711 877.255 857.077 C 877.255 846.442 868.634 837.822 858 837.822 C 847.366 837.822 838.745 846.442 838.745 857.077 C 838.745 867.711 847.366 876.332 858 876.332 Z " fill="rgb(255,202,40)"/><path d=" M 543 680.355 L 681.356 542 L 729.57 590.214 L 729.378 590.435 C 729.686 590.666 730.051 590.772 730.321 591.042 C 741.113 601.873 746.226 618.49 733.44 631.284 C 733.399 631.328 733.35 631.364 733.296 631.39 C 732.092 632.642 730.735 633.576 729.349 634.365 L 728.896 634.587 C 720.472 639.179 709.93 636.734 702.036 633.499 C 700.267 632.753 698.524 631.951 696.808 631.092 L 695.913 630.639 C 694.313 629.796 692.746 628.894 691.214 627.934 C 674.742 617.402 667.627 617.662 666.953 618.037 C 666.732 618.567 666.568 619.395 666.616 620.598 C 666.809 624.324 668.763 631.881 675.156 647.035 L 675.714 648.354 C 676.585 650.377 677.303 652.462 677.861 654.592 C 681.423 668.398 675.676 676.976 671.574 681.106 C 663.834 688.895 652.993 686.151 644.309 683.966 C 636.531 682.011 631.264 680.923 628.665 683.484 C 627.858 684.369 627.346 685.482 627.202 686.671 C 626.566 690.551 628.068 696.298 629.416 701.565 C 631.717 710.258 634.124 719.241 627.952 725.412 C 626.942 726.423 625.844 727.289 624.718 728.011 C 624.121 728.416 623.514 728.685 622.917 728.974 C 622.388 729.244 621.897 729.552 621.377 729.773 C 620.251 730.205 619.092 730.543 617.911 730.784 C 616.939 731.054 615.889 731.169 614.83 731.275 L 614.57 731.275 C 613.964 731.313 613.367 731.429 612.76 731.429 C 598.165 731.429 582.338 719.809 579.777 717.248 C 578.826 716.264 578.187 715.021 577.938 713.676 L 574.78 712.174 L 543 680.355 Z " fill="rgb(97,97,97)"/><path d=" M 665.451 802.845 L 803.798 664.451 L 776.764 637.407 L 638.418 775.802 L 665.451 802.845 Z " fill="rgb(249,168,37)"/></g></g></svg>