<?xml version="1.0" standalone="no"?>
<!-- Generator: Gravit.io -->
<svg xmlns="http://www.w3.org/2000/svg" xmlns:xlink="http://www.w3.org/1999/xlink" style="isolation:isolate" viewBox="0 0 1024 1024" width="1024" height="1024">
    <defs>
        <clipPath id="_clipPath_CqLX6bO9PbYcru51C4LsaMdP5Vaj0Fd3">
            <rect width="1024" height="1024" />
        </clipPath>
    </defs>
    <g clip-path="url(#_clipPath_CqLX6bO9PbYcru51C4LsaMdP5Vaj0Fd3)">
        <rect x="86" y="89.897" width="850" height="850" transform="matrix(1,0,0,1,0,0)" fill="rgb(144,164,174)" />
        <rect x="86" y="710" width="850" height="229.897" transform="matrix(1,0,0,1,0,0)" fill="rgb(84,110,122)" />
        <g id="MacBook Air">
            <path d=" M 172.746 817.366 Q 181.583 822.113 189.95 822.113 C 198.317 822.113 828.048 822.542 840.022 822.757 Q 851.996 822.971 852.667 813.907 Q 852.64 827.048 840.022 827.262 C 830.222 827.429 207.878 826.538 189.95 826.618 Q 172.022 826.699 172.746 817.366 Z " fill-rule="evenodd" fill="rgb(0,0,0)" />
            <mask id="_mask_YwtHKqdzaA2lzbR0YVvEUxFziXJyH8dH">
                <path d=" M 773.084 717.2 L 773.084 390.877 C 773.084 383.062 766.739 376.717 758.924 376.717 L 269.761 376.717 C 261.946 376.717 255.601 383.062 255.601 390.877 L 255.601 717.2 L 255.601 717.2 L 255.601 740.371 L 773.084 740.371 L 773.084 717.2 Z " fill-rule="evenodd" fill="white" stroke="none" />
            </mask>
            <path d=" M 773.084 717.2 L 773.084 390.877 C 773.084 383.062 766.739 376.717 758.924 376.717 L 269.761 376.717 C 261.946 376.717 255.601 383.062 255.601 390.877 L 255.601 717.2 L 255.601 717.2 L 255.601 740.371 L 773.084 740.371 L 773.084 717.2 Z " fill-rule="evenodd" fill="rgb(33,33,33)" mask="url(#_mask_YwtHKqdzaA2lzbR0YVvEUxFziXJyH8dH)" vector-effect="non-scaling-stroke" stroke-width="3.862" stroke="rgb(8,8,8)" stroke-linejoin="miter" stroke-linecap="square" stroke-miterlimit="10" />
            <path d=" M 255.881 730.073 C 260.386 730.073 768.799 730.073 772.017 730.073 C 775.235 730.073 777.455 731.277 779.096 733.291 C 780.736 735.305 847.283 805.28 851.175 810.528 C 855.067 815.775 850.61 822.757 844.096 822.757 C 621.664 822.757 183.018 822.328 178.01 822.113 C 173.001 821.898 170.287 816.32 175.435 809.884 C 180.584 803.448 243.227 736.916 245.584 734.579 C 247.94 732.241 251.376 730.073 255.881 730.073 Z " fill-rule="evenodd" fill="rgb(40,40,40)" />
            <path d=" M 431.118 822.435 L 592.027 822.435 L 592.027 826.94 L 431.118 826.94 L 431.118 822.435 Z " fill-rule="evenodd" fill="rgb(33,33,33)" />
            <path d=" M 388.19 781.564 L 639.208 781.564 L 652.724 819.538 L 374.03 819.538 L 388.19 781.564 Z " fill-rule="evenodd" fill="rgb(45,45,45)" />
            <g id="Keyboard">
                <path d=" M 248.521 736.509 L 780.164 736.509 L 821.357 780.277 L 206.685 780.277 L 248.521 736.509 Z " fill-rule="evenodd" fill="rgb(40,40,40)" />
                <path d=" M 392.052 771.266 L 594.153 771.266 L 596.084 779.633 L 388.834 779.633 L 392.052 771.266 Z " fill-rule="evenodd" fill="rgb(1,1,1)" />
                <path d=" M 597.477 771.266 L 645.838 771.266 L 648.862 779.633 L 599.302 779.633 L 597.477 771.266 Z " fill-rule="evenodd" fill="rgb(1,1,1)" />
                <path d=" M 648.968 771.266 L 687.069 771.266 L 690.699 779.633 L 652.313 779.633 L 648.968 771.266 Z " fill-rule="evenodd" fill="rgb(1,1,1)" />
                <path d=" M 690.161 771.266 L 727.618 771.266 L 733.179 779.633 L 694.149 779.633 L 690.161 771.266 Z " fill-rule="evenodd" fill="rgb(1,1,1)" />
                <path d=" M 730.71 771.266 L 768.811 771.266 L 775.015 779.633 L 735.985 779.633 L 730.71 771.266 Z " fill-rule="evenodd" fill="rgb(1,1,1)" />
                <path d=" M 771.259 771.266 L 809.36 771.266 L 816.851 779.633 L 777.822 779.633 L 771.259 771.266 Z " fill-rule="evenodd" fill="rgb(1,1,1)" />
                <path d=" M 715.157 763.542 L 802.16 763.542 L 809.128 770.622 L 719.579 770.622 L 715.157 763.542 Z " fill-rule="evenodd" fill="rgb(1,1,1)" />
                <path d=" M 675.251 763.542 L 712.198 763.542 L 716.444 770.622 L 678.417 770.622 L 675.251 763.542 Z " fill-rule="evenodd" fill="rgb(1,1,1)" />
                <path d=" M 635.346 763.542 L 672.292 763.542 L 675.251 770.622 L 637.868 770.622 L 635.346 763.542 Z " fill-rule="evenodd" fill="rgb(1,1,1)" />
                <path d=" M 595.441 763.542 L 632.387 763.542 L 634.702 770.622 L 596.675 770.622 L 595.441 763.542 Z " fill-rule="evenodd" fill="rgb(1,1,1)" />
                <path d=" M 555.535 763.542 L 591.838 763.542 L 593.51 770.622 L 556.126 770.622 L 555.535 763.542 Z " fill-rule="evenodd" fill="rgb(1,1,1)" />
                <path d=" M 515.63 763.542 L 551.933 763.542 L 552.961 770.622 L 515.577 770.622 L 515.63 763.542 Z " fill-rule="evenodd" fill="rgb(1,1,1)" />
                <path d=" M 475.081 763.542 L 512.027 763.542 L 512.412 770.622 L 474.384 770.622 L 475.081 763.542 Z " fill-rule="evenodd" fill="rgb(1,1,1)" />
                <path d=" M 435.175 763.542 L 472.122 763.542 L 471.863 770.622 L 433.192 770.622 L 435.175 763.542 Z " fill-rule="evenodd" fill="rgb(1,1,1)" />
                <path d=" M 395.27 763.542 L 432.216 763.542 L 430.026 770.622 L 392.643 770.622 L 395.27 763.542 Z " fill-rule="evenodd" fill="rgb(1,1,1)" />
                <path d=" M 355.364 763.542 L 391.667 763.542 L 389.477 770.622 L 351.45 770.622 L 355.364 763.542 Z " fill-rule="evenodd" fill="rgb(1,1,1)" />
                <path d=" M 315.459 763.542 L 351.762 763.542 L 348.928 770.622 L 310.901 770.622 L 315.459 763.542 Z " fill-rule="evenodd" fill="rgb(1,1,1)" />
                <path d=" M 225.35 763.542 L 311.856 763.542 L 307.735 770.622 L 218.861 770.622 L 225.35 763.542 Z " fill-rule="evenodd" fill="rgb(1,1,1)" />
                <path d=" M 232.43 755.175 L 298.725 755.175 L 293.316 762.898 L 225.941 762.898 L 232.43 755.175 Z " fill-rule="evenodd" fill="rgb(1,1,1)" />
                <path d=" M 240.154 747.451 L 294.863 747.451 L 289.454 754.531 L 233.665 754.531 L 240.154 747.451 Z " fill-rule="evenodd" fill="rgb(1,1,1)" />
                <path d=" M 301.299 755.175 L 337.343 755.175 L 333.222 762.898 L 296.097 762.898 L 301.299 755.175 Z " fill-rule="evenodd" fill="rgb(1,1,1)" />
                <path d=" M 297.437 747.451 L 332.194 747.451 L 328.073 754.531 L 292.235 754.531 L 297.437 747.451 Z " fill-rule="evenodd" fill="rgb(1,1,1)" />
                <path d=" M 334.768 747.451 L 370.168 747.451 L 366.691 754.531 L 330.854 754.531 L 334.768 747.451 Z " fill-rule="evenodd" fill="rgb(1,1,1)" />
                <path d=" M 373.386 747.451 L 408.143 747.451 L 405.952 754.531 L 370.115 754.531 L 373.386 747.451 Z " fill-rule="evenodd" fill="rgb(1,1,1)" />
                <path d=" M 411.361 747.451 L 446.117 747.451 L 444.571 754.531 L 408.733 754.531 L 411.361 747.451 Z " fill-rule="evenodd" fill="rgb(1,1,1)" />
                <path d=" M 449.335 747.451 L 484.092 747.451 L 483.832 754.531 L 447.995 754.531 L 449.335 747.451 Z " fill-rule="evenodd" fill="rgb(1,1,1)" />
                <path d=" M 486.666 747.451 L 522.71 747.451 L 522.45 754.531 L 486.613 754.531 L 486.666 747.451 Z " fill-rule="evenodd" fill="rgb(1,1,1)" />
                <path d=" M 525.284 747.451 L 560.041 747.451 L 561.069 754.531 L 525.231 754.531 L 525.284 747.451 Z " fill-rule="evenodd" fill="rgb(1,1,1)" />
                <path d=" M 562.615 747.451 L 598.015 747.451 L 599.687 754.531 L 563.85 754.531 L 562.615 747.451 Z " fill-rule="evenodd" fill="rgb(1,1,1)" />
                <path d=" M 601.233 747.451 L 635.99 747.451 L 638.949 754.531 L 603.111 754.531 L 601.233 747.451 Z " fill-rule="evenodd" fill="rgb(1,1,1)" />
                <path d=" M 639.208 747.451 L 673.964 747.451 L 678.21 754.531 L 642.373 754.531 L 639.208 747.451 Z " fill-rule="evenodd" fill="rgb(1,1,1)" />
                <path d=" M 676.539 747.451 L 711.939 747.451 L 716.828 754.531 L 680.991 754.531 L 676.539 747.451 Z " fill-rule="evenodd" fill="rgb(1,1,1)" />
                <path d=" M 715.157 747.451 L 750.557 747.451 L 755.447 754.531 L 719.609 754.531 L 715.157 747.451 Z " fill-rule="evenodd" fill="rgb(1,1,1)" />
                <path d=" M 753.131 747.451 L 788.531 747.451 L 794.708 754.531 L 757.584 754.531 L 753.131 747.451 Z " fill-rule="evenodd" fill="rgb(1,1,1)" />
                <path d=" M 728.03 740.371 L 782.095 740.371 L 787.628 746.808 L 733.179 746.808 L 728.03 740.371 Z " fill-rule="evenodd" fill="rgb(1,1,1)" />
                <path d=" M 691.342 740.371 L 725.455 740.371 L 730.345 746.808 L 695.848 746.808 L 691.342 740.371 Z " fill-rule="evenodd" fill="rgb(1,1,1)" />
                <path d=" M 654.655 740.371 L 688.124 740.371 L 692.37 746.808 L 657.873 746.808 L 654.655 740.371 Z " fill-rule="evenodd" fill="rgb(1,1,1)" />
                <path d=" M 617.324 740.371 L 650.793 740.371 L 654.396 746.808 L 619.255 746.808 L 617.324 740.371 Z " fill-rule="evenodd" fill="rgb(1,1,1)" />
                <path d=" M 580.637 740.371 L 614.75 740.371 L 616.421 746.808 L 581.281 746.808 L 580.637 740.371 Z " fill-rule="evenodd" fill="rgb(1,1,1)" />
                <path d=" M 543.306 740.371 L 577.419 740.371 L 579.09 746.808 L 543.306 746.808 L 543.306 740.371 Z " fill-rule="evenodd" fill="rgb(1,1,1)" />
                <path d=" M 505.975 740.371 L 540.732 740.371 L 540.472 746.808 L 505.975 746.808 L 505.975 740.371 Z " fill-rule="evenodd" fill="rgb(1,1,1)" />
                <path d=" M 468.644 740.371 L 503.401 740.371 L 503.401 746.808 L 468.001 746.808 L 468.644 740.371 Z " fill-rule="evenodd" fill="rgb(1,1,1)" />
                <path d=" M 431.957 740.371 L 466.07 740.371 L 465.426 746.808 L 430.026 746.808 L 431.957 740.371 Z " fill-rule="evenodd" fill="rgb(1,1,1)" />
                <path d=" M 395.27 740.371 L 428.739 740.371 L 426.808 746.808 L 392.052 746.808 L 395.27 740.371 Z " fill-rule="evenodd" fill="rgb(1,1,1)" />
                <path d=" M 357.939 740.371 L 392.695 740.371 L 389.477 746.808 L 354.721 746.808 L 357.939 740.371 Z " fill-rule="evenodd" fill="rgb(1,1,1)" />
                <path d=" M 321.252 740.371 L 354.721 740.371 L 351.503 746.808 L 316.746 746.808 L 321.252 740.371 Z " fill-rule="evenodd" fill="rgb(1,1,1)" />
                <path d=" M 283.921 740.371 L 318.034 740.371 L 313.528 746.808 L 278.772 746.808 L 283.921 740.371 Z " fill-rule="evenodd" fill="rgb(1,1,1)" />
                <path d=" M 246.59 740.371 L 280.703 740.371 L 275.554 746.808 L 240.797 746.808 L 246.59 740.371 Z " fill-rule="evenodd" fill="rgb(1,1,1)" />
                <path d=" M 249.808 737.153 L 301.299 737.153 L 299.368 739.728 L 247.234 739.728 L 249.808 737.153 Z " fill-rule="evenodd" fill="rgb(1,1,1)" />
                <path d=" M 305.161 737.153 L 339.274 737.153 L 337.343 739.728 L 303.23 739.728 L 305.161 737.153 Z " fill-rule="evenodd" fill="rgb(1,1,1)" />
                <path d=" M 341.848 737.153 L 375.317 737.153 L 374.03 739.728 L 339.917 739.728 L 341.848 737.153 Z " fill-rule="evenodd" fill="rgb(1,1,1)" />
                <path d=" M 377.892 737.153 L 411.361 737.153 L 410.717 739.728 L 376.604 739.728 L 377.892 737.153 Z " fill-rule="evenodd" fill="rgb(1,1,1)" />
                <path d=" M 413.935 737.153 L 448.048 737.153 L 448.048 739.728 L 413.292 739.728 L 413.935 737.153 Z " fill-rule="evenodd" fill="rgb(1,1,1)" />
                <path d=" M 451.266 737.153 L 485.379 737.153 L 485.379 739.728 L 451.266 739.728 L 451.266 737.153 Z " fill-rule="evenodd" fill="rgb(1,1,1)" />
                <path d=" M 487.953 737.153 L 522.71 737.153 L 522.71 739.728 L 487.953 739.728 L 487.953 737.153 Z " fill-rule="evenodd" fill="rgb(1,1,1)" />
                <path d=" M 524.641 737.153 L 558.753 737.153 L 558.753 739.728 L 524.641 739.728 L 524.641 737.153 Z " fill-rule="evenodd" fill="rgb(1,1,1)" />
                <path d=" M 560.684 737.153 L 594.797 737.153 L 595.441 739.728 L 560.684 739.728 L 560.684 737.153 Z " fill-rule="evenodd" fill="rgb(1,1,1)" />
                <path d=" M 598.015 737.153 L 632.128 737.153 L 633.415 739.728 L 598.659 739.728 L 598.015 737.153 Z " fill-rule="evenodd" fill="rgb(1,1,1)" />
                <path d=" M 634.702 737.153 L 668.815 737.153 L 670.102 739.728 L 635.99 739.728 L 634.702 737.153 Z " fill-rule="evenodd" fill="rgb(1,1,1)" />
                <path d=" M 670.746 737.153 L 704.859 737.153 L 706.79 739.728 L 672.033 739.728 L 670.746 737.153 Z " fill-rule="evenodd" fill="rgb(1,1,1)" />
                <path d=" M 707.433 737.153 L 741.546 737.153 L 743.477 739.728 L 709.364 739.728 L 707.433 737.153 Z " fill-rule="evenodd" fill="rgb(1,1,1)" />
                <path d=" M 744.764 737.153 L 779.52 737.153 L 781.451 739.728 L 746.695 739.728 L 744.764 737.153 Z " fill-rule="evenodd" fill="rgb(1,1,1)" />
                <path d=" M 340.561 755.175 L 376.604 755.175 L 372.483 762.898 L 335.359 762.898 L 340.561 755.175 Z " fill-rule="evenodd" fill="rgb(1,1,1)" />
                <path d=" M 379.179 755.175 L 415.223 755.175 L 413.032 762.898 L 375.908 762.898 L 379.179 755.175 Z " fill-rule="evenodd" fill="rgb(1,1,1)" />
                <path d=" M 417.797 755.175 L 453.841 755.175 L 452.938 762.898 L 415.813 762.898 L 417.797 755.175 Z " fill-rule="evenodd" fill="rgb(1,1,1)" />
                <path d=" M 456.415 755.175 L 493.103 755.175 L 492.843 762.898 L 455.719 762.898 L 456.415 755.175 Z " fill-rule="evenodd" fill="rgb(1,1,1)" />
                <path d=" M 495.677 755.175 L 532.364 755.175 L 532.749 762.898 L 495.624 762.898 L 495.677 755.175 Z " fill-rule="evenodd" fill="rgb(1,1,1)" />
                <path d=" M 534.939 755.175 L 570.982 755.175 L 572.01 762.898 L 535.53 762.898 L 534.939 755.175 Z " fill-rule="evenodd" fill="rgb(1,1,1)" />
                <path d=" M 574.201 755.175 L 610.244 755.175 L 612.559 762.898 L 575.435 762.898 L 574.201 755.175 Z " fill-rule="evenodd" fill="rgb(1,1,1)" />
                <path d=" M 612.819 755.175 L 648.862 755.175 L 653.109 762.898 L 615.34 762.898 L 612.819 755.175 Z " fill-rule="evenodd" fill="rgb(1,1,1)" />
                <path d=" M 652.081 755.175 L 687.48 755.175 L 692.37 762.898 L 655.246 762.898 L 652.081 755.175 Z " fill-rule="evenodd" fill="rgb(1,1,1)" />
                <path d=" M 690.699 755.175 L 726.099 755.175 L 732.276 762.898 L 695.151 762.898 L 690.699 755.175 Z " fill-rule="evenodd" fill="rgb(1,1,1)" />
                <path d=" M 729.96 755.175 L 794.968 755.175 L 802.048 762.898 L 735.057 762.898 L 729.96 755.175 Z " fill-rule="evenodd" fill="rgb(1,1,1)" />
                <path d=" M 218.162 771.266 L 297.373 771.266 L 291.001 779.633 L 210.546 779.633 L 218.162 771.266 Z " fill-rule="evenodd" fill="rgb(1,1,1)" />
                <path d=" M 300.181 771.266 L 337.986 771.266 L 333.221 779.633 L 294.863 779.633 L 300.181 771.266 Z " fill-rule="evenodd" fill="rgb(1,1,1)" />
                <path d=" M 341.374 771.266 L 388.834 771.266 L 385.999 779.633 L 336.699 779.633 L 341.374 771.266 Z " fill-rule="evenodd" fill="rgb(1,1,1)" />
            </g>
            <path d=" M 271.333 403.106 L 755.347 403.106 L 755.347 714.626 L 271.333 714.626 L 271.333 403.106 Z " fill="rgb(40,53,147)" />
            <path d=" M 532.573 725.911 L 531.743 725.911 L 530.885 723.718 L 528.123 723.718 L 527.274 725.911 L 526.464 725.911 L 529.188 718.99 L 529.862 718.99 L 532.573 725.911 Z  M 528.406 722.997 L 530.636 722.997 L 529.834 720.862 L 529.834 720.862 Q 529.679 720.456 529.514 719.867 L 529.514 719.867 L 529.514 719.867 Q 529.41 720.32 529.217 720.862 L 529.217 720.862 L 528.406 722.997 Z  M 534.185 720.744 L 534.185 725.911 L 533.403 725.911 L 533.403 720.744 L 534.185 720.744 Z  M 533.337 719.344 L 533.337 719.344 L 533.337 719.344 Q 533.337 719.075 533.469 718.95 L 533.469 718.95 L 533.469 718.95 Q 533.601 718.825 533.799 718.825 L 533.799 718.825 L 533.799 718.825 Q 533.987 718.825 534.124 718.952 L 534.124 718.952 L 534.124 718.952 Q 534.261 719.08 534.261 719.344 L 534.261 719.344 L 534.261 719.344 Q 534.261 719.608 534.124 719.737 L 534.124 719.737 L 534.124 719.737 Q 533.987 719.867 533.799 719.867 L 533.799 719.867 L 533.799 719.867 Q 533.601 719.867 533.469 719.737 L 533.469 719.737 L 533.469 719.737 Q 533.337 719.608 533.337 719.344 Z  M 538.202 720.65 L 538.202 720.65 L 538.202 720.65 Q 538.546 720.65 538.819 720.706 L 538.819 720.706 L 538.711 721.432 L 538.711 721.432 Q 538.39 721.361 538.145 721.361 L 538.145 721.361 L 538.145 721.361 Q 537.518 721.361 537.073 721.87 L 537.073 721.87 L 537.073 721.87 Q 536.627 722.38 536.627 723.139 L 536.627 723.139 L 536.627 725.911 L 535.845 725.911 L 535.845 720.744 L 536.491 720.744 L 536.58 721.701 L 536.618 721.701 L 536.618 721.701 Q 536.905 721.196 537.311 720.923 L 537.311 720.923 L 537.311 720.923 Q 537.716 720.65 538.202 720.65 Z  M 486.931 725.911 L 486.285 725.911 L 483.947 719.801 L 483.909 719.801 L 483.909 719.801 Q 483.975 720.527 483.975 721.526 L 483.975 721.526 L 483.975 725.911 L 483.235 725.911 L 483.235 719.018 L 484.442 719.018 L 486.624 724.704 L 486.662 724.704 L 488.864 719.018 L 490.061 719.018 L 490.061 725.911 L 489.26 725.911 L 489.26 721.47 L 489.26 721.47 Q 489.26 720.706 489.326 719.81 L 489.326 719.81 L 489.288 719.81 L 486.931 725.911 Z  M 495.591 725.911 L 495.011 725.911 L 494.855 725.175 L 494.818 725.175 L 494.818 725.175 Q 494.431 725.661 494.047 725.833 L 494.047 725.833 L 494.047 725.833 Q 493.663 726.005 493.088 726.005 L 493.088 726.005 L 493.088 726.005 Q 492.319 726.005 491.883 725.609 L 491.883 725.609 L 491.883 725.609 Q 491.447 725.213 491.447 724.482 L 491.447 724.482 L 491.447 724.482 Q 491.447 722.917 493.95 722.842 L 493.95 722.842 L 494.827 722.813 L 494.827 722.493 L 494.827 722.493 Q 494.827 721.885 494.565 721.595 L 494.565 721.595 L 494.565 721.595 Q 494.304 721.305 493.729 721.305 L 493.729 721.305 L 493.729 721.305 Q 493.083 721.305 492.267 721.701 L 492.267 721.701 L 492.027 721.102 L 492.027 721.102 Q 492.409 720.895 492.864 720.777 L 492.864 720.777 L 492.864 720.777 Q 493.319 720.659 493.776 720.659 L 493.776 720.659 L 493.776 720.659 Q 494.7 720.659 495.145 721.069 L 495.145 721.069 L 495.145 721.069 Q 495.591 721.479 495.591 722.384 L 495.591 722.384 L 495.591 725.911 Z  M 493.243 725.359 L 493.243 725.359 L 493.243 725.359 Q 493.974 725.359 494.391 724.958 L 494.391 724.958 L 494.391 724.958 Q 494.808 724.558 494.808 723.836 L 494.808 723.836 L 494.808 723.37 L 494.026 723.403 L 494.026 723.403 Q 493.092 723.436 492.68 723.693 L 492.68 723.693 L 492.68 723.693 Q 492.267 723.949 492.267 724.492 L 492.267 724.492 L 492.267 724.492 Q 492.267 724.916 492.524 725.137 L 492.524 725.137 L 492.524 725.137 Q 492.781 725.359 493.243 725.359 Z  M 499.268 726.005 L 499.268 726.005 L 499.268 726.005 Q 498.146 726.005 497.531 725.314 L 497.531 725.314 L 497.531 725.314 Q 496.915 724.624 496.915 723.36 L 496.915 723.36 L 496.915 723.36 Q 496.915 722.064 497.54 721.357 L 497.54 721.357 L 497.54 721.357 Q 498.165 720.65 499.32 720.65 L 499.32 720.65 L 499.32 720.65 Q 499.692 720.65 500.064 720.73 L 500.064 720.73 L 500.064 720.73 Q 500.437 720.81 500.649 720.918 L 500.649 720.918 L 500.409 721.583 L 500.409 721.583 Q 500.149 721.479 499.843 721.411 L 499.843 721.411 L 499.843 721.411 Q 499.536 721.343 499.301 721.343 L 499.301 721.343 L 499.301 721.343 Q 497.726 721.343 497.726 723.351 L 497.726 723.351 L 497.726 723.351 Q 497.726 724.303 498.11 724.812 L 498.11 724.812 L 498.11 724.812 Q 498.495 725.321 499.249 725.321 L 499.249 725.321 L 499.249 725.321 Q 499.895 725.321 500.574 725.043 L 500.574 725.043 L 500.574 725.736 L 500.574 725.736 Q 500.055 726.005 499.268 726.005 Z  M 501.917 725.911 L 501.917 719.018 L 503.864 719.018 L 503.864 719.018 Q 505.236 719.018 505.849 719.429 L 505.849 719.429 L 505.849 719.429 Q 506.462 719.839 506.462 720.725 L 506.462 720.725 L 506.462 720.725 Q 506.462 721.338 506.12 721.736 L 506.12 721.736 L 506.12 721.736 Q 505.778 722.134 505.123 722.252 L 505.123 722.252 L 505.123 722.299 L 505.123 722.299 Q 506.693 722.568 506.693 723.949 L 506.693 723.949 L 506.693 723.949 Q 506.693 724.873 506.068 725.392 L 506.068 725.392 L 506.068 725.392 Q 505.443 725.911 504.321 725.911 L 504.321 725.911 L 501.917 725.911 Z  M 502.719 719.711 L 502.719 721.969 L 504.038 721.969 L 504.038 721.969 Q 504.887 721.969 505.259 721.703 L 505.259 721.703 L 505.259 721.703 Q 505.632 721.437 505.632 720.805 L 505.632 720.805 L 505.632 720.805 Q 505.632 720.225 505.217 719.968 L 505.217 719.968 L 505.217 719.968 Q 504.802 719.711 503.897 719.711 L 503.897 719.711 L 502.719 719.711 Z  M 504.09 722.648 L 502.719 722.648 L 502.719 725.227 L 504.156 725.227 L 504.156 725.227 Q 504.991 725.227 505.413 724.904 L 505.413 724.904 L 505.413 724.904 Q 505.835 724.581 505.835 723.893 L 505.835 723.893 L 505.835 723.893 Q 505.835 723.252 505.403 722.95 L 505.403 722.95 L 505.403 722.95 Q 504.972 722.648 504.09 722.648 L 504.09 722.648 Z  M 512.514 723.322 L 512.514 723.322 L 512.514 723.322 Q 512.514 724.586 511.878 725.295 L 511.878 725.295 L 511.878 725.295 Q 511.242 726.005 510.12 726.005 L 510.12 726.005 L 510.12 726.005 Q 509.427 726.005 508.889 725.68 L 508.889 725.68 L 508.889 725.68 Q 508.352 725.354 508.06 724.746 L 508.06 724.746 L 508.06 724.746 Q 507.767 724.138 507.767 723.322 L 507.767 723.322 L 507.767 723.322 Q 507.767 722.059 508.399 721.354 L 508.399 721.354 L 508.399 721.354 Q 509.031 720.65 510.153 720.65 L 510.153 720.65 L 510.153 720.65 Q 511.237 720.65 511.876 721.371 L 511.876 721.371 L 511.876 721.371 Q 512.514 722.092 512.514 723.322 Z  M 508.578 723.322 L 508.578 723.322 L 508.578 723.322 Q 508.578 724.312 508.974 724.831 L 508.974 724.831 L 508.974 724.831 Q 509.37 725.35 510.139 725.35 L 510.139 725.35 L 510.139 725.35 Q 510.907 725.35 511.305 724.833 L 511.305 724.833 L 511.305 724.833 Q 511.704 724.317 511.704 723.322 L 511.704 723.322 L 511.704 723.322 Q 511.704 722.337 511.305 721.826 L 511.305 721.826 L 511.305 721.826 Q 510.907 721.314 510.129 721.314 L 510.129 721.314 L 510.129 721.314 Q 509.361 721.314 508.969 721.819 L 508.969 721.819 L 508.969 721.819 Q 508.578 722.323 508.578 723.322 Z  M 518.346 723.322 L 518.346 723.322 L 518.346 723.322 Q 518.346 724.586 517.709 725.295 L 517.709 725.295 L 517.709 725.295 Q 517.073 726.005 515.951 726.005 L 515.951 726.005 L 515.951 726.005 Q 515.258 726.005 514.721 725.68 L 514.721 725.68 L 514.721 725.68 Q 514.183 725.354 513.891 724.746 L 513.891 724.746 L 513.891 724.746 Q 513.599 724.138 513.599 723.322 L 513.599 723.322 L 513.599 723.322 Q 513.599 722.059 514.23 721.354 L 514.23 721.354 L 514.23 721.354 Q 514.862 720.65 515.984 720.65 L 515.984 720.65 L 515.984 720.65 Q 517.068 720.65 517.707 721.371 L 517.707 721.371 L 517.707 721.371 Q 518.346 722.092 518.346 723.322 Z  M 514.41 723.322 L 514.41 723.322 L 514.41 723.322 Q 514.41 724.312 514.806 724.831 L 514.806 724.831 L 514.806 724.831 Q 515.202 725.35 515.97 725.35 L 515.97 725.35 L 515.97 725.35 Q 516.738 725.35 517.137 724.833 L 517.137 724.833 L 517.137 724.833 Q 517.535 724.317 517.535 723.322 L 517.535 723.322 L 517.535 723.322 Q 517.535 722.337 517.137 721.826 L 517.137 721.826 L 517.137 721.826 Q 516.738 721.314 515.961 721.314 L 515.961 721.314 L 515.961 721.314 Q 515.192 721.314 514.801 721.819 L 514.801 721.819 L 514.801 721.819 Q 514.41 722.323 514.41 723.322 Z  M 520.453 723.266 L 520.491 723.266 L 520.491 723.266 Q 520.693 722.978 521.108 722.512 L 521.108 722.512 L 522.777 720.744 L 523.706 720.744 L 521.613 722.945 L 523.852 725.911 L 522.904 725.911 L 521.08 723.469 L 520.491 723.978 L 520.491 725.911 L 519.718 725.911 L 519.718 718.575 L 520.491 718.575 L 520.491 722.464 L 520.491 722.464 Q 520.491 722.724 520.453 723.266 L 520.453 723.266 Z " fill-rule="evenodd" fill="rgb(250,250,250)" />
        </g>
        <g id="Windows">
            <path d=" M 271.333 694.626 L 755.333 694.626 L 755.333 714.626 L 271.333 714.626 L 271.333 694.626 Z " fill="rgb(0,0,0)" />
            <path d=" M 271.333 694.626 L 291.333 694.626 L 291.333 714.626 L 271.333 714.626 L 271.333 694.626 Z " fill="rgb(33,33,33)" />
            <g id="windows logo">
                <path d=" M 281.111 707.463 L 281.111 704.848 L 284.667 704.848 L 284.667 707.959 L 281.111 707.463 L 281.111 707.463 Z  M 281.111 701.789 L 284.667 701.292 L 284.667 704.404 L 281.111 704.404 L 281.111 701.789 L 281.111 701.789 Z  M 278 707.029 L 278 704.848 L 280.667 704.848 L 280.667 707.4 L 278 707.029 L 278 707.029 Z  M 278 704.404 L 278 702.223 L 280.667 701.852 L 280.667 704.404 L 278 704.404 L 278 704.404 Z " fill-rule="evenodd" fill="rgb(250,250,250)" />
            </g>
            <mask id="_mask_cET6WqWhqT7IFqeIOHygluBa9ANPx1Nx" x="-200%" y="-200%" width="400%" height="400%">
                <rect x="0" y="0" width="100%" height="100%" style="fill:white;" />
                <path d=" M 298 704.626 C 298 702.418 299.792 700.626 302 700.626 C 304.208 700.626 306 702.418 306 704.626 C 306 706.833 304.208 708.626 302 708.626 C 299.792 708.626 298 706.833 298 704.626 Z " fill="black" stroke="none" />
            </mask>
            <path d=" M 298 704.626 C 298 702.418 299.792 700.626 302 700.626 C 304.208 700.626 306 702.418 306 704.626 C 306 706.833 304.208 708.626 302 708.626 C 299.792 708.626 298 706.833 298 704.626 Z " fill="none" mask="url(#_mask_cET6WqWhqT7IFqeIOHygluBa9ANPx1Nx)" vector-effect="non-scaling-stroke" stroke-width="2.133" stroke="rgb(250,250,250)" stroke-linejoin="miter" stroke-linecap="square" stroke-miterlimit="3" />
            <g id="preview and hide">
                <mask id="_mask_k5rB8aLFc7FYuNB0rsYwtrFXM4Aubf1k" x="-200%" y="-200%" width="400%" height="400%">
                    <rect x="0" y="0" width="100%" height="100%" style="fill:white;" />
                    <rect x="314.667" y="701.959" width="11.333" height="5.333" transform="matrix(1,0,0,1,0,0)" fill="black" stroke="none" />
                </mask>
                <rect x="314.667" y="701.959" width="11.333" height="5.333" transform="matrix(1,0,0,1,0,0)" fill="rgb(0,0,0)" mask="url(#_mask_k5rB8aLFc7FYuNB0rsYwtrFXM4Aubf1k)" vector-effect="non-scaling-stroke" stroke-width="1.333" stroke="rgb(250,250,250)" stroke-linejoin="miter" stroke-linecap="square" stroke-miterlimit="3" />
                <mask id="_mask_1beluaeCZvg0zcBcuO7XDbOPRcRIeu1m" x="-200%" y="-200%" width="400%" height="400%">
                    <rect x="0" y="0" width="100%" height="100%" style="fill:white;" />
                    <rect x="316.333" y="700.626" width="8" height="8" transform="matrix(1,0,0,1,0,0)" fill="black" stroke="none" />
                </mask>
                <rect x="316.333" y="700.626" width="8" height="8" transform="matrix(1,0,0,1,0,0)" fill="rgb(0,0,0)" mask="url(#_mask_1beluaeCZvg0zcBcuO7XDbOPRcRIeu1m)" vector-effect="non-scaling-stroke" stroke-width="1.333" stroke="rgb(250,250,250)" stroke-linejoin="miter" stroke-linecap="square" stroke-miterlimit="3" />
            </g>
            <g id="Edge">
                <path d=" M 343.873 700.965 C 343.86 700.946 343.846 700.927 343.832 700.908 C 342.802 699.523 341.157 698.626 339.304 698.626 C 336.308 698.626 333.857 700.972 333.667 703.936 C 334.123 703.104 336.208 700.906 338.977 700.906 C 341.746 700.906 341.487 703.485 341.487 703.485 L 337.15 703.485 C 337.23 702.469 337.972 701.601 337.972 701.601 C 334.907 702.832 335.044 705.935 335.044 705.935 C 335.119 707.386 335.6 708.388 336.239 709.081 C 337.754 710.722 340.158 710.625 340.158 710.625 C 342.322 710.625 343.781 709.763 343.781 709.763 L 343.781 707.25 C 343.781 707.25 342.527 708.121 340.467 708.155 C 337.033 708.087 337.199 705.595 337.199 705.595 L 344.808 705.595 L 344.809 705.594 L 344.809 704.26 C 344.809 704.26 344.877 702.364 343.873 700.965 L 343.873 700.965 Z " fill="rgb(33,150,243)" />
            </g>
            <g id="windows explorer">
                <path d=" M 351.339 699.93 L 364.922 699.93 C 365.284 699.93 365.578 700.224 365.578 700.586 L 365.578 709.346 C 365.578 709.708 365.284 710.002 364.922 710.002 L 351.995 709.992 C 351.633 709.992 351.339 709.697 351.339 709.335 L 351.339 699.93 Z " fill="rgb(255,224,130)" />
                <path d=" M 352.184 698.626 L 356.728 698.626 C 357.017 698.626 357.409 698.801 357.602 699.017 L 358.36 699.864 L 357.627 700.687 C 357.434 700.903 357.042 701.079 356.752 701.079 L 351.339 701.087 L 351.333 699.479 C 351.332 699.008 351.713 698.626 352.184 698.626 Z " fill="rgb(255,202,40)" />
                <rect x="352.167" y="699.503" width="3.035" height="0.689" transform="matrix(1,0,0,1,0,0)" fill="rgb(250,250,250)" />
                <rect x="352.167" y="699.503" width="0.689" height="0.689" transform="matrix(1,0,0,1,0,0)" fill="rgb(66,165,245)" />
                <path d=" M 354.899 704.655 L 362.051 704.655 C 362.739 704.655 363.298 705.213 363.298 705.901 L 363.298 710.609 L 360.804 710.626 L 360.837 707.017 L 356.112 707.017 L 356.096 710.609 L 353.652 710.609 L 353.652 705.901 C 353.652 705.213 354.21 704.655 354.899 704.655 Z " fill="rgb(66,165,245)" />
            </g>
            <g id="windows store">
                <path d=" M 382.645 702.01 L 383.707 702.392 L 383.707 709.298 L 382.658 709.644 L 375.067 708.581 L 375.067 703.071 L 382.645 702.01 Z  M 382.747 701.027 L 374.107 702.236 L 374.107 709.416 L 382.747 710.626 L 384.667 709.992 L 384.667 701.717 L 382.747 701.027 Z " fill="rgb(250,250,250)" />
                <path d=" M 374.711 708.911 L 374.711 702.768 L 382.391 701.744 L 383.926 702.256 L 383.926 709.423 L 382.391 709.935 L 374.711 708.911 Z " fill="rgb(250,250,250)" />
                <path d=" M 377.947 705.346 L 377.947 703.638 L 376.027 703.906 L 376.027 705.346 L 377.947 705.346 Z " fill="rgb(0,0,0)" />
                <path d=" M 378.427 705.346 L 380.827 705.346 L 380.827 703.234 L 378.427 703.57 L 378.427 705.346 Z " fill="rgb(0,0,0)" />
                <path d=" M 378.427 705.826 L 378.427 707.602 L 380.827 707.938 L 380.827 705.826 L 378.427 705.826 Z " fill="rgb(0,0,0)" />
                <path d=" M 377.947 705.826 L 376.027 705.826 L 376.027 707.266 L 377.947 707.535 L 377.947 705.826 Z " fill="rgb(0,0,0)" />
                <path d=" M 376.989 702.097 L 376.027 702.097 L 376.027 700.387 C 376.027 700.387 376.027 700.387 376.027 700.387 C 376.027 699.767 376.426 699.215 377.01 699.02 L 378.008 698.687 L 378.351 698.636 C 378.377 698.631 378.402 698.626 378.428 698.626 C 378.73 698.626 379.022 698.723 379.268 698.897 C 379.646 699.169 379.867 699.604 379.867 700.07 C 379.867 700.07 379.867 700.07 379.867 700.07 L 379.867 700.07 L 379.867 702.097 L 379.867 702.097 L 378.909 702.097 L 378.909 700.07 L 378.909 700.07 C 378.909 699.911 378.832 699.767 378.71 699.68 C 378.633 699.624 378.551 699.593 378.459 699.588 L 378.239 699.624 L 377.317 699.931 C 377.317 699.931 377.317 699.931 377.317 699.931 C 377.122 699.998 376.989 700.182 376.989 700.387" fill="rgb(250,250,250)" />
                <path d=" M 381.786 701.508 L 380.829 701.508 L 380.829 700.546 C 380.829 700.392 380.752 700.249 380.629 700.157 C 380.553 700.105 380.471 700.075 380.379 700.07 L 380.158 700.105 L 379.539 700.31 L 379.237 699.399 L 379.928 699.169 L 380.271 699.112 C 380.297 699.112 380.322 699.107 380.348 699.107 C 380.65 699.107 380.942 699.204 381.187 699.378 C 381.566 699.65 381.786 700.085 381.786 700.546 C 381.786 700.546 381.786 700.546 381.786 700.546 L 381.786 701.508 Z " fill="rgb(250,250,250)" />
            </g>
            <g id="wifi">
                <path d=" M 654.666 709.108 C 654.666 708.188 654.786 707.302 655.025 706.452 C 655.258 705.616 655.597 704.813 656.034 704.063 C 656.466 703.324 656.991 702.643 657.596 702.038 C 658.201 701.432 658.882 700.907 659.621 700.475 C 660.371 700.038 661.174 699.699 662.01 699.466 C 662.875 699.226 663.769 699.105 664.666 699.108 L 664.666 699.942 C 663.824 699.942 663.014 700.051 662.235 700.271 C 661.469 700.484 660.734 700.795 660.047 701.195 C 659.369 701.592 658.744 702.074 658.189 702.631 C 657.632 703.186 657.15 703.811 656.753 704.489 C 656.353 705.176 656.043 705.911 655.829 706.676 C 655.608 707.468 655.497 708.286 655.5 709.108 L 654.667 709.108 L 654.666 709.108 Z " fill-rule="evenodd" fill="rgb(35,31,32)" />
                <path d=" M 657.166 709.108 C 657.166 708.418 657.255 707.753 657.433 707.112 C 657.606 706.484 657.86 705.881 658.189 705.319 C 658.513 704.765 658.907 704.256 659.36 703.802 C 659.814 703.348 660.324 702.954 660.877 702.63 C 661.44 702.302 662.043 702.048 662.671 701.875 C 663.321 701.696 663.992 701.606 664.667 701.608 L 664.667 702.441 C 664.069 702.439 663.475 702.519 662.899 702.679 C 661.786 702.988 660.773 703.58 659.957 704.398 C 659.553 704.802 659.202 705.255 658.912 705.748 C 658.619 706.247 658.393 706.782 658.238 707.34 C 658.078 707.915 657.998 708.51 658 709.108 L 657.166 709.108 L 657.166 709.108 Z " fill-rule="evenodd" fill="rgb(238,238,238)" />
                <path d=" M 659.666 709.108 C 659.666 708.648 659.726 708.205 659.845 707.78 C 659.962 707.362 660.131 706.96 660.35 706.585 C 660.566 706.216 660.828 705.876 661.131 705.573 C 661.434 705.27 661.774 705.008 662.143 704.792 C 662.518 704.573 662.92 704.404 663.338 704.288 C 663.77 704.167 664.217 704.107 664.666 704.108 L 664.666 704.942 C 664.284 704.942 663.916 704.992 663.56 705.091 C 663.204 705.191 662.872 705.331 662.564 705.511 C 661.946 705.873 661.431 706.387 661.07 707.005 C 660.888 707.318 660.746 707.652 660.65 708.001 C 660.55 708.356 660.5 708.726 660.5 709.108 L 659.666 709.108 L 659.666 709.108 Z " fill-rule="evenodd" fill="rgb(238,238,238)" />
                <path d=" M 663.416 706.608 C 663.748 706.607 664.066 706.739 664.301 706.973 C 664.535 707.208 664.666 707.526 664.666 707.858 C 664.667 708.19 664.536 708.508 664.301 708.743 C 664.187 708.857 664.053 708.947 663.904 709.01 C 663.753 709.075 663.59 709.108 663.416 709.108 C 663.085 709.108 662.766 708.977 662.531 708.743 C 662.418 708.629 662.327 708.494 662.264 708.346 C 662.198 708.192 662.165 708.026 662.166 707.858 C 662.166 707.526 662.297 707.208 662.531 706.973 C 662.645 706.859 662.78 706.769 662.928 706.706 C 663.08 706.64 663.243 706.608 663.416 706.608 Z " fill-rule="evenodd" fill="rgb(238,238,238)" />
            </g>
            <g id="sound">
                <path d=" M 678.604 702.626 C 678.873 702.886 679.087 703.198 679.233 703.543 C 679.381 703.889 679.455 704.25 679.455 704.626 C 679.455 705.001 679.381 705.363 679.233 705.708 C 679.087 706.053 678.873 706.365 678.604 706.626 L 678.093 706.129 C 678.298 705.929 678.455 705.7 678.564 705.44 C 678.673 705.183 678.729 704.906 678.729 704.626 C 678.729 704.346 678.674 704.069 678.564 703.811 C 678.455 703.552 678.295 703.318 678.093 703.123 L 678.604 702.626 L 678.604 702.626 Z " fill-rule="evenodd" fill="rgb(250,250,250)" />
                <path d=" M 680.146 701.123 C 680.382 701.352 680.594 701.605 680.778 701.877 C 681.145 702.415 681.401 703.021 681.532 703.659 C 681.665 704.298 681.665 704.957 681.532 705.595 C 681.467 705.912 681.37 706.222 681.243 706.52 C 681.116 706.819 680.961 707.105 680.778 707.374 C 680.594 707.646 680.382 707.899 680.146 708.128 L 679.63 707.625 C 680.034 707.234 680.355 706.766 680.574 706.249 C 680.794 705.736 680.907 705.184 680.905 704.625 C 680.907 704.067 680.794 703.514 680.574 703.001 C 680.355 702.484 680.034 702.016 679.63 701.625 L 680.146 701.123 L 680.146 701.123 Z " fill-rule="evenodd" fill="rgb(250,250,250)" />
                <path d=" M 681.683 699.626 C 682.02 699.954 682.323 700.315 682.588 700.703 C 682.85 701.09 683.072 701.496 683.253 701.922 C 683.435 702.347 683.572 702.787 683.665 703.242 C 683.757 703.697 683.803 704.158 683.803 704.626 C 683.803 705.093 683.757 705.555 683.665 706.01 C 683.572 706.463 683.435 706.905 683.253 707.33 C 683.071 707.757 682.848 708.165 682.588 708.548 C 682.323 708.937 682.02 709.298 681.683 709.626 L 681.172 709.129 C 681.476 708.834 681.748 708.509 681.986 708.159 C 682.458 707.468 682.787 706.691 682.956 705.872 C 683.126 705.05 683.126 704.202 682.956 703.38 C 682.787 702.561 682.457 701.783 681.986 701.092 C 681.748 700.743 681.476 700.418 681.172 700.123 L 681.683 699.626 Z " fill-rule="evenodd" fill="rgb(35,31,32)" />
                <path d=" M 676.035 700.383 L 676.551 700.383 L 676.551 708.869 L 676.035 708.869 L 673.858 706.748 L 672.197 706.748 L 672.197 702.504 L 673.858 702.504 L 676.035 700.383 L 676.035 700.383 Z  M 675.825 701.593 L 674.164 703.212 L 672.922 703.212 L 672.922 706.04 L 674.164 706.04 L 675.825 707.659 L 675.825 701.593 Z " fill-rule="evenodd" fill="rgb(250,250,250)" />
            </g>
            <g id="notifications">
                <path d=" M 692.397 699.626 L 704.667 699.626 L 704.667 708.021 L 700.075 708.021 L 698.532 709.626 L 697.178 708.021 L 692.397 708.021 L 692.397 699.626 L 692.397 699.626 Z " fill-rule="evenodd" fill="rgb(238,238,238)" />
                <rect x="693.286" y="700.743" width="10.604" height="0.872" transform="matrix(1,0,0,1,0,0)" fill="rgb(33,33,33)" />
                <rect x="693.286" y="702.488" width="10.604" height="0.872" transform="matrix(1,0,0,1,0,0)" fill="rgb(33,33,33)" />
                <rect x="693.286" y="704.233" width="10.604" height="0.872" transform="matrix(1,0,0,1,0,0)" fill="rgb(33,33,33)" />
                <rect x="693.286" y="705.978" width="10.604" height="0.872" transform="matrix(1,0,0,1,0,0)" fill="rgb(33,33,33)" />
            </g>
            <path d=" M 717.321 706.181 L 717.321 710.739 L 717.015 710.739 L 717.015 707.419 L 717.015 707.419 Q 717.015 706.967 717.053 706.481 L 717.053 706.481 L 717.053 706.481 Q 717.006 706.527 716.956 706.571 L 716.956 706.571 L 716.956 706.571 Q 716.906 706.615 715.993 707.329 L 715.993 707.329 L 715.815 707.107 L 717.053 706.181 L 717.321 706.181 Z  M 720.613 706.181 L 720.94 706.181 L 719.241 710.739 L 718.917 710.739 L 720.613 706.181 Z  M 724.22 710.44 L 724.22 710.739 L 721.367 710.739 L 721.367 710.465 L 722.58 709.199 L 722.58 709.199 Q 723.091 708.669 723.297 708.388 L 723.297 708.388 L 723.297 708.388 Q 723.503 708.108 723.599 707.852 L 723.599 707.852 L 723.599 707.852 Q 723.696 707.597 723.696 707.316 L 723.696 707.316 L 723.696 707.316 Q 723.696 706.908 723.428 706.652 L 723.428 706.652 L 723.428 706.652 Q 723.16 706.396 722.733 706.396 L 722.733 706.396 L 722.733 706.396 Q 722.162 706.396 721.642 706.811 L 721.642 706.811 L 721.473 706.596 L 721.473 706.596 Q 722.044 706.116 722.739 706.116 L 722.739 706.116 L 722.739 706.116 Q 723.334 706.116 723.676 706.434 L 723.676 706.434 L 723.676 706.434 Q 724.017 706.752 724.017 707.31 L 724.017 707.31 L 724.017 707.31 Q 724.017 707.762 723.788 708.184 L 723.788 708.184 L 723.788 708.184 Q 723.559 708.607 722.951 709.227 L 722.951 709.227 L 721.782 710.427 L 721.782 710.44 L 724.22 710.44 Z  M 726.333 707.999 L 726.333 707.999 L 726.333 707.999 Q 727.063 707.999 727.482 708.351 L 727.482 708.351 L 727.482 708.351 Q 727.901 708.703 727.901 709.321 L 727.901 709.321 L 727.901 709.321 Q 727.901 710.022 727.465 710.412 L 727.465 710.412 L 727.465 710.412 Q 727.028 710.801 726.262 710.801 L 726.262 710.801 L 726.262 710.801 Q 725.922 710.801 725.616 710.734 L 725.616 710.734 L 725.616 710.734 Q 725.311 710.667 725.105 710.543 L 725.105 710.543 L 725.105 710.221 L 725.105 710.221 Q 725.442 710.393 725.704 710.46 L 725.704 710.46 L 725.704 710.46 Q 725.965 710.527 726.262 710.527 L 726.262 710.527 L 726.262 710.527 Q 726.86 710.527 727.222 710.211 L 727.222 710.211 L 727.222 710.211 Q 727.583 709.894 727.583 709.355 L 727.583 709.355 L 727.583 709.355 Q 727.583 708.847 727.231 708.557 L 727.231 708.557 L 727.231 708.557 Q 726.879 708.267 726.274 708.267 L 726.274 708.267 L 726.274 708.267 Q 725.869 708.267 725.426 708.388 L 725.426 708.388 L 725.239 708.267 L 725.42 706.181 L 727.614 706.181 L 727.614 706.481 L 725.713 706.481 L 725.573 708.089 L 725.573 708.089 Q 726.059 707.999 726.333 707.999 Z  M 730.077 706.181 L 730.405 706.181 L 728.706 710.739 L 728.381 710.739 L 730.077 706.181 Z  M 733.684 710.44 L 733.684 710.739 L 730.832 710.739 L 730.832 710.465 L 732.044 709.199 L 732.044 709.199 Q 732.556 708.669 732.761 708.388 L 732.761 708.388 L 732.761 708.388 Q 732.967 708.108 733.064 707.852 L 733.064 707.852 L 733.064 707.852 Q 733.16 707.597 733.16 707.316 L 733.16 707.316 L 733.16 707.316 Q 733.16 706.908 732.892 706.652 L 732.892 706.652 L 732.892 706.652 Q 732.624 706.396 732.197 706.396 L 732.197 706.396 L 732.197 706.396 Q 731.627 706.396 731.106 706.811 L 731.106 706.811 L 730.938 706.596 L 730.938 706.596 Q 731.508 706.116 732.203 706.116 L 732.203 706.116 L 732.203 706.116 Q 732.799 706.116 733.14 706.434 L 733.14 706.434 L 733.14 706.434 Q 733.481 706.752 733.481 707.31 L 733.481 707.31 L 733.481 707.31 Q 733.481 707.762 733.252 708.184 L 733.252 708.184 L 733.252 708.184 Q 733.023 708.607 732.415 709.227 L 732.415 709.227 L 731.246 710.427 L 731.246 710.44 L 733.684 710.44 Z  M 737.412 708.448 L 737.412 708.448 L 737.412 708.448 Q 737.412 709.648 737.046 710.225 L 737.046 710.225 L 737.046 710.225 Q 736.68 710.801 735.938 710.801 L 735.938 710.801 L 735.938 710.801 Q 735.224 710.801 734.853 710.207 L 734.853 710.207 L 734.853 710.207 Q 734.482 709.614 734.482 708.448 L 734.482 708.448 L 734.482 708.448 Q 734.482 707.257 734.842 706.683 L 734.842 706.683 L 734.842 706.683 Q 735.202 706.11 735.938 706.11 L 735.938 706.11 L 735.938 706.11 Q 736.658 706.11 737.035 706.703 L 737.035 706.703 L 737.035 706.703 Q 737.412 707.297 737.412 708.448 Z  M 734.819 708.448 L 734.819 708.448 L 734.819 708.448 Q 734.819 709.508 735.096 710.014 L 735.096 710.014 L 735.096 710.014 Q 735.374 710.521 735.938 710.521 L 735.938 710.521 L 735.938 710.521 Q 736.527 710.521 736.797 709.997 L 736.797 709.997 L 736.797 709.997 Q 737.066 709.473 737.066 708.448 L 737.066 708.448 L 737.066 708.448 Q 737.066 707.438 736.797 706.914 L 736.797 706.914 L 736.797 706.914 Q 736.527 706.39 735.938 706.39 L 735.938 706.39 L 735.938 706.39 Q 735.349 706.39 735.084 706.914 L 735.084 706.914 L 735.084 706.914 Q 734.819 707.438 734.819 708.448 Z  M 739.894 706.181 L 739.894 710.739 L 739.588 710.739 L 739.588 707.419 L 739.588 707.419 Q 739.588 706.967 739.626 706.481 L 739.626 706.481 L 739.626 706.481 Q 739.579 706.527 739.529 706.571 L 739.529 706.571 L 739.529 706.571 Q 739.479 706.615 738.566 707.329 L 738.566 707.329 L 738.388 707.107 L 739.626 706.181 L 739.894 706.181 Z  M 743.226 706.103 L 743.226 706.103 L 743.226 706.103 Q 743.806 706.103 744.16 706.4 L 744.16 706.4 L 744.16 706.4 Q 744.514 706.696 744.514 707.201 L 744.514 707.201 L 744.514 707.201 Q 744.514 707.55 744.294 707.818 L 744.294 707.818 L 744.294 707.818 Q 744.074 708.086 743.582 708.314 L 743.582 708.314 L 743.582 708.314 Q 744.18 708.56 744.424 708.853 L 744.424 708.853 L 744.424 708.853 Q 744.667 709.146 744.667 709.564 L 744.667 709.564 L 744.667 709.564 Q 744.667 710.128 744.272 710.465 L 744.272 710.465 L 744.272 710.465 Q 743.878 710.801 743.214 710.801 L 743.214 710.801 L 743.214 710.801 Q 742.525 710.801 742.157 710.486 L 742.157 710.486 L 742.157 710.486 Q 741.789 710.172 741.789 709.57 L 741.789 709.57 L 741.789 709.57 Q 741.789 709.162 742.048 708.853 L 742.048 708.853 L 742.048 708.853 Q 742.307 708.544 742.849 708.326 L 742.849 708.326 L 742.849 708.326 Q 742.347 708.089 742.142 707.826 L 742.142 707.826 L 742.142 707.826 Q 741.936 707.562 741.936 707.194 L 741.936 707.194 L 741.936 707.194 Q 741.936 706.867 742.101 706.619 L 742.101 706.619 L 742.101 706.619 Q 742.266 706.371 742.564 706.237 L 742.564 706.237 L 742.564 706.237 Q 742.862 706.103 743.226 706.103 Z  M 742.107 709.617 L 742.107 709.617 L 742.107 709.617 Q 742.107 710.047 742.399 710.284 L 742.399 710.284 L 742.399 710.284 Q 742.69 710.521 743.214 710.521 L 743.214 710.521 L 743.214 710.521 Q 743.725 710.521 744.037 710.27 L 744.037 710.27 L 744.037 710.27 Q 744.349 710.019 744.349 709.589 L 744.349 709.589 L 744.349 709.589 Q 744.349 709.202 744.104 708.96 L 744.104 708.96 L 744.104 708.96 Q 743.859 708.719 743.161 708.454 L 743.161 708.454 L 743.161 708.454 Q 742.587 708.675 742.347 708.943 L 742.347 708.943 L 742.347 708.943 Q 742.107 709.211 742.107 709.617 Z  M 743.22 706.384 L 743.22 706.384 L 743.22 706.384 Q 742.781 706.384 742.514 706.601 L 742.514 706.601 L 742.514 706.601 Q 742.248 706.817 742.248 707.194 L 742.248 707.194 L 742.248 707.194 Q 742.248 707.413 742.346 707.579 L 742.346 707.579 L 742.346 707.579 Q 742.444 707.746 742.629 707.882 L 742.629 707.882 L 742.629 707.882 Q 742.815 708.017 743.251 708.198 L 743.251 708.198 L 743.251 708.198 Q 743.76 708.002 743.981 707.765 L 743.981 707.765 L 743.981 707.765 Q 744.202 707.528 744.202 707.194 L 744.202 707.194 L 744.202 707.194 Q 744.202 706.82 743.939 706.602 L 743.939 706.602 L 743.939 706.602 Q 743.675 706.384 743.22 706.384 Z  M 735.983 702.045 L 735.35 700.436 L 733.499 700.436 L 732.863 702.045 L 732.51 702.045 L 734.343 697.468 L 734.546 697.468 L 736.342 702.045 L 735.983 702.045 Z  M 734.253 698.513 L 733.614 700.149 L 735.244 700.149 L 734.624 698.506 L 734.624 698.506 Q 734.546 698.313 734.437 697.97 L 734.437 697.97 L 734.437 697.97 Q 734.353 698.269 734.253 698.513 L 734.253 698.513 Z  M 739.194 702.045 L 738.991 702.045 L 737.292 697.836 L 737.268 697.836 L 737.268 697.836 Q 737.292 698.223 737.292 698.628 L 737.292 698.628 L 737.292 702.045 L 736.987 702.045 L 736.987 697.487 L 737.479 697.487 L 739.094 701.496 L 739.113 701.496 L 740.728 697.487 L 741.208 697.487 L 741.208 702.045 L 740.887 702.045 L 740.887 698.59 L 740.887 698.59 Q 740.887 698.229 740.924 697.842 L 740.924 697.842 L 740.899 697.842 L 739.194 702.045 Z  M 718.809 700.102 L 718.809 700.102 L 718.809 700.102 Q 718.809 699.214 719.051 698.608 L 719.051 698.608 L 719.051 698.608 Q 719.293 698.001 719.737 697.708 L 719.737 697.708 L 719.737 697.708 Q 720.181 697.415 720.808 697.415 L 720.808 697.415 L 720.808 697.415 Q 721.101 697.415 721.344 697.487 L 721.344 697.487 L 721.344 697.761 L 721.344 697.761 Q 721.116 697.677 720.795 697.677 L 720.795 697.677 L 720.795 697.677 Q 720.025 697.677 719.597 698.232 L 719.597 698.232 L 719.597 698.232 Q 719.168 698.787 719.115 699.847 L 719.115 699.847 L 719.155 699.847 L 719.155 699.847 Q 719.392 699.541 719.698 699.385 L 719.698 699.385 L 719.698 699.385 Q 720.003 699.23 720.343 699.23 L 720.343 699.23 L 720.343 699.23 Q 720.982 699.23 721.342 699.594 L 721.342 699.594 L 721.342 699.594 Q 721.702 699.959 721.702 700.601 L 721.702 700.601 L 721.702 700.601 Q 721.702 701.299 721.324 701.703 L 721.324 701.703 L 721.324 701.703 Q 720.945 702.107 720.303 702.107 L 720.303 702.107 L 720.303 702.107 Q 719.611 702.107 719.21 701.578 L 719.21 701.578 L 719.21 701.578 Q 718.809 701.05 718.809 700.102 Z  M 720.303 701.833 L 720.303 701.833 L 720.303 701.833 Q 720.814 701.833 721.098 701.511 L 721.098 701.511 L 721.098 701.511 Q 721.381 701.19 721.381 700.595 L 721.381 700.595 L 721.381 700.595 Q 721.381 700.071 721.101 699.778 L 721.101 699.778 L 721.101 699.778 Q 720.82 699.485 720.337 699.485 L 720.337 699.485 L 720.337 699.485 Q 720.019 699.485 719.746 699.625 L 719.746 699.625 L 719.746 699.625 Q 719.473 699.766 719.311 699.998 L 719.311 699.998 L 719.311 699.998 Q 719.149 700.23 719.149 700.473 L 719.149 700.473 L 719.149 700.473 Q 719.149 700.819 719.303 701.139 L 719.303 701.139 L 719.303 701.139 Q 719.458 701.458 719.721 701.645 L 719.721 701.645 L 719.721 701.645 Q 719.985 701.833 720.303 701.833 Z  M 722.55 701.801 L 722.55 701.801 L 722.55 701.801 Q 722.55 701.496 722.8 701.496 L 722.8 701.496 L 722.8 701.496 Q 723.055 701.496 723.055 701.801 L 723.055 701.801 L 723.055 701.801 Q 723.055 702.107 722.8 702.107 L 722.8 702.107 L 722.8 702.107 Q 722.55 702.107 722.55 701.801 Z  M 722.55 699.018 L 722.55 699.018 L 722.55 699.018 Q 722.55 698.712 722.8 698.712 L 722.8 698.712 L 722.8 698.712 Q 723.055 698.712 723.055 699.018 L 723.055 699.018 L 723.055 699.018 Q 723.055 699.183 722.982 699.254 L 722.982 699.254 L 722.982 699.254 Q 722.909 699.326 722.8 699.326 L 722.8 699.326 L 722.8 699.326 Q 722.694 699.326 722.622 699.254 L 722.622 699.254 L 722.622 699.254 Q 722.55 699.183 722.55 699.018 Z  M 726.615 698.559 L 726.615 698.559 L 726.615 698.559 Q 726.615 698.983 726.349 699.273 L 726.349 699.273 L 726.349 699.273 Q 726.082 699.563 725.633 699.644 L 725.633 699.644 L 725.633 699.663 L 725.633 699.663 Q 726.182 699.731 726.469 700.012 L 726.469 700.012 L 726.469 700.012 Q 726.756 700.293 726.756 700.766 L 726.756 700.766 L 726.756 700.766 Q 726.756 701.405 726.321 701.756 L 726.321 701.756 L 726.321 701.756 Q 725.886 702.107 725.069 702.107 L 725.069 702.107 L 725.069 702.107 Q 724.374 702.107 723.856 701.848 L 723.856 701.848 L 723.856 701.54 L 723.856 701.54 Q 724.118 701.677 724.444 701.755 L 724.444 701.755 L 724.444 701.755 Q 724.77 701.833 725.057 701.833 L 725.057 701.833 L 725.057 701.833 Q 725.746 701.833 726.092 701.554 L 726.092 701.554 L 726.092 701.554 Q 726.438 701.275 726.438 700.766 L 726.438 700.766 L 726.438 700.766 Q 726.438 700.314 726.084 700.071 L 726.084 700.071 L 726.084 700.071 Q 725.73 699.828 725.044 699.828 L 725.044 699.828 L 724.552 699.828 L 724.552 699.529 L 725.05 699.529 L 725.05 699.529 Q 725.618 699.529 725.95 699.259 L 725.95 699.259 L 725.95 699.259 Q 726.282 698.989 726.282 698.528 L 726.282 698.528 L 726.282 698.528 Q 726.282 698.148 726.012 697.919 L 726.012 697.919 L 726.012 697.919 Q 725.742 697.69 725.306 697.69 L 725.306 697.69 L 725.306 697.69 Q 724.966 697.69 724.686 697.785 L 724.686 697.785 L 724.686 697.785 Q 724.405 697.88 724.056 698.11 L 724.056 698.11 L 723.903 697.901 L 723.903 697.901 Q 724.168 697.68 724.542 697.551 L 724.542 697.551 L 724.542 697.551 Q 724.916 697.421 725.3 697.421 L 725.3 697.421 L 725.3 697.421 Q 725.93 697.421 726.272 697.719 L 726.272 697.719 L 726.272 697.719 Q 726.615 698.017 726.615 698.559 Z  M 730.497 699.753 L 730.497 699.753 L 730.497 699.753 Q 730.497 700.953 730.13 701.53 L 730.13 701.53 L 730.13 701.53 Q 729.764 702.107 729.022 702.107 L 729.022 702.107 L 729.022 702.107 Q 728.308 702.107 727.937 701.513 L 727.937 701.513 L 727.937 701.513 Q 727.566 700.919 727.566 699.753 L 727.566 699.753 L 727.566 699.753 Q 727.566 698.562 727.926 697.989 L 727.926 697.989 L 727.926 697.989 Q 728.286 697.415 729.022 697.415 L 729.022 697.415 L 729.022 697.415 Q 729.742 697.415 730.119 698.009 L 730.119 698.009 L 730.119 698.009 Q 730.497 698.603 730.497 699.753 Z  M 727.903 699.753 L 727.903 699.753 L 727.903 699.753 Q 727.903 700.813 728.18 701.32 L 728.18 701.32 L 728.18 701.32 Q 728.458 701.826 729.022 701.826 L 729.022 701.826 L 729.022 701.826 Q 729.611 701.826 729.881 701.303 L 729.881 701.303 L 729.881 701.303 Q 730.15 700.779 730.15 699.753 L 730.15 699.753 L 730.15 699.753 Q 730.15 698.743 729.881 698.219 L 729.881 698.219 L 729.881 698.219 Q 729.611 697.696 729.022 697.696 L 729.022 697.696 L 729.022 697.696 Q 728.433 697.696 728.168 698.219 L 728.168 698.219 L 728.168 698.219 Q 727.903 698.743 727.903 699.753 Z " fill-rule="evenodd" fill="rgb(250,250,250)" />
            <g id="windows logo">
                <path d=" M 612.248 589.912 L 612.248 545.575 L 672.532 545.575 L 672.532 598.324 L 612.248 589.908 L 612.248 589.912 Z  M 612.248 493.716 L 672.532 485.296 L 672.532 538.044 L 612.248 538.044 L 612.248 493.72 L 612.248 493.716 Z  M 559.5 582.555 L 559.5 545.575 L 604.713 545.575 L 604.713 588.845 L 559.5 582.547 L 559.5 582.555 Z  M 559.5 538.048 L 559.5 501.073 L 604.713 494.775 L 604.713 538.044 L 559.5 538.044 L 559.5 538.048 Z " fill-rule="evenodd" fill="rgb(250,250,250)" />
            </g>
        </g>
    </g>
</svg>