<?xml version="1.0" standalone="no"?>
<!-- Generator: Gravit.io -->
<svg xmlns="http://www.w3.org/2000/svg" xmlns:xlink="http://www.w3.org/1999/xlink" style="isolation:isolate" viewBox="0 0 1024 1024" width="1024" height="1024">
    <defs>
        <clipPath id="_clipPath_4ZwgNs5YkBH0tW42VGsz74qszDuR5DoY">
            <rect width="1024" height="1024" />
        </clipPath>
    </defs>
    <g clip-path="url(#_clipPath_4ZwgNs5YkBH0tW42VGsz74qszDuR5DoY)">
        <rect x="86" y="89.897" width="850" height="850" transform="matrix(1,0,0,1,0,0)" fill="rgb(144,164,174)" />
        <rect x="86" y="710" width="850" height="229.897" transform="matrix(1,0,0,1,0,0)" fill="rgb(84,110,122)" />
        <g id="MacBook Air">
            <path d=" M 172.746 817.366 Q 181.583 822.113 189.95 822.113 C 198.317 822.113 828.048 822.542 840.022 822.757 Q 851.996 822.971 852.667 813.907 Q 852.64 827.048 840.022 827.262 C 830.222 827.429 207.878 826.538 189.95 826.618 Q 172.022 826.699 172.746 817.366 Z " fill-rule="evenodd" fill="rgb(0,0,0)" />
            <mask id="_mask_4D0rnJmfSvtNH824RqXtIOWGxXB0rfGl">
                <path d=" M 773.084 717.2 L 773.084 390.877 C 773.084 383.062 766.739 376.717 758.924 376.717 L 269.761 376.717 C 261.946 376.717 255.601 383.062 255.601 390.877 L 255.601 717.2 L 255.601 717.2 L 255.601 740.371 L 773.084 740.371 L 773.084 717.2 Z " fill-rule="evenodd" fill="white" stroke="none" />
            </mask>
            <path d=" M 773.084 717.2 L 773.084 390.877 C 773.084 383.062 766.739 376.717 758.924 376.717 L 269.761 376.717 C 261.946 376.717 255.601 383.062 255.601 390.877 L 255.601 717.2 L 255.601 717.2 L 255.601 740.371 L 773.084 740.371 L 773.084 717.2 Z " fill-rule="evenodd" fill="rgb(33,33,33)" mask="url(#_mask_4D0rnJmfSvtNH824RqXtIOWGxXB0rfGl)" vector-effect="non-scaling-stroke" stroke-width="3.862" stroke="rgb(8,8,8)" stroke-linejoin="miter" stroke-linecap="square" stroke-miterlimit="10" />
            <path d=" M 255.881 730.073 C 260.386 730.073 768.799 730.073 772.017 730.073 C 775.235 730.073 777.455 731.277 779.096 733.291 C 780.736 735.305 847.283 805.28 851.175 810.528 C 855.067 815.775 850.61 822.757 844.096 822.757 C 621.664 822.757 183.018 822.328 178.01 822.113 C 173.001 821.898 170.287 816.32 175.435 809.884 C 180.584 803.448 243.227 736.916 245.584 734.579 C 247.94 732.241 251.376 730.073 255.881 730.073 Z " fill-rule="evenodd" fill="rgb(40,40,40)" />
            <path d=" M 431.118 822.435 L 592.027 822.435 L 592.027 826.94 L 431.118 826.94 L 431.118 822.435 Z " fill-rule="evenodd" fill="rgb(33,33,33)" />
            <path d=" M 388.19 781.564 L 639.208 781.564 L 652.724 819.538 L 374.03 819.538 L 388.19 781.564 Z " fill-rule="evenodd" fill="rgb(45,45,45)" />
            <g id="Keyboard">
                <path d=" M 248.521 736.509 L 780.164 736.509 L 821.357 780.277 L 206.685 780.277 L 248.521 736.509 Z " fill-rule="evenodd" fill="rgb(40,40,40)" />
                <path d=" M 392.052 771.266 L 594.153 771.266 L 596.084 779.633 L 388.834 779.633 L 392.052 771.266 Z " fill-rule="evenodd" fill="rgb(1,1,1)" />
                <path d=" M 597.477 771.266 L 645.838 771.266 L 648.862 779.633 L 599.302 779.633 L 597.477 771.266 Z " fill-rule="evenodd" fill="rgb(1,1,1)" />
                <path d=" M 648.968 771.266 L 687.069 771.266 L 690.699 779.633 L 652.313 779.633 L 648.968 771.266 Z " fill-rule="evenodd" fill="rgb(1,1,1)" />
                <path d=" M 690.161 771.266 L 727.618 771.266 L 733.179 779.633 L 694.149 779.633 L 690.161 771.266 Z " fill-rule="evenodd" fill="rgb(1,1,1)" />
                <path d=" M 730.71 771.266 L 768.811 771.266 L 775.015 779.633 L 735.985 779.633 L 730.71 771.266 Z " fill-rule="evenodd" fill="rgb(1,1,1)" />
                <path d=" M 771.259 771.266 L 809.36 771.266 L 816.851 779.633 L 777.822 779.633 L 771.259 771.266 Z " fill-rule="evenodd" fill="rgb(1,1,1)" />
                <path d=" M 715.157 763.542 L 802.16 763.542 L 809.128 770.622 L 719.579 770.622 L 715.157 763.542 Z " fill-rule="evenodd" fill="rgb(1,1,1)" />
                <path d=" M 675.251 763.542 L 712.198 763.542 L 716.444 770.622 L 678.417 770.622 L 675.251 763.542 Z " fill-rule="evenodd" fill="rgb(1,1,1)" />
                <path d=" M 635.346 763.542 L 672.292 763.542 L 675.251 770.622 L 637.868 770.622 L 635.346 763.542 Z " fill-rule="evenodd" fill="rgb(1,1,1)" />
                <path d=" M 595.441 763.542 L 632.387 763.542 L 634.702 770.622 L 596.675 770.622 L 595.441 763.542 Z " fill-rule="evenodd" fill="rgb(1,1,1)" />
                <path d=" M 555.535 763.542 L 591.838 763.542 L 593.51 770.622 L 556.126 770.622 L 555.535 763.542 Z " fill-rule="evenodd" fill="rgb(1,1,1)" />
                <path d=" M 515.63 763.542 L 551.933 763.542 L 552.961 770.622 L 515.577 770.622 L 515.63 763.542 Z " fill-rule="evenodd" fill="rgb(1,1,1)" />
                <path d=" M 475.081 763.542 L 512.027 763.542 L 512.412 770.622 L 474.384 770.622 L 475.081 763.542 Z " fill-rule="evenodd" fill="rgb(1,1,1)" />
                <path d=" M 435.175 763.542 L 472.122 763.542 L 471.863 770.622 L 433.192 770.622 L 435.175 763.542 Z " fill-rule="evenodd" fill="rgb(1,1,1)" />
                <path d=" M 395.27 763.542 L 432.216 763.542 L 430.026 770.622 L 392.643 770.622 L 395.27 763.542 Z " fill-rule="evenodd" fill="rgb(1,1,1)" />
                <path d=" M 355.364 763.542 L 391.667 763.542 L 389.477 770.622 L 351.45 770.622 L 355.364 763.542 Z " fill-rule="evenodd" fill="rgb(1,1,1)" />
                <path d=" M 315.459 763.542 L 351.762 763.542 L 348.928 770.622 L 310.901 770.622 L 315.459 763.542 Z " fill-rule="evenodd" fill="rgb(1,1,1)" />
                <path d=" M 225.35 763.542 L 311.856 763.542 L 307.735 770.622 L 218.861 770.622 L 225.35 763.542 Z " fill-rule="evenodd" fill="rgb(1,1,1)" />
                <path d=" M 232.43 755.175 L 298.725 755.175 L 293.316 762.898 L 225.941 762.898 L 232.43 755.175 Z " fill-rule="evenodd" fill="rgb(1,1,1)" />
                <path d=" M 240.154 747.451 L 294.863 747.451 L 289.454 754.531 L 233.665 754.531 L 240.154 747.451 Z " fill-rule="evenodd" fill="rgb(1,1,1)" />
                <path d=" M 301.299 755.175 L 337.343 755.175 L 333.222 762.898 L 296.097 762.898 L 301.299 755.175 Z " fill-rule="evenodd" fill="rgb(1,1,1)" />
                <path d=" M 297.437 747.451 L 332.194 747.451 L 328.073 754.531 L 292.235 754.531 L 297.437 747.451 Z " fill-rule="evenodd" fill="rgb(1,1,1)" />
                <path d=" M 334.768 747.451 L 370.168 747.451 L 366.691 754.531 L 330.854 754.531 L 334.768 747.451 Z " fill-rule="evenodd" fill="rgb(1,1,1)" />
                <path d=" M 373.386 747.451 L 408.143 747.451 L 405.952 754.531 L 370.115 754.531 L 373.386 747.451 Z " fill-rule="evenodd" fill="rgb(1,1,1)" />
                <path d=" M 411.361 747.451 L 446.117 747.451 L 444.571 754.531 L 408.733 754.531 L 411.361 747.451 Z " fill-rule="evenodd" fill="rgb(1,1,1)" />
                <path d=" M 449.335 747.451 L 484.092 747.451 L 483.832 754.531 L 447.995 754.531 L 449.335 747.451 Z " fill-rule="evenodd" fill="rgb(1,1,1)" />
                <path d=" M 486.666 747.451 L 522.71 747.451 L 522.45 754.531 L 486.613 754.531 L 486.666 747.451 Z " fill-rule="evenodd" fill="rgb(1,1,1)" />
                <path d=" M 525.284 747.451 L 560.041 747.451 L 561.069 754.531 L 525.231 754.531 L 525.284 747.451 Z " fill-rule="evenodd" fill="rgb(1,1,1)" />
                <path d=" M 562.615 747.451 L 598.015 747.451 L 599.687 754.531 L 563.85 754.531 L 562.615 747.451 Z " fill-rule="evenodd" fill="rgb(1,1,1)" />
                <path d=" M 601.233 747.451 L 635.99 747.451 L 638.949 754.531 L 603.111 754.531 L 601.233 747.451 Z " fill-rule="evenodd" fill="rgb(1,1,1)" />
                <path d=" M 639.208 747.451 L 673.964 747.451 L 678.21 754.531 L 642.373 754.531 L 639.208 747.451 Z " fill-rule="evenodd" fill="rgb(1,1,1)" />
                <path d=" M 676.539 747.451 L 711.939 747.451 L 716.828 754.531 L 680.991 754.531 L 676.539 747.451 Z " fill-rule="evenodd" fill="rgb(1,1,1)" />
                <path d=" M 715.157 747.451 L 750.557 747.451 L 755.447 754.531 L 719.609 754.531 L 715.157 747.451 Z " fill-rule="evenodd" fill="rgb(1,1,1)" />
                <path d=" M 753.131 747.451 L 788.531 747.451 L 794.708 754.531 L 757.584 754.531 L 753.131 747.451 Z " fill-rule="evenodd" fill="rgb(1,1,1)" />
                <path d=" M 728.03 740.371 L 782.095 740.371 L 787.628 746.808 L 733.179 746.808 L 728.03 740.371 Z " fill-rule="evenodd" fill="rgb(1,1,1)" />
                <path d=" M 691.342 740.371 L 725.455 740.371 L 730.345 746.808 L 695.848 746.808 L 691.342 740.371 Z " fill-rule="evenodd" fill="rgb(1,1,1)" />
                <path d=" M 654.655 740.371 L 688.124 740.371 L 692.37 746.808 L 657.873 746.808 L 654.655 740.371 Z " fill-rule="evenodd" fill="rgb(1,1,1)" />
                <path d=" M 617.324 740.371 L 650.793 740.371 L 654.396 746.808 L 619.255 746.808 L 617.324 740.371 Z " fill-rule="evenodd" fill="rgb(1,1,1)" />
                <path d=" M 580.637 740.371 L 614.75 740.371 L 616.421 746.808 L 581.281 746.808 L 580.637 740.371 Z " fill-rule="evenodd" fill="rgb(1,1,1)" />
                <path d=" M 543.306 740.371 L 577.419 740.371 L 579.09 746.808 L 543.306 746.808 L 543.306 740.371 Z " fill-rule="evenodd" fill="rgb(1,1,1)" />
                <path d=" M 505.975 740.371 L 540.732 740.371 L 540.472 746.808 L 505.975 746.808 L 505.975 740.371 Z " fill-rule="evenodd" fill="rgb(1,1,1)" />
                <path d=" M 468.644 740.371 L 503.401 740.371 L 503.401 746.808 L 468.001 746.808 L 468.644 740.371 Z " fill-rule="evenodd" fill="rgb(1,1,1)" />
                <path d=" M 431.957 740.371 L 466.07 740.371 L 465.426 746.808 L 430.026 746.808 L 431.957 740.371 Z " fill-rule="evenodd" fill="rgb(1,1,1)" />
                <path d=" M 395.27 740.371 L 428.739 740.371 L 426.808 746.808 L 392.052 746.808 L 395.27 740.371 Z " fill-rule="evenodd" fill="rgb(1,1,1)" />
                <path d=" M 357.939 740.371 L 392.695 740.371 L 389.477 746.808 L 354.721 746.808 L 357.939 740.371 Z " fill-rule="evenodd" fill="rgb(1,1,1)" />
                <path d=" M 321.252 740.371 L 354.721 740.371 L 351.503 746.808 L 316.746 746.808 L 321.252 740.371 Z " fill-rule="evenodd" fill="rgb(1,1,1)" />
                <path d=" M 283.921 740.371 L 318.034 740.371 L 313.528 746.808 L 278.772 746.808 L 283.921 740.371 Z " fill-rule="evenodd" fill="rgb(1,1,1)" />
                <path d=" M 246.59 740.371 L 280.703 740.371 L 275.554 746.808 L 240.797 746.808 L 246.59 740.371 Z " fill-rule="evenodd" fill="rgb(1,1,1)" />
                <path d=" M 249.808 737.153 L 301.299 737.153 L 299.368 739.728 L 247.234 739.728 L 249.808 737.153 Z " fill-rule="evenodd" fill="rgb(1,1,1)" />
                <path d=" M 305.161 737.153 L 339.274 737.153 L 337.343 739.728 L 303.23 739.728 L 305.161 737.153 Z " fill-rule="evenodd" fill="rgb(1,1,1)" />
                <path d=" M 341.848 737.153 L 375.317 737.153 L 374.03 739.728 L 339.917 739.728 L 341.848 737.153 Z " fill-rule="evenodd" fill="rgb(1,1,1)" />
                <path d=" M 377.892 737.153 L 411.361 737.153 L 410.717 739.728 L 376.604 739.728 L 377.892 737.153 Z " fill-rule="evenodd" fill="rgb(1,1,1)" />
                <path d=" M 413.935 737.153 L 448.048 737.153 L 448.048 739.728 L 413.292 739.728 L 413.935 737.153 Z " fill-rule="evenodd" fill="rgb(1,1,1)" />
                <path d=" M 451.266 737.153 L 485.379 737.153 L 485.379 739.728 L 451.266 739.728 L 451.266 737.153 Z " fill-rule="evenodd" fill="rgb(1,1,1)" />
                <path d=" M 487.953 737.153 L 522.71 737.153 L 522.71 739.728 L 487.953 739.728 L 487.953 737.153 Z " fill-rule="evenodd" fill="rgb(1,1,1)" />
                <path d=" M 524.641 737.153 L 558.753 737.153 L 558.753 739.728 L 524.641 739.728 L 524.641 737.153 Z " fill-rule="evenodd" fill="rgb(1,1,1)" />
                <path d=" M 560.684 737.153 L 594.797 737.153 L 595.441 739.728 L 560.684 739.728 L 560.684 737.153 Z " fill-rule="evenodd" fill="rgb(1,1,1)" />
                <path d=" M 598.015 737.153 L 632.128 737.153 L 633.415 739.728 L 598.659 739.728 L 598.015 737.153 Z " fill-rule="evenodd" fill="rgb(1,1,1)" />
                <path d=" M 634.702 737.153 L 668.815 737.153 L 670.102 739.728 L 635.99 739.728 L 634.702 737.153 Z " fill-rule="evenodd" fill="rgb(1,1,1)" />
                <path d=" M 670.746 737.153 L 704.859 737.153 L 706.79 739.728 L 672.033 739.728 L 670.746 737.153 Z " fill-rule="evenodd" fill="rgb(1,1,1)" />
                <path d=" M 707.433 737.153 L 741.546 737.153 L 743.477 739.728 L 709.364 739.728 L 707.433 737.153 Z " fill-rule="evenodd" fill="rgb(1,1,1)" />
                <path d=" M 744.764 737.153 L 779.52 737.153 L 781.451 739.728 L 746.695 739.728 L 744.764 737.153 Z " fill-rule="evenodd" fill="rgb(1,1,1)" />
                <path d=" M 340.561 755.175 L 376.604 755.175 L 372.483 762.898 L 335.359 762.898 L 340.561 755.175 Z " fill-rule="evenodd" fill="rgb(1,1,1)" />
                <path d=" M 379.179 755.175 L 415.223 755.175 L 413.032 762.898 L 375.908 762.898 L 379.179 755.175 Z " fill-rule="evenodd" fill="rgb(1,1,1)" />
                <path d=" M 417.797 755.175 L 453.841 755.175 L 452.938 762.898 L 415.813 762.898 L 417.797 755.175 Z " fill-rule="evenodd" fill="rgb(1,1,1)" />
                <path d=" M 456.415 755.175 L 493.103 755.175 L 492.843 762.898 L 455.719 762.898 L 456.415 755.175 Z " fill-rule="evenodd" fill="rgb(1,1,1)" />
                <path d=" M 495.677 755.175 L 532.364 755.175 L 532.749 762.898 L 495.624 762.898 L 495.677 755.175 Z " fill-rule="evenodd" fill="rgb(1,1,1)" />
                <path d=" M 534.939 755.175 L 570.982 755.175 L 572.01 762.898 L 535.53 762.898 L 534.939 755.175 Z " fill-rule="evenodd" fill="rgb(1,1,1)" />
                <path d=" M 574.201 755.175 L 610.244 755.175 L 612.559 762.898 L 575.435 762.898 L 574.201 755.175 Z " fill-rule="evenodd" fill="rgb(1,1,1)" />
                <path d=" M 612.819 755.175 L 648.862 755.175 L 653.109 762.898 L 615.34 762.898 L 612.819 755.175 Z " fill-rule="evenodd" fill="rgb(1,1,1)" />
                <path d=" M 652.081 755.175 L 687.48 755.175 L 692.37 762.898 L 655.246 762.898 L 652.081 755.175 Z " fill-rule="evenodd" fill="rgb(1,1,1)" />
                <path d=" M 690.699 755.175 L 726.099 755.175 L 732.276 762.898 L 695.151 762.898 L 690.699 755.175 Z " fill-rule="evenodd" fill="rgb(1,1,1)" />
                <path d=" M 729.96 755.175 L 794.968 755.175 L 802.048 762.898 L 735.057 762.898 L 729.96 755.175 Z " fill-rule="evenodd" fill="rgb(1,1,1)" />
                <path d=" M 218.162 771.266 L 297.373 771.266 L 291.001 779.633 L 210.546 779.633 L 218.162 771.266 Z " fill-rule="evenodd" fill="rgb(1,1,1)" />
                <path d=" M 300.181 771.266 L 337.986 771.266 L 333.221 779.633 L 294.863 779.633 L 300.181 771.266 Z " fill-rule="evenodd" fill="rgb(1,1,1)" />
                <path d=" M 341.374 771.266 L 388.834 771.266 L 385.999 779.633 L 336.699 779.633 L 341.374 771.266 Z " fill-rule="evenodd" fill="rgb(1,1,1)" />
            </g>
            <path d=" M 271.333 403.106 L 755.347 403.106 L 755.347 714.626 L 271.333 714.626 L 271.333 403.106 Z " fill="rgb(106,27,154)" />
            <path d=" M 532.573 725.911 L 531.743 725.911 L 530.885 723.718 L 528.123 723.718 L 527.274 725.911 L 526.464 725.911 L 529.188 718.99 L 529.862 718.99 L 532.573 725.911 Z  M 528.406 722.997 L 530.636 722.997 L 529.834 720.862 L 529.834 720.862 Q 529.679 720.456 529.514 719.867 L 529.514 719.867 L 529.514 719.867 Q 529.41 720.32 529.217 720.862 L 529.217 720.862 L 528.406 722.997 Z  M 534.185 720.744 L 534.185 725.911 L 533.403 725.911 L 533.403 720.744 L 534.185 720.744 Z  M 533.337 719.344 L 533.337 719.344 L 533.337 719.344 Q 533.337 719.075 533.469 718.95 L 533.469 718.95 L 533.469 718.95 Q 533.601 718.825 533.799 718.825 L 533.799 718.825 L 533.799 718.825 Q 533.987 718.825 534.124 718.952 L 534.124 718.952 L 534.124 718.952 Q 534.261 719.08 534.261 719.344 L 534.261 719.344 L 534.261 719.344 Q 534.261 719.608 534.124 719.737 L 534.124 719.737 L 534.124 719.737 Q 533.987 719.867 533.799 719.867 L 533.799 719.867 L 533.799 719.867 Q 533.601 719.867 533.469 719.737 L 533.469 719.737 L 533.469 719.737 Q 533.337 719.608 533.337 719.344 Z  M 538.202 720.65 L 538.202 720.65 L 538.202 720.65 Q 538.546 720.65 538.819 720.706 L 538.819 720.706 L 538.711 721.432 L 538.711 721.432 Q 538.39 721.361 538.145 721.361 L 538.145 721.361 L 538.145 721.361 Q 537.518 721.361 537.073 721.87 L 537.073 721.87 L 537.073 721.87 Q 536.627 722.38 536.627 723.139 L 536.627 723.139 L 536.627 725.911 L 535.845 725.911 L 535.845 720.744 L 536.491 720.744 L 536.58 721.701 L 536.618 721.701 L 536.618 721.701 Q 536.905 721.196 537.311 720.923 L 537.311 720.923 L 537.311 720.923 Q 537.716 720.65 538.202 720.65 Z  M 486.931 725.911 L 486.285 725.911 L 483.947 719.801 L 483.909 719.801 L 483.909 719.801 Q 483.975 720.527 483.975 721.526 L 483.975 721.526 L 483.975 725.911 L 483.235 725.911 L 483.235 719.018 L 484.442 719.018 L 486.624 724.704 L 486.662 724.704 L 488.864 719.018 L 490.061 719.018 L 490.061 725.911 L 489.26 725.911 L 489.26 721.47 L 489.26 721.47 Q 489.26 720.706 489.326 719.81 L 489.326 719.81 L 489.288 719.81 L 486.931 725.911 Z  M 495.591 725.911 L 495.011 725.911 L 494.855 725.175 L 494.818 725.175 L 494.818 725.175 Q 494.431 725.661 494.047 725.833 L 494.047 725.833 L 494.047 725.833 Q 493.663 726.005 493.088 726.005 L 493.088 726.005 L 493.088 726.005 Q 492.319 726.005 491.883 725.609 L 491.883 725.609 L 491.883 725.609 Q 491.447 725.213 491.447 724.482 L 491.447 724.482 L 491.447 724.482 Q 491.447 722.917 493.95 722.842 L 493.95 722.842 L 494.827 722.813 L 494.827 722.493 L 494.827 722.493 Q 494.827 721.885 494.565 721.595 L 494.565 721.595 L 494.565 721.595 Q 494.304 721.305 493.729 721.305 L 493.729 721.305 L 493.729 721.305 Q 493.083 721.305 492.267 721.701 L 492.267 721.701 L 492.027 721.102 L 492.027 721.102 Q 492.409 720.895 492.864 720.777 L 492.864 720.777 L 492.864 720.777 Q 493.319 720.659 493.776 720.659 L 493.776 720.659 L 493.776 720.659 Q 494.7 720.659 495.145 721.069 L 495.145 721.069 L 495.145 721.069 Q 495.591 721.479 495.591 722.384 L 495.591 722.384 L 495.591 725.911 Z  M 493.243 725.359 L 493.243 725.359 L 493.243 725.359 Q 493.974 725.359 494.391 724.958 L 494.391 724.958 L 494.391 724.958 Q 494.808 724.558 494.808 723.836 L 494.808 723.836 L 494.808 723.37 L 494.026 723.403 L 494.026 723.403 Q 493.092 723.436 492.68 723.693 L 492.68 723.693 L 492.68 723.693 Q 492.267 723.949 492.267 724.492 L 492.267 724.492 L 492.267 724.492 Q 492.267 724.916 492.524 725.137 L 492.524 725.137 L 492.524 725.137 Q 492.781 725.359 493.243 725.359 Z  M 499.268 726.005 L 499.268 726.005 L 499.268 726.005 Q 498.146 726.005 497.531 725.314 L 497.531 725.314 L 497.531 725.314 Q 496.915 724.624 496.915 723.36 L 496.915 723.36 L 496.915 723.36 Q 496.915 722.064 497.54 721.357 L 497.54 721.357 L 497.54 721.357 Q 498.165 720.65 499.32 720.65 L 499.32 720.65 L 499.32 720.65 Q 499.692 720.65 500.064 720.73 L 500.064 720.73 L 500.064 720.73 Q 500.437 720.81 500.649 720.918 L 500.649 720.918 L 500.409 721.583 L 500.409 721.583 Q 500.149 721.479 499.843 721.411 L 499.843 721.411 L 499.843 721.411 Q 499.536 721.343 499.301 721.343 L 499.301 721.343 L 499.301 721.343 Q 497.726 721.343 497.726 723.351 L 497.726 723.351 L 497.726 723.351 Q 497.726 724.303 498.11 724.812 L 498.11 724.812 L 498.11 724.812 Q 498.495 725.321 499.249 725.321 L 499.249 725.321 L 499.249 725.321 Q 499.895 725.321 500.574 725.043 L 500.574 725.043 L 500.574 725.736 L 500.574 725.736 Q 500.055 726.005 499.268 726.005 Z  M 501.917 725.911 L 501.917 719.018 L 503.864 719.018 L 503.864 719.018 Q 505.236 719.018 505.849 719.429 L 505.849 719.429 L 505.849 719.429 Q 506.462 719.839 506.462 720.725 L 506.462 720.725 L 506.462 720.725 Q 506.462 721.338 506.12 721.736 L 506.12 721.736 L 506.12 721.736 Q 505.778 722.134 505.123 722.252 L 505.123 722.252 L 505.123 722.299 L 505.123 722.299 Q 506.693 722.568 506.693 723.949 L 506.693 723.949 L 506.693 723.949 Q 506.693 724.873 506.068 725.392 L 506.068 725.392 L 506.068 725.392 Q 505.443 725.911 504.321 725.911 L 504.321 725.911 L 501.917 725.911 Z  M 502.719 719.711 L 502.719 721.969 L 504.038 721.969 L 504.038 721.969 Q 504.887 721.969 505.259 721.703 L 505.259 721.703 L 505.259 721.703 Q 505.632 721.437 505.632 720.805 L 505.632 720.805 L 505.632 720.805 Q 505.632 720.225 505.217 719.968 L 505.217 719.968 L 505.217 719.968 Q 504.802 719.711 503.897 719.711 L 503.897 719.711 L 502.719 719.711 Z  M 504.09 722.648 L 502.719 722.648 L 502.719 725.227 L 504.156 725.227 L 504.156 725.227 Q 504.991 725.227 505.413 724.904 L 505.413 724.904 L 505.413 724.904 Q 505.835 724.581 505.835 723.893 L 505.835 723.893 L 505.835 723.893 Q 505.835 723.252 505.403 722.95 L 505.403 722.95 L 505.403 722.95 Q 504.972 722.648 504.09 722.648 L 504.09 722.648 Z  M 512.514 723.322 L 512.514 723.322 L 512.514 723.322 Q 512.514 724.586 511.878 725.295 L 511.878 725.295 L 511.878 725.295 Q 511.242 726.005 510.12 726.005 L 510.12 726.005 L 510.12 726.005 Q 509.427 726.005 508.889 725.68 L 508.889 725.68 L 508.889 725.68 Q 508.352 725.354 508.06 724.746 L 508.06 724.746 L 508.06 724.746 Q 507.767 724.138 507.767 723.322 L 507.767 723.322 L 507.767 723.322 Q 507.767 722.059 508.399 721.354 L 508.399 721.354 L 508.399 721.354 Q 509.031 720.65 510.153 720.65 L 510.153 720.65 L 510.153 720.65 Q 511.237 720.65 511.876 721.371 L 511.876 721.371 L 511.876 721.371 Q 512.514 722.092 512.514 723.322 Z  M 508.578 723.322 L 508.578 723.322 L 508.578 723.322 Q 508.578 724.312 508.974 724.831 L 508.974 724.831 L 508.974 724.831 Q 509.37 725.35 510.139 725.35 L 510.139 725.35 L 510.139 725.35 Q 510.907 725.35 511.305 724.833 L 511.305 724.833 L 511.305 724.833 Q 511.704 724.317 511.704 723.322 L 511.704 723.322 L 511.704 723.322 Q 511.704 722.337 511.305 721.826 L 511.305 721.826 L 511.305 721.826 Q 510.907 721.314 510.129 721.314 L 510.129 721.314 L 510.129 721.314 Q 509.361 721.314 508.969 721.819 L 508.969 721.819 L 508.969 721.819 Q 508.578 722.323 508.578 723.322 Z  M 518.346 723.322 L 518.346 723.322 L 518.346 723.322 Q 518.346 724.586 517.709 725.295 L 517.709 725.295 L 517.709 725.295 Q 517.073 726.005 515.951 726.005 L 515.951 726.005 L 515.951 726.005 Q 515.258 726.005 514.721 725.68 L 514.721 725.68 L 514.721 725.68 Q 514.183 725.354 513.891 724.746 L 513.891 724.746 L 513.891 724.746 Q 513.599 724.138 513.599 723.322 L 513.599 723.322 L 513.599 723.322 Q 513.599 722.059 514.23 721.354 L 514.23 721.354 L 514.23 721.354 Q 514.862 720.65 515.984 720.65 L 515.984 720.65 L 515.984 720.65 Q 517.068 720.65 517.707 721.371 L 517.707 721.371 L 517.707 721.371 Q 518.346 722.092 518.346 723.322 Z  M 514.41 723.322 L 514.41 723.322 L 514.41 723.322 Q 514.41 724.312 514.806 724.831 L 514.806 724.831 L 514.806 724.831 Q 515.202 725.35 515.97 725.35 L 515.97 725.35 L 515.97 725.35 Q 516.738 725.35 517.137 724.833 L 517.137 724.833 L 517.137 724.833 Q 517.535 724.317 517.535 723.322 L 517.535 723.322 L 517.535 723.322 Q 517.535 722.337 517.137 721.826 L 517.137 721.826 L 517.137 721.826 Q 516.738 721.314 515.961 721.314 L 515.961 721.314 L 515.961 721.314 Q 515.192 721.314 514.801 721.819 L 514.801 721.819 L 514.801 721.819 Q 514.41 722.323 514.41 723.322 Z  M 520.453 723.266 L 520.491 723.266 L 520.491 723.266 Q 520.693 722.978 521.108 722.512 L 521.108 722.512 L 522.777 720.744 L 523.706 720.744 L 521.613 722.945 L 523.852 725.911 L 522.904 725.911 L 521.08 723.469 L 520.491 723.978 L 520.491 725.911 L 519.718 725.911 L 519.718 718.575 L 520.491 718.575 L 520.491 722.464 L 520.491 722.464 Q 520.491 722.724 520.453 723.266 L 520.453 723.266 Z " fill-rule="evenodd" fill="rgb(250,250,250)" />
        </g>
        <g id="Ubuntu">
            <rect x="271.333" y="403.767" width="483.667" height="13" transform="matrix(1,0,0,1,0,0)" fill="rgb(171,71,188)" />
            <rect x="271.167" y="416" width="24" height="298.75" transform="matrix(1,0,0,1,0,0)" fill="rgb(156,39,176)" />
            <path d=" M 281.342 412.037 L 280.613 412.037 L 280.613 412.037 Q 280.497 411.728 280.393 411.429 L 280.393 411.429 L 280.393 411.429 Q 280.29 411.129 280.18 410.82 L 280.18 410.82 L 278.021 410.82 L 277.588 412.037 L 276.894 412.037 L 276.894 412.037 Q 277.169 411.281 277.409 410.638 L 277.409 410.638 L 277.409 410.638 Q 277.65 409.995 277.88 409.417 L 277.88 409.417 L 277.88 409.417 Q 278.111 408.84 278.338 408.314 L 278.338 408.314 L 278.338 408.314 Q 278.564 407.788 278.812 407.272 L 278.812 407.272 L 279.424 407.272 L 279.424 407.272 Q 279.671 407.788 279.898 408.314 L 279.898 408.314 L 279.898 408.314 Q 280.125 408.84 280.356 409.417 L 280.356 409.417 L 280.356 409.417 Q 280.586 409.995 280.827 410.638 L 280.827 410.638 L 280.827 410.638 Q 281.067 411.281 281.342 412.037 L 281.342 412.037 Z  M 278.214 410.27 L 279.988 410.27 L 279.988 410.27 Q 279.768 409.672 279.551 409.112 L 279.551 409.112 L 279.551 409.112 Q 279.335 408.551 279.101 408.035 L 279.101 408.035 L 279.101 408.035 Q 278.86 408.551 278.644 409.112 L 278.644 409.112 L 278.644 409.112 Q 278.427 409.672 278.214 410.27 L 278.214 410.27 Z  M 283.501 412.12 L 283.501 412.12 L 283.501 412.12 Q 283.068 412.12 282.741 411.982 L 282.741 411.982 L 282.741 411.982 Q 282.415 411.844 282.191 411.597 L 282.191 411.597 L 282.191 411.597 Q 281.968 411.349 281.858 411.009 L 281.858 411.009 L 281.858 411.009 Q 281.748 410.669 281.748 410.256 L 281.748 410.256 L 281.748 410.256 Q 281.748 409.844 281.868 409.5 L 281.868 409.5 L 281.868 409.5 Q 281.988 409.156 282.209 408.905 L 282.209 408.905 L 282.209 408.905 Q 282.429 408.654 282.748 408.513 L 282.748 408.513 L 282.748 408.513 Q 283.068 408.372 283.46 408.372 L 283.46 408.372 L 283.46 408.372 Q 283.7 408.372 283.941 408.414 L 283.941 408.414 L 283.941 408.414 Q 284.182 408.455 284.402 408.544 L 284.402 408.544 L 284.257 409.087 L 284.257 409.087 Q 284.113 409.019 283.924 408.977 L 283.924 408.977 L 283.924 408.977 Q 283.735 408.936 283.522 408.936 L 283.522 408.936 L 283.522 408.936 Q 282.985 408.936 282.7 409.273 L 282.7 409.273 L 282.7 409.273 Q 282.415 409.61 282.415 410.256 L 282.415 410.256 L 282.415 410.256 Q 282.415 410.545 282.48 410.786 L 282.48 410.786 L 282.48 410.786 Q 282.545 411.026 282.686 411.198 L 282.686 411.198 L 282.686 411.198 Q 282.827 411.37 283.047 411.463 L 283.047 411.463 L 283.047 411.463 Q 283.267 411.556 283.584 411.556 L 283.584 411.556 L 283.584 411.556 Q 283.838 411.556 284.044 411.508 L 284.044 411.508 L 284.044 411.508 Q 284.251 411.459 284.367 411.404 L 284.367 411.404 L 284.457 411.941 L 284.457 411.941 Q 284.402 411.975 284.299 412.006 L 284.299 412.006 L 284.299 412.006 Q 284.196 412.037 284.065 412.061 L 284.065 412.061 L 284.065 412.061 Q 283.934 412.085 283.786 412.102 L 283.786 412.102 L 283.786 412.102 Q 283.639 412.12 283.501 412.12 Z  M 285.742 407.355 L 285.742 408.462 L 287.097 408.462 L 287.097 408.998 L 285.742 408.998 L 285.742 410.648 L 285.742 410.648 Q 285.742 410.916 285.784 411.092 L 285.784 411.092 L 285.784 411.092 Q 285.825 411.267 285.908 411.367 L 285.908 411.367 L 285.908 411.367 Q 285.99 411.466 286.114 411.508 L 286.114 411.508 L 286.114 411.508 Q 286.238 411.549 286.403 411.549 L 286.403 411.549 L 286.403 411.549 Q 286.691 411.549 286.867 411.484 L 286.867 411.484 L 286.867 411.484 Q 287.042 411.418 287.111 411.391 L 287.111 411.391 L 287.234 411.92 L 287.234 411.92 Q 287.138 411.968 286.898 412.04 L 286.898 412.04 L 286.898 412.04 Q 286.657 412.113 286.348 412.113 L 286.348 412.113 L 286.348 412.113 Q 285.983 412.113 285.746 412.02 L 285.746 412.02 L 285.746 412.02 Q 285.509 411.927 285.364 411.741 L 285.364 411.741 L 285.364 411.741 Q 285.22 411.556 285.162 411.284 L 285.162 411.284 L 285.162 411.284 Q 285.103 411.013 285.103 410.655 L 285.103 410.655 L 285.103 407.465 L 285.742 407.355 Z  M 288.548 408.462 L 288.548 412.037 L 287.908 412.037 L 287.908 408.462 L 288.548 408.462 Z  M 288.225 407.815 L 288.225 407.815 L 288.225 407.815 Q 288.053 407.815 287.932 407.702 L 287.932 407.702 L 287.932 407.702 Q 287.812 407.589 287.812 407.396 L 287.812 407.396 L 287.812 407.396 Q 287.812 407.204 287.932 407.09 L 287.932 407.09 L 287.932 407.09 Q 288.053 406.977 288.225 406.977 L 288.225 406.977 L 288.225 406.977 Q 288.396 406.977 288.517 407.09 L 288.517 407.09 L 288.517 407.09 Q 288.637 407.204 288.637 407.396 L 288.637 407.396 L 288.637 407.396 Q 288.637 407.589 288.517 407.702 L 288.517 407.702 L 288.517 407.702 Q 288.396 407.815 288.225 407.815 Z  M 291.779 408.462 L 292.439 408.462 L 292.439 408.462 Q 292.171 409.466 291.81 410.387 L 291.81 410.387 L 291.81 410.387 Q 291.449 411.308 291.112 412.037 L 291.112 412.037 L 290.535 412.037 L 290.535 412.037 Q 290.198 411.308 289.837 410.387 L 289.837 410.387 L 289.837 410.387 Q 289.476 409.466 289.208 408.462 L 289.208 408.462 L 289.895 408.462 L 289.895 408.462 Q 289.978 408.799 290.091 409.18 L 290.091 409.18 L 290.091 409.18 Q 290.205 409.562 290.332 409.937 L 290.332 409.937 L 290.332 409.937 Q 290.459 410.311 290.59 410.662 L 290.59 410.662 L 290.59 410.662 Q 290.72 411.013 290.837 411.288 L 290.837 411.288 L 290.837 411.288 Q 290.954 411.013 291.085 410.662 L 291.085 410.662 L 291.085 410.662 Q 291.215 410.311 291.343 409.937 L 291.343 409.937 L 291.343 409.937 Q 291.47 409.562 291.583 409.18 L 291.583 409.18 L 291.583 409.18 Q 291.697 408.799 291.779 408.462 L 291.779 408.462 Z  M 293.739 408.462 L 293.739 412.037 L 293.099 412.037 L 293.099 408.462 L 293.739 408.462 Z  M 293.416 407.815 L 293.416 407.815 L 293.416 407.815 Q 293.244 407.815 293.123 407.702 L 293.123 407.702 L 293.123 407.702 Q 293.003 407.589 293.003 407.396 L 293.003 407.396 L 293.003 407.396 Q 293.003 407.204 293.123 407.09 L 293.123 407.09 L 293.123 407.09 Q 293.244 406.977 293.416 406.977 L 293.416 406.977 L 293.416 406.977 Q 293.587 406.977 293.708 407.09 L 293.708 407.09 L 293.708 407.09 Q 293.828 407.204 293.828 407.396 L 293.828 407.396 L 293.828 407.396 Q 293.828 407.589 293.708 407.702 L 293.708 407.702 L 293.708 407.702 Q 293.587 407.815 293.416 407.815 Z  M 295.437 407.355 L 295.437 408.462 L 296.791 408.462 L 296.791 408.998 L 295.437 408.998 L 295.437 410.648 L 295.437 410.648 Q 295.437 410.916 295.478 411.092 L 295.478 411.092 L 295.478 411.092 Q 295.519 411.267 295.602 411.367 L 295.602 411.367 L 295.602 411.367 Q 295.684 411.466 295.808 411.508 L 295.808 411.508 L 295.808 411.508 Q 295.932 411.549 296.097 411.549 L 296.097 411.549 L 296.097 411.549 Q 296.386 411.549 296.561 411.484 L 296.561 411.484 L 296.561 411.484 Q 296.736 411.418 296.805 411.391 L 296.805 411.391 L 296.929 411.92 L 296.929 411.92 Q 296.833 411.968 296.592 412.04 L 296.592 412.04 L 296.592 412.04 Q 296.351 412.113 296.042 412.113 L 296.042 412.113 L 296.042 412.113 Q 295.678 412.113 295.44 412.02 L 295.44 412.02 L 295.44 412.02 Q 295.203 411.927 295.059 411.741 L 295.059 411.741 L 295.059 411.741 Q 294.914 411.556 294.856 411.284 L 294.856 411.284 L 294.856 411.284 Q 294.798 411.013 294.798 410.655 L 294.798 410.655 L 294.798 407.465 L 295.437 407.355 Z  M 298.242 408.462 L 298.242 412.037 L 297.603 412.037 L 297.603 408.462 L 298.242 408.462 Z  M 297.919 407.815 L 297.919 407.815 L 297.919 407.815 Q 297.747 407.815 297.627 407.702 L 297.627 407.702 L 297.627 407.702 Q 297.506 407.589 297.506 407.396 L 297.506 407.396 L 297.506 407.396 Q 297.506 407.204 297.627 407.09 L 297.627 407.09 L 297.627 407.09 Q 297.747 406.977 297.919 406.977 L 297.919 406.977 L 297.919 406.977 Q 298.091 406.977 298.211 407.09 L 298.211 407.09 L 298.211 407.09 Q 298.331 407.204 298.331 407.396 L 298.331 407.396 L 298.331 407.396 Q 298.331 407.589 298.211 407.702 L 298.211 407.702 L 298.211 407.702 Q 298.091 407.815 297.919 407.815 Z  M 299.143 410.256 L 299.143 410.256 L 299.143 410.256 Q 299.143 409.782 299.28 409.428 L 299.28 409.428 L 299.28 409.428 Q 299.418 409.074 299.645 408.84 L 299.645 408.84 L 299.645 408.84 Q 299.872 408.606 300.167 408.489 L 300.167 408.489 L 300.167 408.489 Q 300.463 408.372 300.772 408.372 L 300.772 408.372 L 300.772 408.372 Q 301.494 408.372 301.879 408.823 L 301.879 408.823 L 301.879 408.823 Q 302.264 409.273 302.264 410.194 L 302.264 410.194 L 302.264 410.194 Q 302.264 410.236 302.264 410.301 L 302.264 410.301 L 302.264 410.301 Q 302.264 410.366 302.257 410.421 L 302.257 410.421 L 299.81 410.421 L 299.81 410.421 Q 299.851 410.978 300.133 411.267 L 300.133 411.267 L 300.133 411.267 Q 300.415 411.556 301.013 411.556 L 301.013 411.556 L 301.013 411.556 Q 301.35 411.556 301.58 411.497 L 301.58 411.497 L 301.58 411.497 Q 301.81 411.439 301.927 411.384 L 301.927 411.384 L 302.017 411.92 L 302.017 411.92 Q 301.9 411.982 301.608 412.051 L 301.608 412.051 L 301.608 412.051 Q 301.315 412.12 300.944 412.12 L 300.944 412.12 L 300.944 412.12 Q 300.477 412.12 300.136 411.979 L 300.136 411.979 L 300.136 411.979 Q 299.796 411.838 299.576 411.59 L 299.576 411.59 L 299.576 411.59 Q 299.356 411.343 299.249 411.002 L 299.249 411.002 L 299.249 411.002 Q 299.143 410.662 299.143 410.256 Z  M 299.823 409.906 L 301.597 409.906 L 301.597 409.906 Q 301.604 409.472 301.381 409.194 L 301.381 409.194 L 301.381 409.194 Q 301.157 408.916 300.765 408.916 L 300.765 408.916 L 300.765 408.916 Q 300.545 408.916 300.377 409.001 L 300.377 409.001 L 300.377 409.001 Q 300.208 409.087 300.092 409.225 L 300.092 409.225 L 300.092 409.225 Q 299.975 409.362 299.909 409.541 L 299.909 409.541 L 299.909 409.541 Q 299.844 409.72 299.823 409.906 L 299.823 409.906 Z  M 304.018 411.576 L 304.018 411.576 L 304.018 411.576 Q 304.409 411.576 304.598 411.473 L 304.598 411.473 L 304.598 411.473 Q 304.788 411.37 304.788 411.143 L 304.788 411.143 L 304.788 411.143 Q 304.788 410.909 304.602 410.772 L 304.602 410.772 L 304.602 410.772 Q 304.416 410.634 303.99 410.463 L 303.99 410.463 L 303.99 410.463 Q 303.784 410.38 303.595 410.294 L 303.595 410.294 L 303.595 410.294 Q 303.406 410.208 303.268 410.091 L 303.268 410.091 L 303.268 410.091 Q 303.131 409.974 303.048 409.809 L 303.048 409.809 L 303.048 409.809 Q 302.966 409.644 302.966 409.404 L 302.966 409.404 L 302.966 409.404 Q 302.966 408.929 303.316 408.651 L 303.316 408.651 L 303.316 408.651 Q 303.667 408.372 304.272 408.372 L 304.272 408.372 L 304.272 408.372 Q 304.423 408.372 304.574 408.39 L 304.574 408.39 L 304.574 408.39 Q 304.726 408.407 304.856 408.431 L 304.856 408.431 L 304.856 408.431 Q 304.987 408.455 305.087 408.482 L 305.087 408.482 L 305.087 408.482 Q 305.186 408.51 305.241 408.531 L 305.241 408.531 L 305.124 409.081 L 305.124 409.081 Q 305.021 409.026 304.801 408.967 L 304.801 408.967 L 304.801 408.967 Q 304.581 408.909 304.272 408.909 L 304.272 408.909 L 304.272 408.909 Q 304.004 408.909 303.804 409.015 L 303.804 409.015 L 303.804 409.015 Q 303.605 409.122 303.605 409.349 L 303.605 409.349 L 303.605 409.349 Q 303.605 409.466 303.65 409.555 L 303.65 409.555 L 303.65 409.555 Q 303.694 409.644 303.787 409.717 L 303.787 409.717 L 303.787 409.717 Q 303.88 409.789 304.018 409.851 L 304.018 409.851 L 304.018 409.851 Q 304.155 409.912 304.348 409.981 L 304.348 409.981 L 304.348 409.981 Q 304.602 410.078 304.801 410.17 L 304.801 410.17 L 304.801 410.17 Q 305.001 410.263 305.142 410.387 L 305.142 410.387 L 305.142 410.387 Q 305.283 410.511 305.358 410.686 L 305.358 410.686 L 305.358 410.686 Q 305.434 410.861 305.434 411.116 L 305.434 411.116 L 305.434 411.116 Q 305.434 411.611 305.066 411.865 L 305.066 411.865 L 305.066 411.865 Q 304.698 412.12 304.018 412.12 L 304.018 412.12 L 304.018 412.12 Q 303.543 412.12 303.275 412.04 L 303.275 412.04 L 303.275 412.04 Q 303.007 411.961 302.911 411.92 L 302.911 411.92 L 303.027 411.37 L 303.027 411.37 Q 303.137 411.411 303.378 411.494 L 303.378 411.494 L 303.378 411.494 Q 303.619 411.576 304.018 411.576 Z " fill-rule="evenodd" fill="rgb(250,250,250)" />
            <path d=" M 515.644 408.667 L 515.644 408.667 L 515.644 408.667 Q 515.644 408.901 515.55 409.119 L 515.55 409.119 L 515.55 409.119 Q 515.455 409.337 515.299 409.548 L 515.299 409.548 L 515.299 409.548 Q 515.143 409.759 514.948 409.964 L 514.948 409.964 L 514.948 409.964 Q 514.753 410.169 514.558 410.364 L 514.558 410.364 L 514.558 410.364 Q 514.448 410.475 514.301 410.624 L 514.301 410.624 L 514.301 410.624 Q 514.155 410.774 514.025 410.936 L 514.025 410.936 L 514.025 410.936 Q 513.895 411.099 513.807 411.248 L 513.807 411.248 L 513.807 411.248 Q 513.719 411.398 513.719 411.508 L 513.719 411.508 L 515.793 411.508 L 515.793 412.022 L 513.063 412.022 L 513.063 412.022 Q 513.056 411.983 513.056 411.944 L 513.056 411.944 L 513.056 411.944 Q 513.056 411.905 513.056 411.872 L 513.056 411.872 L 513.056 411.872 Q 513.056 411.567 513.157 411.304 L 513.157 411.304 L 513.157 411.304 Q 513.258 411.04 513.42 410.806 L 513.42 410.806 L 513.42 410.806 Q 513.583 410.572 513.784 410.364 L 513.784 410.364 L 513.784 410.364 Q 513.986 410.156 514.181 409.961 L 514.181 409.961 L 514.181 409.961 Q 514.343 409.805 514.49 409.652 L 514.49 409.652 L 514.49 409.652 Q 514.636 409.499 514.75 409.347 L 514.75 409.347 L 514.75 409.347 Q 514.864 409.194 514.932 409.031 L 514.932 409.031 L 514.932 409.031 Q 515 408.869 515 408.687 L 515 408.687 L 515 408.687 Q 515 408.492 514.938 408.355 L 514.938 408.355 L 514.938 408.355 Q 514.877 408.218 514.773 408.127 L 514.773 408.127 L 514.773 408.127 Q 514.669 408.036 514.529 407.994 L 514.529 407.994 L 514.529 407.994 Q 514.389 407.952 514.233 407.952 L 514.233 407.952 L 514.233 407.952 Q 514.044 407.952 513.888 408.004 L 513.888 408.004 L 513.888 408.004 Q 513.732 408.056 513.609 408.124 L 513.609 408.124 L 513.609 408.124 Q 513.485 408.192 513.401 408.267 L 513.401 408.267 L 513.401 408.267 Q 513.316 408.342 513.271 408.381 L 513.271 408.381 L 512.972 407.952 L 512.972 407.952 Q 513.03 407.887 513.147 407.793 L 513.147 407.793 L 513.147 407.793 Q 513.264 407.698 513.427 407.614 L 513.427 407.614 L 513.427 407.614 Q 513.589 407.529 513.791 407.471 L 513.791 407.471 L 513.791 407.471 Q 513.992 407.412 514.226 407.412 L 514.226 407.412 L 514.226 407.412 Q 514.935 407.412 515.289 407.741 L 515.289 407.741 L 515.289 407.741 Q 515.644 408.069 515.644 408.667 Z  M 516.6 409.766 L 516.6 409.766 L 516.6 409.766 Q 516.6 408.635 516.999 408.023 L 516.999 408.023 L 516.999 408.023 Q 517.399 407.412 518.108 407.412 L 518.108 407.412 L 518.108 407.412 Q 518.817 407.412 519.217 408.023 L 519.217 408.023 L 519.217 408.023 Q 519.616 408.635 519.616 409.766 L 519.616 409.766 L 519.616 409.766 Q 519.616 410.897 519.217 411.508 L 519.217 411.508 L 519.217 411.508 Q 518.817 412.12 518.108 412.12 L 518.108 412.12 L 518.108 412.12 Q 517.399 412.12 516.999 411.508 L 516.999 411.508 L 516.999 411.508 Q 516.6 410.897 516.6 409.766 Z  M 518.979 409.766 L 518.979 409.766 L 518.979 409.766 Q 518.979 409.395 518.937 409.064 L 518.937 409.064 L 518.937 409.064 Q 518.895 408.732 518.794 408.485 L 518.794 408.485 L 518.794 408.485 Q 518.693 408.238 518.524 408.092 L 518.524 408.092 L 518.524 408.092 Q 518.355 407.945 518.108 407.945 L 518.108 407.945 L 518.108 407.945 Q 517.861 407.945 517.692 408.092 L 517.692 408.092 L 517.692 408.092 Q 517.523 408.238 517.422 408.485 L 517.422 408.485 L 517.422 408.485 Q 517.321 408.732 517.279 409.064 L 517.279 409.064 L 517.279 409.064 Q 517.237 409.395 517.237 409.766 L 517.237 409.766 L 517.237 409.766 Q 517.237 410.136 517.279 410.468 L 517.279 410.468 L 517.279 410.468 Q 517.321 410.8 517.422 411.047 L 517.422 411.047 L 517.422 411.047 Q 517.523 411.294 517.692 411.44 L 517.692 411.44 L 517.692 411.44 Q 517.861 411.586 518.108 411.586 L 518.108 411.586 L 518.108 411.586 Q 518.355 411.586 518.524 411.44 L 518.524 411.44 L 518.524 411.44 Q 518.693 411.294 518.794 411.047 L 518.794 411.047 L 518.794 411.047 Q 518.895 410.8 518.937 410.468 L 518.937 410.468 L 518.937 410.468 Q 518.979 410.136 518.979 409.766 Z  M 521.177 411.671 L 521.177 411.671 L 521.177 411.671 Q 521.177 411.846 521.06 411.976 L 521.06 411.976 L 521.06 411.976 Q 520.943 412.107 520.741 412.107 L 520.741 412.107 L 520.741 412.107 Q 520.54 412.107 520.423 411.976 L 520.423 411.976 L 520.423 411.976 Q 520.306 411.846 520.306 411.671 L 520.306 411.671 L 520.306 411.671 Q 520.306 411.495 520.423 411.365 L 520.423 411.365 L 520.423 411.365 Q 520.54 411.235 520.741 411.235 L 520.741 411.235 L 520.741 411.235 Q 520.943 411.235 521.06 411.365 L 521.06 411.365 L 521.06 411.365 Q 521.177 411.495 521.177 411.671 Z  M 521.177 409.077 L 521.177 409.077 L 521.177 409.077 Q 521.177 409.252 521.06 409.382 L 521.06 409.382 L 521.06 409.382 Q 520.943 409.512 520.741 409.512 L 520.741 409.512 L 520.741 409.512 Q 520.54 409.512 520.423 409.382 L 520.423 409.382 L 520.423 409.382 Q 520.306 409.252 520.306 409.077 L 520.306 409.077 L 520.306 409.077 Q 520.306 408.901 520.423 408.771 L 520.423 408.771 L 520.423 408.771 Q 520.54 408.641 520.741 408.641 L 520.741 408.641 L 520.741 408.641 Q 520.943 408.641 521.06 408.771 L 521.06 408.771 L 521.06 408.771 Q 521.177 408.901 521.177 409.077 Z  M 523.01 411.58 L 523.01 411.58 L 523.01 411.58 Q 523.589 411.58 523.839 411.352 L 523.839 411.352 L 523.839 411.352 Q 524.09 411.125 524.09 410.741 L 524.09 410.741 L 524.09 410.741 Q 524.09 410.494 523.986 410.325 L 523.986 410.325 L 523.986 410.325 Q 523.881 410.156 523.712 410.055 L 523.712 410.055 L 523.712 410.055 Q 523.543 409.954 523.319 409.912 L 523.319 409.912 L 523.319 409.912 Q 523.095 409.87 522.861 409.87 L 522.861 409.87 L 522.705 409.87 L 522.705 409.376 L 522.919 409.376 L 522.919 409.376 Q 523.082 409.376 523.254 409.343 L 523.254 409.343 L 523.254 409.343 Q 523.426 409.311 523.569 409.226 L 523.569 409.226 L 523.569 409.226 Q 523.712 409.142 523.803 408.995 L 523.803 408.995 L 523.803 408.995 Q 523.894 408.849 523.894 408.628 L 523.894 408.628 L 523.894 408.628 Q 523.894 408.446 523.829 408.316 L 523.829 408.316 L 523.829 408.316 Q 523.764 408.186 523.657 408.101 L 523.657 408.101 L 523.657 408.101 Q 523.55 408.017 523.41 407.981 L 523.41 407.981 L 523.41 407.981 Q 523.27 407.945 523.114 407.945 L 523.114 407.945 L 523.114 407.945 Q 522.802 407.945 522.584 408.036 L 522.584 408.036 L 522.584 408.036 Q 522.367 408.127 522.217 408.225 L 522.217 408.225 L 521.983 407.763 L 521.983 407.763 Q 522.061 407.711 522.181 407.65 L 522.181 407.65 L 522.181 407.65 Q 522.302 407.588 522.451 407.536 L 522.451 407.536 L 522.451 407.536 Q 522.601 407.484 522.773 407.448 L 522.773 407.448 L 522.773 407.448 Q 522.945 407.412 523.134 407.412 L 523.134 407.412 L 523.134 407.412 Q 523.491 407.412 523.751 407.5 L 523.751 407.5 L 523.751 407.5 Q 524.012 407.588 524.181 407.747 L 524.181 407.747 L 524.181 407.747 Q 524.35 407.906 524.434 408.124 L 524.434 408.124 L 524.434 408.124 Q 524.519 408.342 524.519 408.596 L 524.519 408.596 L 524.519 408.596 Q 524.519 408.947 524.317 409.197 L 524.317 409.197 L 524.317 409.197 Q 524.116 409.447 523.829 409.577 L 523.829 409.577 L 523.829 409.577 Q 524.005 409.629 524.168 409.727 L 524.168 409.727 L 524.168 409.727 Q 524.33 409.824 524.45 409.974 L 524.45 409.974 L 524.45 409.974 Q 524.571 410.123 524.645 410.319 L 524.645 410.319 L 524.645 410.319 Q 524.72 410.514 524.72 410.754 L 524.72 410.754 L 524.72 410.754 Q 524.72 411.047 524.619 411.297 L 524.619 411.297 L 524.619 411.297 Q 524.519 411.547 524.307 411.729 L 524.307 411.729 L 524.307 411.729 Q 524.096 411.911 523.777 412.015 L 523.777 412.015 L 523.777 412.015 Q 523.459 412.12 523.023 412.12 L 523.023 412.12 L 523.023 412.12 Q 522.854 412.12 522.675 412.094 L 522.675 412.094 L 522.675 412.094 Q 522.497 412.068 522.341 412.028 L 522.341 412.028 L 522.341 412.028 Q 522.185 411.989 522.068 411.95 L 522.068 411.95 L 522.068 411.95 Q 521.95 411.911 521.898 411.885 L 521.898 411.885 L 522.015 411.359 L 522.015 411.359 Q 522.126 411.411 522.383 411.495 L 522.383 411.495 L 522.383 411.495 Q 522.64 411.58 523.01 411.58 Z  M 525.533 409.766 L 525.533 409.766 L 525.533 409.766 Q 525.533 408.635 525.933 408.023 L 525.933 408.023 L 525.933 408.023 Q 526.333 407.412 527.041 407.412 L 527.041 407.412 L 527.041 407.412 Q 527.75 407.412 528.15 408.023 L 528.15 408.023 L 528.15 408.023 Q 528.55 408.635 528.55 409.766 L 528.55 409.766 L 528.55 409.766 Q 528.55 410.897 528.15 411.508 L 528.15 411.508 L 528.15 411.508 Q 527.75 412.12 527.041 412.12 L 527.041 412.12 L 527.041 412.12 Q 526.333 412.12 525.933 411.508 L 525.933 411.508 L 525.933 411.508 Q 525.533 410.897 525.533 409.766 Z  M 527.913 409.766 L 527.913 409.766 L 527.913 409.766 Q 527.913 409.395 527.87 409.064 L 527.87 409.064 L 527.87 409.064 Q 527.828 408.732 527.727 408.485 L 527.727 408.485 L 527.727 408.485 Q 527.626 408.238 527.457 408.092 L 527.457 408.092 L 527.457 408.092 Q 527.288 407.945 527.041 407.945 L 527.041 407.945 L 527.041 407.945 Q 526.794 407.945 526.625 408.092 L 526.625 408.092 L 526.625 408.092 Q 526.456 408.238 526.355 408.485 L 526.355 408.485 L 526.355 408.485 Q 526.255 408.732 526.212 409.064 L 526.212 409.064 L 526.212 409.064 Q 526.17 409.395 526.17 409.766 L 526.17 409.766 L 526.17 409.766 Q 526.17 410.136 526.212 410.468 L 526.212 410.468 L 526.212 410.468 Q 526.255 410.8 526.355 411.047 L 526.355 411.047 L 526.355 411.047 Q 526.456 411.294 526.625 411.44 L 526.625 411.44 L 526.625 411.44 Q 526.794 411.586 527.041 411.586 L 527.041 411.586 L 527.041 411.586 Q 527.288 411.586 527.457 411.44 L 527.457 411.44 L 527.457 411.44 Q 527.626 411.294 527.727 411.047 L 527.727 411.047 L 527.727 411.047 Q 527.828 410.8 527.87 410.468 L 527.87 410.468 L 527.87 410.468 Q 527.913 410.136 527.913 409.766 Z  M 500.625 408.966 L 500.625 408.966 L 500.625 408.966 Q 500.352 409.837 500.072 410.579 L 500.072 410.579 L 500.072 410.579 Q 499.793 411.32 499.513 412.022 L 499.513 412.022 L 498.882 412.022 L 498.882 412.022 Q 498.538 411.027 498.274 409.922 L 498.274 409.922 L 498.274 409.922 Q 498.011 408.817 497.784 407.516 L 497.784 407.516 L 498.447 407.516 L 498.447 407.516 Q 498.538 408.023 498.635 408.531 L 498.635 408.531 L 498.635 408.531 Q 498.733 409.038 498.837 409.516 L 498.837 409.516 L 498.837 409.516 Q 498.941 409.993 499.045 410.429 L 499.045 410.429 L 499.045 410.429 Q 499.149 410.865 499.26 411.235 L 499.26 411.235 L 499.26 411.235 Q 499.52 410.553 499.812 409.737 L 499.812 409.737 L 499.812 409.737 Q 500.105 408.921 500.358 408.049 L 500.358 408.049 L 500.904 408.049 L 500.904 408.049 Q 501.158 408.921 501.457 409.737 L 501.457 409.737 L 501.457 409.737 Q 501.756 410.553 502.016 411.235 L 502.016 411.235 L 502.016 411.235 Q 502.12 410.871 502.224 410.436 L 502.224 410.436 L 502.224 410.436 Q 502.328 410 502.429 409.522 L 502.429 409.522 L 502.429 409.522 Q 502.53 409.044 502.627 408.534 L 502.627 408.534 L 502.627 408.534 Q 502.725 408.023 502.816 407.516 L 502.816 407.516 L 503.46 407.516 L 503.46 407.516 Q 503.226 408.817 502.962 409.922 L 502.962 409.922 L 502.962 409.922 Q 502.699 411.027 502.361 412.022 L 502.361 412.022 L 501.73 412.022 L 501.73 412.022 Q 501.444 411.32 501.171 410.579 L 501.171 410.579 L 501.171 410.579 Q 500.898 409.837 500.625 408.966 Z  M 503.973 410.338 L 503.973 410.338 L 503.973 410.338 Q 503.973 409.889 504.103 409.555 L 504.103 409.555 L 504.103 409.555 Q 504.233 409.22 504.448 408.999 L 504.448 408.999 L 504.448 408.999 Q 504.662 408.778 504.942 408.667 L 504.942 408.667 L 504.942 408.667 Q 505.222 408.557 505.514 408.557 L 505.514 408.557 L 505.514 408.557 Q 506.197 408.557 506.561 408.982 L 506.561 408.982 L 506.561 408.982 Q 506.925 409.408 506.925 410.28 L 506.925 410.28 L 506.925 410.28 Q 506.925 410.319 506.925 410.38 L 506.925 410.38 L 506.925 410.38 Q 506.925 410.442 506.919 410.494 L 506.919 410.494 L 504.604 410.494 L 504.604 410.494 Q 504.643 411.021 504.909 411.294 L 504.909 411.294 L 504.909 411.294 Q 505.176 411.567 505.742 411.567 L 505.742 411.567 L 505.742 411.567 Q 506.06 411.567 506.278 411.512 L 506.278 411.512 L 506.278 411.512 Q 506.496 411.456 506.606 411.404 L 506.606 411.404 L 506.691 411.911 L 506.691 411.911 Q 506.58 411.97 506.304 412.035 L 506.304 412.035 L 506.304 412.035 Q 506.028 412.1 505.677 412.1 L 505.677 412.1 L 505.677 412.1 Q 505.235 412.1 504.913 411.967 L 504.913 411.967 L 504.913 411.967 Q 504.591 411.833 504.383 411.599 L 504.383 411.599 L 504.383 411.599 Q 504.175 411.365 504.074 411.043 L 504.074 411.043 L 504.074 411.043 Q 503.973 410.722 503.973 410.338 Z  M 504.617 410.006 L 506.294 410.006 L 506.294 410.006 Q 506.301 409.597 506.09 409.334 L 506.09 409.334 L 506.09 409.334 Q 505.878 409.07 505.508 409.07 L 505.508 409.07 L 505.508 409.07 Q 505.3 409.07 505.14 409.151 L 505.14 409.151 L 505.14 409.151 Q 504.981 409.233 504.87 409.363 L 504.87 409.363 L 504.87 409.363 Q 504.76 409.493 504.698 409.662 L 504.698 409.662 L 504.698 409.662 Q 504.636 409.831 504.617 410.006 L 504.617 410.006 Z  M 509.981 411.495 L 509.981 409.356 L 509.981 409.356 Q 509.87 409.265 509.662 409.181 L 509.662 409.181 L 509.662 409.181 Q 509.454 409.096 509.207 409.096 L 509.207 409.096 L 509.207 409.096 Q 508.947 409.096 508.762 409.19 L 508.762 409.19 L 508.762 409.19 Q 508.576 409.285 508.459 409.451 L 508.459 409.451 L 508.459 409.451 Q 508.342 409.616 508.29 409.844 L 508.29 409.844 L 508.29 409.844 Q 508.238 410.071 508.238 410.332 L 508.238 410.332 L 508.238 410.332 Q 508.238 410.923 508.531 411.245 L 508.531 411.245 L 508.531 411.245 Q 508.824 411.567 509.311 411.567 L 509.311 411.567 L 509.311 411.567 Q 509.558 411.567 509.724 411.544 L 509.724 411.544 L 509.724 411.544 Q 509.89 411.521 509.981 411.495 L 509.981 411.495 Z  M 509.981 408.791 L 509.981 407.081 L 510.585 406.977 L 510.585 411.924 L 510.585 411.924 Q 510.377 411.983 510.052 412.042 L 510.052 412.042 L 510.052 412.042 Q 509.727 412.1 509.305 412.1 L 509.305 412.1 L 509.305 412.1 Q 508.915 412.1 508.602 411.976 L 508.602 411.976 L 508.602 411.976 Q 508.29 411.853 508.069 411.625 L 508.069 411.625 L 508.069 411.625 Q 507.848 411.398 507.728 411.069 L 507.728 411.069 L 507.728 411.069 Q 507.608 410.741 507.608 410.332 L 507.608 410.332 L 507.608 410.332 Q 507.608 409.941 507.708 409.616 L 507.708 409.616 L 507.708 409.616 Q 507.809 409.291 508.004 409.057 L 508.004 409.057 L 508.004 409.057 Q 508.199 408.823 508.482 408.693 L 508.482 408.693 L 508.482 408.693 Q 508.765 408.563 509.129 408.563 L 509.129 408.563 L 509.129 408.563 Q 509.422 408.563 509.646 408.641 L 509.646 408.641 L 509.646 408.641 Q 509.87 408.719 509.981 408.791 L 509.981 408.791 Z " fill-rule="evenodd" fill="rgb(250,250,250)" />
            <polygon points="739.663,411.905,735.322,407.62,744.005,407.62" fill="rgb(235,235,235)" />
            <g id="shutdown">
                <line x1="728.791" y1="407.405" x2="728.791" y2="409.65" vector-effect="non-scaling-stroke" stroke-width="0.589" stroke="rgb(250,250,250)" stroke-linejoin="round" stroke-linecap="round" stroke-miterlimit="10" />
                <path d=" M 729.913 407.686 C 730.643 408.09 731.148 408.864 731.148 409.762 C 731.148 411.064 730.093 412.12 728.791 412.12 C 727.489 412.12 726.434 411.064 726.434 409.762 C 726.434 408.864 726.928 408.09 727.668 407.686" fill="none" vector-effect="non-scaling-stroke" stroke-width="0.589" stroke="rgb(250,250,250)" stroke-linejoin="round" stroke-linecap="round" stroke-miterlimit="10" />
            </g>
            <path d=" M 721.595 408.044 L 721.367 408.273 C 721.925 408.662 722.258 409.296 722.258 409.977 C 722.258 410.658 721.925 411.292 721.367 411.68 L 721.595 411.91 C 722.211 411.459 722.577 410.744 722.577 409.978 C 722.575 409.211 722.211 408.495 721.595 408.044 L 721.595 408.044 Z  M 720.454 409.185 L 720.182 409.458 C 720.468 409.458 720.7 409.691 720.7 409.977 C 720.7 410.263 720.468 410.495 720.182 410.495 L 720.454 410.768 C 720.792 410.651 721.019 410.333 721.019 409.975 C 721.019 409.611 720.783 409.298 720.454 409.185 L 720.454 409.185 Z  M 721.021 408.619 L 720.787 408.853 C 721.202 409.075 721.46 409.508 721.458 409.978 C 721.458 410.451 721.202 410.878 720.787 411.103 L 721.021 411.337 C 721.492 411.047 721.777 410.539 721.777 409.979 C 721.777 409.417 721.49 408.909 721.021 408.619 L 721.021 408.619 Z  M 716.75 408.78 L 717.707 408.78 L 717.707 411.175 L 716.75 411.175 L 716.75 408.78 Z  M 717.867 411.221 L 719.622 412.977 L 719.622 406.977 L 717.867 408.733 L 717.867 411.221 L 717.867 411.221 Z " fill="rgb(235,235,235)" />
            <g id="Apps">
                <g id="more apps">
                    <path d=" M 275.127 700.363 C 275.127 699.363 275.939 698.551 276.94 698.551 C 277.94 698.551 278.752 699.363 278.752 700.363 C 278.752 701.363 277.94 702.176 276.94 702.176 C 275.939 702.176 275.127 701.363 275.127 700.363 Z " fill="rgb(250,250,250)" />
                    <path d=" M 280.796 700.363 C 280.796 699.363 281.608 698.551 282.608 698.551 C 283.608 698.551 284.421 699.363 284.421 700.363 C 284.421 701.363 283.608 702.176 282.608 702.176 C 281.608 702.176 280.796 701.363 280.796 700.363 Z " fill="rgb(250,250,250)" />
                    <path d=" M 286.955 700.454 C 286.955 699.454 287.767 698.642 288.768 698.642 C 289.768 698.642 290.58 699.454 290.58 700.454 C 290.58 701.454 289.768 702.266 288.768 702.266 C 287.767 702.266 286.955 701.454 286.955 700.454 Z " fill="rgb(250,250,250)" />
                    <path d=" M 274.691 706.359 C 274.691 705.359 275.503 704.547 276.503 704.547 C 277.503 704.547 278.315 705.359 278.315 706.359 C 278.315 707.359 277.503 708.171 276.503 708.171 C 275.503 708.171 274.691 707.359 274.691 706.359 Z " fill="rgb(250,250,250)" />
                    <path d=" M 280.823 706.359 C 280.823 705.359 281.635 704.547 282.635 704.547 C 283.636 704.547 284.448 705.359 284.448 706.359 C 284.448 707.359 283.636 708.171 282.635 708.171 C 281.635 708.171 280.823 707.359 280.823 706.359 Z " fill="rgb(250,250,250)" />
                    <path d=" M 286.955 706.359 C 286.955 705.359 287.767 704.547 288.768 704.547 C 289.768 704.547 290.58 705.359 290.58 706.359 C 290.58 707.359 289.768 708.171 288.768 708.171 C 287.767 708.171 286.955 707.359 286.955 706.359 Z " fill="rgb(250,250,250)" />
                    <path d=" M 286.983 694.368 C 286.983 693.367 287.795 692.555 288.795 692.555 C 289.795 692.555 290.607 693.367 290.607 694.368 C 290.607 695.368 289.795 696.18 288.795 696.18 C 287.795 696.18 286.983 695.368 286.983 694.368 Z " fill="rgb(250,250,250)" />
                    <path d=" M 280.823 694.368 C 280.823 693.367 281.635 692.555 282.635 692.555 C 283.636 692.555 284.448 693.367 284.448 694.368 C 284.448 695.368 283.636 696.18 282.635 696.18 C 281.635 696.18 280.823 695.368 280.823 694.368 Z " fill="rgb(250,250,250)" />
                    <path d=" M 275.155 694.368 C 275.155 693.367 275.967 692.555 276.967 692.555 C 277.967 692.555 278.779 693.367 278.779 694.368 C 278.779 695.368 277.967 696.18 276.967 696.18 C 275.967 696.18 275.155 695.368 275.155 694.368 Z " fill="rgb(250,250,250)" />
                </g>
                <clipPath id="_clipPath_6eLhROCnfvV5EAAnpct2IVqpjpzYRkC4">
                    <rect x="273.656" y="419.378" width="17.987" height="17.987" transform="matrix(1,0,0,1,0,0)" fill="rgb(255,255,255)" />
                </clipPath>
                <g clip-path="url(#_clipPath_6eLhROCnfvV5EAAnpct2IVqpjpzYRkC4)">
                    <g id="Group">
                        <rect x="275.184" y="420.906" width="14.93" height="14.93" transform="matrix(1,0,0,1,0,0)" fill="rgb(30,136,229)" />
                        <g id="firefox-quantum">
                            <path d=" M 286.58 423.01 C 286.259 423.384 286.11 424.224 286.435 425.075 C 286.76 425.927 287.258 425.742 287.569 426.611 C 287.979 427.757 287.788 429.296 287.788 429.296 C 287.788 429.296 288.281 430.723 288.624 429.207 C 289.385 426.36 286.58 423.711 286.58 423.01 Z " fill="rgb(255,152,0)" />
                            <path d=" M 282.668 434.833 C 285.951 434.833 288.611 432.159 288.611 428.861 C 288.611 425.564 285.951 422.89 282.671 422.89 C 279.391 422.89 276.731 425.564 276.731 428.861 C 276.725 432.162 279.388 434.833 282.668 434.833 Z " fill="rgb(21,101,192)" />
                            <path d=" M 287.121 432.544 C 286.992 432.634 286.857 432.716 286.717 432.787 C 286.903 432.515 287.074 432.234 287.23 431.944 C 287.357 431.804 287.473 431.668 287.567 431.52 C 287.613 431.448 287.665 431.359 287.72 431.255 C 288.054 430.654 288.422 429.681 288.432 428.682 L 288.432 428.679 C 288.432 428.655 288.432 428.63 288.432 428.605 C 288.434 428.355 288.408 428.104 288.356 427.859 C 288.358 427.878 288.361 427.897 288.363 427.917 C 288.36 427.902 288.358 427.887 288.355 427.872 C 288.359 427.899 288.363 427.926 288.368 427.952 C 288.436 428.531 288.387 429.095 288.144 429.511 C 288.14 429.517 288.137 429.523 288.133 429.529 C 288.259 428.897 288.301 428.198 288.161 427.499 C 288.161 427.499 288.105 427.16 287.687 426.128 C 287.447 425.534 287.02 425.047 286.643 424.693 C 286.312 424.284 286.012 424.009 285.846 423.835 C 285.501 423.471 285.356 423.198 285.296 423.02 C 285.245 422.994 284.585 422.353 284.533 422.329 C 284.245 422.775 283.339 424.172 283.77 425.477 C 283.965 426.068 284.459 426.682 284.976 427.027 C 284.998 427.052 285.283 427.362 285.419 428.06 C 285.558 428.78 285.485 429.343 285.197 430.175 C 284.858 430.904 283.991 431.626 283.179 431.699 C 281.443 431.857 280.807 430.828 280.807 430.828 C 281.428 431.076 282.114 431.024 282.531 430.767 C 282.951 430.507 283.205 430.314 283.412 430.39 C 283.615 430.466 283.777 430.246 283.632 430.018 C 283.403 429.665 282.984 429.483 282.569 429.555 C 282.148 429.624 281.763 429.957 281.211 429.634 C 281.176 429.614 281.141 429.591 281.108 429.567 C 281.071 429.543 281.226 429.603 281.19 429.576 C 281.083 429.517 280.893 429.39 280.843 429.345 C 280.835 429.338 280.927 429.374 280.918 429.367 C 280.403 428.942 280.467 428.655 280.483 428.476 C 280.496 428.332 280.59 428.147 280.748 428.072 C 280.824 428.114 280.872 428.146 280.872 428.146 C 280.872 428.146 280.839 428.079 280.822 428.044 C 280.828 428.042 280.834 428.042 280.84 428.04 C 280.902 428.07 281.04 428.148 281.113 428.196 C 281.208 428.263 281.238 428.322 281.238 428.322 C 281.238 428.322 281.263 428.309 281.244 428.25 C 281.238 428.227 281.209 428.151 281.115 428.074 L 281.121 428.075 C 281.177 428.107 281.23 428.144 281.28 428.185 C 281.306 428.089 281.354 427.988 281.343 427.809 C 281.337 427.683 281.34 427.65 281.318 427.601 C 281.298 427.559 281.329 427.543 281.363 427.586 C 281.357 427.552 281.348 427.519 281.334 427.487 L 281.334 427.484 C 281.377 427.334 282.248 426.942 282.311 426.897 C 282.415 426.823 282.503 426.728 282.567 426.618 C 282.616 426.541 282.652 426.433 282.661 426.269 C 282.666 426.15 282.611 426.071 281.731 425.979 C 281.49 425.956 281.349 425.781 281.268 425.62 C 281.254 425.585 281.239 425.554 281.224 425.523 C 281.21 425.486 281.198 425.448 281.19 425.41 C 281.333 424.996 281.575 424.647 281.931 424.383 C 281.95 424.365 281.853 424.387 281.873 424.37 C 281.895 424.349 282.043 424.29 282.071 424.276 C 282.105 424.26 281.925 424.184 281.766 424.203 C 281.605 424.221 281.57 424.24 281.484 424.277 C 281.52 424.241 281.634 424.194 281.607 424.195 C 281.433 424.221 281.216 424.323 281.031 424.437 C 281.031 424.417 281.035 424.397 281.043 424.379 C 280.956 424.416 280.745 424.564 280.683 424.689 C 280.686 424.665 280.687 424.641 280.687 424.617 C 280.621 424.671 280.562 424.733 280.51 424.802 L 280.507 424.805 C 280.006 424.603 279.566 424.59 279.194 424.68 C 279.112 424.598 279.073 424.658 278.887 424.251 C 278.875 424.226 278.897 424.275 278.887 424.251 C 278.857 424.172 278.906 424.356 278.887 424.251 C 278.576 424.497 278.165 424.776 277.968 424.972 C 277.966 424.98 278.198 424.907 277.968 424.972 C 277.888 424.995 277.893 425.043 277.881 425.475 C 277.878 425.507 277.881 425.544 277.878 425.573 C 277.721 425.774 277.614 425.943 277.573 426.031 C 277.37 426.382 277.146 426.928 276.929 427.793 C 277.025 427.558 277.14 427.332 277.274 427.118 C 277.093 427.577 276.919 428.297 276.884 429.406 C 276.928 429.177 276.984 428.951 277.052 428.728 C 277.009 429.649 277.168 430.567 277.517 431.42 C 277.642 431.725 277.848 432.189 278.2 432.697 C 279.305 433.86 280.863 434.584 282.589 434.584 C 284.391 434.584 286.009 433.795 287.121 432.544 Z " fill="rgb(13,71,161)" />
                            <path d=" M 285.787 433.388 C 287.968 433.135 288.933 430.888 287.694 430.844 C 286.574 430.808 284.755 433.507 285.787 433.388 Z " fill="rgb(211,47,47)" />
                            <path d=" M 287.851 430.385 C 289.351 429.512 288.96 427.626 288.96 427.626 C 288.96 427.626 288.381 428.299 287.987 429.371 C 287.599 430.433 286.949 430.913 287.851 430.385 Z " fill="rgb(229,57,53)" />
                            <path d=" M 283.088 434.504 C 285.18 435.171 286.977 433.524 285.869 432.973 C 284.862 432.477 282.095 434.188 283.088 434.504 Z " fill="rgb(198,40,40)" />
                            <path d=" M 288.006 431.186 C 288.057 431.114 288.126 430.884 288.187 430.781 C 288.556 430.185 288.559 429.71 288.559 429.699 C 288.782 428.585 288.762 428.13 288.624 427.289 C 288.514 426.611 288.031 425.641 287.613 425.174 C 287.182 424.692 287.485 424.849 287.068 424.497 C 286.702 424.092 286.347 423.69 286.154 423.528 C 284.758 422.361 284.79 422.113 284.817 422.071 C 284.812 422.076 284.805 422.084 284.797 422.093 C 284.78 422.027 284.769 421.972 284.769 421.972 C 284.769 421.972 284.005 422.735 283.845 424.007 C 283.74 424.837 284.051 425.703 284.501 426.256 C 284.735 426.543 285 426.803 285.291 427.033 L 285.291 427.032 C 285.631 427.521 285.818 428.123 285.818 428.771 C 285.818 430.395 284.501 431.71 282.877 431.71 C 282.656 431.711 282.435 431.686 282.219 431.637 C 281.453 431.491 281.011 431.104 280.79 430.842 C 280.663 430.691 280.61 430.582 280.61 430.582 C 281.296 430.828 282.055 430.776 282.517 430.521 C 282.982 430.263 283.264 430.072 283.492 430.147 C 283.717 430.222 283.897 430.005 283.736 429.779 C 283.578 429.553 283.168 429.23 282.559 429.32 C 282.094 429.388 281.667 429.718 281.057 429.398 C 281.017 429.377 280.979 429.355 280.942 429.331 C 280.902 429.307 281.073 429.367 281.033 429.34 C 280.914 429.282 280.704 429.156 280.65 429.111 C 280.64 429.104 280.742 429.14 280.733 429.133 C 280.162 428.712 280.233 428.427 280.251 428.249 C 280.266 428.106 280.369 427.923 280.544 427.849 C 280.628 427.89 280.681 427.922 280.681 427.922 C 280.681 427.922 280.645 427.856 280.625 427.821 C 280.632 427.819 280.639 427.819 280.645 427.817 C 280.714 427.847 280.867 427.924 280.948 427.972 C 281.053 428.038 281.086 428.097 281.086 428.097 C 281.086 428.097 281.114 428.083 281.093 428.026 C 281.086 428.002 281.054 427.927 280.95 427.851 L 280.957 427.851 C 281.018 427.883 281.077 427.919 281.132 427.961 C 281.162 427.865 281.214 427.766 281.203 427.588 C 281.196 427.462 281.199 427.43 281.174 427.382 C 281.152 427.34 281.187 427.324 281.225 427.367 C 281.218 427.333 281.207 427.3 281.192 427.269 L 281.193 427.266 C 281.24 427.116 282.204 426.728 282.274 426.683 C 282.387 426.612 282.484 426.518 282.557 426.407 C 282.611 426.33 282.651 426.223 282.661 426.06 C 282.664 425.987 282.642 425.929 282.387 425.873 C 282.234 425.84 281.997 425.807 281.631 425.773 C 281.365 425.75 281.208 425.577 281.12 425.417 C 281.103 425.383 281.087 425.351 281.07 425.32 C 281.055 425.284 281.042 425.247 281.032 425.208 C 281.192 424.791 281.479 424.435 281.853 424.19 C 281.874 424.173 281.767 424.195 281.789 424.177 C 281.814 424.157 281.977 424.098 282.008 424.084 C 282.045 424.069 281.846 423.993 281.671 424.011 C 281.492 424.029 281.454 424.048 281.359 424.085 C 281.398 424.049 281.524 424.003 281.495 424.003 C 281.302 424.03 281.062 424.13 280.857 424.244 C 280.857 424.224 280.861 424.204 280.87 424.186 C 280.774 424.223 280.54 424.369 280.472 424.493 C 280.475 424.47 280.476 424.446 280.476 424.422 C 280.404 424.475 280.338 424.537 280.28 424.605 L 280.277 424.608 C 279.723 424.408 279.236 424.395 278.824 424.485 C 278.733 424.404 278.589 424.281 278.383 423.877 C 278.369 423.853 278.362 423.927 278.351 423.903 C 278.271 423.718 278.223 423.416 278.231 423.207 C 278.231 423.207 278.066 423.282 277.93 423.596 C 277.904 423.652 277.888 423.683 277.872 423.714 C 277.865 423.723 277.889 423.611 277.885 423.617 C 277.861 423.658 277.8 423.714 277.773 423.786 C 277.754 423.84 277.728 423.87 277.712 423.937 L 277.708 423.944 C 277.707 423.924 277.713 423.862 277.708 423.875 C 277.644 424.004 277.589 424.138 277.544 424.274 C 277.47 424.516 277.384 424.845 277.371 425.273 C 277.368 425.305 277.371 425.341 277.368 425.371 C 277.194 425.569 277.075 425.738 277.03 425.825 C 276.805 426.173 276.557 426.714 276.317 427.572 C 276.424 427.337 276.552 427.113 276.699 426.902 C 276.499 427.357 276.306 428.072 276.267 429.172 C 276.316 428.944 276.378 428.72 276.453 428.499 C 276.418 429.233 276.504 430.143 276.968 431.169 C 277.243 431.772 277.877 432.998 279.426 433.955 L 279.426 433.955 C 279.426 433.955 279.953 434.347 280.859 434.641 C 280.926 434.665 280.993 434.689 281.063 434.713 C 281.041 434.704 281.02 434.695 280.999 434.685 C 281.602 434.866 282.228 434.958 282.858 434.958 C 285.203 434.96 285.895 434.018 285.895 434.018 C 285.895 434.018 285.892 434.02 285.888 434.023 Q 285.937 433.977 285.983 433.926 C 285.613 434.276 284.769 434.299 284.453 434.274 C 284.992 434.116 285.346 433.982 286.035 433.718 Q 286.156 433.673 286.283 433.616 C 286.292 433.612 286.301 433.607 286.31 433.603 C 286.327 433.595 286.344 433.588 286.36 433.58 C 286.696 433.421 287.012 433.224 287.301 432.991 C 287.993 432.438 288.144 431.899 288.223 431.544 C 288.212 431.578 288.177 431.657 288.153 431.708 C 287.975 432.09 287.58 432.324 287.15 432.524 C 287.355 432.256 287.544 431.977 287.718 431.689 C 287.858 431.55 287.902 431.332 288.006 431.186 Z " fill="rgb(230,81,0)" />
                            <path d=" M 287.164 432.508 C 287.446 432.197 287.7 431.841 287.892 431.437 C 288.386 430.399 289.149 428.672 288.548 426.868 C 288.072 425.442 287.42 424.663 286.591 423.901 C 285.245 422.665 284.869 422.113 284.869 421.784 C 284.869 421.784 283.315 423.517 283.989 425.324 C 284.663 427.131 286.043 427.065 286.956 428.95 C 288.031 431.169 286.087 433.591 284.479 434.269 C 284.578 434.247 288.053 433.46 288.236 431.472 C 288.232 431.509 288.153 432.059 287.164 432.508 Z " fill="rgb(255,152,0)" />
                            <path d=" M 282.661 426.06 C 282.666 425.943 282.606 425.864 281.635 425.773 C 281.235 425.736 281.082 425.367 281.036 425.211 C 280.893 425.58 280.835 425.968 280.866 426.436 C 280.888 426.743 281.094 427.072 281.193 427.266 C 281.193 427.266 281.214 427.237 281.225 427.227 C 281.41 427.033 282.188 426.739 282.261 426.697 C 282.341 426.646 282.648 426.422 282.661 426.06 Z " fill="rgb(255,143,0)" />
                            <path d=" M 278.387 423.879 C 278.373 423.855 278.365 423.93 278.355 423.906 C 278.275 423.721 278.226 423.421 278.238 423.209 C 278.238 423.209 278.073 423.284 277.936 423.598 C 277.911 423.655 277.895 423.686 277.879 423.717 C 277.871 423.726 277.896 423.614 277.892 423.62 C 277.868 423.66 277.807 423.716 277.78 423.785 C 277.758 423.842 277.735 423.873 277.718 423.943 C 277.713 423.962 277.723 423.858 277.719 423.871 C 277.401 424.485 277.341 425.412 277.374 425.373 C 278.05 424.651 278.825 424.48 278.825 424.48 C 278.742 424.42 278.563 424.244 278.387 423.879 L 278.387 423.879 Z " fill="rgb(211,47,47)" />
                            <path d=" M 287.162 432.517 C 288.556 431.148 289.262 429.483 288.963 427.617 C 288.963 427.617 289.083 428.574 288.631 429.553 C 288.848 428.597 288.873 427.409 288.296 426.179 C 287.527 424.537 286.261 423.674 285.777 423.313 C 285.045 422.767 284.742 422.211 284.736 422.096 C 284.517 422.545 283.856 424.08 284.665 425.403 C 285.423 426.642 286.618 427.01 287.454 428.147 C 288.995 430.241 287.162 432.517 287.162 432.517 Z " fill="rgb(253,216,53)" />
                            <path d=" M 286.962 428.954 C 286.474 427.948 285.866 427.508 285.291 427.033 C 285.358 427.126 285.374 427.159 285.411 427.22 C 285.918 427.76 286.664 429.076 286.122 430.729 C 285.102 433.84 281.02 432.375 280.592 431.964 C 280.765 433.764 283.778 434.626 285.741 433.458 C 286.857 432.401 287.76 430.604 286.962 428.954 Z " fill="rgb(255,111,0)" />
                        </g>
                    </g>
                </g>
                <clipPath id="_clipPath_C4qZH4l2syF1aD5UjoRqemjFLOeITNYo">
                    <rect x="273.955" y="443.36" width="17.987" height="17.987" transform="matrix(1,0,0,1,0,0)" fill="rgb(255,255,255)" />
                </clipPath>
                <g clip-path="url(#_clipPath_C4qZH4l2syF1aD5UjoRqemjFLOeITNYo)">
                    <g id="Group">
                        <g id="App Store 2">
                            <rect x="275.484" y="444.888" width="14.93" height="14.93" transform="matrix(1,0,0,1,0,0)" fill="rgb(235,235,235)" />
                            <g id="Accessories">
                                <g id="Ruler">
                                    <path d=" M 278.206 453.804 L 278.206 455.554 L 287.691 455.554 L 287.691 453.804 L 278.206 453.804 Z " fill-rule="evenodd" fill="rgb(139,104,69)" fill-opacity="0.8369715073529411" />
                                    <path d=" M 278.558 454.232 L 278.558 454.241 C 278.558 454.287 278.595 454.324 278.641 454.324 L 287.257 454.324 C 287.303 454.324 287.34 454.287 287.34 454.241 L 287.34 454.232 C 287.34 454.186 287.303 454.149 287.257 454.149 L 278.641 454.149 C 278.595 454.149 278.558 454.186 278.558 454.232 Z " fill-rule="evenodd" fill="rgb(118,89,60)" fill-opacity="0.8256261488970589" />
                                </g>
                                <g id="Pen">
                                    <path d=" M 278.917 457.56 L 279.09 456.284 C 279.646 456.077 280.059 456.346 280.122 456.954 L 279.013 457.623 Q 278.946 457.66 278.926 457.647 Q 278.905 457.634 278.917 457.56 Z " fill="rgb(255,204,128)" />
                                    <path d=" M 281.291 452.896 L 282.322 453.566 L 280.122 456.954 C 279.845 456.56 279.432 456.293 279.09 456.284 L 281.291 452.896 Z " fill="rgb(66,165,245)" />
                                    <rect x="281.209" y="452.542" width="1.582" height="0.791" transform="matrix(0.839,0.545,-0.545,0.839,292.248,-80.515)" fill="rgb(189,189,189)" />
                                    <path d=" M 282.395 451.938 L 282.748 452.167 C 282.935 452.289 282.989 452.539 282.867 452.726 L 282.705 452.977 L 281.673 452.307 L 281.836 452.057 C 281.957 451.87 282.208 451.816 282.395 451.938 Z " fill="rgb(139,195,74)" />
                                </g>
                                <g id="Paint Pencil">
                                    <path d=" M 286.844 457.709 Q 286.439 457.812 286.253 457.84 C 286.205 457.847 286.152 457.816 286.135 457.771 L 285.389 455.862 L 286.143 455.412 L 287.468 456.976 C 287.499 457.013 287.5 457.074 287.47 457.112 Q 287.339 457.275 287.074 457.57 C 287.023 457.627 286.919 457.69 286.844 457.709 Z " fill="rgb(121,85,72)" />
                                    <path d=" M 284.758 454.787 Q 282.362 450.509 282.618 450.357 Q 282.875 450.204 285.514 454.356 C 285.351 454.631 285.068 454.781 284.758 454.787 Z " fill="rgb(136,14,79)" />
                                    <path d=" M 284.758 454.787 C 285.029 454.744 285.313 454.594 285.514 454.356 L 286.143 455.412 C 285.95 455.637 285.669 455.805 285.389 455.862 L 284.758 454.787 Z " fill="rgb(235,235,235)" />
                                </g>
                            </g>
                            <path d=" M 275.923 445.955 L 275.923 448.162 C 275.923 448.518 276.212 448.807 276.567 448.807 L 289.33 448.807 C 289.686 448.807 289.975 448.518 289.975 448.162 L 289.975 445.955 C 289.975 445.599 289.686 445.31 289.33 445.31 L 276.567 445.31 C 276.212 445.31 275.923 445.599 275.923 445.955 Z " fill-rule="evenodd" fill="rgb(189,189,189)" />
                            <clipPath id="_clipPath_a8WtPB1u3FKHzLoZEJwaDKD1Ugx3nwK3">
                                <path d=" M 275.923 445.955 L 275.923 448.162 C 275.923 448.518 276.212 448.807 276.567 448.807 L 289.33 448.807 C 289.686 448.807 289.975 448.518 289.975 448.162 L 289.975 445.955 C 289.975 445.599 289.686 445.31 289.33 445.31 L 276.567 445.31 C 276.212 445.31 275.923 445.599 275.923 445.955 Z " fill-rule="evenodd" fill="rgb(255,255,255)" />
                            </clipPath>
                            <g clip-path="url(#_clipPath_a8WtPB1u3FKHzLoZEJwaDKD1Ugx3nwK3)">
                                <g id="Group">
                                    <path d=" M 276.507 446.156 L 276.507 449.299 C 276.507 449.516 276.683 449.693 276.901 449.693 L 288.996 449.693 C 289.214 449.693 289.391 449.516 289.391 449.299 L 289.391 446.156 C 289.391 445.938 289.214 445.761 288.996 445.761 L 276.901 445.761 C 276.683 445.761 276.507 445.938 276.507 446.156 Z " fill-rule="evenodd" fill="rgb(0,150,136)" />
                                    <path d=" M 276.507 446.77 L 276.507 449.458 C 276.507 449.677 276.684 449.854 276.903 449.854 L 288.994 449.854 C 289.213 449.854 289.391 449.677 289.391 449.458 L 289.391 446.77 C 289.391 446.551 289.213 446.373 288.994 446.373 L 276.903 446.373 C 276.684 446.373 276.507 446.551 276.507 446.77 Z " fill-rule="evenodd" fill="rgb(136,14,79)" />
                                    <path d=" M 276.507 447.346 L 276.507 449.494 C 276.507 449.693 276.668 449.854 276.867 449.854 L 289.031 449.854 C 289.23 449.854 289.391 449.693 289.391 449.494 L 289.391 447.346 C 289.391 447.147 289.23 446.986 289.031 446.986 L 276.867 446.986 C 276.668 446.986 276.507 447.147 276.507 447.346 Z " fill-rule="evenodd" fill="rgb(255,193,7)" />
                                    <path d=" M 276.507 447.933 L 276.507 449.536 C 276.507 449.712 276.649 449.854 276.825 449.854 L 289.073 449.854 C 289.248 449.854 289.391 449.712 289.391 449.536 L 289.391 447.933 C 289.391 447.757 289.248 447.614 289.073 447.614 L 276.825 447.614 C 276.649 447.614 276.507 447.757 276.507 447.933 Z " fill-rule="evenodd" fill="rgb(183,28,28)" />
                                </g>
                            </g>
                        </g>
                    </g>
                </g>
                <clipPath id="_clipPath_OCzaYiwe5I0uBVGO4cN1lxt4iLsZb3xZ">
                    <rect x="274.691" y="467.342" width="17.987" height="17.987" transform="matrix(1,0,0,1,0,0)" fill="rgb(255,255,255)" />
                </clipPath>
                <g clip-path="url(#_clipPath_OCzaYiwe5I0uBVGO4cN1lxt4iLsZb3xZ)">
                    <g id="Group">
                        <rect x="276.219" y="468.871" width="14.93" height="14.93" transform="matrix(1,0,0,1,0,0)" fill="rgb(25,118,210)" />
                        <path d=" M 278.52 470.293 L 288.848 470.293 C 289.333 470.293 289.727 470.687 289.727 471.172 L 289.727 481.5 C 289.727 481.985 289.333 482.378 288.848 482.378 L 278.52 482.378 C 278.035 482.378 277.642 481.985 277.642 481.5 L 277.642 471.172 C 277.642 470.687 278.035 470.293 278.52 470.293 Z " fill="rgb(238,238,238)" />
                        <g id="brackets">
                            <path d=" M 284.387 471.259 L 288.761 471.259 L 288.761 481.412 L 284.387 481.412 L 284.387 471.259 Z  M 284.387 473.251 L 286.769 473.251 L 286.769 479.421 L 284.387 479.421 L 284.387 473.251 Z " fill-rule="evenodd" fill="rgb(33,33,33)" />
                            <path d=" M 278.608 471.259 L 282.982 471.259 L 282.982 481.412 L 278.608 481.412 L 278.608 471.259 Z  M 280.599 473.251 L 282.982 473.251 L 282.982 479.421 L 280.599 479.421 L 280.599 473.251 Z " fill-rule="evenodd" fill="rgb(33,33,33)" />
                        </g>
                    </g>
                </g>
                <clipPath id="_clipPath_gfS1stDzsiywrq1llv63VgzLIOt00s1J">
                    <rect x="274.691" y="491.325" width="17.987" height="17.987" transform="matrix(1,0,0,1,0,0)" fill="rgb(255,255,255)" />
                </clipPath>
                <g clip-path="url(#_clipPath_gfS1stDzsiywrq1llv63VgzLIOt00s1J)">
                    <g id="Group">
                        <rect x="276.219" y="492.853" width="14.93" height="14.93" transform="matrix(1,0,0,1,0,0)" fill="rgb(33,33,33)" />
                        <g id="Calendar">
                            <path d=" M 277.436 498.473 L 289 496.572 L 290.481 505.57 L 278.847 507.495 L 277.436 498.473 Z " fill-rule="evenodd" fill="rgb(255,255,255)" />
                            <path d=" M 278.715 506.677 Q 282.865 506.29 284.967 505.939 Q 287.069 505.587 290.383 505.061 L 290.481 505.57 L 278.847 507.495 L 278.715 506.677 Z " fill-rule="evenodd" fill="rgb(200,199,199)" />
                            <path d=" M 277.443 498.514 L 276.887 494.962 L 288.435 493.141 L 289.013 496.653 L 277.443 498.514 Z " fill-rule="evenodd" fill="rgb(198,40,40)" />
                            <path d=" M 282.307 496.492 L 282.307 496.492 Q 282.332 496.528 282.338 496.566 L 282.338 496.566 L 282.338 496.566 Q 282.349 496.634 282.301 496.691 L 282.301 496.691 L 282.301 496.691 Q 282.254 496.748 282.183 496.759 L 282.183 496.759 L 282.183 496.759 Q 282.135 496.767 282.091 496.748 L 282.091 496.748 L 282.091 496.748 Q 282.048 496.729 282.017 496.683 L 282.017 496.683 L 281.89 496.488 L 281.215 496.596 L 281.153 496.821 L 281.153 496.821 Q 281.138 496.875 281.102 496.906 L 281.102 496.906 L 281.102 496.906 Q 281.065 496.938 281.017 496.945 L 281.017 496.945 L 281.017 496.945 Q 280.947 496.957 280.882 496.918 L 280.882 496.918 L 280.882 496.918 Q 280.817 496.879 280.806 496.81 L 280.806 496.81 L 280.806 496.81 Q 280.8 496.773 280.812 496.73 L 280.812 496.73 L 281.181 495.515 L 281.181 495.515 Q 281.2 495.454 281.248 495.415 L 281.248 495.415 L 281.248 495.415 Q 281.296 495.377 281.361 495.366 L 281.361 495.366 L 281.361 495.366 Q 281.423 495.356 281.482 495.378 L 281.482 495.378 L 281.482 495.378 Q 281.541 495.399 281.577 495.451 L 281.577 495.451 L 282.307 496.492 Z  M 281.433 495.79 L 281.299 496.288 L 281.715 496.221 L 281.433 495.79 Z  M 283.167 496.615 L 283.167 496.615 Q 282.849 496.665 282.657 496.53 L 282.657 496.53 L 282.657 496.53 Q 282.466 496.394 282.416 496.081 L 282.416 496.081 L 282.309 495.409 L 282.309 495.409 Q 282.295 495.324 282.338 495.265 L 282.338 495.265 L 282.338 495.265 Q 282.381 495.205 282.466 495.192 L 282.466 495.192 L 282.466 495.192 Q 282.551 495.178 282.611 495.221 L 282.611 495.221 L 282.611 495.221 Q 282.67 495.264 282.683 495.349 L 282.683 495.349 L 282.793 496.036 L 282.793 496.036 Q 282.818 496.194 282.903 496.268 L 282.903 496.268 L 282.903 496.268 Q 282.987 496.342 283.12 496.321 L 283.12 496.321 L 283.12 496.321 Q 283.254 496.3 283.311 496.203 L 283.311 496.203 L 283.311 496.203 Q 283.368 496.106 283.343 495.948 L 283.343 495.948 L 283.233 495.261 L 283.233 495.261 Q 283.219 495.176 283.262 495.117 L 283.262 495.117 L 283.262 495.117 Q 283.305 495.058 283.39 495.044 L 283.39 495.044 L 283.39 495.044 Q 283.476 495.031 283.536 495.073 L 283.536 495.073 L 283.536 495.073 Q 283.596 495.116 283.61 495.201 L 283.61 495.201 L 283.717 495.874 L 283.717 495.874 Q 283.767 496.184 283.625 496.374 L 283.625 496.374 L 283.625 496.374 Q 283.484 496.564 283.167 496.615 L 283.167 496.615 Z  M 285.09 495.439 L 285.09 495.439 Q 285.159 495.428 285.206 495.46 L 285.206 495.46 L 285.206 495.46 Q 285.253 495.492 285.263 495.556 L 285.263 495.556 L 285.321 495.918 L 285.321 495.918 Q 285.337 496.022 285.331 496.08 L 285.331 496.08 L 285.331 496.08 Q 285.324 496.138 285.288 496.175 L 285.288 496.175 L 285.288 496.175 Q 285.253 496.213 285.175 496.249 L 285.175 496.249 L 285.175 496.249 Q 285.097 496.283 285 496.31 L 285 496.31 L 285 496.31 Q 284.903 496.337 284.818 496.351 L 284.818 496.351 L 284.818 496.351 Q 284.579 496.389 284.388 496.327 L 284.388 496.327 L 284.388 496.327 Q 284.198 496.264 284.077 496.11 L 284.077 496.11 L 284.077 496.11 Q 283.956 495.955 283.919 495.722 L 283.919 495.722 L 283.919 495.722 Q 283.882 495.493 283.949 495.308 L 283.949 495.308 L 283.949 495.308 Q 284.016 495.124 284.174 495.004 L 284.174 495.004 L 284.174 495.004 Q 284.332 494.885 284.563 494.848 L 284.563 494.848 L 284.563 494.848 Q 284.709 494.825 284.83 494.841 L 284.83 494.841 L 284.83 494.841 Q 284.951 494.857 285.062 494.912 L 285.062 494.912 L 285.062 494.912 Q 285.101 494.931 285.121 494.958 L 285.121 494.958 L 285.121 494.958 Q 285.142 494.984 285.149 495.03 L 285.149 495.03 L 285.149 495.03 Q 285.159 495.095 285.131 495.145 L 285.131 495.145 L 285.131 495.145 Q 285.103 495.195 285.053 495.203 L 285.053 495.203 L 285.053 495.203 Q 285.02 495.209 284.994 495.203 L 284.994 495.203 L 284.994 495.203 Q 284.969 495.198 284.928 495.181 L 284.928 495.181 L 284.928 495.181 Q 284.844 495.151 284.773 495.143 L 284.773 495.143 L 284.773 495.143 Q 284.703 495.135 284.624 495.148 L 284.624 495.148 L 284.624 495.148 Q 284.426 495.18 284.347 495.305 L 284.347 495.305 L 284.347 495.305 Q 284.268 495.431 284.304 495.66 L 284.304 495.66 L 284.304 495.66 Q 284.342 495.895 284.461 495.993 L 284.461 495.993 L 284.461 495.993 Q 284.58 496.09 284.788 496.057 L 284.788 496.057 L 284.788 496.057 Q 284.888 496.041 284.982 496.004 L 284.982 496.004 L 284.939 495.732 L 284.789 495.756 L 284.789 495.756 Q 284.72 495.767 284.677 495.738 L 284.677 495.738 L 284.677 495.738 Q 284.634 495.71 284.624 495.647 L 284.624 495.647 L 284.624 495.647 Q 284.614 495.585 284.646 495.545 L 284.646 495.545 L 284.646 495.545 Q 284.678 495.504 284.747 495.493 L 284.747 495.493 L 285.09 495.439 Z " fill-rule="evenodd" fill="rgb(250,250,250)" />
                            <path d=" M 283.403 503.07 L 283.403 503.07 Q 283.678 503.026 283.83 503.114 L 283.83 503.114 L 283.83 503.114 Q 283.982 503.201 284.019 503.433 L 284.019 503.433 L 284.019 503.433 Q 284.056 503.67 283.94 503.804 L 283.94 503.804 L 283.94 503.804 Q 283.824 503.937 283.549 503.981 L 283.549 503.981 L 281.27 504.346 L 281.27 504.346 Q 281.045 504.381 280.893 504.268 L 280.893 504.268 L 280.893 504.268 Q 280.74 504.155 280.707 503.949 L 280.707 503.949 L 280.707 503.949 Q 280.664 503.68 280.842 503.428 L 280.842 503.428 L 281.945 501.836 L 281.945 501.836 Q 282.288 501.34 282.23 500.977 L 282.23 500.977 L 282.23 500.977 Q 282.196 500.765 282.057 500.672 L 282.057 500.672 L 282.057 500.672 Q 281.917 500.579 281.692 500.615 L 281.692 500.615 L 281.692 500.615 Q 281.511 500.644 281.367 500.722 L 281.367 500.722 L 281.367 500.722 Q 281.222 500.799 281.038 500.931 L 281.038 500.931 L 280.923 501.013 L 280.923 501.013 Q 280.9 501.03 280.835 501.082 L 280.835 501.082 L 280.835 501.082 Q 280.77 501.134 280.716 501.162 L 280.716 501.162 L 280.716 501.162 Q 280.663 501.189 280.601 501.199 L 280.601 501.199 L 280.601 501.199 Q 280.445 501.224 280.316 501.101 L 280.316 501.101 L 280.316 501.101 Q 280.188 500.977 280.157 500.784 L 280.157 500.784 L 280.157 500.784 Q 280.135 500.646 280.161 500.552 L 280.161 500.552 L 280.161 500.552 Q 280.188 500.459 280.288 500.366 L 280.288 500.366 L 280.288 500.366 Q 280.55 500.119 280.897 499.948 L 280.897 499.948 L 280.897 499.948 Q 281.245 499.777 281.6 499.721 L 281.6 499.721 L 281.6 499.721 Q 282.062 499.647 282.437 499.744 L 282.437 499.744 L 282.437 499.744 Q 282.811 499.841 283.047 500.095 L 283.047 500.095 L 283.047 500.095 Q 283.282 500.348 283.341 500.717 L 283.341 500.717 L 283.341 500.717 Q 283.402 501.098 283.3 501.437 L 283.3 501.437 L 283.3 501.437 Q 283.197 501.777 282.89 502.223 L 282.89 502.223 L 282.148 503.27 L 283.403 503.07 Z  M 285.987 500.64 L 285.987 500.64 Q 286.392 500.575 286.736 500.703 L 286.736 500.703 L 286.736 500.703 Q 287.08 500.83 287.309 501.123 L 287.309 501.123 L 287.309 501.123 Q 287.539 501.416 287.605 501.835 L 287.605 501.835 L 287.605 501.835 Q 287.677 502.284 287.52 502.662 L 287.52 502.662 L 287.52 502.662 Q 287.362 503.039 287.005 503.288 L 287.005 503.288 L 287.005 503.288 Q 286.648 503.537 286.142 503.618 L 286.142 503.618 L 286.142 503.618 Q 285.755 503.68 285.366 503.627 L 285.366 503.627 L 285.366 503.627 Q 284.976 503.574 284.676 503.417 L 284.676 503.417 L 284.676 503.417 Q 284.563 503.352 284.501 503.269 L 284.501 503.269 L 284.501 503.269 Q 284.44 503.186 284.42 503.061 L 284.42 503.061 L 284.42 503.061 Q 284.389 502.867 284.474 502.716 L 284.474 502.716 L 284.474 502.716 Q 284.559 502.565 284.715 502.54 L 284.715 502.54 L 284.715 502.54 Q 284.808 502.525 284.875 502.54 L 284.875 502.54 L 284.875 502.54 Q 284.941 502.555 285.077 502.604 L 285.077 502.604 L 285.212 502.646 L 285.212 502.646 Q 285.421 502.709 285.589 502.74 L 285.589 502.74 L 285.589 502.74 Q 285.757 502.771 285.944 502.741 L 285.944 502.741 L 285.944 502.741 Q 286.294 502.685 286.44 502.517 L 286.44 502.517 L 286.44 502.517 Q 286.586 502.35 286.538 502.05 L 286.538 502.05 L 286.538 502.05 Q 286.494 501.769 286.294 501.641 L 286.294 501.641 L 286.294 501.641 Q 286.094 501.513 285.782 501.563 L 285.782 501.563 L 285.782 501.563 Q 285.594 501.593 285.446 501.648 L 285.446 501.648 L 285.446 501.648 Q 285.298 501.704 285.105 501.818 L 285.105 501.818 L 285.105 501.818 Q 284.985 501.908 284.835 501.932 L 284.835 501.932 L 284.835 501.932 Q 284.66 501.96 284.525 501.875 L 284.525 501.875 L 284.525 501.875 Q 284.39 501.791 284.363 501.623 L 284.363 501.623 L 284.093 499.931 L 284.093 499.931 Q 284.051 499.668 284.167 499.509 L 284.167 499.509 L 284.167 499.509 Q 284.282 499.35 284.538 499.309 L 284.538 499.309 L 286.474 499 L 286.474 499 Q 287.017 498.913 287.086 499.344 L 287.086 499.344 L 287.086 499.344 Q 287.156 499.781 286.612 499.868 L 286.612 499.868 L 285.264 500.083 L 285.386 500.851 L 285.386 500.851 Q 285.631 500.697 285.987 500.64 L 285.987 500.64 Z " fill-rule="evenodd" fill="rgb(33,33,33)" />
                        </g>
                    </g>
                </g>
                <clipPath id="_clipPath_HiE6eOcOYhGHNcsxBErQq4W9DZWlwgh4">
                    <rect x="274.691" y="515.307" width="17.987" height="17.987" transform="matrix(1,0,0,1,0,0)" fill="rgb(255,255,255)" />
                </clipPath>
                <g clip-path="url(#_clipPath_HiE6eOcOYhGHNcsxBErQq4W9DZWlwgh4)">
                    <g id="Group">
                        <path d=" M 276.219 516.835 L 276.219 531.765 L 291.149 531.765 L 291.149 516.835 L 276.219 516.835 Z " fill-rule="evenodd" fill="rgb(21,101,192)" />
                        <path d=" M 281.05 519.294 Q 279.711 519.271 276.219 519.282 L 276.219 522.614 L 291.149 522.614 L 291.149 521.665 Q 286.679 521.698 284.707 521.673 C 282.736 521.648 282.388 519.317 281.05 519.294 Z " fill-rule="evenodd" fill="rgb(30,136,229)" />
                        <path d=" M 280.768 519.839 Q 279.43 519.816 276.219 519.826 L 276.219 531.765 L 291.149 531.765 L 291.149 522.21 Q 286.415 522.242 284.444 522.217 C 282.472 522.192 282.107 519.862 280.768 519.839 Z " fill-rule="evenodd" fill="rgb(100,181,246)" />
                    </g>
                </g>
            </g>
        </g>
    </g>
</svg>