<?xml version="1.0" standalone="no"?>
<!-- Generator: Gravit.io -->
<svg xmlns="http://www.w3.org/2000/svg" xmlns:xlink="http://www.w3.org/1999/xlink" style="isolation:isolate" viewBox="0 0 1024 1024" width="1024" height="1024">
    <defs>
        <clipPath id="_clipPath_zdyDlKRNNKJUFVtl20DcGd7r3dUF4cik">
            <rect width="1024" height="1024" />
        </clipPath>
    </defs>
    <g clip-path="url(#_clipPath_zdyDlKRNNKJUFVtl20DcGd7r3dUF4cik)">
        <rect x="86" y="89.897" width="850" height="850" transform="matrix(1,0,0,1,0,0)" fill="rgb(144,164,174)" />
        <rect x="86" y="710" width="850" height="229.897" transform="matrix(1,0,0,1,0,0)" fill="rgb(84,110,122)" />
        <g id="MacBook Air">
            <path d=" M 172.746 817.366 Q 181.583 822.113 189.95 822.113 C 198.317 822.113 828.048 822.542 840.022 822.757 Q 851.996 822.971 852.667 813.907 Q 852.64 827.048 840.022 827.262 C 830.222 827.429 207.878 826.538 189.95 826.618 Q 172.022 826.699 172.746 817.366 Z " fill-rule="evenodd" fill="rgb(0,0,0)" />
            <mask id="_mask_2OXaJ7jLrecdvMIBTtLqcdWOG4bvU4Xo">
                <path d=" M 773.084 717.2 L 773.084 390.877 C 773.084 383.062 766.739 376.717 758.924 376.717 L 269.761 376.717 C 261.946 376.717 255.601 383.062 255.601 390.877 L 255.601 717.2 L 255.601 717.2 L 255.601 740.371 L 773.084 740.371 L 773.084 717.2 Z " fill-rule="evenodd" fill="white" stroke="none" />
            </mask>
            <path d=" M 773.084 717.2 L 773.084 390.877 C 773.084 383.062 766.739 376.717 758.924 376.717 L 269.761 376.717 C 261.946 376.717 255.601 383.062 255.601 390.877 L 255.601 717.2 L 255.601 717.2 L 255.601 740.371 L 773.084 740.371 L 773.084 717.2 Z " fill-rule="evenodd" fill="rgb(33,33,33)" mask="url(#_mask_2OXaJ7jLrecdvMIBTtLqcdWOG4bvU4Xo)" vector-effect="non-scaling-stroke" stroke-width="3.862" stroke="rgb(8,8,8)" stroke-linejoin="miter" stroke-linecap="square" stroke-miterlimit="10" />
            <path d=" M 255.881 730.073 C 260.386 730.073 768.799 730.073 772.017 730.073 C 775.235 730.073 777.455 731.277 779.096 733.291 C 780.736 735.305 847.283 805.28 851.175 810.528 C 855.067 815.775 850.61 822.757 844.096 822.757 C 621.664 822.757 183.018 822.328 178.01 822.113 C 173.001 821.898 170.287 816.32 175.435 809.884 C 180.584 803.448 243.227 736.916 245.584 734.579 C 247.94 732.241 251.376 730.073 255.881 730.073 Z " fill-rule="evenodd" fill="rgb(40,40,40)" />
            <path d=" M 431.118 822.435 L 592.027 822.435 L 592.027 826.94 L 431.118 826.94 L 431.118 822.435 Z " fill-rule="evenodd" fill="rgb(33,33,33)" />
            <path d=" M 388.19 781.564 L 639.208 781.564 L 652.724 819.538 L 374.03 819.538 L 388.19 781.564 Z " fill-rule="evenodd" fill="rgb(45,45,45)" />
            <g id="Keyboard">
                <path d=" M 248.521 736.509 L 780.164 736.509 L 821.357 780.277 L 206.685 780.277 L 248.521 736.509 Z " fill-rule="evenodd" fill="rgb(40,40,40)" />
                <path d=" M 392.052 771.266 L 594.153 771.266 L 596.084 779.633 L 388.834 779.633 L 392.052 771.266 Z " fill-rule="evenodd" fill="rgb(1,1,1)" />
                <path d=" M 597.477 771.266 L 645.838 771.266 L 648.862 779.633 L 599.302 779.633 L 597.477 771.266 Z " fill-rule="evenodd" fill="rgb(1,1,1)" />
                <path d=" M 648.968 771.266 L 687.069 771.266 L 690.699 779.633 L 652.313 779.633 L 648.968 771.266 Z " fill-rule="evenodd" fill="rgb(1,1,1)" />
                <path d=" M 690.161 771.266 L 727.618 771.266 L 733.179 779.633 L 694.149 779.633 L 690.161 771.266 Z " fill-rule="evenodd" fill="rgb(1,1,1)" />
                <path d=" M 730.71 771.266 L 768.811 771.266 L 775.015 779.633 L 735.985 779.633 L 730.71 771.266 Z " fill-rule="evenodd" fill="rgb(1,1,1)" />
                <path d=" M 771.259 771.266 L 809.36 771.266 L 816.851 779.633 L 777.822 779.633 L 771.259 771.266 Z " fill-rule="evenodd" fill="rgb(1,1,1)" />
                <path d=" M 715.157 763.542 L 802.16 763.542 L 809.128 770.622 L 719.579 770.622 L 715.157 763.542 Z " fill-rule="evenodd" fill="rgb(1,1,1)" />
                <path d=" M 675.251 763.542 L 712.198 763.542 L 716.444 770.622 L 678.417 770.622 L 675.251 763.542 Z " fill-rule="evenodd" fill="rgb(1,1,1)" />
                <path d=" M 635.346 763.542 L 672.292 763.542 L 675.251 770.622 L 637.868 770.622 L 635.346 763.542 Z " fill-rule="evenodd" fill="rgb(1,1,1)" />
                <path d=" M 595.441 763.542 L 632.387 763.542 L 634.702 770.622 L 596.675 770.622 L 595.441 763.542 Z " fill-rule="evenodd" fill="rgb(1,1,1)" />
                <path d=" M 555.535 763.542 L 591.838 763.542 L 593.51 770.622 L 556.126 770.622 L 555.535 763.542 Z " fill-rule="evenodd" fill="rgb(1,1,1)" />
                <path d=" M 515.63 763.542 L 551.933 763.542 L 552.961 770.622 L 515.577 770.622 L 515.63 763.542 Z " fill-rule="evenodd" fill="rgb(1,1,1)" />
                <path d=" M 475.081 763.542 L 512.027 763.542 L 512.412 770.622 L 474.384 770.622 L 475.081 763.542 Z " fill-rule="evenodd" fill="rgb(1,1,1)" />
                <path d=" M 435.175 763.542 L 472.122 763.542 L 471.863 770.622 L 433.192 770.622 L 435.175 763.542 Z " fill-rule="evenodd" fill="rgb(1,1,1)" />
                <path d=" M 395.27 763.542 L 432.216 763.542 L 430.026 770.622 L 392.643 770.622 L 395.27 763.542 Z " fill-rule="evenodd" fill="rgb(1,1,1)" />
                <path d=" M 355.364 763.542 L 391.667 763.542 L 389.477 770.622 L 351.45 770.622 L 355.364 763.542 Z " fill-rule="evenodd" fill="rgb(1,1,1)" />
                <path d=" M 315.459 763.542 L 351.762 763.542 L 348.928 770.622 L 310.901 770.622 L 315.459 763.542 Z " fill-rule="evenodd" fill="rgb(1,1,1)" />
                <path d=" M 225.35 763.542 L 311.856 763.542 L 307.735 770.622 L 218.861 770.622 L 225.35 763.542 Z " fill-rule="evenodd" fill="rgb(1,1,1)" />
                <path d=" M 232.43 755.175 L 298.725 755.175 L 293.316 762.898 L 225.941 762.898 L 232.43 755.175 Z " fill-rule="evenodd" fill="rgb(1,1,1)" />
                <path d=" M 240.154 747.451 L 294.863 747.451 L 289.454 754.531 L 233.665 754.531 L 240.154 747.451 Z " fill-rule="evenodd" fill="rgb(1,1,1)" />
                <path d=" M 301.299 755.175 L 337.343 755.175 L 333.222 762.898 L 296.097 762.898 L 301.299 755.175 Z " fill-rule="evenodd" fill="rgb(1,1,1)" />
                <path d=" M 297.437 747.451 L 332.194 747.451 L 328.073 754.531 L 292.235 754.531 L 297.437 747.451 Z " fill-rule="evenodd" fill="rgb(1,1,1)" />
                <path d=" M 334.768 747.451 L 370.168 747.451 L 366.691 754.531 L 330.854 754.531 L 334.768 747.451 Z " fill-rule="evenodd" fill="rgb(1,1,1)" />
                <path d=" M 373.386 747.451 L 408.143 747.451 L 405.952 754.531 L 370.115 754.531 L 373.386 747.451 Z " fill-rule="evenodd" fill="rgb(1,1,1)" />
                <path d=" M 411.361 747.451 L 446.117 747.451 L 444.571 754.531 L 408.733 754.531 L 411.361 747.451 Z " fill-rule="evenodd" fill="rgb(1,1,1)" />
                <path d=" M 449.335 747.451 L 484.092 747.451 L 483.832 754.531 L 447.995 754.531 L 449.335 747.451 Z " fill-rule="evenodd" fill="rgb(1,1,1)" />
                <path d=" M 486.666 747.451 L 522.71 747.451 L 522.45 754.531 L 486.613 754.531 L 486.666 747.451 Z " fill-rule="evenodd" fill="rgb(1,1,1)" />
                <path d=" M 525.284 747.451 L 560.041 747.451 L 561.069 754.531 L 525.231 754.531 L 525.284 747.451 Z " fill-rule="evenodd" fill="rgb(1,1,1)" />
                <path d=" M 562.615 747.451 L 598.015 747.451 L 599.687 754.531 L 563.85 754.531 L 562.615 747.451 Z " fill-rule="evenodd" fill="rgb(1,1,1)" />
                <path d=" M 601.233 747.451 L 635.99 747.451 L 638.949 754.531 L 603.111 754.531 L 601.233 747.451 Z " fill-rule="evenodd" fill="rgb(1,1,1)" />
                <path d=" M 639.208 747.451 L 673.964 747.451 L 678.21 754.531 L 642.373 754.531 L 639.208 747.451 Z " fill-rule="evenodd" fill="rgb(1,1,1)" />
                <path d=" M 676.539 747.451 L 711.939 747.451 L 716.828 754.531 L 680.991 754.531 L 676.539 747.451 Z " fill-rule="evenodd" fill="rgb(1,1,1)" />
                <path d=" M 715.157 747.451 L 750.557 747.451 L 755.447 754.531 L 719.609 754.531 L 715.157 747.451 Z " fill-rule="evenodd" fill="rgb(1,1,1)" />
                <path d=" M 753.131 747.451 L 788.531 747.451 L 794.708 754.531 L 757.584 754.531 L 753.131 747.451 Z " fill-rule="evenodd" fill="rgb(1,1,1)" />
                <path d=" M 728.03 740.371 L 782.095 740.371 L 787.628 746.808 L 733.179 746.808 L 728.03 740.371 Z " fill-rule="evenodd" fill="rgb(1,1,1)" />
                <path d=" M 691.342 740.371 L 725.455 740.371 L 730.345 746.808 L 695.848 746.808 L 691.342 740.371 Z " fill-rule="evenodd" fill="rgb(1,1,1)" />
                <path d=" M 654.655 740.371 L 688.124 740.371 L 692.37 746.808 L 657.873 746.808 L 654.655 740.371 Z " fill-rule="evenodd" fill="rgb(1,1,1)" />
                <path d=" M 617.324 740.371 L 650.793 740.371 L 654.396 746.808 L 619.255 746.808 L 617.324 740.371 Z " fill-rule="evenodd" fill="rgb(1,1,1)" />
                <path d=" M 580.637 740.371 L 614.75 740.371 L 616.421 746.808 L 581.281 746.808 L 580.637 740.371 Z " fill-rule="evenodd" fill="rgb(1,1,1)" />
                <path d=" M 543.306 740.371 L 577.419 740.371 L 579.09 746.808 L 543.306 746.808 L 543.306 740.371 Z " fill-rule="evenodd" fill="rgb(1,1,1)" />
                <path d=" M 505.975 740.371 L 540.732 740.371 L 540.472 746.808 L 505.975 746.808 L 505.975 740.371 Z " fill-rule="evenodd" fill="rgb(1,1,1)" />
                <path d=" M 468.644 740.371 L 503.401 740.371 L 503.401 746.808 L 468.001 746.808 L 468.644 740.371 Z " fill-rule="evenodd" fill="rgb(1,1,1)" />
                <path d=" M 431.957 740.371 L 466.07 740.371 L 465.426 746.808 L 430.026 746.808 L 431.957 740.371 Z " fill-rule="evenodd" fill="rgb(1,1,1)" />
                <path d=" M 395.27 740.371 L 428.739 740.371 L 426.808 746.808 L 392.052 746.808 L 395.27 740.371 Z " fill-rule="evenodd" fill="rgb(1,1,1)" />
                <path d=" M 357.939 740.371 L 392.695 740.371 L 389.477 746.808 L 354.721 746.808 L 357.939 740.371 Z " fill-rule="evenodd" fill="rgb(1,1,1)" />
                <path d=" M 321.252 740.371 L 354.721 740.371 L 351.503 746.808 L 316.746 746.808 L 321.252 740.371 Z " fill-rule="evenodd" fill="rgb(1,1,1)" />
                <path d=" M 283.921 740.371 L 318.034 740.371 L 313.528 746.808 L 278.772 746.808 L 283.921 740.371 Z " fill-rule="evenodd" fill="rgb(1,1,1)" />
                <path d=" M 246.59 740.371 L 280.703 740.371 L 275.554 746.808 L 240.797 746.808 L 246.59 740.371 Z " fill-rule="evenodd" fill="rgb(1,1,1)" />
                <path d=" M 249.808 737.153 L 301.299 737.153 L 299.368 739.728 L 247.234 739.728 L 249.808 737.153 Z " fill-rule="evenodd" fill="rgb(1,1,1)" />
                <path d=" M 305.161 737.153 L 339.274 737.153 L 337.343 739.728 L 303.23 739.728 L 305.161 737.153 Z " fill-rule="evenodd" fill="rgb(1,1,1)" />
                <path d=" M 341.848 737.153 L 375.317 737.153 L 374.03 739.728 L 339.917 739.728 L 341.848 737.153 Z " fill-rule="evenodd" fill="rgb(1,1,1)" />
                <path d=" M 377.892 737.153 L 411.361 737.153 L 410.717 739.728 L 376.604 739.728 L 377.892 737.153 Z " fill-rule="evenodd" fill="rgb(1,1,1)" />
                <path d=" M 413.935 737.153 L 448.048 737.153 L 448.048 739.728 L 413.292 739.728 L 413.935 737.153 Z " fill-rule="evenodd" fill="rgb(1,1,1)" />
                <path d=" M 451.266 737.153 L 485.379 737.153 L 485.379 739.728 L 451.266 739.728 L 451.266 737.153 Z " fill-rule="evenodd" fill="rgb(1,1,1)" />
                <path d=" M 487.953 737.153 L 522.71 737.153 L 522.71 739.728 L 487.953 739.728 L 487.953 737.153 Z " fill-rule="evenodd" fill="rgb(1,1,1)" />
                <path d=" M 524.641 737.153 L 558.753 737.153 L 558.753 739.728 L 524.641 739.728 L 524.641 737.153 Z " fill-rule="evenodd" fill="rgb(1,1,1)" />
                <path d=" M 560.684 737.153 L 594.797 737.153 L 595.441 739.728 L 560.684 739.728 L 560.684 737.153 Z " fill-rule="evenodd" fill="rgb(1,1,1)" />
                <path d=" M 598.015 737.153 L 632.128 737.153 L 633.415 739.728 L 598.659 739.728 L 598.015 737.153 Z " fill-rule="evenodd" fill="rgb(1,1,1)" />
                <path d=" M 634.702 737.153 L 668.815 737.153 L 670.102 739.728 L 635.99 739.728 L 634.702 737.153 Z " fill-rule="evenodd" fill="rgb(1,1,1)" />
                <path d=" M 670.746 737.153 L 704.859 737.153 L 706.79 739.728 L 672.033 739.728 L 670.746 737.153 Z " fill-rule="evenodd" fill="rgb(1,1,1)" />
                <path d=" M 707.433 737.153 L 741.546 737.153 L 743.477 739.728 L 709.364 739.728 L 707.433 737.153 Z " fill-rule="evenodd" fill="rgb(1,1,1)" />
                <path d=" M 744.764 737.153 L 779.52 737.153 L 781.451 739.728 L 746.695 739.728 L 744.764 737.153 Z " fill-rule="evenodd" fill="rgb(1,1,1)" />
                <path d=" M 340.561 755.175 L 376.604 755.175 L 372.483 762.898 L 335.359 762.898 L 340.561 755.175 Z " fill-rule="evenodd" fill="rgb(1,1,1)" />
                <path d=" M 379.179 755.175 L 415.223 755.175 L 413.032 762.898 L 375.908 762.898 L 379.179 755.175 Z " fill-rule="evenodd" fill="rgb(1,1,1)" />
                <path d=" M 417.797 755.175 L 453.841 755.175 L 452.938 762.898 L 415.813 762.898 L 417.797 755.175 Z " fill-rule="evenodd" fill="rgb(1,1,1)" />
                <path d=" M 456.415 755.175 L 493.103 755.175 L 492.843 762.898 L 455.719 762.898 L 456.415 755.175 Z " fill-rule="evenodd" fill="rgb(1,1,1)" />
                <path d=" M 495.677 755.175 L 532.364 755.175 L 532.749 762.898 L 495.624 762.898 L 495.677 755.175 Z " fill-rule="evenodd" fill="rgb(1,1,1)" />
                <path d=" M 534.939 755.175 L 570.982 755.175 L 572.01 762.898 L 535.53 762.898 L 534.939 755.175 Z " fill-rule="evenodd" fill="rgb(1,1,1)" />
                <path d=" M 574.201 755.175 L 610.244 755.175 L 612.559 762.898 L 575.435 762.898 L 574.201 755.175 Z " fill-rule="evenodd" fill="rgb(1,1,1)" />
                <path d=" M 612.819 755.175 L 648.862 755.175 L 653.109 762.898 L 615.34 762.898 L 612.819 755.175 Z " fill-rule="evenodd" fill="rgb(1,1,1)" />
                <path d=" M 652.081 755.175 L 687.48 755.175 L 692.37 762.898 L 655.246 762.898 L 652.081 755.175 Z " fill-rule="evenodd" fill="rgb(1,1,1)" />
                <path d=" M 690.699 755.175 L 726.099 755.175 L 732.276 762.898 L 695.151 762.898 L 690.699 755.175 Z " fill-rule="evenodd" fill="rgb(1,1,1)" />
                <path d=" M 729.96 755.175 L 794.968 755.175 L 802.048 762.898 L 735.057 762.898 L 729.96 755.175 Z " fill-rule="evenodd" fill="rgb(1,1,1)" />
                <path d=" M 218.162 771.266 L 297.373 771.266 L 291.001 779.633 L 210.546 779.633 L 218.162 771.266 Z " fill-rule="evenodd" fill="rgb(1,1,1)" />
                <path d=" M 300.181 771.266 L 337.986 771.266 L 333.221 779.633 L 294.863 779.633 L 300.181 771.266 Z " fill-rule="evenodd" fill="rgb(1,1,1)" />
                <path d=" M 341.374 771.266 L 388.834 771.266 L 385.999 779.633 L 336.699 779.633 L 341.374 771.266 Z " fill-rule="evenodd" fill="rgb(1,1,1)" />
            </g>
            <path d=" M 271.333 403.106 L 755.347 403.106 L 755.347 714.626 L 271.333 714.626 L 271.333 403.106 Z " fill="rgb(106,27,154)" />
            <path d=" M 532.573 725.911 L 531.743 725.911 L 530.885 723.718 L 528.123 723.718 L 527.274 725.911 L 526.464 725.911 L 529.188 718.99 L 529.862 718.99 L 532.573 725.911 Z  M 528.406 722.997 L 530.636 722.997 L 529.834 720.862 L 529.834 720.862 Q 529.679 720.456 529.514 719.867 L 529.514 719.867 L 529.514 719.867 Q 529.41 720.32 529.217 720.862 L 529.217 720.862 L 528.406 722.997 Z  M 534.185 720.744 L 534.185 725.911 L 533.403 725.911 L 533.403 720.744 L 534.185 720.744 Z  M 533.337 719.344 L 533.337 719.344 L 533.337 719.344 Q 533.337 719.075 533.469 718.95 L 533.469 718.95 L 533.469 718.95 Q 533.601 718.825 533.799 718.825 L 533.799 718.825 L 533.799 718.825 Q 533.987 718.825 534.124 718.952 L 534.124 718.952 L 534.124 718.952 Q 534.261 719.08 534.261 719.344 L 534.261 719.344 L 534.261 719.344 Q 534.261 719.608 534.124 719.737 L 534.124 719.737 L 534.124 719.737 Q 533.987 719.867 533.799 719.867 L 533.799 719.867 L 533.799 719.867 Q 533.601 719.867 533.469 719.737 L 533.469 719.737 L 533.469 719.737 Q 533.337 719.608 533.337 719.344 Z  M 538.202 720.65 L 538.202 720.65 L 538.202 720.65 Q 538.546 720.65 538.819 720.706 L 538.819 720.706 L 538.711 721.432 L 538.711 721.432 Q 538.39 721.361 538.145 721.361 L 538.145 721.361 L 538.145 721.361 Q 537.518 721.361 537.073 721.87 L 537.073 721.87 L 537.073 721.87 Q 536.627 722.38 536.627 723.139 L 536.627 723.139 L 536.627 725.911 L 535.845 725.911 L 535.845 720.744 L 536.491 720.744 L 536.58 721.701 L 536.618 721.701 L 536.618 721.701 Q 536.905 721.196 537.311 720.923 L 537.311 720.923 L 537.311 720.923 Q 537.716 720.65 538.202 720.65 Z  M 486.931 725.911 L 486.285 725.911 L 483.947 719.801 L 483.909 719.801 L 483.909 719.801 Q 483.975 720.527 483.975 721.526 L 483.975 721.526 L 483.975 725.911 L 483.235 725.911 L 483.235 719.018 L 484.442 719.018 L 486.624 724.704 L 486.662 724.704 L 488.864 719.018 L 490.061 719.018 L 490.061 725.911 L 489.26 725.911 L 489.26 721.47 L 489.26 721.47 Q 489.26 720.706 489.326 719.81 L 489.326 719.81 L 489.288 719.81 L 486.931 725.911 Z  M 495.591 725.911 L 495.011 725.911 L 494.855 725.175 L 494.818 725.175 L 494.818 725.175 Q 494.431 725.661 494.047 725.833 L 494.047 725.833 L 494.047 725.833 Q 493.663 726.005 493.088 726.005 L 493.088 726.005 L 493.088 726.005 Q 492.319 726.005 491.883 725.609 L 491.883 725.609 L 491.883 725.609 Q 491.447 725.213 491.447 724.482 L 491.447 724.482 L 491.447 724.482 Q 491.447 722.917 493.95 722.842 L 493.95 722.842 L 494.827 722.813 L 494.827 722.493 L 494.827 722.493 Q 494.827 721.885 494.565 721.595 L 494.565 721.595 L 494.565 721.595 Q 494.304 721.305 493.729 721.305 L 493.729 721.305 L 493.729 721.305 Q 493.083 721.305 492.267 721.701 L 492.267 721.701 L 492.027 721.102 L 492.027 721.102 Q 492.409 720.895 492.864 720.777 L 492.864 720.777 L 492.864 720.777 Q 493.319 720.659 493.776 720.659 L 493.776 720.659 L 493.776 720.659 Q 494.7 720.659 495.145 721.069 L 495.145 721.069 L 495.145 721.069 Q 495.591 721.479 495.591 722.384 L 495.591 722.384 L 495.591 725.911 Z  M 493.243 725.359 L 493.243 725.359 L 493.243 725.359 Q 493.974 725.359 494.391 724.958 L 494.391 724.958 L 494.391 724.958 Q 494.808 724.558 494.808 723.836 L 494.808 723.836 L 494.808 723.37 L 494.026 723.403 L 494.026 723.403 Q 493.092 723.436 492.68 723.693 L 492.68 723.693 L 492.68 723.693 Q 492.267 723.949 492.267 724.492 L 492.267 724.492 L 492.267 724.492 Q 492.267 724.916 492.524 725.137 L 492.524 725.137 L 492.524 725.137 Q 492.781 725.359 493.243 725.359 Z  M 499.268 726.005 L 499.268 726.005 L 499.268 726.005 Q 498.146 726.005 497.531 725.314 L 497.531 725.314 L 497.531 725.314 Q 496.915 724.624 496.915 723.36 L 496.915 723.36 L 496.915 723.36 Q 496.915 722.064 497.54 721.357 L 497.54 721.357 L 497.54 721.357 Q 498.165 720.65 499.32 720.65 L 499.32 720.65 L 499.32 720.65 Q 499.692 720.65 500.064 720.73 L 500.064 720.73 L 500.064 720.73 Q 500.437 720.81 500.649 720.918 L 500.649 720.918 L 500.409 721.583 L 500.409 721.583 Q 500.149 721.479 499.843 721.411 L 499.843 721.411 L 499.843 721.411 Q 499.536 721.343 499.301 721.343 L 499.301 721.343 L 499.301 721.343 Q 497.726 721.343 497.726 723.351 L 497.726 723.351 L 497.726 723.351 Q 497.726 724.303 498.11 724.812 L 498.11 724.812 L 498.11 724.812 Q 498.495 725.321 499.249 725.321 L 499.249 725.321 L 499.249 725.321 Q 499.895 725.321 500.574 725.043 L 500.574 725.043 L 500.574 725.736 L 500.574 725.736 Q 500.055 726.005 499.268 726.005 Z  M 501.917 725.911 L 501.917 719.018 L 503.864 719.018 L 503.864 719.018 Q 505.236 719.018 505.849 719.429 L 505.849 719.429 L 505.849 719.429 Q 506.462 719.839 506.462 720.725 L 506.462 720.725 L 506.462 720.725 Q 506.462 721.338 506.12 721.736 L 506.12 721.736 L 506.12 721.736 Q 505.778 722.134 505.123 722.252 L 505.123 722.252 L 505.123 722.299 L 505.123 722.299 Q 506.693 722.568 506.693 723.949 L 506.693 723.949 L 506.693 723.949 Q 506.693 724.873 506.068 725.392 L 506.068 725.392 L 506.068 725.392 Q 505.443 725.911 504.321 725.911 L 504.321 725.911 L 501.917 725.911 Z  M 502.719 719.711 L 502.719 721.969 L 504.038 721.969 L 504.038 721.969 Q 504.887 721.969 505.259 721.703 L 505.259 721.703 L 505.259 721.703 Q 505.632 721.437 505.632 720.805 L 505.632 720.805 L 505.632 720.805 Q 505.632 720.225 505.217 719.968 L 505.217 719.968 L 505.217 719.968 Q 504.802 719.711 503.897 719.711 L 503.897 719.711 L 502.719 719.711 Z  M 504.09 722.648 L 502.719 722.648 L 502.719 725.227 L 504.156 725.227 L 504.156 725.227 Q 504.991 725.227 505.413 724.904 L 505.413 724.904 L 505.413 724.904 Q 505.835 724.581 505.835 723.893 L 505.835 723.893 L 505.835 723.893 Q 505.835 723.252 505.403 722.95 L 505.403 722.95 L 505.403 722.95 Q 504.972 722.648 504.09 722.648 L 504.09 722.648 Z  M 512.514 723.322 L 512.514 723.322 L 512.514 723.322 Q 512.514 724.586 511.878 725.295 L 511.878 725.295 L 511.878 725.295 Q 511.242 726.005 510.12 726.005 L 510.12 726.005 L 510.12 726.005 Q 509.427 726.005 508.889 725.68 L 508.889 725.68 L 508.889 725.68 Q 508.352 725.354 508.06 724.746 L 508.06 724.746 L 508.06 724.746 Q 507.767 724.138 507.767 723.322 L 507.767 723.322 L 507.767 723.322 Q 507.767 722.059 508.399 721.354 L 508.399 721.354 L 508.399 721.354 Q 509.031 720.65 510.153 720.65 L 510.153 720.65 L 510.153 720.65 Q 511.237 720.65 511.876 721.371 L 511.876 721.371 L 511.876 721.371 Q 512.514 722.092 512.514 723.322 Z  M 508.578 723.322 L 508.578 723.322 L 508.578 723.322 Q 508.578 724.312 508.974 724.831 L 508.974 724.831 L 508.974 724.831 Q 509.37 725.35 510.139 725.35 L 510.139 725.35 L 510.139 725.35 Q 510.907 725.35 511.305 724.833 L 511.305 724.833 L 511.305 724.833 Q 511.704 724.317 511.704 723.322 L 511.704 723.322 L 511.704 723.322 Q 511.704 722.337 511.305 721.826 L 511.305 721.826 L 511.305 721.826 Q 510.907 721.314 510.129 721.314 L 510.129 721.314 L 510.129 721.314 Q 509.361 721.314 508.969 721.819 L 508.969 721.819 L 508.969 721.819 Q 508.578 722.323 508.578 723.322 Z  M 518.346 723.322 L 518.346 723.322 L 518.346 723.322 Q 518.346 724.586 517.709 725.295 L 517.709 725.295 L 517.709 725.295 Q 517.073 726.005 515.951 726.005 L 515.951 726.005 L 515.951 726.005 Q 515.258 726.005 514.721 725.68 L 514.721 725.68 L 514.721 725.68 Q 514.183 725.354 513.891 724.746 L 513.891 724.746 L 513.891 724.746 Q 513.599 724.138 513.599 723.322 L 513.599 723.322 L 513.599 723.322 Q 513.599 722.059 514.23 721.354 L 514.23 721.354 L 514.23 721.354 Q 514.862 720.65 515.984 720.65 L 515.984 720.65 L 515.984 720.65 Q 517.068 720.65 517.707 721.371 L 517.707 721.371 L 517.707 721.371 Q 518.346 722.092 518.346 723.322 Z  M 514.41 723.322 L 514.41 723.322 L 514.41 723.322 Q 514.41 724.312 514.806 724.831 L 514.806 724.831 L 514.806 724.831 Q 515.202 725.35 515.97 725.35 L 515.97 725.35 L 515.97 725.35 Q 516.738 725.35 517.137 724.833 L 517.137 724.833 L 517.137 724.833 Q 517.535 724.317 517.535 723.322 L 517.535 723.322 L 517.535 723.322 Q 517.535 722.337 517.137 721.826 L 517.137 721.826 L 517.137 721.826 Q 516.738 721.314 515.961 721.314 L 515.961 721.314 L 515.961 721.314 Q 515.192 721.314 514.801 721.819 L 514.801 721.819 L 514.801 721.819 Q 514.41 722.323 514.41 723.322 Z  M 520.453 723.266 L 520.491 723.266 L 520.491 723.266 Q 520.693 722.978 521.108 722.512 L 521.108 722.512 L 522.777 720.744 L 523.706 720.744 L 521.613 722.945 L 523.852 725.911 L 522.904 725.911 L 521.08 723.469 L 520.491 723.978 L 520.491 725.911 L 519.718 725.911 L 519.718 718.575 L 520.491 718.575 L 520.491 722.464 L 520.491 722.464 Q 520.491 722.724 520.453 723.266 L 520.453 723.266 Z " fill-rule="evenodd" fill="rgb(250,250,250)" />
        </g>
        <g id="Linux Mint">
            <path d=" M 271.333 692 L 271.333 714.222 L 755 714.222 L 755 692 L 271.333 692 Z " fill-rule="evenodd" fill="rgb(97,97,97)" />
            <g id="Linux Mint logo">
                <path d=" M 287.513 706.943 C 287.513 705.349 287.513 701.59 287.513 701.59 C 287.513 699.802 285.943 698.352 284.007 698.352 L 281.996 698.352 L 281.996 698.348 L 276.559 698.324 L 276.559 700.277 C 276.559 700.277 277.003 700.277 277.394 700.277 C 277.976 700.277 278.079 700.679 278.079 701.235 L 278.083 704.688 C 278.083 706.476 279.653 707.925 281.588 707.925 L 286.365 707.925 C 286.977 707.925 287.513 707.538 287.513 706.943 L 287.513 706.943 Z " fill-rule="evenodd" fill="rgb(156,204,101)" />
                <path d=" M 287.092 707.463 C 285.871 706.622 284.952 705.588 284.224 704.309 C 282.787 701.658 283.186 699.938 279.565 699.894 C 278.538 699.894 277.732 699.894 276.651 699.894 L 276.651 700.359 Q 277.329 700.304 277.62 700.51 Q 277.897 700.705 278.083 701.319 L 278.083 704.594 C 278.083 706.312 279.729 707.816 281.588 707.816 L 286.194 707.816 C 286.531 707.816 286.887 707.675 287.092 707.463 Z " fill="rgb(139,195,74)" />
                <path d=" M 282.788 700.359 C 282.352 700.359 281.964 700.52 281.653 700.834 C 281.342 701.148 281.179 701.54 281.179 701.982 L 281.179 704.218 L 282.194 704.218 L 282.194 701.982 C 282.194 701.813 282.249 701.68 282.37 701.558 C 282.492 701.435 282.621 701.38 282.788 701.38 C 282.958 701.38 283.085 701.435 283.207 701.558 C 283.328 701.68 283.383 701.813 283.383 701.982 L 283.383 704.218 L 284.398 704.218 L 284.398 701.982 C 284.398 701.813 284.454 701.68 284.575 701.558 C 284.697 701.435 284.823 701.38 284.994 701.38 C 285.161 701.38 285.29 701.435 285.411 701.558 C 285.533 701.68 285.588 701.813 285.588 701.982 L 285.594 704.594 C 285.594 705.151 285.062 705.621 284.38 705.621 L 281.107 705.608 C 280.58 705.608 280.131 705.096 280.131 704.438 L 280.131 699.519 L 279.171 699.519 L 279.171 704.627 C 279.171 705.169 279.369 705.645 279.756 706.029 C 280.086 706.354 280.483 706.547 280.929 706.595 L 280.929 706.613 L 284.573 706.613 C 285.133 706.613 285.625 706.405 286.022 706.001 L 286.024 706.001 C 286.361 705.655 286.559 705.24 286.607 704.772 L 286.603 701.982 C 286.603 701.54 286.44 701.148 286.129 700.834 C 285.817 700.52 285.43 700.359 284.994 700.359 C 284.566 700.359 284.192 700.518 283.889 700.809 C 283.587 700.518 283.215 700.359 282.788 700.359 L 282.788 700.359 Z " fill-rule="evenodd" fill="rgb(0,0,0)" fill-opacity="0.08040203" />
                <path d=" M 282.707 700.385 C 282.271 700.385 281.883 700.547 281.572 700.861 C 281.261 701.175 281.098 701.567 281.098 702.009 L 281.098 704.244 L 282.113 704.244 L 282.113 702.009 C 282.113 701.839 282.168 701.707 282.289 701.585 C 282.411 701.462 282.539 701.407 282.707 701.407 C 282.877 701.407 283.004 701.462 283.126 701.585 C 283.247 701.707 283.302 701.839 283.302 702.009 L 283.302 704.244 L 284.317 704.244 L 284.317 702.009 C 284.317 701.839 284.373 701.707 284.494 701.585 C 284.616 701.462 284.742 701.407 284.913 701.407 C 285.08 701.407 285.209 701.462 285.33 701.585 C 285.452 701.707 285.507 701.839 285.507 702.009 L 285.512 704.621 C 285.512 705.178 284.981 705.648 284.299 705.648 L 281.026 705.635 C 280.499 705.635 280.05 705.123 280.05 704.465 L 280.05 699.546 L 279.09 699.546 L 279.09 704.654 C 279.09 705.196 279.288 705.671 279.675 706.055 C 280.005 706.381 280.402 706.592 280.848 706.64 L 284.492 706.64 C 285.052 706.64 285.544 706.432 285.941 706.028 L 285.943 706.028 C 286.28 705.681 286.478 705.266 286.526 704.799 L 286.522 702.009 C 286.522 701.567 286.359 701.175 286.048 700.861 C 285.736 700.547 285.349 700.385 284.913 700.385 C 284.485 700.385 284.111 700.544 283.808 700.835 C 283.506 700.545 283.134 700.385 282.707 700.385 L 282.707 700.385 Z " fill-rule="evenodd" fill="rgb(255,255,255)" />
                <path d=" M 282.11 705.638 L 282.11 706.64 L 284.494 706.64 C 285.054 706.64 285.543 706.431 285.94 706.027 L 285.943 706.027 C 286.281 705.681 286.478 705.266 286.526 704.799 L 286.526 704.231 L 285.513 704.231 L 285.513 704.62 C 285.513 705.177 284.983 705.645 284.301 705.645 L 282.11 705.638 L 282.11 705.638 Z " fill-rule="evenodd" fill="rgb(197,225,165)" />
                <path d=" M 281.556 708.667 C 279.249 708.667 277.247 706.919 277.247 704.617 L 277.245 701.821 L 277.245 701.108 L 275.782 701.108 L 275.782 697.556 L 281.951 697.585 L 283.88 697.589 C 286.189 697.589 288.189 699.334 288.189 701.639 L 288.189 708.667 L 281.556 708.667 L 281.556 708.667 L 281.556 708.667 L 281.556 708.667 Z  M 287.249 706.781 C 287.249 705.25 287.249 701.639 287.249 701.639 C 287.249 699.92 285.741 698.528 283.88 698.528 L 281.948 698.528 L 281.948 698.523 L 276.724 698.501 L 276.724 700.169 C 276.724 700.169 276.934 700.169 277.31 700.169 C 277.707 700.169 278.185 700.542 278.185 701.089 L 278.189 704.615 C 278.189 706.333 279.697 707.726 281.556 707.726 L 286.146 707.726 C 286.734 707.726 287.249 707.353 287.249 706.781 L 287.249 706.781 Z " fill-rule="evenodd" fill="rgb(255,255,255)" />
            </g>
            <path d=" M 297.896 706.559 L 297.301 706.559 L 295.146 700.934 L 295.111 700.934 L 295.111 700.934 Q 295.172 701.603 295.172 702.523 L 295.172 702.523 L 295.172 706.559 L 294.49 706.559 L 294.49 700.214 L 295.602 700.214 L 297.614 705.448 L 297.649 705.448 L 299.678 700.214 L 300.781 700.214 L 300.781 706.559 L 300.043 706.559 L 300.043 702.471 L 300.043 702.471 Q 300.043 701.768 300.104 700.943 L 300.104 700.943 L 300.069 700.943 L 297.896 706.559 Z  M 304.427 706.646 L 304.427 706.646 L 304.427 706.646 Q 303.371 706.646 302.76 706.004 L 302.76 706.004 L 302.76 706.004 Q 302.15 705.362 302.15 704.22 L 302.15 704.22 L 302.15 704.22 Q 302.15 703.07 302.717 702.393 L 302.717 702.393 L 302.717 702.393 Q 303.284 701.716 304.24 701.716 L 304.24 701.716 L 304.24 701.716 Q 305.135 701.716 305.656 702.304 L 305.656 702.304 L 305.656 702.304 Q 306.178 702.892 306.178 703.855 L 306.178 703.855 L 306.178 704.311 L 302.897 704.311 L 302.897 704.311 Q 302.919 705.149 303.321 705.583 L 303.321 705.583 L 303.321 705.583 Q 303.723 706.017 304.453 706.017 L 304.453 706.017 L 304.453 706.017 Q 305.222 706.017 305.973 705.696 L 305.973 705.696 L 305.973 706.338 L 305.973 706.338 Q 305.591 706.503 305.25 706.575 L 305.25 706.575 L 305.25 706.575 Q 304.909 706.646 304.427 706.646 Z  M 304.231 702.319 L 304.231 702.319 L 304.231 702.319 Q 303.658 702.319 303.316 702.692 L 303.316 702.692 L 303.316 702.692 Q 302.975 703.066 302.915 703.725 L 302.915 703.725 L 305.404 703.725 L 305.404 703.725 Q 305.404 703.044 305.1 702.681 L 305.1 702.681 L 305.1 702.681 Q 304.796 702.319 304.231 702.319 Z  M 311.387 706.559 L 310.666 706.559 L 310.666 703.482 L 310.666 703.482 Q 310.666 702.901 310.401 702.614 L 310.401 702.614 L 310.401 702.614 Q 310.136 702.328 309.571 702.328 L 309.571 702.328 L 309.571 702.328 Q 308.823 702.328 308.476 702.731 L 308.476 702.731 L 308.476 702.731 Q 308.128 703.135 308.128 704.064 L 308.128 704.064 L 308.128 706.559 L 307.407 706.559 L 307.407 701.803 L 307.994 701.803 L 308.111 702.454 L 308.146 702.454 L 308.146 702.454 Q 308.367 702.102 308.767 701.909 L 308.767 701.909 L 308.767 701.909 Q 309.167 701.716 309.658 701.716 L 309.658 701.716 L 309.658 701.716 Q 310.518 701.716 310.952 702.13 L 310.952 702.13 L 310.952 702.13 Q 311.387 702.545 311.387 703.456 L 311.387 703.456 L 311.387 706.559 Z  M 312.816 701.803 L 313.546 701.803 L 313.546 704.888 L 313.546 704.888 Q 313.546 705.47 313.811 705.757 L 313.811 705.757 L 313.811 705.757 Q 314.076 706.043 314.641 706.043 L 314.641 706.043 L 314.641 706.043 Q 315.388 706.043 315.734 705.635 L 315.734 705.635 L 315.734 705.635 Q 316.079 705.227 316.079 704.303 L 316.079 704.303 L 316.079 701.803 L 316.8 701.803 L 316.8 706.559 L 316.205 706.559 L 316.101 705.921 L 316.062 705.921 L 316.062 705.921 Q 315.84 706.273 315.447 706.46 L 315.447 706.46 L 315.447 706.46 Q 315.054 706.646 314.55 706.646 L 314.55 706.646 L 314.55 706.646 Q 313.681 706.646 313.249 706.234 L 313.249 706.234 L 313.249 706.234 Q 312.816 705.822 312.816 704.914 L 312.816 704.914 L 312.816 701.803 Z " fill-rule="evenodd" fill="rgb(250,250,250)" />
            <g id="Show and Hide">
                <rect x="321.441" y="697.556" width="11.123" height="11.111" transform="matrix(1,0,0,1,0,0)" fill="rgb(104,159,56)" />
                <rect x="321.441" y="697.556" width="11.123" height="1.389" transform="matrix(1,0,0,1,0,0)" fill="rgb(207,216,220)" />
                <rect x="323.41" y="705.796" width="7.183" height="2.87" transform="matrix(1,0,0,1,0,0)" fill="rgb(85,139,47)" />
            </g>
            <clipPath id="_clipPath_Dhqx6xX4849fTHrY1QO8R5Sw03vIrAm5">
                <rect x="338.069" y="696.444" width="13.347" height="13.333" transform="matrix(1,0,0,1,0,0)" fill="rgb(255,255,255)" />
            </clipPath>
            <g clip-path="url(#_clipPath_Dhqx6xX4849fTHrY1QO8R5Sw03vIrAm5)">
                <g id="Group">
                    <rect x="339.203" y="697.577" width="11.079" height="11.068" transform="matrix(1,0,0,1,0,0)" fill="rgb(30,136,229)" />
                    <g id="firefox-quantum">
                        <path d=" M 347.659 699.137 C 347.421 699.414 347.311 700.037 347.552 700.668 C 347.793 701.299 348.163 701.162 348.393 701.806 C 348.698 702.655 348.556 703.797 348.556 703.797 C 348.556 703.797 348.922 704.855 349.177 703.731 C 349.741 701.62 347.659 699.657 347.659 699.137 Z " fill="rgb(255,152,0)" />
                        <path d=" M 344.756 707.901 C 347.193 707.901 349.166 705.919 349.166 703.474 C 349.166 701.03 347.193 699.048 344.759 699.048 C 342.325 699.048 340.351 701.03 340.351 703.474 C 340.346 705.921 342.322 707.901 344.756 707.901 Z " fill="rgb(21,101,192)" />
                        <path d=" M 348.061 706.204 C 347.965 706.271 347.865 706.331 347.761 706.384 C 347.899 706.183 348.026 705.974 348.142 705.76 C 348.236 705.656 348.322 705.555 348.392 705.445 C 348.426 705.392 348.465 705.325 348.506 705.249 C 348.753 704.803 349.026 704.082 349.034 703.341 L 349.034 703.339 C 349.034 703.321 349.034 703.303 349.034 703.285 C 349.035 703.099 349.016 702.913 348.977 702.731 C 348.979 702.746 348.981 702.76 348.983 702.774 C 348.981 702.763 348.979 702.752 348.976 702.741 C 348.98 702.761 348.983 702.781 348.986 702.8 C 349.037 703.229 349.001 703.648 348.82 703.956 C 348.818 703.961 348.815 703.965 348.812 703.969 C 348.905 703.501 348.936 702.983 348.832 702.465 C 348.832 702.465 348.791 702.213 348.481 701.448 C 348.303 701.008 347.986 700.647 347.706 700.384 C 347.461 700.081 347.238 699.878 347.115 699.748 C 346.859 699.479 346.751 699.276 346.707 699.144 C 346.669 699.125 346.179 698.65 346.14 698.632 C 345.927 698.963 345.254 699.998 345.574 700.966 C 345.719 701.404 346.085 701.859 346.469 702.114 C 346.486 702.133 346.697 702.363 346.798 702.88 C 346.901 703.414 346.847 703.831 346.633 704.448 C 346.382 704.989 345.739 705.524 345.136 705.578 C 343.848 705.695 343.376 704.932 343.376 704.932 C 343.836 705.116 344.345 705.077 344.655 704.887 C 344.967 704.694 345.155 704.551 345.309 704.608 C 345.46 704.664 345.58 704.501 345.472 704.332 C 345.302 704.07 344.991 703.935 344.683 703.989 C 344.371 704.04 344.085 704.287 343.676 704.047 C 343.649 704.032 343.624 704.015 343.599 703.997 C 343.572 703.979 343.687 704.024 343.66 704.004 C 343.58 703.961 343.439 703.867 343.403 703.833 C 343.397 703.827 343.464 703.855 343.458 703.849 C 343.076 703.534 343.124 703.322 343.136 703.188 C 343.145 703.082 343.215 702.945 343.332 702.89 C 343.388 702.92 343.424 702.944 343.424 702.944 C 343.424 702.944 343.4 702.895 343.386 702.869 C 343.391 702.867 343.395 702.867 343.4 702.865 C 343.446 702.888 343.549 702.946 343.603 702.981 C 343.673 703.031 343.695 703.075 343.695 703.075 C 343.695 703.075 343.714 703.065 343.7 703.021 C 343.695 703.004 343.674 702.948 343.604 702.891 L 343.609 702.891 C 343.65 702.915 343.69 702.942 343.727 702.973 C 343.746 702.902 343.781 702.827 343.774 702.694 C 343.769 702.601 343.771 702.576 343.755 702.54 C 343.74 702.509 343.763 702.497 343.789 702.529 C 343.784 702.504 343.777 702.479 343.767 702.456 L 343.767 702.453 C 343.799 702.342 344.445 702.052 344.492 702.018 C 344.569 701.963 344.634 701.893 344.682 701.812 C 344.718 701.754 344.745 701.674 344.751 701.552 C 344.755 701.465 344.714 701.406 344.061 701.338 C 343.882 701.32 343.778 701.191 343.718 701.072 C 343.707 701.046 343.696 701.023 343.685 700.999 C 343.674 700.972 343.666 700.944 343.66 700.916 C 343.766 700.609 343.946 700.35 344.21 700.155 C 344.224 700.141 344.152 700.158 344.166 700.145 C 344.183 700.13 344.293 700.085 344.313 700.076 C 344.339 700.064 344.205 700.007 344.088 700.021 C 343.968 700.034 343.942 700.049 343.878 700.076 C 343.905 700.049 343.989 700.015 343.969 700.015 C 343.84 700.035 343.68 700.11 343.542 700.195 C 343.542 700.18 343.545 700.165 343.551 700.152 C 343.487 700.179 343.329 700.289 343.284 700.381 C 343.286 700.364 343.286 700.346 343.286 700.328 C 343.238 700.368 343.194 700.414 343.155 700.465 L 343.153 700.467 C 342.782 700.318 342.455 700.308 342.179 700.375 C 342.118 700.314 342.089 700.359 341.951 700.057 C 341.942 700.039 341.958 700.075 341.951 700.057 C 341.928 699.998 341.965 700.135 341.951 700.057 C 341.72 700.239 341.415 700.446 341.269 700.592 C 341.267 700.597 341.44 700.543 341.269 700.592 C 341.21 700.609 341.214 700.644 341.205 700.964 C 341.202 700.988 341.204 701.015 341.202 701.037 C 341.086 701.185 341.006 701.311 340.976 701.376 C 340.825 701.636 340.659 702.041 340.498 702.682 C 340.569 702.508 340.655 702.341 340.754 702.182 C 340.62 702.522 340.49 703.056 340.465 703.878 C 340.497 703.709 340.538 703.541 340.589 703.376 C 340.557 704.058 340.675 704.739 340.934 705.371 C 341.027 705.597 341.18 705.941 341.441 706.318 C 342.261 707.18 343.418 707.716 344.698 707.716 C 346.035 707.716 347.236 707.132 348.061 706.204 Z " fill="rgb(13,71,161)" />
                        <path d=" M 347.071 706.83 C 348.689 706.643 349.406 704.977 348.486 704.944 C 347.655 704.918 346.305 706.918 347.071 706.83 Z " fill="rgb(211,47,47)" />
                        <path d=" M 348.602 704.604 C 349.716 703.957 349.425 702.559 349.425 702.559 C 349.425 702.559 348.996 703.057 348.704 703.852 C 348.416 704.639 347.933 704.995 348.602 704.604 Z " fill="rgb(229,57,53)" />
                        <path d=" M 345.068 707.657 C 346.62 708.152 347.954 706.93 347.132 706.523 C 346.384 706.155 344.332 707.423 345.068 707.657 Z " fill="rgb(198,40,40)" />
                        <path d=" M 348.718 705.198 C 348.756 705.144 348.807 704.974 348.852 704.898 C 349.126 704.456 349.128 704.104 349.128 704.095 C 349.293 703.27 349.278 702.932 349.177 702.309 C 349.095 701.806 348.736 701.087 348.426 700.741 C 348.106 700.384 348.331 700.5 348.022 700.239 C 347.75 699.939 347.487 699.641 347.344 699.521 C 346.308 698.656 346.331 698.472 346.351 698.441 C 346.348 698.445 346.343 698.45 346.336 698.457 C 346.324 698.408 346.315 698.367 346.315 698.367 C 346.315 698.367 345.749 698.933 345.63 699.876 C 345.552 700.491 345.783 701.133 346.117 701.543 C 346.291 701.756 346.487 701.949 346.703 702.119 L 346.703 702.118 C 346.955 702.48 347.094 702.927 347.094 703.408 C 347.094 704.611 346.117 705.586 344.912 705.586 C 344.748 705.586 344.584 705.568 344.424 705.532 C 343.855 705.423 343.527 705.137 343.363 704.942 C 343.269 704.831 343.229 704.75 343.229 704.75 C 343.739 704.932 344.302 704.894 344.645 704.705 C 344.99 704.513 345.199 704.372 345.368 704.428 C 345.535 704.483 345.668 704.322 345.549 704.154 C 345.432 703.987 345.128 703.748 344.676 703.814 C 344.33 703.864 344.014 704.109 343.561 703.872 C 343.532 703.857 343.503 703.84 343.476 703.822 C 343.446 703.805 343.573 703.849 343.543 703.829 C 343.455 703.786 343.299 703.693 343.259 703.66 C 343.252 703.654 343.327 703.681 343.32 703.675 C 342.897 703.363 342.95 703.153 342.963 703.02 C 342.974 702.915 343.051 702.779 343.18 702.724 C 343.243 702.755 343.282 702.778 343.282 702.778 C 343.282 702.778 343.255 702.729 343.241 702.703 C 343.246 702.701 343.251 702.702 343.256 702.7 C 343.307 702.722 343.42 702.78 343.48 702.815 C 343.558 702.864 343.583 702.908 343.583 702.908 C 343.583 702.908 343.603 702.898 343.588 702.855 C 343.582 702.837 343.559 702.781 343.482 702.725 L 343.487 702.726 C 343.532 702.749 343.576 702.776 343.617 702.807 C 343.639 702.736 343.678 702.662 343.669 702.53 C 343.664 702.437 343.666 702.413 343.648 702.378 C 343.632 702.347 343.657 702.335 343.686 702.367 C 343.681 702.341 343.673 702.317 343.662 702.294 L 343.662 702.291 C 343.697 702.181 344.412 701.893 344.464 701.86 C 344.548 701.807 344.62 701.737 344.675 701.655 C 344.714 701.598 344.744 701.519 344.752 701.398 C 344.754 701.343 344.737 701.3 344.548 701.259 C 344.434 701.235 344.258 701.21 343.987 701.185 C 343.79 701.168 343.674 701.039 343.608 700.921 C 343.596 700.896 343.583 700.872 343.571 700.849 C 343.559 700.823 343.55 700.795 343.543 700.766 C 343.661 700.457 343.874 700.193 344.152 700.012 C 344.168 699.999 344.088 700.015 344.104 700.002 C 344.123 699.987 344.244 699.943 344.267 699.933 C 344.295 699.921 344.147 699.865 344.017 699.879 C 343.884 699.892 343.856 699.907 343.785 699.933 C 343.814 699.907 343.908 699.873 343.886 699.873 C 343.743 699.893 343.565 699.967 343.413 700.052 C 343.413 700.037 343.416 700.022 343.422 700.009 C 343.351 700.036 343.177 700.144 343.127 700.237 C 343.129 700.219 343.13 700.201 343.13 700.183 C 343.076 700.223 343.028 700.269 342.985 700.319 L 342.982 700.322 C 342.571 700.173 342.21 700.164 341.904 700.23 C 341.837 700.17 341.729 700.079 341.577 699.78 C 341.567 699.762 341.561 699.817 341.553 699.799 C 341.494 699.662 341.458 699.437 341.464 699.283 C 341.464 699.283 341.342 699.338 341.241 699.571 C 341.222 699.613 341.21 699.636 341.198 699.659 C 341.192 699.666 341.21 699.583 341.207 699.587 C 341.19 699.617 341.144 699.658 341.124 699.712 C 341.11 699.752 341.091 699.775 341.079 699.824 L 341.076 699.829 C 341.075 699.814 341.08 699.769 341.076 699.778 C 341.029 699.874 340.988 699.973 340.954 700.074 C 340.899 700.253 340.836 700.497 340.826 700.814 C 340.823 700.838 340.826 700.865 340.823 700.887 C 340.694 701.034 340.606 701.159 340.573 701.223 C 340.406 701.481 340.222 701.883 340.044 702.518 C 340.123 702.345 340.218 702.179 340.327 702.022 C 340.179 702.359 340.036 702.889 340.007 703.705 C 340.043 703.536 340.089 703.369 340.145 703.206 C 340.119 703.75 340.182 704.424 340.527 705.185 C 340.731 705.632 341.201 706.541 342.351 707.25 L 342.351 707.25 C 342.351 707.25 342.742 707.541 343.414 707.759 C 343.464 707.777 343.514 707.795 343.565 707.812 C 343.549 707.805 343.534 707.798 343.518 707.791 C 343.966 707.925 344.43 707.994 344.897 707.994 C 346.638 707.995 347.151 707.297 347.151 707.297 C 347.151 707.297 347.149 707.299 347.146 707.301 Q 347.183 707.266 347.217 707.229 C 346.942 707.488 346.316 707.505 346.081 707.486 C 346.481 707.369 346.744 707.27 347.255 707.074 Q 347.345 707.041 347.439 706.999 C 347.446 706.996 347.453 706.992 347.459 706.989 C 347.472 706.984 347.484 706.978 347.497 706.972 C 347.746 706.855 347.98 706.708 348.195 706.535 C 348.708 706.126 348.82 705.726 348.878 705.463 C 348.87 705.488 348.845 705.547 348.827 705.585 C 348.695 705.868 348.401 706.041 348.083 706.19 C 348.234 705.991 348.375 705.784 348.504 705.57 C 348.608 705.467 348.64 705.306 348.718 705.198 Z " fill="rgb(230,81,0)" />
                        <path d=" M 348.093 706.178 C 348.302 705.947 348.49 705.683 348.633 705.384 C 348.999 704.614 349.566 703.334 349.12 701.997 C 348.767 700.94 348.283 700.362 347.668 699.798 C 346.669 698.881 346.39 698.472 346.39 698.228 C 346.39 698.228 345.236 699.513 345.737 700.852 C 346.237 702.192 347.261 702.143 347.939 703.54 C 348.736 705.185 347.294 706.98 346.101 707.483 C 346.174 707.467 348.753 706.883 348.888 705.41 C 348.885 705.437 348.827 705.844 348.093 706.178 Z " fill="rgb(255,152,0)" />
                        <path d=" M 344.752 701.398 C 344.755 701.311 344.71 701.252 343.99 701.185 C 343.693 701.158 343.58 700.884 343.545 700.769 C 343.44 701.042 343.396 701.329 343.42 701.677 C 343.436 701.904 343.589 702.148 343.662 702.291 C 343.662 702.291 343.678 702.27 343.686 702.263 C 343.823 702.119 344.4 701.901 344.454 701.87 C 344.514 701.832 344.742 701.666 344.752 701.398 Z " fill="rgb(255,143,0)" />
                        <path d=" M 341.58 699.781 C 341.569 699.763 341.564 699.818 341.556 699.801 C 341.497 699.664 341.461 699.441 341.469 699.284 C 341.469 699.284 341.347 699.34 341.246 699.573 C 341.227 699.615 341.215 699.638 341.203 699.661 C 341.197 699.667 341.215 699.584 341.212 699.589 C 341.195 699.619 341.149 699.66 341.129 699.712 C 341.113 699.754 341.096 699.776 341.084 699.828 C 341.08 699.843 341.087 699.766 341.084 699.775 C 340.849 700.23 340.804 700.918 340.828 700.888 C 341.33 700.354 341.905 700.227 341.905 700.227 C 341.843 700.182 341.711 700.052 341.58 699.781 L 341.58 699.781 Z " fill="rgb(211,47,47)" />
                        <path d=" M 348.091 706.184 C 349.126 705.169 349.649 703.935 349.428 702.552 C 349.428 702.552 349.517 703.261 349.181 703.987 C 349.342 703.278 349.361 702.398 348.933 701.486 C 348.362 700.269 347.423 699.629 347.064 699.362 C 346.521 698.957 346.295 698.545 346.291 698.46 C 346.129 698.792 345.638 699.93 346.239 700.911 C 346.801 701.83 347.688 702.102 348.308 702.945 C 349.451 704.497 348.091 706.184 348.091 706.184 Z " fill="rgb(253,216,53)" />
                        <path d=" M 347.943 703.543 C 347.581 702.797 347.13 702.471 346.703 702.119 C 346.753 702.188 346.765 702.213 346.792 702.258 C 347.168 702.658 347.722 703.634 347.32 704.859 C 346.563 707.165 343.533 706.079 343.216 705.774 C 343.344 707.109 345.581 707.747 347.037 706.882 C 347.865 706.098 348.535 704.766 347.943 703.543 Z " fill="rgb(255,111,0)" />
                    </g>
                </g>
            </g>
            <g id="Terminal">
                <rect x="357.033" y="697.556" width="11.123" height="11.111" transform="matrix(1,0,0,1,0,0)" fill="rgb(33,33,33)" />
                <path d=" M 357.033 697.556 L 368.156 697.556 L 368.156 708.667 L 357.033 708.667 L 357.033 697.556 Z  M 357.689 698.222 L 367.477 698.222 L 367.477 708 L 357.689 708 L 357.689 698.222 Z " fill-rule="evenodd" fill="rgb(250,250,250)" />
                <path d=" M 360.136 701.156 C 359.914 701.067 359.825 700.8 359.914 700.578 C 360.003 700.356 360.27 700.267 360.492 700.356 L 365.335 702.555 C 365.633 702.69 365.639 702.92 365.347 703.069 L 360.448 705.556 C 360.27 705.689 360.003 705.6 359.869 705.378 C 359.78 705.156 359.825 704.889 360.047 704.756 L 363.652 702.934 C 363.75 702.884 363.748 702.808 363.649 702.762 L 360.136 701.156 Z " fill="rgb(250,250,250)" />
            </g>
            <clipPath id="_clipPath_VyVtS0nM2rUOarK1VHaqxUyV9Wrsw6cW">
                <rect x="373.707" y="696.741" width="13.347" height="13.333" transform="matrix(1,0,0,1,0,0)" fill="rgb(255,255,255)" />
            </clipPath>
            <g clip-path="url(#_clipPath_VyVtS0nM2rUOarK1VHaqxUyV9Wrsw6cW)">
                <g id="Group">
                    <path d=" M 374.841 697.874 L 374.841 708.941 L 385.92 708.941 L 385.92 697.874 L 374.841 697.874 Z " fill-rule="evenodd" fill="rgb(21,101,192)" />
                    <path d=" M 378.425 699.696 Q 377.431 699.679 374.841 699.687 L 374.841 702.157 L 385.92 702.157 L 385.92 701.454 Q 382.602 701.478 381.139 701.46 C 379.676 701.441 379.419 699.714 378.425 699.696 Z " fill-rule="evenodd" fill="rgb(30,136,229)" />
                    <path d=" M 378.216 700.1 Q 377.223 700.083 374.841 700.091 L 374.841 708.941 L 385.92 708.941 L 385.92 701.858 Q 382.407 701.882 380.944 701.863 C 379.481 701.845 379.21 700.117 378.216 700.1 Z " fill-rule="evenodd" fill="rgb(100,181,246)" />
                </g>
            </g>
            <g id="Settings">
                <path d=" M 733.545 701.022 L 747.871 701.022 L 747.871 709.956 L 733.545 709.956 L 733.545 701.022 Z  M 734.213 701.689 L 747.204 701.689 L 747.204 709.289 L 734.213 709.289 L 734.213 701.689 Z " fill-rule="evenodd" fill="rgb(250,250,250)" />
                <rect x="730.253" y="697.139" width="13.18" height="7.778" transform="matrix(1,0,0,1,0,0)" fill="rgb(97,97,97)" />
                <path d=" M 729.719 696.578 L 744.001 696.578 L 744.001 705.511 L 729.719 705.511 L 729.719 696.578 Z  M 730.387 697.244 L 743.333 697.244 L 743.333 704.844 L 730.387 704.844 L 730.387 697.244 Z " fill-rule="evenodd" fill="rgb(250,250,250)" />
            </g>
            <path d=" M 706.041 705.944 L 706.041 706.612 L 701.866 706.612 L 701.866 705.991 L 703.539 704.312 L 703.539 704.312 Q 704.303 703.539 704.546 703.209 L 704.546 703.209 L 704.546 703.209 Q 704.79 702.879 704.911 702.567 L 704.911 702.567 L 704.911 702.567 Q 705.033 702.254 705.033 701.894 L 705.033 701.894 L 705.033 701.894 Q 705.033 701.386 704.725 701.089 L 704.725 701.089 L 704.725 701.089 Q 704.416 700.792 703.869 700.792 L 703.869 700.792 L 703.869 700.792 Q 703.473 700.792 703.119 700.922 L 703.119 700.922 L 703.119 700.922 Q 702.765 701.052 702.331 701.395 L 702.331 701.395 L 701.948 700.905 L 701.948 700.905 Q 702.826 700.175 703.86 700.175 L 703.86 700.175 L 703.86 700.175 Q 704.755 700.175 705.263 700.633 L 705.263 700.633 L 705.263 700.633 Q 705.772 701.091 705.772 701.864 L 705.772 701.864 L 705.772 701.864 Q 705.772 702.467 705.433 703.057 L 705.433 703.057 L 705.433 703.057 Q 705.094 703.648 704.164 704.55 L 704.164 704.55 L 702.774 705.909 L 702.774 705.944 L 706.041 705.944 Z  M 711.164 703.431 L 711.164 703.431 L 711.164 703.431 Q 711.164 705.076 710.644 705.887 L 710.644 705.887 L 710.644 705.887 Q 710.125 706.699 709.056 706.699 L 709.056 706.699 L 709.056 706.699 Q 708.031 706.699 707.497 705.868 L 707.497 705.868 L 707.497 705.868 Q 706.962 705.036 706.962 703.431 L 706.962 703.431 L 706.962 703.431 Q 706.962 701.773 707.479 700.97 L 707.479 700.97 L 707.479 700.97 Q 707.996 700.167 709.056 700.167 L 709.056 700.167 L 709.056 700.167 Q 710.09 700.167 710.627 701.004 L 710.627 701.004 L 710.627 701.004 Q 711.164 701.842 711.164 703.431 Z  M 707.692 703.431 L 707.692 703.431 L 707.692 703.431 Q 707.692 704.815 708.018 705.447 L 708.018 705.447 L 708.018 705.447 Q 708.344 706.078 709.056 706.078 L 709.056 706.078 L 709.056 706.078 Q 709.778 706.078 710.101 705.438 L 710.101 705.438 L 710.101 705.438 Q 710.425 704.798 710.425 703.431 L 710.425 703.431 L 710.425 703.431 Q 710.425 702.063 710.101 701.428 L 710.101 701.428 L 710.101 701.428 Q 709.778 700.792 709.056 700.792 L 709.056 700.792 L 709.056 700.792 Q 708.344 700.792 708.018 701.419 L 708.018 701.419 L 708.018 701.419 Q 707.692 702.046 707.692 703.431 Z  M 712.267 706.152 L 712.267 706.152 L 712.267 706.152 Q 712.267 705.861 712.4 705.711 L 712.4 705.711 L 712.4 705.711 Q 712.532 705.562 712.78 705.562 L 712.78 705.562 L 712.78 705.562 Q 713.032 705.562 713.173 705.711 L 713.173 705.711 L 713.173 705.711 Q 713.314 705.861 713.314 706.152 L 713.314 706.152 L 713.314 706.152 Q 713.314 706.434 713.171 706.586 L 713.171 706.586 L 713.171 706.586 Q 713.027 706.738 712.78 706.738 L 712.78 706.738 L 712.78 706.738 Q 712.558 706.738 712.413 706.601 L 712.413 706.601 L 712.413 706.601 Q 712.267 706.464 712.267 706.152 Z  M 712.267 702.319 L 712.267 702.319 L 712.267 702.319 Q 712.267 701.734 712.78 701.734 L 712.78 701.734 L 712.78 701.734 Q 713.314 701.734 713.314 702.319 L 713.314 702.319 L 713.314 702.319 Q 713.314 702.602 713.171 702.753 L 713.171 702.753 L 713.171 702.753 Q 713.027 702.905 712.78 702.905 L 712.78 702.905 L 712.78 702.905 Q 712.558 702.905 712.413 702.769 L 712.413 702.769 L 712.413 702.769 Q 712.267 702.632 712.267 702.319 Z  M 718.345 701.76 L 718.345 701.76 L 718.345 701.76 Q 718.345 702.367 718.004 702.753 L 718.004 702.753 L 718.004 702.753 Q 717.663 703.14 717.038 703.27 L 717.038 703.27 L 717.038 703.305 L 717.038 703.305 Q 717.802 703.4 718.172 703.791 L 718.172 703.791 L 718.172 703.791 Q 718.541 704.181 718.541 704.815 L 718.541 704.815 L 718.541 704.815 Q 718.541 705.722 717.911 706.211 L 717.911 706.211 L 717.911 706.211 Q 717.281 706.699 716.121 706.699 L 716.121 706.699 L 716.121 706.699 Q 715.617 706.699 715.198 706.623 L 715.198 706.623 L 715.198 706.623 Q 714.778 706.547 714.383 706.356 L 714.383 706.356 L 714.383 705.67 L 714.383 705.67 Q 714.796 705.874 715.263 705.98 L 715.263 705.98 L 715.263 705.98 Q 715.73 706.087 716.147 706.087 L 716.147 706.087 L 716.147 706.087 Q 717.794 706.087 717.794 704.798 L 717.794 704.798 L 717.794 704.798 Q 717.794 703.643 715.978 703.643 L 715.978 703.643 L 715.352 703.643 L 715.352 703.023 L 715.986 703.023 L 715.986 703.023 Q 716.729 703.023 717.164 702.695 L 717.164 702.695 L 717.164 702.695 Q 717.598 702.367 717.598 701.786 L 717.598 701.786 L 717.598 701.786 Q 717.598 701.321 717.279 701.056 L 717.279 701.056 L 717.279 701.056 Q 716.959 700.792 716.412 700.792 L 716.412 700.792 L 716.412 700.792 Q 715.995 700.792 715.626 700.905 L 715.626 700.905 L 715.626 700.905 Q 715.256 701.017 714.783 701.321 L 714.783 701.321 L 714.418 700.835 L 714.418 700.835 Q 714.809 700.527 715.319 700.351 L 715.319 700.351 L 715.319 700.351 Q 715.83 700.175 716.395 700.175 L 716.395 700.175 L 716.395 700.175 Q 717.32 700.175 717.833 700.599 L 717.833 700.599 L 717.833 700.599 Q 718.345 701.022 718.345 701.76 Z  M 723.707 703.431 L 723.707 703.431 L 723.707 703.431 Q 723.707 705.076 723.188 705.887 L 723.188 705.887 L 723.188 705.887 Q 722.669 706.699 721.6 706.699 L 721.6 706.699 L 721.6 706.699 Q 720.574 706.699 720.04 705.868 L 720.04 705.868 L 720.04 705.868 Q 719.506 705.036 719.506 703.431 L 719.506 703.431 L 719.506 703.431 Q 719.506 701.773 720.023 700.97 L 720.023 700.97 L 720.023 700.97 Q 720.54 700.167 721.6 700.167 L 721.6 700.167 L 721.6 700.167 Q 722.634 700.167 723.17 701.004 L 723.17 701.004 L 723.17 701.004 Q 723.707 701.842 723.707 703.431 Z  M 720.235 703.431 L 720.235 703.431 L 720.235 703.431 Q 720.235 704.815 720.561 705.447 L 720.561 705.447 L 720.561 705.447 Q 720.887 706.078 721.6 706.078 L 721.6 706.078 L 721.6 706.078 Q 722.321 706.078 722.645 705.438 L 722.645 705.438 L 722.645 705.438 Q 722.968 704.798 722.968 703.431 L 722.968 703.431 L 722.968 703.431 Q 722.968 702.063 722.645 701.428 L 722.645 701.428 L 722.645 701.428 Q 722.321 700.792 721.6 700.792 L 721.6 700.792 L 721.6 700.792 Q 720.887 700.792 720.561 701.419 L 720.561 701.419 L 720.561 701.419 Q 720.235 702.046 720.235 703.431 Z " fill-rule="evenodd" fill="rgb(250,250,250)" />
            <path d=" M 695.427 701.392 L 695.177 701.643 C 695.789 702.068 696.154 702.763 696.154 703.509 C 696.154 704.255 695.789 704.95 695.177 705.375 L 695.427 705.627 C 696.103 705.133 696.504 704.349 696.504 703.51 C 696.502 702.67 696.103 701.886 695.427 701.392 L 695.427 701.392 Z  M 694.176 702.642 L 693.877 702.941 C 694.191 702.941 694.446 703.196 694.446 703.509 C 694.446 703.822 694.191 704.077 693.877 704.077 L 694.176 704.376 C 694.547 704.248 694.796 703.899 694.796 703.507 C 694.796 703.108 694.536 702.766 694.176 702.642 L 694.176 702.642 Z  M 694.797 702.021 L 694.541 702.278 C 694.996 702.521 695.279 702.995 695.277 703.51 C 695.277 704.029 694.996 704.497 694.541 704.743 L 694.797 704.999 C 695.314 704.682 695.627 704.125 695.627 703.512 C 695.627 702.896 695.312 702.339 694.797 702.021 L 694.797 702.021 Z  M 690.113 702.198 L 691.163 702.198 L 691.163 704.822 L 690.113 704.822 L 690.113 702.198 Z  M 691.338 704.873 L 693.263 706.796 L 693.263 700.222 L 691.338 702.147 L 691.338 704.873 L 691.338 704.873 Z " fill="rgb(250,250,250)" />
        </g>
    </g>
</svg>