<?xml version="1.0" standalone="no"?>
<!-- Generator: Gravit.io -->
<svg xmlns="http://www.w3.org/2000/svg" xmlns:xlink="http://www.w3.org/1999/xlink" style="isolation:isolate" viewBox="0 0 1024 1024" width="1024" height="1024">
    <defs>
        <clipPath id="_clipPath_v8eRfZGKeQjq0vzqyZvisPtVok0tNdlf">
            <rect width="1024" height="1024" />
        </clipPath>
    </defs>
    <g clip-path="url(#_clipPath_v8eRfZGKeQjq0vzqyZvisPtVok0tNdlf)">
        <rect x="85.333" y="85.897" width="850" height="850" transform="matrix(1,0,0,1,0,0)" fill="rgb(144,164,174)" />
        <rect x="86" y="710" width="850" height="229.897" transform="matrix(1,0,0,1,0,0)" fill="rgb(84,110,122)" />
        <g id="iMac">
            <linearGradient id="_lgradient_3" x1="0%" y1="50%" x2="6.123233995736766e-15%" y2="150%">
                <stop offset="88.75149619999999%" stop-opacity="1" style="stop-color:rgb(196,194,194)" />
                <stop offset="92.50273649285315%" stop-opacity="1" style="stop-color:rgb(220,220,220)" />
                <stop offset="100%" stop-opacity="1" style="stop-color:rgb(219,219,219)" />
            </linearGradient>
            <path d=" M 576.843 734.294 L 584.83 791.011 C 585.295 794.318 582.968 797 579.624 797 L 436.821 797 C 433.48 797 431.15 794.316 431.616 791.011 L 439.602 734.294 L 576.843 734.294 Z " fill-rule="evenodd" fill="url(#_lgradient_3)" />
            <g id="upper">
                <linearGradient id="_lgradient_4" x1="0%" y1="50%" x2="6.123233995736766e-15%" y2="150%">
                    <stop offset="0%" stop-opacity="1" style="stop-color:rgb(25,25,25)" />
                    <stop offset="100%" stop-opacity="1" style="stop-color:rgb(7,7,7)" />
                </linearGradient>
                <path d=" M 172.027 247 C 163.682 247 156.918 253.763 156.918 262.104 L 156.918 670.077 L 867.082 670.077 L 867.082 262.104 C 867.082 253.762 860.324 247 851.973 247 L 172.027 247 Z " fill-rule="evenodd" fill="url(#_lgradient_4)" />
                <path d=" M 184.871 274.399 L 184.871 643.08 L 839.129 643.08 L 839.129 274.399 L 184.871 274.399 Z " fill-rule="evenodd" fill="rgb(26,35,126)" />
                <linearGradient id="_lgradient_5" x1="0%" y1="50%" x2="6.123233995736766e-15%" y2="150%">
                    <stop offset="0%" stop-opacity="1" style="stop-color:rgb(216,216,216)" />
                    <stop offset="100%" stop-opacity="1" style="stop-color:rgb(214,214,214)" />
                </linearGradient>
                <path d=" M 156.918 670.077 L 156.918 719.177 C 156.918 727.526 163.676 734.294 172.027 734.294 L 851.973 734.294 C 860.318 734.294 867.082 727.528 867.082 719.177 L 867.082 670.077 L 156.918 670.077 Z " fill-rule="evenodd" fill="url(#_lgradient_5)" />
            </g>
            <path d=" M 506.31 693.266 C 507.235 693.266 508.351 693.458 509.659 693.842 C 510.979 694.227 511.855 694.419 512.287 694.419 C 512.842 694.419 513.748 694.202 515.007 693.768 C 516.265 693.334 517.357 693.117 518.282 693.117 C 519.799 693.117 521.15 693.526 522.334 694.344 C 523 694.815 523.66 695.453 524.314 696.259 C 523.327 697.102 522.606 697.851 522.149 698.508 C 521.323 699.698 520.909 701.012 520.909 702.449 C 520.909 704.023 521.347 705.442 522.223 706.706 C 523.099 707.97 524.098 708.769 525.221 709.104 C 524.752 710.628 523.975 712.222 522.889 713.882 C 521.249 716.372 519.62 717.618 518.004 717.618 C 517.363 717.618 516.475 717.414 515.34 717.004 C 514.217 716.594 513.267 716.391 512.49 716.391 C 511.713 716.391 510.806 716.602 509.77 717.023 C 508.746 717.456 507.914 717.673 507.272 717.673 C 505.335 717.673 503.436 716.026 501.573 712.729 C 499.71 709.469 498.779 706.272 498.779 703.137 C 498.779 700.224 499.488 697.851 500.907 696.017 C 502.338 694.183 504.139 693.266 506.31 693.266 M 517.967 685.942 C 518.016 686.103 518.048 686.246 518.06 686.37 C 518.072 686.494 518.078 686.618 518.078 686.742 C 518.078 687.535 517.893 688.402 517.523 689.344 C 517.153 690.286 516.567 691.16 515.765 691.965 C 515.075 692.647 514.39 693.105 513.711 693.341 C 513.28 693.477 512.626 693.582 511.75 693.657 C 511.775 691.773 512.262 690.143 513.212 688.768 C 514.174 687.392 515.759 686.45 517.967 685.942" fill-rule="evenodd" fill="rgb(0,0,0)" />
            <g id="camera">
                <path d=" M 508.223 265.887 C 509.892 265.887 511.245 264.534 511.245 262.865 C 511.245 261.196 509.892 259.843 508.223 259.843 C 506.554 259.843 505.201 261.196 505.201 262.865 C 505.201 264.534 506.554 265.887 508.223 265.887 Z " fill-rule="evenodd" fill="rgb(20,20,20)" />
                <path d=" M 508.223 264.376 C 509.057 264.376 509.734 263.7 509.734 262.865 C 509.734 262.031 509.057 261.354 508.223 261.354 C 507.388 261.354 506.712 262.031 506.712 262.865 C 506.712 263.7 507.388 264.376 508.223 264.376 Z " fill-rule="evenodd" fill="rgb(25,14,55)" fill-opacity="0.695714614" />
            </g>
        </g>
        <g id="Windows">
            <path d=" M 184.871 621.771 L 839.131 621.771 L 839.131 643.08 L 184.871 643.08 L 184.871 621.771 Z " fill="rgb(0,0,0)" />
            <path d=" M 184.97 621.771 L 206.279 621.771 L 206.279 643.08 L 184.97 643.08 L 184.97 621.771 Z " fill="rgb(33,33,33)" />
            <g id="windows logo">
                <path d=" M 195.388 635.448 L 195.388 632.662 L 199.176 632.662 L 199.176 635.977 L 195.388 635.448 L 195.388 635.448 Z  M 195.388 629.403 L 199.176 628.874 L 199.176 632.189 L 195.388 632.189 L 195.388 629.403 L 195.388 629.403 Z  M 192.073 634.986 L 192.073 632.662 L 194.914 632.662 L 194.914 635.381 L 192.073 634.986 L 192.073 634.986 Z  M 192.073 632.189 L 192.073 629.865 L 194.914 629.47 L 194.914 632.189 L 192.073 632.189 L 192.073 632.189 Z " fill-rule="evenodd" fill="rgb(250,250,250)" />
            </g>
            <mask id="_mask_NVJ65vfvdUvQ53bcPa1d6IVi4YNQGvvK" x="-200%" y="-200%" width="400%" height="400%">
                <rect x="0" y="0" width="100%" height="100%" style="fill:white;" />
                <path d=" M 213.383 632.425 C 213.383 630.073 215.292 628.164 217.645 628.164 C 219.997 628.164 221.907 630.073 221.907 632.425 C 221.907 634.778 219.997 636.687 217.645 636.687 C 215.292 636.687 213.383 634.778 213.383 632.425 Z " fill="black" stroke="none" />
            </mask>
            <path d=" M 213.383 632.425 C 213.383 630.073 215.292 628.164 217.645 628.164 C 219.997 628.164 221.907 630.073 221.907 632.425 C 221.907 634.778 219.997 636.687 217.645 636.687 C 215.292 636.687 213.383 634.778 213.383 632.425 Z " fill="none" mask="url(#_mask_NVJ65vfvdUvQ53bcPa1d6IVi4YNQGvvK)" vector-effect="non-scaling-stroke" stroke-width="2.273" stroke="rgb(250,250,250)" stroke-linejoin="miter" stroke-linecap="square" stroke-miterlimit="3" />
            <g id="preview and hide">
                <mask id="_mask_slbfGcB3SRrjQMrjsxfmW9B1tS6ipv0P" x="-200%" y="-200%" width="400%" height="400%">
                    <rect x="0" y="0" width="100%" height="100%" style="fill:white;" />
                    <rect x="231.141" y="629.584" width="12.076" height="5.683" transform="matrix(1,0,0,1,0,0)" fill="black" stroke="none" />
                </mask>
                <rect x="231.141" y="629.584" width="12.076" height="5.683" transform="matrix(1,0,0,1,0,0)" fill="rgb(0,0,0)" mask="url(#_mask_slbfGcB3SRrjQMrjsxfmW9B1tS6ipv0P)" vector-effect="non-scaling-stroke" stroke-width="1.421" stroke="rgb(250,250,250)" stroke-linejoin="miter" stroke-linecap="square" stroke-miterlimit="3" />
                <mask id="_mask_hqxROt3fOHVtflE8kd8s3h0FYJs68rb2" x="-200%" y="-200%" width="400%" height="400%">
                    <rect x="0" y="0" width="100%" height="100%" style="fill:white;" />
                    <rect x="232.917" y="628.164" width="8.524" height="8.524" transform="matrix(1,0,0,1,0,0)" fill="black" stroke="none" />
                </mask>
                <rect x="232.917" y="628.164" width="8.524" height="8.524" transform="matrix(1,0,0,1,0,0)" fill="rgb(0,0,0)" mask="url(#_mask_hqxROt3fOHVtflE8kd8s3h0FYJs68rb2)" vector-effect="non-scaling-stroke" stroke-width="1.421" stroke="rgb(250,250,250)" stroke-linejoin="miter" stroke-linecap="square" stroke-miterlimit="3" />
            </g>
            <g id="Edge">
                <path d=" M 262.26 628.525 C 262.246 628.505 262.231 628.484 262.216 628.464 C 261.118 626.988 259.366 626.033 257.392 626.033 C 254.199 626.033 251.588 628.532 251.385 631.691 C 251.871 630.804 254.093 628.462 257.043 628.462 C 259.993 628.462 259.718 631.21 259.718 631.21 L 255.096 631.21 C 255.182 630.127 255.972 629.202 255.972 629.202 C 252.706 630.514 252.853 633.82 252.853 633.82 C 252.933 635.366 253.445 636.434 254.126 637.173 C 255.74 638.92 258.301 638.817 258.301 638.817 C 260.607 638.817 262.161 637.899 262.161 637.899 L 262.161 635.222 C 262.161 635.222 260.826 636.15 258.631 636.186 C 254.972 636.114 255.149 633.458 255.149 633.458 L 263.256 633.458 L 263.257 633.457 L 263.257 632.036 C 263.257 632.036 263.33 630.016 262.26 628.525 L 262.26 628.525 Z " fill="rgb(33,150,243)" />
            </g>
            <g id="windows explorer">
                <path d=" M 270.215 627.422 L 284.641 627.422 C 285.053 627.422 285.386 627.756 285.386 628.167 L 285.386 637.409 C 285.386 637.82 285.053 638.154 284.641 638.154 L 270.96 638.143 C 270.548 638.143 270.215 637.809 270.215 637.398 L 270.215 627.422 Z " fill="rgb(255,224,130)" />
                <path d=" M 271.174 626.033 L 275.92 626.033 C 276.249 626.033 276.694 626.232 276.913 626.477 L 277.696 627.352 L 276.939 628.201 C 276.72 628.446 276.275 628.646 275.946 628.646 L 270.215 628.654 L 270.209 627.001 C 270.207 626.466 270.64 626.033 271.174 626.033 Z " fill="rgb(255,202,40)" />
                <rect x="271.097" y="626.968" width="3.234" height="0.734" transform="matrix(1,0,0,1,0,0)" fill="rgb(250,250,250)" />
                <rect x="271.097" y="626.968" width="0.734" height="0.734" transform="matrix(1,0,0,1,0,0)" fill="rgb(66,165,245)" />
                <path d=" M 274.095 632.456 L 281.541 632.456 C 282.323 632.456 282.957 633.09 282.957 633.871 L 282.957 638.801 L 280.3 638.818 L 280.335 634.973 L 275.301 634.973 L 275.283 638.801 L 272.679 638.801 L 272.679 633.871 C 272.679 633.09 273.313 632.456 274.095 632.456 Z " fill="rgb(66,165,245)" />
            </g>
            <g id="windows store">
                <path d=" M 303.571 629.638 L 304.702 630.045 L 304.702 637.404 L 303.586 637.773 L 295.497 636.64 L 295.497 630.769 L 303.571 629.638 Z  M 303.68 628.59 L 294.474 629.879 L 294.474 637.53 L 303.68 638.818 L 305.725 638.143 L 305.725 629.326 L 303.68 628.59 Z " fill="rgb(250,250,250)" />
                <path d=" M 295.118 636.991 L 295.118 630.446 L 303.3 629.355 L 304.937 629.9 L 304.937 637.537 L 303.3 638.082 L 295.118 636.991 Z " fill="rgb(250,250,250)" />
                <path d=" M 298.566 633.193 L 298.566 631.372 L 296.52 631.659 L 296.52 633.193 L 298.566 633.193 Z " fill="rgb(0,0,0)" />
                <path d=" M 299.077 633.193 L 301.634 633.193 L 301.634 630.943 L 299.077 631.301 L 299.077 633.193 Z " fill="rgb(0,0,0)" />
                <path d=" M 299.077 633.704 L 299.077 635.597 L 301.634 635.955 L 301.634 633.704 L 299.077 633.704 Z " fill="rgb(0,0,0)" />
                <path d=" M 298.566 633.704 L 296.52 633.704 L 296.52 635.239 L 298.566 635.525 L 298.566 633.704 Z " fill="rgb(0,0,0)" />
                <path d=" M 297.545 629.731 L 296.52 629.731 L 296.52 627.909 C 296.52 627.909 296.52 627.909 296.52 627.909 C 296.52 627.249 296.945 626.66 297.567 626.453 L 298.631 626.098 L 298.996 626.043 C 299.023 626.038 299.051 626.033 299.078 626.033 C 299.4 626.033 299.711 626.136 299.973 626.322 C 300.376 626.611 300.611 627.074 300.611 627.571 C 300.611 627.571 300.611 627.571 300.611 627.571 L 300.611 627.571 L 300.611 629.731 L 300.611 629.731 L 299.591 629.731 L 299.591 627.571 L 299.591 627.571 C 299.591 627.402 299.509 627.249 299.378 627.156 C 299.296 627.096 299.209 627.064 299.111 627.058 L 298.876 627.096 L 297.894 627.424 C 297.894 627.424 297.894 627.424 297.894 627.424 C 297.687 627.494 297.545 627.691 297.545 627.909" fill="rgb(250,250,250)" />
                <path d=" M 302.656 629.104 L 301.636 629.104 L 301.636 628.078 C 301.636 627.914 301.554 627.762 301.424 627.664 C 301.342 627.609 301.254 627.576 301.156 627.571 L 300.922 627.609 L 300.262 627.827 L 299.94 626.856 L 300.676 626.611 L 301.042 626.551 C 301.069 626.551 301.096 626.545 301.124 626.545 C 301.445 626.545 301.756 626.649 302.018 626.834 C 302.422 627.124 302.656 627.587 302.656 628.078 C 302.656 628.078 302.656 628.078 302.656 628.078 L 302.656 629.104 Z " fill="rgb(250,250,250)" />
            </g>
            <g id="wifi">
                <path d=" M 733.407 637.201 C 733.407 636.221 733.535 635.277 733.789 634.371 C 734.037 633.48 734.398 632.625 734.864 631.825 C 735.324 631.038 735.884 630.313 736.529 629.668 C 737.174 629.023 737.899 628.463 738.686 628.003 C 739.485 627.537 740.341 627.176 741.232 626.928 C 742.153 626.671 743.105 626.543 744.061 626.547 L 744.061 627.435 C 743.165 627.435 742.301 627.551 741.471 627.785 C 740.655 628.013 739.872 628.344 739.141 628.77 C 738.417 629.193 737.752 629.707 737.16 630.299 C 736.567 630.891 736.053 631.557 735.631 632.28 C 735.204 633.012 734.873 633.795 734.646 634.61 C 734.41 635.454 734.292 636.325 734.295 637.201 L 733.407 637.201 L 733.407 637.201 Z " fill-rule="evenodd" fill="rgb(35,31,32)" />
                <path d=" M 736.071 637.201 C 736.071 636.466 736.165 635.757 736.355 635.075 C 736.54 634.406 736.81 633.763 737.16 633.164 C 737.506 632.574 737.925 632.031 738.409 631.548 C 738.892 631.064 739.435 630.644 740.025 630.299 C 740.624 629.949 741.267 629.678 741.936 629.494 C 742.629 629.303 743.344 629.208 744.062 629.21 L 744.062 630.098 C 743.426 630.096 742.792 630.181 742.179 630.351 C 740.993 630.68 739.913 631.311 739.044 632.182 C 738.613 632.613 738.239 633.096 737.931 633.621 C 737.619 634.153 737.378 634.723 737.213 635.317 C 737.043 635.931 736.957 636.564 736.959 637.201 L 736.071 637.201 L 736.071 637.201 Z " fill-rule="evenodd" fill="rgb(238,238,238)" />
                <path d=" M 738.734 637.201 C 738.734 636.711 738.798 636.239 738.925 635.786 C 739.049 635.34 739.23 634.913 739.463 634.513 C 739.693 634.12 739.972 633.757 740.295 633.435 C 740.617 633.112 740.98 632.832 741.373 632.602 C 741.773 632.369 742.201 632.189 742.646 632.065 C 743.107 631.937 743.584 631.873 744.062 631.874 L 744.062 632.762 C 743.655 632.762 743.262 632.815 742.883 632.921 C 742.504 633.028 742.15 633.177 741.822 633.369 C 741.163 633.754 740.615 634.302 740.23 634.961 C 740.036 635.294 739.885 635.65 739.782 636.022 C 739.676 636.4 739.622 636.794 739.622 637.201 L 738.734 637.201 L 738.734 637.201 Z " fill-rule="evenodd" fill="rgb(238,238,238)" />
                <path d=" M 742.73 634.537 C 743.084 634.537 743.423 634.677 743.673 634.926 C 743.922 635.177 744.062 635.516 744.062 635.869 C 744.062 636.223 743.923 636.562 743.673 636.812 C 743.552 636.933 743.408 637.03 743.25 637.097 C 743.088 637.166 742.915 637.201 742.73 637.201 C 742.377 637.202 742.037 637.062 741.787 636.812 C 741.666 636.691 741.569 636.547 741.502 636.389 C 741.432 636.225 741.397 636.048 741.398 635.869 C 741.398 635.516 741.537 635.176 741.787 634.926 C 741.908 634.805 742.052 634.709 742.21 634.642 C 742.372 634.572 742.545 634.537 742.73 634.537 Z " fill-rule="evenodd" fill="rgb(238,238,238)" />
            </g>
            <g id="sound">
                <path d=" M 758.912 630.294 C 759.199 630.572 759.427 630.905 759.583 631.272 C 759.74 631.641 759.819 632.025 759.819 632.425 C 759.819 632.826 759.74 633.211 759.583 633.579 C 759.427 633.946 759.199 634.279 758.912 634.556 L 758.368 634.027 C 758.586 633.815 758.753 633.57 758.87 633.293 C 758.986 633.019 759.046 632.724 759.045 632.425 C 759.046 632.127 758.986 631.832 758.87 631.557 C 758.754 631.281 758.583 631.032 758.368 630.824 L 758.912 630.294 L 758.912 630.294 Z " fill-rule="evenodd" fill="rgb(250,250,250)" />
                <path d=" M 760.556 628.693 C 760.807 628.938 761.033 629.207 761.229 629.497 C 761.62 630.07 761.893 630.715 762.033 631.395 C 762.174 632.076 762.174 632.778 762.033 633.458 C 761.962 633.796 761.859 634.127 761.724 634.444 C 761.589 634.763 761.423 635.067 761.229 635.354 C 761.033 635.644 760.807 635.913 760.556 636.157 L 760.006 635.621 C 760.435 635.205 760.778 634.706 761.012 634.155 C 761.246 633.609 761.366 633.02 761.364 632.425 C 761.366 631.83 761.246 631.241 761.012 630.694 C 760.778 630.143 760.436 629.645 760.006 629.228 L 760.556 628.693 L 760.556 628.693 Z " fill-rule="evenodd" fill="rgb(250,250,250)" />
                <path d=" M 762.193 627.098 C 762.552 627.447 762.875 627.832 763.157 628.246 C 763.436 628.658 763.673 629.091 763.866 629.544 C 764.06 629.998 764.205 630.466 764.304 630.951 C 764.403 631.436 764.452 631.927 764.452 632.425 C 764.452 632.924 764.403 633.415 764.304 633.9 C 764.206 634.383 764.059 634.854 763.866 635.307 C 763.672 635.762 763.435 636.196 763.157 636.605 C 762.875 637.019 762.552 637.404 762.193 637.753 L 761.649 637.223 C 761.972 636.909 762.263 636.563 762.516 636.19 C 763.018 635.454 763.369 634.626 763.549 633.753 C 763.73 632.877 763.73 631.974 763.549 631.098 C 763.369 630.225 763.018 629.397 762.516 628.661 C 762.263 628.288 761.972 627.942 761.649 627.628 L 762.193 627.098 Z " fill-rule="evenodd" fill="rgb(35,31,32)" />
                <path d=" M 756.175 627.905 L 756.725 627.905 L 756.725 636.946 L 756.175 636.946 L 753.855 634.686 L 752.085 634.686 L 752.085 630.165 L 753.855 630.165 L 756.175 627.905 L 756.175 627.905 Z  M 755.952 629.194 L 754.182 630.919 L 752.858 630.919 L 752.858 633.932 L 754.182 633.932 L 755.952 635.657 L 755.952 629.194 Z " fill-rule="evenodd" fill="rgb(250,250,250)" />
            </g>
            <g id="notifications">
                <path d=" M 773.609 627.098 L 786.682 627.098 L 786.682 636.043 L 781.79 636.043 L 780.145 637.753 L 778.703 636.043 L 773.609 636.043 L 773.609 627.098 L 773.609 627.098 Z " fill-rule="evenodd" fill="rgb(238,238,238)" />
                <rect x="774.556" y="628.288" width="11.298" height="0.93" transform="matrix(1,0,0,1,0,0)" fill="rgb(33,33,33)" />
                <rect x="774.556" y="630.148" width="11.298" height="0.93" transform="matrix(1,0,0,1,0,0)" fill="rgb(33,33,33)" />
                <rect x="774.556" y="632.007" width="11.298" height="0.93" transform="matrix(1,0,0,1,0,0)" fill="rgb(33,33,33)" />
                <rect x="774.556" y="633.866" width="11.298" height="0.93" transform="matrix(1,0,0,1,0,0)" fill="rgb(33,33,33)" />
            </g>
            <path d=" M 800.165 634.083 L 800.165 638.939 L 799.839 638.939 L 799.839 635.401 L 799.839 635.401 Q 799.839 634.92 799.879 634.402 L 799.879 634.402 L 799.879 634.402 Q 799.829 634.452 799.776 634.498 L 799.776 634.498 L 799.776 634.498 Q 799.723 634.545 798.75 635.305 L 798.75 635.305 L 798.56 635.069 L 799.879 634.083 L 800.165 634.083 Z  M 803.672 634.083 L 804.021 634.083 L 802.211 638.939 L 801.865 638.939 L 803.672 634.083 Z  M 807.515 638.62 L 807.515 638.939 L 804.476 638.939 L 804.476 638.647 L 805.768 637.298 L 805.768 637.298 Q 806.313 636.733 806.532 636.435 L 806.532 636.435 L 806.532 636.435 Q 806.751 636.136 806.854 635.863 L 806.854 635.863 L 806.854 635.863 Q 806.957 635.591 806.957 635.292 L 806.957 635.292 L 806.957 635.292 Q 806.957 634.857 806.672 634.584 L 806.672 634.584 L 806.672 634.584 Q 806.386 634.312 805.931 634.312 L 805.931 634.312 L 805.931 634.312 Q 805.323 634.312 804.768 634.754 L 804.768 634.754 L 804.589 634.525 L 804.589 634.525 Q 805.197 634.013 805.938 634.013 L 805.938 634.013 L 805.938 634.013 Q 806.572 634.013 806.936 634.352 L 806.936 634.352 L 806.936 634.352 Q 807.299 634.691 807.299 635.285 L 807.299 635.285 L 807.299 635.285 Q 807.299 635.767 807.055 636.217 L 807.055 636.217 L 807.055 636.217 Q 806.811 636.667 806.163 637.328 L 806.163 637.328 L 804.918 638.607 L 804.918 638.62 L 807.515 638.62 Z  M 809.767 636.019 L 809.767 636.019 L 809.767 636.019 Q 810.545 636.019 810.991 636.395 L 810.991 636.395 L 810.991 636.395 Q 811.438 636.77 811.438 637.428 L 811.438 637.428 L 811.438 637.428 Q 811.438 638.175 810.973 638.59 L 810.973 638.59 L 810.973 638.59 Q 810.508 639.005 809.691 639.005 L 809.691 639.005 L 809.691 639.005 Q 809.329 639.005 809.003 638.934 L 809.003 638.934 L 809.003 638.934 Q 808.678 638.863 808.459 638.73 L 808.459 638.73 L 808.459 638.388 L 808.459 638.388 Q 808.817 638.57 809.096 638.642 L 809.096 638.642 L 809.096 638.642 Q 809.375 638.713 809.691 638.713 L 809.691 638.713 L 809.691 638.713 Q 810.329 638.713 810.714 638.376 L 810.714 638.376 L 810.714 638.376 Q 811.099 638.039 811.099 637.464 L 811.099 637.464 L 811.099 637.464 Q 811.099 636.923 810.724 636.614 L 810.724 636.614 L 810.724 636.614 Q 810.349 636.305 809.704 636.305 L 809.704 636.305 L 809.704 636.305 Q 809.272 636.305 808.801 636.435 L 808.801 636.435 L 808.601 636.305 L 808.794 634.083 L 811.133 634.083 L 811.133 634.402 L 809.106 634.402 L 808.957 636.116 L 808.957 636.116 Q 809.475 636.019 809.767 636.019 Z  M 813.757 634.083 L 814.105 634.083 L 812.295 638.939 L 811.95 638.939 L 813.757 634.083 Z  M 817.6 638.62 L 817.6 638.939 L 814.56 638.939 L 814.56 638.647 L 815.852 637.298 L 815.852 637.298 Q 816.397 636.733 816.616 636.435 L 816.616 636.435 L 816.616 636.435 Q 816.836 636.136 816.939 635.863 L 816.939 635.863 L 816.939 635.863 Q 817.042 635.591 817.042 635.292 L 817.042 635.292 L 817.042 635.292 Q 817.042 634.857 816.756 634.584 L 816.756 634.584 L 816.756 634.584 Q 816.47 634.312 816.015 634.312 L 816.015 634.312 L 816.015 634.312 Q 815.407 634.312 814.853 634.754 L 814.853 634.754 L 814.673 634.525 L 814.673 634.525 Q 815.281 634.013 816.022 634.013 L 816.022 634.013 L 816.022 634.013 Q 816.656 634.013 817.02 634.352 L 817.02 634.352 L 817.02 634.352 Q 817.384 634.691 817.384 635.285 L 817.384 635.285 L 817.384 635.285 Q 817.384 635.767 817.14 636.217 L 817.14 636.217 L 817.14 636.217 Q 816.895 636.667 816.248 637.328 L 816.248 637.328 L 815.002 638.607 L 815.002 638.62 L 817.6 638.62 Z  M 821.572 636.498 L 821.572 636.498 L 821.572 636.498 Q 821.572 637.776 821.182 638.391 L 821.182 638.391 L 821.182 638.391 Q 820.792 639.005 820.001 639.005 L 820.001 639.005 L 820.001 639.005 Q 819.24 639.005 818.845 638.373 L 818.845 638.373 L 818.845 638.373 Q 818.45 637.74 818.45 636.498 L 818.45 636.498 L 818.45 636.498 Q 818.45 635.229 818.834 634.618 L 818.834 634.618 L 818.834 634.618 Q 819.217 634.006 820.001 634.006 L 820.001 634.006 L 820.001 634.006 Q 820.768 634.006 821.17 634.639 L 821.17 634.639 L 821.17 634.639 Q 821.572 635.272 821.572 636.498 Z  M 818.809 636.498 L 818.809 636.498 L 818.809 636.498 Q 818.809 637.627 819.104 638.167 L 819.104 638.167 L 819.104 638.167 Q 819.4 638.706 820.001 638.706 L 820.001 638.706 L 820.001 638.706 Q 820.629 638.706 820.916 638.148 L 820.916 638.148 L 820.916 638.148 Q 821.203 637.59 821.203 636.498 L 821.203 636.498 L 821.203 636.498 Q 821.203 635.421 820.916 634.863 L 820.916 634.863 L 820.916 634.863 Q 820.629 634.305 820.001 634.305 L 820.001 634.305 L 820.001 634.305 Q 819.373 634.305 819.091 634.863 L 819.091 634.863 L 819.091 634.863 Q 818.809 635.421 818.809 636.498 Z  M 824.216 634.083 L 824.216 638.939 L 823.891 638.939 L 823.891 635.401 L 823.891 635.401 Q 823.891 634.92 823.93 634.402 L 823.93 634.402 L 823.93 634.402 Q 823.881 634.452 823.828 634.498 L 823.828 634.498 L 823.828 634.498 Q 823.774 634.545 822.801 635.305 L 822.801 635.305 L 822.612 635.069 L 823.93 634.083 L 824.216 634.083 Z  M 827.767 634 L 827.767 634 L 827.767 634 Q 828.385 634 828.762 634.315 L 828.762 634.315 L 828.762 634.315 Q 829.139 634.631 829.139 635.169 L 829.139 635.169 L 829.139 635.169 Q 829.139 635.541 828.905 635.827 L 828.905 635.827 L 828.905 635.827 Q 828.67 636.112 828.146 636.355 L 828.146 636.355 L 828.146 636.355 Q 828.783 636.617 829.042 636.929 L 829.042 636.929 L 829.042 636.929 Q 829.301 637.242 829.301 637.687 L 829.301 637.687 L 829.301 637.687 Q 829.301 638.288 828.881 638.647 L 828.881 638.647 L 828.881 638.647 Q 828.461 639.005 827.754 639.005 L 827.754 639.005 L 827.754 639.005 Q 827.02 639.005 826.628 638.67 L 826.628 638.67 L 826.628 638.67 Q 826.236 638.334 826.236 637.693 L 826.236 637.693 L 826.236 637.693 Q 826.236 637.258 826.511 636.929 L 826.511 636.929 L 826.511 636.929 Q 826.787 636.601 827.365 636.368 L 827.365 636.368 L 827.365 636.368 Q 826.83 636.116 826.611 635.835 L 826.611 635.835 L 826.611 635.835 Q 826.392 635.554 826.392 635.162 L 826.392 635.162 L 826.392 635.162 Q 826.392 634.814 826.568 634.55 L 826.568 634.55 L 826.568 634.55 Q 826.744 634.285 827.061 634.143 L 827.061 634.143 L 827.061 634.143 Q 827.378 634 827.767 634 Z  M 826.574 637.743 L 826.574 637.743 L 826.574 637.743 Q 826.574 638.202 826.885 638.454 L 826.885 638.454 L 826.885 638.454 Q 827.196 638.706 827.754 638.706 L 827.754 638.706 L 827.754 638.706 Q 828.298 638.706 828.63 638.439 L 828.63 638.439 L 828.63 638.439 Q 828.963 638.172 828.963 637.713 L 828.963 637.713 L 828.963 637.713 Q 828.963 637.301 828.702 637.044 L 828.702 637.044 L 828.702 637.044 Q 828.441 636.787 827.697 636.504 L 827.697 636.504 L 827.697 636.504 Q 827.086 636.74 826.83 637.026 L 826.83 637.026 L 826.83 637.026 Q 826.574 637.311 826.574 637.743 Z  M 827.76 634.299 L 827.76 634.299 L 827.76 634.299 Q 827.292 634.299 827.008 634.53 L 827.008 634.53 L 827.008 634.53 Q 826.724 634.76 826.724 635.162 L 826.724 635.162 L 826.724 635.162 Q 826.724 635.395 826.829 635.573 L 826.829 635.573 L 826.829 635.573 Q 826.933 635.75 827.131 635.895 L 827.131 635.895 L 827.131 635.895 Q 827.328 636.039 827.793 636.232 L 827.793 636.232 L 827.793 636.232 Q 828.335 636.023 828.571 635.77 L 828.571 635.77 L 828.571 635.77 Q 828.807 635.518 828.807 635.162 L 828.807 635.162 L 828.807 635.162 Q 828.807 634.764 828.526 634.531 L 828.526 634.531 L 828.526 634.531 Q 828.245 634.299 827.76 634.299 Z  M 820.049 629.675 L 819.375 627.961 L 817.402 627.961 L 816.724 629.675 L 816.349 629.675 L 818.302 624.799 L 818.518 624.799 L 820.431 629.675 L 820.049 629.675 Z  M 818.206 625.912 L 817.525 627.656 L 819.262 627.656 L 818.601 625.905 L 818.601 625.905 Q 818.518 625.699 818.402 625.334 L 818.402 625.334 L 818.402 625.334 Q 818.312 625.653 818.206 625.912 L 818.206 625.912 Z  M 823.47 629.675 L 823.255 629.675 L 821.444 625.191 L 821.418 625.191 L 821.418 625.191 Q 821.444 625.603 821.444 626.035 L 821.444 626.035 L 821.444 629.675 L 821.119 629.675 L 821.119 624.819 L 821.644 624.819 L 823.364 629.091 L 823.384 629.091 L 825.105 624.819 L 825.616 624.819 L 825.616 629.675 L 825.274 629.675 L 825.274 625.995 L 825.274 625.995 Q 825.274 625.61 825.314 625.198 L 825.314 625.198 L 825.287 625.198 L 823.47 629.675 Z  M 801.751 627.606 L 801.751 627.606 L 801.751 627.606 Q 801.751 626.659 802.008 626.013 L 802.008 626.013 L 802.008 626.013 Q 802.266 625.367 802.739 625.055 L 802.739 625.055 L 802.739 625.055 Q 803.212 624.743 803.88 624.743 L 803.88 624.743 L 803.88 624.743 Q 804.192 624.743 804.451 624.819 L 804.451 624.819 L 804.451 625.111 L 804.451 625.111 Q 804.209 625.022 803.867 625.022 L 803.867 625.022 L 803.867 625.022 Q 803.046 625.022 802.589 625.613 L 802.589 625.613 L 802.589 625.613 Q 802.133 626.204 802.076 627.333 L 802.076 627.333 L 802.119 627.333 L 802.119 627.333 Q 802.372 627.008 802.697 626.842 L 802.697 626.842 L 802.697 626.842 Q 803.023 626.676 803.385 626.676 L 803.385 626.676 L 803.385 626.676 Q 804.066 626.676 804.45 627.064 L 804.45 627.064 L 804.45 627.064 Q 804.833 627.453 804.833 628.137 L 804.833 628.137 L 804.833 628.137 Q 804.833 628.881 804.43 629.311 L 804.43 629.311 L 804.43 629.311 Q 804.026 629.742 803.342 629.742 L 803.342 629.742 L 803.342 629.742 Q 802.604 629.742 802.178 629.179 L 802.178 629.179 L 802.178 629.179 Q 801.751 628.616 801.751 627.606 Z  M 803.342 629.449 L 803.342 629.449 L 803.342 629.449 Q 803.887 629.449 804.189 629.107 L 804.189 629.107 L 804.189 629.107 Q 804.491 628.765 804.491 628.131 L 804.491 628.131 L 804.491 628.131 Q 804.491 627.573 804.192 627.26 L 804.192 627.26 L 804.192 627.26 Q 803.893 626.948 803.378 626.948 L 803.378 626.948 L 803.378 626.948 Q 803.04 626.948 802.749 627.098 L 802.749 627.098 L 802.749 627.098 Q 802.458 627.247 802.286 627.495 L 802.286 627.495 L 802.286 627.495 Q 802.113 627.742 802.113 628.001 L 802.113 628.001 L 802.113 628.001 Q 802.113 628.37 802.277 628.71 L 802.277 628.71 L 802.277 628.71 Q 802.442 629.051 802.722 629.25 L 802.722 629.25 L 802.722 629.25 Q 803.003 629.449 803.342 629.449 Z  M 805.737 629.416 L 805.737 629.416 L 805.737 629.416 Q 805.737 629.091 806.002 629.091 L 806.002 629.091 L 806.002 629.091 Q 806.275 629.091 806.275 629.416 L 806.275 629.416 L 806.275 629.416 Q 806.275 629.742 806.002 629.742 L 806.002 629.742 L 806.002 629.742 Q 805.737 629.742 805.737 629.416 Z  M 805.737 626.45 L 805.737 626.45 L 805.737 626.45 Q 805.737 626.124 806.002 626.124 L 806.002 626.124 L 806.002 626.124 Q 806.275 626.124 806.275 626.45 L 806.275 626.45 L 806.275 626.45 Q 806.275 626.626 806.197 626.702 L 806.197 626.702 L 806.197 626.702 Q 806.119 626.779 806.002 626.779 L 806.002 626.779 L 806.002 626.779 Q 805.889 626.779 805.813 626.702 L 805.813 626.702 L 805.813 626.702 Q 805.737 626.626 805.737 626.45 Z  M 810.068 625.962 L 810.068 625.962 L 810.068 625.962 Q 810.068 626.413 809.784 626.722 L 809.784 626.722 L 809.784 626.722 Q 809.5 627.031 809.022 627.118 L 809.022 627.118 L 809.022 627.137 L 809.022 627.137 Q 809.606 627.211 809.912 627.509 L 809.912 627.509 L 809.912 627.509 Q 810.217 627.808 810.217 628.313 L 810.217 628.313 L 810.217 628.313 Q 810.217 628.994 809.754 629.368 L 809.754 629.368 L 809.754 629.368 Q 809.291 629.742 808.42 629.742 L 808.42 629.742 L 808.42 629.742 Q 807.68 629.742 807.128 629.466 L 807.128 629.466 L 807.128 629.137 L 807.128 629.137 Q 807.407 629.283 807.754 629.366 L 807.754 629.366 L 807.754 629.366 Q 808.102 629.449 808.407 629.449 L 808.407 629.449 L 808.407 629.449 Q 809.141 629.449 809.51 629.152 L 809.51 629.152 L 809.51 629.152 Q 809.879 628.855 809.879 628.313 L 809.879 628.313 L 809.879 628.313 Q 809.879 627.832 809.502 627.573 L 809.502 627.573 L 809.502 627.573 Q 809.125 627.313 808.394 627.313 L 808.394 627.313 L 807.869 627.313 L 807.869 626.995 L 808.401 626.995 L 808.401 626.995 Q 809.005 626.995 809.359 626.707 L 809.359 626.707 L 809.359 626.707 Q 809.713 626.42 809.713 625.928 L 809.713 625.928 L 809.713 625.928 Q 809.713 625.523 809.425 625.279 L 809.425 625.279 L 809.425 625.279 Q 809.138 625.035 808.673 625.035 L 808.673 625.035 L 808.673 625.035 Q 808.311 625.035 808.012 625.136 L 808.012 625.136 L 808.012 625.136 Q 807.713 625.238 807.341 625.483 L 807.341 625.483 L 807.178 625.261 L 807.178 625.261 Q 807.461 625.025 807.859 624.887 L 807.859 624.887 L 807.859 624.887 Q 808.258 624.749 808.666 624.749 L 808.666 624.749 L 808.666 624.749 Q 809.337 624.749 809.703 625.066 L 809.703 625.066 L 809.703 625.066 Q 810.068 625.384 810.068 625.962 Z  M 814.203 627.234 L 814.203 627.234 L 814.203 627.234 Q 814.203 628.513 813.813 629.127 L 813.813 629.127 L 813.813 629.127 Q 813.423 629.742 812.632 629.742 L 812.632 629.742 L 812.632 629.742 Q 811.872 629.742 811.476 629.109 L 811.476 629.109 L 811.476 629.109 Q 811.081 628.476 811.081 627.234 L 811.081 627.234 L 811.081 627.234 Q 811.081 625.965 811.465 625.354 L 811.465 625.354 L 811.465 625.354 Q 811.848 624.743 812.632 624.743 L 812.632 624.743 L 812.632 624.743 Q 813.399 624.743 813.801 625.375 L 813.801 625.375 L 813.801 625.375 Q 814.203 626.008 814.203 627.234 Z  M 811.44 627.234 L 811.44 627.234 L 811.44 627.234 Q 811.44 628.363 811.735 628.903 L 811.735 628.903 L 811.735 628.903 Q 812.031 629.443 812.632 629.443 L 812.632 629.443 L 812.632 629.443 Q 813.26 629.443 813.547 628.885 L 813.547 628.885 L 813.547 628.885 Q 813.835 628.327 813.835 627.234 L 813.835 627.234 L 813.835 627.234 Q 813.835 626.158 813.547 625.6 L 813.547 625.6 L 813.547 625.6 Q 813.26 625.042 812.632 625.042 L 812.632 625.042 L 812.632 625.042 Q 812.004 625.042 811.722 625.6 L 811.722 625.6 L 811.722 625.6 Q 811.44 626.158 811.44 627.234 Z " fill-rule="evenodd" fill="rgb(250,250,250)" />
            <g id="windows logo">
                <path d=" M 685.007 510.923 L 685.007 447.272 L 768.443 447.272 L 768.443 523 L 685.007 510.918 L 685.007 510.923 Z  M 685.007 372.82 L 768.443 360.732 L 768.443 436.46 L 685.007 436.46 L 685.007 372.825 L 685.007 372.82 Z  M 612 500.361 L 612 447.272 L 674.577 447.272 L 674.577 509.392 L 612 500.35 L 612 500.361 Z  M 612 436.465 L 612 383.382 L 674.577 374.34 L 674.577 436.46 L 612 436.46 L 612 436.465 Z " fill-rule="evenodd" fill="rgb(250,250,250)" />
            </g>
        </g>
    </g>
</svg>