<?xml version="1.0" standalone="no"?>
<!-- Generator: Gravit.io -->
<svg xmlns="http://www.w3.org/2000/svg" xmlns:xlink="http://www.w3.org/1999/xlink" style="isolation:isolate" viewBox="0 0 1024 1024" width="1024" height="1024">
    <defs>
        <clipPath id="_clipPath_DvzVBtKuz4RJJ4bmjUkLGGOi7216Xloo">
            <rect width="1024" height="1024" />
        </clipPath>
    </defs>
    <g clip-path="url(#_clipPath_DvzVBtKuz4RJJ4bmjUkLGGOi7216Xloo)">
        <rect x="85.333" y="85.897" width="850" height="850" transform="matrix(1,0,0,1,0,0)" fill="rgb(144,164,174)" />
        <rect x="86" y="709" width="850" height="229.897" transform="matrix(1,0,0,1,0,0)" fill="rgb(84,110,122)" />
        <g id="macbook pro retina">
            <g id="monitor">
                <path d=" M 226.991 382.245 L 226.991 737.76 L 798.435 737.76 L 798.435 382.245 C 798.435 367.845 786.745 356.154 772.345 356.154 L 253.082 356.154 C 238.682 356.154 226.991 367.845 226.991 382.245 Z " fill-rule="evenodd" fill="rgb(18,18,18)" />
                <mask id="_mask_7QS4fvZiu21azNvYOqKnCiDrMRv1Yj8F">
                    <path d=" M 226.991 381.281 L 226.991 744.505 L 798.435 744.505 L 798.435 381.281 C 798.435 366.882 786.745 355.191 772.345 355.191 L 253.082 355.191 C 238.682 355.191 226.991 366.882 226.991 381.281 Z " fill-rule="evenodd" fill="white" stroke="none" />
                </mask>
                <path d=" M 226.991 381.281 L 226.991 744.505 L 798.435 744.505 L 798.435 381.281 C 798.435 366.882 786.745 355.191 772.345 355.191 L 253.082 355.191 C 238.682 355.191 226.991 366.882 226.991 381.281 Z " fill-rule="evenodd" fill="none" mask="url(#_mask_7QS4fvZiu21azNvYOqKnCiDrMRv1Yj8F)" vector-effect="non-scaling-stroke" stroke-width="3.855" stroke="rgb(197,197,197)" stroke-linejoin="miter" stroke-linecap="square" stroke-miterlimit="10" />
                <path d=" M 245.3 380.246 L 245.3 715.596 L 781.09 715.596 L 781.09 380.246 L 245.3 380.246 Z " fill-rule="evenodd" fill="rgb(40,40,40)" />
            </g>
            <g id="camera">
                <path d=" M 513.195 374.464 C 515.324 374.464 517.05 372.738 517.05 370.609 C 517.05 368.48 515.324 366.754 513.195 366.754 C 511.066 366.754 509.34 368.48 509.34 370.609 C 509.34 372.738 511.066 374.464 513.195 374.464 Z " fill-rule="evenodd" fill="rgb(31,31,31)" />
                <path d=" M 513.195 372.536 C 514.259 372.536 515.122 371.673 515.122 370.609 C 515.122 369.545 514.259 368.682 513.195 368.682 C 512.131 368.682 511.268 369.545 511.268 370.609 C 511.268 371.673 512.131 372.536 513.195 372.536 Z " fill-rule="evenodd" fill="rgb(16,52,112)" />
            </g>
            <g id="bottom">
                <path d=" M 163 750.886 Q 170.301 758.179 190.976 760.105 Q 211.652 762.031 834.448 760.105 Q 851.602 758.815 862.729 751.204 Q 873.856 743.592 179.213 751.204 L 163 750.886 Z " fill-rule="evenodd" fill="rgb(154,154,154)" />
                <path d=" M 163.39 737.76 L 163.39 751.251 L 863 751.251 L 863 737.76 L 163.39 737.76 Z " fill-rule="evenodd" fill="rgb(204,204,204)" />
                <path d=" M 463.497 738.206 L 465.951 741.778 C 467.723 744.358 471.704 746.453 474.834 746.453 L 550.36 746.453 C 553.49 746.453 557.501 744.379 559.311 741.825 L 561.874 738.206" fill-rule="evenodd" fill="rgb(216,216,216)" />
            </g>
        </g>
        <g id="Ubuntu">
            <rect x="245.438" y="382.302" width="535.588" height="10.642" transform="matrix(1,0,0,1,0,0)" fill="rgb(171,71,188)" />
            <rect x="245.302" y="392.316" width="19.647" height="323.017" transform="matrix(1,0,0,1,0,0)" fill="rgb(156,39,176)" />
            <path d=" M 253.632 389.072 L 253.035 389.072 L 253.035 389.072 Q 252.939 388.819 252.855 388.574 L 252.855 388.574 L 252.855 388.574 Q 252.77 388.329 252.68 388.076 L 252.68 388.076 L 250.913 388.076 L 250.558 389.072 L 249.99 389.072 L 249.99 389.072 Q 250.215 388.453 250.412 387.926 L 250.412 387.926 L 250.412 387.926 Q 250.609 387.4 250.798 386.927 L 250.798 386.927 L 250.798 386.927 Q 250.986 386.455 251.172 386.024 L 251.172 386.024 L 251.172 386.024 Q 251.358 385.594 251.56 385.171 L 251.56 385.171 L 252.061 385.171 L 252.061 385.171 Q 252.264 385.594 252.45 386.024 L 252.45 386.024 L 252.45 386.024 Q 252.635 386.455 252.824 386.927 L 252.824 386.927 L 252.824 386.927 Q 253.012 387.4 253.209 387.926 L 253.209 387.926 L 253.209 387.926 Q 253.406 388.453 253.632 389.072 L 253.632 389.072 Z  M 251.071 387.625 L 252.523 387.625 L 252.523 387.625 Q 252.343 387.136 252.165 386.677 L 252.165 386.677 L 252.165 386.677 Q 251.988 386.218 251.797 385.796 L 251.797 385.796 L 251.797 385.796 Q 251.6 386.218 251.422 386.677 L 251.422 386.677 L 251.422 386.677 Q 251.245 387.136 251.071 387.625 L 251.071 387.625 Z  M 255.399 389.139 L 255.399 389.139 L 255.399 389.139 Q 255.044 389.139 254.777 389.027 L 254.777 389.027 L 254.777 389.027 Q 254.51 388.914 254.327 388.712 L 254.327 388.712 L 254.327 388.712 Q 254.144 388.509 254.054 388.23 L 254.054 388.23 L 254.054 388.23 Q 253.964 387.952 253.964 387.614 L 253.964 387.614 L 253.964 387.614 Q 253.964 387.276 254.062 386.995 L 254.062 386.995 L 254.062 386.995 Q 254.161 386.714 254.341 386.508 L 254.341 386.508 L 254.341 386.508 Q 254.521 386.303 254.783 386.187 L 254.783 386.187 L 254.783 386.187 Q 255.044 386.072 255.365 386.072 L 255.365 386.072 L 255.365 386.072 Q 255.562 386.072 255.759 386.106 L 255.759 386.106 L 255.759 386.106 Q 255.956 386.139 256.136 386.213 L 256.136 386.213 L 256.018 386.657 L 256.018 386.657 Q 255.9 386.601 255.745 386.567 L 255.745 386.567 L 255.745 386.567 Q 255.59 386.533 255.416 386.533 L 255.416 386.533 L 255.416 386.533 Q 254.977 386.533 254.743 386.809 L 254.743 386.809 L 254.743 386.809 Q 254.51 387.085 254.51 387.614 L 254.51 387.614 L 254.51 387.614 Q 254.51 387.85 254.563 388.047 L 254.563 388.047 L 254.563 388.047 Q 254.616 388.244 254.732 388.385 L 254.732 388.385 L 254.732 388.385 Q 254.847 388.526 255.027 388.602 L 255.027 388.602 L 255.027 388.602 Q 255.207 388.678 255.466 388.678 L 255.466 388.678 L 255.466 388.678 Q 255.675 388.678 255.843 388.638 L 255.843 388.638 L 255.843 388.638 Q 256.012 388.599 256.108 388.554 L 256.108 388.554 L 256.181 388.993 L 256.181 388.993 Q 256.136 389.021 256.052 389.047 L 256.052 389.047 L 256.052 389.047 Q 255.967 389.072 255.86 389.092 L 255.86 389.092 L 255.86 389.092 Q 255.753 389.111 255.632 389.125 L 255.632 389.125 L 255.632 389.125 Q 255.511 389.139 255.399 389.139 Z  M 257.234 385.239 L 257.234 386.145 L 258.342 386.145 L 258.342 386.584 L 257.234 386.584 L 257.234 387.935 L 257.234 387.935 Q 257.234 388.154 257.267 388.298 L 257.267 388.298 L 257.267 388.298 Q 257.301 388.441 257.369 388.523 L 257.369 388.523 L 257.369 388.523 Q 257.436 388.605 257.538 388.638 L 257.538 388.638 L 257.538 388.638 Q 257.639 388.672 257.774 388.672 L 257.774 388.672 L 257.774 388.672 Q 258.01 388.672 258.154 388.619 L 258.154 388.619 L 258.154 388.619 Q 258.297 388.565 258.354 388.543 L 258.354 388.543 L 258.455 388.976 L 258.455 388.976 Q 258.376 389.016 258.179 389.075 L 258.179 389.075 L 258.179 389.075 Q 257.982 389.134 257.729 389.134 L 257.729 389.134 L 257.729 389.134 Q 257.431 389.134 257.236 389.058 L 257.236 389.058 L 257.236 389.058 Q 257.042 388.982 256.924 388.83 L 256.924 388.83 L 256.924 388.83 Q 256.806 388.678 256.758 388.456 L 256.758 388.456 L 256.758 388.456 Q 256.71 388.233 256.71 387.941 L 256.71 387.941 L 256.71 385.329 L 257.234 385.239 Z  M 259.53 386.145 L 259.53 389.072 L 259.007 389.072 L 259.007 386.145 L 259.53 386.145 Z  M 259.266 385.616 L 259.266 385.616 L 259.266 385.616 Q 259.125 385.616 259.026 385.523 L 259.026 385.523 L 259.026 385.523 Q 258.928 385.43 258.928 385.273 L 258.928 385.273 L 258.928 385.273 Q 258.928 385.115 259.026 385.022 L 259.026 385.022 L 259.026 385.022 Q 259.125 384.929 259.266 384.929 L 259.266 384.929 L 259.266 384.929 Q 259.406 384.929 259.505 385.022 L 259.505 385.022 L 259.505 385.022 Q 259.603 385.115 259.603 385.273 L 259.603 385.273 L 259.603 385.273 Q 259.603 385.43 259.505 385.523 L 259.505 385.523 L 259.505 385.523 Q 259.406 385.616 259.266 385.616 Z  M 262.175 386.145 L 262.716 386.145 L 262.716 386.145 Q 262.496 386.967 262.201 387.721 L 262.201 387.721 L 262.201 387.721 Q 261.905 388.475 261.629 389.072 L 261.629 389.072 L 261.157 389.072 L 261.157 389.072 Q 260.881 388.475 260.585 387.721 L 260.585 387.721 L 260.585 387.721 Q 260.29 386.967 260.07 386.145 L 260.07 386.145 L 260.633 386.145 L 260.633 386.145 Q 260.701 386.421 260.794 386.733 L 260.794 386.733 L 260.794 386.733 Q 260.886 387.046 260.991 387.352 L 260.991 387.352 L 260.991 387.352 Q 261.095 387.659 261.202 387.946 L 261.202 387.946 L 261.202 387.946 Q 261.309 388.233 261.404 388.458 L 261.404 388.458 L 261.404 388.458 Q 261.5 388.233 261.607 387.946 L 261.607 387.946 L 261.607 387.946 Q 261.714 387.659 261.818 387.352 L 261.818 387.352 L 261.818 387.352 Q 261.922 387.046 262.015 386.733 L 262.015 386.733 L 262.015 386.733 Q 262.108 386.421 262.175 386.145 L 262.175 386.145 Z  M 263.779 386.145 L 263.779 389.072 L 263.256 389.072 L 263.256 386.145 L 263.779 386.145 Z  M 263.515 385.616 L 263.515 385.616 L 263.515 385.616 Q 263.374 385.616 263.276 385.523 L 263.276 385.523 L 263.276 385.523 Q 263.177 385.43 263.177 385.273 L 263.177 385.273 L 263.177 385.273 Q 263.177 385.115 263.276 385.022 L 263.276 385.022 L 263.276 385.022 Q 263.374 384.929 263.515 384.929 L 263.515 384.929 L 263.515 384.929 Q 263.656 384.929 263.754 385.022 L 263.754 385.022 L 263.754 385.022 Q 263.853 385.115 263.853 385.273 L 263.853 385.273 L 263.853 385.273 Q 263.853 385.43 263.754 385.523 L 263.754 385.523 L 263.754 385.523 Q 263.656 385.616 263.515 385.616 Z  M 265.17 385.239 L 265.17 386.145 L 266.278 386.145 L 266.278 386.584 L 265.17 386.584 L 265.17 387.935 L 265.17 387.935 Q 265.17 388.154 265.203 388.298 L 265.203 388.298 L 265.203 388.298 Q 265.237 388.441 265.305 388.523 L 265.305 388.523 L 265.305 388.523 Q 265.372 388.605 265.474 388.638 L 265.474 388.638 L 265.474 388.638 Q 265.575 388.672 265.71 388.672 L 265.71 388.672 L 265.71 388.672 Q 265.946 388.672 266.09 388.619 L 266.09 388.619 L 266.09 388.619 Q 266.233 388.565 266.29 388.543 L 266.29 388.543 L 266.391 388.976 L 266.391 388.976 Q 266.312 389.016 266.115 389.075 L 266.115 389.075 L 266.115 389.075 Q 265.918 389.134 265.665 389.134 L 265.665 389.134 L 265.665 389.134 Q 265.367 389.134 265.172 389.058 L 265.172 389.058 L 265.172 389.058 Q 264.978 388.982 264.86 388.83 L 264.86 388.83 L 264.86 388.83 Q 264.742 388.678 264.694 388.456 L 264.694 388.456 L 264.694 388.456 Q 264.646 388.233 264.646 387.941 L 264.646 387.941 L 264.646 385.329 L 265.17 385.239 Z  M 267.466 386.145 L 267.466 389.072 L 266.943 389.072 L 266.943 386.145 L 267.466 386.145 Z  M 267.202 385.616 L 267.202 385.616 L 267.202 385.616 Q 267.061 385.616 266.962 385.523 L 266.962 385.523 L 266.962 385.523 Q 266.864 385.43 266.864 385.273 L 266.864 385.273 L 266.864 385.273 Q 266.864 385.115 266.962 385.022 L 266.962 385.022 L 266.962 385.022 Q 267.061 384.929 267.202 384.929 L 267.202 384.929 L 267.202 384.929 Q 267.342 384.929 267.441 385.022 L 267.441 385.022 L 267.441 385.022 Q 267.539 385.115 267.539 385.273 L 267.539 385.273 L 267.539 385.273 Q 267.539 385.43 267.441 385.523 L 267.441 385.523 L 267.441 385.523 Q 267.342 385.616 267.202 385.616 Z  M 268.203 387.614 L 268.203 387.614 L 268.203 387.614 Q 268.203 387.226 268.316 386.936 L 268.316 386.936 L 268.316 386.936 Q 268.429 386.646 268.614 386.455 L 268.614 386.455 L 268.614 386.455 Q 268.8 386.263 269.042 386.168 L 269.042 386.168 L 269.042 386.168 Q 269.284 386.072 269.537 386.072 L 269.537 386.072 L 269.537 386.072 Q 270.128 386.072 270.443 386.441 L 270.443 386.441 L 270.443 386.441 Q 270.759 386.809 270.759 387.563 L 270.759 387.563 L 270.759 387.563 Q 270.759 387.597 270.759 387.651 L 270.759 387.651 L 270.759 387.651 Q 270.759 387.704 270.753 387.749 L 270.753 387.749 L 268.749 387.749 L 268.749 387.749 Q 268.783 388.205 269.014 388.441 L 269.014 388.441 L 269.014 388.441 Q 269.245 388.678 269.734 388.678 L 269.734 388.678 L 269.734 388.678 Q 270.01 388.678 270.199 388.63 L 270.199 388.63 L 270.199 388.63 Q 270.387 388.582 270.483 388.537 L 270.483 388.537 L 270.556 388.976 L 270.556 388.976 Q 270.46 389.027 270.221 389.083 L 270.221 389.083 L 270.221 389.083 Q 269.982 389.139 269.678 389.139 L 269.678 389.139 L 269.678 389.139 Q 269.295 389.139 269.017 389.024 L 269.017 389.024 L 269.017 389.024 Q 268.738 388.909 268.558 388.706 L 268.558 388.706 L 268.558 388.706 Q 268.378 388.503 268.291 388.225 L 268.291 388.225 L 268.291 388.225 Q 268.203 387.946 268.203 387.614 Z  M 268.761 387.327 L 270.213 387.327 L 270.213 387.327 Q 270.218 386.972 270.035 386.745 L 270.035 386.745 L 270.035 386.745 Q 269.852 386.517 269.532 386.517 L 269.532 386.517 L 269.532 386.517 Q 269.352 386.517 269.214 386.587 L 269.214 386.587 L 269.214 386.587 Q 269.076 386.657 268.98 386.77 L 268.98 386.77 L 268.98 386.77 Q 268.884 386.882 268.831 387.029 L 268.831 387.029 L 268.831 387.029 Q 268.777 387.175 268.761 387.327 L 268.761 387.327 Z  M 272.194 388.695 L 272.194 388.695 L 272.194 388.695 Q 272.515 388.695 272.669 388.61 L 272.669 388.61 L 272.669 388.61 Q 272.824 388.526 272.824 388.34 L 272.824 388.34 L 272.824 388.34 Q 272.824 388.149 272.672 388.036 L 272.672 388.036 L 272.672 388.036 Q 272.52 387.924 272.171 387.783 L 272.171 387.783 L 272.171 387.783 Q 272.003 387.715 271.848 387.645 L 271.848 387.645 L 271.848 387.645 Q 271.693 387.575 271.58 387.479 L 271.58 387.479 L 271.58 387.479 Q 271.468 387.383 271.4 387.248 L 271.4 387.248 L 271.4 387.248 Q 271.333 387.113 271.333 386.916 L 271.333 386.916 L 271.333 386.916 Q 271.333 386.528 271.62 386.3 L 271.62 386.3 L 271.62 386.3 Q 271.907 386.072 272.402 386.072 L 272.402 386.072 L 272.402 386.072 Q 272.526 386.072 272.65 386.086 L 272.65 386.086 L 272.65 386.086 Q 272.774 386.1 272.881 386.12 L 272.881 386.12 L 272.881 386.12 Q 272.987 386.139 273.069 386.162 L 273.069 386.162 L 273.069 386.162 Q 273.151 386.185 273.196 386.201 L 273.196 386.201 L 273.1 386.652 L 273.1 386.652 Q 273.016 386.607 272.836 386.559 L 272.836 386.559 L 272.836 386.559 Q 272.655 386.511 272.402 386.511 L 272.402 386.511 L 272.402 386.511 Q 272.183 386.511 272.019 386.598 L 272.019 386.598 L 272.019 386.598 Q 271.856 386.685 271.856 386.871 L 271.856 386.871 L 271.856 386.871 Q 271.856 386.967 271.893 387.04 L 271.893 387.04 L 271.893 387.04 Q 271.929 387.113 272.005 387.172 L 272.005 387.172 L 272.005 387.172 Q 272.081 387.231 272.194 387.282 L 272.194 387.282 L 272.194 387.282 Q 272.306 387.333 272.464 387.389 L 272.464 387.389 L 272.464 387.389 Q 272.672 387.468 272.836 387.544 L 272.836 387.544 L 272.836 387.544 Q 272.999 387.62 273.114 387.721 L 273.114 387.721 L 273.114 387.721 Q 273.23 387.822 273.291 387.966 L 273.291 387.966 L 273.291 387.966 Q 273.353 388.109 273.353 388.318 L 273.353 388.318 L 273.353 388.318 Q 273.353 388.723 273.052 388.931 L 273.052 388.931 L 273.052 388.931 Q 272.751 389.139 272.194 389.139 L 272.194 389.139 L 272.194 389.139 Q 271.806 389.139 271.586 389.075 L 271.586 389.075 L 271.586 389.075 Q 271.367 389.01 271.288 388.976 L 271.288 388.976 L 271.383 388.526 L 271.383 388.526 Q 271.473 388.56 271.67 388.627 L 271.67 388.627 L 271.67 388.627 Q 271.867 388.695 272.194 388.695 Z " fill-rule="evenodd" fill="rgb(250,250,250)" />
            <path d=" M 515.26 386.313 L 515.26 386.313 L 515.26 386.313 Q 515.26 386.505 515.183 386.683 L 515.183 386.683 L 515.183 386.683 Q 515.106 386.861 514.978 387.034 L 514.978 387.034 L 514.978 387.034 Q 514.85 387.207 514.69 387.375 L 514.69 387.375 L 514.69 387.375 Q 514.531 387.543 514.371 387.702 L 514.371 387.702 L 514.371 387.702 Q 514.281 387.793 514.161 387.915 L 514.161 387.915 L 514.161 387.915 Q 514.041 388.038 513.935 388.171 L 513.935 388.171 L 513.935 388.171 Q 513.828 388.304 513.756 388.426 L 513.756 388.426 L 513.756 388.426 Q 513.684 388.549 513.684 388.639 L 513.684 388.639 L 515.382 388.639 L 515.382 389.06 L 513.147 389.06 L 513.147 389.06 Q 513.142 389.028 513.142 388.996 L 513.142 388.996 L 513.142 388.996 Q 513.142 388.964 513.142 388.937 L 513.142 388.937 L 513.142 388.937 Q 513.142 388.687 513.224 388.471 L 513.224 388.471 L 513.224 388.471 Q 513.307 388.256 513.44 388.064 L 513.44 388.064 L 513.44 388.064 Q 513.573 387.873 513.738 387.702 L 513.738 387.702 L 513.738 387.702 Q 513.903 387.532 514.062 387.372 L 514.062 387.372 L 514.062 387.372 Q 514.195 387.245 514.315 387.12 L 514.315 387.12 L 514.315 387.12 Q 514.435 386.994 514.528 386.869 L 514.528 386.869 L 514.528 386.869 Q 514.621 386.744 514.677 386.611 L 514.677 386.611 L 514.677 386.611 Q 514.733 386.478 514.733 386.329 L 514.733 386.329 L 514.733 386.329 Q 514.733 386.169 514.682 386.058 L 514.682 386.058 L 514.682 386.058 Q 514.632 385.946 514.547 385.871 L 514.547 385.871 L 514.547 385.871 Q 514.461 385.797 514.347 385.762 L 514.347 385.762 L 514.347 385.762 Q 514.233 385.728 514.105 385.728 L 514.105 385.728 L 514.105 385.728 Q 513.951 385.728 513.823 385.77 L 513.823 385.77 L 513.823 385.77 Q 513.695 385.813 513.594 385.869 L 513.594 385.869 L 513.594 385.869 Q 513.493 385.925 513.424 385.986 L 513.424 385.986 L 513.424 385.986 Q 513.354 386.047 513.317 386.079 L 513.317 386.079 L 513.072 385.728 L 513.072 385.728 Q 513.12 385.675 513.216 385.597 L 513.216 385.597 L 513.216 385.597 Q 513.312 385.52 513.445 385.451 L 513.445 385.451 L 513.445 385.451 Q 513.578 385.382 513.743 385.334 L 513.743 385.334 L 513.743 385.334 Q 513.908 385.286 514.1 385.286 L 514.1 385.286 L 514.1 385.286 Q 514.68 385.286 514.97 385.555 L 514.97 385.555 L 514.97 385.555 Q 515.26 385.824 515.26 386.313 Z  M 516.042 387.213 L 516.042 387.213 L 516.042 387.213 Q 516.042 386.287 516.37 385.786 L 516.37 385.786 L 516.37 385.786 Q 516.697 385.286 517.277 385.286 L 517.277 385.286 L 517.277 385.286 Q 517.857 385.286 518.185 385.786 L 518.185 385.786 L 518.185 385.786 Q 518.512 386.287 518.512 387.213 L 518.512 387.213 L 518.512 387.213 Q 518.512 388.139 518.185 388.639 L 518.185 388.639 L 518.185 388.639 Q 517.857 389.139 517.277 389.139 L 517.277 389.139 L 517.277 389.139 Q 516.697 389.139 516.37 388.639 L 516.37 388.639 L 516.37 388.639 Q 516.042 388.139 516.042 387.213 Z  M 517.99 387.213 L 517.99 387.213 L 517.99 387.213 Q 517.99 386.909 517.956 386.638 L 517.956 386.638 L 517.956 386.638 Q 517.921 386.366 517.839 386.164 L 517.839 386.164 L 517.839 386.164 Q 517.756 385.962 517.618 385.842 L 517.618 385.842 L 517.618 385.842 Q 517.479 385.722 517.277 385.722 L 517.277 385.722 L 517.277 385.722 Q 517.075 385.722 516.936 385.842 L 516.936 385.842 L 516.936 385.842 Q 516.798 385.962 516.716 386.164 L 516.716 386.164 L 516.716 386.164 Q 516.633 386.366 516.598 386.638 L 516.598 386.638 L 516.598 386.638 Q 516.564 386.909 516.564 387.213 L 516.564 387.213 L 516.564 387.213 Q 516.564 387.516 516.598 387.788 L 516.598 387.788 L 516.598 387.788 Q 516.633 388.059 516.716 388.261 L 516.716 388.261 L 516.716 388.261 Q 516.798 388.463 516.936 388.583 L 516.936 388.583 L 516.936 388.583 Q 517.075 388.703 517.277 388.703 L 517.277 388.703 L 517.277 388.703 Q 517.479 388.703 517.618 388.583 L 517.618 388.583 L 517.618 388.583 Q 517.756 388.463 517.839 388.261 L 517.839 388.261 L 517.839 388.261 Q 517.921 388.059 517.956 387.788 L 517.956 387.788 L 517.956 387.788 Q 517.99 387.516 517.99 387.213 Z  M 519.789 388.772 L 519.789 388.772 L 519.789 388.772 Q 519.789 388.916 519.693 389.022 L 519.693 389.022 L 519.693 389.022 Q 519.598 389.129 519.433 389.129 L 519.433 389.129 L 519.433 389.129 Q 519.268 389.129 519.172 389.022 L 519.172 389.022 L 519.172 389.022 Q 519.076 388.916 519.076 388.772 L 519.076 388.772 L 519.076 388.772 Q 519.076 388.628 519.172 388.522 L 519.172 388.522 L 519.172 388.522 Q 519.268 388.416 519.433 388.416 L 519.433 388.416 L 519.433 388.416 Q 519.598 388.416 519.693 388.522 L 519.693 388.522 L 519.693 388.522 Q 519.789 388.628 519.789 388.772 Z  M 519.789 386.649 L 519.789 386.649 L 519.789 386.649 Q 519.789 386.792 519.693 386.899 L 519.693 386.899 L 519.693 386.899 Q 519.598 387.005 519.433 387.005 L 519.433 387.005 L 519.433 387.005 Q 519.268 387.005 519.172 386.899 L 519.172 386.899 L 519.172 386.899 Q 519.076 386.792 519.076 386.649 L 519.076 386.649 L 519.076 386.649 Q 519.076 386.505 519.172 386.398 L 519.172 386.398 L 519.172 386.398 Q 519.268 386.292 519.433 386.292 L 519.433 386.292 L 519.433 386.292 Q 519.598 386.292 519.693 386.398 L 519.693 386.398 L 519.693 386.398 Q 519.789 386.505 519.789 386.649 Z  M 521.29 388.698 L 521.29 388.698 L 521.29 388.698 Q 521.764 388.698 521.969 388.511 L 521.969 388.511 L 521.969 388.511 Q 522.174 388.325 522.174 388.011 L 522.174 388.011 L 522.174 388.011 Q 522.174 387.809 522.089 387.67 L 522.089 387.67 L 522.089 387.67 Q 522.003 387.532 521.865 387.45 L 521.865 387.45 L 521.865 387.45 Q 521.727 387.367 521.543 387.332 L 521.543 387.332 L 521.543 387.332 Q 521.359 387.298 521.168 387.298 L 521.168 387.298 L 521.04 387.298 L 521.04 386.893 L 521.216 386.893 L 521.216 386.893 Q 521.349 386.893 521.49 386.867 L 521.49 386.867 L 521.49 386.867 Q 521.631 386.84 521.748 386.771 L 521.748 386.771 L 521.748 386.771 Q 521.865 386.702 521.939 386.582 L 521.939 386.582 L 521.939 386.582 Q 522.014 386.462 522.014 386.281 L 522.014 386.281 L 522.014 386.281 Q 522.014 386.132 521.961 386.026 L 521.961 386.026 L 521.961 386.026 Q 521.908 385.919 521.82 385.85 L 521.82 385.85 L 521.82 385.85 Q 521.732 385.781 521.617 385.752 L 521.617 385.752 L 521.617 385.752 Q 521.503 385.722 521.375 385.722 L 521.375 385.722 L 521.375 385.722 Q 521.12 385.722 520.942 385.797 L 520.942 385.797 L 520.942 385.797 Q 520.763 385.871 520.641 385.951 L 520.641 385.951 L 520.449 385.573 L 520.449 385.573 Q 520.513 385.531 520.612 385.48 L 520.612 385.48 L 520.612 385.48 Q 520.71 385.43 520.832 385.387 L 520.832 385.387 L 520.832 385.387 Q 520.955 385.345 521.096 385.315 L 521.096 385.315 L 521.096 385.315 Q 521.237 385.286 521.391 385.286 L 521.391 385.286 L 521.391 385.286 Q 521.684 385.286 521.897 385.358 L 521.897 385.358 L 521.897 385.358 Q 522.11 385.43 522.248 385.56 L 522.248 385.56 L 522.248 385.56 Q 522.387 385.69 522.456 385.869 L 522.456 385.869 L 522.456 385.869 Q 522.525 386.047 522.525 386.255 L 522.525 386.255 L 522.525 386.255 Q 522.525 386.542 522.36 386.747 L 522.36 386.747 L 522.36 386.747 Q 522.195 386.952 521.961 387.058 L 521.961 387.058 L 521.961 387.058 Q 522.104 387.101 522.238 387.181 L 522.238 387.181 L 522.238 387.181 Q 522.371 387.261 522.469 387.383 L 522.469 387.383 L 522.469 387.383 Q 522.568 387.505 522.629 387.665 L 522.629 387.665 L 522.629 387.665 Q 522.69 387.825 522.69 388.022 L 522.69 388.022 L 522.69 388.022 Q 522.69 388.261 522.607 388.466 L 522.607 388.466 L 522.607 388.466 Q 522.525 388.671 522.352 388.82 L 522.352 388.82 L 522.352 388.82 Q 522.179 388.969 521.918 389.054 L 521.918 389.054 L 521.918 389.054 Q 521.657 389.139 521.301 389.139 L 521.301 389.139 L 521.301 389.139 Q 521.162 389.139 521.016 389.118 L 521.016 389.118 L 521.016 389.118 Q 520.87 389.097 520.742 389.065 L 520.742 389.065 L 520.742 389.065 Q 520.614 389.033 520.518 389.001 L 520.518 389.001 L 520.518 389.001 Q 520.423 388.969 520.38 388.948 L 520.38 388.948 L 520.476 388.517 L 520.476 388.517 Q 520.566 388.559 520.777 388.628 L 520.777 388.628 L 520.777 388.628 Q 520.987 388.698 521.29 388.698 Z  M 523.355 387.213 L 523.355 387.213 L 523.355 387.213 Q 523.355 386.287 523.683 385.786 L 523.683 385.786 L 523.683 385.786 Q 524.01 385.286 524.59 385.286 L 524.59 385.286 L 524.59 385.286 Q 525.17 385.286 525.498 385.786 L 525.498 385.786 L 525.498 385.786 Q 525.825 386.287 525.825 387.213 L 525.825 387.213 L 525.825 387.213 Q 525.825 388.139 525.498 388.639 L 525.498 388.639 L 525.498 388.639 Q 525.17 389.139 524.59 389.139 L 524.59 389.139 L 524.59 389.139 Q 524.01 389.139 523.683 388.639 L 523.683 388.639 L 523.683 388.639 Q 523.355 388.139 523.355 387.213 Z  M 525.303 387.213 L 525.303 387.213 L 525.303 387.213 Q 525.303 386.909 525.269 386.638 L 525.269 386.638 L 525.269 386.638 Q 525.234 386.366 525.152 386.164 L 525.152 386.164 L 525.152 386.164 Q 525.069 385.962 524.931 385.842 L 524.931 385.842 L 524.931 385.842 Q 524.792 385.722 524.59 385.722 L 524.59 385.722 L 524.59 385.722 Q 524.388 385.722 524.249 385.842 L 524.249 385.842 L 524.249 385.842 Q 524.111 385.962 524.029 386.164 L 524.029 386.164 L 524.029 386.164 Q 523.946 386.366 523.911 386.638 L 523.911 386.638 L 523.911 386.638 Q 523.877 386.909 523.877 387.213 L 523.877 387.213 L 523.877 387.213 Q 523.877 387.516 523.911 387.788 L 523.911 387.788 L 523.911 387.788 Q 523.946 388.059 524.029 388.261 L 524.029 388.261 L 524.029 388.261 Q 524.111 388.463 524.249 388.583 L 524.249 388.583 L 524.249 388.583 Q 524.388 388.703 524.59 388.703 L 524.59 388.703 L 524.59 388.703 Q 524.792 388.703 524.931 388.583 L 524.931 388.583 L 524.931 388.583 Q 525.069 388.463 525.152 388.261 L 525.152 388.261 L 525.152 388.261 Q 525.234 388.059 525.269 387.788 L 525.269 387.788 L 525.269 387.788 Q 525.303 387.516 525.303 387.213 Z  M 502.965 386.558 L 502.965 386.558 L 502.965 386.558 Q 502.742 387.271 502.513 387.878 L 502.513 387.878 L 502.513 387.878 Q 502.284 388.485 502.055 389.06 L 502.055 389.06 L 501.539 389.06 L 501.539 389.06 Q 501.257 388.245 501.041 387.34 L 501.041 387.34 L 501.041 387.34 Q 500.825 386.436 500.639 385.371 L 500.639 385.371 L 501.182 385.371 L 501.182 385.371 Q 501.257 385.786 501.336 386.201 L 501.336 386.201 L 501.336 386.201 Q 501.416 386.617 501.501 387.008 L 501.501 387.008 L 501.501 387.008 Q 501.587 387.399 501.672 387.756 L 501.672 387.756 L 501.672 387.756 Q 501.757 388.112 501.847 388.416 L 501.847 388.416 L 501.847 388.416 Q 502.06 387.857 502.3 387.189 L 502.3 387.189 L 502.3 387.189 Q 502.539 386.521 502.747 385.808 L 502.747 385.808 L 503.194 385.808 L 503.194 385.808 Q 503.402 386.521 503.646 387.189 L 503.646 387.189 L 503.646 387.189 Q 503.891 387.857 504.104 388.416 L 504.104 388.416 L 504.104 388.416 Q 504.189 388.117 504.274 387.761 L 504.274 387.761 L 504.274 387.761 Q 504.36 387.404 504.442 387.013 L 504.442 387.013 L 504.442 387.013 Q 504.525 386.622 504.604 386.204 L 504.604 386.204 L 504.604 386.204 Q 504.684 385.786 504.759 385.371 L 504.759 385.371 L 505.286 385.371 L 505.286 385.371 Q 505.094 386.436 504.878 387.34 L 504.878 387.34 L 504.878 387.34 Q 504.663 388.245 504.386 389.06 L 504.386 389.06 L 503.87 389.06 L 503.87 389.06 Q 503.636 388.485 503.412 387.878 L 503.412 387.878 L 503.412 387.878 Q 503.189 387.271 502.965 386.558 Z  M 505.706 387.681 L 505.706 387.681 L 505.706 387.681 Q 505.706 387.314 505.813 387.04 L 505.813 387.04 L 505.813 387.04 Q 505.919 386.766 506.095 386.585 L 506.095 386.585 L 506.095 386.585 Q 506.27 386.404 506.499 386.313 L 506.499 386.313 L 506.499 386.313 Q 506.728 386.223 506.968 386.223 L 506.968 386.223 L 506.968 386.223 Q 507.526 386.223 507.824 386.571 L 507.824 386.571 L 507.824 386.571 Q 508.122 386.92 508.122 387.633 L 508.122 387.633 L 508.122 387.633 Q 508.122 387.665 508.122 387.716 L 508.122 387.716 L 508.122 387.716 Q 508.122 387.766 508.117 387.809 L 508.117 387.809 L 506.222 387.809 L 506.222 387.809 Q 506.254 388.24 506.473 388.463 L 506.473 388.463 L 506.473 388.463 Q 506.691 388.687 507.154 388.687 L 507.154 388.687 L 507.154 388.687 Q 507.415 388.687 507.593 388.642 L 507.593 388.642 L 507.593 388.642 Q 507.771 388.597 507.862 388.554 L 507.862 388.554 L 507.931 388.969 L 507.931 388.969 Q 507.84 389.017 507.614 389.07 L 507.614 389.07 L 507.614 389.07 Q 507.388 389.123 507.101 389.123 L 507.101 389.123 L 507.101 389.123 Q 506.739 389.123 506.475 389.014 L 506.475 389.014 L 506.475 389.014 Q 506.212 388.905 506.041 388.714 L 506.041 388.714 L 506.041 388.714 Q 505.871 388.522 505.789 388.259 L 505.789 388.259 L 505.789 388.259 Q 505.706 387.995 505.706 387.681 Z  M 506.233 387.41 L 507.606 387.41 L 507.606 387.41 Q 507.612 387.074 507.439 386.859 L 507.439 386.859 L 507.439 386.859 Q 507.266 386.643 506.962 386.643 L 506.962 386.643 L 506.962 386.643 Q 506.792 386.643 506.661 386.71 L 506.661 386.71 L 506.661 386.71 Q 506.531 386.776 506.441 386.883 L 506.441 386.883 L 506.441 386.883 Q 506.35 386.989 506.3 387.128 L 506.3 387.128 L 506.3 387.128 Q 506.249 387.266 506.233 387.41 L 506.233 387.41 Z  M 510.624 388.628 L 510.624 386.877 L 510.624 386.877 Q 510.534 386.803 510.363 386.734 L 510.363 386.734 L 510.363 386.734 Q 510.193 386.664 509.991 386.664 L 509.991 386.664 L 509.991 386.664 Q 509.778 386.664 509.626 386.742 L 509.626 386.742 L 509.626 386.742 Q 509.474 386.819 509.379 386.955 L 509.379 386.955 L 509.379 386.955 Q 509.283 387.09 509.24 387.277 L 509.24 387.277 L 509.24 387.277 Q 509.198 387.463 509.198 387.676 L 509.198 387.676 L 509.198 387.676 Q 509.198 388.16 509.437 388.424 L 509.437 388.424 L 509.437 388.424 Q 509.677 388.687 510.076 388.687 L 510.076 388.687 L 510.076 388.687 Q 510.278 388.687 510.414 388.668 L 510.414 388.668 L 510.414 388.668 Q 510.55 388.65 510.624 388.628 L 510.624 388.628 Z  M 510.624 386.414 L 510.624 385.015 L 511.119 384.929 L 511.119 388.98 L 511.119 388.98 Q 510.949 389.028 510.683 389.076 L 510.683 389.076 L 510.683 389.076 Q 510.416 389.123 510.071 389.123 L 510.071 389.123 L 510.071 389.123 Q 509.751 389.123 509.496 389.022 L 509.496 389.022 L 509.496 389.022 Q 509.24 388.921 509.059 388.735 L 509.059 388.735 L 509.059 388.735 Q 508.878 388.549 508.78 388.28 L 508.78 388.28 L 508.78 388.28 Q 508.681 388.011 508.681 387.676 L 508.681 387.676 L 508.681 387.676 Q 508.681 387.356 508.764 387.09 L 508.764 387.09 L 508.764 387.09 Q 508.846 386.824 509.006 386.633 L 509.006 386.633 L 509.006 386.633 Q 509.166 386.441 509.397 386.334 L 509.397 386.334 L 509.397 386.334 Q 509.629 386.228 509.927 386.228 L 509.927 386.228 L 509.927 386.228 Q 510.166 386.228 510.35 386.292 L 510.35 386.292 L 510.35 386.292 Q 510.534 386.356 510.624 386.414 L 510.624 386.414 Z " fill-rule="evenodd" fill="rgb(250,250,250)" />
            <polygon points="767.985,388.964,764.431,385.456,771.54,385.456" fill="rgb(235,235,235)" />
            <g id="shutdown">
                <line x1="759.085" y1="385.28" x2="759.085" y2="387.118" vector-effect="non-scaling-stroke" stroke-width="0.482" stroke="rgb(250,250,250)" stroke-linejoin="round" stroke-linecap="round" stroke-miterlimit="10" />
                <path d=" M 760.004 385.51 C 760.601 385.841 761.015 386.475 761.015 387.21 C 761.015 388.276 760.151 389.139 759.085 389.139 C 758.019 389.139 757.155 388.276 757.155 387.21 C 757.155 386.475 757.56 385.841 758.166 385.51" fill="none" vector-effect="non-scaling-stroke" stroke-width="0.482" stroke="rgb(250,250,250)" stroke-linejoin="round" stroke-linecap="round" stroke-miterlimit="10" />
            </g>
            <path d=" M 753.195 385.804 L 753.007 385.991 C 753.465 386.309 753.737 386.828 753.737 387.385 C 753.737 387.943 753.465 388.462 753.007 388.78 L 753.195 388.968 C 753.699 388.599 753.998 388.013 753.998 387.386 C 753.997 386.758 753.699 386.173 753.195 385.804 L 753.195 385.804 Z  M 752.261 386.738 L 752.037 386.961 C 752.271 386.961 752.462 387.151 752.462 387.385 C 752.462 387.619 752.271 387.81 752.037 387.81 L 752.261 388.033 C 752.537 387.937 752.723 387.677 752.723 387.384 C 752.723 387.086 752.529 386.83 752.261 386.738 L 752.261 386.738 Z  M 752.724 386.274 L 752.533 386.465 C 752.872 386.647 753.084 387.001 753.082 387.386 C 753.082 387.774 752.872 388.123 752.533 388.307 L 752.724 388.499 C 753.11 388.262 753.344 387.846 753.344 387.387 C 753.344 386.927 753.109 386.511 752.724 386.274 L 752.724 386.274 Z  M 749.228 386.405 L 750.012 386.405 L 750.012 388.366 L 749.228 388.366 L 749.228 386.405 Z  M 750.142 388.404 L 751.579 389.841 L 751.579 384.929 L 750.142 386.367 L 750.142 388.404 L 750.142 388.404 Z " fill="rgb(235,235,235)" />
            <g id="Apps">
                <g id="more apps">
                    <path d=" M 249.399 703.206 C 249.399 702.508 249.967 701.94 250.665 701.94 C 251.364 701.94 251.932 702.508 251.932 703.206 C 251.932 703.905 251.364 704.473 250.665 704.473 C 249.967 704.473 249.399 703.905 249.399 703.206 Z " fill="rgb(250,250,250)" />
                    <path d=" M 253.36 703.206 C 253.36 702.508 253.927 701.94 254.626 701.94 C 255.325 701.94 255.893 702.508 255.893 703.206 C 255.893 703.905 255.325 704.473 254.626 704.473 C 253.927 704.473 253.36 703.905 253.36 703.206 Z " fill="rgb(250,250,250)" />
                    <path d=" M 257.664 703.27 C 257.664 702.571 258.231 702.003 258.93 702.003 C 259.629 702.003 260.197 702.571 260.197 703.27 C 260.197 703.969 259.629 704.536 258.93 704.536 C 258.231 704.536 257.664 703.969 257.664 703.27 Z " fill="rgb(250,250,250)" />
                    <path d=" M 249.094 707.396 C 249.094 706.697 249.662 706.13 250.36 706.13 C 251.059 706.13 251.627 706.697 251.627 707.396 C 251.627 708.095 251.059 708.662 250.36 708.662 C 249.662 708.662 249.094 708.095 249.094 707.396 Z " fill="rgb(250,250,250)" />
                    <path d=" M 253.379 707.396 C 253.379 706.697 253.946 706.13 254.645 706.13 C 255.344 706.13 255.912 706.697 255.912 707.396 C 255.912 708.095 255.344 708.662 254.645 708.662 C 253.946 708.662 253.379 708.095 253.379 707.396 Z " fill="rgb(250,250,250)" />
                    <path d=" M 257.664 707.396 C 257.664 706.697 258.231 706.13 258.93 706.13 C 259.629 706.13 260.197 706.697 260.197 707.396 C 260.197 708.095 259.629 708.662 258.93 708.662 C 258.231 708.662 257.664 708.095 257.664 707.396 Z " fill="rgb(250,250,250)" />
                    <path d=" M 257.683 699.017 C 257.683 698.318 258.25 697.751 258.949 697.751 C 259.648 697.751 260.216 698.318 260.216 699.017 C 260.216 699.716 259.648 700.283 258.949 700.283 C 258.25 700.283 257.683 699.716 257.683 699.017 Z " fill="rgb(250,250,250)" />
                    <path d=" M 253.379 699.017 C 253.379 698.318 253.946 697.751 254.645 697.751 C 255.344 697.751 255.912 698.318 255.912 699.017 C 255.912 699.716 255.344 700.283 254.645 700.283 C 253.946 700.283 253.379 699.716 253.379 699.017 Z " fill="rgb(250,250,250)" />
                    <path d=" M 249.418 699.017 C 249.418 698.318 249.986 697.751 250.684 697.751 C 251.383 697.751 251.951 698.318 251.951 699.017 C 251.951 699.716 251.383 700.283 250.684 700.283 C 249.986 700.283 249.418 699.716 249.418 699.017 Z " fill="rgb(250,250,250)" />
                </g>
                <g id="Firefox">
                    <rect x="248.555" y="399.539" width="12.744" height="12.744" transform="matrix(1,0,0,1,0,0)" fill="rgb(30,136,229)" />
                    <g id="firefox-quantum">
                        <path d=" M 258.282 401.334 C 258.008 401.653 257.881 402.37 258.158 403.097 C 258.436 403.824 258.861 403.666 259.126 404.408 C 259.476 405.386 259.313 406.7 259.313 406.7 C 259.313 406.7 259.734 407.918 260.027 406.624 C 260.676 404.193 258.282 401.933 258.282 401.334 Z " fill="rgb(255,152,0)" />
                        <path d=" M 254.943 411.426 C 257.745 411.426 260.015 409.143 260.015 406.329 C 260.015 403.514 257.745 401.232 254.945 401.232 C 252.146 401.232 249.875 403.514 249.875 406.329 C 249.87 409.146 252.143 411.426 254.943 411.426 Z " fill="rgb(21,101,192)" />
                        <path d=" M 258.744 409.472 C 258.634 409.549 258.519 409.619 258.399 409.68 C 258.558 409.448 258.704 409.207 258.837 408.96 C 258.945 408.841 259.044 408.724 259.125 408.598 C 259.164 408.537 259.208 408.46 259.255 408.372 C 259.54 407.859 259.854 407.028 259.863 406.176 L 259.863 406.174 C 259.863 406.153 259.863 406.132 259.863 406.11 C 259.865 405.896 259.843 405.683 259.798 405.473 C 259.8 405.49 259.802 405.506 259.804 405.522 C 259.802 405.51 259.8 405.497 259.797 405.485 C 259.801 405.508 259.804 405.53 259.808 405.553 C 259.866 406.047 259.825 406.529 259.617 406.884 C 259.614 406.889 259.611 406.894 259.607 406.899 C 259.715 406.359 259.751 405.763 259.631 405.166 C 259.631 405.166 259.583 404.876 259.227 403.996 C 259.022 403.489 258.658 403.073 258.336 402.771 C 258.054 402.422 257.797 402.187 257.656 402.039 C 257.361 401.728 257.237 401.495 257.187 401.343 C 257.142 401.321 256.579 400.774 256.535 400.753 C 256.289 401.134 255.516 402.326 255.883 403.44 C 256.05 403.945 256.472 404.469 256.913 404.763 C 256.932 404.785 257.175 405.049 257.291 405.644 C 257.41 406.26 257.347 406.74 257.102 407.45 C 256.813 408.073 256.072 408.688 255.379 408.751 C 253.897 408.886 253.355 408.007 253.355 408.007 C 253.884 408.219 254.47 408.175 254.826 407.955 C 255.185 407.733 255.402 407.569 255.578 407.634 C 255.752 407.698 255.89 407.511 255.766 407.316 C 255.57 407.015 255.213 406.859 254.858 406.921 C 254.499 406.98 254.17 407.264 253.7 406.989 C 253.669 406.971 253.64 406.952 253.611 406.931 C 253.58 406.91 253.712 406.962 253.681 406.939 C 253.59 406.889 253.428 406.78 253.386 406.742 C 253.379 406.735 253.457 406.767 253.45 406.76 C 253.01 406.398 253.065 406.153 253.078 406 C 253.089 405.877 253.169 405.719 253.304 405.656 C 253.369 405.691 253.41 405.718 253.41 405.718 C 253.41 405.718 253.382 405.661 253.367 405.632 C 253.372 405.629 253.377 405.63 253.382 405.628 C 253.436 405.653 253.554 405.72 253.616 405.761 C 253.696 405.818 253.722 405.869 253.722 405.869 C 253.722 405.869 253.743 405.857 253.728 405.807 C 253.722 405.787 253.698 405.722 253.617 405.657 L 253.622 405.657 C 253.67 405.685 253.716 405.716 253.758 405.752 C 253.781 405.67 253.821 405.584 253.812 405.431 C 253.807 405.323 253.809 405.295 253.79 405.253 C 253.773 405.218 253.8 405.204 253.829 405.241 C 253.824 405.212 253.816 405.183 253.804 405.156 L 253.804 405.153 C 253.841 405.025 254.584 404.691 254.638 404.652 C 254.727 404.589 254.802 404.508 254.857 404.414 C 254.898 404.348 254.93 404.256 254.937 404.116 C 254.941 404.015 254.894 403.947 254.143 403.869 C 253.937 403.849 253.817 403.7 253.748 403.562 C 253.736 403.533 253.723 403.506 253.71 403.479 C 253.698 403.448 253.688 403.416 253.681 403.383 C 253.804 403.03 254.01 402.732 254.314 402.506 C 254.33 402.491 254.248 402.51 254.264 402.495 C 254.283 402.477 254.409 402.427 254.433 402.415 C 254.462 402.402 254.309 402.336 254.173 402.352 C 254.035 402.368 254.006 402.384 253.933 402.415 C 253.963 402.385 254.06 402.345 254.037 402.345 C 253.889 402.368 253.704 402.455 253.546 402.553 C 253.546 402.536 253.549 402.519 253.556 402.503 C 253.482 402.534 253.301 402.66 253.249 402.767 C 253.251 402.747 253.252 402.726 253.252 402.706 C 253.196 402.752 253.145 402.805 253.101 402.864 L 253.098 402.866 C 252.671 402.694 252.296 402.683 251.978 402.76 C 251.908 402.69 251.874 402.741 251.716 402.394 C 251.705 402.373 251.724 402.414 251.716 402.394 C 251.69 402.326 251.732 402.484 251.716 402.394 C 251.45 402.604 251.1 402.841 250.932 403.009 C 250.93 403.016 251.128 402.953 250.932 403.009 C 250.863 403.029 250.868 403.07 250.857 403.438 C 250.855 403.466 250.857 403.497 250.855 403.522 C 250.72 403.693 250.629 403.838 250.594 403.913 C 250.421 404.212 250.23 404.679 250.044 405.417 C 250.126 405.217 250.224 405.024 250.339 404.841 C 250.185 405.232 250.036 405.847 250.006 406.794 C 250.043 406.599 250.091 406.405 250.149 406.215 C 250.113 407.001 250.248 407.785 250.546 408.513 C 250.653 408.774 250.829 409.169 251.129 409.603 C 252.072 410.595 253.403 411.213 254.876 411.213 C 256.414 411.213 257.795 410.54 258.744 409.472 Z " fill="rgb(13,71,161)" />
                        <path d=" M 257.606 410.193 C 259.467 409.977 260.291 408.059 259.233 408.021 C 258.277 407.991 256.724 410.294 257.606 410.193 Z " fill="rgb(211,47,47)" />
                        <path d=" M 259.367 407.63 C 260.647 406.884 260.313 405.275 260.313 405.275 C 260.313 405.275 259.819 405.849 259.483 406.764 C 259.152 407.67 258.597 408.08 259.367 407.63 Z " fill="rgb(229,57,53)" />
                        <path d=" M 255.302 411.145 C 257.087 411.715 258.621 410.308 257.675 409.839 C 256.815 409.415 254.454 410.876 255.302 411.145 Z " fill="rgb(198,40,40)" />
                        <path d=" M 259.5 408.313 C 259.543 408.252 259.602 408.056 259.654 407.968 C 259.969 407.459 259.971 407.053 259.971 407.044 C 260.162 406.093 260.144 405.705 260.027 404.987 C 259.933 404.408 259.521 403.58 259.164 403.181 C 258.796 402.77 259.055 402.904 258.699 402.604 C 258.386 402.258 258.084 401.915 257.919 401.777 C 256.727 400.781 256.754 400.569 256.777 400.533 C 256.773 400.537 256.767 400.544 256.76 400.552 C 256.746 400.495 256.736 400.448 256.736 400.448 C 256.736 400.448 256.085 401.1 255.947 402.185 C 255.858 402.894 256.123 403.633 256.507 404.105 C 256.707 404.35 256.934 404.572 257.182 404.768 L 257.182 404.768 C 257.472 405.184 257.632 405.699 257.632 406.252 C 257.632 407.638 256.508 408.761 255.122 408.761 C 254.933 408.761 254.744 408.74 254.56 408.698 C 253.906 408.573 253.528 408.243 253.34 408.019 C 253.232 407.891 253.186 407.797 253.186 407.797 C 253.772 408.007 254.42 407.963 254.814 407.746 C 255.211 407.525 255.452 407.362 255.647 407.427 C 255.839 407.491 255.992 407.305 255.855 407.112 C 255.72 406.919 255.37 406.644 254.85 406.72 C 254.453 406.778 254.089 407.06 253.568 406.787 C 253.534 406.769 253.501 406.75 253.47 406.73 C 253.436 406.709 253.581 406.76 253.547 406.737 C 253.446 406.688 253.267 406.58 253.22 406.542 C 253.212 406.536 253.299 406.567 253.291 406.56 C 252.804 406.201 252.865 405.958 252.88 405.806 C 252.892 405.684 252.981 405.528 253.13 405.465 C 253.202 405.5 253.247 405.527 253.247 405.527 C 253.247 405.527 253.216 405.471 253.199 405.441 C 253.205 405.439 253.211 405.439 253.217 405.437 C 253.276 405.463 253.406 405.529 253.475 405.569 C 253.564 405.626 253.593 405.676 253.593 405.676 C 253.593 405.676 253.616 405.665 253.599 405.615 C 253.592 405.595 253.565 405.531 253.477 405.466 L 253.482 405.467 C 253.535 405.493 253.585 405.525 253.632 405.56 C 253.657 405.479 253.702 405.394 253.692 405.242 C 253.686 405.135 253.689 405.107 253.668 405.066 C 253.649 405.03 253.679 405.017 253.711 405.053 C 253.706 405.024 253.696 404.996 253.683 404.97 L 253.684 404.967 C 253.724 404.839 254.547 404.508 254.607 404.47 C 254.703 404.409 254.786 404.329 254.849 404.234 C 254.894 404.168 254.929 404.077 254.937 403.938 C 254.94 403.875 254.921 403.826 254.703 403.778 C 254.572 403.75 254.37 403.722 254.058 403.693 C 253.831 403.673 253.697 403.525 253.621 403.389 C 253.607 403.36 253.593 403.333 253.579 403.306 C 253.566 403.275 253.555 403.244 253.547 403.211 C 253.683 402.855 253.928 402.55 254.247 402.342 C 254.265 402.327 254.174 402.345 254.192 402.33 C 254.214 402.313 254.353 402.263 254.379 402.251 C 254.412 402.238 254.242 402.173 254.092 402.189 C 253.939 402.204 253.907 402.221 253.825 402.252 C 253.859 402.221 253.967 402.182 253.941 402.182 C 253.777 402.205 253.572 402.291 253.398 402.388 C 253.397 402.371 253.401 402.354 253.408 402.338 C 253.327 402.369 253.127 402.495 253.068 402.601 C 253.071 402.58 253.072 402.56 253.072 402.539 C 253.01 402.585 252.954 402.638 252.905 402.696 L 252.902 402.698 C 252.429 402.528 252.013 402.517 251.662 402.593 C 251.585 402.524 251.461 402.419 251.286 402.075 C 251.274 402.054 251.267 402.117 251.258 402.097 C 251.19 401.939 251.149 401.68 251.156 401.502 C 251.156 401.502 251.015 401.566 250.899 401.834 C 250.877 401.882 250.863 401.909 250.849 401.936 C 250.843 401.943 250.864 401.848 250.86 401.853 C 250.84 401.887 250.788 401.935 250.765 401.997 C 250.749 402.043 250.727 402.069 250.713 402.126 L 250.709 402.131 C 250.708 402.114 250.713 402.062 250.71 402.073 C 250.655 402.183 250.608 402.297 250.569 402.414 C 250.506 402.62 250.433 402.9 250.422 403.266 C 250.419 403.293 250.421 403.324 250.419 403.349 C 250.27 403.519 250.169 403.663 250.131 403.737 C 249.939 404.034 249.727 404.496 249.522 405.228 C 249.613 405.028 249.722 404.837 249.848 404.657 C 249.677 405.045 249.512 405.655 249.479 406.594 C 249.521 406.4 249.574 406.208 249.638 406.02 C 249.609 406.646 249.681 407.422 250.077 408.298 C 250.312 408.814 250.854 409.86 252.176 410.677 L 252.176 410.677 C 252.176 410.677 252.625 411.011 253.399 411.262 C 253.456 411.283 253.514 411.304 253.573 411.323 C 253.554 411.316 253.536 411.308 253.519 411.3 C 254.033 411.454 254.568 411.533 255.105 411.533 C 257.107 411.535 257.697 410.731 257.697 410.731 C 257.697 410.731 257.695 410.732 257.691 410.735 Q 257.734 410.695 257.773 410.652 C 257.457 410.95 256.736 410.97 256.467 410.949 C 256.926 410.814 257.229 410.7 257.817 410.474 Q 257.921 410.436 258.028 410.387 C 258.036 410.384 258.044 410.38 258.052 410.376 C 258.066 410.37 258.08 410.363 258.095 410.356 C 258.381 410.221 258.651 410.052 258.898 409.854 C 259.488 409.382 259.617 408.922 259.684 408.618 C 259.675 408.647 259.646 408.715 259.625 408.759 C 259.473 409.085 259.136 409.284 258.769 409.456 C 258.944 409.227 259.105 408.989 259.254 408.742 C 259.373 408.623 259.41 408.438 259.5 408.313 Z " fill="rgb(230,81,0)" />
                        <path d=" M 258.781 409.442 C 259.022 409.176 259.238 408.872 259.402 408.528 C 259.823 407.641 260.475 406.167 259.962 404.627 C 259.556 403.411 258.999 402.745 258.291 402.095 C 257.142 401.04 256.822 400.568 256.822 400.288 C 256.822 400.288 255.495 401.767 256.07 403.309 C 256.646 404.852 257.824 404.795 258.604 406.405 C 259.521 408.299 257.861 410.366 256.489 410.944 C 256.573 410.926 259.54 410.254 259.696 408.557 C 259.692 408.589 259.625 409.058 258.781 409.442 Z " fill="rgb(255,152,0)" />
                        <path d=" M 254.937 403.938 C 254.942 403.838 254.89 403.77 254.061 403.693 C 253.72 403.661 253.589 403.346 253.55 403.213 C 253.428 403.528 253.378 403.859 253.405 404.259 C 253.424 404.521 253.6 404.802 253.684 404.967 C 253.684 404.967 253.702 404.943 253.711 404.934 C 253.869 404.769 254.533 404.517 254.595 404.482 C 254.664 404.438 254.926 404.247 254.937 403.938 Z " fill="rgb(255,143,0)" />
                        <path d=" M 251.289 402.076 C 251.277 402.056 251.27 402.119 251.261 402.099 C 251.193 401.941 251.152 401.685 251.162 401.504 C 251.162 401.504 251.021 401.568 250.904 401.836 C 250.883 401.884 250.869 401.911 250.855 401.938 C 250.849 401.945 250.869 401.85 250.866 401.855 C 250.846 401.889 250.793 401.937 250.771 401.996 C 250.752 402.045 250.732 402.071 250.718 402.131 C 250.713 402.147 250.722 402.059 250.719 402.069 C 250.448 402.593 250.396 403.385 250.424 403.351 C 251.001 402.735 251.662 402.589 251.662 402.589 C 251.592 402.537 251.439 402.388 251.289 402.076 L 251.289 402.076 Z " fill="rgb(211,47,47)" />
                        <path d=" M 258.779 409.449 C 259.969 408.28 260.571 406.86 260.317 405.266 C 260.317 405.266 260.418 406.083 260.033 406.919 C 260.218 406.103 260.239 405.089 259.747 404.04 C 259.09 402.638 258.01 401.901 257.597 401.593 C 256.972 401.127 256.713 400.652 256.708 400.554 C 256.522 400.937 255.957 402.248 256.648 403.377 C 257.295 404.435 258.314 404.749 259.028 405.719 C 260.343 407.507 258.779 409.449 258.779 409.449 Z " fill="rgb(253,216,53)" />
                        <path d=" M 258.608 406.408 C 258.192 405.549 257.673 405.174 257.182 404.768 C 257.239 404.848 257.253 404.876 257.285 404.928 C 257.717 405.389 258.354 406.512 257.891 407.923 C 257.02 410.579 253.536 409.328 253.171 408.977 C 253.318 410.514 255.891 411.249 257.566 410.253 C 258.519 409.35 259.29 407.817 258.608 406.408 Z " fill="rgb(255,111,0)" />
                    </g>
                </g>
                <g id="App Store">
                    <g id="App Store 2">
                        <rect x="248.811" y="418.302" width="12.744" height="12.744" transform="matrix(1,0,0,1,0,0)" fill="rgb(235,235,235)" />
                        <g id="Accessories">
                            <g id="Ruler">
                                <path d=" M 251.135 425.912 L 251.135 427.406 L 259.231 427.406 L 259.231 425.912 L 251.135 425.912 Z " fill-rule="evenodd" fill="rgb(139,104,69)" fill-opacity="0.8369715073529411" />
                                <path d=" M 251.434 426.277 L 251.434 426.285 C 251.434 426.324 251.466 426.356 251.505 426.356 L 258.86 426.356 C 258.899 426.356 258.931 426.324 258.931 426.285 L 258.931 426.277 C 258.931 426.238 258.899 426.206 258.86 426.206 L 251.505 426.206 C 251.466 426.206 251.434 426.238 251.434 426.277 Z " fill-rule="evenodd" fill="rgb(118,89,60)" fill-opacity="0.8256261488970589" />
                            </g>
                            <g id="Pen">
                                <path d=" M 251.741 429.118 L 251.889 428.029 C 252.364 427.853 252.716 428.082 252.769 428.601 L 251.823 429.172 Q 251.766 429.204 251.749 429.192 Q 251.731 429.181 251.741 429.118 Z " fill="rgb(255,204,128)" />
                                <path d=" M 253.767 425.137 L 254.648 425.709 L 252.769 428.601 C 252.533 428.264 252.181 428.036 251.889 428.029 L 253.767 425.137 Z " fill="rgb(66,165,245)" />
                                <rect x="253.698" y="424.835" width="1.35" height="0.675" transform="matrix(0.839,0.545,-0.545,0.839,272.664,-69.946)" fill="rgb(189,189,189)" />
                                <path d=" M 254.71 424.319 L 255.012 424.515 C 255.171 424.619 255.217 424.833 255.113 424.992 L 254.974 425.206 L 254.094 424.634 L 254.233 424.421 C 254.336 424.261 254.55 424.216 254.71 424.319 Z " fill="rgb(139,195,74)" />
                            </g>
                            <g id="Paint Pencil">
                                <path d=" M 258.508 429.245 Q 258.162 429.333 258.003 429.357 C 257.962 429.363 257.917 429.336 257.902 429.298 L 257.266 427.669 L 257.909 427.285 L 259.04 428.62 C 259.067 428.651 259.067 428.703 259.042 428.735 Q 258.93 428.875 258.704 429.126 C 258.66 429.176 258.572 429.229 258.508 429.245 Z " fill="rgb(121,85,72)" />
                                <path d=" M 256.727 426.751 Q 254.682 423.1 254.9 422.969 Q 255.119 422.839 257.372 426.383 C 257.233 426.618 256.991 426.746 256.727 426.751 Z " fill="rgb(136,14,79)" />
                                <path d=" M 256.727 426.751 C 256.959 426.714 257.201 426.587 257.372 426.383 L 257.909 427.285 C 257.744 427.477 257.504 427.62 257.266 427.669 L 256.727 426.751 Z " fill="rgb(235,235,235)" />
                            </g>
                        </g>
                        <path d=" M 249.185 419.212 L 249.185 421.096 C 249.185 421.4 249.432 421.647 249.736 421.647 L 260.63 421.647 C 260.933 421.647 261.18 421.4 261.18 421.096 L 261.18 419.212 C 261.18 418.908 260.933 418.662 260.63 418.662 L 249.736 418.662 C 249.432 418.662 249.185 418.908 249.185 419.212 Z " fill-rule="evenodd" fill="rgb(189,189,189)" />
                        <clipPath id="_clipPath_0CScaEfEXIhgrE7OM6f02joW2rP9VPmy">
                            <path d=" M 249.185 419.212 L 249.185 421.096 C 249.185 421.4 249.432 421.647 249.736 421.647 L 260.63 421.647 C 260.933 421.647 261.18 421.4 261.18 421.096 L 261.18 419.212 C 261.18 418.908 260.933 418.662 260.63 418.662 L 249.736 418.662 C 249.432 418.662 249.185 418.908 249.185 419.212 Z " fill-rule="evenodd" fill="rgb(255,255,255)" />
                        </clipPath>
                        <g clip-path="url(#_clipPath_0CScaEfEXIhgrE7OM6f02joW2rP9VPmy)">
                            <g id="Group">
                                <path d=" M 249.878 422.788 L 249.878 425.931 C 249.878 426.149 250.054 426.326 250.272 426.326 L 262.367 426.326 C 262.585 426.326 262.762 426.149 262.762 425.931 L 262.762 422.788 C 262.762 422.57 262.585 422.394 262.367 422.394 L 250.272 422.394 C 250.054 422.394 249.878 422.57 249.878 422.788 Z " fill-rule="evenodd" fill="rgb(0,150,136)" />
                                <path d=" M 249.878 423.403 L 249.878 426.09 C 249.878 426.309 250.055 426.487 250.274 426.487 L 262.365 426.487 C 262.584 426.487 262.762 426.309 262.762 426.09 L 262.762 423.403 C 262.762 423.184 262.584 423.006 262.365 423.006 L 250.274 423.006 C 250.055 423.006 249.878 423.184 249.878 423.403 Z " fill-rule="evenodd" fill="rgb(136,14,79)" />
                                <path d=" M 249.878 423.978 L 249.878 426.127 C 249.878 426.325 250.039 426.487 250.238 426.487 L 262.402 426.487 C 262.6 426.487 262.762 426.325 262.762 426.127 L 262.762 423.978 C 262.762 423.78 262.6 423.618 262.402 423.618 L 250.238 423.618 C 250.039 423.618 249.878 423.78 249.878 423.978 Z " fill-rule="evenodd" fill="rgb(255,193,7)" />
                                <path d=" M 249.878 424.565 L 249.878 426.168 C 249.878 426.344 250.02 426.487 250.196 426.487 L 262.444 426.487 C 262.619 426.487 262.762 426.344 262.762 426.168 L 262.762 424.565 C 262.762 424.389 262.619 424.247 262.444 424.247 L 250.196 424.247 C 250.02 424.247 249.878 424.389 249.878 424.565 Z " fill-rule="evenodd" fill="rgb(183,28,28)" />
                            </g>
                        </g>
                    </g>
                </g>
                <g id="Brackets">
                    <rect x="248.585" y="437.065" width="12.744" height="12.744" transform="matrix(1,0,0,1,0,0)" fill="rgb(25,118,210)" />
                    <path d=" M 250.549 438.28 L 259.365 438.28 C 259.779 438.28 260.115 438.616 260.115 439.029 L 260.115 447.845 C 260.115 448.259 259.779 448.595 259.365 448.595 L 250.549 448.595 C 250.135 448.595 249.799 448.259 249.799 447.845 L 249.799 439.029 C 249.799 438.616 250.135 438.28 250.549 438.28 Z " fill="rgb(238,238,238)" />
                    <g id="brackets">
                        <path d=" M 255.557 439.104 L 259.29 439.104 L 259.29 447.77 L 255.557 447.77 L 255.557 439.104 Z  M 255.557 440.804 L 257.59 440.804 L 257.59 446.071 L 255.557 446.071 L 255.557 440.804 Z " fill-rule="evenodd" fill="rgb(33,33,33)" />
                        <path d=" M 250.624 439.104 L 254.357 439.104 L 254.357 447.77 L 250.624 447.77 L 250.624 439.104 Z  M 252.324 440.804 L 254.357 440.804 L 254.357 446.071 L 252.324 446.071 L 252.324 440.804 Z " fill-rule="evenodd" fill="rgb(33,33,33)" />
                    </g>
                </g>
                <g id="Calendar">
                    <rect x="248.585" y="454.975" width="12.744" height="12.744" transform="matrix(1,0,0,1,0,0)" fill="rgb(33,33,33)" />
                    <g id="Calendar">
                        <path d=" M 249.624 459.772 L 259.494 458.15 L 260.759 465.83 L 250.828 467.473 L 249.624 459.772 Z " fill-rule="evenodd" fill="rgb(255,255,255)" />
                        <path d=" M 250.715 466.775 Q 254.257 466.445 256.051 466.145 Q 257.846 465.845 260.675 465.395 L 260.759 465.83 L 250.828 467.473 L 250.715 466.775 Z " fill-rule="evenodd" fill="rgb(200,199,199)" />
                        <path d=" M 249.629 459.807 L 249.155 456.775 L 259.012 455.221 L 259.505 458.219 L 249.629 459.807 Z " fill-rule="evenodd" fill="rgb(198,40,40)" />
                        <path d=" M 253.781 458.081 L 253.781 458.081 Q 253.802 458.112 253.808 458.144 L 253.808 458.144 L 253.808 458.144 Q 253.817 458.203 253.776 458.251 L 253.776 458.251 L 253.776 458.251 Q 253.736 458.3 253.675 458.309 L 253.675 458.309 L 253.675 458.309 Q 253.634 458.316 253.597 458.3 L 253.597 458.3 L 253.597 458.3 Q 253.56 458.284 253.534 458.245 L 253.534 458.245 L 253.425 458.078 L 252.85 458.17 L 252.797 458.362 L 252.797 458.362 Q 252.784 458.408 252.753 458.435 L 252.753 458.435 L 252.753 458.435 Q 252.721 458.462 252.68 458.468 L 252.68 458.468 L 252.68 458.468 Q 252.62 458.478 252.565 458.445 L 252.565 458.445 L 252.565 458.445 Q 252.509 458.412 252.5 458.353 L 252.5 458.353 L 252.5 458.353 Q 252.495 458.321 252.505 458.285 L 252.505 458.285 L 252.821 457.247 L 252.821 457.247 Q 252.836 457.195 252.877 457.162 L 252.877 457.162 L 252.877 457.162 Q 252.918 457.129 252.973 457.121 L 252.973 457.121 L 252.973 457.121 Q 253.027 457.112 253.077 457.131 L 253.077 457.131 L 253.077 457.131 Q 253.127 457.149 253.158 457.193 L 253.158 457.193 L 253.781 458.081 Z  M 253.035 457.483 L 252.921 457.907 L 253.276 457.85 L 253.035 457.483 Z  M 254.516 458.186 L 254.516 458.186 Q 254.244 458.23 254.08 458.114 L 254.08 458.114 L 254.08 458.114 Q 253.917 457.998 253.874 457.731 L 253.874 457.731 L 253.783 457.157 L 253.783 457.157 Q 253.771 457.084 253.808 457.034 L 253.808 457.034 L 253.808 457.034 Q 253.844 456.983 253.917 456.972 L 253.917 456.972 L 253.917 456.972 Q 253.99 456.96 254.04 456.997 L 254.04 456.997 L 254.04 456.997 Q 254.091 457.033 254.103 457.106 L 254.103 457.106 L 254.196 457.692 L 254.196 457.692 Q 254.218 457.827 254.29 457.891 L 254.29 457.891 L 254.29 457.891 Q 254.362 457.954 254.476 457.936 L 254.476 457.936 L 254.476 457.936 Q 254.589 457.917 254.638 457.835 L 254.638 457.835 L 254.638 457.835 Q 254.687 457.752 254.665 457.617 L 254.665 457.617 L 254.572 457.031 L 254.572 457.031 Q 254.56 456.958 254.597 456.908 L 254.597 456.908 L 254.597 456.908 Q 254.633 456.857 254.706 456.846 L 254.706 456.846 L 254.706 456.846 Q 254.779 456.834 254.83 456.871 L 254.83 456.871 L 254.83 456.871 Q 254.882 456.907 254.893 456.98 L 254.893 456.98 L 254.985 457.554 L 254.985 457.554 Q 255.027 457.818 254.906 457.981 L 254.906 457.981 L 254.906 457.981 Q 254.786 458.143 254.516 458.186 L 254.516 458.186 Z  M 256.157 457.182 L 256.157 457.182 Q 256.216 457.173 256.256 457.2 L 256.256 457.2 L 256.256 457.2 Q 256.296 457.228 256.304 457.283 L 256.304 457.283 L 256.354 457.592 L 256.354 457.592 Q 256.368 457.681 256.362 457.73 L 256.362 457.73 L 256.362 457.73 Q 256.356 457.779 256.326 457.811 L 256.326 457.811 L 256.326 457.811 Q 256.296 457.843 256.229 457.874 L 256.229 457.874 L 256.229 457.874 Q 256.163 457.903 256.08 457.926 L 256.08 457.926 L 256.08 457.926 Q 255.997 457.949 255.925 457.961 L 255.925 457.961 L 255.925 457.961 Q 255.72 457.994 255.558 457.94 L 255.558 457.94 L 255.558 457.94 Q 255.395 457.887 255.292 457.755 L 255.292 457.755 L 255.292 457.755 Q 255.189 457.623 255.157 457.424 L 255.157 457.424 L 255.157 457.424 Q 255.126 457.229 255.183 457.071 L 255.183 457.071 L 255.183 457.071 Q 255.24 456.913 255.375 456.812 L 255.375 456.812 L 255.375 456.812 Q 255.51 456.71 255.707 456.678 L 255.707 456.678 L 255.707 456.678 Q 255.831 456.659 255.934 456.672 L 255.934 456.672 L 255.934 456.672 Q 256.038 456.686 256.133 456.733 L 256.133 456.733 L 256.133 456.733 Q 256.166 456.749 256.184 456.772 L 256.184 456.772 L 256.184 456.772 Q 256.201 456.795 256.207 456.834 L 256.207 456.834 L 256.207 456.834 Q 256.216 456.889 256.192 456.932 L 256.192 456.932 L 256.192 456.932 Q 256.168 456.975 256.125 456.982 L 256.125 456.982 L 256.125 456.982 Q 256.097 456.986 256.075 456.981 L 256.075 456.981 L 256.075 456.981 Q 256.053 456.977 256.018 456.962 L 256.018 456.962 L 256.018 456.962 Q 255.947 456.937 255.886 456.93 L 255.886 456.93 L 255.886 456.93 Q 255.826 456.924 255.759 456.934 L 255.759 456.934 L 255.759 456.934 Q 255.59 456.961 255.522 457.069 L 255.522 457.069 L 255.522 457.069 Q 255.455 457.176 255.486 457.372 L 255.486 457.372 L 255.486 457.372 Q 255.518 457.572 255.62 457.655 L 255.62 457.655 L 255.62 457.655 Q 255.721 457.738 255.899 457.71 L 255.899 457.71 L 255.899 457.71 Q 255.984 457.696 256.065 457.665 L 256.065 457.665 L 256.028 457.433 L 255.9 457.453 L 255.9 457.453 Q 255.841 457.462 255.805 457.438 L 255.805 457.438 L 255.805 457.438 Q 255.768 457.414 255.759 457.361 L 255.759 457.361 L 255.759 457.361 Q 255.751 457.307 255.778 457.273 L 255.778 457.273 L 255.778 457.273 Q 255.805 457.239 255.864 457.229 L 255.864 457.229 L 256.157 457.182 Z " fill-rule="evenodd" fill="rgb(250,250,250)" />
                        <path d=" M 254.717 463.696 L 254.717 463.696 Q 254.952 463.659 255.081 463.734 L 255.081 463.734 L 255.081 463.734 Q 255.211 463.809 255.242 464.006 L 255.242 464.006 L 255.242 464.006 Q 255.275 464.208 255.175 464.323 L 255.175 464.323 L 255.175 464.323 Q 255.076 464.437 254.842 464.474 L 254.842 464.474 L 252.896 464.785 L 252.896 464.785 Q 252.704 464.816 252.574 464.719 L 252.574 464.719 L 252.574 464.719 Q 252.444 464.622 252.416 464.446 L 252.416 464.446 L 252.416 464.446 Q 252.379 464.217 252.53 464.002 L 252.53 464.002 L 253.472 462.643 L 253.472 462.643 Q 253.765 462.219 253.716 461.91 L 253.716 461.91 L 253.716 461.91 Q 253.687 461.729 253.568 461.65 L 253.568 461.65 L 253.568 461.65 Q 253.448 461.57 253.256 461.601 L 253.256 461.601 L 253.256 461.601 Q 253.102 461.626 252.979 461.692 L 252.979 461.692 L 252.979 461.692 Q 252.855 461.758 252.698 461.871 L 252.698 461.871 L 252.6 461.941 L 252.6 461.941 Q 252.581 461.955 252.525 461.999 L 252.525 461.999 L 252.525 461.999 Q 252.469 462.044 252.424 462.067 L 252.424 462.067 L 252.424 462.067 Q 252.378 462.091 252.325 462.1 L 252.325 462.1 L 252.325 462.1 Q 252.192 462.121 252.082 462.015 L 252.082 462.015 L 252.082 462.015 Q 251.972 461.91 251.946 461.745 L 251.946 461.745 L 251.946 461.745 Q 251.927 461.628 251.95 461.547 L 251.95 461.547 L 251.95 461.547 Q 251.972 461.467 252.058 461.388 L 252.058 461.388 L 252.058 461.388 Q 252.281 461.177 252.578 461.032 L 252.578 461.032 L 252.578 461.032 Q 252.874 460.886 253.178 460.837 L 253.178 460.837 L 253.178 460.837 Q 253.573 460.774 253.892 460.857 L 253.892 460.857 L 253.892 460.857 Q 254.211 460.94 254.413 461.157 L 254.413 461.157 L 254.413 461.157 Q 254.614 461.373 254.664 461.688 L 254.664 461.688 L 254.664 461.688 Q 254.716 462.013 254.628 462.303 L 254.628 462.303 L 254.628 462.303 Q 254.541 462.593 254.279 462.973 L 254.279 462.973 L 253.646 463.867 L 254.717 463.696 Z  M 256.922 461.622 L 256.922 461.622 Q 257.268 461.567 257.562 461.676 L 257.562 461.676 L 257.562 461.676 Q 257.855 461.784 258.051 462.035 L 258.051 462.035 L 258.051 462.035 Q 258.247 462.285 258.304 462.642 L 258.304 462.642 L 258.304 462.642 Q 258.365 463.026 258.231 463.348 L 258.231 463.348 L 258.231 463.348 Q 258.096 463.67 257.792 463.883 L 257.792 463.883 L 257.792 463.883 Q 257.487 464.095 257.055 464.164 L 257.055 464.164 L 257.055 464.164 Q 256.724 464.217 256.392 464.172 L 256.392 464.172 L 256.392 464.172 Q 256.06 464.127 255.803 463.993 L 255.803 463.993 L 255.803 463.993 Q 255.707 463.937 255.654 463.866 L 255.654 463.866 L 255.654 463.866 Q 255.602 463.795 255.585 463.689 L 255.585 463.689 L 255.585 463.689 Q 255.559 463.523 255.631 463.394 L 255.631 463.394 L 255.631 463.394 Q 255.703 463.265 255.837 463.244 L 255.837 463.244 L 255.837 463.244 Q 255.916 463.231 255.973 463.244 L 255.973 463.244 L 255.973 463.244 Q 256.03 463.257 256.146 463.298 L 256.146 463.298 L 256.261 463.335 L 256.261 463.335 Q 256.439 463.388 256.583 463.414 L 256.583 463.414 L 256.583 463.414 Q 256.726 463.441 256.886 463.415 L 256.886 463.415 L 256.886 463.415 Q 257.185 463.367 257.309 463.225 L 257.309 463.225 L 257.309 463.225 Q 257.434 463.082 257.393 462.826 L 257.393 462.826 L 257.393 462.826 Q 257.355 462.586 257.184 462.477 L 257.184 462.477 L 257.184 462.477 Q 257.014 462.367 256.747 462.41 L 256.747 462.41 L 256.747 462.41 Q 256.587 462.435 256.461 462.483 L 256.461 462.483 L 256.461 462.483 Q 256.335 462.53 256.17 462.628 L 256.17 462.628 L 256.17 462.628 Q 256.067 462.704 255.939 462.725 L 255.939 462.725 L 255.939 462.725 Q 255.79 462.748 255.675 462.677 L 255.675 462.677 L 255.675 462.677 Q 255.56 462.605 255.537 462.461 L 255.537 462.461 L 255.306 461.017 L 255.306 461.017 Q 255.27 460.793 255.369 460.657 L 255.369 460.657 L 255.369 460.657 Q 255.467 460.521 255.686 460.486 L 255.686 460.486 L 257.338 460.222 L 257.338 460.222 Q 257.802 460.148 257.86 460.516 L 257.86 460.516 L 257.86 460.516 Q 257.92 460.889 257.456 460.963 L 257.456 460.963 L 256.305 461.147 L 256.41 461.802 L 256.41 461.802 Q 256.618 461.671 256.922 461.622 L 256.922 461.622 Z " fill-rule="evenodd" fill="rgb(33,33,33)" />
                    </g>
                </g>
                <g id="Folder">
                    <path d=" M 248.585 472.885 L 248.585 485.629 L 261.329 485.629 L 261.329 472.885 L 248.585 472.885 Z " fill-rule="evenodd" fill="rgb(21,101,192)" />
                    <path d=" M 252.708 474.984 Q 251.565 474.964 248.585 474.973 L 248.585 477.818 L 261.329 477.818 L 261.329 477.008 Q 257.513 477.036 255.83 477.014 C 254.147 476.993 253.851 475.004 252.708 474.984 Z " fill-rule="evenodd" fill="rgb(30,136,229)" />
                    <path d=" M 252.468 475.449 Q 251.325 475.429 248.585 475.438 L 248.585 485.629 L 261.329 485.629 L 261.329 477.473 Q 257.288 477.501 255.605 477.479 C 253.922 477.458 253.611 475.469 252.468 475.449 Z " fill-rule="evenodd" fill="rgb(100,181,246)" />
                </g>
            </g>
        </g>
    </g>
</svg>