<?xml version="1.0" standalone="no"?>
<!-- Generator: Gravit.io -->
<svg xmlns="http://www.w3.org/2000/svg" xmlns:xlink="http://www.w3.org/1999/xlink" style="isolation:isolate" viewBox="0 0 1024 1024" width="1024" height="1024">
    <defs>
        <clipPath id="_clipPath_iAjLIummBzOddvwz3eVGLEtPFnzlEXGA">
            <rect width="1024" height="1024" />
        </clipPath>
    </defs>
    <g clip-path="url(#_clipPath_iAjLIummBzOddvwz3eVGLEtPFnzlEXGA)">
        <rect x="85.333" y="85.897" width="850" height="850" transform="matrix(1,0,0,1,0,0)" fill="rgb(144,164,174)" />
        <rect x="86" y="710" width="850" height="229.897" transform="matrix(1,0,0,1,0,0)" fill="rgb(84,110,122)" />
        <g id="iMac">
            <linearGradient id="_lgradient_6" x1="0%" y1="50%" x2="6.123233995736766e-15%" y2="150%">
                <stop offset="88.75149619999999%" stop-opacity="1" style="stop-color:rgb(196,194,194)" />
                <stop offset="92.50273649285315%" stop-opacity="1" style="stop-color:rgb(220,220,220)" />
                <stop offset="100%" stop-opacity="1" style="stop-color:rgb(219,219,219)" />
            </linearGradient>
            <path d=" M 576.843 734.294 L 584.83 791.011 C 585.295 794.319 582.968 797 579.624 797 L 436.821 797 C 433.48 797 431.15 794.316 431.616 791.011 L 439.602 734.294 L 576.843 734.294 Z " fill-rule="evenodd" fill="url(#_lgradient_6)" />
            <g id="upper">
                <linearGradient id="_lgradient_7" x1="0%" y1="50%" x2="6.123233995736766e-15%" y2="150%">
                    <stop offset="0%" stop-opacity="1" style="stop-color:rgb(25,25,25)" />
                    <stop offset="100%" stop-opacity="1" style="stop-color:rgb(7,7,7)" />
                </linearGradient>
                <path d=" M 172.027 247 C 163.682 247 156.918 253.763 156.918 262.104 L 156.918 670.077 L 867.082 670.077 L 867.082 262.104 C 867.082 253.762 860.324 247 851.973 247 L 172.027 247 Z " fill-rule="evenodd" fill="url(#_lgradient_7)" />
                <path d=" M 184.871 274.399 L 184.871 643.08 L 839.129 643.08 L 839.129 274.399 L 184.871 274.399 Z " fill-rule="evenodd" fill="rgb(74,20,140)" />
                <linearGradient id="_lgradient_8" x1="0%" y1="50%" x2="6.123233995736766e-15%" y2="150%">
                    <stop offset="0%" stop-opacity="1" style="stop-color:rgb(216,216,216)" />
                    <stop offset="100%" stop-opacity="1" style="stop-color:rgb(214,214,214)" />
                </linearGradient>
                <path d=" M 156.918 670.077 L 156.918 719.177 C 156.918 727.526 163.676 734.294 172.027 734.294 L 851.973 734.294 C 860.318 734.294 867.082 727.528 867.082 719.177 L 867.082 670.077 L 156.918 670.077 Z " fill-rule="evenodd" fill="url(#_lgradient_8)" />
            </g>
            <path d=" M 506.31 693.266 C 507.235 693.266 508.351 693.458 509.659 693.842 C 510.979 694.227 511.855 694.419 512.287 694.419 C 512.842 694.419 513.748 694.202 515.007 693.768 C 516.265 693.334 517.357 693.117 518.282 693.117 C 519.799 693.117 521.15 693.526 522.334 694.344 C 523 694.815 523.66 695.453 524.314 696.259 C 523.327 697.102 522.606 697.851 522.149 698.508 C 521.323 699.698 520.909 701.012 520.909 702.449 C 520.909 704.023 521.347 705.442 522.223 706.706 C 523.099 707.97 524.098 708.769 525.221 709.104 C 524.752 710.628 523.975 712.222 522.889 713.882 C 521.249 716.372 519.62 717.618 518.004 717.618 C 517.363 717.618 516.475 717.414 515.34 717.004 C 514.217 716.594 513.267 716.391 512.49 716.391 C 511.713 716.391 510.806 716.602 509.77 717.023 C 508.746 717.456 507.914 717.673 507.272 717.673 C 505.335 717.673 503.436 716.026 501.573 712.729 C 499.71 709.469 498.779 706.272 498.779 703.137 C 498.779 700.224 499.488 697.851 500.907 696.017 C 502.338 694.183 504.139 693.266 506.31 693.266 M 517.967 685.942 C 518.016 686.103 518.048 686.246 518.06 686.37 C 518.072 686.494 518.078 686.618 518.078 686.742 C 518.078 687.535 517.893 688.402 517.523 689.344 C 517.153 690.286 516.567 691.16 515.765 691.965 C 515.075 692.647 514.39 693.105 513.711 693.341 C 513.28 693.477 512.626 693.582 511.75 693.657 C 511.775 691.773 512.262 690.143 513.212 688.768 C 514.174 687.392 515.759 686.45 517.967 685.942" fill-rule="evenodd" fill="rgb(0,0,0)" />
            <g id="camera">
                <path d=" M 508.223 265.887 C 509.892 265.887 511.245 264.534 511.245 262.865 C 511.245 261.196 509.892 259.843 508.223 259.843 C 506.554 259.843 505.201 261.196 505.201 262.865 C 505.201 264.534 506.554 265.887 508.223 265.887 Z " fill-rule="evenodd" fill="rgb(20,20,20)" />
                <path d=" M 508.223 264.376 C 509.057 264.376 509.734 263.7 509.734 262.865 C 509.734 262.031 509.057 261.354 508.223 261.354 C 507.388 261.354 506.712 262.031 506.712 262.865 C 506.712 263.7 507.388 264.376 508.223 264.376 Z " fill-rule="evenodd" fill="rgb(25,14,55)" fill-opacity="0.695714614" />
            </g>
        </g>
        <g id="Ubuntu">
            <rect x="185.038" y="274.399" width="654.26" height="13" transform="matrix(1,0,0,1,0,0)" fill="rgb(171,71,188)" />
            <rect x="184.871" y="286.632" width="24" height="356.368" transform="matrix(1,0,0,1,0,0)" fill="rgb(156,39,176)" />
            <path d=" M 195.046 282.669 L 194.318 282.669 L 194.318 282.669 Q 194.201 282.36 194.098 282.061 L 194.098 282.061 L 194.098 282.061 Q 193.994 281.762 193.884 281.452 L 193.884 281.452 L 191.726 281.452 L 191.292 282.669 L 190.598 282.669 L 190.598 282.669 Q 190.873 281.913 191.114 281.27 L 191.114 281.27 L 191.114 281.27 Q 191.354 280.627 191.585 280.05 L 191.585 280.05 L 191.585 280.05 Q 191.815 279.472 192.042 278.946 L 192.042 278.946 L 192.042 278.946 Q 192.269 278.42 192.516 277.905 L 192.516 277.905 L 193.128 277.905 L 193.128 277.905 Q 193.376 278.42 193.603 278.946 L 193.603 278.946 L 193.603 278.946 Q 193.829 279.472 194.06 280.05 L 194.06 280.05 L 194.06 280.05 Q 194.29 280.627 194.531 281.27 L 194.531 281.27 L 194.531 281.27 Q 194.771 281.913 195.046 282.669 L 195.046 282.669 Z  M 191.918 280.902 L 193.692 280.902 L 193.692 280.902 Q 193.472 280.304 193.255 279.744 L 193.255 279.744 L 193.255 279.744 Q 193.039 279.184 192.805 278.668 L 192.805 278.668 L 192.805 278.668 Q 192.564 279.184 192.348 279.744 L 192.348 279.744 L 192.348 279.744 Q 192.131 280.304 191.918 280.902 L 191.918 280.902 Z  M 197.205 282.752 L 197.205 282.752 L 197.205 282.752 Q 196.772 282.752 196.446 282.614 L 196.446 282.614 L 196.446 282.614 Q 196.119 282.477 195.896 282.229 L 195.896 282.229 L 195.896 282.229 Q 195.672 281.982 195.562 281.642 L 195.562 281.642 L 195.562 281.642 Q 195.452 281.301 195.452 280.889 L 195.452 280.889 L 195.452 280.889 Q 195.452 280.476 195.572 280.132 L 195.572 280.132 L 195.572 280.132 Q 195.693 279.789 195.913 279.538 L 195.913 279.538 L 195.913 279.538 Q 196.133 279.287 196.452 279.146 L 196.452 279.146 L 196.452 279.146 Q 196.772 279.005 197.164 279.005 L 197.164 279.005 L 197.164 279.005 Q 197.405 279.005 197.645 279.046 L 197.645 279.046 L 197.645 279.046 Q 197.886 279.087 198.106 279.177 L 198.106 279.177 L 197.962 279.72 L 197.962 279.72 Q 197.817 279.651 197.628 279.61 L 197.628 279.61 L 197.628 279.61 Q 197.439 279.569 197.226 279.569 L 197.226 279.569 L 197.226 279.569 Q 196.69 279.569 196.404 279.905 L 196.404 279.905 L 196.404 279.905 Q 196.119 280.242 196.119 280.889 L 196.119 280.889 L 196.119 280.889 Q 196.119 281.177 196.184 281.418 L 196.184 281.418 L 196.184 281.418 Q 196.25 281.659 196.391 281.831 L 196.391 281.831 L 196.391 281.831 Q 196.532 282.002 196.752 282.095 L 196.752 282.095 L 196.752 282.095 Q 196.972 282.188 197.288 282.188 L 197.288 282.188 L 197.288 282.188 Q 197.542 282.188 197.748 282.14 L 197.748 282.14 L 197.748 282.14 Q 197.955 282.092 198.072 282.037 L 198.072 282.037 L 198.161 282.573 L 198.161 282.573 Q 198.106 282.608 198.003 282.638 L 198.003 282.638 L 198.003 282.638 Q 197.9 282.669 197.769 282.693 L 197.769 282.693 L 197.769 282.693 Q 197.638 282.718 197.491 282.735 L 197.491 282.735 L 197.491 282.735 Q 197.343 282.752 197.205 282.752 Z  M 199.447 277.987 L 199.447 279.094 L 200.801 279.094 L 200.801 279.63 L 199.447 279.63 L 199.447 281.281 L 199.447 281.281 Q 199.447 281.549 199.488 281.724 L 199.488 281.724 L 199.488 281.724 Q 199.529 281.899 199.612 281.999 L 199.612 281.999 L 199.612 281.999 Q 199.694 282.099 199.818 282.14 L 199.818 282.14 L 199.818 282.14 Q 199.942 282.181 200.107 282.181 L 200.107 282.181 L 200.107 282.181 Q 200.396 282.181 200.571 282.116 L 200.571 282.116 L 200.571 282.116 Q 200.746 282.051 200.815 282.023 L 200.815 282.023 L 200.939 282.553 L 200.939 282.553 Q 200.842 282.601 200.602 282.673 L 200.602 282.673 L 200.602 282.673 Q 200.361 282.745 200.052 282.745 L 200.052 282.745 L 200.052 282.745 Q 199.687 282.745 199.45 282.652 L 199.45 282.652 L 199.45 282.652 Q 199.213 282.559 199.069 282.374 L 199.069 282.374 L 199.069 282.374 Q 198.924 282.188 198.866 281.917 L 198.866 281.917 L 198.866 281.917 Q 198.807 281.645 198.807 281.287 L 198.807 281.287 L 198.807 278.097 L 199.447 277.987 Z  M 202.252 279.094 L 202.252 282.669 L 201.612 282.669 L 201.612 279.094 L 202.252 279.094 Z  M 201.929 278.448 L 201.929 278.448 L 201.929 278.448 Q 201.757 278.448 201.637 278.334 L 201.637 278.334 L 201.637 278.334 Q 201.516 278.221 201.516 278.028 L 201.516 278.028 L 201.516 278.028 Q 201.516 277.836 201.637 277.722 L 201.637 277.722 L 201.637 277.722 Q 201.757 277.609 201.929 277.609 L 201.929 277.609 L 201.929 277.609 Q 202.101 277.609 202.221 277.722 L 202.221 277.722 L 202.221 277.722 Q 202.341 277.836 202.341 278.028 L 202.341 278.028 L 202.341 278.028 Q 202.341 278.221 202.221 278.334 L 202.221 278.334 L 202.221 278.334 Q 202.101 278.448 201.929 278.448 Z  M 205.483 279.094 L 206.143 279.094 L 206.143 279.094 Q 205.875 280.098 205.514 281.019 L 205.514 281.019 L 205.514 281.019 Q 205.153 281.941 204.816 282.669 L 204.816 282.669 L 204.239 282.669 L 204.239 282.669 Q 203.902 281.941 203.541 281.019 L 203.541 281.019 L 203.541 281.019 Q 203.18 280.098 202.912 279.094 L 202.912 279.094 L 203.599 279.094 L 203.599 279.094 Q 203.682 279.431 203.795 279.813 L 203.795 279.813 L 203.795 279.813 Q 203.909 280.194 204.036 280.569 L 204.036 280.569 L 204.036 280.569 Q 204.163 280.944 204.294 281.294 L 204.294 281.294 L 204.294 281.294 Q 204.425 281.645 204.541 281.92 L 204.541 281.92 L 204.541 281.92 Q 204.658 281.645 204.789 281.294 L 204.789 281.294 L 204.789 281.294 Q 204.92 280.944 205.047 280.569 L 205.047 280.569 L 205.047 280.569 Q 205.174 280.194 205.287 279.813 L 205.287 279.813 L 205.287 279.813 Q 205.401 279.431 205.483 279.094 L 205.483 279.094 Z  M 207.443 279.094 L 207.443 282.669 L 206.803 282.669 L 206.803 279.094 L 207.443 279.094 Z  M 207.12 278.448 L 207.12 278.448 L 207.12 278.448 Q 206.948 278.448 206.828 278.334 L 206.828 278.334 L 206.828 278.334 Q 206.707 278.221 206.707 278.028 L 206.707 278.028 L 206.707 278.028 Q 206.707 277.836 206.828 277.722 L 206.828 277.722 L 206.828 277.722 Q 206.948 277.609 207.12 277.609 L 207.12 277.609 L 207.12 277.609 Q 207.292 277.609 207.412 277.722 L 207.412 277.722 L 207.412 277.722 Q 207.532 277.836 207.532 278.028 L 207.532 278.028 L 207.532 278.028 Q 207.532 278.221 207.412 278.334 L 207.412 278.334 L 207.412 278.334 Q 207.292 278.448 207.12 278.448 Z  M 209.141 277.987 L 209.141 279.094 L 210.496 279.094 L 210.496 279.63 L 209.141 279.63 L 209.141 281.281 L 209.141 281.281 Q 209.141 281.549 209.182 281.724 L 209.182 281.724 L 209.182 281.724 Q 209.224 281.899 209.306 281.999 L 209.306 281.999 L 209.306 281.999 Q 209.389 282.099 209.512 282.14 L 209.512 282.14 L 209.512 282.14 Q 209.636 282.181 209.801 282.181 L 209.801 282.181 L 209.801 282.181 Q 210.09 282.181 210.265 282.116 L 210.265 282.116 L 210.265 282.116 Q 210.441 282.051 210.509 282.023 L 210.509 282.023 L 210.633 282.553 L 210.633 282.553 Q 210.537 282.601 210.296 282.673 L 210.296 282.673 L 210.296 282.673 Q 210.056 282.745 209.746 282.745 L 209.746 282.745 L 209.746 282.745 Q 209.382 282.745 209.145 282.652 L 209.145 282.652 L 209.145 282.652 Q 208.907 282.559 208.763 282.374 L 208.763 282.374 L 208.763 282.374 Q 208.619 282.188 208.56 281.917 L 208.56 281.917 L 208.56 281.917 Q 208.502 281.645 208.502 281.287 L 208.502 281.287 L 208.502 278.097 L 209.141 277.987 Z  M 211.946 279.094 L 211.946 282.669 L 211.307 282.669 L 211.307 279.094 L 211.946 279.094 Z  M 211.623 278.448 L 211.623 278.448 L 211.623 278.448 Q 211.451 278.448 211.331 278.334 L 211.331 278.334 L 211.331 278.334 Q 211.211 278.221 211.211 278.028 L 211.211 278.028 L 211.211 278.028 Q 211.211 277.836 211.331 277.722 L 211.331 277.722 L 211.331 277.722 Q 211.451 277.609 211.623 277.609 L 211.623 277.609 L 211.623 277.609 Q 211.795 277.609 211.915 277.722 L 211.915 277.722 L 211.915 277.722 Q 212.036 277.836 212.036 278.028 L 212.036 278.028 L 212.036 278.028 Q 212.036 278.221 211.915 278.334 L 211.915 278.334 L 211.915 278.334 Q 211.795 278.448 211.623 278.448 Z  M 212.847 280.889 L 212.847 280.889 L 212.847 280.889 Q 212.847 280.414 212.985 280.06 L 212.985 280.06 L 212.985 280.06 Q 213.122 279.706 213.349 279.472 L 213.349 279.472 L 213.349 279.472 Q 213.576 279.239 213.871 279.122 L 213.871 279.122 L 213.871 279.122 Q 214.167 279.005 214.477 279.005 L 214.477 279.005 L 214.477 279.005 Q 215.198 279.005 215.583 279.455 L 215.583 279.455 L 215.583 279.455 Q 215.968 279.905 215.968 280.827 L 215.968 280.827 L 215.968 280.827 Q 215.968 280.868 215.968 280.933 L 215.968 280.933 L 215.968 280.933 Q 215.968 280.999 215.962 281.054 L 215.962 281.054 L 213.514 281.054 L 213.514 281.054 Q 213.555 281.611 213.837 281.899 L 213.837 281.899 L 213.837 281.899 Q 214.119 282.188 214.717 282.188 L 214.717 282.188 L 214.717 282.188 Q 215.054 282.188 215.284 282.13 L 215.284 282.13 L 215.284 282.13 Q 215.515 282.071 215.632 282.016 L 215.632 282.016 L 215.721 282.553 L 215.721 282.553 Q 215.604 282.614 215.312 282.683 L 215.312 282.683 L 215.312 282.683 Q 215.02 282.752 214.648 282.752 L 214.648 282.752 L 214.648 282.752 Q 214.181 282.752 213.841 282.611 L 213.841 282.611 L 213.841 282.611 Q 213.5 282.47 213.28 282.222 L 213.28 282.222 L 213.28 282.222 Q 213.06 281.975 212.954 281.635 L 212.954 281.635 L 212.954 281.635 Q 212.847 281.294 212.847 280.889 Z  M 213.528 280.538 L 215.302 280.538 L 215.302 280.538 Q 215.308 280.105 215.085 279.826 L 215.085 279.826 L 215.085 279.826 Q 214.862 279.548 214.47 279.548 L 214.47 279.548 L 214.47 279.548 Q 214.25 279.548 214.081 279.634 L 214.081 279.634 L 214.081 279.634 Q 213.913 279.72 213.796 279.857 L 213.796 279.857 L 213.796 279.857 Q 213.679 279.995 213.614 280.174 L 213.614 280.174 L 213.614 280.174 Q 213.548 280.352 213.528 280.538 L 213.528 280.538 Z  M 217.722 282.209 L 217.722 282.209 L 217.722 282.209 Q 218.114 282.209 218.303 282.106 L 218.303 282.106 L 218.303 282.106 Q 218.492 282.002 218.492 281.776 L 218.492 281.776 L 218.492 281.776 Q 218.492 281.542 218.306 281.404 L 218.306 281.404 L 218.306 281.404 Q 218.12 281.267 217.694 281.095 L 217.694 281.095 L 217.694 281.095 Q 217.488 281.012 217.299 280.926 L 217.299 280.926 L 217.299 280.926 Q 217.11 280.841 216.972 280.724 L 216.972 280.724 L 216.972 280.724 Q 216.835 280.607 216.752 280.442 L 216.752 280.442 L 216.752 280.442 Q 216.67 280.277 216.67 280.036 L 216.67 280.036 L 216.67 280.036 Q 216.67 279.562 217.02 279.283 L 217.02 279.283 L 217.02 279.283 Q 217.371 279.005 217.976 279.005 L 217.976 279.005 L 217.976 279.005 Q 218.127 279.005 218.279 279.022 L 218.279 279.022 L 218.279 279.022 Q 218.43 279.039 218.561 279.063 L 218.561 279.063 L 218.561 279.063 Q 218.691 279.087 218.791 279.115 L 218.791 279.115 L 218.791 279.115 Q 218.891 279.142 218.946 279.163 L 218.946 279.163 L 218.829 279.713 L 218.829 279.713 Q 218.726 279.658 218.506 279.599 L 218.506 279.599 L 218.506 279.599 Q 218.286 279.541 217.976 279.541 L 217.976 279.541 L 217.976 279.541 Q 217.708 279.541 217.509 279.648 L 217.509 279.648 L 217.509 279.648 Q 217.309 279.754 217.309 279.981 L 217.309 279.981 L 217.309 279.981 Q 217.309 280.098 217.354 280.187 L 217.354 280.187 L 217.354 280.187 Q 217.399 280.277 217.491 280.349 L 217.491 280.349 L 217.491 280.349 Q 217.584 280.421 217.722 280.483 L 217.722 280.483 L 217.722 280.483 Q 217.859 280.545 218.052 280.614 L 218.052 280.614 L 218.052 280.614 Q 218.306 280.71 218.506 280.803 L 218.506 280.803 L 218.506 280.803 Q 218.705 280.896 218.846 281.019 L 218.846 281.019 L 218.846 281.019 Q 218.987 281.143 219.062 281.318 L 219.062 281.318 L 219.062 281.318 Q 219.138 281.494 219.138 281.748 L 219.138 281.748 L 219.138 281.748 Q 219.138 282.243 218.77 282.498 L 218.77 282.498 L 218.77 282.498 Q 218.402 282.752 217.722 282.752 L 217.722 282.752 L 217.722 282.752 Q 217.247 282.752 216.979 282.673 L 216.979 282.673 L 216.979 282.673 Q 216.711 282.594 216.615 282.553 L 216.615 282.553 L 216.732 282.002 L 216.732 282.002 Q 216.842 282.044 217.082 282.126 L 217.082 282.126 L 217.082 282.126 Q 217.323 282.209 217.722 282.209 Z " fill-rule="evenodd" fill="rgb(250,250,250)" />
            <path d=" M 514.645 279.299 L 514.645 279.299 L 514.645 279.299 Q 514.645 279.534 514.55 279.751 L 514.55 279.751 L 514.55 279.751 Q 514.456 279.969 514.3 280.18 L 514.3 280.18 L 514.3 280.18 Q 514.144 280.392 513.949 280.597 L 513.949 280.597 L 513.949 280.597 Q 513.754 280.801 513.559 280.996 L 513.559 280.996 L 513.559 280.996 Q 513.448 281.107 513.302 281.257 L 513.302 281.257 L 513.302 281.257 Q 513.156 281.406 513.026 281.569 L 513.026 281.569 L 513.026 281.569 Q 512.896 281.731 512.808 281.881 L 512.808 281.881 L 512.808 281.881 Q 512.72 282.03 512.72 282.141 L 512.72 282.141 L 514.794 282.141 L 514.794 282.654 L 512.064 282.654 L 512.064 282.654 Q 512.057 282.615 512.057 282.576 L 512.057 282.576 L 512.057 282.576 Q 512.057 282.537 512.057 282.505 L 512.057 282.505 L 512.057 282.505 Q 512.057 282.199 512.158 281.936 L 512.158 281.936 L 512.158 281.936 Q 512.259 281.673 512.421 281.439 L 512.421 281.439 L 512.421 281.439 Q 512.584 281.204 512.785 280.996 L 512.785 280.996 L 512.785 280.996 Q 512.987 280.788 513.182 280.593 L 513.182 280.593 L 513.182 280.593 Q 513.344 280.437 513.491 280.285 L 513.491 280.285 L 513.491 280.285 Q 513.637 280.132 513.751 279.979 L 513.751 279.979 L 513.751 279.979 Q 513.864 279.826 513.933 279.664 L 513.933 279.664 L 513.933 279.664 Q 514.001 279.501 514.001 279.319 L 514.001 279.319 L 514.001 279.319 Q 514.001 279.124 513.939 278.987 L 513.939 278.987 L 513.939 278.987 Q 513.877 278.851 513.773 278.76 L 513.773 278.76 L 513.773 278.76 Q 513.669 278.669 513.53 278.627 L 513.53 278.627 L 513.53 278.627 Q 513.39 278.584 513.234 278.584 L 513.234 278.584 L 513.234 278.584 Q 513.045 278.584 512.889 278.636 L 512.889 278.636 L 512.889 278.636 Q 512.733 278.688 512.61 278.757 L 512.61 278.757 L 512.61 278.757 Q 512.486 278.825 512.402 278.9 L 512.402 278.9 L 512.402 278.9 Q 512.317 278.974 512.272 279.013 L 512.272 279.013 L 511.972 278.584 L 511.972 278.584 Q 512.031 278.519 512.148 278.425 L 512.148 278.425 L 512.148 278.425 Q 512.265 278.331 512.428 278.246 L 512.428 278.246 L 512.428 278.246 Q 512.59 278.162 512.792 278.103 L 512.792 278.103 L 512.792 278.103 Q 512.993 278.045 513.227 278.045 L 513.227 278.045 L 513.227 278.045 Q 513.936 278.045 514.29 278.373 L 514.29 278.373 L 514.29 278.373 Q 514.645 278.701 514.645 279.299 Z  M 515.6 280.398 L 515.6 280.398 L 515.6 280.398 Q 515.6 279.267 516 278.656 L 516 278.656 L 516 278.656 Q 516.4 278.045 517.109 278.045 L 517.109 278.045 L 517.109 278.045 Q 517.818 278.045 518.217 278.656 L 518.217 278.656 L 518.217 278.656 Q 518.617 279.267 518.617 280.398 L 518.617 280.398 L 518.617 280.398 Q 518.617 281.53 518.217 282.141 L 518.217 282.141 L 518.217 282.141 Q 517.818 282.752 517.109 282.752 L 517.109 282.752 L 517.109 282.752 Q 516.4 282.752 516 282.141 L 516 282.141 L 516 282.141 Q 515.6 281.53 515.6 280.398 Z  M 517.98 280.398 L 517.98 280.398 L 517.98 280.398 Q 517.98 280.028 517.938 279.696 L 517.938 279.696 L 517.938 279.696 Q 517.896 279.365 517.795 279.117 L 517.795 279.117 L 517.795 279.117 Q 517.694 278.87 517.525 278.724 L 517.525 278.724 L 517.525 278.724 Q 517.356 278.578 517.109 278.578 L 517.109 278.578 L 517.109 278.578 Q 516.862 278.578 516.693 278.724 L 516.693 278.724 L 516.693 278.724 Q 516.524 278.87 516.423 279.117 L 516.423 279.117 L 516.423 279.117 Q 516.322 279.365 516.28 279.696 L 516.28 279.696 L 516.28 279.696 Q 516.238 280.028 516.238 280.398 L 516.238 280.398 L 516.238 280.398 Q 516.238 280.769 516.28 281.1 L 516.28 281.1 L 516.28 281.1 Q 516.322 281.432 516.423 281.679 L 516.423 281.679 L 516.423 281.679 Q 516.524 281.926 516.693 282.072 L 516.693 282.072 L 516.693 282.072 Q 516.862 282.219 517.109 282.219 L 517.109 282.219 L 517.109 282.219 Q 517.356 282.219 517.525 282.072 L 517.525 282.072 L 517.525 282.072 Q 517.694 281.926 517.795 281.679 L 517.795 281.679 L 517.795 281.679 Q 517.896 281.432 517.938 281.1 L 517.938 281.1 L 517.938 281.1 Q 517.98 280.769 517.98 280.398 Z  M 520.178 282.303 L 520.178 282.303 L 520.178 282.303 Q 520.178 282.479 520.061 282.609 L 520.061 282.609 L 520.061 282.609 Q 519.944 282.739 519.742 282.739 L 519.742 282.739 L 519.742 282.739 Q 519.54 282.739 519.423 282.609 L 519.423 282.609 L 519.423 282.609 Q 519.306 282.479 519.306 282.303 L 519.306 282.303 L 519.306 282.303 Q 519.306 282.128 519.423 281.998 L 519.423 281.998 L 519.423 281.998 Q 519.54 281.868 519.742 281.868 L 519.742 281.868 L 519.742 281.868 Q 519.944 281.868 520.061 281.998 L 520.061 281.998 L 520.061 281.998 Q 520.178 282.128 520.178 282.303 Z  M 520.178 279.709 L 520.178 279.709 L 520.178 279.709 Q 520.178 279.885 520.061 280.015 L 520.061 280.015 L 520.061 280.015 Q 519.944 280.145 519.742 280.145 L 519.742 280.145 L 519.742 280.145 Q 519.54 280.145 519.423 280.015 L 519.423 280.015 L 519.423 280.015 Q 519.306 279.885 519.306 279.709 L 519.306 279.709 L 519.306 279.709 Q 519.306 279.534 519.423 279.404 L 519.423 279.404 L 519.423 279.404 Q 519.54 279.273 519.742 279.273 L 519.742 279.273 L 519.742 279.273 Q 519.944 279.273 520.061 279.404 L 520.061 279.404 L 520.061 279.404 Q 520.178 279.534 520.178 279.709 Z  M 522.011 282.212 L 522.011 282.212 L 522.011 282.212 Q 522.59 282.212 522.84 281.985 L 522.84 281.985 L 522.84 281.985 Q 523.09 281.757 523.09 281.374 L 523.09 281.374 L 523.09 281.374 Q 523.09 281.126 522.986 280.957 L 522.986 280.957 L 522.986 280.957 Q 522.882 280.788 522.713 280.688 L 522.713 280.688 L 522.713 280.688 Q 522.544 280.587 522.32 280.545 L 522.32 280.545 L 522.32 280.545 Q 522.096 280.502 521.862 280.502 L 521.862 280.502 L 521.706 280.502 L 521.706 280.008 L 521.92 280.008 L 521.92 280.008 Q 522.083 280.008 522.255 279.976 L 522.255 279.976 L 522.255 279.976 Q 522.427 279.943 522.57 279.859 L 522.57 279.859 L 522.57 279.859 Q 522.713 279.774 522.804 279.628 L 522.804 279.628 L 522.804 279.628 Q 522.895 279.482 522.895 279.26 L 522.895 279.26 L 522.895 279.26 Q 522.895 279.078 522.83 278.948 L 522.83 278.948 L 522.83 278.948 Q 522.765 278.818 522.658 278.734 L 522.658 278.734 L 522.658 278.734 Q 522.551 278.649 522.411 278.614 L 522.411 278.614 L 522.411 278.614 Q 522.271 278.578 522.115 278.578 L 522.115 278.578 L 522.115 278.578 Q 521.803 278.578 521.585 278.669 L 521.585 278.669 L 521.585 278.669 Q 521.367 278.76 521.218 278.857 L 521.218 278.857 L 520.984 278.396 L 520.984 278.396 Q 521.062 278.344 521.182 278.282 L 521.182 278.282 L 521.182 278.282 Q 521.302 278.22 521.452 278.168 L 521.452 278.168 L 521.452 278.168 Q 521.602 278.116 521.774 278.08 L 521.774 278.08 L 521.774 278.08 Q 521.946 278.045 522.135 278.045 L 522.135 278.045 L 522.135 278.045 Q 522.492 278.045 522.752 278.132 L 522.752 278.132 L 522.752 278.132 Q 523.012 278.22 523.181 278.38 L 523.181 278.38 L 523.181 278.38 Q 523.35 278.539 523.435 278.757 L 523.435 278.757 L 523.435 278.757 Q 523.52 278.974 523.52 279.228 L 523.52 279.228 L 523.52 279.228 Q 523.52 279.579 523.318 279.829 L 523.318 279.829 L 523.318 279.829 Q 523.116 280.08 522.83 280.21 L 522.83 280.21 L 522.83 280.21 Q 523.006 280.262 523.168 280.359 L 523.168 280.359 L 523.168 280.359 Q 523.331 280.457 523.451 280.606 L 523.451 280.606 L 523.451 280.606 Q 523.572 280.756 523.646 280.951 L 523.646 280.951 L 523.646 280.951 Q 523.721 281.146 523.721 281.387 L 523.721 281.387 L 523.721 281.387 Q 523.721 281.679 523.62 281.929 L 523.62 281.929 L 523.62 281.929 Q 523.52 282.18 523.308 282.362 L 523.308 282.362 L 523.308 282.362 Q 523.097 282.544 522.778 282.648 L 522.778 282.648 L 522.778 282.648 Q 522.46 282.752 522.024 282.752 L 522.024 282.752 L 522.024 282.752 Q 521.855 282.752 521.676 282.726 L 521.676 282.726 L 521.676 282.726 Q 521.498 282.7 521.341 282.661 L 521.341 282.661 L 521.341 282.661 Q 521.185 282.622 521.068 282.583 L 521.068 282.583 L 521.068 282.583 Q 520.951 282.544 520.899 282.518 L 520.899 282.518 L 521.016 281.991 L 521.016 281.991 Q 521.127 282.043 521.384 282.128 L 521.384 282.128 L 521.384 282.128 Q 521.641 282.212 522.011 282.212 Z  M 524.534 280.398 L 524.534 280.398 L 524.534 280.398 Q 524.534 279.267 524.934 278.656 L 524.934 278.656 L 524.934 278.656 Q 525.334 278.045 526.042 278.045 L 526.042 278.045 L 526.042 278.045 Q 526.751 278.045 527.151 278.656 L 527.151 278.656 L 527.151 278.656 Q 527.551 279.267 527.551 280.398 L 527.551 280.398 L 527.551 280.398 Q 527.551 281.53 527.151 282.141 L 527.151 282.141 L 527.151 282.141 Q 526.751 282.752 526.042 282.752 L 526.042 282.752 L 526.042 282.752 Q 525.334 282.752 524.934 282.141 L 524.934 282.141 L 524.934 282.141 Q 524.534 281.53 524.534 280.398 Z  M 526.913 280.398 L 526.913 280.398 L 526.913 280.398 Q 526.913 280.028 526.871 279.696 L 526.871 279.696 L 526.871 279.696 Q 526.829 279.365 526.728 279.117 L 526.728 279.117 L 526.728 279.117 Q 526.627 278.87 526.458 278.724 L 526.458 278.724 L 526.458 278.724 Q 526.289 278.578 526.042 278.578 L 526.042 278.578 L 526.042 278.578 Q 525.795 278.578 525.626 278.724 L 525.626 278.724 L 525.626 278.724 Q 525.457 278.87 525.356 279.117 L 525.356 279.117 L 525.356 279.117 Q 525.255 279.365 525.213 279.696 L 525.213 279.696 L 525.213 279.696 Q 525.171 280.028 525.171 280.398 L 525.171 280.398 L 525.171 280.398 Q 525.171 280.769 525.213 281.1 L 525.213 281.1 L 525.213 281.1 Q 525.255 281.432 525.356 281.679 L 525.356 281.679 L 525.356 281.679 Q 525.457 281.926 525.626 282.072 L 525.626 282.072 L 525.626 282.072 Q 525.795 282.219 526.042 282.219 L 526.042 282.219 L 526.042 282.219 Q 526.289 282.219 526.458 282.072 L 526.458 282.072 L 526.458 282.072 Q 526.627 281.926 526.728 281.679 L 526.728 281.679 L 526.728 281.679 Q 526.829 281.432 526.871 281.1 L 526.871 281.1 L 526.871 281.1 Q 526.913 280.769 526.913 280.398 Z  M 499.626 279.599 L 499.626 279.599 L 499.626 279.599 Q 499.353 280.47 499.073 281.211 L 499.073 281.211 L 499.073 281.211 Q 498.794 281.952 498.514 282.654 L 498.514 282.654 L 497.883 282.654 L 497.883 282.654 Q 497.539 281.66 497.275 280.554 L 497.275 280.554 L 497.275 280.554 Q 497.012 279.449 496.784 278.149 L 496.784 278.149 L 497.448 278.149 L 497.448 278.149 Q 497.539 278.656 497.636 279.163 L 497.636 279.163 L 497.636 279.163 Q 497.734 279.67 497.838 280.148 L 497.838 280.148 L 497.838 280.148 Q 497.942 280.626 498.046 281.061 L 498.046 281.061 L 498.046 281.061 Q 498.15 281.497 498.26 281.868 L 498.26 281.868 L 498.26 281.868 Q 498.52 281.185 498.813 280.369 L 498.813 280.369 L 498.813 280.369 Q 499.106 279.553 499.359 278.682 L 499.359 278.682 L 499.905 278.682 L 499.905 278.682 Q 500.159 279.553 500.458 280.369 L 500.458 280.369 L 500.458 280.369 Q 500.757 281.185 501.017 281.868 L 501.017 281.868 L 501.017 281.868 Q 501.121 281.504 501.225 281.068 L 501.225 281.068 L 501.225 281.068 Q 501.329 280.632 501.43 280.154 L 501.43 280.154 L 501.43 280.154 Q 501.531 279.677 501.628 279.166 L 501.628 279.166 L 501.628 279.166 Q 501.726 278.656 501.817 278.149 L 501.817 278.149 L 502.46 278.149 L 502.46 278.149 Q 502.226 279.449 501.963 280.554 L 501.963 280.554 L 501.963 280.554 Q 501.7 281.66 501.362 282.654 L 501.362 282.654 L 500.731 282.654 L 500.731 282.654 Q 500.445 281.952 500.172 281.211 L 500.172 281.211 L 500.172 281.211 Q 499.899 280.47 499.626 279.599 Z  M 502.974 280.97 L 502.974 280.97 L 502.974 280.97 Q 502.974 280.522 503.104 280.187 L 503.104 280.187 L 503.104 280.187 Q 503.234 279.852 503.449 279.631 L 503.449 279.631 L 503.449 279.631 Q 503.663 279.41 503.943 279.299 L 503.943 279.299 L 503.943 279.299 Q 504.222 279.189 504.515 279.189 L 504.515 279.189 L 504.515 279.189 Q 505.198 279.189 505.562 279.615 L 505.562 279.615 L 505.562 279.615 Q 505.926 280.041 505.926 280.912 L 505.926 280.912 L 505.926 280.912 Q 505.926 280.951 505.926 281.013 L 505.926 281.013 L 505.926 281.013 Q 505.926 281.074 505.919 281.126 L 505.919 281.126 L 503.605 281.126 L 503.605 281.126 Q 503.644 281.653 503.91 281.926 L 503.91 281.926 L 503.91 281.926 Q 504.177 282.199 504.743 282.199 L 504.743 282.199 L 504.743 282.199 Q 505.061 282.199 505.279 282.144 L 505.279 282.144 L 505.279 282.144 Q 505.497 282.089 505.607 282.037 L 505.607 282.037 L 505.692 282.544 L 505.692 282.544 Q 505.581 282.602 505.305 282.667 L 505.305 282.667 L 505.305 282.667 Q 505.029 282.732 504.678 282.732 L 504.678 282.732 L 504.678 282.732 Q 504.235 282.732 503.914 282.599 L 503.914 282.599 L 503.914 282.599 Q 503.592 282.466 503.384 282.232 L 503.384 282.232 L 503.384 282.232 Q 503.176 281.998 503.075 281.676 L 503.075 281.676 L 503.075 281.676 Q 502.974 281.354 502.974 280.97 Z  M 503.618 280.639 L 505.295 280.639 L 505.295 280.639 Q 505.302 280.229 505.09 279.966 L 505.09 279.966 L 505.09 279.966 Q 504.879 279.703 504.509 279.703 L 504.509 279.703 L 504.509 279.703 Q 504.3 279.703 504.141 279.784 L 504.141 279.784 L 504.141 279.784 Q 503.982 279.865 503.871 279.995 L 503.871 279.995 L 503.871 279.995 Q 503.761 280.125 503.699 280.294 L 503.699 280.294 L 503.699 280.294 Q 503.637 280.463 503.618 280.639 L 503.618 280.639 Z  M 508.982 282.128 L 508.982 279.989 L 508.982 279.989 Q 508.871 279.898 508.663 279.813 L 508.663 279.813 L 508.663 279.813 Q 508.455 279.729 508.208 279.729 L 508.208 279.729 L 508.208 279.729 Q 507.948 279.729 507.763 279.823 L 507.763 279.823 L 507.763 279.823 Q 507.577 279.917 507.46 280.083 L 507.46 280.083 L 507.46 280.083 Q 507.343 280.249 507.291 280.476 L 507.291 280.476 L 507.291 280.476 Q 507.239 280.704 507.239 280.964 L 507.239 280.964 L 507.239 280.964 Q 507.239 281.556 507.532 281.877 L 507.532 281.877 L 507.532 281.877 Q 507.824 282.199 508.312 282.199 L 508.312 282.199 L 508.312 282.199 Q 508.559 282.199 508.725 282.177 L 508.725 282.177 L 508.725 282.177 Q 508.891 282.154 508.982 282.128 L 508.982 282.128 Z  M 508.982 279.423 L 508.982 277.713 L 509.586 277.609 L 509.586 282.557 L 509.586 282.557 Q 509.378 282.615 509.053 282.674 L 509.053 282.674 L 509.053 282.674 Q 508.728 282.732 508.306 282.732 L 508.306 282.732 L 508.306 282.732 Q 507.915 282.732 507.603 282.609 L 507.603 282.609 L 507.603 282.609 Q 507.291 282.485 507.07 282.258 L 507.07 282.258 L 507.07 282.258 Q 506.849 282.03 506.729 281.702 L 506.729 281.702 L 506.729 281.702 Q 506.609 281.374 506.609 280.964 L 506.609 280.964 L 506.609 280.964 Q 506.609 280.574 506.709 280.249 L 506.709 280.249 L 506.709 280.249 Q 506.81 279.924 507.005 279.69 L 507.005 279.69 L 507.005 279.69 Q 507.2 279.456 507.483 279.326 L 507.483 279.326 L 507.483 279.326 Q 507.766 279.195 508.13 279.195 L 508.13 279.195 L 508.13 279.195 Q 508.423 279.195 508.647 279.273 L 508.647 279.273 L 508.647 279.273 Q 508.871 279.352 508.982 279.423 L 508.982 279.423 Z " fill-rule="evenodd" fill="rgb(250,250,250)" />
            <polygon points="823.368,282.538,819.026,278.252,827.709,278.252" fill="rgb(235,235,235)" />
            <g id="shutdown">
                <line x1="812.495" y1="278.038" x2="812.495" y2="280.283" vector-effect="non-scaling-stroke" stroke-width="0.589" stroke="rgb(250,250,250)" stroke-linejoin="round" stroke-linecap="round" stroke-miterlimit="10" />
                <path d=" M 813.618 278.318 C 814.347 278.722 814.852 279.497 814.852 280.395 C 814.852 281.697 813.797 282.752 812.495 282.752 C 811.193 282.752 810.138 281.697 810.138 280.395 C 810.138 279.497 810.632 278.722 811.373 278.318" fill="none" vector-effect="non-scaling-stroke" stroke-width="0.589" stroke="rgb(250,250,250)" stroke-linejoin="round" stroke-linecap="round" stroke-miterlimit="10" />
            </g>
            <path d=" M 805.299 278.677 L 805.071 278.906 C 805.629 279.294 805.962 279.928 805.962 280.609 C 805.962 281.29 805.629 281.924 805.071 282.313 L 805.299 282.543 C 805.915 282.092 806.281 281.376 806.281 280.61 C 806.28 279.843 805.915 279.128 805.299 278.677 L 805.299 278.677 Z  M 804.159 279.818 L 803.886 280.09 C 804.172 280.09 804.405 280.323 804.405 280.609 C 804.405 280.895 804.172 281.128 803.886 281.128 L 804.159 281.4 C 804.497 281.284 804.723 280.965 804.724 280.608 C 804.724 280.243 804.487 279.931 804.159 279.818 L 804.159 279.818 Z  M 804.725 279.251 L 804.491 279.485 C 804.906 279.707 805.164 280.14 805.163 280.61 C 805.163 281.084 804.906 281.511 804.491 281.735 L 804.725 281.969 C 805.196 281.68 805.482 281.172 805.482 280.612 C 805.482 280.049 805.194 279.541 804.725 279.251 L 804.725 279.251 Z  M 800.454 279.412 L 801.411 279.412 L 801.411 281.807 L 800.454 281.807 L 800.454 279.412 Z  M 801.571 281.854 L 803.326 283.609 L 803.326 277.609 L 801.571 279.366 L 801.571 281.854 L 801.571 281.854 Z " fill="rgb(235,235,235)" />
            <g id="Apps">
                <g id="more apps">
                    <path d=" M 188.832 628.996 C 188.832 627.995 189.644 627.183 190.644 627.183 C 191.644 627.183 192.456 627.995 192.456 628.996 C 192.456 629.996 191.644 630.808 190.644 630.808 C 189.644 630.808 188.832 629.996 188.832 628.996 Z " fill="rgb(250,250,250)" />
                    <path d=" M 194.5 628.996 C 194.5 627.995 195.312 627.183 196.312 627.183 C 197.313 627.183 198.125 627.995 198.125 628.996 C 198.125 629.996 197.313 630.808 196.312 630.808 C 195.312 630.808 194.5 629.996 194.5 628.996 Z " fill="rgb(250,250,250)" />
                    <path d=" M 200.66 629.086 C 200.66 628.086 201.472 627.274 202.472 627.274 C 203.472 627.274 204.284 628.086 204.284 629.086 C 204.284 630.086 203.472 630.899 202.472 630.899 C 201.472 630.899 200.66 630.086 200.66 629.086 Z " fill="rgb(250,250,250)" />
                    <path d=" M 188.395 634.991 C 188.395 633.991 189.207 633.179 190.207 633.179 C 191.208 633.179 192.02 633.991 192.02 634.991 C 192.02 635.991 191.208 636.803 190.207 636.803 C 189.207 636.803 188.395 635.991 188.395 634.991 Z " fill="rgb(250,250,250)" />
                    <path d=" M 194.527 634.991 C 194.527 633.991 195.339 633.179 196.34 633.179 C 197.34 633.179 198.152 633.991 198.152 634.991 C 198.152 635.991 197.34 636.803 196.34 636.803 C 195.339 636.803 194.527 635.991 194.527 634.991 Z " fill="rgb(250,250,250)" />
                    <path d=" M 200.66 634.991 C 200.66 633.991 201.472 633.179 202.472 633.179 C 203.472 633.179 204.284 633.991 204.284 634.991 C 204.284 635.991 203.472 636.803 202.472 636.803 C 201.472 636.803 200.66 635.991 200.66 634.991 Z " fill="rgb(250,250,250)" />
                    <path d=" M 200.687 623 C 200.687 622 201.499 621.188 202.499 621.188 C 203.499 621.188 204.311 622 204.311 623 C 204.311 624 203.499 624.812 202.499 624.812 C 201.499 624.812 200.687 624 200.687 623 Z " fill="rgb(250,250,250)" />
                    <path d=" M 194.527 623 C 194.527 622 195.339 621.188 196.34 621.188 C 197.34 621.188 198.152 622 198.152 623 C 198.152 624 197.34 624.812 196.34 624.812 C 195.339 624.812 194.527 624 194.527 623 Z " fill="rgb(250,250,250)" />
                    <path d=" M 188.859 623 C 188.859 622 189.671 621.188 190.671 621.188 C 191.671 621.188 192.483 622 192.483 623 C 192.483 624 191.671 624.812 190.671 624.812 C 189.671 624.812 188.859 624 188.859 623 Z " fill="rgb(250,250,250)" />
                </g>
                <clipPath id="_clipPath_h86s5UqejqAqMiSol0cnsu23T0oJCLDk">
                    <rect x="187.36" y="290.01" width="17.987" height="17.987" transform="matrix(1,0,0,1,0,0)" fill="rgb(255,255,255)" />
                </clipPath>
                <g clip-path="url(#_clipPath_h86s5UqejqAqMiSol0cnsu23T0oJCLDk)">
                    <g id="Group">
                        <rect x="188.888" y="291.539" width="14.93" height="14.93" transform="matrix(1,0,0,1,0,0)" fill="rgb(30,136,229)" />
                        <g id="firefox-quantum">
                            <path d=" M 200.284 293.643 C 199.963 294.016 199.814 294.856 200.139 295.708 C 200.464 296.559 200.963 296.374 201.273 297.243 C 201.683 298.389 201.492 299.928 201.492 299.928 C 201.492 299.928 201.985 301.356 202.329 299.84 C 203.089 296.992 200.284 294.344 200.284 293.643 Z " fill="rgb(255,152,0)" />
                            <path d=" M 196.372 305.465 C 199.655 305.465 202.315 302.791 202.315 299.494 C 202.315 296.197 199.655 293.522 196.375 293.522 C 193.095 293.522 190.435 296.197 190.435 299.494 C 190.429 302.794 193.092 305.465 196.372 305.465 Z " fill="rgb(21,101,192)" />
                            <path d=" M 200.825 303.176 C 200.696 303.267 200.562 303.348 200.421 303.419 C 200.607 303.148 200.778 302.866 200.934 302.576 C 201.061 302.436 201.177 302.3 201.271 302.153 C 201.317 302.08 201.369 301.991 201.424 301.887 C 201.758 301.286 202.126 300.313 202.136 299.314 L 202.136 299.312 C 202.136 299.287 202.137 299.263 202.136 299.238 C 202.138 298.987 202.113 298.737 202.06 298.492 C 202.063 298.511 202.065 298.53 202.067 298.549 C 202.064 298.534 202.062 298.519 202.059 298.505 C 202.064 298.532 202.068 298.558 202.072 298.585 C 202.14 299.163 202.091 299.728 201.849 300.144 C 201.845 300.15 201.841 300.156 201.837 300.161 C 201.963 299.529 202.005 298.831 201.865 298.132 C 201.865 298.132 201.809 297.792 201.391 296.76 C 201.151 296.167 200.724 295.68 200.347 295.325 C 200.016 294.916 199.716 294.642 199.551 294.467 C 199.205 294.103 199.06 293.831 199.001 293.653 C 198.949 293.627 198.289 292.986 198.237 292.961 C 197.949 293.408 197.043 294.804 197.474 296.109 C 197.669 296.701 198.163 297.315 198.68 297.659 C 198.702 297.685 198.987 297.994 199.123 298.692 C 199.263 299.413 199.189 299.975 198.901 300.807 C 198.563 301.537 197.695 302.258 196.883 302.332 C 195.147 302.49 194.512 301.46 194.512 301.46 C 195.132 301.708 195.818 301.656 196.235 301.399 C 196.655 301.139 196.91 300.946 197.116 301.022 C 197.32 301.098 197.482 300.878 197.336 300.651 C 197.107 300.297 196.688 300.115 196.273 300.188 C 195.852 300.256 195.467 300.59 194.915 300.267 C 194.88 300.246 194.845 300.223 194.812 300.199 C 194.776 300.175 194.93 300.235 194.894 300.208 C 194.787 300.15 194.597 300.023 194.548 299.978 C 194.539 299.97 194.631 300.007 194.623 299.999 C 194.107 299.575 194.172 299.288 194.188 299.108 C 194.201 298.964 194.294 298.78 194.452 298.705 C 194.528 298.746 194.576 298.778 194.576 298.778 C 194.576 298.778 194.543 298.712 194.526 298.677 C 194.532 298.674 194.538 298.675 194.544 298.672 C 194.606 298.702 194.744 298.781 194.817 298.828 C 194.912 298.895 194.942 298.955 194.942 298.955 C 194.942 298.955 194.967 298.941 194.949 298.883 C 194.942 298.859 194.913 298.783 194.819 298.706 L 194.825 298.707 C 194.881 298.739 194.934 298.776 194.984 298.817 C 195.01 298.721 195.058 298.621 195.048 298.441 C 195.041 298.315 195.044 298.282 195.022 298.234 C 195.002 298.192 195.033 298.175 195.068 298.219 C 195.062 298.185 195.052 298.152 195.038 298.12 L 195.038 298.117 C 195.082 297.966 195.952 297.575 196.015 297.529 C 196.12 297.455 196.207 297.361 196.272 297.251 C 196.32 297.173 196.356 297.065 196.365 296.901 C 196.37 296.783 196.315 296.704 195.435 296.612 C 195.194 296.588 195.053 296.413 194.972 296.253 C 194.958 296.218 194.943 296.186 194.928 296.155 C 194.914 296.118 194.902 296.081 194.894 296.042 C 195.038 295.629 195.279 295.279 195.635 295.015 C 195.654 294.998 195.558 295.02 195.577 295.002 C 195.6 294.982 195.747 294.922 195.775 294.909 C 195.809 294.893 195.629 294.816 195.471 294.835 C 195.309 294.853 195.275 294.872 195.188 294.909 C 195.224 294.873 195.338 294.827 195.311 294.827 C 195.137 294.854 194.921 294.955 194.736 295.07 C 194.735 295.05 194.739 295.03 194.747 295.011 C 194.661 295.048 194.449 295.196 194.387 295.321 C 194.39 295.297 194.391 295.273 194.391 295.249 C 194.325 295.304 194.266 295.366 194.214 295.434 L 194.211 295.437 C 193.711 295.235 193.271 295.222 192.898 295.313 C 192.817 295.231 192.777 295.291 192.591 294.883 C 192.579 294.859 192.601 294.908 192.591 294.883 C 192.561 294.804 192.61 294.989 192.591 294.883 C 192.28 295.129 191.87 295.408 191.673 295.605 C 191.67 295.613 191.902 295.539 191.673 295.605 C 191.592 295.628 191.598 295.676 191.585 296.107 C 191.583 296.14 191.585 296.176 191.582 296.206 C 191.425 296.406 191.318 296.576 191.278 296.664 C 191.074 297.014 190.85 297.561 190.633 298.425 C 190.729 298.191 190.844 297.965 190.978 297.75 C 190.798 298.209 190.623 298.929 190.588 300.039 C 190.632 299.81 190.688 299.583 190.756 299.36 C 190.713 300.281 190.872 301.2 191.221 302.052 C 191.346 302.358 191.553 302.822 191.904 303.33 C 193.009 304.492 194.568 305.216 196.293 305.216 C 198.095 305.216 199.713 304.428 200.825 303.176 Z " fill="rgb(13,71,161)" />
                            <path d=" M 199.492 304.02 C 201.672 303.768 202.637 301.521 201.398 301.477 C 200.278 301.441 198.459 304.139 199.492 304.02 Z " fill="rgb(211,47,47)" />
                            <path d=" M 201.555 301.018 C 203.055 300.145 202.664 298.259 202.664 298.259 C 202.664 298.259 202.085 298.931 201.692 300.003 C 201.303 301.065 200.653 301.545 201.555 301.018 Z " fill="rgb(229,57,53)" />
                            <path d=" M 196.792 305.136 C 198.884 305.804 200.681 304.156 199.573 303.606 C 198.566 303.109 195.8 304.821 196.792 305.136 Z " fill="rgb(198,40,40)" />
                            <path d=" M 201.711 301.818 C 201.762 301.747 201.83 301.517 201.891 301.414 C 202.26 300.818 202.263 300.343 202.263 300.332 C 202.486 299.217 202.466 298.763 202.329 297.921 C 202.218 297.244 201.735 296.273 201.317 295.806 C 200.886 295.324 201.19 295.481 200.772 295.13 C 200.406 294.724 200.052 294.322 199.858 294.161 C 198.462 292.994 198.494 292.746 198.521 292.704 C 198.516 292.709 198.51 292.716 198.501 292.726 C 198.484 292.66 198.473 292.604 198.473 292.604 C 198.473 292.604 197.71 293.367 197.549 294.639 C 197.444 295.47 197.755 296.335 198.205 296.888 C 198.439 297.175 198.704 297.435 198.995 297.665 L 198.995 297.665 C 199.335 298.153 199.522 298.756 199.522 299.404 C 199.522 301.027 198.206 302.343 196.581 302.343 C 196.36 302.343 196.139 302.318 195.924 302.269 C 195.157 302.123 194.715 301.736 194.494 301.474 C 194.368 301.324 194.314 301.214 194.314 301.214 C 195 301.46 195.76 301.408 196.221 301.153 C 196.687 300.896 196.968 300.704 197.196 300.78 C 197.422 300.855 197.601 300.637 197.44 300.411 C 197.282 300.186 196.872 299.863 196.264 299.952 C 195.798 300.02 195.371 300.35 194.761 300.03 C 194.722 300.01 194.683 299.987 194.646 299.963 C 194.606 299.939 194.777 299.999 194.737 299.972 C 194.619 299.914 194.408 299.788 194.354 299.744 C 194.345 299.736 194.446 299.773 194.437 299.765 C 193.866 299.344 193.937 299.06 193.955 298.881 C 193.97 298.738 194.073 298.556 194.248 298.481 C 194.332 298.523 194.385 298.554 194.385 298.554 C 194.385 298.554 194.349 298.488 194.329 298.454 C 194.336 298.451 194.343 298.452 194.35 298.449 C 194.419 298.479 194.571 298.557 194.652 298.604 C 194.757 298.67 194.79 298.729 194.79 298.729 C 194.79 298.729 194.818 298.716 194.797 298.658 C 194.79 298.634 194.758 298.559 194.654 298.483 L 194.661 298.484 C 194.722 298.515 194.781 298.552 194.837 298.593 C 194.866 298.498 194.919 298.398 194.907 298.22 C 194.9 298.095 194.903 298.062 194.879 298.014 C 194.856 297.973 194.891 297.956 194.929 298 C 194.923 297.965 194.912 297.932 194.896 297.901 L 194.897 297.898 C 194.945 297.749 195.908 297.361 195.978 297.315 C 196.091 297.244 196.188 297.15 196.262 297.039 C 196.315 296.963 196.356 296.855 196.365 296.693 C 196.369 296.619 196.346 296.561 196.091 296.506 C 195.938 296.472 195.701 296.44 195.335 296.406 C 195.069 296.382 194.913 296.209 194.824 296.049 C 194.808 296.015 194.791 295.984 194.775 295.953 C 194.759 295.917 194.746 295.879 194.737 295.841 C 194.896 295.423 195.183 295.067 195.557 294.822 C 195.578 294.805 195.471 294.827 195.493 294.809 C 195.518 294.789 195.681 294.73 195.712 294.717 C 195.75 294.701 195.551 294.625 195.375 294.644 C 195.196 294.662 195.158 294.681 195.063 294.717 C 195.102 294.682 195.228 294.635 195.199 294.636 C 195.006 294.662 194.766 294.763 194.562 294.876 C 194.561 294.856 194.565 294.837 194.574 294.819 C 194.479 294.855 194.244 295.002 194.176 295.126 C 194.179 295.102 194.18 295.078 194.18 295.054 C 194.108 295.108 194.042 295.169 193.984 295.238 L 193.981 295.241 C 193.427 295.041 192.94 295.028 192.528 295.117 C 192.438 295.036 192.293 294.914 192.088 294.51 C 192.074 294.485 192.066 294.56 192.055 294.536 C 191.976 294.351 191.927 294.048 191.935 293.839 C 191.935 293.839 191.771 293.914 191.634 294.228 C 191.609 294.284 191.592 294.316 191.576 294.347 C 191.569 294.356 191.593 294.244 191.589 294.25 C 191.565 294.29 191.504 294.346 191.477 294.419 C 191.459 294.473 191.433 294.503 191.416 294.57 L 191.412 294.576 C 191.411 294.556 191.417 294.495 191.413 294.507 C 191.349 294.636 191.293 294.77 191.248 294.907 C 191.174 295.148 191.089 295.477 191.075 295.905 C 191.072 295.937 191.075 295.974 191.072 296.003 C 190.898 296.202 190.779 296.37 190.734 296.457 C 190.509 296.805 190.261 297.347 190.021 298.204 C 190.128 297.97 190.256 297.746 190.403 297.535 C 190.203 297.99 190.01 298.704 189.971 299.804 C 190.02 299.577 190.082 299.352 190.157 299.132 C 190.123 299.865 190.208 300.775 190.672 301.801 C 190.947 302.405 191.581 303.631 193.13 304.587 L 193.13 304.587 C 193.13 304.587 193.657 304.98 194.563 305.274 C 194.63 305.298 194.698 305.322 194.767 305.345 C 194.745 305.336 194.724 305.327 194.704 305.318 C 195.307 305.498 195.933 305.59 196.562 305.591 C 198.907 305.593 199.599 304.651 199.599 304.651 C 199.599 304.651 199.596 304.653 199.592 304.656 Q 199.642 304.609 199.688 304.559 C 199.318 304.908 198.473 304.931 198.157 304.906 C 198.696 304.748 199.05 304.614 199.74 304.35 Q 199.861 304.305 199.987 304.248 C 199.996 304.244 200.005 304.24 200.014 304.235 C 200.031 304.228 200.048 304.22 200.065 304.212 C 200.4 304.054 200.716 303.856 201.005 303.623 C 201.697 303.07 201.848 302.531 201.927 302.176 C 201.916 302.21 201.882 302.289 201.858 302.341 C 201.679 302.722 201.284 302.956 200.855 303.157 C 201.059 302.889 201.248 302.61 201.422 302.321 C 201.562 302.182 201.606 301.964 201.711 301.818 Z " fill="rgb(230,81,0)" />
                            <path d=" M 200.868 303.14 C 201.15 302.829 201.404 302.473 201.596 302.07 C 202.09 301.031 202.854 299.304 202.252 297.5 C 201.777 296.075 201.124 295.295 200.295 294.534 C 198.949 293.297 198.573 292.745 198.573 292.417 C 198.573 292.417 197.019 294.149 197.693 295.956 C 198.367 297.763 199.747 297.697 200.661 299.583 C 201.735 301.802 199.791 304.223 198.183 304.901 C 198.282 304.879 201.757 304.093 201.94 302.105 C 201.936 302.141 201.858 302.691 200.868 303.14 Z " fill="rgb(255,152,0)" />
                            <path d=" M 196.365 296.693 C 196.371 296.575 196.31 296.496 195.339 296.405 C 194.939 296.368 194.786 295.999 194.74 295.844 C 194.598 296.213 194.539 296.6 194.571 297.068 C 194.592 297.375 194.798 297.705 194.897 297.898 C 194.897 297.898 194.919 297.87 194.929 297.859 C 195.114 297.666 195.892 297.371 195.965 297.33 C 196.045 297.279 196.352 297.055 196.365 296.693 Z " fill="rgb(255,143,0)" />
                            <path d=" M 192.091 294.512 C 192.077 294.487 192.069 294.562 192.059 294.538 C 191.979 294.353 191.931 294.053 191.942 293.841 C 191.942 293.841 191.777 293.917 191.641 294.23 C 191.615 294.287 191.599 294.318 191.583 294.349 C 191.575 294.358 191.6 294.246 191.596 294.252 C 191.572 294.292 191.511 294.348 191.484 294.418 C 191.462 294.475 191.439 294.505 191.422 294.575 C 191.417 294.595 191.428 294.491 191.423 294.503 C 191.106 295.117 191.045 296.045 191.078 296.005 C 191.754 295.284 192.529 295.113 192.529 295.113 C 192.446 295.052 192.267 294.877 192.091 294.512 L 192.091 294.512 Z " fill="rgb(211,47,47)" />
                            <path d=" M 200.866 303.149 C 202.26 301.78 202.966 300.116 202.668 298.249 C 202.668 298.249 202.787 299.206 202.335 300.185 C 202.552 299.229 202.577 298.042 202.001 296.812 C 201.231 295.17 199.965 294.306 199.482 293.946 C 198.749 293.399 198.446 292.843 198.44 292.729 C 198.222 293.177 197.56 294.713 198.369 296.036 C 199.128 297.275 200.322 297.643 201.158 298.779 C 202.699 300.874 200.866 303.149 200.866 303.149 Z " fill="rgb(253,216,53)" />
                            <path d=" M 200.666 299.587 C 200.179 298.58 199.57 298.141 198.995 297.665 C 199.062 297.759 199.078 297.792 199.115 297.852 C 199.622 298.392 200.369 299.709 199.826 301.361 C 198.806 304.472 194.724 303.007 194.296 302.596 C 194.469 304.397 197.483 305.258 199.445 304.09 C 200.561 303.034 201.465 301.237 200.666 299.587 Z " fill="rgb(255,111,0)" />
                        </g>
                    </g>
                </g>
                <clipPath id="_clipPath_j3ywRpRLZgSTfhSNNNhFIx447zD9fmcd">
                    <rect x="187.66" y="313.993" width="17.987" height="17.987" transform="matrix(1,0,0,1,0,0)" fill="rgb(255,255,255)" />
                </clipPath>
                <g clip-path="url(#_clipPath_j3ywRpRLZgSTfhSNNNhFIx447zD9fmcd)">
                    <g id="Group">
                        <g id="App Store 2">
                            <rect x="189.188" y="315.521" width="14.93" height="14.93" transform="matrix(1,0,0,1,0,0)" fill="rgb(235,235,235)" />
                            <g id="Accessories">
                                <g id="Ruler">
                                    <path d=" M 191.91 324.437 L 191.91 326.186 L 201.396 326.186 L 201.396 324.437 L 191.91 324.437 Z " fill-rule="evenodd" fill="rgb(139,104,69)" fill-opacity="0.8369715073529411" />
                                    <path d=" M 192.262 324.864 L 192.262 324.874 C 192.262 324.92 192.299 324.957 192.345 324.957 L 200.961 324.957 C 201.007 324.957 201.044 324.92 201.044 324.874 L 201.044 324.864 C 201.044 324.818 201.007 324.781 200.961 324.781 L 192.345 324.781 C 192.299 324.781 192.262 324.818 192.262 324.864 Z " fill-rule="evenodd" fill="rgb(118,89,60)" fill-opacity="0.8256261488970589" />
                                </g>
                                <g id="Pen">
                                    <path d=" M 192.621 328.193 L 192.795 326.917 C 193.35 326.71 193.763 326.978 193.826 327.587 L 192.717 328.255 Q 192.65 328.293 192.63 328.279 Q 192.61 328.266 192.621 328.193 Z " fill="rgb(255,204,128)" />
                                    <path d=" M 194.995 323.529 L 196.026 324.198 L 193.826 327.587 C 193.549 327.192 193.136 326.925 192.795 326.917 L 194.995 323.529 Z " fill="rgb(66,165,245)" />
                                    <rect x="194.913" y="323.175" width="1.582" height="0.791" transform="matrix(0.839,0.545,-0.545,0.839,207.848,-54.385)" fill="rgb(189,189,189)" />
                                    <path d=" M 196.099 322.57 L 196.453 322.8 C 196.64 322.921 196.693 323.172 196.571 323.359 L 196.409 323.609 L 195.378 322.939 L 195.54 322.689 C 195.662 322.502 195.912 322.449 196.099 322.57 Z " fill="rgb(139,195,74)" />
                                </g>
                                <g id="Paint Pencil">
                                    <path d=" M 200.548 328.341 Q 200.144 328.444 199.958 328.472 C 199.91 328.479 199.856 328.448 199.839 328.403 L 199.093 326.494 L 199.848 326.045 L 201.172 327.608 C 201.203 327.645 201.204 327.706 201.174 327.744 Q 201.044 327.908 200.779 328.202 C 200.727 328.26 200.624 328.322 200.548 328.341 Z " fill="rgb(121,85,72)" />
                                    <path d=" M 198.462 325.42 Q 196.066 321.142 196.322 320.989 Q 196.579 320.836 199.218 324.989 C 199.055 325.264 198.772 325.413 198.462 325.42 Z " fill="rgb(136,14,79)" />
                                    <path d=" M 198.462 325.42 C 198.734 325.376 199.017 325.227 199.218 324.989 L 199.848 326.045 C 199.654 326.269 199.373 326.437 199.093 326.494 L 198.462 325.42 Z " fill="rgb(235,235,235)" />
                                </g>
                            </g>
                            <path d=" M 189.627 316.587 L 189.627 318.795 C 189.627 319.15 189.916 319.439 190.272 319.439 L 203.034 319.439 C 203.39 319.439 203.679 319.15 203.679 318.795 L 203.679 316.587 C 203.679 316.231 203.39 315.942 203.034 315.942 L 190.272 315.942 C 189.916 315.942 189.627 316.231 189.627 316.587 Z " fill-rule="evenodd" fill="rgb(189,189,189)" />
                            <clipPath id="_clipPath_FCCPRcmEdEsmhBCRqGZDUoKp4K8XBRmO">
                                <path d=" M 189.627 316.587 L 189.627 318.795 C 189.627 319.15 189.916 319.439 190.272 319.439 L 203.034 319.439 C 203.39 319.439 203.679 319.15 203.679 318.795 L 203.679 316.587 C 203.679 316.231 203.39 315.942 203.034 315.942 L 190.272 315.942 C 189.916 315.942 189.627 316.231 189.627 316.587 Z " fill-rule="evenodd" fill="rgb(255,255,255)" />
                            </clipPath>
                            <g clip-path="url(#_clipPath_FCCPRcmEdEsmhBCRqGZDUoKp4K8XBRmO)">
                                <g id="Group">
                                    <path d=" M 190.211 316.788 L 190.211 319.931 C 190.211 320.149 190.388 320.326 190.605 320.326 L 202.701 320.326 C 202.918 320.326 203.095 320.149 203.095 319.931 L 203.095 316.788 C 203.095 316.57 202.918 316.394 202.701 316.394 L 190.605 316.394 C 190.388 316.394 190.211 316.57 190.211 316.788 Z " fill-rule="evenodd" fill="rgb(0,150,136)" />
                                    <path d=" M 190.211 317.403 L 190.211 320.09 C 190.211 320.309 190.389 320.487 190.608 320.487 L 202.698 320.487 C 202.917 320.487 203.095 320.309 203.095 320.09 L 203.095 317.403 C 203.095 317.184 202.917 317.006 202.698 317.006 L 190.608 317.006 C 190.389 317.006 190.211 317.184 190.211 317.403 Z " fill-rule="evenodd" fill="rgb(136,14,79)" />
                                    <path d=" M 190.211 317.978 L 190.211 320.127 C 190.211 320.325 190.372 320.487 190.571 320.487 L 202.735 320.487 C 202.934 320.487 203.095 320.325 203.095 320.127 L 203.095 317.978 C 203.095 317.78 202.934 317.618 202.735 317.618 L 190.571 317.618 C 190.372 317.618 190.211 317.78 190.211 317.978 Z " fill-rule="evenodd" fill="rgb(255,193,7)" />
                                    <path d=" M 190.211 318.565 L 190.211 320.168 C 190.211 320.344 190.354 320.487 190.529 320.487 L 202.777 320.487 C 202.953 320.487 203.095 320.344 203.095 320.168 L 203.095 318.565 C 203.095 318.389 202.953 318.247 202.777 318.247 L 190.529 318.247 C 190.354 318.247 190.211 318.389 190.211 318.565 Z " fill-rule="evenodd" fill="rgb(183,28,28)" />
                                </g>
                            </g>
                        </g>
                    </g>
                </g>
                <clipPath id="_clipPath_FGCfpa8KKsDmY3HZ2RhV7L09BSNAQjk5">
                    <rect x="188.395" y="337.975" width="17.987" height="17.987" transform="matrix(1,0,0,1,0,0)" fill="rgb(255,255,255)" />
                </clipPath>
                <g clip-path="url(#_clipPath_FGCfpa8KKsDmY3HZ2RhV7L09BSNAQjk5)">
                    <g id="Group">
                        <rect x="189.923" y="339.503" width="14.93" height="14.93" transform="matrix(1,0,0,1,0,0)" fill="rgb(25,118,210)" />
                        <path d=" M 192.224 340.926 L 202.553 340.926 C 203.037 340.926 203.431 341.319 203.431 341.804 L 203.431 352.132 C 203.431 352.617 203.037 353.011 202.553 353.011 L 192.224 353.011 C 191.74 353.011 191.346 352.617 191.346 352.132 L 191.346 341.804 C 191.346 341.319 191.74 340.926 192.224 340.926 Z " fill="rgb(238,238,238)" />
                        <g id="brackets">
                            <path d=" M 198.091 341.892 L 202.465 341.892 L 202.465 352.044 L 198.091 352.044 L 198.091 341.892 Z  M 198.091 343.883 L 200.473 343.883 L 200.473 350.053 L 198.091 350.053 L 198.091 343.883 Z " fill-rule="evenodd" fill="rgb(33,33,33)" />
                            <path d=" M 192.312 341.892 L 196.686 341.892 L 196.686 352.044 L 192.312 352.044 L 192.312 341.892 Z  M 194.304 343.883 L 196.686 343.883 L 196.686 350.053 L 194.304 350.053 L 194.304 343.883 Z " fill-rule="evenodd" fill="rgb(33,33,33)" />
                        </g>
                    </g>
                </g>
                <clipPath id="_clipPath_G2IMoL9VVWRBKnO02yIZdODw0iwJ2NKl">
                    <rect x="188.395" y="361.957" width="17.987" height="17.987" transform="matrix(1,0,0,1,0,0)" fill="rgb(255,255,255)" />
                </clipPath>
                <g clip-path="url(#_clipPath_G2IMoL9VVWRBKnO02yIZdODw0iwJ2NKl)">
                    <g id="Group">
                        <rect x="189.923" y="363.485" width="14.93" height="14.93" transform="matrix(1,0,0,1,0,0)" fill="rgb(33,33,33)" />
                        <g id="Calendar">
                            <path d=" M 191.14 369.105 L 202.704 367.204 L 204.186 376.202 L 192.551 378.127 L 191.14 369.105 Z " fill-rule="evenodd" fill="rgb(255,255,255)" />
                            <path d=" M 192.419 377.309 Q 196.569 376.922 198.671 376.571 Q 200.773 376.22 204.088 375.693 L 204.186 376.202 L 192.551 378.127 L 192.419 377.309 Z " fill-rule="evenodd" fill="rgb(200,199,199)" />
                            <path d=" M 191.147 369.146 L 190.591 365.594 L 202.139 363.774 L 202.717 367.286 L 191.147 369.146 Z " fill-rule="evenodd" fill="rgb(198,40,40)" />
                            <path d=" M 196.011 367.124 L 196.011 367.124 Q 196.036 367.161 196.042 367.198 L 196.042 367.198 L 196.042 367.198 Q 196.053 367.267 196.005 367.323 L 196.005 367.323 L 196.005 367.323 Q 195.958 367.38 195.887 367.391 L 195.887 367.391 L 195.887 367.391 Q 195.839 367.399 195.796 367.38 L 195.796 367.38 L 195.796 367.38 Q 195.752 367.362 195.721 367.315 L 195.721 367.315 L 195.594 367.12 L 194.92 367.228 L 194.857 367.453 L 194.857 367.453 Q 194.843 367.507 194.806 367.539 L 194.806 367.539 L 194.806 367.539 Q 194.769 367.57 194.722 367.578 L 194.722 367.578 L 194.722 367.578 Q 194.651 367.589 194.586 367.55 L 194.586 367.55 L 194.586 367.55 Q 194.521 367.511 194.51 367.443 L 194.51 367.443 L 194.51 367.443 Q 194.504 367.405 194.516 367.363 L 194.516 367.363 L 194.886 366.147 L 194.886 366.147 Q 194.904 366.086 194.952 366.048 L 194.952 366.048 L 194.952 366.048 Q 195 366.009 195.065 365.999 L 195.065 365.999 L 195.065 365.999 Q 195.127 365.989 195.186 366.01 L 195.186 366.01 L 195.186 366.01 Q 195.245 366.032 195.281 366.084 L 195.281 366.084 L 196.011 367.124 Z  M 195.137 366.423 L 195.003 366.92 L 195.419 366.854 L 195.137 366.423 Z  M 196.872 367.247 L 196.872 367.247 Q 196.553 367.298 196.362 367.162 L 196.362 367.162 L 196.362 367.162 Q 196.17 367.026 196.12 366.714 L 196.12 366.714 L 196.013 366.041 L 196.013 366.041 Q 195.999 365.956 196.042 365.897 L 196.042 365.897 L 196.042 365.897 Q 196.085 365.838 196.17 365.824 L 196.17 365.824 L 196.17 365.824 Q 196.256 365.811 196.315 365.853 L 196.315 365.853 L 196.315 365.853 Q 196.374 365.896 196.388 365.982 L 196.388 365.982 L 196.497 366.668 L 196.497 366.668 Q 196.523 366.827 196.607 366.901 L 196.607 366.901 L 196.607 366.901 Q 196.691 366.975 196.825 366.953 L 196.825 366.953 L 196.825 366.953 Q 196.958 366.932 197.015 366.836 L 197.015 366.836 L 197.015 366.836 Q 197.072 366.739 197.047 366.581 L 197.047 366.581 L 196.937 365.894 L 196.937 365.894 Q 196.923 365.808 196.966 365.749 L 196.966 365.749 L 196.966 365.749 Q 197.009 365.69 197.095 365.677 L 197.095 365.677 L 197.095 365.677 Q 197.18 365.663 197.24 365.706 L 197.24 365.706 L 197.24 365.706 Q 197.3 365.748 197.314 365.834 L 197.314 365.834 L 197.421 366.506 L 197.421 366.506 Q 197.471 366.816 197.329 367.006 L 197.329 367.006 L 197.329 367.006 Q 197.188 367.196 196.872 367.247 L 196.872 367.247 Z  M 198.795 366.071 L 198.795 366.071 Q 198.863 366.06 198.91 366.092 L 198.91 366.092 L 198.91 366.092 Q 198.957 366.124 198.967 366.188 L 198.967 366.188 L 199.025 366.551 L 199.025 366.551 Q 199.042 366.655 199.035 366.712 L 199.035 366.712 L 199.035 366.712 Q 199.028 366.77 198.992 366.808 L 198.992 366.808 L 198.992 366.808 Q 198.957 366.845 198.879 366.881 L 198.879 366.881 L 198.879 366.881 Q 198.802 366.915 198.704 366.942 L 198.704 366.942 L 198.704 366.942 Q 198.607 366.97 198.522 366.983 L 198.522 366.983 L 198.522 366.983 Q 198.283 367.021 198.092 366.959 L 198.092 366.959 L 198.092 366.959 Q 197.902 366.897 197.781 366.742 L 197.781 366.742 L 197.781 366.742 Q 197.661 366.587 197.623 366.354 L 197.623 366.354 L 197.623 366.354 Q 197.587 366.125 197.653 365.941 L 197.653 365.941 L 197.653 365.941 Q 197.72 365.756 197.878 365.637 L 197.878 365.637 L 197.878 365.637 Q 198.036 365.518 198.267 365.481 L 198.267 365.481 L 198.267 365.481 Q 198.413 365.457 198.534 365.473 L 198.534 365.473 L 198.534 365.473 Q 198.655 365.489 198.766 365.544 L 198.766 365.544 L 198.766 365.544 Q 198.805 365.563 198.826 365.59 L 198.826 365.59 L 198.826 365.59 Q 198.846 365.617 198.853 365.662 L 198.853 365.662 L 198.853 365.662 Q 198.864 365.727 198.835 365.777 L 198.835 365.777 L 198.835 365.777 Q 198.807 365.828 198.757 365.836 L 198.757 365.836 L 198.757 365.836 Q 198.724 365.841 198.698 365.835 L 198.698 365.835 L 198.698 365.835 Q 198.673 365.83 198.632 365.813 L 198.632 365.813 L 198.632 365.813 Q 198.548 365.784 198.478 365.776 L 198.478 365.776 L 198.478 365.776 Q 198.407 365.768 198.328 365.78 L 198.328 365.78 L 198.328 365.78 Q 198.13 365.812 198.051 365.938 L 198.051 365.938 L 198.051 365.938 Q 197.972 366.064 198.008 366.293 L 198.008 366.293 L 198.008 366.293 Q 198.046 366.528 198.165 366.625 L 198.165 366.625 L 198.165 366.625 Q 198.284 366.722 198.492 366.689 L 198.492 366.689 L 198.492 366.689 Q 198.592 366.673 198.687 366.637 L 198.687 366.637 L 198.643 366.364 L 198.493 366.388 L 198.493 366.388 Q 198.424 366.399 198.382 366.371 L 198.382 366.371 L 198.382 366.371 Q 198.339 366.342 198.329 366.28 L 198.329 366.28 L 198.329 366.28 Q 198.319 366.217 198.351 366.177 L 198.351 366.177 L 198.351 366.177 Q 198.383 366.137 198.451 366.126 L 198.451 366.126 L 198.795 366.071 Z " fill-rule="evenodd" fill="rgb(250,250,250)" />
                            <path d=" M 197.108 373.702 L 197.108 373.702 Q 197.382 373.658 197.534 373.746 L 197.534 373.746 L 197.534 373.746 Q 197.686 373.834 197.723 374.065 L 197.723 374.065 L 197.723 374.065 Q 197.761 374.302 197.644 374.436 L 197.644 374.436 L 197.644 374.436 Q 197.528 374.57 197.253 374.614 L 197.253 374.614 L 194.974 374.978 L 194.974 374.978 Q 194.749 375.014 194.597 374.901 L 194.597 374.901 L 194.597 374.901 Q 194.444 374.787 194.411 374.581 L 194.411 374.581 L 194.411 374.581 Q 194.368 374.313 194.546 374.06 L 194.546 374.06 L 195.649 372.469 L 195.649 372.469 Q 195.992 371.972 195.935 371.61 L 195.935 371.61 L 195.935 371.61 Q 195.901 371.398 195.761 371.305 L 195.761 371.305 L 195.761 371.305 Q 195.621 371.212 195.396 371.248 L 195.396 371.248 L 195.396 371.248 Q 195.215 371.277 195.071 371.354 L 195.071 371.354 L 195.071 371.354 Q 194.926 371.432 194.742 371.563 L 194.742 371.563 L 194.628 371.646 L 194.628 371.646 Q 194.605 371.662 194.539 371.714 L 194.539 371.714 L 194.539 371.714 Q 194.474 371.766 194.421 371.794 L 194.421 371.794 L 194.421 371.794 Q 194.367 371.822 194.305 371.832 L 194.305 371.832 L 194.305 371.832 Q 194.149 371.857 194.02 371.733 L 194.02 371.733 L 194.02 371.733 Q 193.892 371.61 193.861 371.416 L 193.861 371.416 L 193.861 371.416 Q 193.839 371.279 193.865 371.185 L 193.865 371.185 L 193.865 371.185 Q 193.892 371.091 193.993 370.998 L 193.993 370.998 L 193.993 370.998 Q 194.254 370.751 194.601 370.581 L 194.601 370.581 L 194.601 370.581 Q 194.949 370.41 195.305 370.353 L 195.305 370.353 L 195.305 370.353 Q 195.767 370.279 196.141 370.376 L 196.141 370.376 L 196.141 370.376 Q 196.515 370.473 196.751 370.727 L 196.751 370.727 L 196.751 370.727 Q 196.987 370.981 197.045 371.349 L 197.045 371.349 L 197.045 371.349 Q 197.106 371.73 197.004 372.07 L 197.004 372.07 L 197.004 372.07 Q 196.901 372.41 196.595 372.856 L 196.595 372.856 L 195.853 373.903 L 197.108 373.702 Z  M 199.691 371.272 L 199.691 371.272 Q 200.097 371.207 200.44 371.335 L 200.44 371.335 L 200.44 371.335 Q 200.784 371.463 201.013 371.756 L 201.013 371.756 L 201.013 371.756 Q 201.243 372.049 201.31 372.467 L 201.31 372.467 L 201.31 372.467 Q 201.381 372.917 201.224 373.294 L 201.224 373.294 L 201.224 373.294 Q 201.067 373.672 200.709 373.921 L 200.709 373.921 L 200.709 373.921 Q 200.352 374.17 199.846 374.251 L 199.846 374.251 L 199.846 374.251 Q 199.459 374.313 199.07 374.26 L 199.07 374.26 L 199.07 374.26 Q 198.68 374.206 198.38 374.05 L 198.38 374.05 L 198.38 374.05 Q 198.267 373.984 198.206 373.901 L 198.206 373.901 L 198.206 373.901 Q 198.144 373.818 198.124 373.693 L 198.124 373.693 L 198.124 373.693 Q 198.094 373.5 198.178 373.349 L 198.178 373.349 L 198.178 373.349 Q 198.263 373.197 198.419 373.172 L 198.419 373.172 L 198.419 373.172 Q 198.513 373.157 198.579 373.172 L 198.579 373.172 L 198.579 373.172 Q 198.646 373.187 198.781 373.236 L 198.781 373.236 L 198.916 373.279 L 198.916 373.279 Q 199.125 373.341 199.293 373.372 L 199.293 373.372 L 199.293 373.372 Q 199.461 373.403 199.649 373.373 L 199.649 373.373 L 199.649 373.373 Q 199.998 373.317 200.144 373.15 L 200.144 373.15 L 200.144 373.15 Q 200.291 372.982 200.243 372.683 L 200.243 372.683 L 200.243 372.683 Q 200.198 372.402 199.998 372.273 L 199.998 372.273 L 199.998 372.273 Q 199.798 372.145 199.486 372.195 L 199.486 372.195 L 199.486 372.195 Q 199.299 372.225 199.151 372.281 L 199.151 372.281 L 199.151 372.281 Q 199.003 372.336 198.81 372.45 L 198.81 372.45 L 198.81 372.45 Q 198.689 372.54 198.54 372.564 L 198.54 372.564 L 198.54 372.564 Q 198.365 372.592 198.23 372.508 L 198.23 372.508 L 198.23 372.508 Q 198.094 372.424 198.068 372.255 L 198.068 372.255 L 197.797 370.563 L 197.797 370.563 Q 197.755 370.301 197.871 370.141 L 197.871 370.141 L 197.871 370.141 Q 197.986 369.982 198.242 369.941 L 198.242 369.941 L 200.178 369.632 L 200.178 369.632 Q 200.721 369.545 200.79 369.976 L 200.79 369.976 L 200.79 369.976 Q 200.86 370.413 200.317 370.5 L 200.317 370.5 L 198.968 370.715 L 199.091 371.483 L 199.091 371.483 Q 199.335 371.329 199.691 371.272 L 199.691 371.272 Z " fill-rule="evenodd" fill="rgb(33,33,33)" />
                        </g>
                    </g>
                </g>
                <clipPath id="_clipPath_KXpGxa0PkdRJTZ6hHxd9wbpv5cJEEAUW">
                    <rect x="188.395" y="385.939" width="17.987" height="17.987" transform="matrix(1,0,0,1,0,0)" fill="rgb(255,255,255)" />
                </clipPath>
                <g clip-path="url(#_clipPath_KXpGxa0PkdRJTZ6hHxd9wbpv5cJEEAUW)">
                    <g id="Group">
                        <path d=" M 189.923 387.467 L 189.923 402.398 L 204.854 402.398 L 204.854 387.467 L 189.923 387.467 Z " fill-rule="evenodd" fill="rgb(21,101,192)" />
                        <path d=" M 194.754 389.927 Q 193.415 389.903 189.923 389.914 L 189.923 393.246 L 204.854 393.246 L 204.854 392.298 Q 200.383 392.33 198.412 392.305 C 196.44 392.28 196.093 389.95 194.754 389.927 Z " fill-rule="evenodd" fill="rgb(30,136,229)" />
                        <path d=" M 194.473 390.471 Q 193.134 390.448 189.923 390.459 L 189.923 402.398 L 204.854 402.398 L 204.854 392.842 Q 200.12 392.875 198.148 392.85 C 196.177 392.825 195.812 390.494 194.473 390.471 Z " fill-rule="evenodd" fill="rgb(100,181,246)" />
                    </g>
                </g>
            </g>
        </g>
    </g>
</svg>