<?xml version="1.0" standalone="no"?>
<!-- Generator: Gravit.io -->
<svg xmlns="http://www.w3.org/2000/svg" xmlns:xlink="http://www.w3.org/1999/xlink" style="isolation:isolate" viewBox="0 0 1024 1024" width="1024" height="1024">
    <defs>
        <clipPath id="_clipPath_Htb5NcxLzMsj554f5sbM7Y7BjU9pAcKT">
            <rect width="1024" height="1024" />
        </clipPath>
    </defs>
    <g clip-path="url(#_clipPath_Htb5NcxLzMsj554f5sbM7Y7BjU9pAcKT)">
        <rect x="85.333" y="85.897" width="850" height="850" transform="matrix(1,0,0,1,0,0)" fill="rgb(144,164,174)" />
        <rect x="86" y="709" width="850" height="229.897" transform="matrix(1,0,0,1,0,0)" fill="rgb(84,110,122)" />
        <g id="macbook pro retina">
            <g id="monitor">
                <path d=" M 226.991 382.245 L 226.991 737.76 L 798.435 737.76 L 798.435 382.245 C 798.435 367.845 786.745 356.154 772.345 356.154 L 253.082 356.154 C 238.682 356.154 226.991 367.845 226.991 382.245 Z " fill-rule="evenodd" fill="rgb(18,18,18)" />
                <mask id="_mask_7InA8rvERY69gg7NZfTRFzZ8zSAhhBfq">
                    <path d=" M 226.991 381.281 L 226.991 744.505 L 798.435 744.505 L 798.435 381.281 C 798.435 366.882 786.745 355.191 772.345 355.191 L 253.082 355.191 C 238.682 355.191 226.991 366.882 226.991 381.281 Z " fill-rule="evenodd" fill="white" stroke="none" />
                </mask>
                <path d=" M 226.991 381.281 L 226.991 744.505 L 798.435 744.505 L 798.435 381.281 C 798.435 366.882 786.745 355.191 772.345 355.191 L 253.082 355.191 C 238.682 355.191 226.991 366.882 226.991 381.281 Z " fill-rule="evenodd" fill="none" mask="url(#_mask_7InA8rvERY69gg7NZfTRFzZ8zSAhhBfq)" vector-effect="non-scaling-stroke" stroke-width="3.855" stroke="rgb(197,197,197)" stroke-linejoin="miter" stroke-linecap="square" stroke-miterlimit="10" />
                <path d=" M 245.3 380.246 L 245.3 715.596 L 781.09 715.596 L 781.09 380.246 L 245.3 380.246 Z " fill-rule="evenodd" fill="rgb(40,40,40)" />
            </g>
            <g id="camera">
                <path d=" M 513.195 374.464 C 515.324 374.464 517.05 372.738 517.05 370.609 C 517.05 368.48 515.324 366.754 513.195 366.754 C 511.066 366.754 509.34 368.48 509.34 370.609 C 509.34 372.738 511.066 374.464 513.195 374.464 Z " fill-rule="evenodd" fill="rgb(31,31,31)" />
                <path d=" M 513.195 372.536 C 514.259 372.536 515.122 371.673 515.122 370.609 C 515.122 369.545 514.259 368.682 513.195 368.682 C 512.131 368.682 511.268 369.545 511.268 370.609 C 511.268 371.673 512.131 372.536 513.195 372.536 Z " fill-rule="evenodd" fill="rgb(16,52,112)" />
            </g>
            <g id="bottom">
                <path d=" M 163 750.886 Q 170.301 758.179 190.976 760.105 Q 211.652 762.031 834.448 760.105 Q 851.602 758.815 862.729 751.204 Q 873.856 743.592 179.213 751.204 L 163 750.886 Z " fill-rule="evenodd" fill="rgb(154,154,154)" />
                <path d=" M 163.39 737.76 L 163.39 751.251 L 863 751.251 L 863 737.76 L 163.39 737.76 Z " fill-rule="evenodd" fill="rgb(204,204,204)" />
                <path d=" M 463.497 738.206 L 465.951 741.778 C 467.723 744.358 471.704 746.453 474.834 746.453 L 550.36 746.453 C 553.49 746.453 557.501 744.379 559.311 741.825 L 561.874 738.206" fill-rule="evenodd" fill="rgb(216,216,216)" />
            </g>
        </g>
        <g id="Hackintosh">
            <g id="dock with apps">
                <path d=" M 451.493 679.819 L 451.493 715.771 L 573.732 714.873 L 573.732 679.819 L 451.493 679.819 Z " fill-rule="evenodd" fill="rgb(207,216,220)" />
                <g id="apps">
                    <g id="Finder">
                        <rect x="456.012" y="686.157" width="24.466" height="24.466" transform="matrix(1,0,0,1,0,0)" fill="rgb(255,255,255)" />
                        <clipPath id="_clipPath_DfvlaSIxnwjPpSoDNOAWdsJ3zuXGEgKM">
                            <rect x="456.012" y="686.157" width="24.466" height="24.466" transform="matrix(1,0,0,1,0,0)" fill="rgb(255,255,255)" />
                        </clipPath>
                        <g clip-path="url(#_clipPath_DfvlaSIxnwjPpSoDNOAWdsJ3zuXGEgKM)">
                            <g id="Group">
                                <path d=" M 471.354 711.093 C 470.086 707.582 470.164 701.844 470.145 700.463 C 470.126 699.081 470.337 698.198 469.742 698.179 C 468.974 698.122 468.475 698.217 467.669 698.217 C 466.307 698.313 466.537 697.719 466.576 697.22 C 466.998 693.363 467.151 690.254 469.492 685.515 L 455.383 685.485 L 455.34 711.128 L 471.354 711.093 Z " fill="rgb(30,136,229)" />
                            </g>
                        </g>
                        <path d=" M 462.992 692.331 L 462.992 692.331 C 463.27 692.331 463.496 692.557 463.496 692.835 L 463.496 694.706 C 463.496 694.984 463.27 695.21 462.992 695.21 L 462.992 695.21 C 462.714 695.21 462.488 694.984 462.488 694.706 L 462.488 692.835 C 462.488 692.557 462.714 692.331 462.992 692.331 Z " fill="rgb(33,33,33)" />
                        <path d=" M 474.074 692.331 L 474.074 692.331 C 474.352 692.331 474.577 692.557 474.577 692.835 L 474.577 694.706 C 474.577 694.984 474.352 695.21 474.074 695.21 L 474.074 695.21 C 473.796 695.21 473.57 694.984 473.57 694.706 L 473.57 692.835 C 473.57 692.557 473.796 692.331 474.074 692.331 Z " fill="rgb(33,33,33)" />
                        <path d=" M 460.934 702.118 C 460.845 702.017 460.799 701.887 460.805 701.752 C 460.813 701.62 460.874 701.496 460.972 701.407 C 461.072 701.317 461.202 701.269 461.334 701.277 C 461.47 701.283 461.593 701.343 461.683 701.444 C 462.109 701.916 462.581 702.345 463.09 702.722 C 463.559 703.062 464.066 703.344 464.598 703.56 C 465.165 703.784 465.755 703.945 466.354 704.04 C 467.065 704.153 467.782 704.213 468.498 704.219 L 468.66 704.219 C 470.079 704.213 471.48 703.896 472.764 703.289 C 473.297 703.044 473.8 702.745 474.269 702.397 C 474.615 702.149 474.92 701.85 475.167 701.507 C 475.248 701.401 475.366 701.329 475.498 701.309 C 475.631 701.289 475.763 701.32 475.873 701.398 C 475.979 701.479 476.051 701.597 476.074 701.729 C 476.094 701.861 476.06 701.994 475.982 702.103 C 475.671 702.529 475.294 702.903 474.865 703.208 C 474.341 703.6 473.78 703.931 473.187 704.202 C 471.771 704.869 470.225 705.22 468.66 705.229 C 468.66 705.229 468.657 705.229 468.654 705.226 L 468.49 705.226 C 468.49 705.226 468.49 705.226 468.49 705.226 C 467.721 705.218 466.956 705.154 466.199 705.036 C 465.522 704.927 464.86 704.746 464.227 704.495 C 463.611 704.248 463.03 703.925 462.497 703.537 C 461.927 703.116 461.403 702.641 460.934 702.118 Z " fill="rgb(33,33,33)" />
                    </g>
                    <g id="App Store">
                        <g id="App Store 1">
                            <rect x="485.486" y="686.157" width="24.466" height="24.466" transform="matrix(1,0,0,1,0,0)" fill="rgb(235,235,235)" />
                            <path d=" M 497.719 707.961 C 500.258 707.961 502.693 706.95 504.486 705.157 C 506.279 703.364 507.289 700.929 507.289 698.39 C 507.289 695.852 506.279 693.416 504.486 691.623 C 502.693 689.83 500.258 688.82 497.719 688.82 C 495.18 688.82 492.745 689.83 490.952 691.623 C 489.159 693.416 488.149 695.852 488.149 698.39 C 488.149 700.929 489.159 703.364 490.952 705.157 C 492.745 706.95 495.18 707.961 497.719 707.961 Z  M 497.719 709.4 C 500.638 709.4 503.441 708.24 505.505 706.176 C 507.569 704.112 508.729 701.309 508.729 698.39 C 508.729 695.472 507.569 692.668 505.505 690.604 C 503.441 688.541 500.638 687.381 497.719 687.381 C 494.8 687.381 491.997 688.541 489.933 690.604 C 487.869 692.668 486.71 695.472 486.71 698.39 C 486.71 701.309 487.869 704.112 489.933 706.176 C 491.997 708.24 494.8 709.4 497.719 709.4 Z " fill-rule="evenodd" fill="rgb(13,71,161)" />
                            <g id="Accessories">
                                <g id="Ruler">
                                    <path d=" M 489.948 696.761 L 489.948 699.628 L 505.491 699.628 L 505.491 696.761 L 489.948 696.761 Z " fill-rule="evenodd" fill="rgb(139,104,69)" fill-opacity="0.8369715073529411" />
                                    <path d=" M 490.523 697.462 L 490.523 697.477 C 490.523 697.552 490.584 697.613 490.66 697.613 L 504.779 697.613 C 504.854 697.613 504.915 697.552 504.915 697.477 L 504.915 697.462 C 504.915 697.387 504.854 697.326 504.779 697.326 L 490.66 697.326 C 490.584 697.326 490.523 697.387 490.523 697.462 Z " fill-rule="evenodd" fill="rgb(118,89,60)" fill-opacity="0.8256261488970589" />
                                </g>
                                <g id="Pen">
                                    <path d=" M 491.112 702.916 L 491.396 700.825 C 492.307 700.486 492.983 700.925 493.086 701.923 L 491.269 703.019 Q 491.16 703.079 491.126 703.058 Q 491.093 703.036 491.112 702.916 Z " fill="rgb(255,204,128)" />
                                    <path d=" M 495.002 695.273 L 496.692 696.371 L 493.086 701.923 C 492.632 701.277 491.957 700.839 491.396 700.825 L 495.002 695.273 Z " fill="rgb(66,165,245)" />
                                    <rect x="494.87" y="694.692" width="2.592" height="1.296" transform="matrix(0.839,0.545,-0.545,0.839,458.86,-158.057)" fill="rgb(189,189,189)" />
                                    <path d=" M 496.811 693.703 L 497.391 694.079 C 497.697 694.278 497.784 694.688 497.585 694.995 L 497.319 695.405 L 495.629 694.308 L 495.896 693.897 C 496.095 693.591 496.505 693.504 496.811 693.703 Z " fill="rgb(139,195,74)" />
                                </g>
                                <g id="Paint Pencil">
                                    <path d=" M 504.102 703.159 Q 503.439 703.328 503.134 703.374 C 503.055 703.385 502.968 703.335 502.939 703.261 L 501.718 700.133 L 502.954 699.396 L 505.124 701.958 C 505.175 702.019 505.177 702.119 505.127 702.181 Q 504.914 702.449 504.48 702.931 C 504.394 703.026 504.225 703.128 504.102 703.159 Z " fill="rgb(121,85,72)" />
                                    <path d=" M 500.684 698.372 Q 496.757 691.362 497.177 691.111 Q 497.598 690.861 501.922 697.666 C 501.655 698.116 501.191 698.361 500.684 698.372 Z " fill="rgb(136,14,79)" />
                                    <path d=" M 500.684 698.372 C 501.129 698.3 501.593 698.056 501.922 697.666 L 502.954 699.396 C 502.637 699.764 502.176 700.039 501.718 700.133 L 500.684 698.372 Z " fill="rgb(235,235,235)" />
                                </g>
                            </g>
                        </g>
                    </g>
                    <g id="Calendar">
                        <rect x="515.329" y="686.157" width="24.466" height="24.466" transform="matrix(1,0,0,1,0,0)" fill="rgb(33,33,33)" />
                        <g id="Calendar">
                            <path d=" M 517.323 695.367 L 536.272 692.252 L 538.7 706.996 L 519.634 710.15 L 517.323 695.367 Z " fill-rule="evenodd" fill="rgb(255,255,255)" />
                            <path d=" M 519.418 708.81 Q 526.218 708.176 529.663 707.601 Q 533.107 707.025 538.539 706.162 L 538.7 706.996 L 519.634 710.15 L 519.418 708.81 Z " fill-rule="evenodd" fill="rgb(200,199,199)" />
                            <path d=" M 517.333 695.433 L 516.423 689.613 L 535.346 686.63 L 536.294 692.385 L 517.333 695.433 Z " fill-rule="evenodd" fill="rgb(198,40,40)" />
                            <path d=" M 523.865 692.408 L 523.865 692.408 Q 523.906 692.468 523.916 692.529 L 523.916 692.529 L 523.916 692.529 Q 523.934 692.642 523.856 692.735 L 523.856 692.735 L 523.856 692.735 Q 523.778 692.828 523.662 692.846 L 523.662 692.846 L 523.662 692.846 Q 523.584 692.859 523.512 692.828 L 523.512 692.828 L 523.512 692.828 Q 523.441 692.798 523.39 692.722 L 523.39 692.722 L 523.182 692.402 L 522.077 692.578 L 521.975 692.948 L 521.975 692.948 Q 521.95 693.036 521.89 693.087 L 521.89 693.087 L 521.89 693.087 Q 521.83 693.139 521.752 693.151 L 521.752 693.151 L 521.752 693.151 Q 521.636 693.17 521.53 693.106 L 521.53 693.106 L 521.53 693.106 Q 521.423 693.043 521.405 692.93 L 521.405 692.93 L 521.405 692.93 Q 521.396 692.869 521.416 692.799 L 521.416 692.799 L 522.021 690.807 L 522.021 690.807 Q 522.051 690.708 522.13 690.644 L 522.13 690.644 L 522.13 690.644 Q 522.209 690.581 522.315 690.564 L 522.315 690.564 L 522.315 690.564 Q 522.417 690.548 522.513 690.583 L 522.513 690.583 L 522.513 690.583 Q 522.61 690.618 522.669 690.703 L 522.669 690.703 L 523.865 692.408 Z  M 522.433 691.259 L 522.213 692.074 L 522.895 691.965 L 522.433 691.259 Z  M 524.533 692.717 L 524.533 692.717 Q 524.39 692.74 524.293 692.67 L 524.293 692.67 L 524.293 692.67 Q 524.196 692.6 524.173 692.457 L 524.173 692.457 L 523.882 690.632 L 523.882 690.632 Q 523.86 690.492 523.923 690.405 L 523.923 690.405 L 523.923 690.405 Q 523.986 690.318 524.126 690.296 L 524.126 690.296 L 524.999 690.156 L 524.999 690.156 Q 525.398 690.092 525.652 690.26 L 525.652 690.26 L 525.652 690.26 Q 525.906 690.427 525.964 690.789 L 525.964 690.789 L 525.964 690.789 Q 526.021 691.147 525.83 691.387 L 525.83 691.387 L 525.83 691.387 Q 525.64 691.628 525.244 691.691 L 525.244 691.691 L 524.708 691.777 L 524.801 692.356 L 524.801 692.356 Q 524.824 692.5 524.752 692.597 L 524.752 692.597 L 524.752 692.597 Q 524.68 692.694 524.533 692.717 L 524.533 692.717 Z  M 524.633 691.306 L 525.083 691.234 L 525.083 691.234 Q 525.257 691.206 525.329 691.121 L 525.329 691.121 L 525.329 691.121 Q 525.402 691.036 525.378 690.886 L 525.378 690.886 L 525.378 690.886 Q 525.33 690.589 524.989 690.644 L 524.989 690.644 L 524.539 690.716 L 524.633 691.306 Z  M 528.488 691.655 L 528.488 691.655 Q 528.564 691.738 528.577 691.82 L 528.577 691.82 L 528.577 691.82 Q 528.594 691.929 528.516 692.016 L 528.516 692.016 L 528.516 692.016 Q 528.437 692.104 528.318 692.123 L 528.318 692.123 L 528.318 692.123 Q 528.236 692.136 528.158 692.11 L 528.158 692.11 L 528.158 692.11 Q 528.08 692.084 528.017 692.017 L 528.017 692.017 L 527.47 691.44 L 527.47 691.44 Q 527.412 691.38 527.354 691.356 L 527.354 691.356 L 527.354 691.356 Q 527.296 691.332 527.224 691.343 L 527.224 691.343 L 527.002 691.379 L 527.1 691.989 L 527.1 691.989 Q 527.123 692.132 527.054 692.229 L 527.054 692.229 L 527.054 692.229 Q 526.986 692.326 526.842 692.348 L 526.842 692.348 L 526.842 692.348 Q 526.699 692.371 526.602 692.301 L 526.602 692.301 L 526.602 692.301 Q 526.505 692.231 526.483 692.088 L 526.483 692.088 L 526.191 690.263 L 526.191 690.263 Q 526.169 690.123 526.232 690.036 L 526.232 690.036 L 526.232 690.036 Q 526.295 689.949 526.435 689.927 L 526.435 689.927 L 527.291 689.79 L 527.291 689.79 Q 527.727 689.72 527.977 689.874 L 527.977 689.874 L 527.977 689.874 Q 528.228 690.029 528.285 690.387 L 528.285 690.387 L 528.285 690.387 Q 528.329 690.659 528.209 690.873 L 528.209 690.873 L 528.209 690.873 Q 528.089 691.086 527.826 691.194 L 527.826 691.194 L 527.826 691.194 Q 527.942 691.194 528.034 691.238 L 528.034 691.238 L 528.034 691.238 Q 528.127 691.283 528.228 691.386 L 528.228 691.386 L 528.488 691.655 Z  M 527.357 690.839 L 527.357 690.839 Q 527.565 690.806 527.645 690.727 L 527.645 690.727 L 527.645 690.727 Q 527.725 690.647 527.702 690.501 L 527.702 690.501 L 527.702 690.501 Q 527.678 690.351 527.577 690.299 L 527.577 690.299 L 527.577 690.299 Q 527.476 690.247 527.267 690.28 L 527.267 690.28 L 526.831 690.35 L 526.92 690.909 L 527.357 690.839 Z  M 529.254 691.963 L 529.254 691.963 Q 529.111 691.986 529.014 691.916 L 529.014 691.916 L 529.014 691.916 Q 528.917 691.846 528.894 691.702 L 528.894 691.702 L 528.602 689.878 L 528.602 689.878 Q 528.58 689.738 528.65 689.641 L 528.65 689.641 L 528.65 689.641 Q 528.72 689.544 528.864 689.521 L 528.864 689.521 L 528.864 689.521 Q 529.01 689.498 529.109 689.568 L 529.109 689.568 L 529.109 689.568 Q 529.208 689.638 529.23 689.777 L 529.23 689.777 L 529.521 691.602 L 529.521 691.602 Q 529.544 691.745 529.472 691.843 L 529.472 691.843 L 529.472 691.843 Q 529.401 691.94 529.254 691.963 L 529.254 691.963 Z  M 530.294 691.776 L 530.294 691.776 Q 530.154 691.798 530.067 691.735 L 530.067 691.735 L 530.067 691.735 Q 529.98 691.672 529.958 691.529 L 529.958 691.529 L 529.667 689.708 L 529.667 689.708 Q 529.644 689.568 529.714 689.471 L 529.714 689.471 L 529.714 689.471 Q 529.785 689.374 529.928 689.351 L 529.928 689.351 L 529.928 689.351 Q 530.074 689.328 530.173 689.398 L 530.173 689.398 L 530.173 689.398 Q 530.272 689.468 530.294 689.607 L 530.294 689.607 L 530.551 691.214 L 531.335 691.089 L 531.335 691.089 Q 531.632 691.041 531.673 691.297 L 531.673 691.297 L 531.673 691.297 Q 531.694 691.427 531.63 691.5 L 531.63 691.5 L 531.63 691.5 Q 531.566 691.573 531.416 691.597 L 531.416 691.597 L 530.294 691.776 Z " fill-rule="evenodd" fill="rgb(250,250,250)" />
                            <path d=" M 530.408 702.317 L 530.408 702.317 Q 530.868 702.242 531.113 702.39 L 531.113 702.39 L 531.113 702.39 Q 531.358 702.539 531.418 702.907 L 531.418 702.907 L 531.418 702.907 Q 531.543 703.663 530.654 703.809 L 530.654 703.809 L 527.108 704.392 L 527.108 704.392 Q 526.219 704.539 526.094 703.782 L 526.094 703.782 L 526.094 703.782 Q 526.034 703.415 526.218 703.195 L 526.218 703.195 L 526.218 703.195 Q 526.403 702.976 526.862 702.9 L 526.862 702.9 L 527.69 702.764 L 527.084 699.075 L 526.345 699.69 L 526.345 699.69 Q 526.188 699.821 526.004 699.851 L 526.004 699.851 L 526.004 699.851 Q 525.718 699.898 525.472 699.681 L 525.472 699.681 L 525.472 699.681 Q 525.227 699.465 525.177 699.158 L 525.177 699.158 L 525.177 699.158 Q 525.108 698.739 525.43 698.466 L 525.43 698.466 L 526.909 697.246 L 526.909 697.246 Q 527.316 696.917 527.715 696.851 L 527.715 696.851 L 527.715 696.851 Q 528.124 696.784 528.414 696.988 L 528.414 696.988 L 528.414 696.988 Q 528.705 697.192 528.774 697.611 L 528.774 697.611 L 529.57 702.455 L 530.408 702.317 Z " fill="rgb(33,33,33)" />
                        </g>
                    </g>
                    <g id="Google Chrome">
                        <rect x="545.738" y="686.138" width="22.596" height="24.466" transform="matrix(1,0,0,1,0,0)" fill="rgb(255,255,255)" />
                        <clipPath id="_clipPath_yx2UnkrIIvkGOKQ6mhozqf2rXHTi9JPF">
                            <rect x="545.738" y="686.138" width="22.596" height="24.466" transform="matrix(1,0,0,1,0,0)" fill="rgb(255,255,255)" />
                        </clipPath>
                        <g clip-path="url(#_clipPath_yx2UnkrIIvkGOKQ6mhozqf2rXHTi9JPF)">
                            <g id="Group">
                                <g id="Group">
                                    <path d=" M 553.812 710.954 L 557.491 704.754 Q 552.85 694.403 547.295 684.932 L 545.395 684.918 L 545.395 710.997 L 553.812 710.954 Z " fill="rgb(67,160,71)" />
                                    <path d=" M 552.037 696.319 L 547.532 685.659 L 569.032 685.616 L 569.032 696.3 L 552.037 696.319 Z " fill="rgb(229,57,53)" />
                                    <path d=" M 553.594 710.954 L 562.064 694.625 L 568.858 694.6 L 568.858 710.954 L 553.594 710.954 Z " fill="rgb(253,216,53)" />
                                    <path d=" M 550.775 698.339 C 550.775 694.778 553.667 691.886 557.228 691.886 C 560.79 691.886 563.682 694.778 563.682 698.339 C 563.682 701.901 560.79 704.793 557.228 704.793 C 553.667 704.793 550.775 701.901 550.775 698.339 Z " fill="rgb(238,238,238)" />
                                    <path d=" M 553.418 698.339 C 553.418 696.236 555.125 694.528 557.228 694.528 C 559.332 694.528 561.039 696.236 561.039 698.339 C 561.039 700.443 559.332 702.15 557.228 702.15 C 555.125 702.15 553.418 700.443 553.418 698.339 Z " fill="rgb(30,136,229)" />
                                </g>
                            </g>
                        </g>
                    </g>
                </g>
            </g>
            <g id="menubar">
                <path d=" M 245.302 380.818 L 245.302 395.521 L 780.889 395.553 L 780.889 380.818 L 245.302 380.818 Z " fill-rule="evenodd" fill="rgb(207,216,220)" />
                <path d=" M 260.61 390.084 C 260.406 390.536 260.309 390.738 260.046 391.137 C 259.681 391.696 259.163 392.392 258.524 392.396 C 257.956 392.401 257.809 392.025 257.037 392.032 C 256.265 392.034 256.104 392.402 255.535 392.397 C 254.896 392.392 254.407 391.764 254.04 391.208 C 253.015 389.647 252.907 387.816 253.541 386.843 C 253.989 386.153 254.698 385.748 255.365 385.748 C 256.042 385.748 256.468 386.12 257.029 386.12 C 257.573 386.12 257.904 385.746 258.689 385.746 C 259.281 385.746 259.909 386.069 260.357 386.627 C 258.891 387.43 259.129 389.524 260.611 390.085 L 260.61 390.084 Z  M 258.093 385.122 C 258.378 384.757 258.594 384.239 258.517 383.713 C 258.051 383.745 257.507 384.042 257.188 384.426 C 256.9 384.777 256.661 385.298 256.754 385.802 C 257.262 385.818 257.788 385.515 258.093 385.122 Z " fill="rgb(33,33,33)" />
                <g id="Notification Center">
                    <rect x="761.367" y="383.713" width="1.737" height="1.737" transform="matrix(1,0,0,1,0,0)" fill="rgb(33,33,33)" />
                    <rect x="764.84" y="383.713" width="6.947" height="1.737" transform="matrix(1,0,0,1,0,0)" fill="rgb(33,33,33)" />
                    <rect x="764.84" y="390.66" width="6.947" height="1.737" transform="matrix(1,0,0,1,0,0)" fill="rgb(33,33,33)" />
                    <rect x="764.84" y="387.186" width="5.21" height="1.737" transform="matrix(1,0,0,1,0,0)" fill="rgb(33,33,33)" />
                    <rect x="761.367" y="387.186" width="1.737" height="1.737" transform="matrix(1,0,0,1,0,0)" fill="rgb(33,33,33)" />
                    <rect x="761.367" y="390.66" width="1.737" height="1.737" transform="matrix(1,0,0,1,0,0)" fill="rgb(33,33,33)" />
                </g>
            </g>
        </g>
    </g>
</svg>