<?xml version="1.0" standalone="no"?>
<!-- Generator: Gravit.io -->
<svg xmlns="http://www.w3.org/2000/svg" xmlns:xlink="http://www.w3.org/1999/xlink" style="isolation:isolate" viewBox="0 0 1024 1024" width="1024" height="1024">
    <defs>
        <clipPath id="_clipPath_U7NVoCqIrFhkSxoAZSSGqwv4ebvliL7l">
            <rect width="1024" height="1024" />
        </clipPath>
    </defs>
    <g clip-path="url(#_clipPath_U7NVoCqIrFhkSxoAZSSGqwv4ebvliL7l)">
        <rect x="86" y="89.897" width="850" height="850" transform="matrix(1,0,0,1,0,0)" fill="rgb(144,164,174)" />
        <rect x="86" y="710" width="850" height="229.897" transform="matrix(1,0,0,1,0,0)" fill="rgb(84,110,122)" />
        <g id="PC">
            <path d=" M 427.405 759.207 L 597.405 759.207 L 578.329 639.207 L 446.481 639.207 L 427.405 759.207 Z " fill-rule="evenodd" fill="rgb(33,33,33)" />
            <mask id="_mask_S5CvOoFPJLfLt4S2haB1SvzOb3OTd0Wa">
                <path d=" M 695.777 604.793 L 171 604.793 L 171 818.438 C 171 830.224 180.569 839.793 192.355 839.793 L 829.645 839.793 C 841.431 839.793 851 830.224 851 818.438 L 851 604.793 L 695.777 604.793 Z " fill-rule="evenodd" fill="white" stroke="none" />
            </mask>
            <path d=" M 695.777 604.793 L 171 604.793 L 171 818.438 C 171 830.224 180.569 839.793 192.355 839.793 L 829.645 839.793 C 841.431 839.793 851 830.224 851 818.438 L 851 604.793 L 695.777 604.793 Z " fill-rule="evenodd" fill="none" mask="url(#_mask_S5CvOoFPJLfLt4S2haB1SvzOb3OTd0Wa)" vector-effect="non-scaling-stroke" stroke-width="85.597" stroke="rgb(33,33,33)" stroke-linejoin="miter" stroke-linecap="square" stroke-miterlimit="10" />
            <path d=" M 171 208.066 L 171 671.934 C 171 681.905 179.095 690 189.066 690 L 832.934 690 C 842.905 690 851 681.905 851 671.934 L 851 208.066 C 851 198.095 842.905 190 832.934 190 L 189.066 190 C 179.095 190 171 198.095 171 208.066 Z " fill-rule="evenodd" fill="rgb(66,66,66)" />
            <path d=" M 211 230 L 210 650 L 810 650 L 811 230 L 211 230 Z " fill-rule="evenodd" fill="rgb(48,63,159)" />
        </g>
        <g id="Windows">
            <path d=" M 210 620 L 810 620 L 810 650 L 210 650 L 210 620 Z " fill="rgb(0,0,0)" />
            <path d=" M 210 620 L 240 620 L 240 650 L 210 650 L 210 620 Z " fill="rgb(33,33,33)" />
            <g id="windows logo">
                <path d=" M 224.667 639.256 L 224.667 635.333 L 230 635.333 L 230 640 L 224.667 639.255 L 224.667 639.256 Z  M 224.667 630.745 L 230 630 L 230 634.667 L 224.667 634.667 L 224.667 630.745 L 224.667 630.745 Z  M 220 638.605 L 220 635.333 L 224 635.333 L 224 639.161 L 220 638.604 L 220 638.605 Z  M 220 634.667 L 220 631.396 L 224 630.839 L 224 634.667 L 220 634.667 L 220 634.667 Z " fill-rule="evenodd" fill="rgb(250,250,250)" />
            </g>
            <mask id="_mask_VzlkSaFhx8R0jeD4EiPrN9WUPpoCSLrZ" x="-200%" y="-200%" width="400%" height="400%">
                <rect x="0" y="0" width="100%" height="100%" style="fill:white;" />
                <path d=" M 250 635 C 250 631.689 252.689 629 256 629 C 259.311 629 262 631.689 262 635 C 262 638.311 259.311 641 256 641 C 252.689 641 250 638.311 250 635 Z " fill="black" stroke="none" />
            </mask>
            <path d=" M 250 635 C 250 631.689 252.689 629 256 629 C 259.311 629 262 631.689 262 635 C 262 638.311 259.311 641 256 641 C 252.689 641 250 638.311 250 635 Z " fill="none" mask="url(#_mask_VzlkSaFhx8R0jeD4EiPrN9WUPpoCSLrZ)" vector-effect="non-scaling-stroke" stroke-width="3.2" stroke="rgb(250,250,250)" stroke-linejoin="miter" stroke-linecap="square" stroke-miterlimit="3" />
            <g id="preview and hide">
                <mask id="_mask_JJphMggYUEnraAFxwSmP2XNIRoy55jYH" x="-200%" y="-200%" width="400%" height="400%">
                    <rect x="0" y="0" width="100%" height="100%" style="fill:white;" />
                    <rect x="275" y="631" width="17" height="8" transform="matrix(1,0,0,1,0,0)" fill="black" stroke="none" />
                </mask>
                <rect x="275" y="631" width="17" height="8" transform="matrix(1,0,0,1,0,0)" fill="rgb(0,0,0)" mask="url(#_mask_JJphMggYUEnraAFxwSmP2XNIRoy55jYH)" vector-effect="non-scaling-stroke" stroke-width="2" stroke="rgb(250,250,250)" stroke-linejoin="miter" stroke-linecap="square" stroke-miterlimit="3" />
                <mask id="_mask_llyG5CNaJLwiHIoQqri26qGzMkdaRUWh" x="-200%" y="-200%" width="400%" height="400%">
                    <rect x="0" y="0" width="100%" height="100%" style="fill:white;" />
                    <rect x="277.5" y="629" width="12" height="12" transform="matrix(1,0,0,1,0,0)" fill="black" stroke="none" />
                </mask>
                <rect x="277.5" y="629" width="12" height="12" transform="matrix(1,0,0,1,0,0)" fill="rgb(0,0,0)" mask="url(#_mask_llyG5CNaJLwiHIoQqri26qGzMkdaRUWh)" vector-effect="non-scaling-stroke" stroke-width="2" stroke="rgb(250,250,250)" stroke-linejoin="miter" stroke-linecap="square" stroke-miterlimit="3" />
            </g>
            <g id="Edge">
                <path d=" M 318.81 629.509 C 318.79 629.48 318.769 629.451 318.748 629.423 C 317.202 627.345 314.736 626 311.956 626 C 307.462 626 303.785 629.519 303.5 633.966 C 304.184 632.717 307.312 629.421 311.465 629.421 C 315.619 629.421 315.231 633.289 315.231 633.289 L 308.725 633.289 C 308.845 631.765 309.957 630.462 309.957 630.462 C 305.36 632.309 305.566 636.964 305.566 636.964 C 305.678 639.14 306.4 640.644 307.359 641.683 C 309.631 644.144 313.236 643.998 313.236 643.998 C 316.482 643.998 318.671 642.706 318.671 642.706 L 318.671 638.936 C 318.671 638.936 316.791 640.243 313.701 640.294 C 308.55 640.192 308.798 636.454 308.798 636.454 L 320.212 636.454 L 320.213 636.453 L 320.213 634.452 C 320.213 634.452 320.315 631.607 318.81 629.509 L 318.81 629.509 Z " fill="rgb(33,150,243)" />
            </g>
            <g id="windows explorer">
                <path d=" M 330.008 627.956 L 350.383 627.956 C 350.926 627.956 351.367 628.397 351.367 628.941 L 351.367 642.081 C 351.367 642.624 350.926 643.065 350.383 643.064 L 330.992 643.049 C 330.449 643.049 330.008 642.607 330.008 642.064 L 330.008 627.956 Z " fill="rgb(255,224,130)" />
                <path d=" M 331.275 626 L 338.091 626 C 338.526 626 339.114 626.263 339.404 626.587 L 340.54 627.858 L 339.44 629.091 C 339.151 629.415 338.563 629.679 338.128 629.68 L 330.008 629.691 L 330 627.28 C 329.998 626.573 330.569 626 331.275 626 Z " fill="rgb(255,202,40)" />
                <rect x="331.251" y="627.316" width="4.552" height="1.033" transform="matrix(1,0,0,1,0,0)" fill="rgb(250,250,250)" />
                <rect x="331.251" y="627.316" width="1.033" height="1.033" transform="matrix(1,0,0,1,0,0)" fill="rgb(66,165,245)" />
                <path d=" M 335.348 635.043 L 346.076 635.043 C 347.109 635.043 347.947 635.881 347.947 636.913 L 347.947 643.975 L 344.206 644 L 344.255 638.586 L 337.169 638.586 L 337.144 643.975 L 333.478 643.975 L 333.478 636.913 C 333.478 635.881 334.316 635.043 335.348 635.043 Z " fill="rgb(66,165,245)" />
            </g>
            <g id="windows store">
                <path d=" M 376.968 631.076 L 378.56 631.649 L 378.56 642.009 L 376.988 642.528 L 365.601 640.933 L 365.601 632.667 L 376.968 631.076 Z  M 377.12 629.601 L 364.161 631.415 L 364.161 642.186 L 377.12 644 L 380 643.05 L 380 630.636 L 377.12 629.601 Z " fill="rgb(250,250,250)" />
                <path d=" M 365.067 641.428 L 365.067 632.213 L 376.586 630.677 L 378.89 631.445 L 378.89 642.196 L 376.586 642.964 L 365.067 641.428 Z " fill="rgb(250,250,250)" />
                <path d=" M 369.921 636.081 L 369.921 633.518 L 367.041 633.921 L 367.041 636.081 L 369.921 636.081 Z " fill="rgb(0,0,0)" />
                <path d=" M 370.641 636.081 L 374.24 636.081 L 374.24 632.913 L 370.641 633.417 L 370.641 636.081 Z " fill="rgb(0,0,0)" />
                <path d=" M 370.641 636.801 L 370.641 639.464 L 374.24 639.968 L 374.24 636.801 L 370.641 636.801 Z " fill="rgb(0,0,0)" />
                <path d=" M 369.921 636.801 L 367.041 636.801 L 367.041 638.96 L 369.921 639.364 L 369.921 636.801 Z " fill="rgb(0,0,0)" />
                <path d=" M 368.484 631.207 L 367.04 631.207 L 367.04 628.642 C 367.04 628.642 367.04 628.642 367.04 628.642 C 367.04 627.713 367.639 626.883 368.515 626.591 L 370.012 626.092 L 370.527 626.015 C 370.565 626.008 370.604 626 370.642 626 C 371.095 626 371.533 626.146 371.901 626.407 C 372.47 626.814 372.8 627.467 372.8 628.166 C 372.8 628.166 372.8 628.166 372.8 628.166 L 372.8 628.166 L 372.8 631.207 L 372.8 631.207 L 371.364 631.207 L 371.364 628.166 L 371.364 628.166 C 371.364 627.928 371.249 627.713 371.064 627.582 C 370.949 627.497 370.826 627.451 370.688 627.444 L 370.358 627.497 L 368.976 627.958 C 368.976 627.958 368.976 627.958 368.976 627.958 C 368.684 628.058 368.484 628.335 368.484 628.642" fill="rgb(250,250,250)" />
                <path d=" M 375.68 630.324 L 374.244 630.324 L 374.244 628.88 C 374.244 628.649 374.128 628.434 373.944 628.296 C 373.829 628.219 373.706 628.173 373.568 628.166 L 373.238 628.219 L 372.308 628.527 L 371.855 627.16 L 372.892 626.814 L 373.407 626.73 C 373.445 626.73 373.483 626.722 373.522 626.722 C 373.975 626.722 374.413 626.868 374.781 627.129 C 375.349 627.536 375.68 628.189 375.68 628.88 C 375.68 628.88 375.68 628.88 375.68 628.88 L 375.68 630.324 Z " fill="rgb(250,250,250)" />
            </g>
            <g id="wifi">
                <path d=" M 665 641.723 C 665 640.343 665.179 639.015 665.537 637.739 C 665.886 636.485 666.395 635.28 667.051 634.155 C 667.699 633.047 668.486 632.026 669.395 631.118 C 670.302 630.21 671.323 629.422 672.432 628.774 C 673.557 628.118 674.761 627.61 676.016 627.26 C 677.312 626.9 678.653 626.719 679.999 626.724 L 679.999 627.974 C 678.737 627.974 677.521 628.138 676.352 628.467 C 675.204 628.787 674.101 629.253 673.071 629.854 C 672.053 630.449 671.116 631.172 670.283 632.007 C 669.448 632.84 668.725 633.777 668.13 634.795 C 667.53 635.825 667.064 636.928 666.743 638.076 C 666.412 639.263 666.246 640.49 666.25 641.723 L 665 641.723 L 665 641.723 Z " fill-rule="evenodd" fill="rgb(35,31,32)" />
                <path d=" M 668.75 641.723 C 668.75 640.688 668.883 639.69 669.15 638.73 C 669.41 637.788 669.791 636.884 670.283 636.04 C 670.77 635.209 671.36 634.445 672.041 633.764 C 672.721 633.083 673.485 632.492 674.316 632.006 C 675.16 631.514 676.064 631.133 677.007 630.874 C 677.982 630.605 678.989 630.47 680 630.473 L 680 631.723 C 679.104 631.72 678.212 631.84 677.349 632.08 C 675.68 632.543 674.159 633.431 672.935 634.658 C 672.329 635.264 671.802 635.944 671.368 636.684 C 670.929 637.432 670.589 638.235 670.357 639.071 C 670.118 639.934 669.997 640.827 670 641.723 L 668.75 641.723 L 668.75 641.723 Z " fill-rule="evenodd" fill="rgb(238,238,238)" />
                <path d=" M 672.499 641.723 C 672.499 641.033 672.589 640.369 672.768 639.731 C 672.942 639.104 673.197 638.502 673.524 637.939 C 673.848 637.385 674.242 636.875 674.697 636.421 C 675.15 635.967 675.66 635.573 676.214 635.249 C 676.777 634.921 677.379 634.667 678.007 634.493 C 678.655 634.312 679.326 634.222 679.999 634.224 L 679.999 635.474 C 679.427 635.474 678.873 635.549 678.339 635.698 C 677.806 635.848 677.308 636.058 676.846 636.328 C 675.918 636.87 675.147 637.642 674.604 638.569 C 674.331 639.038 674.12 639.54 673.974 640.063 C 673.824 640.596 673.749 641.15 673.749 641.724 L 672.499 641.724 L 672.499 641.723 Z " fill-rule="evenodd" fill="rgb(238,238,238)" />
                <path d=" M 678.124 637.973 C 678.622 637.972 679.1 638.169 679.452 638.52 C 679.803 638.873 680 639.351 679.999 639.848 C 680 640.346 679.803 640.823 679.452 641.176 C 679.281 641.346 679.079 641.482 678.857 641.576 C 678.629 641.674 678.384 641.723 678.124 641.723 C 677.627 641.724 677.149 641.527 676.797 641.176 C 676.626 641.005 676.49 640.803 676.396 640.58 C 676.298 640.349 676.248 640.1 676.249 639.848 C 676.249 639.35 676.445 638.873 676.797 638.52 C 676.968 638.35 677.17 638.214 677.392 638.12 C 677.62 638.022 677.864 637.973 678.124 637.973 Z " fill-rule="evenodd" fill="rgb(238,238,238)" />
            </g>
            <g id="sound">
                <path d=" M 700.906 632 C 701.309 632.391 701.63 632.859 701.85 633.376 C 702.071 633.895 702.182 634.437 702.182 635 C 702.182 635.563 702.071 636.105 701.85 636.624 C 701.63 637.141 701.309 637.609 700.906 638 L 700.14 637.254 C 700.446 636.955 700.682 636.612 700.846 636.222 C 701.01 635.835 701.094 635.42 701.093 635 C 701.094 634.58 701.01 634.164 700.846 633.777 C 700.683 633.389 700.443 633.038 700.14 632.746 L 700.906 632 L 700.906 632 Z " fill-rule="evenodd" fill="rgb(250,250,250)" />
                <path d=" M 703.219 629.746 C 703.573 630.09 703.891 630.469 704.168 630.877 C 704.718 631.684 705.102 632.593 705.299 633.55 C 705.497 634.508 705.497 635.496 705.299 636.454 C 705.2 636.93 705.054 637.395 704.865 637.842 C 704.674 638.29 704.441 638.719 704.168 639.123 C 703.891 639.531 703.573 639.91 703.219 640.254 L 702.445 639.499 C 703.05 638.912 703.532 638.211 703.861 637.435 C 704.191 636.666 704.36 635.837 704.358 634.999 C 704.36 634.162 704.191 633.333 703.861 632.563 C 703.532 631.787 703.05 631.085 702.445 630.499 L 703.219 629.746 L 703.219 629.746 Z " fill-rule="evenodd" fill="rgb(250,250,250)" />
                <path d=" M 705.525 627.5 C 706.03 627.992 706.485 628.533 706.881 629.116 C 707.275 629.697 707.608 630.305 707.88 630.944 C 708.152 631.582 708.357 632.242 708.497 632.925 C 708.635 633.606 708.705 634.299 708.705 635 C 708.705 635.701 708.635 636.394 708.497 637.076 C 708.359 637.756 708.152 638.419 707.88 639.057 C 707.607 639.697 707.273 640.309 706.881 640.884 C 706.485 641.467 706.03 642.008 705.525 642.5 L 704.759 641.754 C 705.214 641.312 705.623 640.825 705.979 640.3 C 706.686 639.264 707.181 638.098 707.434 636.869 C 707.689 635.636 707.689 634.364 707.434 633.131 C 707.18 631.902 706.686 630.736 705.979 629.7 C 705.623 629.175 705.214 628.688 704.759 628.246 L 705.525 627.5 Z " fill-rule="evenodd" fill="rgb(35,31,32)" />
                <path d=" M 697.052 628.635 L 697.826 628.635 L 697.826 641.365 L 697.052 641.365 L 693.786 638.183 L 691.295 638.183 L 691.295 631.817 L 693.786 631.817 L 697.053 628.635 L 697.052 628.635 Z  M 696.738 630.45 L 694.246 632.879 L 692.383 632.879 L 692.383 637.121 L 694.246 637.121 L 696.738 639.55 L 696.738 630.45 Z " fill-rule="evenodd" fill="rgb(250,250,250)" />
            </g>
            <g id="notifications">
                <path d=" M 721.596 627.5 L 740 627.5 L 740 640.093 L 733.113 640.093 L 730.798 642.5 L 728.768 640.093 L 721.595 640.093 L 721.595 627.5 L 721.596 627.5 Z " fill-rule="evenodd" fill="rgb(238,238,238)" />
                <rect x="722.929" y="629.176" width="15.906" height="1.309" transform="matrix(1,0,0,1,0,0)" fill="rgb(33,33,33)" />
                <rect x="722.929" y="631.793" width="15.906" height="1.309" transform="matrix(1,0,0,1,0,0)" fill="rgb(33,33,33)" />
                <rect x="722.929" y="634.41" width="15.906" height="1.309" transform="matrix(1,0,0,1,0,0)" fill="rgb(33,33,33)" />
                <rect x="722.929" y="637.028" width="15.906" height="1.309" transform="matrix(1,0,0,1,0,0)" fill="rgb(33,33,33)" />
            </g>
            <path d=" M 758.981 637.333 L 758.981 644.17 L 758.523 644.17 L 758.523 639.19 L 758.523 639.19 Q 758.523 638.512 758.579 637.782 L 758.579 637.782 L 758.579 637.782 Q 758.509 637.852 758.434 637.918 L 758.434 637.918 L 758.434 637.918 Q 758.359 637.983 756.989 639.054 L 756.989 639.054 L 756.723 638.722 L 758.579 637.333 L 758.981 637.333 Z  M 763.919 637.333 L 764.41 637.333 L 761.862 644.17 L 761.375 644.17 L 763.919 637.333 Z  M 769.329 643.721 L 769.329 644.17 L 765.051 644.17 L 765.051 643.758 L 766.87 641.86 L 766.87 641.86 Q 767.637 641.065 767.945 640.644 L 767.945 640.644 L 767.945 640.644 Q 768.254 640.223 768.399 639.84 L 768.399 639.84 L 768.399 639.84 Q 768.544 639.456 768.544 639.035 L 768.544 639.035 L 768.544 639.035 Q 768.544 638.423 768.142 638.039 L 768.142 638.039 L 768.142 638.039 Q 767.74 637.656 767.099 637.656 L 767.099 637.656 L 767.099 637.656 Q 766.243 637.656 765.462 638.278 L 765.462 638.278 L 765.21 637.955 L 765.21 637.955 Q 766.066 637.235 767.108 637.235 L 767.108 637.235 L 767.108 637.235 Q 768.001 637.235 768.513 637.712 L 768.513 637.712 L 768.513 637.712 Q 769.025 638.189 769.025 639.026 L 769.025 639.026 L 769.025 639.026 Q 769.025 639.704 768.682 640.338 L 768.682 640.338 L 768.682 640.338 Q 768.338 640.971 767.426 641.902 L 767.426 641.902 L 765.673 643.702 L 765.673 643.721 L 769.329 643.721 Z  M 772.5 640.059 L 772.5 640.059 L 772.5 640.059 Q 773.594 640.059 774.223 640.588 L 774.223 640.588 L 774.223 640.588 Q 774.852 641.116 774.852 642.042 L 774.852 642.042 L 774.852 642.042 Q 774.852 643.094 774.197 643.679 L 774.197 643.679 L 774.197 643.679 Q 773.543 644.263 772.392 644.263 L 772.392 644.263 L 772.392 644.263 Q 771.883 644.263 771.424 644.163 L 771.424 644.163 L 771.424 644.163 Q 770.966 644.062 770.657 643.875 L 770.657 643.875 L 770.657 643.393 L 770.657 643.393 Q 771.162 643.651 771.555 643.751 L 771.555 643.751 L 771.555 643.751 Q 771.948 643.852 772.392 643.852 L 772.392 643.852 L 772.392 643.852 Q 773.29 643.852 773.833 643.377 L 773.833 643.377 L 773.833 643.377 Q 774.375 642.902 774.375 642.094 L 774.375 642.094 L 774.375 642.094 Q 774.375 641.331 773.847 640.896 L 773.847 640.896 L 773.847 640.896 Q 773.318 640.462 772.411 640.462 L 772.411 640.462 L 772.411 640.462 Q 771.803 640.462 771.139 640.644 L 771.139 640.644 L 770.859 640.462 L 771.13 637.333 L 774.422 637.333 L 774.422 637.782 L 771.569 637.782 L 771.359 640.195 L 771.359 640.195 Q 772.088 640.059 772.5 640.059 Z  M 778.116 637.333 L 778.607 637.333 L 776.058 644.17 L 775.572 644.17 L 778.116 637.333 Z  M 783.526 643.721 L 783.526 644.17 L 779.247 644.17 L 779.247 643.758 L 781.066 641.86 L 781.066 641.86 Q 781.833 641.065 782.142 640.644 L 782.142 640.644 L 782.142 640.644 Q 782.451 640.223 782.596 639.84 L 782.596 639.84 L 782.596 639.84 Q 782.74 639.456 782.74 639.035 L 782.74 639.035 L 782.74 639.035 Q 782.74 638.423 782.338 638.039 L 782.338 638.039 L 782.338 638.039 Q 781.936 637.656 781.296 637.656 L 781.296 637.656 L 781.296 637.656 Q 780.44 637.656 779.659 638.278 L 779.659 638.278 L 779.406 637.955 L 779.406 637.955 Q 780.262 637.235 781.305 637.235 L 781.305 637.235 L 781.305 637.235 Q 782.198 637.235 782.71 637.712 L 782.71 637.712 L 782.71 637.712 Q 783.222 638.189 783.222 639.026 L 783.222 639.026 L 783.222 639.026 Q 783.222 639.704 782.878 640.338 L 782.878 640.338 L 782.878 640.338 Q 782.535 640.971 781.623 641.902 L 781.623 641.902 L 779.869 643.702 L 779.869 643.721 L 783.526 643.721 Z  M 789.119 640.733 L 789.119 640.733 L 789.119 640.733 Q 789.119 642.533 788.569 643.398 L 788.569 643.398 L 788.569 643.398 Q 788.02 644.263 786.907 644.263 L 786.907 644.263 L 786.907 644.263 Q 785.836 644.263 785.28 643.372 L 785.28 643.372 L 785.28 643.372 Q 784.723 642.482 784.723 640.733 L 784.723 640.733 L 784.723 640.733 Q 784.723 638.946 785.263 638.086 L 785.263 638.086 L 785.263 638.086 Q 785.803 637.226 786.907 637.226 L 786.907 637.226 L 786.907 637.226 Q 787.987 637.226 788.553 638.116 L 788.553 638.116 L 788.553 638.116 Q 789.119 639.007 789.119 640.733 Z  M 785.228 640.733 L 785.228 640.733 L 785.228 640.733 Q 785.228 642.323 785.644 643.083 L 785.644 643.083 L 785.644 643.083 Q 786.061 643.842 786.907 643.842 L 786.907 643.842 L 786.907 643.842 Q 787.791 643.842 788.195 643.057 L 788.195 643.057 L 788.195 643.057 Q 788.6 642.271 788.6 640.733 L 788.6 640.733 L 788.6 640.733 Q 788.6 639.218 788.195 638.432 L 788.195 638.432 L 788.195 638.432 Q 787.791 637.647 786.907 637.647 L 786.907 637.647 L 786.907 637.647 Q 786.023 637.647 785.626 638.432 L 785.626 638.432 L 785.626 638.432 Q 785.228 639.218 785.228 640.733 Z  M 792.841 637.333 L 792.841 644.17 L 792.383 644.17 L 792.383 639.19 L 792.383 639.19 Q 792.383 638.512 792.439 637.782 L 792.439 637.782 L 792.439 637.782 Q 792.369 637.852 792.294 637.918 L 792.294 637.918 L 792.294 637.918 Q 792.219 637.983 790.849 639.054 L 790.849 639.054 L 790.582 638.722 L 792.439 637.333 L 792.841 637.333 Z  M 797.84 637.216 L 797.84 637.216 L 797.84 637.216 Q 798.709 637.216 799.24 637.661 L 799.24 637.661 L 799.24 637.661 Q 799.771 638.105 799.771 638.862 L 799.771 638.862 L 799.771 638.862 Q 799.771 639.386 799.441 639.788 L 799.441 639.788 L 799.441 639.788 Q 799.112 640.19 798.373 640.532 L 798.373 640.532 L 798.373 640.532 Q 799.271 640.901 799.635 641.341 L 799.635 641.341 L 799.635 641.341 Q 800 641.78 800 642.407 L 800 642.407 L 800 642.407 Q 800 643.253 799.408 643.758 L 799.408 643.758 L 799.408 643.758 Q 798.817 644.263 797.821 644.263 L 797.821 644.263 L 797.821 644.263 Q 796.788 644.263 796.236 643.791 L 796.236 643.791 L 796.236 643.791 Q 795.684 643.319 795.684 642.416 L 795.684 642.416 L 795.684 642.416 Q 795.684 641.804 796.072 641.341 L 796.072 641.341 L 796.072 641.341 Q 796.46 640.878 797.274 640.55 L 797.274 640.55 L 797.274 640.55 Q 796.521 640.195 796.212 639.8 L 796.212 639.8 L 796.212 639.8 Q 795.904 639.405 795.904 638.853 L 795.904 638.853 L 795.904 638.853 Q 795.904 638.362 796.152 637.99 L 796.152 637.99 L 796.152 637.99 Q 796.399 637.618 796.846 637.417 L 796.846 637.417 L 796.846 637.417 Q 797.293 637.216 797.84 637.216 Z  M 796.161 642.486 L 796.161 642.486 L 796.161 642.486 Q 796.161 643.132 796.598 643.487 L 796.598 643.487 L 796.598 643.487 Q 797.035 643.842 797.821 643.842 L 797.821 643.842 L 797.821 643.842 Q 798.588 643.842 799.055 643.466 L 799.055 643.466 L 799.055 643.466 Q 799.523 643.09 799.523 642.444 L 799.523 642.444 L 799.523 642.444 Q 799.523 641.864 799.156 641.502 L 799.156 641.502 L 799.156 641.502 Q 798.789 641.14 797.741 640.742 L 797.741 640.742 L 797.741 640.742 Q 796.881 641.074 796.521 641.476 L 796.521 641.476 L 796.521 641.476 Q 796.161 641.878 796.161 642.486 Z  M 797.83 637.637 L 797.83 637.637 L 797.83 637.637 Q 797.171 637.637 796.771 637.962 L 796.771 637.962 L 796.771 637.962 Q 796.371 638.287 796.371 638.853 L 796.371 638.853 L 796.371 638.853 Q 796.371 639.18 796.519 639.43 L 796.519 639.43 L 796.519 639.43 Q 796.666 639.681 796.944 639.884 L 796.944 639.884 L 796.944 639.884 Q 797.222 640.087 797.877 640.359 L 797.877 640.359 L 797.877 640.359 Q 798.639 640.064 798.971 639.709 L 798.971 639.709 L 798.971 639.709 Q 799.303 639.353 799.303 638.853 L 799.303 638.853 L 799.303 638.853 Q 799.303 638.292 798.908 637.965 L 798.908 637.965 L 798.908 637.965 Q 798.513 637.637 797.83 637.637 Z  M 786.975 631.128 L 786.025 628.715 L 783.248 628.715 L 782.294 631.128 L 781.766 631.128 L 784.515 624.264 L 784.819 624.264 L 787.512 631.128 L 786.975 631.128 Z  M 784.379 625.83 L 783.421 628.285 L 785.866 628.285 L 784.936 625.821 L 784.936 625.821 Q 784.819 625.531 784.655 625.016 L 784.655 625.016 L 784.655 625.016 Q 784.529 625.465 784.379 625.83 L 784.379 625.83 Z  M 791.791 631.128 L 791.487 631.128 L 788.939 624.815 L 788.901 624.815 L 788.901 624.815 Q 788.939 625.395 788.939 626.003 L 788.939 626.003 L 788.939 631.128 L 788.48 631.128 L 788.48 624.292 L 789.219 624.292 L 791.641 630.305 L 791.67 630.305 L 794.092 624.292 L 794.812 624.292 L 794.812 631.128 L 794.33 631.128 L 794.33 625.947 L 794.33 625.947 Q 794.33 625.405 794.386 624.825 L 794.386 624.825 L 794.349 624.825 L 791.791 631.128 Z  M 761.214 628.215 L 761.214 628.215 L 761.214 628.215 Q 761.214 626.882 761.576 625.973 L 761.576 625.973 L 761.576 625.973 Q 761.939 625.063 762.605 624.624 L 762.605 624.624 L 762.605 624.624 Q 763.272 624.184 764.211 624.184 L 764.211 624.184 L 764.211 624.184 Q 764.651 624.184 765.016 624.292 L 765.016 624.292 L 765.016 624.703 L 765.016 624.703 Q 764.674 624.577 764.193 624.577 L 764.193 624.577 L 764.193 624.577 Q 763.038 624.577 762.395 625.409 L 762.395 625.409 L 762.395 625.409 Q 761.752 626.242 761.672 627.831 L 761.672 627.831 L 761.733 627.831 L 761.733 627.831 Q 762.088 627.373 762.547 627.139 L 762.547 627.139 L 762.547 627.139 Q 763.005 626.906 763.515 626.906 L 763.515 626.906 L 763.515 626.906 Q 764.473 626.906 765.013 627.453 L 765.013 627.453 L 765.013 627.453 Q 765.553 628 765.553 628.963 L 765.553 628.963 L 765.553 628.963 Q 765.553 630.01 764.985 630.616 L 764.985 630.616 L 764.985 630.616 Q 764.417 631.222 763.454 631.222 L 763.454 631.222 L 763.454 631.222 Q 762.416 631.222 761.815 630.429 L 761.815 630.429 L 761.815 630.429 Q 761.214 629.636 761.214 628.215 Z  M 763.454 630.81 L 763.454 630.81 L 763.454 630.81 Q 764.221 630.81 764.646 630.328 L 764.646 630.328 L 764.646 630.328 Q 765.072 629.847 765.072 628.954 L 765.072 628.954 L 765.072 628.954 Q 765.072 628.168 764.651 627.729 L 764.651 627.729 L 764.651 627.729 Q 764.23 627.289 763.505 627.289 L 763.505 627.289 L 763.505 627.289 Q 763.028 627.289 762.619 627.499 L 762.619 627.499 L 762.619 627.499 Q 762.21 627.71 761.967 628.058 L 761.967 628.058 L 761.967 628.058 Q 761.724 628.407 761.724 628.771 L 761.724 628.771 L 761.724 628.771 Q 761.724 629.29 761.955 629.77 L 761.955 629.77 L 761.955 629.77 Q 762.187 630.249 762.582 630.53 L 762.582 630.53 L 762.582 630.53 Q 762.977 630.81 763.454 630.81 Z  M 766.825 630.763 L 766.825 630.763 L 766.825 630.763 Q 766.825 630.305 767.199 630.305 L 767.199 630.305 L 767.199 630.305 Q 767.583 630.305 767.583 630.763 L 767.583 630.763 L 767.583 630.763 Q 767.583 631.222 767.199 631.222 L 767.199 631.222 L 767.199 631.222 Q 766.825 631.222 766.825 630.763 Z  M 766.825 626.588 L 766.825 626.588 L 766.825 626.588 Q 766.825 626.129 767.199 626.129 L 767.199 626.129 L 767.199 626.129 Q 767.583 626.129 767.583 626.588 L 767.583 626.588 L 767.583 626.588 Q 767.583 626.835 767.473 626.943 L 767.473 626.943 L 767.473 626.943 Q 767.363 627.05 767.199 627.05 L 767.199 627.05 L 767.199 627.05 Q 767.04 627.05 766.933 626.943 L 766.933 626.943 L 766.933 626.943 Q 766.825 626.835 766.825 626.588 Z  M 772.923 625.9 L 772.923 625.9 L 772.923 625.9 Q 772.923 626.536 772.523 626.971 L 772.523 626.971 L 772.523 626.971 Q 772.123 627.406 771.45 627.527 L 771.45 627.527 L 771.45 627.556 L 771.45 627.556 Q 772.273 627.658 772.703 628.079 L 772.703 628.079 L 772.703 628.079 Q 773.133 628.5 773.133 629.211 L 773.133 629.211 L 773.133 629.211 Q 773.133 630.169 772.481 630.696 L 772.481 630.696 L 772.481 630.696 Q 771.829 631.222 770.604 631.222 L 770.604 631.222 L 770.604 631.222 Q 769.561 631.222 768.785 630.833 L 768.785 630.833 L 768.785 630.371 L 768.785 630.371 Q 769.177 630.576 769.666 630.693 L 769.666 630.693 L 769.666 630.693 Q 770.155 630.81 770.585 630.81 L 770.585 630.81 L 770.585 630.81 Q 771.618 630.81 772.137 630.392 L 772.137 630.392 L 772.137 630.392 Q 772.656 629.973 772.656 629.211 L 772.656 629.211 L 772.656 629.211 Q 772.656 628.533 772.126 628.168 L 772.126 628.168 L 772.126 628.168 Q 771.595 627.803 770.566 627.803 L 770.566 627.803 L 769.827 627.803 L 769.827 627.354 L 770.576 627.354 L 770.576 627.354 Q 771.427 627.354 771.925 626.95 L 771.925 626.95 L 771.925 626.95 Q 772.423 626.545 772.423 625.853 L 772.423 625.853 L 772.423 625.853 Q 772.423 625.283 772.018 624.939 L 772.018 624.939 L 772.018 624.939 Q 771.614 624.596 770.959 624.596 L 770.959 624.596 L 770.959 624.596 Q 770.449 624.596 770.029 624.738 L 770.029 624.738 L 770.029 624.738 Q 769.608 624.881 769.084 625.227 L 769.084 625.227 L 768.855 624.914 L 768.855 624.914 Q 769.252 624.582 769.813 624.387 L 769.813 624.387 L 769.813 624.387 Q 770.375 624.193 770.95 624.193 L 770.95 624.193 L 770.95 624.193 Q 771.894 624.193 772.409 624.64 L 772.409 624.64 L 772.409 624.64 Q 772.923 625.087 772.923 625.9 Z  M 778.745 627.691 L 778.745 627.691 L 778.745 627.691 Q 778.745 629.491 778.195 630.356 L 778.195 630.356 L 778.195 630.356 Q 777.646 631.222 776.533 631.222 L 776.533 631.222 L 776.533 631.222 Q 775.462 631.222 774.906 630.331 L 774.906 630.331 L 774.906 630.331 Q 774.349 629.44 774.349 627.691 L 774.349 627.691 L 774.349 627.691 Q 774.349 625.905 774.889 625.044 L 774.889 625.044 L 774.889 625.044 Q 775.429 624.184 776.533 624.184 L 776.533 624.184 L 776.533 624.184 Q 777.613 624.184 778.179 625.075 L 778.179 625.075 L 778.179 625.075 Q 778.745 625.966 778.745 627.691 Z  M 774.854 627.691 L 774.854 627.691 L 774.854 627.691 Q 774.854 629.281 775.27 630.041 L 775.27 630.041 L 775.27 630.041 Q 775.687 630.801 776.533 630.801 L 776.533 630.801 L 776.533 630.801 Q 777.417 630.801 777.821 630.015 L 777.821 630.015 L 777.821 630.015 Q 778.226 629.23 778.226 627.691 L 778.226 627.691 L 778.226 627.691 Q 778.226 626.176 777.821 625.39 L 777.821 625.39 L 777.821 625.39 Q 777.417 624.605 776.533 624.605 L 776.533 624.605 L 776.533 624.605 Q 775.649 624.605 775.252 625.39 L 775.252 625.39 L 775.252 625.39 Q 774.854 626.176 774.854 627.691 Z " fill-rule="evenodd" fill="rgb(250,250,250)" />
            <g id="windows logo">
                <path d=" M 650.8 483.832 L 650.8 424.997 L 730.798 424.997 L 730.798 494.995 L 650.8 483.827 L 650.8 483.832 Z  M 650.8 356.178 L 730.798 345.005 L 730.798 415.003 L 650.8 415.003 L 650.8 356.184 L 650.8 356.178 Z  M 580.802 474.069 L 580.802 424.997 L 640.8 424.997 L 640.8 482.417 L 580.802 474.059 L 580.802 474.069 Z  M 580.802 415.008 L 580.802 365.941 L 640.8 357.583 L 640.8 415.003 L 580.802 415.003 L 580.802 415.008 Z " fill-rule="evenodd" fill="rgb(250,250,250)" />
            </g>
        </g>
    </g>
</svg>