<?xml version="1.0" standalone="no"?>
<!-- Generator: Gravit.io -->
<svg xmlns="http://www.w3.org/2000/svg" xmlns:xlink="http://www.w3.org/1999/xlink" style="isolation:isolate" viewBox="0 0 1024 1024" width="1024" height="1024">
    <defs>
        <clipPath id="_clipPath_6nPECsOY7fQzE1Bdt4Bwn4ksveGqVGp0">
            <rect width="1024" height="1024" />
        </clipPath>
    </defs>
    <g clip-path="url(#_clipPath_6nPECsOY7fQzE1Bdt4Bwn4ksveGqVGp0)">
        <rect x="86" y="89.897" width="850" height="850" transform="matrix(1,0,0,1,0,0)" fill="rgb(144,164,174)" />
        <rect x="86" y="710" width="850" height="229.897" transform="matrix(1,0,0,1,0,0)" fill="rgb(84,110,122)" />
        <g id="PC">
            <path d=" M 427.405 759.207 L 597.405 759.207 L 578.329 639.207 L 446.481 639.207 L 427.405 759.207 Z " fill-rule="evenodd" fill="rgb(33,33,33)" />
            <mask id="_mask_2EP71Z3QcSjIrhArf7qPcY1WnOxjkAVe">
                <path d=" M 695.777 604.793 L 171 604.793 L 171 818.438 C 171 830.224 180.569 839.793 192.355 839.793 L 829.645 839.793 C 841.431 839.793 851 830.224 851 818.438 L 851 604.793 L 695.777 604.793 Z " fill-rule="evenodd" fill="white" stroke="none" />
            </mask>
            <path d=" M 695.777 604.793 L 171 604.793 L 171 818.438 C 171 830.224 180.569 839.793 192.355 839.793 L 829.645 839.793 C 841.431 839.793 851 830.224 851 818.438 L 851 604.793 L 695.777 604.793 Z " fill-rule="evenodd" fill="none" mask="url(#_mask_2EP71Z3QcSjIrhArf7qPcY1WnOxjkAVe)" vector-effect="non-scaling-stroke" stroke-width="85.597" stroke="rgb(33,33,33)" stroke-linejoin="miter" stroke-linecap="square" stroke-miterlimit="10" />
            <path d=" M 171 208.066 L 171 671.934 C 171 681.905 179.095 690 189.066 690 L 832.934 690 C 842.905 690 851 681.905 851 671.934 L 851 208.066 C 851 198.095 842.905 190 832.934 190 L 189.066 190 C 179.095 190 171 198.095 171 208.066 Z " fill-rule="evenodd" fill="rgb(66,66,66)" />
            <path d=" M 211 230 L 210 650 L 810 650 L 811 230 L 211 230 Z " fill-rule="evenodd" fill="rgb(33,33,33)" />
        </g>
        <g id="Linux Mint">
            <path d=" M 210 600 L 210 650 L 810 650 L 810 600 L 210 600 Z " fill-rule="evenodd" fill="rgb(97,97,97)" />
            <g id="Linux Mint logo">
                <path d=" M 246.367 633.621 C 246.367 630.035 246.367 621.578 246.367 621.578 C 246.367 617.554 242.839 614.292 238.485 614.292 L 233.967 614.292 L 233.967 614.283 L 221.746 614.229 L 221.746 618.624 C 221.746 618.624 222.743 618.624 223.622 618.624 C 224.931 618.624 225.162 619.528 225.162 620.779 L 225.172 628.547 C 225.172 632.571 228.701 635.832 233.049 635.832 L 243.786 635.832 C 245.163 635.832 246.367 634.961 246.367 633.621 L 246.367 633.621 Z " fill-rule="evenodd" fill="rgb(156,204,101)" />
                <path d=" M 245.421 634.793 C 242.676 632.901 240.611 630.573 238.973 627.695 C 235.744 621.73 236.641 617.86 228.502 617.761 C 226.195 617.761 224.382 617.761 221.953 617.761 L 221.953 618.807 Q 223.476 618.684 224.131 619.147 Q 224.753 619.586 225.172 620.968 L 225.172 628.337 C 225.172 632.203 228.871 635.585 233.049 635.585 L 243.402 635.585 C 244.159 635.585 244.959 635.269 245.421 634.793 Z " fill="rgb(139,195,74)" />
                <path d=" M 235.746 618.807 C 234.766 618.807 233.895 619.171 233.196 619.877 C 232.496 620.584 232.129 621.465 232.129 622.46 L 232.129 627.49 L 234.411 627.49 L 234.411 622.46 C 234.411 622.079 234.535 621.781 234.807 621.506 C 235.081 621.23 235.37 621.105 235.746 621.105 C 236.129 621.105 236.414 621.229 236.688 621.506 C 236.96 621.781 237.085 622.079 237.085 622.46 L 237.085 627.49 L 239.366 627.49 L 239.366 622.46 C 239.366 622.079 239.49 621.781 239.763 621.506 C 240.036 621.229 240.321 621.105 240.705 621.105 C 241.081 621.105 241.37 621.23 241.643 621.506 C 241.915 621.781 242.04 622.079 242.04 622.46 L 242.052 628.337 C 242.052 629.591 240.858 630.647 239.325 630.647 L 231.968 630.618 C 230.785 630.618 229.774 629.466 229.774 627.986 L 229.774 616.919 L 227.616 616.919 L 227.616 628.412 C 227.616 629.631 228.063 630.7 228.931 631.565 C 229.672 632.297 230.565 632.731 231.567 632.838 L 231.567 632.879 L 239.759 632.879 C 241.017 632.879 242.123 632.411 243.015 631.503 L 243.019 631.503 C 243.778 630.723 244.222 629.789 244.329 628.738 L 244.321 622.46 C 244.321 621.465 243.954 620.584 243.255 619.877 C 242.555 619.171 241.685 618.807 240.705 618.807 C 239.743 618.807 238.902 619.165 238.221 619.819 C 237.543 619.166 236.707 618.807 235.746 618.807 L 235.746 618.807 Z " fill-rule="evenodd" fill="rgb(0,0,0)" fill-opacity="0.08040203" />
                <path d=" M 235.563 618.867 C 234.584 618.867 233.713 619.231 233.013 619.937 C 232.314 620.643 231.947 621.525 231.947 622.52 L 231.947 627.55 L 234.228 627.55 L 234.228 622.52 C 234.228 622.139 234.353 621.841 234.625 621.566 C 234.898 621.29 235.188 621.165 235.563 621.165 C 235.947 621.165 236.232 621.289 236.506 621.566 C 236.778 621.841 236.902 622.139 236.902 622.52 L 236.902 627.55 L 239.184 627.55 L 239.184 622.52 C 239.184 622.139 239.308 621.841 239.58 621.566 C 239.854 621.289 240.139 621.165 240.523 621.165 C 240.898 621.165 241.188 621.29 241.461 621.566 C 241.733 621.841 241.858 622.139 241.858 622.52 L 241.87 628.397 C 241.87 629.651 240.676 630.707 239.142 630.707 L 231.786 630.678 C 230.602 630.678 229.591 629.526 229.591 628.046 L 229.591 616.979 L 227.434 616.979 L 227.434 628.471 C 227.434 629.691 227.88 630.76 228.748 631.625 C 229.49 632.357 230.383 632.832 231.385 632.939 L 239.576 632.939 C 240.835 632.939 241.941 632.471 242.833 631.563 L 242.837 631.563 C 243.596 630.783 244.039 629.849 244.147 628.798 L 244.139 622.52 C 244.139 621.525 243.772 620.643 243.073 619.937 C 242.373 619.231 241.503 618.867 240.523 618.867 C 239.561 618.867 238.719 619.224 238.039 619.879 C 237.36 619.226 236.525 618.867 235.563 618.867 L 235.563 618.867 Z " fill-rule="evenodd" fill="rgb(255,255,255)" />
                <path d=" M 234.222 630.686 L 234.222 632.939 L 239.58 632.939 C 240.839 632.939 241.938 632.47 242.83 631.561 L 242.838 631.561 C 243.597 630.782 244.039 629.85 244.147 628.798 L 244.147 627.52 L 241.871 627.52 L 241.871 628.395 C 241.871 629.649 240.68 630.701 239.146 630.701 L 234.222 630.686 L 234.222 630.686 Z " fill-rule="evenodd" fill="rgb(197,225,165)" />
                <path d=" M 232.978 637.5 C 227.792 637.5 223.292 633.569 223.292 628.388 L 223.288 622.097 L 223.288 620.493 L 220 620.493 L 220 612.5 L 233.864 612.565 L 238.201 612.575 C 243.391 612.575 247.887 616.501 247.887 621.687 L 247.887 637.5 L 232.978 637.5 L 232.978 637.5 L 232.978 637.5 L 232.978 637.5 Z  M 245.774 633.258 C 245.774 629.813 245.774 621.687 245.774 621.687 C 245.774 617.821 242.384 614.687 238.201 614.687 L 233.859 614.687 L 233.859 614.678 L 222.117 614.626 L 222.117 618.38 C 222.117 618.38 222.589 618.38 223.432 618.38 C 224.326 618.38 225.4 619.22 225.4 620.451 L 225.409 628.383 C 225.409 632.249 228.8 635.383 232.978 635.383 L 243.294 635.383 C 244.617 635.383 245.774 634.545 245.774 633.258 L 245.774 633.258 Z " fill-rule="evenodd" fill="rgb(255,255,255)" />
            </g>
            <path d=" M 269.705 632.759 L 268.367 632.759 L 263.523 620.103 L 263.445 620.103 L 263.445 620.103 Q 263.582 621.606 263.582 623.677 L 263.582 623.677 L 263.582 632.759 L 262.049 632.759 L 262.049 618.481 L 264.549 618.481 L 269.07 630.259 L 269.148 630.259 L 273.709 618.481 L 276.189 618.481 L 276.189 632.759 L 274.529 632.759 L 274.529 623.56 L 274.529 623.56 Q 274.529 621.978 274.666 620.122 L 274.666 620.122 L 274.588 620.122 L 269.705 632.759 Z  M 284.383 632.954 L 284.383 632.954 L 284.383 632.954 Q 282.01 632.954 280.638 631.509 L 280.638 631.509 L 280.638 631.509 Q 279.266 630.063 279.266 627.495 L 279.266 627.495 L 279.266 627.495 Q 279.266 624.907 280.54 623.384 L 280.54 623.384 L 280.54 623.384 Q 281.814 621.86 283.963 621.86 L 283.963 621.86 L 283.963 621.86 Q 285.975 621.86 287.146 623.184 L 287.146 623.184 L 287.146 623.184 Q 288.318 624.507 288.318 626.675 L 288.318 626.675 L 288.318 627.7 L 280.945 627.7 L 280.945 627.7 Q 280.994 629.585 281.897 630.562 L 281.897 630.562 L 281.897 630.562 Q 282.801 631.538 284.441 631.538 L 284.441 631.538 L 284.441 631.538 Q 286.17 631.538 287.859 630.815 L 287.859 630.815 L 287.859 632.261 L 287.859 632.261 Q 287 632.632 286.233 632.793 L 286.233 632.793 L 286.233 632.793 Q 285.467 632.954 284.383 632.954 Z  M 283.943 623.218 L 283.943 623.218 L 283.943 623.218 Q 282.654 623.218 281.888 624.058 L 281.888 624.058 L 281.888 624.058 Q 281.121 624.897 280.984 626.382 L 280.984 626.382 L 286.58 626.382 L 286.58 626.382 Q 286.58 624.849 285.896 624.033 L 285.896 624.033 L 285.896 624.033 Q 285.213 623.218 283.943 623.218 Z  M 300.027 632.759 L 298.406 632.759 L 298.406 625.835 L 298.406 625.835 Q 298.406 624.526 297.811 623.882 L 297.811 623.882 L 297.811 623.882 Q 297.215 623.237 295.945 623.237 L 295.945 623.237 L 295.945 623.237 Q 294.266 623.237 293.484 624.146 L 293.484 624.146 L 293.484 624.146 Q 292.703 625.054 292.703 627.144 L 292.703 627.144 L 292.703 632.759 L 291.082 632.759 L 291.082 622.056 L 292.4 622.056 L 292.664 623.521 L 292.742 623.521 L 292.742 623.521 Q 293.24 622.729 294.139 622.295 L 294.139 622.295 L 294.139 622.295 Q 295.037 621.86 296.141 621.86 L 296.141 621.86 L 296.141 621.86 Q 298.074 621.86 299.051 622.793 L 299.051 622.793 L 299.051 622.793 Q 300.027 623.726 300.027 625.776 L 300.027 625.776 L 300.027 632.759 Z  M 303.24 622.056 L 304.881 622.056 L 304.881 628.999 L 304.881 628.999 Q 304.881 630.308 305.477 630.952 L 305.477 630.952 L 305.477 630.952 Q 306.072 631.597 307.342 631.597 L 307.342 631.597 L 307.342 631.597 Q 309.021 631.597 309.798 630.679 L 309.798 630.679 L 309.798 630.679 Q 310.574 629.761 310.574 627.681 L 310.574 627.681 L 310.574 622.056 L 312.195 622.056 L 312.195 632.759 L 310.857 632.759 L 310.623 631.323 L 310.535 631.323 L 310.535 631.323 Q 310.037 632.114 309.153 632.534 L 309.153 632.534 L 309.153 632.534 Q 308.27 632.954 307.137 632.954 L 307.137 632.954 L 307.137 632.954 Q 305.184 632.954 304.212 632.026 L 304.212 632.026 L 304.212 632.026 Q 303.24 631.099 303.24 629.058 L 303.24 629.058 L 303.24 622.056 Z " fill-rule="evenodd" fill="rgb(250,250,250)" />
            <g id="Show and Hide">
                <rect x="322.625" y="612.5" width="25" height="25" transform="matrix(1,0,0,1,0,0)" fill="rgb(104,159,56)" />
                <rect x="322.625" y="612.5" width="25" height="3.125" transform="matrix(1,0,0,1,0,0)" fill="rgb(207,216,220)" />
                <rect x="327.052" y="631.042" width="16.146" height="6.458" transform="matrix(1,0,0,1,0,0)" fill="rgb(85,139,47)" />
            </g>
            <clipPath id="_clipPath_7eQ0LAfMr5CJIjWjBfjrcBt9WEmLD17t">
                <rect x="360" y="610" width="30" height="30" transform="matrix(1,0,0,1,0,0)" fill="rgb(255,255,255)" />
            </clipPath>
            <g clip-path="url(#_clipPath_7eQ0LAfMr5CJIjWjBfjrcBt9WEmLD17t)">
                <g id="Group">
                    <rect x="362.549" y="612.549" width="24.902" height="24.902" transform="matrix(1,0,0,1,0,0)" fill="rgb(30,136,229)" />
                    <g id="firefox-quantum">
                        <path d=" M 381.556 616.058 C 381.021 616.681 380.772 618.082 381.315 619.503 C 381.857 620.923 382.688 620.615 383.206 622.063 C 383.89 623.975 383.571 626.542 383.571 626.542 C 383.571 626.542 384.393 628.923 384.966 626.394 C 386.234 621.645 381.556 617.228 381.556 616.058 Z " fill="rgb(255,152,0)" />
                        <path d=" M 375.031 635.777 C 380.507 635.777 384.943 631.317 384.943 625.817 C 384.943 620.318 380.507 615.858 375.036 615.858 C 369.566 615.858 365.129 620.318 365.129 625.817 C 365.119 631.322 369.56 635.777 375.031 635.777 Z " fill="rgb(21,101,192)" />
                        <path d=" M 382.458 631.959 C 382.244 632.11 382.019 632.246 381.785 632.365 C 382.095 631.911 382.38 631.442 382.641 630.959 C 382.852 630.725 383.045 630.498 383.203 630.252 C 383.28 630.131 383.366 629.982 383.458 629.81 C 384.014 628.807 384.628 627.184 384.645 625.518 L 384.645 625.514 C 384.646 625.473 384.646 625.432 384.646 625.391 C 384.649 624.972 384.606 624.555 384.518 624.146 C 384.523 624.178 384.527 624.21 384.531 624.242 C 384.526 624.217 384.522 624.192 384.516 624.168 C 384.524 624.213 384.531 624.257 384.538 624.301 C 384.652 625.266 384.571 626.208 384.166 626.901 C 384.159 626.912 384.153 626.921 384.146 626.931 C 384.356 625.876 384.427 624.712 384.193 623.546 C 384.193 623.546 384.099 622.979 383.403 621.258 C 383.002 620.268 382.29 619.456 381.661 618.864 C 381.11 618.182 380.609 617.725 380.333 617.434 C 379.756 616.827 379.515 616.372 379.416 616.075 C 379.329 616.032 378.229 614.963 378.142 614.922 C 377.661 615.667 376.151 617.996 376.869 620.173 C 377.195 621.159 378.018 622.183 378.88 622.757 C 378.918 622.8 379.393 623.316 379.619 624.48 C 379.853 625.682 379.73 626.62 379.25 628.008 C 378.685 629.225 377.239 630.428 375.884 630.551 C 372.988 630.814 371.928 629.097 371.928 629.097 C 372.963 629.511 374.107 629.424 374.803 628.995 C 375.504 628.562 375.928 628.24 376.272 628.367 C 376.612 628.493 376.882 628.127 376.639 627.747 C 376.257 627.157 375.559 626.853 374.866 626.975 C 374.165 627.089 373.522 627.645 372.602 627.106 C 372.542 627.072 372.485 627.034 372.429 626.993 C 372.369 626.954 372.626 627.054 372.566 627.009 C 372.387 626.912 372.071 626.7 371.988 626.624 C 371.975 626.612 372.127 626.673 372.114 626.66 C 371.254 625.952 371.361 625.474 371.388 625.174 C 371.41 624.934 371.566 624.626 371.829 624.502 C 371.956 624.571 372.035 624.624 372.035 624.624 C 372.035 624.624 371.981 624.513 371.952 624.455 C 371.962 624.45 371.972 624.451 371.982 624.447 C 372.086 624.497 372.317 624.628 372.438 624.708 C 372.596 624.819 372.646 624.918 372.646 624.918 C 372.646 624.918 372.688 624.895 372.657 624.798 C 372.646 624.758 372.598 624.632 372.441 624.504 L 372.451 624.505 C 372.545 624.559 372.634 624.62 372.716 624.689 C 372.76 624.529 372.84 624.361 372.822 624.062 C 372.812 623.851 372.817 623.797 372.779 623.716 C 372.746 623.646 372.798 623.618 372.856 623.691 C 372.846 623.634 372.829 623.579 372.806 623.526 L 372.807 623.52 C 372.879 623.269 374.331 622.617 374.437 622.54 C 374.61 622.418 374.756 622.259 374.864 622.076 C 374.945 621.947 375.005 621.767 375.02 621.493 C 375.028 621.295 374.936 621.164 373.468 621.01 C 373.066 620.971 372.831 620.68 372.697 620.411 C 372.673 620.353 372.648 620.301 372.623 620.249 C 372.599 620.187 372.58 620.125 372.566 620.06 C 372.806 619.371 373.209 618.788 373.802 618.348 C 373.834 618.318 373.673 618.355 373.705 618.326 C 373.743 618.291 373.989 618.192 374.035 618.17 C 374.092 618.143 373.792 618.016 373.528 618.047 C 373.258 618.077 373.201 618.109 373.057 618.17 C 373.117 618.111 373.307 618.033 373.262 618.034 C 372.972 618.078 372.611 618.247 372.302 618.438 C 372.301 618.405 372.308 618.372 372.321 618.341 C 372.177 618.402 371.824 618.649 371.721 618.858 C 371.725 618.818 371.727 618.778 371.727 618.737 C 371.617 618.829 371.518 618.932 371.432 619.046 L 371.427 619.051 C 370.592 618.715 369.858 618.693 369.237 618.844 C 369.101 618.707 369.035 618.807 368.726 618.128 C 368.705 618.087 368.742 618.168 368.726 618.128 C 368.675 617.996 368.757 618.303 368.726 618.128 C 368.206 618.538 367.522 619.003 367.193 619.331 C 367.189 619.344 367.576 619.222 367.193 619.331 C 367.059 619.369 367.068 619.449 367.048 620.168 C 367.043 620.223 367.047 620.284 367.043 620.333 C 366.78 620.667 366.602 620.95 366.534 621.097 C 366.195 621.682 365.821 622.593 365.459 624.035 C 365.619 623.644 365.812 623.267 366.035 622.909 C 365.734 623.674 365.443 624.876 365.384 626.726 C 365.457 626.344 365.551 625.967 365.664 625.595 C 365.593 627.13 365.858 628.662 366.44 630.085 C 366.648 630.594 366.993 631.368 367.579 632.215 C 369.422 634.154 372.022 635.361 374.9 635.361 C 377.905 635.361 380.604 634.047 382.458 631.959 Z " fill="rgb(13,71,161)" />
                        <path d=" M 380.235 633.367 C 383.871 632.946 385.481 629.198 383.414 629.125 C 381.546 629.065 378.512 633.566 380.235 633.367 Z " fill="rgb(211,47,47)" />
                        <path d=" M 383.676 628.359 C 386.178 626.903 385.526 623.757 385.526 623.757 C 385.526 623.757 384.56 624.879 383.904 626.667 C 383.256 628.438 382.171 629.238 383.676 628.359 Z " fill="rgb(229,57,53)" />
                        <path d=" M 375.732 635.228 C 379.221 636.342 382.219 633.594 380.371 632.676 C 378.691 631.848 374.076 634.702 375.732 635.228 Z " fill="rgb(198,40,40)" />
                        <path d=" M 383.936 629.695 C 384.021 629.575 384.135 629.191 384.237 629.02 C 384.853 628.026 384.857 627.233 384.857 627.215 C 385.229 625.357 385.195 624.598 384.966 623.194 C 384.782 622.065 383.977 620.446 383.279 619.666 C 382.56 618.863 383.066 619.125 382.37 618.538 C 381.76 617.862 381.168 617.192 380.846 616.923 C 378.518 614.976 378.57 614.562 378.615 614.492 C 378.608 614.5 378.596 614.513 378.582 614.529 C 378.555 614.419 378.535 614.326 378.535 614.326 C 378.535 614.326 377.262 615.599 376.994 617.72 C 376.82 619.105 377.338 620.549 378.089 621.472 C 378.48 621.95 378.921 622.384 379.406 622.767 L 379.406 622.766 C 379.973 623.581 380.285 624.586 380.285 625.667 C 380.285 628.375 378.089 630.569 375.381 630.569 C 375.011 630.57 374.643 630.528 374.283 630.446 C 373.005 630.203 372.267 629.558 371.899 629.12 C 371.688 628.869 371.599 628.686 371.599 628.686 C 372.744 629.097 374.01 629.011 374.78 628.586 C 375.556 628.155 376.025 627.836 376.406 627.962 C 376.782 628.087 377.081 627.724 376.813 627.347 C 376.55 626.971 375.866 626.432 374.85 626.582 C 374.074 626.695 373.362 627.246 372.344 626.712 C 372.279 626.678 372.215 626.641 372.153 626.6 C 372.086 626.561 372.371 626.66 372.305 626.615 C 372.107 626.519 371.756 626.309 371.665 626.234 C 371.65 626.222 371.819 626.282 371.804 626.27 C 370.852 625.568 370.971 625.093 371.001 624.796 C 371.025 624.558 371.197 624.253 371.489 624.129 C 371.629 624.198 371.717 624.25 371.717 624.25 C 371.717 624.25 371.657 624.14 371.625 624.082 C 371.636 624.078 371.647 624.079 371.658 624.075 C 371.773 624.125 372.028 624.254 372.162 624.333 C 372.337 624.444 372.393 624.542 372.393 624.542 C 372.393 624.542 372.439 624.52 372.405 624.423 C 372.392 624.384 372.339 624.258 372.166 624.131 L 372.177 624.133 C 372.28 624.185 372.378 624.246 372.47 624.315 C 372.519 624.156 372.607 623.99 372.588 623.693 C 372.576 623.484 372.581 623.43 372.54 623.349 C 372.504 623.28 372.561 623.253 372.625 623.325 C 372.614 623.268 372.595 623.213 372.57 623.161 L 372.571 623.156 C 372.65 622.907 374.257 622.26 374.374 622.184 C 374.563 622.066 374.724 621.909 374.847 621.723 C 374.937 621.596 375.004 621.417 375.02 621.145 C 375.026 621.023 374.988 620.926 374.562 620.833 C 374.307 620.778 373.912 620.724 373.302 620.666 C 372.858 620.627 372.597 620.339 372.449 620.072 C 372.422 620.015 372.394 619.963 372.367 619.911 C 372.341 619.851 372.32 619.788 372.304 619.725 C 372.57 619.028 373.048 618.434 373.672 618.026 C 373.708 617.997 373.529 618.034 373.565 618.004 C 373.607 617.97 373.879 617.872 373.93 617.85 C 373.993 617.823 373.661 617.697 373.369 617.728 C 373.07 617.758 373.007 617.79 372.848 617.85 C 372.914 617.791 373.124 617.714 373.075 617.715 C 372.753 617.759 372.353 617.926 372.012 618.116 C 372.011 618.083 372.018 618.05 372.032 618.02 C 371.873 618.08 371.482 618.325 371.368 618.532 C 371.373 618.492 371.375 618.453 371.375 618.413 C 371.255 618.502 371.146 618.605 371.049 618.719 L 371.043 618.723 C 370.12 618.39 369.307 618.369 368.62 618.518 C 368.469 618.383 368.227 618.178 367.885 617.504 C 367.862 617.464 367.849 617.588 367.832 617.548 C 367.699 617.24 367.618 616.734 367.631 616.386 C 367.631 616.386 367.356 616.511 367.129 617.035 C 367.087 617.129 367.059 617.181 367.032 617.233 C 367.02 617.248 367.061 617.061 367.054 617.071 C 367.014 617.138 366.912 617.231 366.867 617.353 C 366.836 617.442 366.793 617.493 366.765 617.605 L 366.759 617.615 C 366.756 617.582 366.767 617.479 366.759 617.5 C 366.653 617.716 366.561 617.938 366.484 618.167 C 366.362 618.57 366.219 619.118 366.197 619.832 C 366.191 619.886 366.196 619.946 366.191 619.995 C 365.901 620.327 365.703 620.607 365.628 620.753 C 365.253 621.333 364.839 622.236 364.438 623.666 C 364.617 623.275 364.83 622.902 365.076 622.55 C 364.742 623.309 364.42 624.5 364.356 626.335 C 364.437 625.956 364.54 625.581 364.665 625.213 C 364.608 626.437 364.75 627.954 365.524 629.666 C 365.983 630.673 367.041 632.717 369.624 634.313 L 369.624 634.313 C 369.624 634.313 370.503 634.967 372.014 635.458 C 372.125 635.498 372.238 635.538 372.354 635.577 C 372.318 635.562 372.283 635.547 372.249 635.531 C 373.254 635.832 374.298 635.986 375.348 635.986 C 379.26 635.99 380.413 634.419 380.413 634.419 C 380.413 634.419 380.409 634.422 380.402 634.427 Q 380.485 634.349 380.561 634.265 C 379.944 634.848 378.536 634.887 378.009 634.845 C 378.907 634.581 379.498 634.358 380.648 633.917 Q 380.85 633.843 381.061 633.747 C 381.076 633.74 381.091 633.733 381.107 633.726 C 381.134 633.713 381.162 633.701 381.19 633.687 C 381.75 633.423 382.277 633.093 382.759 632.705 C 383.914 631.783 384.165 630.884 384.296 630.291 C 384.278 630.348 384.221 630.48 384.181 630.566 C 383.883 631.202 383.224 631.592 382.508 631.927 C 382.849 631.48 383.165 631.014 383.454 630.533 C 383.688 630.301 383.761 629.938 383.936 629.695 Z " fill="rgb(230,81,0)" />
                        <path d=" M 382.53 631.9 C 383.001 631.381 383.424 630.787 383.744 630.114 C 384.568 628.381 385.842 625.501 384.839 622.493 C 384.046 620.115 382.957 618.815 381.574 617.545 C 379.329 615.482 378.702 614.561 378.702 614.014 C 378.702 614.014 376.11 616.903 377.234 619.917 C 378.359 622.931 380.661 622.821 382.184 625.966 C 383.977 629.667 380.734 633.706 378.052 634.836 C 378.217 634.8 384.014 633.488 384.318 630.172 C 384.312 630.233 384.181 631.15 382.53 631.9 Z " fill="rgb(255,152,0)" />
                        <path d=" M 375.02 621.145 C 375.029 620.949 374.927 620.818 373.308 620.666 C 372.642 620.604 372.387 619.989 372.309 619.729 C 372.072 620.345 371.974 620.991 372.027 621.772 C 372.063 622.284 372.406 622.833 372.571 623.156 C 372.571 623.156 372.607 623.108 372.624 623.091 C 372.934 622.769 374.231 622.278 374.352 622.208 C 374.487 622.123 374.998 621.75 375.02 621.145 Z " fill="rgb(255,143,0)" />
                        <path d=" M 367.891 617.508 C 367.868 617.467 367.855 617.591 367.837 617.551 C 367.704 617.243 367.623 616.743 367.643 616.39 C 367.643 616.39 367.367 616.515 367.14 617.039 C 367.098 617.133 367.07 617.185 367.043 617.237 C 367.031 617.252 367.072 617.065 367.065 617.075 C 367.026 617.142 366.923 617.236 366.879 617.351 C 366.842 617.446 366.804 617.497 366.776 617.614 C 366.767 617.646 366.784 617.473 366.777 617.494 C 366.247 618.517 366.146 620.064 366.202 619.999 C 367.329 618.795 368.621 618.51 368.621 618.51 C 368.484 618.409 368.185 618.116 367.891 617.508 L 367.891 617.508 Z " fill="rgb(211,47,47)" />
                        <path d=" M 382.526 631.914 C 384.852 629.631 386.029 626.855 385.532 623.741 C 385.532 623.741 385.73 625.338 384.977 626.971 C 385.339 625.377 385.381 623.395 384.419 621.344 C 383.135 618.606 381.024 617.165 380.218 616.563 C 378.996 615.653 378.49 614.725 378.481 614.534 C 378.116 615.281 377.012 617.843 378.362 620.049 C 379.627 622.116 381.62 622.73 383.014 624.626 C 385.584 628.119 382.526 631.914 382.526 631.914 Z " fill="rgb(253,216,53)" />
                        <path d=" M 382.193 625.972 C 381.38 624.293 380.366 623.561 379.406 622.767 C 379.518 622.923 379.545 622.979 379.607 623.08 C 380.452 623.98 381.697 626.176 380.793 628.932 C 379.091 634.121 372.282 631.678 371.568 630.992 C 371.857 633.995 376.884 635.432 380.156 633.484 C 382.019 631.721 383.525 628.724 382.193 625.972 Z " fill="rgb(255,111,0)" />
                    </g>
                </g>
            </g>
            <g id="Terminal">
                <rect x="402.625" y="612.5" width="25" height="25" transform="matrix(1,0,0,1,0,0)" fill="rgb(33,33,33)" />
                <path d=" M 402.625 612.5 L 427.625 612.5 L 427.625 637.5 L 402.625 637.5 L 402.625 612.5 Z  M 404.1 614 L 426.1 614 L 426.1 636 L 404.1 636 L 404.1 614 Z " fill-rule="evenodd" fill="rgb(250,250,250)" />
                <path d=" M 409.6 620.6 C 409.1 620.4 408.9 619.8 409.1 619.3 C 409.3 618.8 409.9 618.6 410.4 618.8 L 419.769 623.059 C 421.276 623.744 421.302 624.909 419.826 625.659 L 410.3 630.5 C 409.9 630.8 409.3 630.6 409 630.1 C 408.8 629.6 408.9 629 409.4 628.7 L 417.008 624.851 C 417.5 624.602 417.493 624.213 416.991 623.984 L 409.6 620.6 Z " fill="rgb(250,250,250)" />
            </g>
            <clipPath id="_clipPath_YpEgABA35YlriQBVBf2ksaaTAlxYH8Lw">
                <rect x="440.102" y="610.667" width="30" height="30" transform="matrix(1,0,0,1,0,0)" fill="rgb(255,255,255)" />
            </clipPath>
            <g clip-path="url(#_clipPath_YpEgABA35YlriQBVBf2ksaaTAlxYH8Lw)">
                <g id="Group">
                    <path d=" M 442.651 613.215 L 442.651 638.118 L 467.553 638.118 L 467.553 613.215 L 442.651 613.215 Z " fill-rule="evenodd" fill="rgb(21,101,192)" />
                    <path d=" M 450.707 617.317 Q 448.474 617.279 442.651 617.296 L 442.651 622.854 L 467.553 622.854 L 467.553 621.272 Q 460.096 621.326 456.808 621.285 C 453.52 621.243 452.94 617.355 450.707 617.317 Z " fill-rule="evenodd" fill="rgb(30,136,229)" />
                    <path d=" M 450.238 618.225 Q 448.005 618.187 442.651 618.205 L 442.651 638.118 L 467.553 638.118 L 467.553 622.18 Q 459.657 622.234 456.369 622.193 C 453.08 622.151 452.472 618.264 450.238 618.225 Z " fill-rule="evenodd" fill="rgb(100,181,246)" />
                </g>
            </g>
            <g id="Settings">
                <path d=" M 767.9 620.3 L 800.1 620.3 L 800.1 640.4 L 767.9 640.4 L 767.9 620.3 Z  M 769.4 621.8 L 798.6 621.8 L 798.6 638.9 L 769.4 638.9 L 769.4 621.8 Z " fill-rule="evenodd" fill="rgb(250,250,250)" />
                <rect x="760.5" y="611.563" width="29.625" height="17.5" transform="matrix(1,0,0,1,0,0)" fill="rgb(97,97,97)" />
                <path d=" M 759.3 610.3 L 791.4 610.3 L 791.4 630.4 L 759.3 630.4 L 759.3 610.3 Z  M 760.8 611.8 L 789.9 611.8 L 789.9 628.9 L 760.8 628.9 L 760.8 611.8 Z " fill-rule="evenodd" fill="rgb(250,250,250)" />
            </g>
            <path d=" M 706.079 631.373 L 706.079 632.877 L 696.694 632.877 L 696.694 631.48 L 700.454 627.701 L 700.454 627.701 Q 702.173 625.963 702.72 625.221 L 702.72 625.221 L 702.72 625.221 Q 703.267 624.479 703.54 623.775 L 703.54 623.775 L 703.54 623.775 Q 703.813 623.072 703.813 622.262 L 703.813 622.262 L 703.813 622.262 Q 703.813 621.119 703.12 620.45 L 703.12 620.45 L 703.12 620.45 Q 702.427 619.781 701.196 619.781 L 701.196 619.781 L 701.196 619.781 Q 700.308 619.781 699.512 620.074 L 699.512 620.074 L 699.512 620.074 Q 698.716 620.367 697.739 621.139 L 697.739 621.139 L 696.88 620.035 L 696.88 620.035 Q 698.853 618.395 701.177 618.395 L 701.177 618.395 L 701.177 618.395 Q 703.188 618.395 704.331 619.425 L 704.331 619.425 L 704.331 619.425 Q 705.474 620.455 705.474 622.193 L 705.474 622.193 L 705.474 622.193 Q 705.474 623.551 704.712 624.879 L 704.712 624.879 L 704.712 624.879 Q 703.95 626.207 701.86 628.238 L 701.86 628.238 L 698.735 631.295 L 698.735 631.373 L 706.079 631.373 Z  M 717.593 625.719 L 717.593 625.719 L 717.593 625.719 Q 717.593 629.42 716.426 631.246 L 716.426 631.246 L 716.426 631.246 Q 715.259 633.072 712.856 633.072 L 712.856 633.072 L 712.856 633.072 Q 710.552 633.072 709.351 631.202 L 709.351 631.202 L 709.351 631.202 Q 708.149 629.332 708.149 625.719 L 708.149 625.719 L 708.149 625.719 Q 708.149 621.988 709.312 620.182 L 709.312 620.182 L 709.312 620.182 Q 710.474 618.375 712.856 618.375 L 712.856 618.375 L 712.856 618.375 Q 715.181 618.375 716.387 620.26 L 716.387 620.26 L 716.387 620.26 Q 717.593 622.145 717.593 625.719 Z  M 709.79 625.719 L 709.79 625.719 L 709.79 625.719 Q 709.79 628.834 710.522 630.255 L 710.522 630.255 L 710.522 630.255 Q 711.255 631.676 712.856 631.676 L 712.856 631.676 L 712.856 631.676 Q 714.478 631.676 715.205 630.235 L 715.205 630.235 L 715.205 630.235 Q 715.933 628.795 715.933 625.719 L 715.933 625.719 L 715.933 625.719 Q 715.933 622.643 715.205 621.212 L 715.205 621.212 L 715.205 621.212 Q 714.478 619.781 712.856 619.781 L 712.856 619.781 L 712.856 619.781 Q 711.255 619.781 710.522 621.192 L 710.522 621.192 L 710.522 621.192 Q 709.79 622.604 709.79 625.719 Z  M 720.073 631.842 L 720.073 631.842 L 720.073 631.842 Q 720.073 631.188 720.371 630.851 L 720.371 630.851 L 720.371 630.851 Q 720.669 630.514 721.226 630.514 L 721.226 630.514 L 721.226 630.514 Q 721.792 630.514 722.109 630.851 L 722.109 630.851 L 722.109 630.851 Q 722.427 631.188 722.427 631.842 L 722.427 631.842 L 722.427 631.842 Q 722.427 632.477 722.104 632.818 L 722.104 632.818 L 722.104 632.818 Q 721.782 633.16 721.226 633.16 L 721.226 633.16 L 721.226 633.16 Q 720.728 633.16 720.4 632.853 L 720.4 632.853 L 720.4 632.853 Q 720.073 632.545 720.073 631.842 Z  M 720.073 623.219 L 720.073 623.219 L 720.073 623.219 Q 720.073 621.9 721.226 621.9 L 721.226 621.9 L 721.226 621.9 Q 722.427 621.9 722.427 623.219 L 722.427 623.219 L 722.427 623.219 Q 722.427 623.854 722.104 624.195 L 722.104 624.195 L 722.104 624.195 Q 721.782 624.537 721.226 624.537 L 721.226 624.537 L 721.226 624.537 Q 720.728 624.537 720.4 624.229 L 720.4 624.229 L 720.4 624.229 Q 720.073 623.922 720.073 623.219 Z  M 733.735 621.959 L 733.735 621.959 L 733.735 621.959 Q 733.735 623.326 732.969 624.195 L 732.969 624.195 L 732.969 624.195 Q 732.202 625.064 730.796 625.357 L 730.796 625.357 L 730.796 625.436 L 730.796 625.436 Q 732.515 625.65 733.345 626.529 L 733.345 626.529 L 733.345 626.529 Q 734.175 627.408 734.175 628.834 L 734.175 628.834 L 734.175 628.834 Q 734.175 630.875 732.759 631.974 L 732.759 631.974 L 732.759 631.974 Q 731.343 633.072 728.735 633.072 L 728.735 633.072 L 728.735 633.072 Q 727.603 633.072 726.66 632.901 L 726.66 632.901 L 726.66 632.901 Q 725.718 632.73 724.829 632.301 L 724.829 632.301 L 724.829 630.758 L 724.829 630.758 Q 725.757 631.217 726.807 631.456 L 726.807 631.456 L 726.807 631.456 Q 727.856 631.695 728.794 631.695 L 728.794 631.695 L 728.794 631.695 Q 732.495 631.695 732.495 628.795 L 732.495 628.795 L 732.495 628.795 Q 732.495 626.197 728.413 626.197 L 728.413 626.197 L 727.007 626.197 L 727.007 624.801 L 728.433 624.801 L 728.433 624.801 Q 730.103 624.801 731.079 624.063 L 731.079 624.063 L 731.079 624.063 Q 732.056 623.326 732.056 622.018 L 732.056 622.018 L 732.056 622.018 Q 732.056 620.973 731.338 620.377 L 731.338 620.377 L 731.338 620.377 Q 730.62 619.781 729.39 619.781 L 729.39 619.781 L 729.39 619.781 Q 728.452 619.781 727.622 620.035 L 727.622 620.035 L 727.622 620.035 Q 726.792 620.289 725.728 620.973 L 725.728 620.973 L 724.907 619.879 L 724.907 619.879 Q 725.786 619.186 726.934 618.79 L 726.934 618.79 L 726.934 618.79 Q 728.081 618.395 729.351 618.395 L 729.351 618.395 L 729.351 618.395 Q 731.431 618.395 732.583 619.347 L 732.583 619.347 L 732.583 619.347 Q 733.735 620.299 733.735 621.959 Z  M 745.786 625.719 L 745.786 625.719 L 745.786 625.719 Q 745.786 629.42 744.619 631.246 L 744.619 631.246 L 744.619 631.246 Q 743.452 633.072 741.05 633.072 L 741.05 633.072 L 741.05 633.072 Q 738.745 633.072 737.544 631.202 L 737.544 631.202 L 737.544 631.202 Q 736.343 629.332 736.343 625.719 L 736.343 625.719 L 736.343 625.719 Q 736.343 621.988 737.505 620.182 L 737.505 620.182 L 737.505 620.182 Q 738.667 618.375 741.05 618.375 L 741.05 618.375 L 741.05 618.375 Q 743.374 618.375 744.58 620.26 L 744.58 620.26 L 744.58 620.26 Q 745.786 622.145 745.786 625.719 Z  M 737.983 625.719 L 737.983 625.719 L 737.983 625.719 Q 737.983 628.834 738.716 630.255 L 738.716 630.255 L 738.716 630.255 Q 739.448 631.676 741.05 631.676 L 741.05 631.676 L 741.05 631.676 Q 742.671 631.676 743.398 630.235 L 743.398 630.235 L 743.398 630.235 Q 744.126 628.795 744.126 625.719 L 744.126 625.719 L 744.126 625.719 Q 744.126 622.643 743.398 621.212 L 743.398 621.212 L 743.398 621.212 Q 742.671 619.781 741.05 619.781 L 741.05 619.781 L 741.05 619.781 Q 739.448 619.781 738.716 621.192 L 738.716 621.192 L 738.716 621.192 Q 737.983 622.604 737.983 625.719 Z " fill-rule="evenodd" fill="rgb(250,250,250)" />
            <path d=" M 682.223 621.132 L 681.659 621.696 C 683.036 622.653 683.856 624.217 683.856 625.895 C 683.856 627.573 683.036 629.137 681.659 630.094 L 682.223 630.661 C 683.741 629.55 684.642 627.786 684.642 625.898 C 684.639 624.007 683.741 622.243 682.223 621.132 L 682.223 621.132 Z  M 679.411 623.945 L 678.739 624.617 C 679.443 624.617 680.017 625.19 680.017 625.895 C 680.017 626.6 679.443 627.173 678.739 627.173 L 679.411 627.845 C 680.244 627.558 680.803 626.773 680.804 625.892 C 680.804 624.994 680.22 624.223 679.411 623.945 L 679.411 623.945 Z  M 680.807 622.548 L 680.23 623.125 C 681.253 623.672 681.89 624.739 681.886 625.898 C 681.886 627.065 681.253 628.117 680.23 628.671 L 680.807 629.248 C 681.967 628.534 682.672 627.282 682.672 625.902 C 682.672 624.515 681.964 623.263 680.807 622.548 L 680.807 622.548 Z  M 670.278 622.945 L 672.638 622.945 L 672.638 628.848 L 670.278 628.848 L 670.278 622.945 Z  M 673.032 628.963 L 677.359 633.29 L 677.359 618.5 L 673.032 622.83 L 673.032 628.963 L 673.032 628.963 Z " fill="rgb(250,250,250)" />
        </g>
    </g>
</svg>