<?xml version="1.0" standalone="no"?>
<!-- Generator: Gravit.io -->
<svg xmlns="http://www.w3.org/2000/svg" xmlns:xlink="http://www.w3.org/1999/xlink" style="isolation:isolate" viewBox="0 0 1024 1024" width="1024" height="1024">
    <defs>
        <clipPath id="_clipPath_61Qedy1NKON4AFkYrUxLrw2AyOi1NZ0B">
            <rect width="1024" height="1024" />
        </clipPath>
    </defs>
    <g clip-path="url(#_clipPath_61Qedy1NKON4AFkYrUxLrw2AyOi1NZ0B)">
        <rect x="85.333" y="85.897" width="850" height="850" transform="matrix(1,0,0,1,0,0)" fill="rgb(144,164,174)" />
        <rect x="86" y="710" width="850" height="229.897" transform="matrix(1,0,0,1,0,0)" fill="rgb(84,110,122)" />
        <g id="iMac">
            <linearGradient id="_lgradient_0" x1="0%" y1="50%" x2="6.123233995736766e-15%" y2="150%">
                <stop offset="88.75149619999999%" stop-opacity="1" style="stop-color:rgb(196,194,194)" />
                <stop offset="92.50273649285315%" stop-opacity="1" style="stop-color:rgb(220,220,220)" />
                <stop offset="100%" stop-opacity="1" style="stop-color:rgb(219,219,219)" />
            </linearGradient>
            <path d=" M 576.843 734.294 L 584.83 791.011 C 585.295 794.318 582.968 797 579.624 797 L 436.821 797 C 433.48 797 431.15 794.316 431.616 791.011 L 439.602 734.294 L 576.843 734.294 Z " fill-rule="evenodd" fill="url(#_lgradient_0)" />
            <g id="upper">
                <linearGradient id="_lgradient_1" x1="0%" y1="50%" x2="6.123233995736766e-15%" y2="150%">
                    <stop offset="0%" stop-opacity="1" style="stop-color:rgb(25,25,25)" />
                    <stop offset="100%" stop-opacity="1" style="stop-color:rgb(7,7,7)" />
                </linearGradient>
                <path d=" M 172.027 247 C 163.682 247 156.918 253.763 156.918 262.104 L 156.918 670.077 L 867.082 670.077 L 867.082 262.104 C 867.082 253.762 860.324 247 851.973 247 L 172.027 247 Z " fill-rule="evenodd" fill="url(#_lgradient_1)" />
                <path d=" M 184.871 274.198 L 184.871 642.879 L 839.129 642.879 L 839.129 274.198 L 184.871 274.198 Z " fill-rule="evenodd" fill="rgb(74,74,74)" />
                <linearGradient id="_lgradient_2" x1="0%" y1="50%" x2="6.123233995736766e-15%" y2="150%">
                    <stop offset="0%" stop-opacity="1" style="stop-color:rgb(216,216,216)" />
                    <stop offset="100%" stop-opacity="1" style="stop-color:rgb(214,214,214)" />
                </linearGradient>
                <path d=" M 156.918 670.077 L 156.918 719.177 C 156.918 727.526 163.676 734.294 172.027 734.294 L 851.973 734.294 C 860.318 734.294 867.082 727.528 867.082 719.177 L 867.082 670.077 L 156.918 670.077 Z " fill-rule="evenodd" fill="url(#_lgradient_2)" />
            </g>
            <path d=" M 506.31 693.266 C 507.235 693.266 508.351 693.458 509.659 693.842 C 510.979 694.227 511.855 694.419 512.287 694.419 C 512.842 694.419 513.748 694.202 515.007 693.768 C 516.265 693.334 517.357 693.117 518.282 693.117 C 519.799 693.117 521.15 693.526 522.334 694.344 C 523 694.815 523.66 695.453 524.314 696.259 C 523.327 697.102 522.606 697.851 522.149 698.508 C 521.323 699.698 520.909 701.012 520.909 702.449 C 520.909 704.023 521.347 705.442 522.223 706.706 C 523.099 707.97 524.098 708.769 525.221 709.104 C 524.752 710.628 523.975 712.222 522.889 713.882 C 521.249 716.372 519.62 717.618 518.004 717.618 C 517.363 717.618 516.475 717.414 515.34 717.004 C 514.217 716.594 513.267 716.391 512.49 716.391 C 511.713 716.391 510.806 716.602 509.77 717.023 C 508.746 717.456 507.914 717.673 507.272 717.673 C 505.335 717.673 503.436 716.026 501.573 712.729 C 499.71 709.469 498.779 706.272 498.779 703.137 C 498.779 700.224 499.488 697.851 500.907 696.017 C 502.338 694.183 504.139 693.266 506.31 693.266 M 517.967 685.942 C 518.016 686.103 518.048 686.246 518.06 686.37 C 518.072 686.494 518.078 686.618 518.078 686.742 C 518.078 687.535 517.893 688.402 517.523 689.344 C 517.153 690.286 516.567 691.16 515.765 691.965 C 515.075 692.647 514.39 693.105 513.711 693.341 C 513.28 693.477 512.626 693.582 511.75 693.657 C 511.775 691.773 512.262 690.143 513.212 688.768 C 514.174 687.392 515.759 686.45 517.967 685.942" fill-rule="evenodd" fill="rgb(0,0,0)" />
            <g id="camera">
                <path d=" M 508.223 265.887 C 509.892 265.887 511.245 264.534 511.245 262.865 C 511.245 261.196 509.892 259.843 508.223 259.843 C 506.554 259.843 505.201 261.196 505.201 262.865 C 505.201 264.534 506.554 265.887 508.223 265.887 Z " fill-rule="evenodd" fill="rgb(20,20,20)" />
                <path d=" M 508.223 264.376 C 509.057 264.376 509.734 263.7 509.734 262.865 C 509.734 262.031 509.057 261.354 508.223 261.354 C 507.388 261.354 506.712 262.031 506.712 262.865 C 506.712 263.7 507.388 264.376 508.223 264.376 Z " fill-rule="evenodd" fill="rgb(25,14,55)" fill-opacity="0.695714614" />
            </g>
        </g>
        <g id="Hackintosh">
            <g id="dock with apps">
                <path d=" M 436.749 598.748 L 436.749 642.667 L 586.072 641.569 L 586.072 598.748 L 436.749 598.748 Z " fill-rule="evenodd" fill="rgb(207,216,220)" />
                <g id="apps">
                    <clipPath id="_clipPath_6NG3840hYvtI56uxHkjJ5L7XMiIS4qeO">
                        <rect x="441.36" y="603.14" width="35.135" height="35.135" transform="matrix(1,0,0,1,0,0)" fill="rgb(255,255,255)" />
                    </clipPath>
                    <g clip-path="url(#_clipPath_6NG3840hYvtI56uxHkjJ5L7XMiIS4qeO)">
                        <g id="Group">
                            <rect x="444.346" y="606.125" width="29.165" height="29.165" transform="matrix(1,0,0,1,0,0)" fill="rgb(255,255,255)" />
                            <clipPath id="_clipPath_C4CyB4If3NDrFII5xPdFgGI4cDAIAjWN">
                                <rect x="444.346" y="606.125" width="29.165" height="29.165" transform="matrix(1,0,0,1,0,0)" fill="rgb(255,255,255)" />
                            </clipPath>
                            <g clip-path="url(#_clipPath_C4CyB4If3NDrFII5xPdFgGI4cDAIAjWN)">
                                <g id="Group">
                                    <path d=" M 462.634 635.85 C 461.123 631.665 461.215 624.825 461.192 623.178 C 461.17 621.531 461.421 620.479 460.712 620.456 C 459.797 620.387 459.202 620.501 458.242 620.501 C 456.618 620.616 456.892 619.907 456.938 619.312 C 457.441 614.714 457.624 611.009 460.415 605.359 L 443.596 605.323 L 443.544 635.892 L 462.634 635.85 Z " fill="rgb(30,136,229)" />
                                </g>
                            </g>
                            <path d=" M 452.666 613.485 L 452.666 613.485 C 452.998 613.485 453.267 613.754 453.267 614.085 L 453.267 616.316 C 453.267 616.647 452.998 616.916 452.666 616.916 L 452.666 616.916 C 452.335 616.916 452.066 616.647 452.066 616.316 L 452.066 614.085 C 452.066 613.754 452.335 613.485 452.666 613.485 Z " fill="rgb(33,33,33)" />
                            <path d=" M 465.876 613.485 L 465.876 613.485 C 466.207 613.485 466.476 613.754 466.476 614.085 L 466.476 616.316 C 466.476 616.647 466.207 616.916 465.876 616.916 L 465.876 616.916 C 465.545 616.916 465.276 616.647 465.276 616.316 L 465.276 614.085 C 465.276 613.754 465.545 613.485 465.876 613.485 Z " fill="rgb(33,33,33)" />
                            <path d=" M 450.213 625.151 C 450.106 625.031 450.052 624.876 450.058 624.715 C 450.069 624.557 450.141 624.41 450.257 624.303 C 450.378 624.197 450.532 624.139 450.69 624.149 C 450.851 624.156 450.999 624.228 451.105 624.348 C 451.613 624.911 452.175 625.422 452.783 625.871 C 453.342 626.276 453.946 626.612 454.581 626.87 C 455.257 627.137 455.96 627.329 456.674 627.443 C 457.521 627.577 458.376 627.649 459.23 627.655 L 459.422 627.655 C 461.114 627.649 462.785 627.271 464.315 626.547 C 464.95 626.256 465.55 625.899 466.109 625.484 C 466.521 625.188 466.885 624.832 467.18 624.423 C 467.276 624.296 467.417 624.211 467.574 624.187 C 467.732 624.163 467.89 624.2 468.02 624.293 C 468.147 624.389 468.233 624.53 468.261 624.687 C 468.285 624.845 468.243 625.003 468.151 625.134 C 467.78 625.641 467.331 626.087 466.82 626.451 C 466.195 626.918 465.526 627.312 464.819 627.635 C 463.131 628.431 461.289 628.849 459.422 628.86 C 459.422 628.86 459.419 628.86 459.415 628.856 L 459.22 628.856 C 459.22 628.856 459.22 628.856 459.22 628.856 C 458.303 628.846 457.391 628.771 456.488 628.63 C 455.682 628.499 454.893 628.283 454.138 627.985 C 453.404 627.69 452.711 627.305 452.076 626.842 C 451.397 626.341 450.772 625.775 450.213 625.151 Z " fill="rgb(33,33,33)" />
                        </g>
                    </g>
                    <clipPath id="_clipPath_S1lvmH4hU6OC0Wsp3L1byb08e32wpUHA">
                        <rect x="476.495" y="603.14" width="35.135" height="35.135" transform="matrix(1,0,0,1,0,0)" fill="rgb(255,255,255)" />
                    </clipPath>
                    <g clip-path="url(#_clipPath_S1lvmH4hU6OC0Wsp3L1byb08e32wpUHA)">
                        <g id="Group">
                            <g id="App Store 1">
                                <rect x="479.48" y="606.125" width="29.165" height="29.165" transform="matrix(1,0,0,1,0,0)" fill="rgb(235,235,235)" />
                                <path d=" M 494.063 632.116 C 497.089 632.116 499.992 630.912 502.129 628.774 C 504.267 626.636 505.471 623.734 505.471 620.707 C 505.471 617.681 504.267 614.778 502.129 612.641 C 499.992 610.503 497.089 609.299 494.063 609.299 C 491.037 609.299 488.134 610.503 485.996 612.641 C 483.859 614.778 482.654 617.681 482.654 620.707 C 482.654 623.734 483.859 626.636 485.996 628.774 C 488.134 630.912 491.037 632.116 494.063 632.116 Z  M 494.063 633.831 C 497.542 633.831 500.884 632.449 503.344 629.989 C 505.804 627.528 507.187 624.187 507.187 620.707 C 507.187 617.228 505.804 613.886 503.344 611.426 C 500.884 608.966 497.542 607.583 494.063 607.583 C 490.584 607.583 487.242 608.966 484.782 611.426 C 482.321 613.886 480.939 617.228 480.939 620.707 C 480.939 624.187 482.321 627.528 484.782 629.989 C 487.242 632.449 490.584 633.831 494.063 633.831 Z " fill-rule="evenodd" fill="rgb(13,71,161)" />
                                <g id="Accessories">
                                    <g id="Ruler">
                                        <path d=" M 484.799 618.765 L 484.799 622.183 L 503.327 622.183 L 503.327 618.765 L 484.799 618.765 Z " fill-rule="evenodd" fill="rgb(139,104,69)" fill-opacity="0.8369715073529411" />
                                        <path d=" M 485.485 619.601 L 485.485 619.619 C 485.485 619.708 485.558 619.781 485.647 619.781 L 502.478 619.781 C 502.568 619.781 502.641 619.708 502.641 619.619 L 502.641 619.601 C 502.641 619.511 502.568 619.438 502.478 619.438 L 485.647 619.438 C 485.558 619.438 485.485 619.511 485.485 619.601 Z " fill-rule="evenodd" fill="rgb(118,89,60)" fill-opacity="0.8256261488970589" />
                                    </g>
                                    <g id="Pen">
                                        <path d=" M 486.186 626.103 L 486.526 623.61 C 487.611 623.206 488.417 623.729 488.54 624.918 L 486.374 626.225 Q 486.243 626.297 486.204 626.272 Q 486.164 626.246 486.186 626.103 Z " fill="rgb(255,204,128)" />
                                        <path d=" M 490.824 616.992 L 492.838 618.3 L 488.54 624.918 C 487.999 624.148 487.193 623.626 486.526 623.61 L 490.824 616.992 Z " fill="rgb(66,165,245)" />
                                        <rect x="490.666" y="616.298" width="3.089" height="1.545" transform="matrix(0.839,0.545,-0.545,0.839,415.586,-168.535)" fill="rgb(189,189,189)" />
                                        <path d=" M 492.981 615.119 L 493.671 615.568 C 494.037 615.805 494.141 616.294 493.903 616.66 L 493.586 617.149 L 491.571 615.841 L 491.889 615.351 C 492.126 614.986 492.615 614.882 492.981 615.119 Z " fill="rgb(139,195,74)" />
                                    </g>
                                    <g id="Paint Pencil">
                                        <path d=" M 501.672 626.392 Q 500.881 626.594 500.518 626.648 C 500.424 626.662 500.32 626.601 500.286 626.513 L 498.829 622.785 L 500.303 621.907 L 502.89 624.961 C 502.951 625.033 502.953 625.152 502.894 625.226 Q 502.639 625.546 502.122 626.121 C 502.02 626.233 501.819 626.355 501.672 626.392 Z " fill="rgb(121,85,72)" />
                                        <path d=" M 497.597 620.686 Q 492.916 612.329 493.417 612.031 Q 493.918 611.732 499.073 619.844 C 498.754 620.381 498.202 620.672 497.597 620.686 Z " fill="rgb(136,14,79)" />
                                        <path d=" M 497.597 620.686 C 498.127 620.6 498.681 620.309 499.073 619.844 L 500.303 621.907 C 499.925 622.345 499.376 622.673 498.829 622.785 L 497.597 620.686 Z " fill="rgb(235,235,235)" />
                                    </g>
                                </g>
                            </g>
                        </g>
                    </g>
                    <clipPath id="_clipPath_C4DpgovtWiiJDT738MR01YRqM3lYMl6m">
                        <rect x="512.069" y="603.14" width="35.135" height="35.135" transform="matrix(1,0,0,1,0,0)" fill="rgb(255,255,255)" />
                    </clipPath>
                    <g clip-path="url(#_clipPath_C4DpgovtWiiJDT738MR01YRqM3lYMl6m)">
                        <g id="Group">
                            <rect x="515.055" y="606.125" width="29.165" height="29.165" transform="matrix(1,0,0,1,0,0)" fill="rgb(33,33,33)" />
                            <g id="Calendar">
                                <path d=" M 517.432 617.103 L 540.02 613.39 L 542.914 630.966 L 520.187 634.726 L 517.432 617.103 Z " fill-rule="evenodd" fill="rgb(255,255,255)" />
                                <path d=" M 519.93 633.128 Q 528.036 632.373 532.142 631.687 Q 536.248 631.001 542.723 629.971 L 542.914 630.966 L 520.187 634.726 L 519.93 633.128 Z " fill-rule="evenodd" fill="rgb(200,199,199)" />
                                <path d=" M 517.444 617.183 L 516.36 610.245 L 538.916 606.688 L 540.046 613.549 L 517.444 617.183 Z " fill-rule="evenodd" fill="rgb(198,40,40)" />
                                <path d=" M 525.23 613.576 L 525.23 613.576 Q 525.279 613.648 525.291 613.721 L 525.291 613.721 L 525.291 613.721 Q 525.312 613.855 525.22 613.966 L 525.22 613.966 L 525.22 613.966 Q 525.127 614.076 524.988 614.099 L 524.988 614.099 L 524.988 614.099 Q 524.895 614.113 524.81 614.077 L 524.81 614.077 L 524.81 614.077 Q 524.725 614.041 524.665 613.95 L 524.665 613.95 L 524.416 613.569 L 523.099 613.779 L 522.977 614.22 L 522.977 614.22 Q 522.948 614.324 522.877 614.386 L 522.877 614.386 L 522.877 614.386 Q 522.805 614.447 522.712 614.462 L 522.712 614.462 L 522.712 614.462 Q 522.573 614.484 522.447 614.409 L 522.447 614.409 L 522.447 614.409 Q 522.32 614.333 522.298 614.199 L 522.298 614.199 L 522.298 614.199 Q 522.287 614.126 522.311 614.043 L 522.311 614.043 L 523.032 611.667 L 523.032 611.667 Q 523.068 611.549 523.162 611.474 L 523.162 611.474 L 523.162 611.474 Q 523.256 611.398 523.382 611.378 L 523.382 611.378 L 523.382 611.378 Q 523.504 611.359 523.619 611.401 L 523.619 611.401 L 523.619 611.401 Q 523.734 611.443 523.805 611.544 L 523.805 611.544 L 525.23 613.576 Z  M 523.523 612.206 L 523.261 613.178 L 524.074 613.048 L 523.523 612.206 Z  M 526.027 613.945 L 526.027 613.945 Q 525.856 613.972 525.741 613.889 L 525.741 613.889 L 525.741 613.889 Q 525.625 613.805 525.598 613.634 L 525.598 613.634 L 525.251 611.459 L 525.251 611.459 Q 525.224 611.292 525.299 611.189 L 525.299 611.189 L 525.299 611.189 Q 525.374 611.085 525.541 611.058 L 525.541 611.058 L 526.582 610.892 L 526.582 610.892 Q 527.058 610.816 527.36 611.016 L 527.36 611.016 L 527.36 611.016 Q 527.663 611.215 527.732 611.646 L 527.732 611.646 L 527.732 611.646 Q 527.8 612.073 527.573 612.36 L 527.573 612.36 L 527.573 612.36 Q 527.346 612.646 526.874 612.721 L 526.874 612.721 L 526.236 612.823 L 526.346 613.515 L 526.346 613.515 Q 526.374 613.685 526.288 613.801 L 526.288 613.801 L 526.288 613.801 Q 526.202 613.917 526.027 613.945 L 526.027 613.945 Z  M 526.146 612.262 L 526.683 612.177 L 526.683 612.177 Q 526.89 612.144 526.976 612.042 L 526.976 612.042 L 526.976 612.042 Q 527.062 611.941 527.034 611.762 L 527.034 611.762 L 527.034 611.762 Q 526.977 611.408 526.57 611.473 L 526.57 611.473 L 526.034 611.559 L 526.146 612.262 Z  M 530.741 612.679 L 530.741 612.679 Q 530.832 612.777 530.847 612.875 L 530.847 612.875 L 530.847 612.875 Q 530.868 613.005 530.774 613.109 L 530.774 613.109 L 530.774 613.109 Q 530.68 613.214 530.538 613.237 L 530.538 613.237 L 530.538 613.237 Q 530.441 613.252 530.348 613.221 L 530.348 613.221 L 530.348 613.221 Q 530.256 613.19 530.18 613.111 L 530.18 613.111 L 529.528 612.422 L 529.528 612.422 Q 529.458 612.35 529.389 612.322 L 529.389 612.322 L 529.389 612.322 Q 529.32 612.293 529.235 612.307 L 529.235 612.307 L 528.97 612.349 L 529.087 613.077 L 529.087 613.077 Q 529.114 613.248 529.032 613.363 L 529.032 613.363 L 529.032 613.363 Q 528.951 613.478 528.78 613.505 L 528.78 613.505 L 528.78 613.505 Q 528.609 613.533 528.493 613.449 L 528.493 613.449 L 528.493 613.449 Q 528.378 613.365 528.351 613.194 L 528.351 613.194 L 528.003 611.019 L 528.003 611.019 Q 527.977 610.853 528.052 610.749 L 528.052 610.749 L 528.052 610.749 Q 528.127 610.645 528.294 610.618 L 528.294 610.618 L 529.314 610.455 L 529.314 610.455 Q 529.834 610.372 530.133 610.556 L 530.133 610.556 L 530.133 610.556 Q 530.431 610.74 530.499 611.167 L 530.499 611.167 L 530.499 611.167 Q 530.551 611.492 530.408 611.746 L 530.408 611.746 L 530.408 611.746 Q 530.266 612 529.953 612.13 L 529.953 612.13 L 529.953 612.13 Q 530.09 612.128 530.201 612.182 L 530.201 612.182 L 530.201 612.182 Q 530.311 612.235 530.431 612.358 L 530.431 612.358 L 530.741 612.679 Z  M 529.393 611.706 L 529.393 611.706 Q 529.641 611.666 529.736 611.572 L 529.736 611.572 L 529.736 611.572 Q 529.832 611.478 529.804 611.303 L 529.804 611.303 L 529.804 611.303 Q 529.775 611.124 529.655 611.062 L 529.655 611.062 L 529.655 611.062 Q 529.534 611 529.286 611.039 L 529.286 611.039 L 528.766 611.122 L 528.873 611.789 L 529.393 611.706 Z  M 531.654 613.046 L 531.654 613.046 Q 531.484 613.073 531.368 612.99 L 531.368 612.99 L 531.368 612.99 Q 531.252 612.906 531.225 612.735 L 531.225 612.735 L 530.878 610.56 L 530.878 610.56 Q 530.851 610.393 530.935 610.278 L 530.935 610.278 L 530.935 610.278 Q 531.018 610.162 531.189 610.135 L 531.189 610.135 L 531.189 610.135 Q 531.364 610.107 531.482 610.19 L 531.482 610.19 L 531.482 610.19 Q 531.599 610.274 531.626 610.44 L 531.626 610.44 L 531.973 612.616 L 531.973 612.616 Q 532.001 612.786 531.915 612.902 L 531.915 612.902 L 531.915 612.902 Q 531.829 613.018 531.654 613.046 L 531.654 613.046 Z  M 532.895 612.823 L 532.895 612.823 Q 532.728 612.849 532.624 612.774 L 532.624 612.774 L 532.624 612.774 Q 532.52 612.699 532.493 612.528 L 532.493 612.528 L 532.146 610.357 L 532.146 610.357 Q 532.12 610.191 532.203 610.075 L 532.203 610.075 L 532.203 610.075 Q 532.287 609.959 532.458 609.932 L 532.458 609.932 L 532.458 609.932 Q 532.633 609.904 532.75 609.988 L 532.75 609.988 L 532.75 609.988 Q 532.868 610.071 532.894 610.238 L 532.894 610.238 L 533.2 612.153 L 534.135 612.003 L 534.135 612.003 Q 534.489 611.947 534.538 612.252 L 534.538 612.252 L 534.538 612.252 Q 534.563 612.406 534.487 612.493 L 534.487 612.493 L 534.487 612.493 Q 534.411 612.581 534.232 612.609 L 534.232 612.609 L 532.895 612.823 Z " fill-rule="evenodd" fill="rgb(250,250,250)" />
                                <path d=" M 533.031 625.389 L 533.031 625.389 Q 533.579 625.299 533.871 625.476 L 533.871 625.476 L 533.871 625.476 Q 534.163 625.653 534.235 626.092 L 534.235 626.092 L 534.235 626.092 Q 534.383 626.993 533.323 627.167 L 533.323 627.167 L 529.096 627.862 L 529.096 627.862 Q 528.036 628.037 527.888 627.135 L 527.888 627.135 L 527.888 627.135 Q 527.816 626.697 528.036 626.435 L 528.036 626.435 L 528.036 626.435 Q 528.255 626.174 528.804 626.084 L 528.804 626.084 L 529.79 625.922 L 529.067 621.524 L 528.187 622.257 L 528.187 622.257 Q 528 622.413 527.78 622.449 L 527.78 622.449 L 527.78 622.449 Q 527.439 622.505 527.147 622.246 L 527.147 622.246 L 527.147 622.246 Q 526.854 621.988 526.794 621.623 L 526.794 621.623 L 526.794 621.623 Q 526.712 621.123 527.096 620.797 L 527.096 620.797 L 528.859 619.344 L 528.859 619.344 Q 529.345 618.951 529.82 618.873 L 529.82 618.873 L 529.82 618.873 Q 530.307 618.793 530.654 619.036 L 530.654 619.036 L 530.654 619.036 Q 531 619.279 531.082 619.779 L 531.082 619.779 L 532.032 625.553 L 533.031 625.389 Z " fill="rgb(33,33,33)" />
                            </g>
                        </g>
                    </g>
                    <clipPath id="_clipPath_I5YKGl9jjpcEV18vEF32wWHbg8iw2B7X">
                        <rect x="547.204" y="603.14" width="35.135" height="35.135" transform="matrix(1,0,0,1,0,0)" fill="rgb(255,255,255)" />
                    </clipPath>
                    <g clip-path="url(#_clipPath_I5YKGl9jjpcEV18vEF32wWHbg8iw2B7X)">
                        <g id="Group">
                            <rect x="551.304" y="606.102" width="26.936" height="29.165" transform="matrix(1,0,0,1,0,0)" fill="rgb(255,255,255)" />
                            <clipPath id="_clipPath_dGhRnSToMWj4wkGUduffZkb37NSik5MP">
                                <rect x="551.304" y="606.102" width="26.936" height="29.165" transform="matrix(1,0,0,1,0,0)" fill="rgb(255,255,255)" />
                            </clipPath>
                            <g clip-path="url(#_clipPath_dGhRnSToMWj4wkGUduffZkb37NSik5MP)">
                                <g id="Group">
                                    <g id="Group">
                                        <path d=" M 560.929 635.684 L 565.315 628.293 Q 559.782 615.954 553.16 604.665 L 550.895 604.648 L 550.895 635.736 L 560.929 635.684 Z " fill="rgb(67,160,71)" />
                                        <path d=" M 558.813 618.238 L 553.443 605.531 L 579.072 605.479 L 579.072 618.216 L 558.813 618.238 Z " fill="rgb(229,57,53)" />
                                        <path d=" M 560.669 635.684 L 570.766 616.219 L 578.864 616.189 L 578.864 635.684 L 560.669 635.684 Z " fill="rgb(253,216,53)" />
                                        <path d=" M 557.309 620.647 C 557.309 616.401 560.756 612.954 565.002 612.954 C 569.248 612.954 572.694 616.401 572.694 620.647 C 572.694 624.892 569.248 628.339 565.002 628.339 C 560.756 628.339 557.309 624.892 557.309 620.647 Z " fill="rgb(238,238,238)" />
                                        <path d=" M 560.459 620.647 C 560.459 618.14 562.495 616.104 565.002 616.104 C 567.509 616.104 569.545 618.14 569.545 620.647 C 569.545 623.154 567.509 625.19 565.002 625.19 C 562.495 625.19 560.459 623.154 560.459 620.647 Z " fill="rgb(30,136,229)" />
                                    </g>
                                </g>
                            </g>
                        </g>
                    </g>
                </g>
            </g>
            <g id="menubar">
                <path d=" M 184.871 275.03 L 184.871 292.991 L 839.131 293.03 L 839.131 275.03 L 184.871 275.03 Z " fill-rule="evenodd" fill="rgb(207,216,220)" />
                <path d=" M 203.571 286.349 C 203.322 286.901 203.203 287.148 202.882 287.635 C 202.436 288.318 201.804 289.168 201.023 289.173 C 200.329 289.179 200.15 288.72 199.207 288.728 C 198.264 288.731 198.067 289.181 197.372 289.174 C 196.591 289.168 195.994 288.401 195.545 287.722 C 194.293 285.815 194.162 283.579 194.936 282.39 C 195.483 281.547 196.349 281.052 197.163 281.052 C 197.991 281.052 198.512 281.506 199.197 281.506 C 199.862 281.506 200.266 281.05 201.225 281.05 C 201.948 281.05 202.715 281.444 203.262 282.126 C 201.471 283.107 201.762 285.665 203.572 286.35 L 203.571 286.349 Z  M 200.497 280.287 C 200.845 279.841 201.109 279.209 201.014 278.566 C 200.445 278.605 199.78 278.968 199.391 279.437 C 199.039 279.866 198.747 280.502 198.861 281.118 C 199.482 281.137 200.124 280.768 200.497 280.287 Z " fill="rgb(33,33,33)" />
                <g id="Notification Center">
                    <rect x="815.283" y="278.566" width="2.122" height="2.122" transform="matrix(1,0,0,1,0,0)" fill="rgb(33,33,33)" />
                    <rect x="819.526" y="278.566" width="8.487" height="2.122" transform="matrix(1,0,0,1,0,0)" fill="rgb(33,33,33)" />
                    <rect x="819.526" y="287.053" width="8.487" height="2.122" transform="matrix(1,0,0,1,0,0)" fill="rgb(33,33,33)" />
                    <rect x="819.526" y="282.809" width="6.365" height="2.122" transform="matrix(1,0,0,1,0,0)" fill="rgb(33,33,33)" />
                    <rect x="815.283" y="282.809" width="2.122" height="2.122" transform="matrix(1,0,0,1,0,0)" fill="rgb(33,33,33)" />
                    <rect x="815.283" y="287.053" width="2.122" height="2.122" transform="matrix(1,0,0,1,0,0)" fill="rgb(33,33,33)" />
                </g>
            </g>
        </g>
    </g>
</svg>