<?xml version="1.0" standalone="no"?>
<!-- Generator: Gravit.io -->
<svg xmlns="http://www.w3.org/2000/svg" xmlns:xlink="http://www.w3.org/1999/xlink" style="isolation:isolate" viewBox="0 0 1024 1024" width="1024" height="1024">
    <defs>
        <clipPath id="_clipPath_TZnJpoIxcAF4AxutcqLig2VKBE7wQhyy">
            <rect width="1024" height="1024" />
        </clipPath>
    </defs>
    <g clip-path="url(#_clipPath_TZnJpoIxcAF4AxutcqLig2VKBE7wQhyy)">
        <rect x="86" y="89.897" width="850" height="850" transform="matrix(1,0,0,1,0,0)" fill="rgb(144,164,174)" />
        <rect x="86" y="710" width="850" height="229.897" transform="matrix(1,0,0,1,0,0)" fill="rgb(84,110,122)" />
        <g id="PC">
            <path d=" M 427.405 759.207 L 597.405 759.207 L 578.329 639.207 L 446.481 639.207 L 427.405 759.207 Z " fill-rule="evenodd" fill="rgb(33,33,33)" />
            <mask id="_mask_PLzNwPIQ9IgI1zdDjjnvD8fXdAlpp4gP">
                <path d=" M 695.777 604.793 L 171 604.793 L 171 818.438 C 171 830.224 180.569 839.793 192.355 839.793 L 829.645 839.793 C 841.431 839.793 851 830.224 851 818.438 L 851 604.793 L 695.777 604.793 Z " fill-rule="evenodd" fill="white" stroke="none" />
            </mask>
            <path d=" M 695.777 604.793 L 171 604.793 L 171 818.438 C 171 830.224 180.569 839.793 192.355 839.793 L 829.645 839.793 C 841.431 839.793 851 830.224 851 818.438 L 851 604.793 L 695.777 604.793 Z " fill-rule="evenodd" fill="none" mask="url(#_mask_PLzNwPIQ9IgI1zdDjjnvD8fXdAlpp4gP)" vector-effect="non-scaling-stroke" stroke-width="85.597" stroke="rgb(33,33,33)" stroke-linejoin="miter" stroke-linecap="square" stroke-miterlimit="10" />
            <path d=" M 171 208.066 L 171 671.934 C 171 681.905 179.095 690 189.066 690 L 832.934 690 C 842.905 690 851 681.905 851 671.934 L 851 208.066 C 851 198.095 842.905 190 832.934 190 L 189.066 190 C 179.095 190 171 198.095 171 208.066 Z " fill-rule="evenodd" fill="rgb(66,66,66)" />
            <path d=" M 211 230 L 210 650 L 810 650 L 811 230 L 211 230 Z " fill-rule="evenodd" fill="rgb(142,36,170)" />
        </g>
        <g id="Ubuntu">
            <rect x="211" y="230" width="600" height="30" transform="matrix(1,0,0,1,0,0)" fill="rgb(171,71,188)" />
            <rect x="211" y="260" width="49" height="390" transform="matrix(1,0,0,1,0,0)" fill="rgb(156,39,176)" />
            <path d=" M 233.786 250.807 L 232.086 250.807 L 232.086 250.807 Q 231.813 250.086 231.572 249.388 L 231.572 249.388 L 231.572 249.388 Q 231.332 248.69 231.075 247.968 L 231.075 247.968 L 226.037 247.968 L 225.027 250.807 L 223.406 250.807 L 223.406 250.807 Q 224.048 249.043 224.61 247.543 L 224.61 247.543 L 224.61 247.543 Q 225.171 246.043 225.709 244.695 L 225.709 244.695 L 225.709 244.695 Q 226.246 243.348 226.775 242.12 L 226.775 242.12 L 226.775 242.12 Q 227.305 240.893 227.882 239.69 L 227.882 239.69 L 229.31 239.69 L 229.31 239.69 Q 229.888 240.893 230.417 242.12 L 230.417 242.12 L 230.417 242.12 Q 230.947 243.348 231.484 244.695 L 231.484 244.695 L 231.484 244.695 Q 232.021 246.043 232.583 247.543 L 232.583 247.543 L 232.583 247.543 Q 233.144 249.043 233.786 250.807 L 233.786 250.807 Z  M 226.487 246.684 L 230.626 246.684 L 230.626 246.684 Q 230.112 245.289 229.607 243.981 L 229.607 243.981 L 229.607 243.981 Q 229.102 242.674 228.556 241.471 L 228.556 241.471 L 228.556 241.471 Q 227.995 242.674 227.489 243.981 L 227.489 243.981 L 227.489 243.981 Q 226.984 245.289 226.487 246.684 L 226.487 246.684 Z  M 238.824 251 L 238.824 251 L 238.824 251 Q 237.813 251 237.051 250.679 L 237.051 250.679 L 237.051 250.679 Q 236.289 250.358 235.767 249.781 L 235.767 249.781 L 235.767 249.781 Q 235.246 249.203 234.989 248.409 L 234.989 248.409 L 234.989 248.409 Q 234.733 247.615 234.733 246.652 L 234.733 246.652 L 234.733 246.652 Q 234.733 245.69 235.013 244.888 L 235.013 244.888 L 235.013 244.888 Q 235.294 244.086 235.807 243.5 L 235.807 243.5 L 235.807 243.5 Q 236.321 242.914 237.067 242.586 L 237.067 242.586 L 237.067 242.586 Q 237.813 242.257 238.727 242.257 L 238.727 242.257 L 238.727 242.257 Q 239.289 242.257 239.85 242.353 L 239.85 242.353 L 239.85 242.353 Q 240.412 242.449 240.925 242.658 L 240.925 242.658 L 240.588 243.925 L 240.588 243.925 Q 240.251 243.765 239.81 243.668 L 239.81 243.668 L 239.81 243.668 Q 239.369 243.572 238.872 243.572 L 238.872 243.572 L 238.872 243.572 Q 237.62 243.572 236.955 244.358 L 236.955 244.358 L 236.955 244.358 Q 236.289 245.144 236.289 246.652 L 236.289 246.652 L 236.289 246.652 Q 236.289 247.326 236.441 247.888 L 236.441 247.888 L 236.441 247.888 Q 236.594 248.449 236.922 248.85 L 236.922 248.85 L 236.922 248.85 Q 237.251 249.251 237.765 249.468 L 237.765 249.468 L 237.765 249.468 Q 238.278 249.684 239.016 249.684 L 239.016 249.684 L 239.016 249.684 Q 239.61 249.684 240.091 249.572 L 240.091 249.572 L 240.091 249.572 Q 240.572 249.46 240.845 249.332 L 240.845 249.332 L 241.053 250.583 L 241.053 250.583 Q 240.925 250.663 240.684 250.735 L 240.684 250.735 L 240.684 250.735 Q 240.444 250.807 240.139 250.864 L 240.139 250.864 L 240.139 250.864 Q 239.834 250.92 239.489 250.96 L 239.489 250.96 L 239.489 250.96 Q 239.144 251 238.824 251 Z  M 244.053 239.882 L 244.053 242.465 L 247.214 242.465 L 247.214 243.717 L 244.053 243.717 L 244.053 247.567 L 244.053 247.567 Q 244.053 248.193 244.15 248.602 L 244.15 248.602 L 244.15 248.602 Q 244.246 249.011 244.439 249.243 L 244.439 249.243 L 244.439 249.243 Q 244.631 249.476 244.92 249.572 L 244.92 249.572 L 244.92 249.572 Q 245.209 249.668 245.594 249.668 L 245.594 249.668 L 245.594 249.668 Q 246.267 249.668 246.676 249.516 L 246.676 249.516 L 246.676 249.516 Q 247.086 249.364 247.246 249.299 L 247.246 249.299 L 247.535 250.535 L 247.535 250.535 Q 247.31 250.647 246.749 250.816 L 246.749 250.816 L 246.749 250.816 Q 246.187 250.984 245.465 250.984 L 245.465 250.984 L 245.465 250.984 Q 244.615 250.984 244.061 250.767 L 244.061 250.767 L 244.061 250.767 Q 243.508 250.551 243.171 250.118 L 243.171 250.118 L 243.171 250.118 Q 242.834 249.684 242.698 249.051 L 242.698 249.051 L 242.698 249.051 Q 242.561 248.417 242.561 247.583 L 242.561 247.583 L 242.561 240.139 L 244.053 239.882 Z  M 250.599 242.465 L 250.599 250.807 L 249.107 250.807 L 249.107 242.465 L 250.599 242.465 Z  M 249.845 240.957 L 249.845 240.957 L 249.845 240.957 Q 249.444 240.957 249.163 240.693 L 249.163 240.693 L 249.163 240.693 Q 248.882 240.428 248.882 239.979 L 248.882 239.979 L 248.882 239.979 Q 248.882 239.529 249.163 239.265 L 249.163 239.265 L 249.163 239.265 Q 249.444 239 249.845 239 L 249.845 239 L 249.845 239 Q 250.246 239 250.527 239.265 L 250.527 239.265 L 250.527 239.265 Q 250.807 239.529 250.807 239.979 L 250.807 239.979 L 250.807 239.979 Q 250.807 240.428 250.527 240.693 L 250.527 240.693 L 250.527 240.693 Q 250.246 240.957 249.845 240.957 Z  M 258.139 242.465 L 259.679 242.465 L 259.679 242.465 Q 259.053 244.807 258.211 246.957 L 258.211 246.957 L 258.211 246.957 Q 257.369 249.107 256.583 250.807 L 256.583 250.807 L 255.235 250.807 L 255.235 250.807 Q 254.449 249.107 253.607 246.957 L 253.607 246.957 L 253.607 246.957 Q 252.765 244.807 252.139 242.465 L 252.139 242.465 L 253.743 242.465 L 253.743 242.465 Q 253.936 243.251 254.201 244.142 L 254.201 244.142 L 254.201 244.142 Q 254.465 245.032 254.762 245.906 L 254.762 245.906 L 254.762 245.906 Q 255.059 246.781 255.364 247.599 L 255.364 247.599 L 255.364 247.599 Q 255.668 248.417 255.941 249.059 L 255.941 249.059 L 255.941 249.059 Q 256.214 248.417 256.519 247.599 L 256.519 247.599 L 256.519 247.599 Q 256.824 246.781 257.12 245.906 L 257.12 245.906 L 257.12 245.906 Q 257.417 245.032 257.682 244.142 L 257.682 244.142 L 257.682 244.142 Q 257.947 243.251 258.139 242.465 L 258.139 242.465 Z  M 262.711 242.465 L 262.711 250.807 L 261.219 250.807 L 261.219 242.465 L 262.711 242.465 Z  M 261.957 240.957 L 261.957 240.957 L 261.957 240.957 Q 261.556 240.957 261.275 240.693 L 261.275 240.693 L 261.275 240.693 Q 260.995 240.428 260.995 239.979 L 260.995 239.979 L 260.995 239.979 Q 260.995 239.529 261.275 239.265 L 261.275 239.265 L 261.275 239.265 Q 261.556 239 261.957 239 L 261.957 239 L 261.957 239 Q 262.358 239 262.639 239.265 L 262.639 239.265 L 262.639 239.265 Q 262.92 239.529 262.92 239.979 L 262.92 239.979 L 262.92 239.979 Q 262.92 240.428 262.639 240.693 L 262.639 240.693 L 262.639 240.693 Q 262.358 240.957 261.957 240.957 Z  M 266.674 239.882 L 266.674 242.465 L 269.834 242.465 L 269.834 243.717 L 266.674 243.717 L 266.674 247.567 L 266.674 247.567 Q 266.674 248.193 266.77 248.602 L 266.77 248.602 L 266.77 248.602 Q 266.866 249.011 267.059 249.243 L 267.059 249.243 L 267.059 249.243 Q 267.251 249.476 267.54 249.572 L 267.54 249.572 L 267.54 249.572 Q 267.829 249.668 268.214 249.668 L 268.214 249.668 L 268.214 249.668 Q 268.888 249.668 269.297 249.516 L 269.297 249.516 L 269.297 249.516 Q 269.706 249.364 269.866 249.299 L 269.866 249.299 L 270.155 250.535 L 270.155 250.535 Q 269.93 250.647 269.369 250.816 L 269.369 250.816 L 269.369 250.816 Q 268.807 250.984 268.086 250.984 L 268.086 250.984 L 268.086 250.984 Q 267.235 250.984 266.682 250.767 L 266.682 250.767 L 266.682 250.767 Q 266.128 250.551 265.791 250.118 L 265.791 250.118 L 265.791 250.118 Q 265.455 249.684 265.318 249.051 L 265.318 249.051 L 265.318 249.051 Q 265.182 248.417 265.182 247.583 L 265.182 247.583 L 265.182 240.139 L 266.674 239.882 Z  M 273.219 242.465 L 273.219 250.807 L 271.727 250.807 L 271.727 242.465 L 273.219 242.465 Z  M 272.465 240.957 L 272.465 240.957 L 272.465 240.957 Q 272.064 240.957 271.783 240.693 L 271.783 240.693 L 271.783 240.693 Q 271.503 240.428 271.503 239.979 L 271.503 239.979 L 271.503 239.979 Q 271.503 239.529 271.783 239.265 L 271.783 239.265 L 271.783 239.265 Q 272.064 239 272.465 239 L 272.465 239 L 272.465 239 Q 272.866 239 273.147 239.265 L 273.147 239.265 L 273.147 239.265 Q 273.428 239.529 273.428 239.979 L 273.428 239.979 L 273.428 239.979 Q 273.428 240.428 273.147 240.693 L 273.147 240.693 L 273.147 240.693 Q 272.866 240.957 272.465 240.957 Z  M 275.321 246.652 L 275.321 246.652 L 275.321 246.652 Q 275.321 245.545 275.642 244.719 L 275.642 244.719 L 275.642 244.719 Q 275.963 243.893 276.492 243.348 L 276.492 243.348 L 276.492 243.348 Q 277.021 242.802 277.711 242.529 L 277.711 242.529 L 277.711 242.529 Q 278.401 242.257 279.123 242.257 L 279.123 242.257 L 279.123 242.257 Q 280.807 242.257 281.706 243.307 L 281.706 243.307 L 281.706 243.307 Q 282.604 244.358 282.604 246.508 L 282.604 246.508 L 282.604 246.508 Q 282.604 246.604 282.604 246.757 L 282.604 246.757 L 282.604 246.757 Q 282.604 246.909 282.588 247.037 L 282.588 247.037 L 276.877 247.037 L 276.877 247.037 Q 276.973 248.337 277.631 249.011 L 277.631 249.011 L 277.631 249.011 Q 278.289 249.684 279.684 249.684 L 279.684 249.684 L 279.684 249.684 Q 280.471 249.684 281.008 249.548 L 281.008 249.548 L 281.008 249.548 Q 281.545 249.412 281.818 249.283 L 281.818 249.283 L 282.027 250.535 L 282.027 250.535 Q 281.754 250.679 281.072 250.84 L 281.072 250.84 L 281.072 250.84 Q 280.39 251 279.524 251 L 279.524 251 L 279.524 251 Q 278.433 251 277.639 250.671 L 277.639 250.671 L 277.639 250.671 Q 276.845 250.342 276.332 249.765 L 276.332 249.765 L 276.332 249.765 Q 275.818 249.187 275.57 248.393 L 275.57 248.393 L 275.57 248.393 Q 275.321 247.599 275.321 246.652 Z  M 276.909 245.834 L 281.048 245.834 L 281.048 245.834 Q 281.064 244.824 280.543 244.174 L 280.543 244.174 L 280.543 244.174 Q 280.021 243.524 279.107 243.524 L 279.107 243.524 L 279.107 243.524 Q 278.594 243.524 278.201 243.725 L 278.201 243.725 L 278.201 243.725 Q 277.807 243.925 277.535 244.246 L 277.535 244.246 L 277.535 244.246 Q 277.262 244.567 277.11 244.984 L 277.11 244.984 L 277.11 244.984 Q 276.957 245.401 276.909 245.834 L 276.909 245.834 Z  M 286.695 249.733 L 286.695 249.733 L 286.695 249.733 Q 287.61 249.733 288.051 249.492 L 288.051 249.492 L 288.051 249.492 Q 288.492 249.251 288.492 248.722 L 288.492 248.722 L 288.492 248.722 Q 288.492 248.176 288.059 247.856 L 288.059 247.856 L 288.059 247.856 Q 287.626 247.535 286.631 247.134 L 286.631 247.134 L 286.631 247.134 Q 286.15 246.941 285.709 246.741 L 285.709 246.741 L 285.709 246.741 Q 285.267 246.54 284.947 246.267 L 284.947 246.267 L 284.947 246.267 Q 284.626 245.995 284.433 245.61 L 284.433 245.61 L 284.433 245.61 Q 284.241 245.225 284.241 244.663 L 284.241 244.663 L 284.241 244.663 Q 284.241 243.556 285.059 242.906 L 285.059 242.906 L 285.059 242.906 Q 285.877 242.257 287.289 242.257 L 287.289 242.257 L 287.289 242.257 Q 287.642 242.257 287.995 242.297 L 287.995 242.297 L 287.995 242.297 Q 288.348 242.337 288.652 242.393 L 288.652 242.393 L 288.652 242.393 Q 288.957 242.449 289.19 242.513 L 289.19 242.513 L 289.19 242.513 Q 289.422 242.578 289.551 242.626 L 289.551 242.626 L 289.278 243.909 L 289.278 243.909 Q 289.037 243.781 288.524 243.644 L 288.524 243.644 L 288.524 243.644 Q 288.011 243.508 287.289 243.508 L 287.289 243.508 L 287.289 243.508 Q 286.663 243.508 286.198 243.757 L 286.198 243.757 L 286.198 243.757 Q 285.733 244.005 285.733 244.535 L 285.733 244.535 L 285.733 244.535 Q 285.733 244.807 285.837 245.016 L 285.837 245.016 L 285.837 245.016 Q 285.941 245.225 286.158 245.393 L 286.158 245.393 L 286.158 245.393 Q 286.374 245.561 286.695 245.706 L 286.695 245.706 L 286.695 245.706 Q 287.016 245.85 287.465 246.011 L 287.465 246.011 L 287.465 246.011 Q 288.059 246.235 288.524 246.452 L 288.524 246.452 L 288.524 246.452 Q 288.989 246.668 289.318 246.957 L 289.318 246.957 L 289.318 246.957 Q 289.647 247.246 289.824 247.655 L 289.824 247.655 L 289.824 247.655 Q 290 248.064 290 248.658 L 290 248.658 L 290 248.658 Q 290 249.813 289.142 250.406 L 289.142 250.406 L 289.142 250.406 Q 288.283 251 286.695 251 L 286.695 251 L 286.695 251 Q 285.588 251 284.963 250.816 L 284.963 250.816 L 284.963 250.816 Q 284.337 250.631 284.112 250.535 L 284.112 250.535 L 284.385 249.251 L 284.385 249.251 Q 284.642 249.348 285.203 249.54 L 285.203 249.54 L 285.203 249.54 Q 285.765 249.733 286.695 249.733 Z " fill-rule="evenodd" fill="rgb(250,250,250)" />
            <path d=" M 516.78 242.944 L 516.78 242.944 L 516.78 242.944 Q 516.78 243.491 516.56 243.999 L 516.56 243.999 L 516.56 243.999 Q 516.34 244.507 515.976 245 L 515.976 245 L 515.976 245 Q 515.612 245.493 515.157 245.971 L 515.157 245.971 L 515.157 245.971 Q 514.702 246.449 514.247 246.904 L 514.247 246.904 L 514.247 246.904 Q 513.989 247.162 513.647 247.511 L 513.647 247.511 L 513.647 247.511 Q 513.306 247.86 513.003 248.239 L 513.003 248.239 L 513.003 248.239 Q 512.699 248.618 512.494 248.967 L 512.494 248.967 L 512.494 248.967 Q 512.29 249.316 512.29 249.574 L 512.29 249.574 L 517.129 249.574 L 517.129 250.772 L 510.757 250.772 L 510.757 250.772 Q 510.742 250.681 510.742 250.59 L 510.742 250.59 L 510.742 250.59 Q 510.742 250.499 510.742 250.424 L 510.742 250.424 L 510.742 250.424 Q 510.742 249.71 510.977 249.096 L 510.977 249.096 L 510.977 249.096 Q 511.212 248.482 511.592 247.936 L 511.592 247.936 L 511.592 247.936 Q 511.971 247.389 512.441 246.904 L 512.441 246.904 L 512.441 246.904 Q 512.912 246.418 513.367 245.963 L 513.367 245.963 L 513.367 245.963 Q 513.746 245.599 514.087 245.243 L 514.087 245.243 L 514.087 245.243 Q 514.429 244.886 514.694 244.53 L 514.694 244.53 L 514.694 244.53 Q 514.96 244.173 515.119 243.794 L 515.119 243.794 L 515.119 243.794 Q 515.278 243.415 515.278 242.99 L 515.278 242.99 L 515.278 242.99 Q 515.278 242.535 515.134 242.216 L 515.134 242.216 L 515.134 242.216 Q 514.99 241.898 514.747 241.685 L 514.747 241.685 L 514.747 241.685 Q 514.504 241.473 514.178 241.374 L 514.178 241.374 L 514.178 241.374 Q 513.852 241.276 513.488 241.276 L 513.488 241.276 L 513.488 241.276 Q 513.048 241.276 512.684 241.397 L 512.684 241.397 L 512.684 241.397 Q 512.32 241.518 512.032 241.678 L 512.032 241.678 L 512.032 241.678 Q 511.743 241.837 511.546 242.011 L 511.546 242.011 L 511.546 242.011 Q 511.349 242.186 511.243 242.277 L 511.243 242.277 L 510.545 241.276 L 510.545 241.276 Q 510.681 241.124 510.954 240.904 L 510.954 240.904 L 510.954 240.904 Q 511.228 240.684 511.607 240.487 L 511.607 240.487 L 511.607 240.487 Q 511.986 240.29 512.456 240.153 L 512.456 240.153 L 512.456 240.153 Q 512.927 240.016 513.473 240.016 L 513.473 240.016 L 513.473 240.016 Q 515.126 240.016 515.953 240.783 L 515.953 240.783 L 515.953 240.783 Q 516.78 241.549 516.78 242.944 Z  M 519.01 245.508 L 519.01 245.508 L 519.01 245.508 Q 519.01 242.869 519.943 241.442 L 519.943 241.442 L 519.943 241.442 Q 520.876 240.016 522.53 240.016 L 522.53 240.016 L 522.53 240.016 Q 524.183 240.016 525.116 241.442 L 525.116 241.442 L 525.116 241.442 Q 526.049 242.869 526.049 245.508 L 526.049 245.508 L 526.049 245.508 Q 526.049 248.148 525.116 249.574 L 525.116 249.574 L 525.116 249.574 Q 524.183 251 522.53 251 L 522.53 251 L 522.53 251 Q 520.876 251 519.943 249.574 L 519.943 249.574 L 519.943 249.574 Q 519.01 248.148 519.01 245.508 Z  M 524.563 245.508 L 524.563 245.508 L 524.563 245.508 Q 524.563 244.643 524.464 243.87 L 524.464 243.87 L 524.464 243.87 Q 524.365 243.096 524.13 242.52 L 524.13 242.52 L 524.13 242.52 Q 523.895 241.943 523.501 241.602 L 523.501 241.602 L 523.501 241.602 Q 523.106 241.26 522.53 241.26 L 522.53 241.26 L 522.53 241.26 Q 521.953 241.26 521.559 241.602 L 521.559 241.602 L 521.559 241.602 Q 521.164 241.943 520.929 242.52 L 520.929 242.52 L 520.929 242.52 Q 520.694 243.096 520.595 243.87 L 520.595 243.87 L 520.595 243.87 Q 520.497 244.643 520.497 245.508 L 520.497 245.508 L 520.497 245.508 Q 520.497 246.373 520.595 247.147 L 520.595 247.147 L 520.595 247.147 Q 520.694 247.92 520.929 248.497 L 520.929 248.497 L 520.929 248.497 Q 521.164 249.073 521.559 249.415 L 521.559 249.415 L 521.559 249.415 Q 521.953 249.756 522.53 249.756 L 522.53 249.756 L 522.53 249.756 Q 523.106 249.756 523.501 249.415 L 523.501 249.415 L 523.501 249.415 Q 523.895 249.073 524.13 248.497 L 524.13 248.497 L 524.13 248.497 Q 524.365 247.92 524.464 247.147 L 524.464 247.147 L 524.464 247.147 Q 524.563 246.373 524.563 245.508 Z  M 529.69 249.953 L 529.69 249.953 L 529.69 249.953 Q 529.69 250.363 529.417 250.666 L 529.417 250.666 L 529.417 250.666 Q 529.144 250.97 528.674 250.97 L 528.674 250.97 L 528.674 250.97 Q 528.204 250.97 527.93 250.666 L 527.93 250.666 L 527.93 250.666 Q 527.657 250.363 527.657 249.953 L 527.657 249.953 L 527.657 249.953 Q 527.657 249.544 527.93 249.24 L 527.93 249.24 L 527.93 249.24 Q 528.204 248.937 528.674 248.937 L 528.674 248.937 L 528.674 248.937 Q 529.144 248.937 529.417 249.24 L 529.417 249.24 L 529.417 249.24 Q 529.69 249.544 529.69 249.953 Z  M 529.69 243.9 L 529.69 243.9 L 529.69 243.9 Q 529.69 244.31 529.417 244.613 L 529.417 244.613 L 529.417 244.613 Q 529.144 244.917 528.674 244.917 L 528.674 244.917 L 528.674 244.917 Q 528.204 244.917 527.93 244.613 L 527.93 244.613 L 527.93 244.613 Q 527.657 244.31 527.657 243.9 L 527.657 243.9 L 527.657 243.9 Q 527.657 243.491 527.93 243.187 L 527.93 243.187 L 527.93 243.187 Q 528.204 242.884 528.674 242.884 L 528.674 242.884 L 528.674 242.884 Q 529.144 242.884 529.417 243.187 L 529.417 243.187 L 529.417 243.187 Q 529.69 243.491 529.69 243.9 Z  M 533.968 249.741 L 533.968 249.741 L 533.968 249.741 Q 535.319 249.741 535.903 249.21 L 535.903 249.21 L 535.903 249.21 Q 536.487 248.679 536.487 247.784 L 536.487 247.784 L 536.487 247.784 Q 536.487 247.207 536.244 246.813 L 536.244 246.813 L 536.244 246.813 Q 536.001 246.418 535.607 246.183 L 535.607 246.183 L 535.607 246.183 Q 535.212 245.948 534.689 245.85 L 534.689 245.85 L 534.689 245.85 Q 534.166 245.751 533.619 245.751 L 533.619 245.751 L 533.255 245.751 L 533.255 244.598 L 533.756 244.598 L 533.756 244.598 Q 534.135 244.598 534.537 244.522 L 534.537 244.522 L 534.537 244.522 Q 534.939 244.446 535.273 244.249 L 535.273 244.249 L 535.273 244.249 Q 535.607 244.052 535.819 243.71 L 535.819 243.71 L 535.819 243.71 Q 536.032 243.369 536.032 242.853 L 536.032 242.853 L 536.032 242.853 Q 536.032 242.429 535.88 242.125 L 535.88 242.125 L 535.88 242.125 Q 535.728 241.822 535.478 241.625 L 535.478 241.625 L 535.478 241.625 Q 535.228 241.427 534.901 241.344 L 534.901 241.344 L 534.901 241.344 Q 534.575 241.26 534.211 241.26 L 534.211 241.26 L 534.211 241.26 Q 533.483 241.26 532.975 241.473 L 532.975 241.473 L 532.975 241.473 Q 532.466 241.685 532.118 241.913 L 532.118 241.913 L 531.571 240.836 L 531.571 240.836 Q 531.753 240.714 532.034 240.57 L 532.034 240.57 L 532.034 240.57 Q 532.315 240.426 532.664 240.305 L 532.664 240.305 L 532.664 240.305 Q 533.013 240.183 533.415 240.1 L 533.415 240.1 L 533.415 240.1 Q 533.817 240.016 534.257 240.016 L 534.257 240.016 L 534.257 240.016 Q 535.091 240.016 535.698 240.221 L 535.698 240.221 L 535.698 240.221 Q 536.305 240.426 536.699 240.798 L 536.699 240.798 L 536.699 240.798 Q 537.094 241.169 537.291 241.678 L 537.291 241.678 L 537.291 241.678 Q 537.488 242.186 537.488 242.777 L 537.488 242.777 L 537.488 242.777 Q 537.488 243.597 537.018 244.181 L 537.018 244.181 L 537.018 244.181 Q 536.547 244.765 535.88 245.068 L 535.88 245.068 L 535.88 245.068 Q 536.29 245.19 536.669 245.417 L 536.669 245.417 L 536.669 245.417 Q 537.048 245.645 537.329 245.994 L 537.329 245.994 L 537.329 245.994 Q 537.609 246.343 537.784 246.798 L 537.784 246.798 L 537.784 246.798 Q 537.958 247.253 537.958 247.814 L 537.958 247.814 L 537.958 247.814 Q 537.958 248.497 537.723 249.081 L 537.723 249.081 L 537.723 249.081 Q 537.488 249.665 536.995 250.09 L 536.995 250.09 L 536.995 250.09 Q 536.502 250.515 535.759 250.757 L 535.759 250.757 L 535.759 250.757 Q 535.015 251 533.999 251 L 533.999 251 L 533.999 251 Q 533.604 251 533.187 250.939 L 533.187 250.939 L 533.187 250.939 Q 532.77 250.879 532.406 250.788 L 532.406 250.788 L 532.406 250.788 Q 532.042 250.697 531.769 250.606 L 531.769 250.606 L 531.769 250.606 Q 531.496 250.515 531.374 250.454 L 531.374 250.454 L 531.647 249.225 L 531.647 249.225 Q 531.905 249.346 532.504 249.544 L 532.504 249.544 L 532.504 249.544 Q 533.104 249.741 533.968 249.741 Z  M 539.855 245.508 L 539.855 245.508 L 539.855 245.508 Q 539.855 242.869 540.788 241.442 L 540.788 241.442 L 540.788 241.442 Q 541.721 240.016 543.374 240.016 L 543.374 240.016 L 543.374 240.016 Q 545.028 240.016 545.961 241.442 L 545.961 241.442 L 545.961 241.442 Q 546.894 242.869 546.894 245.508 L 546.894 245.508 L 546.894 245.508 Q 546.894 248.148 545.961 249.574 L 545.961 249.574 L 545.961 249.574 Q 545.028 251 543.374 251 L 543.374 251 L 543.374 251 Q 541.721 251 540.788 249.574 L 540.788 249.574 L 540.788 249.574 Q 539.855 248.148 539.855 245.508 Z  M 545.407 245.508 L 545.407 245.508 L 545.407 245.508 Q 545.407 244.643 545.308 243.87 L 545.308 243.87 L 545.308 243.87 Q 545.21 243.096 544.975 242.52 L 544.975 242.52 L 544.975 242.52 Q 544.74 241.943 544.345 241.602 L 544.345 241.602 L 544.345 241.602 Q 543.951 241.26 543.374 241.26 L 543.374 241.26 L 543.374 241.26 Q 542.798 241.26 542.403 241.602 L 542.403 241.602 L 542.403 241.602 Q 542.009 241.943 541.774 242.52 L 541.774 242.52 L 541.774 242.52 Q 541.539 243.096 541.44 243.87 L 541.44 243.87 L 541.44 243.87 Q 541.341 244.643 541.341 245.508 L 541.341 245.508 L 541.341 245.508 Q 541.341 246.373 541.44 247.147 L 541.44 247.147 L 541.44 247.147 Q 541.539 247.92 541.774 248.497 L 541.774 248.497 L 541.774 248.497 Q 542.009 249.073 542.403 249.415 L 542.403 249.415 L 542.403 249.415 Q 542.798 249.756 543.374 249.756 L 543.374 249.756 L 543.374 249.756 Q 543.951 249.756 544.345 249.415 L 544.345 249.415 L 544.345 249.415 Q 544.74 249.073 544.975 248.497 L 544.975 248.497 L 544.975 248.497 Q 545.21 247.92 545.308 247.147 L 545.308 247.147 L 545.308 247.147 Q 545.407 246.373 545.407 245.508 Z  M 481.736 243.642 L 481.736 243.642 L 481.736 243.642 Q 481.099 245.675 480.446 247.405 L 480.446 247.405 L 480.446 247.405 Q 479.794 249.134 479.142 250.772 L 479.142 250.772 L 477.67 250.772 L 477.67 250.772 Q 476.866 248.451 476.252 245.872 L 476.252 245.872 L 476.252 245.872 Q 475.637 243.293 475.106 240.259 L 475.106 240.259 L 476.654 240.259 L 476.654 240.259 Q 476.866 241.442 477.094 242.626 L 477.094 242.626 L 477.094 242.626 Q 477.321 243.809 477.564 244.924 L 477.564 244.924 L 477.564 244.924 Q 477.807 246.039 478.049 247.056 L 478.049 247.056 L 478.049 247.056 Q 478.292 248.072 478.55 248.937 L 478.55 248.937 L 478.55 248.937 Q 479.157 247.344 479.839 245.44 L 479.839 245.44 L 479.839 245.44 Q 480.522 243.536 481.114 241.503 L 481.114 241.503 L 482.388 241.503 L 482.388 241.503 Q 482.98 243.536 483.678 245.44 L 483.678 245.44 L 483.678 245.44 Q 484.375 247.344 484.982 248.937 L 484.982 248.937 L 484.982 248.937 Q 485.225 248.087 485.468 247.071 L 485.468 247.071 L 485.468 247.071 Q 485.71 246.054 485.946 244.939 L 485.946 244.939 L 485.946 244.939 Q 486.181 243.824 486.408 242.633 L 486.408 242.633 L 486.408 242.633 Q 486.636 241.442 486.848 240.259 L 486.848 240.259 L 488.35 240.259 L 488.35 240.259 Q 487.804 243.293 487.19 245.872 L 487.19 245.872 L 487.19 245.872 Q 486.575 248.451 485.786 250.772 L 485.786 250.772 L 484.315 250.772 L 484.315 250.772 Q 483.647 249.134 483.01 247.405 L 483.01 247.405 L 483.01 247.405 Q 482.373 245.675 481.736 243.642 Z  M 489.549 246.843 L 489.549 246.843 L 489.549 246.843 Q 489.549 245.796 489.852 245.015 L 489.852 245.015 L 489.852 245.015 Q 490.155 244.234 490.656 243.718 L 490.656 243.718 L 490.656 243.718 Q 491.157 243.202 491.809 242.944 L 491.809 242.944 L 491.809 242.944 Q 492.461 242.686 493.144 242.686 L 493.144 242.686 L 493.144 242.686 Q 494.737 242.686 495.587 243.68 L 495.587 243.68 L 495.587 243.68 Q 496.436 244.674 496.436 246.707 L 496.436 246.707 L 496.436 246.707 Q 496.436 246.798 496.436 246.942 L 496.436 246.942 L 496.436 246.942 Q 496.436 247.086 496.421 247.207 L 496.421 247.207 L 491.02 247.207 L 491.02 247.207 Q 491.111 248.436 491.733 249.073 L 491.733 249.073 L 491.733 249.073 Q 492.355 249.71 493.675 249.71 L 493.675 249.71 L 493.675 249.71 Q 494.418 249.71 494.927 249.582 L 494.927 249.582 L 494.927 249.582 Q 495.435 249.453 495.693 249.331 L 495.693 249.331 L 495.89 250.515 L 495.89 250.515 Q 495.632 250.651 494.987 250.803 L 494.987 250.803 L 494.987 250.803 Q 494.343 250.954 493.523 250.954 L 493.523 250.954 L 493.523 250.954 Q 492.492 250.954 491.741 250.643 L 491.741 250.643 L 491.741 250.643 Q 490.99 250.332 490.504 249.786 L 490.504 249.786 L 490.504 249.786 Q 490.019 249.24 489.784 248.489 L 489.784 248.489 L 489.784 248.489 Q 489.549 247.738 489.549 246.843 Z  M 491.051 246.07 L 494.965 246.07 L 494.965 246.07 Q 494.98 245.114 494.487 244.499 L 494.487 244.499 L 494.487 244.499 Q 493.994 243.885 493.129 243.885 L 493.129 243.885 L 493.129 243.885 Q 492.643 243.885 492.272 244.075 L 492.272 244.075 L 492.272 244.075 Q 491.9 244.264 491.642 244.568 L 491.642 244.568 L 491.642 244.568 Q 491.384 244.871 491.24 245.265 L 491.24 245.265 L 491.24 245.265 Q 491.096 245.66 491.051 246.07 L 491.051 246.07 Z  M 503.566 249.544 L 503.566 244.552 L 503.566 244.552 Q 503.308 244.34 502.823 244.143 L 502.823 244.143 L 502.823 244.143 Q 502.338 243.946 501.761 243.946 L 501.761 243.946 L 501.761 243.946 Q 501.154 243.946 500.722 244.166 L 500.722 244.166 L 500.722 244.166 Q 500.29 244.386 500.016 244.772 L 500.016 244.772 L 500.016 244.772 Q 499.743 245.159 499.622 245.69 L 499.622 245.69 L 499.622 245.69 Q 499.501 246.221 499.501 246.828 L 499.501 246.828 L 499.501 246.828 Q 499.501 248.209 500.183 248.96 L 500.183 248.96 L 500.183 248.96 Q 500.866 249.71 502.004 249.71 L 502.004 249.71 L 502.004 249.71 Q 502.58 249.71 502.967 249.657 L 502.967 249.657 L 502.967 249.657 Q 503.354 249.604 503.566 249.544 L 503.566 249.544 Z  M 503.566 243.233 L 503.566 239.243 L 504.977 239 L 504.977 250.545 L 504.977 250.545 Q 504.492 250.681 503.733 250.818 L 503.733 250.818 L 503.733 250.818 Q 502.975 250.954 501.989 250.954 L 501.989 250.954 L 501.989 250.954 Q 501.078 250.954 500.35 250.666 L 500.35 250.666 L 500.35 250.666 Q 499.622 250.378 499.106 249.847 L 499.106 249.847 L 499.106 249.847 Q 498.59 249.316 498.31 248.55 L 498.31 248.55 L 498.31 248.55 Q 498.029 247.784 498.029 246.828 L 498.029 246.828 L 498.029 246.828 Q 498.029 245.918 498.264 245.159 L 498.264 245.159 L 498.264 245.159 Q 498.499 244.401 498.954 243.855 L 498.954 243.855 L 498.954 243.855 Q 499.41 243.308 500.07 243.005 L 500.07 243.005 L 500.07 243.005 Q 500.729 242.702 501.579 242.702 L 501.579 242.702 L 501.579 242.702 Q 502.262 242.702 502.785 242.884 L 502.785 242.884 L 502.785 242.884 Q 503.308 243.066 503.566 243.233 L 503.566 243.233 Z " fill-rule="evenodd" fill="rgb(250,250,250)" />
            <polygon points="789.869,250.5,779.738,240.5,800,240.5" fill="rgb(235,235,235)" />
            <g id="shutdown">
                <line x1="764.5" y1="240" x2="764.5" y2="245.238" vector-effect="non-scaling-stroke" stroke-width="1.375" stroke="rgb(250,250,250)" stroke-linejoin="round" stroke-linecap="round" stroke-miterlimit="10" />
                <path d=" M 767.119 240.655 C 768.821 241.598 770 243.405 770 245.5 C 770 248.538 767.538 251 764.5 251 C 761.462 251 759 248.538 759 245.5 C 759 243.405 760.152 241.598 761.881 240.655" fill="none" vector-effect="non-scaling-stroke" stroke-width="1.375" stroke="rgb(250,250,250)" stroke-linejoin="round" stroke-linecap="round" stroke-miterlimit="10" />
            </g>
            <path d=" M 747.71 241.492 L 747.176 242.025 C 748.48 242.931 749.255 244.411 749.255 246 C 749.255 247.589 748.48 249.069 747.176 249.975 L 747.71 250.512 C 749.147 249.46 750 247.79 750 246.003 C 749.997 244.213 749.147 242.543 747.71 241.492 L 747.71 241.492 Z  M 745.048 244.154 L 744.412 244.79 C 745.079 244.79 745.622 245.333 745.622 246 C 745.622 246.667 745.079 247.21 744.412 247.21 L 745.048 247.846 C 745.837 247.574 746.366 246.831 746.367 245.997 C 746.367 245.147 745.814 244.418 745.048 244.154 L 745.048 244.154 Z  M 746.37 242.832 L 745.824 243.378 C 746.792 243.896 747.394 244.906 747.391 246.003 C 747.391 247.108 746.792 248.104 745.824 248.628 L 746.37 249.174 C 747.468 248.498 748.135 247.313 748.135 246.006 C 748.135 244.694 747.465 243.508 746.37 242.832 L 746.37 242.832 Z  M 736.403 243.207 L 738.637 243.207 L 738.637 248.796 L 736.403 248.796 L 736.403 243.207 Z  M 739.01 248.904 L 743.105 253 L 743.105 239 L 739.01 243.099 L 739.01 248.904 L 739.01 248.904 Z " fill="rgb(235,235,235)" />
            <g id="more apps">
                <path d=" M 222.455 624.826 C 222.455 623.158 223.809 621.804 225.477 621.804 C 227.146 621.804 228.5 623.158 228.5 624.826 C 228.5 626.494 227.146 627.849 225.477 627.849 C 223.809 627.849 222.455 626.494 222.455 624.826 Z " fill="rgb(250,250,250)" />
                <path d=" M 231.909 624.826 C 231.909 623.158 233.264 621.804 234.932 621.804 C 236.6 621.804 237.955 623.158 237.955 624.826 C 237.955 626.494 236.6 627.849 234.932 627.849 C 233.264 627.849 231.909 626.494 231.909 624.826 Z " fill="rgb(250,250,250)" />
                <path d=" M 242.183 624.977 C 242.183 623.309 243.537 621.955 245.205 621.955 C 246.874 621.955 248.228 623.309 248.228 624.977 C 248.228 626.646 246.874 628 245.205 628 C 243.537 628 242.183 626.646 242.183 624.977 Z " fill="rgb(250,250,250)" />
                <path d=" M 221.727 634.826 C 221.727 633.158 223.081 631.804 224.749 631.804 C 226.418 631.804 227.772 633.158 227.772 634.826 C 227.772 636.494 226.418 637.849 224.749 637.849 C 223.081 637.849 221.727 636.494 221.727 634.826 Z " fill="rgb(250,250,250)" />
                <path d=" M 231.955 634.826 C 231.955 633.158 233.309 631.804 234.977 631.804 C 236.646 631.804 238 633.158 238 634.826 C 238 636.494 236.646 637.849 234.977 637.849 C 233.309 637.849 231.955 636.494 231.955 634.826 Z " fill="rgb(250,250,250)" />
                <path d=" M 242.183 634.826 C 242.183 633.158 243.537 631.804 245.205 631.804 C 246.874 631.804 248.228 633.158 248.228 634.826 C 248.228 636.494 246.874 637.849 245.205 637.849 C 243.537 637.849 242.183 636.494 242.183 634.826 Z " fill="rgb(250,250,250)" />
                <path d=" M 242.228 614.826 C 242.228 613.158 243.582 611.804 245.251 611.804 C 246.919 611.804 248.273 613.158 248.273 614.826 C 248.273 616.494 246.919 617.849 245.251 617.849 C 243.582 617.849 242.228 616.494 242.228 614.826 Z " fill="rgb(250,250,250)" />
                <path d=" M 231.955 614.826 C 231.955 613.158 233.309 611.804 234.977 611.804 C 236.646 611.804 238 613.158 238 614.826 C 238 616.494 236.646 617.849 234.977 617.849 C 233.309 617.849 231.955 616.494 231.955 614.826 Z " fill="rgb(250,250,250)" />
                <path d=" M 222.5 614.826 C 222.5 613.158 223.854 611.804 225.523 611.804 C 227.191 611.804 228.545 613.158 228.545 614.826 C 228.545 616.494 227.191 617.849 225.523 617.849 C 223.854 617.849 222.5 616.494 222.5 614.826 Z " fill="rgb(250,250,250)" />
            </g>
            <clipPath id="_clipPath_y4BGSLHSBVLoe3YNRmxmEWbRx3nhAR4W">
                <rect x="220" y="270" width="30" height="30" transform="matrix(1,0,0,1,0,0)" fill="rgb(255,255,255)" />
            </clipPath>
            <g clip-path="url(#_clipPath_y4BGSLHSBVLoe3YNRmxmEWbRx3nhAR4W)">
                <g id="Group">
                    <rect x="222.549" y="272.549" width="24.902" height="24.902" transform="matrix(1,0,0,1,0,0)" fill="rgb(30,136,229)" />
                    <g id="firefox-quantum">
                        <path d=" M 241.556 276.058 C 241.021 276.681 240.772 278.082 241.315 279.503 C 241.857 280.923 242.688 280.615 243.206 282.063 C 243.89 283.975 243.571 286.542 243.571 286.542 C 243.571 286.542 244.393 288.923 244.966 286.394 C 246.234 281.645 241.556 277.228 241.556 276.058 Z " fill="rgb(255,152,0)" />
                        <path d=" M 235.031 295.777 C 240.507 295.777 244.943 291.317 244.943 285.818 C 244.943 280.318 240.507 275.858 235.036 275.858 C 229.566 275.858 225.129 280.318 225.129 285.818 C 225.119 291.322 229.56 295.777 235.031 295.777 Z " fill="rgb(21,101,192)" />
                        <path d=" M 242.458 291.959 C 242.244 292.11 242.019 292.246 241.785 292.365 C 242.095 291.911 242.38 291.442 242.641 290.959 C 242.852 290.725 243.045 290.498 243.203 290.252 C 243.28 290.131 243.366 289.982 243.458 289.81 C 244.014 288.807 244.628 287.184 244.645 285.518 L 244.645 285.514 C 244.646 285.473 244.646 285.432 244.646 285.391 C 244.649 284.972 244.606 284.555 244.518 284.146 C 244.523 284.178 244.527 284.21 244.531 284.242 C 244.526 284.217 244.522 284.192 244.516 284.168 C 244.524 284.213 244.531 284.257 244.538 284.301 C 244.652 285.266 244.571 286.208 244.166 286.901 C 244.159 286.912 244.153 286.921 244.146 286.931 C 244.356 285.876 244.427 284.712 244.193 283.546 C 244.193 283.546 244.099 282.979 243.403 281.258 C 243.002 280.268 242.29 279.456 241.661 278.864 C 241.11 278.182 240.609 277.725 240.333 277.434 C 239.756 276.827 239.515 276.372 239.416 276.075 C 239.329 276.032 238.229 274.963 238.142 274.922 C 237.661 275.667 236.151 277.996 236.869 280.173 C 237.195 281.159 238.018 282.183 238.88 282.757 C 238.918 282.8 239.393 283.316 239.619 284.48 C 239.853 285.682 239.73 286.62 239.25 288.008 C 238.685 289.225 237.239 290.428 235.884 290.551 C 232.988 290.814 231.928 289.097 231.928 289.097 C 232.963 289.511 234.107 289.424 234.803 288.995 C 235.504 288.562 235.928 288.24 236.272 288.367 C 236.612 288.493 236.882 288.127 236.639 287.747 C 236.257 287.157 235.559 286.853 234.866 286.975 C 234.165 287.089 233.522 287.645 232.602 287.106 C 232.542 287.072 232.485 287.034 232.429 286.993 C 232.369 286.954 232.626 287.054 232.566 287.009 C 232.387 286.912 232.071 286.7 231.988 286.624 C 231.975 286.612 232.127 286.673 232.114 286.66 C 231.254 285.952 231.361 285.474 231.388 285.174 C 231.41 284.934 231.566 284.626 231.829 284.502 C 231.956 284.571 232.035 284.624 232.035 284.624 C 232.035 284.624 231.981 284.513 231.952 284.455 C 231.962 284.45 231.972 284.451 231.982 284.447 C 232.086 284.497 232.317 284.628 232.438 284.708 C 232.596 284.819 232.646 284.918 232.646 284.918 C 232.646 284.918 232.688 284.895 232.657 284.798 C 232.646 284.758 232.598 284.632 232.441 284.504 L 232.451 284.505 C 232.545 284.559 232.634 284.62 232.716 284.689 C 232.76 284.529 232.84 284.361 232.822 284.062 C 232.812 283.851 232.817 283.797 232.779 283.716 C 232.746 283.646 232.798 283.618 232.856 283.691 C 232.846 283.634 232.829 283.579 232.806 283.526 L 232.807 283.52 C 232.879 283.269 234.331 282.617 234.437 282.54 C 234.61 282.418 234.756 282.259 234.864 282.076 C 234.945 281.947 235.005 281.767 235.02 281.493 C 235.028 281.295 234.936 281.164 233.468 281.01 C 233.066 280.971 232.831 280.68 232.697 280.411 C 232.673 280.353 232.648 280.301 232.623 280.249 C 232.599 280.187 232.58 280.125 232.566 280.06 C 232.806 279.371 233.209 278.788 233.802 278.348 C 233.834 278.318 233.673 278.355 233.705 278.326 C 233.743 278.291 233.989 278.192 234.035 278.17 C 234.092 278.143 233.792 278.016 233.528 278.047 C 233.258 278.077 233.201 278.109 233.057 278.17 C 233.117 278.111 233.307 278.033 233.262 278.034 C 232.972 278.078 232.611 278.247 232.302 278.438 C 232.301 278.405 232.308 278.372 232.321 278.341 C 232.177 278.402 231.824 278.649 231.721 278.858 C 231.725 278.818 231.727 278.778 231.727 278.737 C 231.617 278.829 231.518 278.932 231.432 279.046 L 231.427 279.051 C 230.592 278.715 229.858 278.693 229.237 278.844 C 229.101 278.707 229.035 278.807 228.726 278.128 C 228.705 278.087 228.742 278.168 228.726 278.128 C 228.675 277.996 228.757 278.303 228.726 278.128 C 228.206 278.538 227.522 279.003 227.193 279.331 C 227.189 279.344 227.576 279.222 227.193 279.331 C 227.059 279.369 227.068 279.449 227.048 280.168 C 227.043 280.223 227.047 280.284 227.043 280.333 C 226.78 280.667 226.602 280.95 226.534 281.097 C 226.195 281.682 225.821 282.593 225.459 284.035 C 225.619 283.644 225.812 283.267 226.035 282.909 C 225.734 283.674 225.443 284.876 225.384 286.726 C 225.457 286.344 225.551 285.967 225.664 285.595 C 225.593 287.13 225.858 288.662 226.44 290.085 C 226.648 290.594 226.993 291.368 227.579 292.215 C 229.422 294.154 232.022 295.361 234.9 295.361 C 237.905 295.361 240.604 294.047 242.458 291.959 Z " fill="rgb(13,71,161)" />
                        <path d=" M 240.235 293.367 C 243.871 292.946 245.481 289.198 243.414 289.125 C 241.546 289.065 238.512 293.566 240.235 293.367 Z " fill="rgb(211,47,47)" />
                        <path d=" M 243.676 288.359 C 246.178 286.903 245.526 283.757 245.526 283.757 C 245.526 283.757 244.56 284.879 243.904 286.667 C 243.256 288.438 242.171 289.238 243.676 288.359 Z " fill="rgb(229,57,53)" />
                        <path d=" M 235.732 295.228 C 239.221 296.342 242.219 293.594 240.371 292.676 C 238.691 291.848 234.076 294.702 235.732 295.228 Z " fill="rgb(198,40,40)" />
                        <path d=" M 243.936 289.695 C 244.021 289.575 244.135 289.191 244.237 289.02 C 244.853 288.026 244.857 287.233 244.857 287.215 C 245.229 285.357 245.195 284.598 244.966 283.194 C 244.782 282.065 243.977 280.446 243.279 279.666 C 242.56 278.863 243.066 279.125 242.37 278.538 C 241.76 277.862 241.168 277.192 240.846 276.923 C 238.518 274.976 238.57 274.562 238.615 274.492 C 238.608 274.5 238.596 274.513 238.582 274.529 C 238.555 274.419 238.535 274.326 238.535 274.326 C 238.535 274.326 237.262 275.599 236.994 277.72 C 236.82 279.105 237.338 280.549 238.089 281.472 C 238.48 281.95 238.921 282.384 239.406 282.767 L 239.406 282.766 C 239.973 283.581 240.285 284.586 240.285 285.667 C 240.285 288.375 238.089 290.569 235.381 290.569 C 235.011 290.57 234.643 290.528 234.283 290.446 C 233.005 290.203 232.267 289.558 231.899 289.12 C 231.688 288.869 231.599 288.686 231.599 288.686 C 232.744 289.097 234.01 289.011 234.78 288.586 C 235.556 288.155 236.025 287.836 236.406 287.962 C 236.782 288.087 237.081 287.724 236.813 287.347 C 236.55 286.971 235.866 286.432 234.85 286.582 C 234.074 286.695 233.362 287.246 232.344 286.712 C 232.279 286.678 232.215 286.641 232.153 286.6 C 232.086 286.561 232.371 286.66 232.305 286.615 C 232.107 286.519 231.756 286.309 231.665 286.234 C 231.65 286.222 231.819 286.282 231.804 286.27 C 230.852 285.568 230.971 285.093 231.001 284.796 C 231.025 284.558 231.197 284.253 231.489 284.129 C 231.629 284.198 231.717 284.25 231.717 284.25 C 231.717 284.25 231.657 284.14 231.625 284.082 C 231.636 284.078 231.647 284.079 231.658 284.075 C 231.773 284.125 232.028 284.254 232.162 284.333 C 232.337 284.444 232.393 284.542 232.393 284.542 C 232.393 284.542 232.439 284.52 232.405 284.423 C 232.392 284.384 232.339 284.258 232.166 284.131 L 232.177 284.133 C 232.28 284.185 232.378 284.246 232.47 284.315 C 232.519 284.156 232.607 283.99 232.588 283.693 C 232.576 283.484 232.581 283.43 232.54 283.349 C 232.504 283.28 232.561 283.253 232.625 283.325 C 232.614 283.268 232.595 283.213 232.57 283.161 L 232.571 283.156 C 232.65 282.907 234.257 282.26 234.374 282.184 C 234.563 282.066 234.724 281.909 234.847 281.723 C 234.937 281.596 235.004 281.417 235.02 281.145 C 235.026 281.023 234.988 280.926 234.562 280.833 C 234.307 280.778 233.912 280.724 233.302 280.666 C 232.858 280.627 232.597 280.339 232.449 280.072 C 232.422 280.015 232.394 279.963 232.367 279.911 C 232.341 279.851 232.32 279.788 232.304 279.725 C 232.57 279.028 233.048 278.434 233.672 278.026 C 233.708 277.997 233.529 278.034 233.565 278.004 C 233.607 277.97 233.879 277.872 233.93 277.85 C 233.993 277.823 233.661 277.697 233.369 277.728 C 233.07 277.758 233.007 277.79 232.848 277.85 C 232.914 277.791 233.124 277.714 233.075 277.715 C 232.753 277.759 232.353 277.926 232.012 278.116 C 232.011 278.083 232.018 278.05 232.032 278.02 C 231.873 278.08 231.482 278.325 231.368 278.532 C 231.373 278.492 231.375 278.453 231.375 278.413 C 231.255 278.502 231.146 278.605 231.049 278.719 L 231.043 278.723 C 230.12 278.39 229.307 278.369 228.62 278.518 C 228.469 278.383 228.227 278.178 227.885 277.504 C 227.862 277.464 227.849 277.588 227.832 277.548 C 227.699 277.24 227.618 276.734 227.631 276.386 C 227.631 276.386 227.356 276.511 227.129 277.035 C 227.087 277.129 227.059 277.181 227.032 277.233 C 227.02 277.248 227.061 277.061 227.054 277.071 C 227.014 277.138 226.912 277.231 226.867 277.353 C 226.836 277.442 226.793 277.493 226.765 277.605 L 226.759 277.615 C 226.756 277.582 226.767 277.479 226.759 277.5 C 226.653 277.716 226.561 277.938 226.484 278.167 C 226.362 278.57 226.219 279.118 226.197 279.832 C 226.191 279.886 226.196 279.946 226.191 279.995 C 225.901 280.327 225.703 280.607 225.628 280.753 C 225.253 281.333 224.839 282.236 224.438 283.666 C 224.617 283.275 224.83 282.902 225.076 282.55 C 224.742 283.309 224.42 284.5 224.356 286.335 C 224.437 285.956 224.54 285.581 224.665 285.213 C 224.608 286.437 224.75 287.954 225.524 289.666 C 225.983 290.673 227.041 292.717 229.624 294.313 L 229.624 294.313 C 229.624 294.313 230.503 294.967 232.014 295.458 C 232.125 295.498 232.238 295.538 232.354 295.577 C 232.318 295.562 232.283 295.547 232.249 295.531 C 233.254 295.832 234.298 295.986 235.348 295.986 C 239.26 295.99 240.413 294.419 240.413 294.419 C 240.413 294.419 240.409 294.422 240.402 294.427 Q 240.485 294.349 240.561 294.265 C 239.944 294.848 238.536 294.887 238.009 294.845 C 238.907 294.581 239.498 294.358 240.648 293.917 Q 240.85 293.843 241.061 293.747 C 241.076 293.74 241.091 293.733 241.107 293.726 C 241.134 293.713 241.162 293.701 241.19 293.687 C 241.75 293.423 242.277 293.093 242.759 292.705 C 243.914 291.783 244.165 290.884 244.296 290.291 C 244.278 290.348 244.221 290.48 244.181 290.566 C 243.883 291.202 243.224 291.592 242.508 291.927 C 242.849 291.48 243.165 291.014 243.454 290.533 C 243.688 290.301 243.761 289.938 243.936 289.695 Z " fill="rgb(230,81,0)" />
                        <path d=" M 242.53 291.9 C 243.001 291.381 243.424 290.787 243.744 290.114 C 244.568 288.381 245.842 285.501 244.839 282.493 C 244.046 280.115 242.957 278.815 241.574 277.545 C 239.329 275.482 238.702 274.561 238.702 274.014 C 238.702 274.014 236.11 276.903 237.234 279.917 C 238.359 282.931 240.661 282.821 242.184 285.966 C 243.977 289.667 240.734 293.706 238.052 294.836 C 238.217 294.8 244.014 293.488 244.318 290.172 C 244.312 290.233 244.181 291.15 242.53 291.9 Z " fill="rgb(255,152,0)" />
                        <path d=" M 235.02 281.145 C 235.029 280.949 234.927 280.818 233.308 280.666 C 232.642 280.604 232.387 279.989 232.309 279.729 C 232.072 280.345 231.974 280.991 232.027 281.772 C 232.063 282.284 232.406 282.833 232.571 283.156 C 232.571 283.156 232.607 283.108 232.624 283.091 C 232.934 282.769 234.231 282.278 234.352 282.208 C 234.487 282.123 234.998 281.75 235.02 281.145 Z " fill="rgb(255,143,0)" />
                        <path d=" M 227.891 277.508 C 227.868 277.467 227.855 277.591 227.837 277.551 C 227.704 277.243 227.623 276.743 227.643 276.39 C 227.643 276.39 227.367 276.515 227.14 277.039 C 227.098 277.133 227.07 277.185 227.043 277.237 C 227.031 277.252 227.072 277.065 227.065 277.075 C 227.026 277.142 226.923 277.236 226.879 277.351 C 226.842 277.446 226.804 277.497 226.776 277.614 C 226.767 277.646 226.784 277.473 226.777 277.494 C 226.247 278.517 226.146 280.064 226.202 279.999 C 227.329 278.795 228.621 278.51 228.621 278.51 C 228.484 278.409 228.185 278.116 227.891 277.508 L 227.891 277.508 Z " fill="rgb(211,47,47)" />
                        <path d=" M 242.526 291.914 C 244.852 289.631 246.029 286.855 245.532 283.741 C 245.532 283.741 245.73 285.338 244.977 286.971 C 245.339 285.377 245.381 283.395 244.419 281.344 C 243.135 278.606 241.024 277.165 240.218 276.563 C 238.996 275.653 238.49 274.725 238.481 274.534 C 238.116 275.281 237.012 277.843 238.362 280.049 C 239.627 282.116 241.62 282.73 243.014 284.626 C 245.584 288.119 242.526 291.914 242.526 291.914 Z " fill="rgb(253,216,53)" />
                        <path d=" M 242.193 285.972 C 241.38 284.293 240.366 283.561 239.406 282.767 C 239.518 282.923 239.545 282.979 239.607 283.08 C 240.452 283.98 241.697 286.176 240.793 288.932 C 239.091 294.121 232.282 291.678 231.568 290.992 C 231.857 293.995 236.884 295.432 240.156 293.484 C 242.019 291.721 243.525 288.724 242.193 285.972 Z " fill="rgb(255,111,0)" />
                    </g>
                </g>
            </g>
            <clipPath id="_clipPath_IfIUNqZIbg0efD8RPw1xMijTV5Y5J06o">
                <rect x="220.5" y="310" width="30" height="30" transform="matrix(1,0,0,1,0,0)" fill="rgb(255,255,255)" />
            </clipPath>
            <g clip-path="url(#_clipPath_IfIUNqZIbg0efD8RPw1xMijTV5Y5J06o)">
                <g id="Group">
                    <g id="App Store 2">
                        <rect x="223.049" y="312.549" width="24.902" height="24.902" transform="matrix(1,0,0,1,0,0)" fill="rgb(235,235,235)" />
                        <g id="Accessories">
                            <g id="Ruler">
                                <path d=" M 227.59 327.419 L 227.59 330.338 L 243.41 330.338 L 243.41 327.419 L 227.59 327.419 Z " fill-rule="evenodd" fill="rgb(139,104,69)" fill-opacity="0.8369715073529411" />
                                <path d=" M 228.176 328.133 L 228.176 328.148 C 228.176 328.225 228.238 328.287 228.315 328.287 L 242.685 328.287 C 242.762 328.287 242.824 328.225 242.824 328.148 L 242.824 328.133 C 242.824 328.056 242.762 327.994 242.685 327.994 L 228.315 327.994 C 228.238 327.994 228.176 328.056 228.176 328.133 Z " fill-rule="evenodd" fill="rgb(118,89,60)" fill-opacity="0.8256261488970589" />
                            </g>
                            <g id="Pen">
                                <path d=" M 228.775 333.685 L 229.064 331.556 C 229.991 331.211 230.679 331.658 230.784 332.673 L 228.935 333.789 Q 228.823 333.851 228.79 333.829 Q 228.756 333.807 228.775 333.685 Z " fill="rgb(255,204,128)" />
                                <path d=" M 232.734 325.905 L 234.454 327.022 L 230.784 332.673 C 230.322 332.016 229.635 331.57 229.064 331.556 L 232.734 325.905 Z " fill="rgb(66,165,245)" />
                                <rect x="232.598" y="325.315" width="2.638" height="1.319" transform="matrix(0.839,0.545,-0.545,0.839,215.325,-74.814)" fill="rgb(189,189,189)" />
                                <path d=" M 234.576 324.307 L 235.166 324.69 C 235.478 324.892 235.566 325.31 235.364 325.622 L 235.093 326.039 L 233.373 324.922 L 233.644 324.505 C 233.846 324.193 234.264 324.104 234.576 324.307 Z " fill="rgb(139,195,74)" />
                            </g>
                            <g id="Paint Pencil">
                                <path d=" M 241.997 333.932 Q 241.322 334.104 241.012 334.15 C 240.932 334.162 240.843 334.111 240.813 334.035 L 239.57 330.852 L 240.828 330.102 L 243.037 332.71 C 243.089 332.772 243.091 332.873 243.04 332.936 Q 242.823 333.209 242.381 333.7 C 242.295 333.796 242.123 333.9 241.997 333.932 Z " fill="rgb(121,85,72)" />
                                <path d=" M 238.517 329.059 Q 234.521 321.924 234.949 321.669 Q 235.376 321.414 239.778 328.34 C 239.506 328.799 239.034 329.048 238.517 329.059 Z " fill="rgb(136,14,79)" />
                                <path d=" M 238.517 329.059 C 238.97 328.986 239.443 328.738 239.778 328.34 L 240.828 330.102 C 240.506 330.476 240.036 330.756 239.57 330.852 L 238.517 329.059 Z " fill="rgb(235,235,235)" />
                            </g>
                        </g>
                        <path d=" M 223.781 314.327 L 223.781 318.009 C 223.781 318.603 224.263 319.084 224.856 319.084 L 246.144 319.084 C 246.737 319.084 247.219 318.603 247.219 318.009 L 247.219 314.327 C 247.219 313.734 246.737 313.252 246.144 313.252 L 224.856 313.252 C 224.263 313.252 223.781 313.734 223.781 314.327 Z " fill-rule="evenodd" fill="rgb(189,189,189)" />
                        <clipPath id="_clipPath_F2h1S1Lz55hM309qovl1DIRazZOkJJYU">
                            <path d=" M 223.781 314.327 L 223.781 318.009 C 223.781 318.603 224.263 319.084 224.856 319.084 L 246.144 319.084 C 246.737 319.084 247.219 318.603 247.219 318.009 L 247.219 314.327 C 247.219 313.734 246.737 313.252 246.144 313.252 L 224.856 313.252 C 224.263 313.252 223.781 313.734 223.781 314.327 Z " fill-rule="evenodd" fill="rgb(255,255,255)" />
                        </clipPath>
                        <g clip-path="url(#_clipPath_F2h1S1Lz55hM309qovl1DIRazZOkJJYU)">
                            <g id="Group">
                                <path d=" M 224.755 314.662 L 224.755 319.905 C 224.755 320.268 225.05 320.563 225.413 320.563 L 245.587 320.563 C 245.95 320.563 246.245 320.268 246.245 319.905 L 246.245 314.662 C 246.245 314.299 245.95 314.005 245.587 314.005 L 225.413 314.005 C 225.05 314.005 224.755 314.299 224.755 314.662 Z " fill-rule="evenodd" fill="rgb(0,150,136)" />
                                <path d=" M 224.755 315.688 L 224.755 320.17 C 224.755 320.535 225.052 320.832 225.417 320.832 L 245.583 320.832 C 245.948 320.832 246.245 320.535 246.245 320.17 L 246.245 315.688 C 246.245 315.322 245.948 315.026 245.583 315.026 L 225.417 315.026 C 225.052 315.026 224.755 315.322 224.755 315.688 Z " fill-rule="evenodd" fill="rgb(136,14,79)" />
                                <path d=" M 224.755 316.648 L 224.755 320.231 C 224.755 320.562 225.024 320.832 225.356 320.832 L 245.644 320.832 C 245.976 320.832 246.245 320.562 246.245 320.231 L 246.245 316.648 C 246.245 316.316 245.976 316.047 245.644 316.047 L 225.356 316.047 C 225.024 316.047 224.755 316.316 224.755 316.648 Z " fill-rule="evenodd" fill="rgb(255,193,7)" />
                                <path d=" M 224.755 317.626 L 224.755 320.301 C 224.755 320.594 224.993 320.832 225.286 320.832 L 245.714 320.832 C 246.007 320.832 246.245 320.594 246.245 320.301 L 246.245 317.626 C 246.245 317.333 246.007 317.095 245.714 317.095 L 225.286 317.095 C 224.993 317.095 224.755 317.333 224.755 317.626 Z " fill-rule="evenodd" fill="rgb(183,28,28)" />
                            </g>
                        </g>
                    </g>
                </g>
            </g>
            <clipPath id="_clipPath_z36TMnt5PAJVs4MikjPWrDSIytIeUtMD">
                <rect x="221.727" y="350" width="30" height="30" transform="matrix(1,0,0,1,0,0)" fill="rgb(255,255,255)" />
            </clipPath>
            <g clip-path="url(#_clipPath_z36TMnt5PAJVs4MikjPWrDSIytIeUtMD)">
                <g id="Group">
                    <rect x="224.276" y="352.549" width="24.902" height="24.902" transform="matrix(1,0,0,1,0,0)" fill="rgb(25,118,210)" />
                    <path d=" M 228.113 354.922 L 245.34 354.922 C 246.148 354.922 246.805 355.578 246.805 356.387 L 246.805 373.613 C 246.805 374.422 246.148 375.078 245.34 375.078 L 228.113 375.078 C 227.305 375.078 226.649 374.422 226.649 373.613 L 226.649 356.387 C 226.649 355.578 227.305 354.922 228.113 354.922 Z " fill="rgb(238,238,238)" />
                    <g id="brackets">
                        <path d=" M 237.899 356.533 L 245.193 356.533 L 245.193 373.467 L 237.899 373.467 L 237.899 356.533 Z  M 237.899 359.855 L 241.872 359.855 L 241.872 370.145 L 237.899 370.145 L 237.899 359.855 Z " fill-rule="evenodd" fill="rgb(33,33,33)" />
                        <path d=" M 228.26 356.533 L 235.555 356.533 L 235.555 373.467 L 228.26 373.467 L 228.26 356.533 Z  M 231.581 359.855 L 235.555 359.855 L 235.555 370.145 L 231.581 370.145 L 231.581 359.855 Z " fill-rule="evenodd" fill="rgb(33,33,33)" />
                    </g>
                </g>
            </g>
            <clipPath id="_clipPath_VRO0MrIlRRK40cAUR4ji2T5GSedHfnqk">
                <rect x="221.727" y="390" width="30" height="30" transform="matrix(1,0,0,1,0,0)" fill="rgb(255,255,255)" />
            </clipPath>
            <g clip-path="url(#_clipPath_VRO0MrIlRRK40cAUR4ji2T5GSedHfnqk)">
                <g id="Group">
                    <rect x="224.276" y="392.549" width="24.902" height="24.902" transform="matrix(1,0,0,1,0,0)" fill="rgb(33,33,33)" />
                    <g id="Calendar">
                        <path d=" M 226.305 401.923 L 245.592 398.752 L 248.064 413.759 L 228.658 416.97 L 226.305 401.923 Z " fill-rule="evenodd" fill="rgb(255,255,255)" />
                        <path d=" M 228.438 415.605 Q 235.36 414.961 238.865 414.375 Q 242.371 413.789 247.9 412.91 L 248.064 413.759 L 228.658 416.97 L 228.438 415.605 Z " fill-rule="evenodd" fill="rgb(200,199,199)" />
                        <path d=" M 226.316 401.991 L 225.39 396.066 L 244.65 393.03 L 245.615 398.888 L 226.316 401.991 Z " fill-rule="evenodd" fill="rgb(198,40,40)" />
                        <path d=" M 234.429 398.618 L 234.429 398.618 Q 234.471 398.679 234.481 398.742 L 234.481 398.742 L 234.481 398.742 Q 234.499 398.856 234.42 398.951 L 234.42 398.951 L 234.42 398.951 Q 234.341 399.045 234.223 399.064 L 234.223 399.064 L 234.223 399.064 Q 234.143 399.077 234.07 399.046 L 234.07 399.046 L 234.07 399.046 Q 233.997 399.015 233.946 398.937 L 233.946 398.937 L 233.734 398.612 L 232.609 398.791 L 232.505 399.168 L 232.505 399.168 Q 232.48 399.257 232.419 399.309 L 232.419 399.309 L 232.419 399.309 Q 232.358 399.362 232.278 399.375 L 232.278 399.375 L 232.278 399.375 Q 232.16 399.394 232.052 399.329 L 232.052 399.329 L 232.052 399.329 Q 231.944 399.264 231.926 399.15 L 231.926 399.15 L 231.926 399.15 Q 231.916 399.087 231.936 399.016 L 231.936 399.016 L 232.552 396.988 L 232.552 396.988 Q 232.582 396.887 232.663 396.823 L 232.663 396.823 L 232.663 396.823 Q 232.743 396.758 232.851 396.741 L 232.851 396.741 L 232.851 396.741 Q 232.955 396.725 233.053 396.76 L 233.053 396.76 L 233.053 396.76 Q 233.152 396.796 233.212 396.883 L 233.212 396.883 L 234.429 398.618 Z  M 232.971 397.448 L 232.748 398.278 L 233.442 398.167 L 232.971 397.448 Z  M 235.864 398.823 L 235.864 398.823 Q 235.333 398.908 235.014 398.681 L 235.014 398.681 L 235.014 398.681 Q 234.695 398.455 234.612 397.934 L 234.612 397.934 L 234.432 396.812 L 234.432 396.812 Q 234.41 396.67 234.481 396.572 L 234.481 396.572 L 234.481 396.572 Q 234.553 396.473 234.695 396.45 L 234.695 396.45 L 234.695 396.45 Q 234.837 396.427 234.936 396.499 L 234.936 396.499 L 234.936 396.499 Q 235.035 396.57 235.057 396.713 L 235.057 396.713 L 235.24 397.858 L 235.24 397.858 Q 235.283 398.122 235.423 398.246 L 235.423 398.246 L 235.423 398.246 Q 235.564 398.369 235.786 398.334 L 235.786 398.334 L 235.786 398.334 Q 236.008 398.298 236.104 398.137 L 236.104 398.137 L 236.104 398.137 Q 236.199 397.976 236.157 397.712 L 236.157 397.712 L 235.974 396.566 L 235.974 396.566 Q 235.951 396.424 236.023 396.325 L 236.023 396.325 L 236.023 396.325 Q 236.094 396.227 236.236 396.204 L 236.236 396.204 L 236.236 396.204 Q 236.379 396.181 236.479 396.252 L 236.479 396.252 L 236.479 396.252 Q 236.579 396.323 236.602 396.466 L 236.602 396.466 L 236.781 397.587 L 236.781 397.587 Q 236.864 398.104 236.628 398.422 L 236.628 398.422 L 236.628 398.422 Q 236.392 398.739 235.864 398.823 L 235.864 398.823 Z  M 239.072 396.862 L 239.072 396.862 Q 239.187 396.843 239.265 396.897 L 239.265 396.897 L 239.265 396.897 Q 239.343 396.95 239.36 397.058 L 239.36 397.058 L 239.456 397.662 L 239.456 397.662 Q 239.484 397.835 239.473 397.931 L 239.473 397.931 L 239.473 397.931 Q 239.461 398.028 239.402 398.091 L 239.402 398.091 L 239.402 398.091 Q 239.343 398.153 239.213 398.213 L 239.213 398.213 L 239.213 398.213 Q 239.083 398.27 238.922 398.315 L 238.922 398.315 L 238.922 398.315 Q 238.76 398.36 238.617 398.383 L 238.617 398.383 L 238.617 398.383 Q 238.218 398.447 237.901 398.343 L 237.901 398.343 L 237.901 398.343 Q 237.583 398.239 237.382 397.981 L 237.382 397.981 L 237.382 397.981 Q 237.18 397.723 237.118 397.334 L 237.118 397.334 L 237.118 397.334 Q 237.057 396.952 237.168 396.644 L 237.168 396.644 L 237.168 396.644 Q 237.279 396.336 237.543 396.137 L 237.543 396.137 L 237.543 396.137 Q 237.807 395.939 238.192 395.877 L 238.192 395.877 L 238.192 395.877 Q 238.435 395.838 238.637 395.865 L 238.637 395.865 L 238.637 395.865 Q 238.839 395.891 239.024 395.983 L 239.024 395.983 L 239.024 395.983 Q 239.09 396.015 239.124 396.059 L 239.124 396.059 L 239.124 396.059 Q 239.158 396.104 239.17 396.18 L 239.17 396.18 L 239.17 396.18 Q 239.187 396.288 239.14 396.372 L 239.14 396.372 L 239.14 396.372 Q 239.093 396.456 239.009 396.469 L 239.009 396.469 L 239.009 396.469 Q 238.954 396.478 238.911 396.469 L 238.911 396.469 L 238.911 396.469 Q 238.869 396.46 238.8 396.431 L 238.8 396.431 L 238.8 396.431 Q 238.661 396.383 238.543 396.369 L 238.543 396.369 L 238.543 396.369 Q 238.425 396.356 238.293 396.377 L 238.293 396.377 L 238.293 396.377 Q 237.964 396.43 237.832 396.64 L 237.832 396.64 L 237.832 396.64 Q 237.699 396.849 237.76 397.231 L 237.76 397.231 L 237.76 397.231 Q 237.823 397.624 238.022 397.786 L 238.022 397.786 L 238.022 397.786 Q 238.22 397.948 238.568 397.893 L 238.568 397.893 L 238.568 397.893 Q 238.734 397.866 238.892 397.805 L 238.892 397.805 L 238.819 397.351 L 238.569 397.391 L 238.569 397.391 Q 238.455 397.409 238.383 397.362 L 238.383 397.362 L 238.383 397.362 Q 238.311 397.314 238.295 397.21 L 238.295 397.21 L 238.295 397.21 Q 238.278 397.106 238.331 397.039 L 238.331 397.039 L 238.331 397.039 Q 238.385 396.971 238.499 396.953 L 238.499 396.953 L 239.072 396.862 Z " fill-rule="evenodd" fill="rgb(250,250,250)" />
                        <path d=" M 236.258 409.59 L 236.258 409.59 Q 236.717 409.516 236.97 409.663 L 236.97 409.663 L 236.97 409.663 Q 237.223 409.809 237.284 410.195 L 237.284 410.195 L 237.284 410.195 Q 237.347 410.591 237.153 410.814 L 237.153 410.814 L 237.153 410.814 Q 236.959 411.037 236.501 411.11 L 236.501 411.11 L 232.7 411.718 L 232.7 411.718 Q 232.325 411.777 232.07 411.589 L 232.07 411.589 L 232.07 411.589 Q 231.816 411.4 231.761 411.056 L 231.761 411.056 L 231.761 411.056 Q 231.689 410.608 231.985 410.187 L 231.985 410.187 L 233.826 407.532 L 233.826 407.532 Q 234.398 406.704 234.302 406.1 L 234.302 406.1 L 234.302 406.1 Q 234.245 405.746 234.012 405.591 L 234.012 405.591 L 234.012 405.591 Q 233.779 405.436 233.404 405.496 L 233.404 405.496 L 233.404 405.496 Q 233.102 405.544 232.861 405.673 L 232.861 405.673 L 232.861 405.673 Q 232.62 405.803 232.313 406.022 L 232.313 406.022 L 232.122 406.16 L 232.122 406.16 Q 232.083 406.187 231.974 406.274 L 231.974 406.274 L 231.974 406.274 Q 231.865 406.361 231.777 406.407 L 231.777 406.407 L 231.777 406.407 Q 231.688 406.454 231.584 406.47 L 231.584 406.47 L 231.584 406.47 Q 231.323 406.512 231.109 406.306 L 231.109 406.306 L 231.109 406.306 Q 230.894 406.1 230.843 405.777 L 230.843 405.777 L 230.843 405.777 Q 230.806 405.548 230.851 405.391 L 230.851 405.391 L 230.851 405.391 Q 230.895 405.234 231.063 405.079 L 231.063 405.079 L 231.063 405.079 Q 231.499 404.668 232.078 404.383 L 232.078 404.383 L 232.078 404.383 Q 232.657 404.098 233.251 404.004 L 233.251 404.004 L 233.251 404.004 Q 234.022 403.88 234.646 404.042 L 234.646 404.042 L 234.646 404.042 Q 235.27 404.204 235.663 404.627 L 235.663 404.627 L 235.663 404.627 Q 236.056 405.051 236.155 405.665 L 236.155 405.665 L 236.155 405.665 Q 236.256 406.3 236.085 406.867 L 236.085 406.867 L 236.085 406.867 Q 235.914 407.434 235.403 408.178 L 235.403 408.178 L 234.165 409.924 L 236.258 409.59 Z  M 240.567 405.537 L 240.567 405.537 Q 241.244 405.429 241.817 405.642 L 241.817 405.642 L 241.817 405.642 Q 242.39 405.854 242.773 406.343 L 242.773 406.343 L 242.773 406.343 Q 243.155 406.832 243.267 407.53 L 243.267 407.53 L 243.267 407.53 Q 243.387 408.28 243.124 408.909 L 243.124 408.909 L 243.124 408.909 Q 242.861 409.539 242.266 409.954 L 242.266 409.954 L 242.266 409.954 Q 241.67 410.37 240.826 410.505 L 240.826 410.505 L 240.826 410.505 Q 240.181 410.608 239.531 410.519 L 239.531 410.519 L 239.531 410.519 Q 238.881 410.431 238.38 410.169 L 238.38 410.169 L 238.38 410.169 Q 238.192 410.06 238.09 409.922 L 238.09 409.922 L 238.09 409.922 Q 237.987 409.783 237.954 409.575 L 237.954 409.575 L 237.954 409.575 Q 237.903 409.252 238.044 409 L 238.044 409 L 238.044 409 Q 238.185 408.748 238.446 408.706 L 238.446 408.706 L 238.446 408.706 Q 238.602 408.681 238.713 408.706 L 238.713 408.706 L 238.713 408.706 Q 238.823 408.731 239.05 408.813 L 239.05 408.813 L 239.275 408.883 L 239.275 408.883 Q 239.623 408.988 239.903 409.039 L 239.903 409.039 L 239.903 409.039 Q 240.184 409.091 240.496 409.041 L 240.496 409.041 L 240.496 409.041 Q 241.079 408.948 241.323 408.668 L 241.323 408.668 L 241.323 408.668 Q 241.567 408.389 241.487 407.889 L 241.487 407.889 L 241.487 407.889 Q 241.412 407.42 241.079 407.207 L 241.079 407.207 L 241.079 407.207 Q 240.746 406.993 240.225 407.076 L 240.225 407.076 L 240.225 407.076 Q 239.913 407.126 239.666 407.219 L 239.666 407.219 L 239.666 407.219 Q 239.419 407.312 239.097 407.502 L 239.097 407.502 L 239.097 407.502 Q 238.896 407.652 238.647 407.691 L 238.647 407.691 L 238.647 407.691 Q 238.355 407.738 238.13 407.598 L 238.13 407.598 L 238.13 407.598 Q 237.904 407.458 237.859 407.176 L 237.859 407.176 L 237.408 404.354 L 237.408 404.354 Q 237.338 403.917 237.531 403.651 L 237.531 403.651 L 237.531 403.651 Q 237.724 403.385 238.151 403.317 L 238.151 403.317 L 241.379 402.801 L 241.379 402.801 Q 242.285 402.656 242.4 403.375 L 242.4 403.375 L 242.4 403.375 Q 242.516 404.104 241.61 404.249 L 241.61 404.249 L 239.361 404.608 L 239.565 405.889 L 239.565 405.889 Q 239.973 405.632 240.567 405.537 L 240.567 405.537 Z " fill-rule="evenodd" fill="rgb(33,33,33)" />
                    </g>
                </g>
            </g>
            <clipPath id="_clipPath_9T8Yb7a4Ajht7QTy0EIwwwDngV4cFzvX">
                <rect x="221.727" y="430" width="30" height="30" transform="matrix(1,0,0,1,0,0)" fill="rgb(255,255,255)" />
            </clipPath>
            <g clip-path="url(#_clipPath_9T8Yb7a4Ajht7QTy0EIwwwDngV4cFzvX)">
                <g id="Group">
                    <path d=" M 224.276 432.549 L 224.276 457.451 L 249.178 457.451 L 249.178 432.549 L 224.276 432.549 Z " fill-rule="evenodd" fill="rgb(21,101,192)" />
                    <path d=" M 232.332 436.65 Q 230.099 436.612 224.276 436.63 L 224.276 442.188 L 249.178 442.188 L 249.178 440.605 Q 241.721 440.66 238.433 440.618 C 235.145 440.576 234.565 436.689 232.332 436.65 Z " fill-rule="evenodd" fill="rgb(30,136,229)" />
                    <path d=" M 231.863 437.559 Q 229.63 437.52 224.276 437.538 L 224.276 457.451 L 249.178 457.451 L 249.178 441.514 Q 241.282 441.568 237.994 441.526 C 234.705 441.484 234.097 437.597 231.863 437.559 Z " fill-rule="evenodd" fill="rgb(100,181,246)" />
                </g>
            </g>
        </g>
    </g>
</svg>