<?xml version="1.0" standalone="no"?>
<!-- Generator: Gravit.io -->
<svg xmlns="http://www.w3.org/2000/svg" xmlns:xlink="http://www.w3.org/1999/xlink" style="isolation:isolate" viewBox="0 0 1024 1024" width="1024" height="1024">
    <defs>
        <clipPath id="_clipPath_uC4kKbrMOQpPZzQvNYmPKjyWaTzyn4Hi">
            <rect width="1024" height="1024" />
        </clipPath>
    </defs>
    <g clip-path="url(#_clipPath_uC4kKbrMOQpPZzQvNYmPKjyWaTzyn4Hi)">
        <rect x="86" y="89.897" width="850" height="850" transform="matrix(1,0,0,1,0,0)" fill="rgb(144,164,174)" />
        <rect x="86" y="710" width="850" height="229.897" transform="matrix(1,0,0,1,0,0)" fill="rgb(84,110,122)" />
        <g id="MacBook Air">
            <path d=" M 172.746 817.366 Q 181.583 822.113 189.95 822.113 C 198.317 822.113 828.048 822.542 840.022 822.757 Q 851.996 822.971 852.667 813.907 Q 852.64 827.048 840.022 827.262 C 830.222 827.429 207.878 826.538 189.95 826.618 Q 172.022 826.699 172.746 817.366 Z " fill-rule="evenodd" fill="rgb(0,0,0)" />
            <mask id="_mask_QjV5aH9HPMDoVaERBC2CIIRY3OPNCYCg">
                <path d=" M 773.084 717.2 L 773.084 390.877 C 773.084 383.062 766.739 376.717 758.924 376.717 L 269.761 376.717 C 261.946 376.717 255.601 383.062 255.601 390.877 L 255.601 717.2 L 255.601 717.2 L 255.601 740.371 L 773.084 740.371 L 773.084 717.2 Z " fill-rule="evenodd" fill="white" stroke="none" />
            </mask>
            <path d=" M 773.084 717.2 L 773.084 390.877 C 773.084 383.062 766.739 376.717 758.924 376.717 L 269.761 376.717 C 261.946 376.717 255.601 383.062 255.601 390.877 L 255.601 717.2 L 255.601 717.2 L 255.601 740.371 L 773.084 740.371 L 773.084 717.2 Z " fill-rule="evenodd" fill="rgb(33,33,33)" mask="url(#_mask_QjV5aH9HPMDoVaERBC2CIIRY3OPNCYCg)" vector-effect="non-scaling-stroke" stroke-width="3.862" stroke="rgb(8,8,8)" stroke-linejoin="miter" stroke-linecap="square" stroke-miterlimit="10" />
            <path d=" M 255.881 730.073 C 260.386 730.073 768.799 730.073 772.017 730.073 C 775.235 730.073 777.455 731.277 779.096 733.291 C 780.736 735.305 847.283 805.28 851.175 810.528 C 855.067 815.775 850.61 822.757 844.096 822.757 C 621.664 822.757 183.018 822.328 178.01 822.113 C 173.001 821.898 170.287 816.32 175.435 809.884 C 180.584 803.448 243.227 736.916 245.584 734.579 C 247.94 732.241 251.376 730.073 255.881 730.073 Z " fill-rule="evenodd" fill="rgb(40,40,40)" />
            <path d=" M 431.118 822.435 L 592.027 822.435 L 592.027 826.94 L 431.118 826.94 L 431.118 822.435 Z " fill-rule="evenodd" fill="rgb(33,33,33)" />
            <path d=" M 388.19 781.564 L 639.208 781.564 L 652.724 819.538 L 374.03 819.538 L 388.19 781.564 Z " fill-rule="evenodd" fill="rgb(45,45,45)" />
            <g id="Keyboard">
                <path d=" M 248.521 736.509 L 780.164 736.509 L 821.357 780.277 L 206.685 780.277 L 248.521 736.509 Z " fill-rule="evenodd" fill="rgb(40,40,40)" />
                <path d=" M 392.052 771.266 L 594.153 771.266 L 596.084 779.633 L 388.834 779.633 L 392.052 771.266 Z " fill-rule="evenodd" fill="rgb(1,1,1)" />
                <path d=" M 597.477 771.266 L 645.838 771.266 L 648.862 779.633 L 599.302 779.633 L 597.477 771.266 Z " fill-rule="evenodd" fill="rgb(1,1,1)" />
                <path d=" M 648.968 771.266 L 687.069 771.266 L 690.699 779.633 L 652.313 779.633 L 648.968 771.266 Z " fill-rule="evenodd" fill="rgb(1,1,1)" />
                <path d=" M 690.161 771.266 L 727.618 771.266 L 733.179 779.633 L 694.149 779.633 L 690.161 771.266 Z " fill-rule="evenodd" fill="rgb(1,1,1)" />
                <path d=" M 730.71 771.266 L 768.811 771.266 L 775.015 779.633 L 735.985 779.633 L 730.71 771.266 Z " fill-rule="evenodd" fill="rgb(1,1,1)" />
                <path d=" M 771.259 771.266 L 809.36 771.266 L 816.851 779.633 L 777.822 779.633 L 771.259 771.266 Z " fill-rule="evenodd" fill="rgb(1,1,1)" />
                <path d=" M 715.157 763.542 L 802.16 763.542 L 809.128 770.622 L 719.579 770.622 L 715.157 763.542 Z " fill-rule="evenodd" fill="rgb(1,1,1)" />
                <path d=" M 675.251 763.542 L 712.198 763.542 L 716.444 770.622 L 678.417 770.622 L 675.251 763.542 Z " fill-rule="evenodd" fill="rgb(1,1,1)" />
                <path d=" M 635.346 763.542 L 672.292 763.542 L 675.251 770.622 L 637.868 770.622 L 635.346 763.542 Z " fill-rule="evenodd" fill="rgb(1,1,1)" />
                <path d=" M 595.441 763.542 L 632.387 763.542 L 634.702 770.622 L 596.675 770.622 L 595.441 763.542 Z " fill-rule="evenodd" fill="rgb(1,1,1)" />
                <path d=" M 555.535 763.542 L 591.838 763.542 L 593.51 770.622 L 556.126 770.622 L 555.535 763.542 Z " fill-rule="evenodd" fill="rgb(1,1,1)" />
                <path d=" M 515.63 763.542 L 551.933 763.542 L 552.961 770.622 L 515.577 770.622 L 515.63 763.542 Z " fill-rule="evenodd" fill="rgb(1,1,1)" />
                <path d=" M 475.081 763.542 L 512.027 763.542 L 512.412 770.622 L 474.384 770.622 L 475.081 763.542 Z " fill-rule="evenodd" fill="rgb(1,1,1)" />
                <path d=" M 435.175 763.542 L 472.122 763.542 L 471.863 770.622 L 433.192 770.622 L 435.175 763.542 Z " fill-rule="evenodd" fill="rgb(1,1,1)" />
                <path d=" M 395.27 763.542 L 432.216 763.542 L 430.026 770.622 L 392.643 770.622 L 395.27 763.542 Z " fill-rule="evenodd" fill="rgb(1,1,1)" />
                <path d=" M 355.364 763.542 L 391.667 763.542 L 389.477 770.622 L 351.45 770.622 L 355.364 763.542 Z " fill-rule="evenodd" fill="rgb(1,1,1)" />
                <path d=" M 315.459 763.542 L 351.762 763.542 L 348.928 770.622 L 310.901 770.622 L 315.459 763.542 Z " fill-rule="evenodd" fill="rgb(1,1,1)" />
                <path d=" M 225.35 763.542 L 311.856 763.542 L 307.735 770.622 L 218.861 770.622 L 225.35 763.542 Z " fill-rule="evenodd" fill="rgb(1,1,1)" />
                <path d=" M 232.43 755.175 L 298.725 755.175 L 293.316 762.898 L 225.941 762.898 L 232.43 755.175 Z " fill-rule="evenodd" fill="rgb(1,1,1)" />
                <path d=" M 240.154 747.451 L 294.863 747.451 L 289.454 754.531 L 233.665 754.531 L 240.154 747.451 Z " fill-rule="evenodd" fill="rgb(1,1,1)" />
                <path d=" M 301.299 755.175 L 337.343 755.175 L 333.222 762.898 L 296.097 762.898 L 301.299 755.175 Z " fill-rule="evenodd" fill="rgb(1,1,1)" />
                <path d=" M 297.437 747.451 L 332.194 747.451 L 328.073 754.531 L 292.235 754.531 L 297.437 747.451 Z " fill-rule="evenodd" fill="rgb(1,1,1)" />
                <path d=" M 334.768 747.451 L 370.168 747.451 L 366.691 754.531 L 330.854 754.531 L 334.768 747.451 Z " fill-rule="evenodd" fill="rgb(1,1,1)" />
                <path d=" M 373.386 747.451 L 408.143 747.451 L 405.952 754.531 L 370.115 754.531 L 373.386 747.451 Z " fill-rule="evenodd" fill="rgb(1,1,1)" />
                <path d=" M 411.361 747.451 L 446.117 747.451 L 444.571 754.531 L 408.733 754.531 L 411.361 747.451 Z " fill-rule="evenodd" fill="rgb(1,1,1)" />
                <path d=" M 449.335 747.451 L 484.092 747.451 L 483.832 754.531 L 447.995 754.531 L 449.335 747.451 Z " fill-rule="evenodd" fill="rgb(1,1,1)" />
                <path d=" M 486.666 747.451 L 522.71 747.451 L 522.45 754.531 L 486.613 754.531 L 486.666 747.451 Z " fill-rule="evenodd" fill="rgb(1,1,1)" />
                <path d=" M 525.284 747.451 L 560.041 747.451 L 561.069 754.531 L 525.231 754.531 L 525.284 747.451 Z " fill-rule="evenodd" fill="rgb(1,1,1)" />
                <path d=" M 562.615 747.451 L 598.015 747.451 L 599.687 754.531 L 563.85 754.531 L 562.615 747.451 Z " fill-rule="evenodd" fill="rgb(1,1,1)" />
                <path d=" M 601.233 747.451 L 635.99 747.451 L 638.949 754.531 L 603.111 754.531 L 601.233 747.451 Z " fill-rule="evenodd" fill="rgb(1,1,1)" />
                <path d=" M 639.208 747.451 L 673.964 747.451 L 678.21 754.531 L 642.373 754.531 L 639.208 747.451 Z " fill-rule="evenodd" fill="rgb(1,1,1)" />
                <path d=" M 676.539 747.451 L 711.939 747.451 L 716.828 754.531 L 680.991 754.531 L 676.539 747.451 Z " fill-rule="evenodd" fill="rgb(1,1,1)" />
                <path d=" M 715.157 747.451 L 750.557 747.451 L 755.447 754.531 L 719.609 754.531 L 715.157 747.451 Z " fill-rule="evenodd" fill="rgb(1,1,1)" />
                <path d=" M 753.131 747.451 L 788.531 747.451 L 794.708 754.531 L 757.584 754.531 L 753.131 747.451 Z " fill-rule="evenodd" fill="rgb(1,1,1)" />
                <path d=" M 728.03 740.371 L 782.095 740.371 L 787.628 746.808 L 733.179 746.808 L 728.03 740.371 Z " fill-rule="evenodd" fill="rgb(1,1,1)" />
                <path d=" M 691.342 740.371 L 725.455 740.371 L 730.345 746.808 L 695.848 746.808 L 691.342 740.371 Z " fill-rule="evenodd" fill="rgb(1,1,1)" />
                <path d=" M 654.655 740.371 L 688.124 740.371 L 692.37 746.808 L 657.873 746.808 L 654.655 740.371 Z " fill-rule="evenodd" fill="rgb(1,1,1)" />
                <path d=" M 617.324 740.371 L 650.793 740.371 L 654.396 746.808 L 619.255 746.808 L 617.324 740.371 Z " fill-rule="evenodd" fill="rgb(1,1,1)" />
                <path d=" M 580.637 740.371 L 614.75 740.371 L 616.421 746.808 L 581.281 746.808 L 580.637 740.371 Z " fill-rule="evenodd" fill="rgb(1,1,1)" />
                <path d=" M 543.306 740.371 L 577.419 740.371 L 579.09 746.808 L 543.306 746.808 L 543.306 740.371 Z " fill-rule="evenodd" fill="rgb(1,1,1)" />
                <path d=" M 505.975 740.371 L 540.732 740.371 L 540.472 746.808 L 505.975 746.808 L 505.975 740.371 Z " fill-rule="evenodd" fill="rgb(1,1,1)" />
                <path d=" M 468.644 740.371 L 503.401 740.371 L 503.401 746.808 L 468.001 746.808 L 468.644 740.371 Z " fill-rule="evenodd" fill="rgb(1,1,1)" />
                <path d=" M 431.957 740.371 L 466.07 740.371 L 465.426 746.808 L 430.026 746.808 L 431.957 740.371 Z " fill-rule="evenodd" fill="rgb(1,1,1)" />
                <path d=" M 395.27 740.371 L 428.739 740.371 L 426.808 746.808 L 392.052 746.808 L 395.27 740.371 Z " fill-rule="evenodd" fill="rgb(1,1,1)" />
                <path d=" M 357.939 740.371 L 392.695 740.371 L 389.477 746.808 L 354.721 746.808 L 357.939 740.371 Z " fill-rule="evenodd" fill="rgb(1,1,1)" />
                <path d=" M 321.252 740.371 L 354.721 740.371 L 351.503 746.808 L 316.746 746.808 L 321.252 740.371 Z " fill-rule="evenodd" fill="rgb(1,1,1)" />
                <path d=" M 283.921 740.371 L 318.034 740.371 L 313.528 746.808 L 278.772 746.808 L 283.921 740.371 Z " fill-rule="evenodd" fill="rgb(1,1,1)" />
                <path d=" M 246.59 740.371 L 280.703 740.371 L 275.554 746.808 L 240.797 746.808 L 246.59 740.371 Z " fill-rule="evenodd" fill="rgb(1,1,1)" />
                <path d=" M 249.808 737.153 L 301.299 737.153 L 299.368 739.728 L 247.234 739.728 L 249.808 737.153 Z " fill-rule="evenodd" fill="rgb(1,1,1)" />
                <path d=" M 305.161 737.153 L 339.274 737.153 L 337.343 739.728 L 303.23 739.728 L 305.161 737.153 Z " fill-rule="evenodd" fill="rgb(1,1,1)" />
                <path d=" M 341.848 737.153 L 375.317 737.153 L 374.03 739.728 L 339.917 739.728 L 341.848 737.153 Z " fill-rule="evenodd" fill="rgb(1,1,1)" />
                <path d=" M 377.892 737.153 L 411.361 737.153 L 410.717 739.728 L 376.604 739.728 L 377.892 737.153 Z " fill-rule="evenodd" fill="rgb(1,1,1)" />
                <path d=" M 413.935 737.153 L 448.048 737.153 L 448.048 739.728 L 413.292 739.728 L 413.935 737.153 Z " fill-rule="evenodd" fill="rgb(1,1,1)" />
                <path d=" M 451.266 737.153 L 485.379 737.153 L 485.379 739.728 L 451.266 739.728 L 451.266 737.153 Z " fill-rule="evenodd" fill="rgb(1,1,1)" />
                <path d=" M 487.953 737.153 L 522.71 737.153 L 522.71 739.728 L 487.953 739.728 L 487.953 737.153 Z " fill-rule="evenodd" fill="rgb(1,1,1)" />
                <path d=" M 524.641 737.153 L 558.753 737.153 L 558.753 739.728 L 524.641 739.728 L 524.641 737.153 Z " fill-rule="evenodd" fill="rgb(1,1,1)" />
                <path d=" M 560.684 737.153 L 594.797 737.153 L 595.441 739.728 L 560.684 739.728 L 560.684 737.153 Z " fill-rule="evenodd" fill="rgb(1,1,1)" />
                <path d=" M 598.015 737.153 L 632.128 737.153 L 633.415 739.728 L 598.659 739.728 L 598.015 737.153 Z " fill-rule="evenodd" fill="rgb(1,1,1)" />
                <path d=" M 634.702 737.153 L 668.815 737.153 L 670.102 739.728 L 635.99 739.728 L 634.702 737.153 Z " fill-rule="evenodd" fill="rgb(1,1,1)" />
                <path d=" M 670.746 737.153 L 704.859 737.153 L 706.79 739.728 L 672.033 739.728 L 670.746 737.153 Z " fill-rule="evenodd" fill="rgb(1,1,1)" />
                <path d=" M 707.433 737.153 L 741.546 737.153 L 743.477 739.728 L 709.364 739.728 L 707.433 737.153 Z " fill-rule="evenodd" fill="rgb(1,1,1)" />
                <path d=" M 744.764 737.153 L 779.52 737.153 L 781.451 739.728 L 746.695 739.728 L 744.764 737.153 Z " fill-rule="evenodd" fill="rgb(1,1,1)" />
                <path d=" M 340.561 755.175 L 376.604 755.175 L 372.483 762.898 L 335.359 762.898 L 340.561 755.175 Z " fill-rule="evenodd" fill="rgb(1,1,1)" />
                <path d=" M 379.179 755.175 L 415.223 755.175 L 413.032 762.898 L 375.908 762.898 L 379.179 755.175 Z " fill-rule="evenodd" fill="rgb(1,1,1)" />
                <path d=" M 417.797 755.175 L 453.841 755.175 L 452.938 762.898 L 415.813 762.898 L 417.797 755.175 Z " fill-rule="evenodd" fill="rgb(1,1,1)" />
                <path d=" M 456.415 755.175 L 493.103 755.175 L 492.843 762.898 L 455.719 762.898 L 456.415 755.175 Z " fill-rule="evenodd" fill="rgb(1,1,1)" />
                <path d=" M 495.677 755.175 L 532.364 755.175 L 532.749 762.898 L 495.624 762.898 L 495.677 755.175 Z " fill-rule="evenodd" fill="rgb(1,1,1)" />
                <path d=" M 534.939 755.175 L 570.982 755.175 L 572.01 762.898 L 535.53 762.898 L 534.939 755.175 Z " fill-rule="evenodd" fill="rgb(1,1,1)" />
                <path d=" M 574.201 755.175 L 610.244 755.175 L 612.559 762.898 L 575.435 762.898 L 574.201 755.175 Z " fill-rule="evenodd" fill="rgb(1,1,1)" />
                <path d=" M 612.819 755.175 L 648.862 755.175 L 653.109 762.898 L 615.34 762.898 L 612.819 755.175 Z " fill-rule="evenodd" fill="rgb(1,1,1)" />
                <path d=" M 652.081 755.175 L 687.48 755.175 L 692.37 762.898 L 655.246 762.898 L 652.081 755.175 Z " fill-rule="evenodd" fill="rgb(1,1,1)" />
                <path d=" M 690.699 755.175 L 726.099 755.175 L 732.276 762.898 L 695.151 762.898 L 690.699 755.175 Z " fill-rule="evenodd" fill="rgb(1,1,1)" />
                <path d=" M 729.96 755.175 L 794.968 755.175 L 802.048 762.898 L 735.057 762.898 L 729.96 755.175 Z " fill-rule="evenodd" fill="rgb(1,1,1)" />
                <path d=" M 218.162 771.266 L 297.373 771.266 L 291.001 779.633 L 210.546 779.633 L 218.162 771.266 Z " fill-rule="evenodd" fill="rgb(1,1,1)" />
                <path d=" M 300.181 771.266 L 337.986 771.266 L 333.221 779.633 L 294.863 779.633 L 300.181 771.266 Z " fill-rule="evenodd" fill="rgb(1,1,1)" />
                <path d=" M 341.374 771.266 L 388.834 771.266 L 385.999 779.633 L 336.699 779.633 L 341.374 771.266 Z " fill-rule="evenodd" fill="rgb(1,1,1)" />
            </g>
            <path d=" M 271.692 403.106 L 755.706 403.106 L 755.706 714.626 L 271.692 714.626 L 271.692 403.106 Z " fill="rgb(120,144,156)" />
            <path d=" M 532.573 725.911 L 531.743 725.911 L 530.885 723.718 L 528.123 723.718 L 527.274 725.911 L 526.464 725.911 L 529.188 718.99 L 529.862 718.99 L 532.573 725.911 Z  M 528.406 722.997 L 530.636 722.997 L 529.834 720.862 L 529.834 720.862 Q 529.679 720.456 529.514 719.867 L 529.514 719.867 L 529.514 719.867 Q 529.41 720.32 529.217 720.862 L 529.217 720.862 L 528.406 722.997 Z  M 534.185 720.744 L 534.185 725.911 L 533.403 725.911 L 533.403 720.744 L 534.185 720.744 Z  M 533.337 719.344 L 533.337 719.344 L 533.337 719.344 Q 533.337 719.075 533.469 718.95 L 533.469 718.95 L 533.469 718.95 Q 533.601 718.825 533.799 718.825 L 533.799 718.825 L 533.799 718.825 Q 533.987 718.825 534.124 718.952 L 534.124 718.952 L 534.124 718.952 Q 534.261 719.08 534.261 719.344 L 534.261 719.344 L 534.261 719.344 Q 534.261 719.608 534.124 719.737 L 534.124 719.737 L 534.124 719.737 Q 533.987 719.867 533.799 719.867 L 533.799 719.867 L 533.799 719.867 Q 533.601 719.867 533.469 719.737 L 533.469 719.737 L 533.469 719.737 Q 533.337 719.608 533.337 719.344 Z  M 538.202 720.65 L 538.202 720.65 L 538.202 720.65 Q 538.546 720.65 538.819 720.706 L 538.819 720.706 L 538.711 721.432 L 538.711 721.432 Q 538.39 721.361 538.145 721.361 L 538.145 721.361 L 538.145 721.361 Q 537.518 721.361 537.073 721.87 L 537.073 721.87 L 537.073 721.87 Q 536.627 722.38 536.627 723.139 L 536.627 723.139 L 536.627 725.911 L 535.845 725.911 L 535.845 720.744 L 536.491 720.744 L 536.58 721.701 L 536.618 721.701 L 536.618 721.701 Q 536.905 721.196 537.311 720.923 L 537.311 720.923 L 537.311 720.923 Q 537.716 720.65 538.202 720.65 Z  M 486.931 725.911 L 486.285 725.911 L 483.947 719.801 L 483.909 719.801 L 483.909 719.801 Q 483.975 720.527 483.975 721.526 L 483.975 721.526 L 483.975 725.911 L 483.235 725.911 L 483.235 719.018 L 484.442 719.018 L 486.624 724.704 L 486.662 724.704 L 488.864 719.018 L 490.061 719.018 L 490.061 725.911 L 489.26 725.911 L 489.26 721.47 L 489.26 721.47 Q 489.26 720.706 489.326 719.81 L 489.326 719.81 L 489.288 719.81 L 486.931 725.911 Z  M 495.591 725.911 L 495.011 725.911 L 494.855 725.175 L 494.818 725.175 L 494.818 725.175 Q 494.431 725.661 494.047 725.833 L 494.047 725.833 L 494.047 725.833 Q 493.663 726.005 493.088 726.005 L 493.088 726.005 L 493.088 726.005 Q 492.319 726.005 491.883 725.609 L 491.883 725.609 L 491.883 725.609 Q 491.447 725.213 491.447 724.482 L 491.447 724.482 L 491.447 724.482 Q 491.447 722.917 493.95 722.842 L 493.95 722.842 L 494.827 722.813 L 494.827 722.493 L 494.827 722.493 Q 494.827 721.885 494.565 721.595 L 494.565 721.595 L 494.565 721.595 Q 494.304 721.305 493.729 721.305 L 493.729 721.305 L 493.729 721.305 Q 493.083 721.305 492.267 721.701 L 492.267 721.701 L 492.027 721.102 L 492.027 721.102 Q 492.409 720.895 492.864 720.777 L 492.864 720.777 L 492.864 720.777 Q 493.319 720.659 493.776 720.659 L 493.776 720.659 L 493.776 720.659 Q 494.7 720.659 495.145 721.069 L 495.145 721.069 L 495.145 721.069 Q 495.591 721.479 495.591 722.384 L 495.591 722.384 L 495.591 725.911 Z  M 493.243 725.359 L 493.243 725.359 L 493.243 725.359 Q 493.974 725.359 494.391 724.958 L 494.391 724.958 L 494.391 724.958 Q 494.808 724.558 494.808 723.836 L 494.808 723.836 L 494.808 723.37 L 494.026 723.403 L 494.026 723.403 Q 493.092 723.436 492.68 723.693 L 492.68 723.693 L 492.68 723.693 Q 492.267 723.949 492.267 724.492 L 492.267 724.492 L 492.267 724.492 Q 492.267 724.916 492.524 725.137 L 492.524 725.137 L 492.524 725.137 Q 492.781 725.359 493.243 725.359 Z  M 499.268 726.005 L 499.268 726.005 L 499.268 726.005 Q 498.146 726.005 497.531 725.314 L 497.531 725.314 L 497.531 725.314 Q 496.915 724.624 496.915 723.36 L 496.915 723.36 L 496.915 723.36 Q 496.915 722.064 497.54 721.357 L 497.54 721.357 L 497.54 721.357 Q 498.165 720.65 499.32 720.65 L 499.32 720.65 L 499.32 720.65 Q 499.692 720.65 500.064 720.73 L 500.064 720.73 L 500.064 720.73 Q 500.437 720.81 500.649 720.918 L 500.649 720.918 L 500.409 721.583 L 500.409 721.583 Q 500.149 721.479 499.843 721.411 L 499.843 721.411 L 499.843 721.411 Q 499.536 721.343 499.301 721.343 L 499.301 721.343 L 499.301 721.343 Q 497.726 721.343 497.726 723.351 L 497.726 723.351 L 497.726 723.351 Q 497.726 724.303 498.11 724.812 L 498.11 724.812 L 498.11 724.812 Q 498.495 725.321 499.249 725.321 L 499.249 725.321 L 499.249 725.321 Q 499.895 725.321 500.574 725.043 L 500.574 725.043 L 500.574 725.736 L 500.574 725.736 Q 500.055 726.005 499.268 726.005 Z  M 501.917 725.911 L 501.917 719.018 L 503.864 719.018 L 503.864 719.018 Q 505.236 719.018 505.849 719.429 L 505.849 719.429 L 505.849 719.429 Q 506.462 719.839 506.462 720.725 L 506.462 720.725 L 506.462 720.725 Q 506.462 721.338 506.12 721.736 L 506.12 721.736 L 506.12 721.736 Q 505.778 722.134 505.123 722.252 L 505.123 722.252 L 505.123 722.299 L 505.123 722.299 Q 506.693 722.568 506.693 723.949 L 506.693 723.949 L 506.693 723.949 Q 506.693 724.873 506.068 725.392 L 506.068 725.392 L 506.068 725.392 Q 505.443 725.911 504.321 725.911 L 504.321 725.911 L 501.917 725.911 Z  M 502.719 719.711 L 502.719 721.969 L 504.038 721.969 L 504.038 721.969 Q 504.887 721.969 505.259 721.703 L 505.259 721.703 L 505.259 721.703 Q 505.632 721.437 505.632 720.805 L 505.632 720.805 L 505.632 720.805 Q 505.632 720.225 505.217 719.968 L 505.217 719.968 L 505.217 719.968 Q 504.802 719.711 503.897 719.711 L 503.897 719.711 L 502.719 719.711 Z  M 504.09 722.648 L 502.719 722.648 L 502.719 725.227 L 504.156 725.227 L 504.156 725.227 Q 504.991 725.227 505.413 724.904 L 505.413 724.904 L 505.413 724.904 Q 505.835 724.581 505.835 723.893 L 505.835 723.893 L 505.835 723.893 Q 505.835 723.252 505.403 722.95 L 505.403 722.95 L 505.403 722.95 Q 504.972 722.648 504.09 722.648 L 504.09 722.648 Z  M 512.514 723.322 L 512.514 723.322 L 512.514 723.322 Q 512.514 724.586 511.878 725.295 L 511.878 725.295 L 511.878 725.295 Q 511.242 726.005 510.12 726.005 L 510.12 726.005 L 510.12 726.005 Q 509.427 726.005 508.889 725.68 L 508.889 725.68 L 508.889 725.68 Q 508.352 725.354 508.06 724.746 L 508.06 724.746 L 508.06 724.746 Q 507.767 724.138 507.767 723.322 L 507.767 723.322 L 507.767 723.322 Q 507.767 722.059 508.399 721.354 L 508.399 721.354 L 508.399 721.354 Q 509.031 720.65 510.153 720.65 L 510.153 720.65 L 510.153 720.65 Q 511.237 720.65 511.876 721.371 L 511.876 721.371 L 511.876 721.371 Q 512.514 722.092 512.514 723.322 Z  M 508.578 723.322 L 508.578 723.322 L 508.578 723.322 Q 508.578 724.312 508.974 724.831 L 508.974 724.831 L 508.974 724.831 Q 509.37 725.35 510.139 725.35 L 510.139 725.35 L 510.139 725.35 Q 510.907 725.35 511.305 724.833 L 511.305 724.833 L 511.305 724.833 Q 511.704 724.317 511.704 723.322 L 511.704 723.322 L 511.704 723.322 Q 511.704 722.337 511.305 721.826 L 511.305 721.826 L 511.305 721.826 Q 510.907 721.314 510.129 721.314 L 510.129 721.314 L 510.129 721.314 Q 509.361 721.314 508.969 721.819 L 508.969 721.819 L 508.969 721.819 Q 508.578 722.323 508.578 723.322 Z  M 518.346 723.322 L 518.346 723.322 L 518.346 723.322 Q 518.346 724.586 517.709 725.295 L 517.709 725.295 L 517.709 725.295 Q 517.073 726.005 515.951 726.005 L 515.951 726.005 L 515.951 726.005 Q 515.258 726.005 514.721 725.68 L 514.721 725.68 L 514.721 725.68 Q 514.183 725.354 513.891 724.746 L 513.891 724.746 L 513.891 724.746 Q 513.599 724.138 513.599 723.322 L 513.599 723.322 L 513.599 723.322 Q 513.599 722.059 514.23 721.354 L 514.23 721.354 L 514.23 721.354 Q 514.862 720.65 515.984 720.65 L 515.984 720.65 L 515.984 720.65 Q 517.068 720.65 517.707 721.371 L 517.707 721.371 L 517.707 721.371 Q 518.346 722.092 518.346 723.322 Z  M 514.41 723.322 L 514.41 723.322 L 514.41 723.322 Q 514.41 724.312 514.806 724.831 L 514.806 724.831 L 514.806 724.831 Q 515.202 725.35 515.97 725.35 L 515.97 725.35 L 515.97 725.35 Q 516.738 725.35 517.137 724.833 L 517.137 724.833 L 517.137 724.833 Q 517.535 724.317 517.535 723.322 L 517.535 723.322 L 517.535 723.322 Q 517.535 722.337 517.137 721.826 L 517.137 721.826 L 517.137 721.826 Q 516.738 721.314 515.961 721.314 L 515.961 721.314 L 515.961 721.314 Q 515.192 721.314 514.801 721.819 L 514.801 721.819 L 514.801 721.819 Q 514.41 722.323 514.41 723.322 Z  M 520.453 723.266 L 520.491 723.266 L 520.491 723.266 Q 520.693 722.978 521.108 722.512 L 521.108 722.512 L 522.777 720.744 L 523.706 720.744 L 521.613 722.945 L 523.852 725.911 L 522.904 725.911 L 521.08 723.469 L 520.491 723.978 L 520.491 725.911 L 519.718 725.911 L 519.718 718.575 L 520.491 718.575 L 520.491 722.464 L 520.491 722.464 Q 520.491 722.724 520.453 723.266 L 520.453 723.266 Z " fill-rule="evenodd" fill="rgb(250,250,250)" />
        </g>
        <g id="Hackintosh">
            <g id="dock with apps">
                <path d=" M 449.658 677.073 L 449.658 714.333 L 576.342 713.402 L 576.342 677.073 L 449.658 677.073 Z " fill-rule="evenodd" fill="rgb(207,216,220)" />
                <g id="apps">
                    <clipPath id="_clipPath_0fbHQe2yLv4c1hRSJTjnsOauU4vA1MY5">
                        <rect x="453.57" y="680.799" width="29.808" height="29.808" transform="matrix(1,0,0,1,0,0)" fill="rgb(255,255,255)" />
                    </clipPath>
                    <g clip-path="url(#_clipPath_0fbHQe2yLv4c1hRSJTjnsOauU4vA1MY5)">
                        <g id="Group">
                            <rect x="456.103" y="683.332" width="24.743" height="24.743" transform="matrix(1,0,0,1,0,0)" fill="rgb(255,255,255)" />
                            <clipPath id="_clipPath_I1Dgi5TBlILi80TKIpbto1FyNb3I4XRz">
                                <rect x="456.103" y="683.332" width="24.743" height="24.743" transform="matrix(1,0,0,1,0,0)" fill="rgb(255,255,255)" />
                            </clipPath>
                            <g clip-path="url(#_clipPath_I1Dgi5TBlILi80TKIpbto1FyNb3I4XRz)">
                                <g id="Group">
                                    <path d=" M 471.618 708.55 C 470.336 704.999 470.415 699.196 470.395 697.799 C 470.376 696.402 470.589 695.509 469.988 695.49 C 469.212 695.432 468.707 695.529 467.892 695.529 C 466.514 695.626 466.747 695.024 466.786 694.52 C 467.213 690.619 467.368 687.475 469.735 682.682 L 455.467 682.652 L 455.422 708.586 L 471.618 708.55 Z " fill="rgb(30,136,229)" />
                                </g>
                            </g>
                            <path d=" M 463.162 689.576 L 463.162 689.576 C 463.443 689.576 463.671 689.804 463.671 690.085 L 463.671 691.977 C 463.671 692.258 463.443 692.487 463.162 692.487 L 463.162 692.487 C 462.88 692.487 462.652 692.258 462.652 691.977 L 462.652 690.085 C 462.652 689.804 462.88 689.576 463.162 689.576 Z " fill="rgb(33,33,33)" />
                            <path d=" M 474.369 689.576 L 474.369 689.576 C 474.65 689.576 474.878 689.804 474.878 690.085 L 474.878 691.977 C 474.878 692.258 474.65 692.487 474.369 692.487 L 474.369 692.487 C 474.088 692.487 473.859 692.258 473.859 691.977 L 473.859 690.085 C 473.859 689.804 474.088 689.576 474.369 689.576 Z " fill="rgb(33,33,33)" />
                            <path d=" M 461.08 699.473 C 460.99 699.371 460.943 699.24 460.949 699.103 C 460.958 698.969 461.019 698.844 461.118 698.754 C 461.22 698.664 461.351 698.614 461.485 698.623 C 461.622 698.629 461.747 698.69 461.837 698.792 C 462.268 699.269 462.745 699.703 463.261 700.084 C 463.735 700.428 464.247 700.713 464.786 700.931 C 465.359 701.158 465.956 701.321 466.562 701.417 C 467.281 701.531 468.005 701.592 468.73 701.598 L 468.893 701.598 C 470.328 701.592 471.746 701.272 473.044 700.658 C 473.583 700.41 474.092 700.108 474.567 699.755 C 474.916 699.505 475.225 699.202 475.475 698.856 C 475.556 698.748 475.676 698.675 475.81 698.655 C 475.944 698.635 476.077 698.667 476.188 698.745 C 476.296 698.827 476.369 698.946 476.392 699.08 C 476.412 699.214 476.377 699.348 476.299 699.458 C 475.984 699.889 475.603 700.268 475.169 700.576 C 474.639 700.972 474.072 701.307 473.472 701.58 C 472.04 702.256 470.477 702.611 468.893 702.62 C 468.893 702.62 468.89 702.62 468.887 702.617 L 468.722 702.617 C 468.722 702.617 468.722 702.617 468.722 702.617 C 467.944 702.608 467.17 702.544 466.404 702.425 C 465.72 702.314 465.051 702.131 464.41 701.877 C 463.787 701.627 463.199 701.301 462.661 700.908 C 462.085 700.483 461.555 700.003 461.08 699.473 Z " fill="rgb(33,33,33)" />
                        </g>
                    </g>
                    <clipPath id="_clipPath_3M2Hunww2hrkkw1jeW0EKxdecJiaRNDX">
                        <rect x="483.378" y="680.799" width="29.808" height="29.808" transform="matrix(1,0,0,1,0,0)" fill="rgb(255,255,255)" />
                    </clipPath>
                    <g clip-path="url(#_clipPath_3M2Hunww2hrkkw1jeW0EKxdecJiaRNDX)">
                        <g id="Group">
                            <g id="App Store 1">
                                <rect x="485.911" y="683.332" width="24.743" height="24.743" transform="matrix(1,0,0,1,0,0)" fill="rgb(235,235,235)" />
                                <path d=" M 498.282 705.382 C 500.85 705.382 503.312 704.36 505.126 702.547 C 506.939 700.733 507.961 698.271 507.961 695.703 C 507.961 693.136 506.939 690.673 505.126 688.86 C 503.312 687.046 500.85 686.024 498.282 686.024 C 495.715 686.024 493.252 687.046 491.439 688.86 C 489.625 690.673 488.603 693.136 488.603 695.703 C 488.603 698.271 489.625 700.733 491.439 702.547 C 493.252 704.36 495.715 705.382 498.282 705.382 Z  M 498.282 706.838 C 501.234 706.838 504.069 705.665 506.156 703.577 C 508.244 701.49 509.417 698.655 509.417 695.703 C 509.417 692.752 508.244 689.916 506.156 687.829 C 504.069 685.742 501.234 684.569 498.282 684.569 C 495.331 684.569 492.495 685.742 490.408 687.829 C 488.321 689.916 487.148 692.752 487.148 695.703 C 487.148 698.655 488.321 701.49 490.408 703.577 C 492.495 705.665 495.331 706.838 498.282 706.838 Z " fill-rule="evenodd" fill="rgb(13,71,161)" />
                                <g id="Accessories">
                                    <g id="Ruler">
                                        <path d=" M 490.423 694.055 L 490.423 696.955 L 506.142 696.955 L 506.142 694.055 L 490.423 694.055 Z " fill-rule="evenodd" fill="rgb(139,104,69)" fill-opacity="0.8369715073529411" />
                                        <path d=" M 491.005 694.764 L 491.005 694.78 C 491.005 694.856 491.067 694.918 491.143 694.918 L 505.422 694.918 C 505.498 694.918 505.56 694.856 505.56 694.78 L 505.56 694.764 C 505.56 694.688 505.498 694.626 505.422 694.626 L 491.143 694.626 C 491.067 694.626 491.005 694.688 491.005 694.764 Z " fill-rule="evenodd" fill="rgb(118,89,60)" fill-opacity="0.8256261488970589" />
                                    </g>
                                    <g id="Pen">
                                        <path d=" M 491.6 700.28 L 491.888 698.166 C 492.809 697.823 493.492 698.267 493.597 699.276 L 491.759 700.384 Q 491.648 700.446 491.615 700.424 Q 491.581 700.402 491.6 700.28 Z " fill="rgb(255,204,128)" />
                                        <path d=" M 495.534 692.551 L 497.243 693.661 L 493.597 699.276 C 493.138 698.622 492.454 698.18 491.888 698.166 L 495.534 692.551 Z " fill="rgb(66,165,245)" />
                                        <rect x="495.401" y="691.963" width="2.621" height="1.311" transform="matrix(0.839,0.545,-0.545,0.839,457.466,-158.794)" fill="rgb(189,189,189)" />
                                        <path d=" M 497.364 690.962 L 497.95 691.343 C 498.26 691.544 498.348 691.959 498.147 692.269 L 497.877 692.684 L 496.169 691.574 L 496.438 691.159 C 496.639 690.849 497.054 690.761 497.364 690.962 Z " fill="rgb(139,195,74)" />
                                    </g>
                                    <g id="Paint Pencil">
                                        <path d=" M 504.738 700.526 Q 504.067 700.697 503.759 700.743 C 503.679 700.755 503.591 700.704 503.562 700.629 L 502.326 697.466 L 503.576 696.721 L 505.771 699.312 C 505.823 699.373 505.824 699.474 505.774 699.537 Q 505.559 699.808 505.119 700.296 C 505.033 700.391 504.862 700.495 504.738 700.526 Z " fill="rgb(121,85,72)" />
                                        <path d=" M 501.28 695.685 Q 497.309 688.595 497.734 688.342 Q 498.159 688.089 502.533 694.97 C 502.262 695.426 501.794 695.674 501.28 695.685 Z " fill="rgb(136,14,79)" />
                                        <path d=" M 501.28 695.685 C 501.73 695.612 502.2 695.365 502.533 694.97 L 503.576 696.721 C 503.256 697.093 502.79 697.371 502.326 697.466 L 501.28 695.685 Z " fill="rgb(235,235,235)" />
                                    </g>
                                </g>
                            </g>
                        </g>
                    </g>
                    <clipPath id="_clipPath_6mU9XaUx74NKlewDsBPaTiwX0fhyUdyF">
                        <rect x="513.559" y="680.799" width="29.808" height="29.808" transform="matrix(1,0,0,1,0,0)" fill="rgb(255,255,255)" />
                    </clipPath>
                    <g clip-path="url(#_clipPath_6mU9XaUx74NKlewDsBPaTiwX0fhyUdyF)">
                        <g id="Group">
                            <rect x="516.091" y="683.332" width="24.743" height="24.743" transform="matrix(1,0,0,1,0,0)" fill="rgb(33,33,33)" />
                            <g id="Calendar">
                                <path d=" M 518.108 692.645 L 537.272 689.495 L 539.727 704.407 L 520.446 707.597 L 518.108 692.645 Z " fill-rule="evenodd" fill="rgb(255,255,255)" />
                                <path d=" M 520.228 706.241 Q 527.105 705.6 530.588 705.018 Q 534.071 704.436 539.565 703.563 L 539.727 704.407 L 520.446 707.597 L 520.228 706.241 Z " fill-rule="evenodd" fill="rgb(200,199,199)" />
                                <path d=" M 518.119 692.713 L 517.199 686.827 L 536.336 683.81 L 537.294 689.63 L 518.119 692.713 Z " fill-rule="evenodd" fill="rgb(198,40,40)" />
                                <path d=" M 524.724 689.653 L 524.724 689.653 Q 524.766 689.714 524.776 689.776 L 524.776 689.776 L 524.776 689.776 Q 524.794 689.89 524.715 689.984 L 524.715 689.984 L 524.715 689.984 Q 524.637 690.078 524.519 690.096 L 524.519 690.096 L 524.519 690.096 Q 524.44 690.109 524.368 690.078 L 524.368 690.078 L 524.368 690.078 Q 524.296 690.047 524.245 689.97 L 524.245 689.97 L 524.034 689.647 L 522.916 689.825 L 522.813 690.199 L 522.813 690.199 Q 522.788 690.288 522.728 690.34 L 522.728 690.34 L 522.728 690.34 Q 522.667 690.392 522.588 690.405 L 522.588 690.405 L 522.588 690.405 Q 522.47 690.424 522.363 690.36 L 522.363 690.36 L 522.363 690.36 Q 522.255 690.295 522.237 690.182 L 522.237 690.182 L 522.237 690.182 Q 522.227 690.119 522.248 690.049 L 522.248 690.049 L 522.86 688.034 L 522.86 688.034 Q 522.89 687.934 522.97 687.87 L 522.97 687.87 L 522.97 687.87 Q 523.05 687.805 523.157 687.788 L 523.157 687.788 L 523.157 687.788 Q 523.26 687.772 523.358 687.807 L 523.358 687.807 L 523.358 687.807 Q 523.455 687.843 523.515 687.929 L 523.515 687.929 L 524.724 689.653 Z  M 523.276 688.491 L 523.054 689.315 L 523.744 689.205 L 523.276 688.491 Z  M 525.401 689.966 L 525.401 689.966 Q 525.256 689.989 525.158 689.918 L 525.158 689.918 L 525.158 689.918 Q 525.06 689.847 525.037 689.702 L 525.037 689.702 L 524.742 687.857 L 524.742 687.857 Q 524.719 687.716 524.783 687.628 L 524.783 687.628 L 524.783 687.628 Q 524.847 687.54 524.988 687.517 L 524.988 687.517 L 525.871 687.376 L 525.871 687.376 Q 526.275 687.311 526.532 687.481 L 526.532 687.481 L 526.532 687.481 Q 526.789 687.65 526.847 688.016 L 526.847 688.016 L 526.847 688.016 Q 526.905 688.378 526.712 688.621 L 526.712 688.621 L 526.712 688.621 Q 526.519 688.864 526.119 688.928 L 526.119 688.928 L 525.578 689.015 L 525.671 689.601 L 525.671 689.601 Q 525.694 689.746 525.622 689.844 L 525.622 689.844 L 525.622 689.844 Q 525.549 689.942 525.401 689.966 L 525.401 689.966 Z  M 525.501 688.539 L 525.957 688.466 L 525.957 688.466 Q 526.133 688.438 526.206 688.352 L 526.206 688.352 L 526.206 688.352 Q 526.279 688.266 526.254 688.114 L 526.254 688.114 L 526.254 688.114 Q 526.206 687.814 525.861 687.869 L 525.861 687.869 L 525.406 687.942 L 525.501 688.539 Z  M 529.4 688.892 L 529.4 688.892 Q 529.477 688.975 529.49 689.058 L 529.49 689.058 L 529.49 689.058 Q 529.507 689.168 529.428 689.257 L 529.428 689.257 L 529.428 689.257 Q 529.348 689.346 529.228 689.365 L 529.228 689.365 L 529.228 689.365 Q 529.145 689.379 529.066 689.352 L 529.066 689.352 L 529.066 689.352 Q 528.988 689.326 528.924 689.258 L 528.924 689.258 L 528.371 688.674 L 528.371 688.674 Q 528.312 688.613 528.253 688.589 L 528.253 688.589 L 528.253 688.589 Q 528.194 688.565 528.122 688.576 L 528.122 688.576 L 527.897 688.612 L 527.996 689.23 L 527.996 689.23 Q 528.019 689.374 527.95 689.472 L 527.95 689.472 L 527.95 689.472 Q 527.881 689.57 527.736 689.593 L 527.736 689.593 L 527.736 689.593 Q 527.591 689.616 527.493 689.545 L 527.493 689.545 L 527.493 689.545 Q 527.395 689.474 527.372 689.329 L 527.372 689.329 L 527.077 687.484 L 527.077 687.484 Q 527.054 687.342 527.118 687.254 L 527.118 687.254 L 527.118 687.254 Q 527.182 687.166 527.323 687.144 L 527.323 687.144 L 528.189 687.006 L 528.189 687.006 Q 528.631 686.935 528.884 687.091 L 528.884 687.091 L 528.884 687.091 Q 529.137 687.247 529.195 687.609 L 529.195 687.609 L 529.195 687.609 Q 529.239 687.885 529.118 688.101 L 529.118 688.101 L 529.118 688.101 Q 528.996 688.316 528.731 688.426 L 528.731 688.426 L 528.731 688.426 Q 528.847 688.425 528.941 688.47 L 528.941 688.47 L 528.941 688.47 Q 529.035 688.515 529.137 688.619 L 529.137 688.619 L 529.4 688.892 Z  M 528.256 688.067 L 528.256 688.067 Q 528.466 688.033 528.547 687.953 L 528.547 687.953 L 528.547 687.953 Q 528.628 687.873 528.605 687.724 L 528.605 687.724 L 528.605 687.724 Q 528.58 687.573 528.478 687.52 L 528.478 687.52 L 528.478 687.52 Q 528.376 687.467 528.166 687.501 L 528.166 687.501 L 527.724 687.572 L 527.815 688.137 L 528.256 688.067 Z  M 530.175 689.203 L 530.175 689.203 Q 530.03 689.227 529.932 689.156 L 529.932 689.156 L 529.932 689.156 Q 529.834 689.085 529.811 688.94 L 529.811 688.94 L 529.516 687.094 L 529.516 687.094 Q 529.493 686.953 529.564 686.855 L 529.564 686.855 L 529.564 686.855 Q 529.635 686.757 529.78 686.734 L 529.78 686.734 L 529.78 686.734 Q 529.928 686.71 530.028 686.781 L 530.028 686.781 L 530.028 686.781 Q 530.128 686.851 530.15 686.993 L 530.15 686.993 L 530.445 688.838 L 530.445 688.838 Q 530.468 688.983 530.396 689.081 L 530.396 689.081 L 530.396 689.081 Q 530.323 689.18 530.175 689.203 L 530.175 689.203 Z  M 531.227 689.014 L 531.227 689.014 Q 531.085 689.037 530.997 688.973 L 530.997 688.973 L 530.997 688.973 Q 530.909 688.909 530.886 688.764 L 530.886 688.764 L 530.592 686.922 L 530.592 686.922 Q 530.569 686.781 530.64 686.683 L 530.64 686.683 L 530.64 686.683 Q 530.711 686.585 530.856 686.562 L 530.856 686.562 L 530.856 686.562 Q 531.004 686.538 531.104 686.609 L 531.104 686.609 L 531.104 686.609 Q 531.204 686.679 531.227 686.821 L 531.227 686.821 L 531.486 688.446 L 532.279 688.319 L 532.279 688.319 Q 532.58 688.271 532.621 688.53 L 532.621 688.53 L 532.621 688.53 Q 532.642 688.661 532.578 688.735 L 532.578 688.735 L 532.578 688.735 Q 532.513 688.809 532.362 688.833 L 532.362 688.833 L 531.227 689.014 Z " fill-rule="evenodd" fill="rgb(250,250,250)" />
                                <path d=" M 531.342 699.675 L 531.342 699.675 Q 531.807 699.598 532.055 699.749 L 532.055 699.749 L 532.055 699.749 Q 532.303 699.899 532.364 700.271 L 532.364 700.271 L 532.364 700.271 Q 532.489 701.036 531.59 701.184 L 531.59 701.184 L 528.004 701.774 L 528.004 701.774 Q 527.105 701.921 526.979 701.157 L 526.979 701.157 L 526.979 701.157 Q 526.918 700.785 527.104 700.563 L 527.104 700.563 L 527.104 700.563 Q 527.291 700.341 527.756 700.265 L 527.756 700.265 L 528.593 700.127 L 527.98 696.396 L 527.233 697.018 L 527.233 697.018 Q 527.074 697.15 526.888 697.181 L 526.888 697.181 L 526.888 697.181 Q 526.599 697.228 526.35 697.009 L 526.35 697.009 L 526.35 697.009 Q 526.102 696.79 526.051 696.48 L 526.051 696.48 L 526.051 696.48 Q 525.981 696.056 526.307 695.779 L 526.307 695.779 L 527.803 694.546 L 527.803 694.546 Q 528.215 694.213 528.618 694.147 L 528.618 694.147 L 528.618 694.147 Q 529.032 694.079 529.326 694.285 L 529.326 694.285 L 529.326 694.285 Q 529.62 694.492 529.689 694.916 L 529.689 694.916 L 530.495 699.814 L 531.342 699.675 Z " fill="rgb(33,33,33)" />
                            </g>
                        </g>
                    </g>
                    <clipPath id="_clipPath_t3EzR6gdVdiLjtID0MYPLmhpK7pm3a9h">
                        <rect x="543.367" y="680.799" width="29.808" height="29.808" transform="matrix(1,0,0,1,0,0)" fill="rgb(255,255,255)" />
                    </clipPath>
                    <g clip-path="url(#_clipPath_t3EzR6gdVdiLjtID0MYPLmhpK7pm3a9h)">
                        <g id="Group">
                            <rect x="546.845" y="683.312" width="22.852" height="24.743" transform="matrix(1,0,0,1,0,0)" fill="rgb(255,255,255)" />
                            <clipPath id="_clipPath_lm5ZcNjUK3c4hE8XbU4PMtUHWC26cqg9">
                                <rect x="546.845" y="683.312" width="22.852" height="24.743" transform="matrix(1,0,0,1,0,0)" fill="rgb(255,255,255)" />
                            </clipPath>
                            <g clip-path="url(#_clipPath_lm5ZcNjUK3c4hE8XbU4PMtUHWC26cqg9)">
                                <g id="Group">
                                    <g id="Group">
                                        <path d=" M 555.011 708.409 L 558.732 702.139 Q 554.038 691.67 548.42 682.093 L 546.499 682.078 L 546.499 708.453 L 555.011 708.409 Z " fill="rgb(67,160,71)" />
                                        <path d=" M 553.216 693.608 L 548.66 682.828 L 570.404 682.784 L 570.404 693.59 L 553.216 693.608 Z " fill="rgb(229,57,53)" />
                                        <path d=" M 554.79 708.409 L 563.357 691.895 L 570.227 691.87 L 570.227 708.409 L 554.79 708.409 Z " fill="rgb(253,216,53)" />
                                        <path d=" M 551.94 695.652 C 551.94 692.05 554.864 689.126 558.466 689.126 C 562.068 689.126 564.993 692.05 564.993 695.652 C 564.993 699.254 562.068 702.178 558.466 702.178 C 554.864 702.178 551.94 699.254 551.94 695.652 Z " fill="rgb(238,238,238)" />
                                        <path d=" M 554.612 695.652 C 554.612 693.525 556.339 691.798 558.466 691.798 C 560.593 691.798 562.32 693.525 562.32 695.652 C 562.32 697.779 560.593 699.506 558.466 699.506 C 556.339 699.506 554.612 697.779 554.612 695.652 Z " fill="rgb(30,136,229)" />
                                    </g>
                                </g>
                            </g>
                        </g>
                    </g>
                </g>
            </g>
            <g id="menubar">
                <path d=" M 272.333 402.433 L 272.333 417.333 L 754.667 417.365 L 754.667 402.433 L 272.333 402.433 Z " fill-rule="evenodd" fill="rgb(207,216,220)" />
                <path d=" M 285.767 412.036 C 285.556 412.505 285.455 412.715 285.183 413.128 C 284.804 413.707 284.268 414.428 283.605 414.432 C 283.016 414.438 282.865 414.048 282.065 414.055 C 281.264 414.058 281.097 414.439 280.508 414.433 C 279.845 414.428 279.339 413.777 278.958 413.201 C 277.896 411.583 277.784 409.686 278.441 408.678 C 278.905 407.962 279.64 407.542 280.331 407.542 C 281.033 407.542 281.475 407.928 282.056 407.928 C 282.62 407.928 282.963 407.541 283.777 407.541 C 284.39 407.541 285.041 407.875 285.505 408.454 C 283.985 409.286 284.233 411.457 285.768 412.037 L 285.767 412.036 Z  M 283.159 406.894 C 283.455 406.515 283.678 405.979 283.598 405.433 C 283.115 405.467 282.551 405.775 282.22 406.173 C 281.922 406.536 281.675 407.076 281.771 407.598 C 282.298 407.615 282.842 407.301 283.159 406.894 Z " fill="rgb(33,33,33)" />
                <g id="Notification Center">
                    <rect x="736.867" y="405.433" width="1.8" height="1.8" transform="matrix(1,0,0,1,0,0)" fill="rgb(33,33,33)" />
                    <rect x="740.467" y="405.433" width="7.2" height="1.8" transform="matrix(1,0,0,1,0,0)" fill="rgb(33,33,33)" />
                    <rect x="740.467" y="412.633" width="7.2" height="1.8" transform="matrix(1,0,0,1,0,0)" fill="rgb(33,33,33)" />
                    <rect x="740.467" y="409.033" width="5.4" height="1.8" transform="matrix(1,0,0,1,0,0)" fill="rgb(33,33,33)" />
                    <rect x="736.867" y="409.033" width="1.8" height="1.8" transform="matrix(1,0,0,1,0,0)" fill="rgb(33,33,33)" />
                    <rect x="736.867" y="412.633" width="1.8" height="1.8" transform="matrix(1,0,0,1,0,0)" fill="rgb(33,33,33)" />
                </g>
            </g>
        </g>
    </g>
</svg>