<?xml version="1.0" standalone="no"?>
<!-- Generator: Gravit.io -->
<svg xmlns="http://www.w3.org/2000/svg" xmlns:xlink="http://www.w3.org/1999/xlink" style="isolation:isolate" viewBox="0 0 1024 1024" width="1024" height="1024">
    <defs>
        <clipPath id="_clipPath_6MeKtn8b9O6cgFE7CdcMAp5smV3iCQtT">
            <rect width="1024" height="1024" />
        </clipPath>
    </defs>
    <g clip-path="url(#_clipPath_6MeKtn8b9O6cgFE7CdcMAp5smV3iCQtT)">
        <rect x="86" y="89.897" width="850" height="850" transform="matrix(1,0,0,1,0,0)" fill="rgb(144,164,174)" />
        <rect x="86" y="710" width="850" height="229.897" transform="matrix(1,0,0,1,0,0)" fill="rgb(84,110,122)" />
        <g id="Hackintosh">
            <path d=" M 427.405 759.207 L 597.405 759.207 L 578.329 639.207 L 446.481 639.207 L 427.405 759.207 Z " fill-rule="evenodd" fill="rgb(33,33,33)" />
            <mask id="_mask_5Tvuw4c8EzpC1KIQ6C0kXhEDAcVOr6g6">
                <path d=" M 695.777 604.793 L 171 604.793 L 171 818.438 C 171 830.224 180.569 839.793 192.355 839.793 L 829.645 839.793 C 841.431 839.793 851 830.224 851 818.438 L 851 604.793 L 695.777 604.793 Z " fill-rule="evenodd" fill="white" stroke="none" />
            </mask>
            <path d=" M 695.777 604.793 L 171 604.793 L 171 818.438 C 171 830.224 180.569 839.793 192.355 839.793 L 829.645 839.793 C 841.431 839.793 851 830.224 851 818.438 L 851 604.793 L 695.777 604.793 Z " fill-rule="evenodd" fill="none" mask="url(#_mask_5Tvuw4c8EzpC1KIQ6C0kXhEDAcVOr6g6)" vector-effect="non-scaling-stroke" stroke-width="85.597" stroke="rgb(33,33,33)" stroke-linejoin="miter" stroke-linecap="square" stroke-miterlimit="10" />
            <path d=" M 171 208.066 L 171 671.934 C 171 681.905 179.095 690 189.066 690 L 832.934 690 C 842.905 690 851 681.905 851 671.934 L 851 208.066 C 851 198.095 842.905 190 832.934 190 L 189.066 190 C 179.095 190 171 198.095 171 208.066 Z " fill-rule="evenodd" fill="rgb(66,66,66)" />
            <path d=" M 211 230 L 211 650 L 811 648.1 L 811 230 L 211 230 Z " fill-rule="evenodd" fill="rgb(176,190,197)" />
            <path d=" M 211 230 L 211 280 L 811 279.774 L 811 230 L 211 230 Z " fill-rule="evenodd" fill="rgb(207,216,220)" />
            <path d=" M 340 550 L 340 650 L 680 647.5 L 680 550 L 340 550 Z " fill-rule="evenodd" fill="rgb(207,216,220)" />
            <g id="apps">
                <clipPath id="_clipPath_sR04FnOQiw8NKnei86Vzulcl7wAFlaR8">
                    <rect x="350.5" y="560" width="80" height="80" transform="matrix(1,0,0,1,0,0)" fill="rgb(255,255,255)" />
                </clipPath>
                <g clip-path="url(#_clipPath_sR04FnOQiw8NKnei86Vzulcl7wAFlaR8)">
                    <g id="Group">
                        <rect x="357.297" y="566.797" width="66.406" height="66.406" transform="matrix(1,0,0,1,0,0)" fill="rgb(255,255,255)" />
                        <clipPath id="_clipPath_iiy9th3TiugBksynkl7vhCZIEMQvKoQr">
                            <rect x="357.297" y="566.797" width="66.406" height="66.406" transform="matrix(1,0,0,1,0,0)" fill="rgb(255,255,255)" />
                        </clipPath>
                        <g clip-path="url(#_clipPath_iiy9th3TiugBksynkl7vhCZIEMQvKoQr)">
                            <g id="Group">
                                <path d=" M 398.938 634.479 C 395.497 624.949 395.708 609.375 395.656 605.625 C 395.604 601.875 396.177 599.479 394.563 599.427 C 392.479 599.271 391.125 599.531 388.938 599.531 C 385.24 599.792 385.865 598.177 385.969 596.823 C 387.115 586.354 387.531 577.917 393.885 565.052 L 355.59 564.972 L 355.472 634.574 L 398.938 634.479 Z " fill="rgb(30,136,229)" />
                            </g>
                        </g>
                        <path d=" M 376.242 583.555 L 376.242 583.555 C 376.997 583.555 377.609 584.167 377.609 584.922 L 377.609 590 C 377.609 590.755 376.997 591.367 376.242 591.367 L 376.242 591.367 C 375.488 591.367 374.875 590.755 374.875 590 L 374.875 584.922 C 374.875 584.167 375.488 583.555 376.242 583.555 Z " fill="rgb(33,33,33)" />
                        <path d=" M 406.32 583.555 L 406.32 583.555 C 407.075 583.555 407.688 584.167 407.688 584.922 L 407.688 590 C 407.688 590.755 407.075 591.367 406.32 591.367 L 406.32 591.367 C 405.566 591.367 404.953 590.755 404.953 590 L 404.953 584.922 C 404.953 584.167 405.566 583.555 406.32 583.555 Z " fill="rgb(33,33,33)" />
                        <path d=" M 370.656 610.117 C 370.414 609.844 370.289 609.492 370.305 609.125 C 370.328 608.766 370.492 608.43 370.758 608.188 C 371.031 607.945 371.383 607.813 371.742 607.836 C 372.109 607.852 372.445 608.016 372.688 608.289 C 373.844 609.57 375.125 610.734 376.508 611.758 C 377.781 612.68 379.156 613.445 380.602 614.031 C 382.141 614.641 383.742 615.078 385.367 615.336 C 387.297 615.641 389.242 615.805 391.188 615.82 L 391.625 615.82 C 395.477 615.805 399.281 614.945 402.766 613.297 C 404.211 612.633 405.578 611.82 406.852 610.875 C 407.789 610.203 408.617 609.391 409.289 608.461 C 409.508 608.172 409.828 607.977 410.188 607.922 C 410.547 607.867 410.906 607.953 411.203 608.164 C 411.492 608.383 411.688 608.703 411.75 609.063 C 411.805 609.422 411.711 609.781 411.5 610.078 C 410.656 611.234 409.633 612.25 408.469 613.078 C 407.047 614.141 405.523 615.039 403.914 615.773 C 400.07 617.586 395.875 618.539 391.625 618.563 C 391.625 618.563 391.617 618.563 391.609 618.555 L 391.164 618.555 C 391.164 618.555 391.164 618.555 391.164 618.555 C 389.078 618.531 387 618.359 384.945 618.039 C 383.109 617.742 381.313 617.25 379.594 616.57 C 377.922 615.898 376.344 615.023 374.898 613.969 C 373.352 612.828 371.93 611.539 370.656 610.117 Z " fill="rgb(33,33,33)" />
                    </g>
                </g>
                <clipPath id="_clipPath_2JCj9drfUmHmLbfS2IyDFrSbQ6EVWqJk">
                    <rect x="430.5" y="560" width="80" height="80" transform="matrix(1,0,0,1,0,0)" fill="rgb(255,255,255)" />
                </clipPath>
                <g clip-path="url(#_clipPath_2JCj9drfUmHmLbfS2IyDFrSbQ6EVWqJk)">
                    <g id="Group">
                        <g id="App Store 1">
                            <rect x="437.297" y="566.797" width="66.406" height="66.406" transform="matrix(1,0,0,1,0,0)" fill="rgb(235,235,235)" />
                            <path d=" M 470.5 625.977 C 477.391 625.977 484 623.234 488.867 618.367 C 493.734 613.5 496.477 606.891 496.477 600 C 496.477 593.109 493.734 586.5 488.867 581.633 C 484 576.766 477.391 574.023 470.5 574.023 C 463.609 574.023 457 576.766 452.133 581.633 C 447.266 586.5 444.523 593.109 444.523 600 C 444.523 606.891 447.266 613.5 452.133 618.367 C 457 623.234 463.609 625.977 470.5 625.977 Z  M 470.5 629.883 C 478.422 629.883 486.031 626.734 491.633 621.133 C 497.234 615.531 500.383 607.922 500.383 600 C 500.383 592.078 497.234 584.469 491.633 578.867 C 486.031 573.266 478.422 570.117 470.5 570.117 C 462.578 570.117 454.969 573.266 449.367 578.867 C 443.766 584.469 440.617 592.078 440.617 600 C 440.617 607.922 443.766 615.531 449.367 621.133 C 454.969 626.734 462.578 629.883 470.5 629.883 Z " fill-rule="evenodd" fill="rgb(13,71,161)" />
                            <g id="Accessories">
                                <g id="Ruler">
                                    <path d=" M 449.406 595.577 L 449.406 603.36 L 491.594 603.36 L 491.594 595.577 L 449.406 595.577 Z " fill-rule="evenodd" fill="rgb(139,104,69)" fill-opacity="0.8369715073529411" />
                                    <path d=" M 450.969 597.48 L 450.969 597.521 C 450.969 597.726 451.134 597.891 451.339 597.891 L 489.661 597.891 C 489.866 597.891 490.031 597.726 490.031 597.521 L 490.031 597.48 C 490.031 597.276 489.866 597.11 489.661 597.11 L 451.339 597.11 C 451.134 597.11 450.969 597.276 450.969 597.48 Z " fill-rule="evenodd" fill="rgb(118,89,60)" fill-opacity="0.8256261488970589" />
                                </g>
                                <g id="Pen">
                                    <path d=" M 452.566 612.285 L 453.339 606.609 C 455.81 605.689 457.645 606.881 457.925 609.588 L 452.994 612.563 Q 452.696 612.728 452.606 612.669 Q 452.516 612.611 452.566 612.285 Z " fill="rgb(255,204,128)" />
                                    <path d=" M 463.125 591.54 L 467.712 594.518 L 457.925 609.588 C 456.693 607.834 454.859 606.646 453.339 606.609 L 463.125 591.54 Z " fill="rgb(66,165,245)" />
                                    <rect x="462.767" y="589.961" width="7.035" height="3.517" transform="matrix(0.839,0.545,-0.545,0.839,397.592,-158.503)" fill="rgb(189,189,189)" />
                                    <path d=" M 468.036 587.277 L 469.609 588.298 C 470.44 588.838 470.677 589.952 470.137 590.783 L 469.414 591.897 L 464.827 588.919 L 465.55 587.805 C 466.091 586.973 467.204 586.736 468.036 587.277 Z " fill="rgb(139,195,74)" />
                                </g>
                                <g id="Paint Pencil">
                                    <path d=" M 487.826 612.944 Q 486.025 613.403 485.198 613.526 C 484.984 613.558 484.748 613.42 484.669 613.22 L 481.353 604.731 L 484.708 602.731 L 490.598 609.685 C 490.738 609.85 490.742 610.12 490.608 610.289 Q 490.028 611.016 488.85 612.325 C 488.619 612.582 488.16 612.859 487.826 612.944 Z " fill="rgb(121,85,72)" />
                                    <path d=" M 478.546 599.951 Q 467.889 580.924 469.029 580.243 Q 470.17 579.563 481.908 598.033 C 481.182 599.256 479.924 599.921 478.546 599.951 Z " fill="rgb(136,14,79)" />
                                    <path d=" M 478.546 599.951 C 479.754 599.756 481.014 599.092 481.908 598.033 L 484.708 602.731 C 483.848 603.729 482.597 604.476 481.353 604.731 L 478.546 599.951 Z " fill="rgb(235,235,235)" />
                                </g>
                            </g>
                        </g>
                    </g>
                </g>
                <clipPath id="_clipPath_KOP7QgY4g6NszCbHgShk3gG4Twc9HUAK">
                    <rect x="511.5" y="560" width="80" height="80" transform="matrix(1,0,0,1,0,0)" fill="rgb(255,255,255)" />
                </clipPath>
                <g clip-path="url(#_clipPath_KOP7QgY4g6NszCbHgShk3gG4Twc9HUAK)">
                    <g id="Group">
                        <rect x="518.297" y="566.797" width="66.406" height="66.406" transform="matrix(1,0,0,1,0,0)" fill="rgb(33,33,33)" />
                        <g id="Calendar">
                            <path d=" M 523.71 591.793 L 575.142 583.339 L 581.732 623.358 L 529.983 631.92 L 523.71 591.793 Z " fill-rule="evenodd" fill="rgb(255,255,255)" />
                            <path d=" M 529.398 628.281 Q 547.854 626.563 557.203 625 Q 566.552 623.438 581.296 621.094 L 581.732 623.358 L 529.983 631.92 L 529.398 628.281 Z " fill-rule="evenodd" fill="rgb(200,199,199)" />
                            <path d=" M 523.738 591.975 L 521.268 576.177 L 572.629 568.08 L 575.201 583.7 L 523.738 591.975 Z " fill-rule="evenodd" fill="rgb(198,40,40)" />
                            <path d=" M 541.466 583.763 L 541.466 583.763 Q 541.578 583.925 541.605 584.092 L 541.605 584.092 L 541.605 584.092 Q 541.653 584.398 541.442 584.65 L 541.442 584.65 L 541.442 584.65 Q 541.231 584.902 540.916 584.952 L 540.916 584.952 L 540.916 584.952 Q 540.703 584.986 540.509 584.903 L 540.509 584.903 L 540.509 584.903 Q 540.316 584.82 540.178 584.614 L 540.178 584.614 L 539.612 583.746 L 536.613 584.225 L 536.336 585.228 L 536.336 585.228 Q 536.27 585.466 536.107 585.606 L 536.107 585.606 L 536.107 585.606 Q 535.945 585.746 535.732 585.78 L 535.732 585.78 L 535.732 585.78 Q 535.417 585.831 535.128 585.658 L 535.128 585.658 L 535.128 585.658 Q 534.84 585.486 534.791 585.181 L 534.791 585.181 L 534.791 585.181 Q 534.764 585.014 534.82 584.825 L 534.82 584.825 L 536.462 579.417 L 536.462 579.417 Q 536.542 579.148 536.757 578.976 L 536.757 578.976 L 536.757 578.976 Q 536.971 578.804 537.259 578.758 L 537.259 578.758 L 537.259 578.758 Q 537.536 578.713 537.798 578.809 L 537.798 578.809 L 537.798 578.809 Q 538.06 578.905 538.221 579.136 L 538.221 579.136 L 541.466 583.763 Z  M 537.579 580.643 L 536.983 582.856 L 538.834 582.56 L 537.579 580.643 Z  M 543.281 584.603 L 543.281 584.603 Q 542.892 584.665 542.629 584.474 L 542.629 584.474 L 542.629 584.474 Q 542.366 584.284 542.304 583.895 L 542.304 583.895 L 541.513 578.942 L 541.513 578.942 Q 541.452 578.562 541.623 578.326 L 541.623 578.326 L 541.623 578.326 Q 541.794 578.09 542.174 578.029 L 542.174 578.029 L 544.544 577.651 L 544.544 577.651 Q 545.627 577.478 546.317 577.932 L 546.317 577.932 L 546.317 577.932 Q 547.006 578.387 547.163 579.368 L 547.163 579.368 L 547.163 579.368 Q 547.319 580.34 546.801 580.993 L 546.801 580.993 L 546.801 580.993 Q 546.283 581.645 545.209 581.817 L 545.209 581.817 L 543.756 582.049 L 544.007 583.623 L 544.007 583.623 Q 544.07 584.011 543.874 584.275 L 543.874 584.275 L 543.874 584.275 Q 543.679 584.539 543.281 584.603 L 543.281 584.603 Z  M 543.552 580.771 L 544.774 580.576 L 544.774 580.576 Q 545.246 580.501 545.442 580.27 L 545.442 580.27 L 545.442 580.27 Q 545.638 580.039 545.572 579.632 L 545.572 579.632 L 545.572 579.632 Q 545.444 578.827 544.518 578.975 L 544.518 578.975 L 543.296 579.17 L 543.552 580.771 Z  M 554.014 581.72 L 554.014 581.72 Q 554.22 581.943 554.256 582.166 L 554.256 582.166 L 554.256 582.166 Q 554.303 582.462 554.09 582.7 L 554.09 582.7 L 554.09 582.7 Q 553.876 582.938 553.552 582.99 L 553.552 582.99 L 553.552 582.99 Q 553.33 583.026 553.119 582.955 L 553.119 582.955 L 553.119 582.955 Q 552.909 582.884 552.737 582.703 L 552.737 582.703 L 551.253 581.136 L 551.253 581.136 Q 551.094 580.971 550.936 580.906 L 550.936 580.906 L 550.936 580.906 Q 550.778 580.841 550.584 580.873 L 550.584 580.873 L 549.982 580.969 L 550.247 582.626 L 550.247 582.626 Q 550.309 583.015 550.123 583.277 L 550.123 583.277 L 550.123 583.277 Q 549.937 583.539 549.548 583.601 L 549.548 583.601 L 549.548 583.601 Q 549.16 583.663 548.897 583.473 L 548.897 583.473 L 548.897 583.473 Q 548.634 583.282 548.571 582.893 L 548.571 582.893 L 547.78 577.941 L 547.78 577.941 Q 547.719 577.561 547.891 577.325 L 547.891 577.325 L 547.891 577.325 Q 548.062 577.089 548.441 577.028 L 548.441 577.028 L 550.765 576.657 L 550.765 576.657 Q 551.95 576.467 552.629 576.886 L 552.629 576.886 L 552.629 576.886 Q 553.308 577.304 553.464 578.276 L 553.464 578.276 L 553.464 578.276 Q 553.582 579.017 553.257 579.596 L 553.257 579.596 L 553.257 579.596 Q 552.931 580.175 552.219 580.469 L 552.219 580.469 L 552.219 580.469 Q 552.532 580.466 552.784 580.587 L 552.784 580.587 L 552.784 580.587 Q 553.036 580.709 553.308 580.988 L 553.308 580.988 L 554.014 581.72 Z  M 550.945 579.505 L 550.945 579.505 Q 551.509 579.414 551.727 579.199 L 551.727 579.199 L 551.727 579.199 Q 551.944 578.984 551.88 578.586 L 551.88 578.586 L 551.88 578.586 Q 551.815 578.179 551.541 578.038 L 551.541 578.038 L 551.541 578.038 Q 551.267 577.896 550.702 577.986 L 550.702 577.986 L 549.517 578.176 L 549.76 579.694 L 550.945 579.505 Z  M 556.094 582.556 L 556.094 582.556 Q 555.705 582.618 555.442 582.427 L 555.442 582.427 L 555.442 582.427 Q 555.179 582.236 555.117 581.848 L 555.117 581.848 L 554.325 576.895 L 554.325 576.895 Q 554.265 576.515 554.455 576.252 L 554.455 576.252 L 554.455 576.252 Q 554.646 575.989 555.035 575.927 L 555.035 575.927 L 555.035 575.927 Q 555.433 575.864 555.7 576.053 L 555.7 576.053 L 555.7 576.053 Q 555.968 576.243 556.029 576.623 L 556.029 576.623 L 556.82 581.576 L 556.82 581.576 Q 556.882 581.964 556.687 582.228 L 556.687 582.228 L 556.687 582.228 Q 556.492 582.492 556.094 582.556 L 556.094 582.556 Z  M 558.918 582.047 L 558.918 582.047 Q 558.538 582.108 558.302 581.937 L 558.302 581.937 L 558.302 581.937 Q 558.066 581.766 558.003 581.377 L 558.003 581.377 L 557.214 576.433 L 557.214 576.433 Q 557.153 576.054 557.344 575.791 L 557.344 575.791 L 557.344 575.791 Q 557.534 575.528 557.923 575.466 L 557.923 575.466 L 557.923 575.466 Q 558.321 575.402 558.589 575.592 L 558.589 575.592 L 558.589 575.592 Q 558.856 575.782 558.917 576.161 L 558.917 576.161 L 559.614 580.522 L 561.743 580.181 L 561.743 580.181 Q 562.548 580.053 562.659 580.747 L 562.659 580.747 L 562.659 580.747 Q 562.715 581.099 562.543 581.297 L 562.543 581.297 L 562.543 581.297 Q 562.371 581.496 561.963 581.561 L 561.963 581.561 L 558.918 582.047 Z " fill-rule="evenodd" fill="rgb(250,250,250)" />
                            <path d=" M 559.227 610.659 L 559.227 610.659 Q 560.475 610.454 561.14 610.858 L 561.14 610.858 L 561.14 610.858 Q 561.805 611.261 561.969 612.26 L 561.969 612.26 L 561.969 612.26 Q 562.306 614.312 559.893 614.709 L 559.893 614.709 L 550.268 616.292 L 550.268 616.292 Q 547.855 616.689 547.518 614.636 L 547.518 614.636 L 547.518 614.636 Q 547.354 613.637 547.854 613.042 L 547.854 613.042 L 547.854 613.042 Q 548.354 612.447 549.603 612.242 L 549.603 612.242 L 551.849 611.873 L 550.203 601.86 L 548.198 603.528 L 548.198 603.528 Q 547.772 603.883 547.273 603.965 L 547.273 603.965 L 547.273 603.965 Q 546.496 604.093 545.83 603.504 L 545.83 603.504 L 545.83 603.504 Q 545.163 602.916 545.027 602.084 L 545.027 602.084 L 545.027 602.084 Q 544.84 600.947 545.715 600.205 L 545.715 600.205 L 549.728 596.895 L 549.728 596.895 Q 550.835 596.001 551.916 595.823 L 551.916 595.823 L 551.916 595.823 Q 553.026 595.641 553.815 596.195 L 553.815 596.195 L 553.815 596.195 Q 554.604 596.749 554.791 597.886 L 554.791 597.886 L 556.953 611.033 L 559.227 610.659 Z " fill="rgb(33,33,33)" />
                        </g>
                    </g>
                </g>
                <clipPath id="_clipPath_hhL5Igj7EbyvgYKrgyBWMhvMv81AbC84">
                    <rect x="591.5" y="560" width="80" height="80" transform="matrix(1,0,0,1,0,0)" fill="rgb(255,255,255)" />
                </clipPath>
                <g clip-path="url(#_clipPath_hhL5Igj7EbyvgYKrgyBWMhvMv81AbC84)">
                    <g id="Group">
                        <rect x="600.835" y="566.745" width="61.331" height="66.406" transform="matrix(1,0,0,1,0,0)" fill="rgb(255,255,255)" />
                        <clipPath id="_clipPath_l40O8HrcgDCqEbqbOZfkeOWjTbuffJ0m">
                            <rect x="600.835" y="566.745" width="61.331" height="66.406" transform="matrix(1,0,0,1,0,0)" fill="rgb(255,255,255)" />
                        </clipPath>
                        <g clip-path="url(#_clipPath_l40O8HrcgDCqEbqbOZfkeOWjTbuffJ0m)">
                            <g id="Group">
                                <g id="Group">
                                    <path d=" M 622.75 634.1 L 632.736 617.272 Q 620.139 589.177 605.061 563.472 L 599.904 563.433 L 599.904 634.219 L 622.75 634.1 Z " fill="rgb(67,160,71)" />
                                    <path d=" M 617.933 594.378 L 605.705 565.445 L 664.062 565.327 L 664.062 594.328 L 617.933 594.378 Z " fill="rgb(229,57,53)" />
                                    <path d=" M 622.158 634.1 L 645.149 589.78 L 663.588 589.711 L 663.588 634.1 L 622.158 634.1 Z " fill="rgb(253,216,53)" />
                                    <path d=" M 614.508 599.862 C 614.508 590.195 622.357 582.346 632.024 582.346 C 641.691 582.346 649.54 590.195 649.54 599.862 C 649.54 609.529 641.691 617.378 632.024 617.378 C 622.357 617.378 614.508 609.529 614.508 599.862 Z " fill="rgb(238,238,238)" />
                                    <path d=" M 621.68 599.862 C 621.68 594.153 626.315 589.518 632.024 589.518 C 637.733 589.518 642.368 594.153 642.368 599.862 C 642.368 605.571 637.733 610.206 632.024 610.206 C 626.315 610.206 621.68 605.571 621.68 599.862 Z " fill="rgb(30,136,229)" />
                                </g>
                            </g>
                        </g>
                    </g>
                </g>
            </g>
        </g>
        <path d=" M 245.78 262.01 C 245.075 263.572 244.739 264.271 243.831 265.648 C 242.57 267.578 240.782 269.982 238.573 269.996 C 236.61 270.014 236.104 268.716 233.437 268.738 C 230.77 268.748 230.213 270.019 228.247 270 C 226.04 269.982 224.351 267.813 223.083 265.892 C 219.543 260.499 219.17 254.176 221.358 250.815 C 222.905 248.43 225.355 247.03 227.659 247.03 C 229.998 247.03 231.472 248.316 233.41 248.316 C 235.289 248.316 236.432 247.025 239.145 247.025 C 241.189 247.025 243.359 248.14 244.905 250.069 C 239.84 252.842 240.665 260.077 245.781 262.012 L 245.78 262.01 Z  M 237.085 244.868 C 238.071 243.607 238.816 241.819 238.549 240 C 236.938 240.111 235.058 241.138 233.957 242.464 C 232.962 243.676 232.138 245.476 232.46 247.217 C 234.215 247.272 236.03 246.226 237.085 244.868 Z " fill="rgb(33,33,33)" />
        <g id="Notification Center">
            <rect x="764" y="240" width="6" height="6" transform="matrix(1,0,0,1,0,0)" fill="rgb(33,33,33)" />
            <rect x="776" y="240" width="24" height="6" transform="matrix(1,0,0,1,0,0)" fill="rgb(33,33,33)" />
            <rect x="776" y="264" width="24" height="6" transform="matrix(1,0,0,1,0,0)" fill="rgb(33,33,33)" />
            <rect x="776" y="252" width="18" height="6" transform="matrix(1,0,0,1,0,0)" fill="rgb(33,33,33)" />
            <rect x="764" y="252" width="6" height="6" transform="matrix(1,0,0,1,0,0)" fill="rgb(33,33,33)" />
            <rect x="764" y="264" width="6" height="6" transform="matrix(1,0,0,1,0,0)" fill="rgb(33,33,33)" />
        </g>
    </g>
</svg>