<?xml version="1.0" standalone="no"?>
<!-- Generator: Gravit.io -->
<svg xmlns="http://www.w3.org/2000/svg" xmlns:xlink="http://www.w3.org/1999/xlink" style="isolation:isolate" viewBox="0 0 1024 1024" width="1024" height="1024">
    <defs>
        <clipPath id="_clipPath_IFUKVFFMYydhjidjG08AWBAflvkGMHSc">
            <rect width="1024" height="1024" />
        </clipPath>
    </defs>
    <g clip-path="url(#_clipPath_IFUKVFFMYydhjidjG08AWBAflvkGMHSc)">
        <rect x="85.333" y="85.897" width="850" height="850" transform="matrix(1,0,0,1,0,0)" fill="rgb(144,164,174)" />
        <rect x="86" y="709" width="850" height="229.897" transform="matrix(1,0,0,1,0,0)" fill="rgb(84,110,122)" />
        <g id="macbook pro retina">
            <g id="monitor">
                <path d=" M 226.991 382.245 L 226.991 737.76 L 798.435 737.76 L 798.435 382.245 C 798.435 367.845 786.745 356.154 772.345 356.154 L 253.082 356.154 C 238.682 356.154 226.991 367.845 226.991 382.245 Z " fill-rule="evenodd" fill="rgb(18,18,18)" />
                <mask id="_mask_YOmGJGAUtFRXYuPvnL4WMk58eXLI34Z5">
                    <path d=" M 226.991 381.281 L 226.991 744.505 L 798.435 744.505 L 798.435 381.281 C 798.435 366.882 786.745 355.191 772.345 355.191 L 253.082 355.191 C 238.682 355.191 226.991 366.882 226.991 381.281 Z " fill-rule="evenodd" fill="white" stroke="none" />
                </mask>
                <path d=" M 226.991 381.281 L 226.991 744.505 L 798.435 744.505 L 798.435 381.281 C 798.435 366.882 786.745 355.191 772.345 355.191 L 253.082 355.191 C 238.682 355.191 226.991 366.882 226.991 381.281 Z " fill-rule="evenodd" fill="none" mask="url(#_mask_YOmGJGAUtFRXYuPvnL4WMk58eXLI34Z5)" vector-effect="non-scaling-stroke" stroke-width="3.855" stroke="rgb(197,197,197)" stroke-linejoin="miter" stroke-linecap="square" stroke-miterlimit="10" />
                <path d=" M 245.3 380.246 L 245.3 715.596 L 781.09 715.596 L 781.09 380.246 L 245.3 380.246 Z " fill-rule="evenodd" fill="rgb(40,40,40)" />
            </g>
            <g id="camera">
                <path d=" M 513.195 374.464 C 515.324 374.464 517.05 372.738 517.05 370.609 C 517.05 368.48 515.324 366.754 513.195 366.754 C 511.066 366.754 509.34 368.48 509.34 370.609 C 509.34 372.738 511.066 374.464 513.195 374.464 Z " fill-rule="evenodd" fill="rgb(31,31,31)" />
                <path d=" M 513.195 372.536 C 514.259 372.536 515.122 371.673 515.122 370.609 C 515.122 369.545 514.259 368.682 513.195 368.682 C 512.131 368.682 511.268 369.545 511.268 370.609 C 511.268 371.673 512.131 372.536 513.195 372.536 Z " fill-rule="evenodd" fill="rgb(16,52,112)" />
            </g>
            <g id="bottom">
                <path d=" M 163 750.886 Q 170.301 758.179 190.976 760.105 Q 211.652 762.031 834.448 760.105 Q 851.602 758.815 862.729 751.204 Q 873.856 743.592 179.213 751.204 L 163 750.886 Z " fill-rule="evenodd" fill="rgb(154,154,154)" />
                <path d=" M 163.39 737.76 L 163.39 751.251 L 863 751.251 L 863 737.76 L 163.39 737.76 Z " fill-rule="evenodd" fill="rgb(204,204,204)" />
                <path d=" M 463.497 738.206 L 465.951 741.778 C 467.723 744.358 471.704 746.453 474.834 746.453 L 550.36 746.453 C 553.49 746.453 557.501 744.379 559.311 741.825 L 561.874 738.206" fill-rule="evenodd" fill="rgb(216,216,216)" />
            </g>
        </g>
        <g id="Linux Mint">
            <path d=" M 245.302 697.919 L 245.302 716.11 L 780.889 716.11 L 780.889 697.919 L 245.302 697.919 Z " fill-rule="evenodd" fill="rgb(97,97,97)" />
            <g id="Linux Mint logo">
                <path d=" M 258.547 710.151 C 258.547 708.846 258.547 705.769 258.547 705.769 C 258.547 704.305 257.262 703.119 255.676 703.119 L 254.03 703.119 L 254.03 703.115 L 249.579 703.096 L 249.579 704.694 C 249.579 704.694 249.943 704.694 250.263 704.694 C 250.74 704.694 250.824 705.023 250.824 705.479 L 250.827 708.305 C 250.827 709.769 252.113 710.955 253.696 710.955 L 257.607 710.955 C 258.108 710.955 258.547 710.638 258.547 710.151 L 258.547 710.151 Z " fill-rule="evenodd" fill="rgb(156,204,101)" />
                <path d=" M 258.202 710.577 C 257.202 709.889 256.45 709.042 255.854 707.995 C 254.678 705.825 255.005 704.417 252.04 704.38 C 251.2 704.38 250.54 704.38 249.655 704.38 L 249.655 704.761 Q 250.21 704.716 250.448 704.885 Q 250.675 705.045 250.827 705.547 L 250.827 708.229 C 250.827 709.635 252.175 710.865 253.696 710.865 L 257.467 710.865 C 257.743 710.865 258.034 710.75 258.202 710.577 Z " fill="rgb(139,195,74)" />
                <path d=" M 254.678 704.761 C 254.321 704.761 254.004 704.893 253.75 705.151 C 253.495 705.408 253.361 705.728 253.361 706.09 L 253.361 707.92 L 254.192 707.92 L 254.192 706.09 C 254.192 705.952 254.237 705.843 254.337 705.743 C 254.436 705.643 254.542 705.597 254.678 705.597 C 254.818 705.597 254.922 705.642 255.022 705.743 C 255.121 705.843 255.166 705.952 255.166 706.09 L 255.166 707.92 L 255.997 707.92 L 255.997 706.09 C 255.997 705.952 256.042 705.843 256.141 705.743 C 256.241 705.642 256.345 705.597 256.485 705.597 C 256.621 705.597 256.727 705.643 256.826 705.743 C 256.925 705.843 256.971 705.952 256.971 706.09 L 256.975 708.229 C 256.975 708.685 256.54 709.069 255.982 709.069 L 253.303 709.059 C 252.872 709.059 252.503 708.639 252.503 708.101 L 252.503 704.074 L 251.718 704.074 L 251.718 708.256 C 251.718 708.699 251.88 709.088 252.196 709.403 C 252.467 709.669 252.791 709.827 253.157 709.866 L 253.157 709.881 L 256.14 709.881 C 256.598 709.881 257.001 709.711 257.326 709.38 L 257.327 709.38 C 257.604 709.097 257.765 708.757 257.805 708.374 L 257.802 706.09 C 257.802 705.728 257.668 705.408 257.413 705.151 C 257.159 704.893 256.841 704.761 256.485 704.761 C 256.134 704.761 255.828 704.891 255.58 705.13 C 255.333 704.892 255.028 704.761 254.678 704.761 L 254.678 704.761 Z " fill-rule="evenodd" fill="rgb(0,0,0)" fill-opacity="0.08040203" />
                <path d=" M 254.612 704.783 C 254.255 704.783 253.938 704.915 253.683 705.172 C 253.429 705.429 253.295 705.75 253.295 706.112 L 253.295 707.942 L 254.126 707.942 L 254.126 706.112 C 254.126 705.973 254.171 705.865 254.27 705.765 C 254.37 705.664 254.475 705.619 254.612 705.619 C 254.752 705.619 254.855 705.664 254.955 705.765 C 255.054 705.865 255.1 705.973 255.1 706.112 L 255.1 707.942 L 255.931 707.942 L 255.931 706.112 C 255.931 705.973 255.976 705.865 256.075 705.765 C 256.175 705.664 256.279 705.619 256.418 705.619 C 256.555 705.619 256.66 705.664 256.76 705.765 C 256.859 705.865 256.904 705.973 256.904 706.112 L 256.909 708.25 C 256.909 708.706 256.474 709.091 255.915 709.091 L 253.236 709.08 C 252.805 709.08 252.437 708.661 252.437 708.123 L 252.437 704.096 L 251.651 704.096 L 251.651 708.277 C 251.651 708.721 251.814 709.11 252.13 709.425 C 252.4 709.691 252.725 709.864 253.09 709.903 L 256.074 709.903 C 256.532 709.903 256.935 709.733 257.26 709.402 L 257.261 709.402 C 257.537 709.118 257.699 708.779 257.738 708.396 L 257.735 706.112 C 257.735 705.75 257.602 705.429 257.347 705.172 C 257.092 704.915 256.775 704.783 256.418 704.783 C 256.068 704.783 255.761 704.913 255.514 705.151 C 255.266 704.913 254.962 704.783 254.612 704.783 L 254.612 704.783 Z " fill-rule="evenodd" fill="rgb(255,255,255)" />
                <path d=" M 254.123 709.083 L 254.123 709.903 L 256.075 709.903 C 256.533 709.903 256.934 709.732 257.259 709.402 L 257.261 709.402 C 257.538 709.118 257.699 708.779 257.738 708.396 L 257.738 707.931 L 256.909 707.931 L 256.909 708.25 C 256.909 708.706 256.476 709.089 255.917 709.089 L 254.123 709.083 L 254.123 709.083 Z " fill-rule="evenodd" fill="rgb(197,225,165)" />
                <path d=" M 253.67 711.562 C 251.782 711.562 250.143 710.132 250.143 708.247 L 250.141 705.958 L 250.141 705.375 L 248.944 705.375 L 248.944 702.467 L 253.993 702.49 L 255.573 702.494 C 257.463 702.494 259.1 703.922 259.1 705.809 L 259.1 711.562 L 253.67 711.562 L 253.67 711.562 L 253.67 711.562 L 253.67 711.562 Z  M 258.331 710.019 C 258.331 708.766 258.331 705.809 258.331 705.809 C 258.331 704.402 257.096 703.262 255.573 703.262 L 253.991 703.262 L 253.991 703.259 L 249.715 703.24 L 249.715 704.606 C 249.715 704.606 249.887 704.606 250.194 704.606 C 250.519 704.606 250.91 704.911 250.91 705.359 L 250.914 708.245 C 250.914 709.652 252.149 710.792 253.67 710.792 L 257.428 710.792 C 257.909 710.792 258.331 710.487 258.331 710.019 L 258.331 710.019 Z " fill-rule="evenodd" fill="rgb(255,255,255)" />
            </g>
            <path d=" M 267.047 709.837 L 266.559 709.837 L 264.795 705.233 L 264.767 705.233 L 264.767 705.233 Q 264.817 705.78 264.817 706.533 L 264.817 706.533 L 264.817 709.837 L 264.258 709.837 L 264.258 704.643 L 265.169 704.643 L 266.815 708.928 L 266.844 708.928 L 268.505 704.643 L 269.408 704.643 L 269.408 709.837 L 268.804 709.837 L 268.804 706.49 L 268.804 706.49 Q 268.804 705.915 268.853 705.24 L 268.853 705.24 L 268.825 705.24 L 267.047 709.837 Z  M 272.392 709.908 L 272.392 709.908 L 272.392 709.908 Q 271.528 709.908 271.028 709.382 L 271.028 709.382 L 271.028 709.382 Q 270.529 708.857 270.529 707.922 L 270.529 707.922 L 270.529 707.922 Q 270.529 706.981 270.993 706.426 L 270.993 706.426 L 270.993 706.426 Q 271.457 705.872 272.239 705.872 L 272.239 705.872 L 272.239 705.872 Q 272.972 705.872 273.399 706.354 L 273.399 706.354 L 273.399 706.354 Q 273.826 706.835 273.826 707.624 L 273.826 707.624 L 273.826 707.997 L 271.14 707.997 L 271.14 707.997 Q 271.158 708.683 271.487 709.038 L 271.487 709.038 L 271.487 709.038 Q 271.816 709.393 272.414 709.393 L 272.414 709.393 L 272.414 709.393 Q 273.043 709.393 273.659 709.13 L 273.659 709.13 L 273.659 709.656 L 273.659 709.656 Q 273.346 709.791 273.066 709.85 L 273.066 709.85 L 273.066 709.85 Q 272.787 709.908 272.392 709.908 Z  M 272.232 706.366 L 272.232 706.366 L 272.232 706.366 Q 271.763 706.366 271.484 706.672 L 271.484 706.672 L 271.484 706.672 Q 271.204 706.977 271.155 707.517 L 271.155 707.517 L 273.193 707.517 L 273.193 707.517 Q 273.193 706.959 272.944 706.663 L 272.944 706.663 L 272.944 706.663 Q 272.695 706.366 272.232 706.366 Z  M 278.09 709.837 L 277.5 709.837 L 277.5 707.318 L 277.5 707.318 Q 277.5 706.842 277.283 706.608 L 277.283 706.608 L 277.283 706.608 Q 277.066 706.373 276.603 706.373 L 276.603 706.373 L 276.603 706.373 Q 275.992 706.373 275.707 706.703 L 275.707 706.703 L 275.707 706.703 Q 275.423 707.034 275.423 707.794 L 275.423 707.794 L 275.423 709.837 L 274.832 709.837 L 274.832 705.943 L 275.312 705.943 L 275.408 706.476 L 275.437 706.476 L 275.437 706.476 Q 275.618 706.188 275.945 706.03 L 275.945 706.03 L 275.945 706.03 Q 276.273 705.872 276.675 705.872 L 276.675 705.872 L 276.675 705.872 Q 277.379 705.872 277.734 706.211 L 277.734 706.211 L 277.734 706.211 Q 278.09 706.551 278.09 707.297 L 278.09 707.297 L 278.09 709.837 Z  M 279.26 705.943 L 279.858 705.943 L 279.858 708.469 L 279.858 708.469 Q 279.858 708.945 280.075 709.18 L 280.075 709.18 L 280.075 709.18 Q 280.292 709.414 280.754 709.414 L 280.754 709.414 L 280.754 709.414 Q 281.366 709.414 281.649 709.08 L 281.649 709.08 L 281.649 709.08 Q 281.931 708.746 281.931 707.99 L 281.931 707.99 L 281.931 705.943 L 282.522 705.943 L 282.522 709.837 L 282.035 709.837 L 281.949 709.315 L 281.917 709.315 L 281.917 709.315 Q 281.736 709.603 281.414 709.756 L 281.414 709.756 L 281.414 709.756 Q 281.092 709.908 280.679 709.908 L 280.679 709.908 L 280.679 709.908 Q 279.968 709.908 279.614 709.571 L 279.614 709.571 L 279.614 709.571 Q 279.26 709.233 279.26 708.491 L 279.26 708.491 L 279.26 705.943 Z " fill-rule="evenodd" fill="rgb(250,250,250)" />
            <g id="Show and Hide">
                <rect x="286.32" y="702.467" width="9.105" height="9.096" transform="matrix(1,0,0,1,0,0)" fill="rgb(104,159,56)" />
                <rect x="286.32" y="702.467" width="9.105" height="1.137" transform="matrix(1,0,0,1,0,0)" fill="rgb(207,216,220)" />
                <rect x="287.933" y="709.213" width="5.88" height="2.35" transform="matrix(1,0,0,1,0,0)" fill="rgb(85,139,47)" />
            </g>
            <g id="Firefox">
                <rect x="300.532" y="702.654" width="9.093" height="9.083" transform="matrix(1,0,0,1,0,0)" fill="rgb(30,136,229)" />
                <g id="firefox-quantum">
                    <path d=" M 307.472 703.934 C 307.277 704.161 307.186 704.672 307.384 705.191 C 307.582 705.709 307.886 705.596 308.075 706.125 C 308.325 706.822 308.208 707.758 308.208 707.758 C 308.208 707.758 308.509 708.627 308.718 707.704 C 309.181 705.972 307.472 704.361 307.472 703.934 Z " fill="rgb(255,152,0)" />
                    <path d=" M 305.09 711.127 C 307.089 711.127 308.709 709.5 308.709 707.494 C 308.709 705.488 307.089 703.861 305.092 703.861 C 303.094 703.861 301.474 705.488 301.474 707.494 C 301.471 709.502 303.092 711.127 305.09 711.127 Z " fill="rgb(21,101,192)" />
                    <path d=" M 307.802 709.734 C 307.724 709.789 307.641 709.839 307.556 709.882 C 307.669 709.717 307.773 709.546 307.868 709.369 C 307.946 709.284 308.016 709.201 308.074 709.112 C 308.102 709.068 308.133 709.013 308.167 708.95 C 308.37 708.584 308.594 707.993 308.601 707.385 L 308.601 707.383 C 308.601 707.368 308.601 707.353 308.601 707.338 C 308.602 707.186 308.586 707.033 308.554 706.884 C 308.556 706.896 308.557 706.908 308.559 706.919 C 308.557 706.91 308.555 706.901 308.553 706.892 C 308.556 706.909 308.559 706.925 308.561 706.941 C 308.603 707.293 308.573 707.636 308.425 707.889 C 308.423 707.893 308.421 707.897 308.418 707.9 C 308.495 707.515 308.521 707.091 308.435 706.665 C 308.435 706.665 308.401 706.459 308.147 705.831 C 308 705.47 307.74 705.174 307.511 704.958 C 307.309 704.709 307.127 704.542 307.026 704.436 C 306.815 704.215 306.727 704.049 306.691 703.94 C 306.659 703.925 306.258 703.535 306.226 703.52 C 306.05 703.791 305.499 704.641 305.761 705.435 C 305.88 705.795 306.181 706.168 306.495 706.378 C 306.509 706.393 306.683 706.582 306.765 707.006 C 306.85 707.445 306.806 707.787 306.63 708.293 C 306.424 708.737 305.896 709.176 305.401 709.221 C 304.344 709.317 303.957 708.69 303.957 708.69 C 304.335 708.841 304.753 708.81 305.007 708.653 C 305.263 708.495 305.417 708.378 305.543 708.424 C 305.667 708.47 305.766 708.336 305.677 708.198 C 305.537 707.983 305.283 707.872 305.03 707.916 C 304.774 707.958 304.539 708.161 304.203 707.964 C 304.181 707.952 304.16 707.938 304.14 707.923 C 304.118 707.908 304.212 707.945 304.19 707.929 C 304.125 707.893 304.009 707.816 303.979 707.788 C 303.974 707.784 304.03 707.806 304.025 707.802 C 303.711 707.543 303.75 707.369 303.76 707.259 C 303.768 707.172 303.825 707.06 303.921 707.014 C 303.967 707.039 303.996 707.059 303.996 707.059 C 303.996 707.059 303.976 707.018 303.966 706.997 C 303.969 706.995 303.973 706.996 303.977 706.994 C 304.015 707.013 304.099 707.06 304.143 707.089 C 304.201 707.13 304.219 707.166 304.219 707.166 C 304.219 707.166 304.234 707.158 304.223 707.122 C 304.219 707.108 304.201 707.062 304.144 707.015 L 304.148 707.015 C 304.182 707.035 304.215 707.057 304.245 707.083 C 304.261 707.024 304.29 706.963 304.283 706.854 C 304.28 706.777 304.281 706.757 304.268 706.727 C 304.256 706.702 304.275 706.692 304.296 706.718 C 304.292 706.698 304.286 706.677 304.278 706.658 L 304.278 706.656 C 304.304 706.565 304.834 706.327 304.873 706.299 C 304.936 706.254 304.989 706.196 305.029 706.129 C 305.058 706.082 305.081 706.017 305.086 705.917 C 305.089 705.845 305.055 705.797 304.519 705.741 C 304.373 705.726 304.287 705.62 304.238 705.522 C 304.229 705.501 304.22 705.482 304.211 705.463 C 304.202 705.44 304.195 705.417 304.19 705.394 C 304.277 705.143 304.425 704.93 304.641 704.769 C 304.653 704.759 304.594 704.772 304.606 704.761 C 304.62 704.749 304.709 704.713 304.726 704.705 C 304.747 704.695 304.638 704.648 304.541 704.66 C 304.443 704.671 304.422 704.682 304.369 704.705 C 304.391 704.683 304.46 704.655 304.444 704.655 C 304.338 704.671 304.206 704.733 304.093 704.802 C 304.093 704.79 304.096 704.778 304.1 704.767 C 304.048 704.789 303.919 704.879 303.881 704.956 C 303.883 704.941 303.884 704.926 303.883 704.912 C 303.843 704.945 303.807 704.983 303.776 705.024 L 303.774 705.026 C 303.469 704.903 303.201 704.895 302.974 704.95 C 302.925 704.901 302.9 704.937 302.788 704.689 C 302.78 704.674 302.793 704.704 302.788 704.689 C 302.769 704.641 302.799 704.753 302.788 704.689 C 302.598 704.839 302.348 705.008 302.228 705.128 C 302.227 705.133 302.368 705.088 302.228 705.128 C 302.179 705.142 302.182 705.171 302.175 705.433 C 302.173 705.453 302.175 705.476 302.173 705.494 C 302.077 705.615 302.012 705.719 301.987 705.772 C 301.864 705.985 301.727 706.318 301.595 706.844 C 301.653 706.701 301.724 706.564 301.805 706.433 C 301.695 706.712 301.589 707.151 301.568 707.826 C 301.594 707.686 301.628 707.549 301.67 707.413 C 301.644 707.973 301.74 708.532 301.953 709.051 C 302.029 709.236 302.155 709.519 302.369 709.828 C 303.042 710.535 303.991 710.975 305.042 710.975 C 306.139 710.975 307.125 710.496 307.802 709.734 Z " fill="rgb(13,71,161)" />
                    <path d=" M 306.99 710.248 C 308.318 710.094 308.906 708.727 308.151 708.7 C 307.469 708.679 306.361 710.32 306.99 710.248 Z " fill="rgb(211,47,47)" />
                    <path d=" M 308.246 708.421 C 309.16 707.89 308.922 706.743 308.922 706.743 C 308.922 706.743 308.569 707.152 308.33 707.804 C 308.093 708.45 307.697 708.742 308.246 708.421 Z " fill="rgb(229,57,53)" />
                    <path d=" M 305.346 710.927 C 306.62 711.333 307.715 710.33 307.04 709.996 C 306.426 709.694 304.741 710.735 305.346 710.927 Z " fill="rgb(198,40,40)" />
                    <path d=" M 308.341 708.908 C 308.372 708.865 308.414 708.725 308.451 708.662 C 308.676 708.3 308.678 708.01 308.678 708.004 C 308.814 707.326 308.801 707.049 308.718 706.537 C 308.65 706.125 308.356 705.535 308.102 705.25 C 307.839 704.957 308.024 705.053 307.77 704.839 C 307.547 704.592 307.331 704.348 307.213 704.25 C 306.363 703.539 306.382 703.389 306.399 703.363 C 306.396 703.366 306.392 703.37 306.387 703.376 C 306.377 703.336 306.369 703.303 306.369 703.303 C 306.369 703.303 305.905 703.767 305.807 704.541 C 305.743 705.046 305.932 705.572 306.206 705.909 C 306.349 706.083 306.51 706.242 306.687 706.381 L 306.687 706.381 C 306.895 706.678 307.009 707.045 307.009 707.439 C 307.009 708.427 306.207 709.227 305.218 709.227 C 305.083 709.227 304.948 709.212 304.817 709.182 C 304.35 709.094 304.081 708.858 303.946 708.699 C 303.869 708.607 303.837 708.541 303.837 708.541 C 304.255 708.69 304.717 708.659 304.998 708.504 C 305.282 708.347 305.453 708.23 305.592 708.276 C 305.729 708.322 305.838 708.189 305.74 708.052 C 305.645 707.915 305.395 707.718 305.024 707.773 C 304.74 707.814 304.48 708.015 304.109 707.82 C 304.085 707.808 304.062 707.794 304.039 707.78 C 304.015 707.765 304.119 707.801 304.094 707.785 C 304.022 707.75 303.894 707.673 303.861 707.646 C 303.855 707.641 303.917 707.664 303.911 707.659 C 303.564 707.403 303.607 707.23 303.618 707.121 C 303.627 707.035 303.69 706.923 303.796 706.878 C 303.848 706.903 303.88 706.922 303.88 706.922 C 303.88 706.922 303.858 706.882 303.846 706.861 C 303.85 706.86 303.854 706.86 303.858 706.858 C 303.9 706.877 303.993 706.924 304.042 706.953 C 304.106 706.993 304.127 707.029 304.127 707.029 C 304.127 707.029 304.143 707.021 304.131 706.985 C 304.126 706.971 304.107 706.925 304.044 706.879 L 304.048 706.879 C 304.085 706.899 304.121 706.921 304.155 706.946 C 304.173 706.888 304.205 706.827 304.198 706.719 C 304.193 706.643 304.195 706.623 304.18 706.594 C 304.167 706.569 304.188 706.559 304.211 706.585 C 304.207 706.564 304.201 706.544 304.191 706.525 L 304.192 706.523 C 304.221 706.432 304.807 706.196 304.85 706.169 C 304.919 706.126 304.978 706.068 305.023 706.001 C 305.055 705.954 305.08 705.889 305.086 705.79 C 305.088 705.745 305.074 705.71 304.919 705.676 C 304.826 705.656 304.681 705.636 304.459 705.615 C 304.296 705.601 304.201 705.496 304.147 705.398 C 304.137 705.378 304.127 705.359 304.117 705.34 C 304.108 705.318 304.1 705.295 304.094 705.272 C 304.191 705.018 304.366 704.801 304.594 704.652 C 304.607 704.641 304.542 704.655 304.555 704.644 C 304.57 704.632 304.669 704.596 304.688 704.588 C 304.711 704.578 304.59 704.532 304.483 704.543 C 304.374 704.554 304.351 704.566 304.293 704.588 C 304.317 704.566 304.394 704.538 304.376 704.538 C 304.258 704.555 304.112 704.616 303.987 704.685 C 303.987 704.673 303.99 704.661 303.995 704.65 C 303.937 704.672 303.794 704.761 303.753 704.837 C 303.754 704.822 303.755 704.808 303.755 704.793 C 303.711 704.826 303.671 704.863 303.636 704.905 L 303.634 704.906 C 303.297 704.785 303 704.777 302.749 704.831 C 302.694 704.782 302.606 704.707 302.481 704.462 C 302.472 704.447 302.468 704.492 302.461 704.478 C 302.413 704.365 302.383 704.181 302.388 704.054 C 302.388 704.054 302.288 704.099 302.205 704.29 C 302.189 704.325 302.179 704.344 302.169 704.363 C 302.165 704.368 302.18 704.3 302.177 704.304 C 302.163 704.328 302.125 704.362 302.109 704.406 C 302.098 704.439 302.082 704.457 302.072 704.498 L 302.069 704.502 C 302.069 704.49 302.072 704.453 302.07 704.46 C 302.031 704.539 301.997 704.62 301.969 704.703 C 301.924 704.85 301.872 705.05 301.864 705.311 C 301.862 705.33 301.864 705.352 301.862 705.37 C 301.756 705.491 301.684 705.594 301.657 705.647 C 301.52 705.858 301.369 706.188 301.222 706.709 C 301.287 706.567 301.365 706.431 301.455 706.302 C 301.333 706.579 301.215 707.014 301.192 707.683 C 301.221 707.544 301.259 707.408 301.305 707.274 C 301.284 707.72 301.336 708.273 301.619 708.898 C 301.786 709.265 302.172 710.011 303.116 710.593 L 303.116 710.593 C 303.116 710.593 303.437 710.832 303.988 711.01 C 304.029 711.025 304.07 711.04 304.112 711.054 C 304.099 711.048 304.086 711.043 304.074 711.037 C 304.441 711.147 304.822 711.203 305.206 711.203 C 306.634 711.204 307.055 710.631 307.055 710.631 C 307.055 710.631 307.054 710.633 307.051 710.635 Q 307.081 710.606 307.109 710.575 C 306.884 710.788 306.37 710.802 306.177 710.787 C 306.505 710.691 306.721 710.609 307.141 710.449 Q 307.215 710.421 307.292 710.386 C 307.297 710.384 307.303 710.381 307.308 710.379 C 307.319 710.374 307.329 710.37 307.339 710.365 C 307.543 710.268 307.736 710.148 307.912 710.006 C 308.333 709.67 308.425 709.342 308.473 709.126 C 308.466 709.147 308.445 709.195 308.431 709.226 C 308.322 709.458 308.082 709.6 307.82 709.723 C 307.944 709.559 308.06 709.39 308.166 709.214 C 308.251 709.129 308.278 708.997 308.341 708.908 Z " fill="rgb(230,81,0)" />
                    <path d=" M 307.828 709.713 C 308 709.523 308.154 709.307 308.271 709.061 C 308.572 708.429 309.037 707.379 308.671 706.281 C 308.382 705.414 307.984 704.94 307.479 704.476 C 306.659 703.724 306.43 703.388 306.43 703.188 C 306.43 703.188 305.484 704.243 305.894 705.342 C 306.305 706.441 307.146 706.401 307.702 707.548 C 308.356 708.898 307.172 710.371 306.193 710.784 C 306.253 710.77 308.37 710.292 308.481 709.082 C 308.479 709.105 308.431 709.439 307.828 709.713 Z " fill="rgb(255,152,0)" />
                    <path d=" M 305.086 705.79 C 305.089 705.718 305.052 705.67 304.461 705.615 C 304.217 705.593 304.124 705.368 304.096 705.273 C 304.009 705.498 303.974 705.733 303.993 706.018 C 304.006 706.205 304.132 706.406 304.192 706.523 C 304.192 706.523 304.205 706.506 304.211 706.499 C 304.324 706.382 304.798 706.203 304.842 706.177 C 304.891 706.146 305.078 706.01 305.086 705.79 Z " fill="rgb(255,143,0)" />
                    <path d=" M 302.483 704.463 C 302.474 704.448 302.47 704.494 302.463 704.479 C 302.415 704.366 302.385 704.184 302.392 704.055 C 302.392 704.055 302.292 704.101 302.209 704.292 C 302.193 704.326 302.183 704.345 302.173 704.364 C 302.169 704.37 302.184 704.301 302.181 704.305 C 302.167 704.33 302.129 704.364 302.113 704.406 C 302.1 704.44 302.086 704.459 302.076 704.502 C 302.072 704.513 302.079 704.45 302.076 704.458 C 301.883 704.831 301.846 705.396 301.866 705.372 C 302.278 704.933 302.749 704.829 302.749 704.829 C 302.699 704.792 302.59 704.685 302.483 704.463 L 302.483 704.463 Z " fill="rgb(211,47,47)" />
                    <path d=" M 307.827 709.718 C 308.676 708.885 309.106 707.872 308.924 706.737 C 308.924 706.737 308.997 707.319 308.722 707.915 C 308.854 707.333 308.869 706.611 308.518 705.862 C 308.049 704.863 307.278 704.338 306.984 704.119 C 306.538 703.786 306.353 703.448 306.35 703.378 C 306.216 703.651 305.813 704.585 306.306 705.39 C 306.768 706.144 307.496 706.368 308.005 707.059 C 308.943 708.333 307.827 709.718 307.827 709.718 Z " fill="rgb(253,216,53)" />
                    <path d=" M 307.705 707.551 C 307.408 706.938 307.038 706.671 306.687 706.381 C 306.728 706.438 306.738 706.459 306.761 706.495 C 307.069 706.824 307.524 707.625 307.194 708.63 C 306.572 710.523 304.086 709.632 303.826 709.381 C 303.931 710.477 305.766 711.001 306.961 710.291 C 307.641 709.648 308.191 708.554 307.705 707.551 Z " fill="rgb(255,111,0)" />
                </g>
            </g>
            <g id="Terminal">
                <rect x="315.457" y="702.467" width="9.105" height="9.096" transform="matrix(1,0,0,1,0,0)" fill="rgb(33,33,33)" />
                <path d=" M 315.457 702.467 L 324.562 702.467 L 324.562 711.562 L 315.457 711.562 L 315.457 702.467 Z  M 315.994 703.012 L 324.007 703.012 L 324.007 711.017 L 315.994 711.017 L 315.994 703.012 Z " fill-rule="evenodd" fill="rgb(250,250,250)" />
                <path d=" M 317.997 705.414 C 317.815 705.341 317.742 705.122 317.815 704.941 C 317.888 704.759 318.106 704.686 318.289 704.759 L 322.253 706.559 C 322.497 706.67 322.501 706.858 322.262 706.98 L 318.252 709.015 C 318.106 709.125 317.888 709.052 317.779 708.87 C 317.706 708.688 317.742 708.47 317.924 708.361 L 320.876 706.869 C 320.955 706.829 320.954 706.766 320.873 706.729 L 317.997 705.414 Z " fill="rgb(250,250,250)" />
            </g>
            <clipPath id="_clipPath_IHJqLKlW03k1lGBZAmr4Uq1TGktFVbCi">
                <rect x="329.106" y="701.799" width="10.926" height="10.915" transform="matrix(1,0,0,1,0,0)" fill="rgb(255,255,255)" />
            </clipPath>
            <g clip-path="url(#_clipPath_IHJqLKlW03k1lGBZAmr4Uq1TGktFVbCi)">
                <g id="Group">
                    <path d=" M 367.045 779.732 L 367.045 790.799 L 378.124 790.799 L 378.124 779.732 L 367.045 779.732 Z " fill-rule="evenodd" fill="rgb(21,101,192)" />
                    <path d=" M 370.629 781.555 Q 369.636 781.538 367.045 781.545 L 367.045 784.016 L 378.124 784.016 L 378.124 783.312 Q 374.807 783.336 373.344 783.318 C 371.881 783.299 371.623 781.572 370.629 781.555 Z " fill-rule="evenodd" fill="rgb(30,136,229)" />
                    <path d=" M 370.421 781.958 Q 369.427 781.941 367.045 781.949 L 367.045 790.799 L 378.124 790.799 L 378.124 783.716 Q 374.611 783.74 373.148 783.722 C 371.685 783.703 371.414 781.975 370.421 781.958 Z " fill-rule="evenodd" fill="rgb(100,181,246)" />
                </g>
            </g>
            <g id="Settings">
                <path d=" M 762.841 705.304 L 774.568 705.304 L 774.568 712.617 L 762.841 712.617 L 762.841 705.304 Z  M 763.387 705.85 L 774.022 705.85 L 774.022 712.072 L 763.387 712.072 L 763.387 705.85 Z " fill-rule="evenodd" fill="rgb(250,250,250)" />
                <rect x="760.146" y="702.125" width="10.79" height="6.367" transform="matrix(1,0,0,1,0,0)" fill="rgb(97,97,97)" />
                <path d=" M 759.709 701.666 L 771.4 701.666 L 771.4 708.979 L 759.709 708.979 L 759.709 701.666 Z  M 760.255 702.212 L 770.853 702.212 L 770.853 708.433 L 760.255 708.433 L 760.255 702.212 Z " fill-rule="evenodd" fill="rgb(250,250,250)" />
            </g>
            <path d=" M 740.325 709.333 L 740.325 709.88 L 736.907 709.88 L 736.907 709.372 L 738.277 707.997 L 738.277 707.997 Q 738.903 707.365 739.102 707.095 L 739.102 707.095 L 739.102 707.095 Q 739.301 706.825 739.4 706.569 L 739.4 706.569 L 739.4 706.569 Q 739.5 706.313 739.5 706.018 L 739.5 706.018 L 739.5 706.018 Q 739.5 705.602 739.248 705.359 L 739.248 705.359 L 739.248 705.359 Q 738.995 705.116 738.547 705.116 L 738.547 705.116 L 738.547 705.116 Q 738.223 705.116 737.933 705.222 L 737.933 705.222 L 737.933 705.222 Q 737.643 705.329 737.288 705.61 L 737.288 705.61 L 736.975 705.208 L 736.975 705.208 Q 737.693 704.611 738.54 704.611 L 738.54 704.611 L 738.54 704.611 Q 739.272 704.611 739.689 704.986 L 739.689 704.986 L 739.689 704.986 Q 740.105 705.361 740.105 705.993 L 740.105 705.993 L 740.105 705.993 Q 740.105 706.487 739.827 706.97 L 739.827 706.97 L 739.827 706.97 Q 739.55 707.454 738.789 708.193 L 738.789 708.193 L 737.651 709.305 L 737.651 709.333 L 740.325 709.333 Z  M 744.519 707.276 L 744.519 707.276 L 744.519 707.276 Q 744.519 708.622 744.094 709.287 L 744.094 709.287 L 744.094 709.287 Q 743.669 709.951 742.794 709.951 L 742.794 709.951 L 742.794 709.951 Q 741.954 709.951 741.517 709.271 L 741.517 709.271 L 741.517 709.271 Q 741.079 708.59 741.079 707.276 L 741.079 707.276 L 741.079 707.276 Q 741.079 705.919 741.502 705.261 L 741.502 705.261 L 741.502 705.261 Q 741.926 704.604 742.794 704.604 L 742.794 704.604 L 742.794 704.604 Q 743.64 704.604 744.079 705.29 L 744.079 705.29 L 744.079 705.29 Q 744.519 705.975 744.519 707.276 Z  M 741.677 707.276 L 741.677 707.276 L 741.677 707.276 Q 741.677 708.409 741.944 708.926 L 741.944 708.926 L 741.944 708.926 Q 742.21 709.443 742.794 709.443 L 742.794 709.443 L 742.794 709.443 Q 743.384 709.443 743.649 708.919 L 743.649 708.919 L 743.649 708.919 Q 743.914 708.395 743.914 707.276 L 743.914 707.276 L 743.914 707.276 Q 743.914 706.157 743.649 705.636 L 743.649 705.636 L 743.649 705.636 Q 743.384 705.116 742.794 705.116 L 742.794 705.116 L 742.794 705.116 Q 742.21 705.116 741.944 705.629 L 741.944 705.629 L 741.944 705.629 Q 741.677 706.142 741.677 707.276 Z  M 745.422 709.504 L 745.422 709.504 L 745.422 709.504 Q 745.422 709.266 745.53 709.143 L 745.53 709.143 L 745.53 709.143 Q 745.639 709.02 745.842 709.02 L 745.842 709.02 L 745.842 709.02 Q 746.048 709.02 746.164 709.143 L 746.164 709.143 L 746.164 709.143 Q 746.279 709.266 746.279 709.504 L 746.279 709.504 L 746.279 709.504 Q 746.279 709.735 746.162 709.859 L 746.162 709.859 L 746.162 709.859 Q 746.044 709.983 745.842 709.983 L 745.842 709.983 L 745.842 709.983 Q 745.66 709.983 745.541 709.871 L 745.541 709.871 L 745.541 709.871 Q 745.422 709.759 745.422 709.504 Z  M 745.422 706.366 L 745.422 706.366 L 745.422 706.366 Q 745.422 705.887 745.842 705.887 L 745.842 705.887 L 745.842 705.887 Q 746.279 705.887 746.279 706.366 L 746.279 706.366 L 746.279 706.366 Q 746.279 706.597 746.162 706.722 L 746.162 706.722 L 746.162 706.722 Q 746.044 706.846 745.842 706.846 L 745.842 706.846 L 745.842 706.846 Q 745.66 706.846 745.541 706.734 L 745.541 706.734 L 745.541 706.734 Q 745.422 706.622 745.422 706.366 Z  M 750.398 705.908 L 750.398 705.908 L 750.398 705.908 Q 750.398 706.405 750.119 706.722 L 750.119 706.722 L 750.119 706.722 Q 749.839 707.038 749.327 707.144 L 749.327 707.144 L 749.327 707.173 L 749.327 707.173 Q 749.953 707.251 750.256 707.571 L 750.256 707.571 L 750.256 707.571 Q 750.558 707.891 750.558 708.409 L 750.558 708.409 L 750.558 708.409 Q 750.558 709.152 750.042 709.552 L 750.042 709.552 L 750.042 709.552 Q 749.526 709.951 748.577 709.951 L 748.577 709.951 L 748.577 709.951 Q 748.164 709.951 747.821 709.889 L 747.821 709.889 L 747.821 709.889 Q 747.478 709.827 747.154 709.671 L 747.154 709.671 L 747.154 709.109 L 747.154 709.109 Q 747.492 709.276 747.874 709.363 L 747.874 709.363 L 747.874 709.363 Q 748.257 709.45 748.598 709.45 L 748.598 709.45 L 748.598 709.45 Q 749.946 709.45 749.946 708.395 L 749.946 708.395 L 749.946 708.395 Q 749.946 707.45 748.459 707.45 L 748.459 707.45 L 747.947 707.45 L 747.947 706.942 L 748.467 706.942 L 748.467 706.942 Q 749.075 706.942 749.43 706.674 L 749.43 706.674 L 749.43 706.674 Q 749.786 706.405 749.786 705.929 L 749.786 705.929 L 749.786 705.929 Q 749.786 705.549 749.525 705.332 L 749.525 705.332 L 749.525 705.332 Q 749.263 705.116 748.815 705.116 L 748.815 705.116 L 748.815 705.116 Q 748.474 705.116 748.171 705.208 L 748.171 705.208 L 748.171 705.208 Q 747.869 705.3 747.481 705.549 L 747.481 705.549 L 747.183 705.151 L 747.183 705.151 Q 747.503 704.899 747.921 704.755 L 747.921 704.755 L 747.921 704.755 Q 748.338 704.611 748.801 704.611 L 748.801 704.611 L 748.801 704.611 Q 749.558 704.611 749.978 704.958 L 749.978 704.958 L 749.978 704.958 Q 750.398 705.304 750.398 705.908 Z  M 754.787 707.276 L 754.787 707.276 L 754.787 707.276 Q 754.787 708.622 754.362 709.287 L 754.362 709.287 L 754.362 709.287 Q 753.937 709.951 753.062 709.951 L 753.062 709.951 L 753.062 709.951 Q 752.222 709.951 751.785 709.271 L 751.785 709.271 L 751.785 709.271 Q 751.347 708.59 751.347 707.276 L 751.347 707.276 L 751.347 707.276 Q 751.347 705.919 751.771 705.261 L 751.771 705.261 L 751.771 705.261 Q 752.194 704.604 753.062 704.604 L 753.062 704.604 L 753.062 704.604 Q 753.908 704.604 754.348 705.29 L 754.348 705.29 L 754.348 705.29 Q 754.787 705.975 754.787 707.276 Z  M 751.945 707.276 L 751.945 707.276 L 751.945 707.276 Q 751.945 708.409 752.212 708.926 L 752.212 708.926 L 752.212 708.926 Q 752.478 709.443 753.062 709.443 L 753.062 709.443 L 753.062 709.443 Q 753.652 709.443 753.917 708.919 L 753.917 708.919 L 753.917 708.919 Q 754.182 708.395 754.182 707.276 L 754.182 707.276 L 754.182 707.276 Q 754.182 706.157 753.917 705.636 L 753.917 705.636 L 753.917 705.636 Q 753.652 705.116 753.062 705.116 L 753.062 705.116 L 753.062 705.116 Q 752.478 705.116 752.212 705.629 L 752.212 705.629 L 752.212 705.629 Q 751.945 706.142 751.945 707.276 Z " fill-rule="evenodd" fill="rgb(250,250,250)" />
            <path d=" M 731.637 705.607 L 731.431 705.812 C 731.933 706.161 732.231 706.729 732.231 707.34 C 732.231 707.951 731.933 708.519 731.431 708.868 L 731.637 709.074 C 732.189 708.67 732.518 708.028 732.518 707.341 C 732.517 706.653 732.189 706.011 731.637 705.607 L 731.637 705.607 Z  M 730.612 706.63 L 730.368 706.875 C 730.624 706.875 730.833 707.084 730.833 707.34 C 730.833 707.596 730.624 707.805 730.368 707.805 L 730.612 708.05 C 730.916 707.945 731.12 707.66 731.12 707.339 C 731.12 707.012 730.907 706.732 730.612 706.63 L 730.612 706.63 Z  M 731.121 706.122 L 730.911 706.332 C 731.283 706.531 731.515 706.919 731.514 707.341 C 731.514 707.766 731.283 708.149 730.911 708.35 L 731.121 708.56 C 731.544 708.3 731.8 707.844 731.8 707.342 C 731.8 706.838 731.542 706.382 731.121 706.122 L 731.121 706.122 Z  M 727.286 706.267 L 728.146 706.267 L 728.146 708.415 L 727.286 708.415 L 727.286 706.267 Z  M 728.289 708.456 L 729.865 710.031 L 729.865 704.649 L 728.289 706.225 L 728.289 708.456 L 728.289 708.456 Z " fill="rgb(250,250,250)" />
        </g>
    </g>
</svg>