<?xml version="1.0" standalone="no"?>
<!-- Generator: Gravit.io -->
<svg xmlns="http://www.w3.org/2000/svg" xmlns:xlink="http://www.w3.org/1999/xlink" style="isolation:isolate" viewBox="0 0 1024 1024" width="1024" height="1024">
    <defs>
        <clipPath id="_clipPath_rWfgrwgbY6iZSpNIfYUXsBpsW0YNfsVn">
            <rect width="1024" height="1024" />
        </clipPath>
    </defs>
    <g clip-path="url(#_clipPath_rWfgrwgbY6iZSpNIfYUXsBpsW0YNfsVn)">
        <rect x="85.333" y="85.897" width="850" height="850" transform="matrix(1,0,0,1,0,0)" fill="rgb(144,164,174)" />
        <rect x="86" y="710" width="850" height="229.897" transform="matrix(1,0,0,1,0,0)" fill="rgb(84,110,122)" />
        <g id="iMac">
            <linearGradient id="_lgradient_12" x1="0%" y1="50%" x2="6.123233995736766e-15%" y2="150%">
                <stop offset="88.75149619999999%" stop-opacity="1" style="stop-color:rgb(196,194,194)" />
                <stop offset="92.50273649285315%" stop-opacity="1" style="stop-color:rgb(220,220,220)" />
                <stop offset="100%" stop-opacity="1" style="stop-color:rgb(219,219,219)" />
            </linearGradient>
            <path d=" M 576.843 734.294 L 584.83 791.011 C 585.295 794.319 582.968 797 579.624 797 L 436.821 797 C 433.48 797 431.15 794.316 431.616 791.011 L 439.602 734.294 L 576.843 734.294 Z " fill-rule="evenodd" fill="url(#_lgradient_12)" />
            <g id="upper">
                <linearGradient id="_lgradient_13" x1="0%" y1="50%" x2="6.123233995736766e-15%" y2="150%">
                    <stop offset="0%" stop-opacity="1" style="stop-color:rgb(25,25,25)" />
                    <stop offset="100%" stop-opacity="1" style="stop-color:rgb(7,7,7)" />
                </linearGradient>
                <path d=" M 172.027 247 C 163.682 247 156.918 253.763 156.918 262.104 L 156.918 670.077 L 867.082 670.077 L 867.082 262.104 C 867.082 253.762 860.324 247 851.973 247 L 172.027 247 Z " fill-rule="evenodd" fill="url(#_lgradient_13)" />
                <path d=" M 184.871 274.399 L 184.871 643.08 L 839.129 643.08 L 839.129 274.399 L 184.871 274.399 Z " fill-rule="evenodd" fill="rgb(38,50,56)" />
                <linearGradient id="_lgradient_14" x1="0%" y1="50%" x2="6.123233995736766e-15%" y2="150%">
                    <stop offset="0%" stop-opacity="1" style="stop-color:rgb(216,216,216)" />
                    <stop offset="100%" stop-opacity="1" style="stop-color:rgb(214,214,214)" />
                </linearGradient>
                <path d=" M 156.918 670.077 L 156.918 719.177 C 156.918 727.526 163.676 734.294 172.027 734.294 L 851.973 734.294 C 860.318 734.294 867.082 727.528 867.082 719.177 L 867.082 670.077 L 156.918 670.077 Z " fill-rule="evenodd" fill="url(#_lgradient_14)" />
            </g>
            <path d=" M 506.31 693.266 C 507.235 693.266 508.351 693.458 509.659 693.842 C 510.979 694.227 511.855 694.419 512.287 694.419 C 512.842 694.419 513.748 694.202 515.007 693.768 C 516.265 693.334 517.357 693.117 518.282 693.117 C 519.799 693.117 521.15 693.526 522.334 694.344 C 523 694.815 523.66 695.453 524.314 696.259 C 523.327 697.102 522.606 697.851 522.149 698.508 C 521.323 699.698 520.909 701.012 520.909 702.449 C 520.909 704.023 521.347 705.442 522.223 706.706 C 523.099 707.97 524.098 708.769 525.221 709.104 C 524.752 710.628 523.975 712.222 522.889 713.882 C 521.249 716.372 519.62 717.618 518.004 717.618 C 517.363 717.618 516.475 717.414 515.34 717.004 C 514.217 716.594 513.267 716.391 512.49 716.391 C 511.713 716.391 510.806 716.602 509.77 717.023 C 508.746 717.456 507.914 717.673 507.272 717.673 C 505.335 717.673 503.436 716.026 501.573 712.729 C 499.71 709.469 498.779 706.272 498.779 703.137 C 498.779 700.224 499.488 697.851 500.907 696.017 C 502.338 694.183 504.139 693.266 506.31 693.266 M 517.967 685.942 C 518.016 686.103 518.048 686.246 518.06 686.37 C 518.072 686.494 518.078 686.618 518.078 686.742 C 518.078 687.535 517.893 688.402 517.523 689.344 C 517.153 690.286 516.567 691.16 515.765 691.965 C 515.075 692.647 514.39 693.105 513.711 693.341 C 513.28 693.477 512.626 693.582 511.75 693.657 C 511.775 691.773 512.262 690.143 513.212 688.768 C 514.174 687.392 515.759 686.45 517.967 685.942" fill-rule="evenodd" fill="rgb(0,0,0)" />
            <g id="camera">
                <path d=" M 508.223 265.887 C 509.892 265.887 511.245 264.534 511.245 262.865 C 511.245 261.196 509.892 259.843 508.223 259.843 C 506.554 259.843 505.201 261.196 505.201 262.865 C 505.201 264.534 506.554 265.887 508.223 265.887 Z " fill-rule="evenodd" fill="rgb(20,20,20)" />
                <path d=" M 508.223 264.376 C 509.057 264.376 509.734 263.7 509.734 262.865 C 509.734 262.031 509.057 261.354 508.223 261.354 C 507.388 261.354 506.712 262.031 506.712 262.865 C 506.712 263.7 507.388 264.376 508.223 264.376 Z " fill-rule="evenodd" fill="rgb(25,14,55)" fill-opacity="0.695714614" />
            </g>
        </g>
        <g id="Linux Mint">
            <path d=" M 184.871 620.858 L 184.871 643.08 L 839.131 643.08 L 839.131 620.858 L 184.871 620.858 Z " fill-rule="evenodd" fill="rgb(97,97,97)" />
            <g id="Linux Mint logo">
                <path d=" M 201.051 635.801 C 201.051 634.207 201.051 630.448 201.051 630.448 C 201.051 628.66 199.481 627.21 197.544 627.21 L 195.534 627.21 L 195.534 627.206 L 190.097 627.182 L 190.097 629.135 C 190.097 629.135 190.54 629.135 190.931 629.135 C 191.514 629.135 191.617 629.537 191.617 630.093 L 191.621 633.546 C 191.621 635.334 193.191 636.784 195.126 636.784 L 199.903 636.784 C 200.515 636.784 201.051 636.396 201.051 635.801 L 201.051 635.801 Z " fill-rule="evenodd" fill="rgb(156,204,101)" />
                <path d=" M 200.63 636.322 C 199.408 635.481 198.49 634.446 197.761 633.167 C 196.324 630.516 196.724 628.796 193.103 628.752 C 192.076 628.752 191.269 628.752 190.189 628.752 L 190.189 629.217 Q 190.866 629.162 191.158 629.368 Q 191.434 629.563 191.621 630.177 L 191.621 633.452 C 191.621 635.171 193.267 636.674 195.126 636.674 L 199.732 636.674 C 200.068 636.674 200.424 636.533 200.63 636.322 Z " fill="rgb(139,195,74)" />
                <path d=" M 196.325 629.217 C 195.889 629.217 195.502 629.378 195.191 629.693 C 194.88 630.006 194.716 630.398 194.716 630.84 L 194.716 633.076 L 195.731 633.076 L 195.731 630.84 C 195.731 630.671 195.787 630.538 195.908 630.416 C 196.029 630.294 196.158 630.238 196.325 630.238 C 196.496 630.238 196.623 630.293 196.744 630.416 C 196.866 630.538 196.921 630.671 196.921 630.84 L 196.921 633.076 L 197.936 633.076 L 197.936 630.84 C 197.936 630.671 197.991 630.538 198.112 630.416 C 198.234 630.293 198.361 630.238 198.532 630.238 C 198.699 630.238 198.827 630.294 198.949 630.416 C 199.07 630.538 199.126 630.671 199.126 630.84 L 199.131 633.452 C 199.131 634.01 198.6 634.479 197.918 634.479 L 194.645 634.466 C 194.118 634.466 193.668 633.954 193.668 633.296 L 193.668 628.378 L 192.708 628.378 L 192.708 633.486 C 192.708 634.027 192.907 634.503 193.293 634.887 C 193.623 635.212 194.02 635.405 194.466 635.453 L 194.466 635.471 L 198.111 635.471 C 198.671 635.471 199.163 635.263 199.559 634.859 L 199.561 634.859 C 199.899 634.513 200.096 634.098 200.144 633.631 L 200.141 630.84 C 200.141 630.398 199.977 630.006 199.666 629.693 C 199.355 629.378 198.968 629.217 198.532 629.217 C 198.104 629.217 197.729 629.376 197.427 629.667 C 197.125 629.376 196.753 629.217 196.325 629.217 L 196.325 629.217 Z " fill-rule="evenodd" fill="rgb(0,0,0)" fill-opacity="0.08040203" />
                <path d=" M 196.244 629.243 C 195.808 629.243 195.421 629.405 195.11 629.719 C 194.799 630.033 194.635 630.425 194.635 630.867 L 194.635 633.103 L 195.65 633.103 L 195.65 630.867 C 195.65 630.698 195.706 630.565 195.827 630.443 C 195.948 630.32 196.077 630.265 196.244 630.265 C 196.415 630.265 196.542 630.32 196.663 630.443 C 196.785 630.565 196.84 630.698 196.84 630.867 L 196.84 633.103 L 197.855 633.103 L 197.855 630.867 C 197.855 630.698 197.91 630.565 198.031 630.443 C 198.153 630.32 198.28 630.265 198.451 630.265 C 198.618 630.265 198.746 630.32 198.868 630.443 C 198.989 630.565 199.044 630.698 199.044 630.867 L 199.05 633.479 C 199.05 634.036 198.519 634.506 197.836 634.506 L 194.564 634.493 C 194.037 634.493 193.587 633.981 193.587 633.323 L 193.587 628.404 L 192.627 628.404 L 192.627 633.512 C 192.627 634.054 192.826 634.529 193.212 634.914 C 193.542 635.239 193.939 635.45 194.385 635.498 L 198.03 635.498 C 198.59 635.498 199.082 635.29 199.478 634.886 L 199.48 634.886 C 199.818 634.54 200.015 634.124 200.063 633.657 L 200.059 630.867 C 200.059 630.425 199.896 630.033 199.585 629.719 C 199.274 629.405 198.887 629.243 198.451 629.243 C 198.023 629.243 197.648 629.402 197.346 629.693 C 197.044 629.403 196.672 629.243 196.244 629.243 L 196.244 629.243 Z " fill-rule="evenodd" fill="rgb(255,255,255)" />
                <path d=" M 195.647 634.496 L 195.647 635.498 L 198.031 635.498 C 198.591 635.498 199.08 635.289 199.477 634.885 L 199.481 634.885 C 199.818 634.539 200.015 634.125 200.063 633.657 L 200.063 633.089 L 199.051 633.089 L 199.051 633.478 C 199.051 634.035 198.521 634.503 197.838 634.503 L 195.647 634.496 L 195.647 634.496 Z " fill-rule="evenodd" fill="rgb(197,225,165)" />
                <path d=" M 195.094 637.525 C 192.787 637.525 190.785 635.778 190.785 633.475 L 190.783 630.679 L 190.783 629.966 L 189.32 629.966 L 189.32 626.414 L 195.488 626.443 L 197.418 626.447 C 199.727 626.447 201.727 628.192 201.727 630.497 L 201.727 637.525 L 195.094 637.525 L 195.094 637.525 L 195.094 637.525 L 195.094 637.525 Z  M 200.787 635.64 C 200.787 634.108 200.787 630.497 200.787 630.497 C 200.787 628.779 199.279 627.386 197.418 627.386 L 195.486 627.386 L 195.486 627.382 L 190.262 627.359 L 190.262 629.027 C 190.262 629.027 190.472 629.027 190.847 629.027 C 191.244 629.027 191.722 629.4 191.722 629.948 L 191.727 633.473 C 191.727 635.191 193.235 636.584 195.094 636.584 L 199.684 636.584 C 200.272 636.584 200.787 636.212 200.787 635.64 L 200.787 635.64 Z " fill-rule="evenodd" fill="rgb(255,255,255)" />
            </g>
            <path d=" M 211.434 635.418 L 210.839 635.418 L 208.684 629.793 L 208.649 629.793 L 208.649 629.793 Q 208.71 630.461 208.71 631.381 L 208.71 631.381 L 208.71 635.418 L 208.028 635.418 L 208.028 629.072 L 209.14 629.072 L 211.152 634.306 L 211.186 634.306 L 213.215 629.072 L 214.319 629.072 L 214.319 635.418 L 213.58 635.418 L 213.58 631.329 L 213.58 631.329 Q 213.58 630.626 213.641 629.801 L 213.641 629.801 L 213.606 629.801 L 211.434 635.418 Z  M 217.964 635.504 L 217.964 635.504 L 217.964 635.504 Q 216.908 635.504 216.298 634.862 L 216.298 634.862 L 216.298 634.862 Q 215.687 634.22 215.687 633.078 L 215.687 633.078 L 215.687 633.078 Q 215.687 631.928 216.254 631.251 L 216.254 631.251 L 216.254 631.251 Q 216.821 630.574 217.777 630.574 L 217.777 630.574 L 217.777 630.574 Q 218.672 630.574 219.194 631.162 L 219.194 631.162 L 219.194 631.162 Q 219.715 631.75 219.715 632.714 L 219.715 632.714 L 219.715 633.169 L 216.435 633.169 L 216.435 633.169 Q 216.456 634.007 216.858 634.441 L 216.858 634.441 L 216.858 634.441 Q 217.26 634.875 217.99 634.875 L 217.99 634.875 L 217.99 634.875 Q 218.759 634.875 219.511 634.554 L 219.511 634.554 L 219.511 635.196 L 219.511 635.196 Q 219.129 635.361 218.787 635.433 L 218.787 635.433 L 218.787 635.433 Q 218.446 635.504 217.964 635.504 Z  M 217.769 631.177 L 217.769 631.177 L 217.769 631.177 Q 217.195 631.177 216.854 631.55 L 216.854 631.55 L 216.854 631.55 Q 216.513 631.924 216.452 632.583 L 216.452 632.583 L 218.942 632.583 L 218.942 632.583 Q 218.942 631.902 218.638 631.54 L 218.638 631.54 L 218.638 631.54 Q 218.333 631.177 217.769 631.177 Z  M 224.924 635.418 L 224.203 635.418 L 224.203 632.34 L 224.203 632.34 Q 224.203 631.759 223.938 631.472 L 223.938 631.472 L 223.938 631.472 Q 223.673 631.186 223.108 631.186 L 223.108 631.186 L 223.108 631.186 Q 222.361 631.186 222.013 631.589 L 222.013 631.589 L 222.013 631.589 Q 221.666 631.993 221.666 632.922 L 221.666 632.922 L 221.666 635.418 L 220.945 635.418 L 220.945 630.661 L 221.531 630.661 L 221.648 631.312 L 221.683 631.312 L 221.683 631.312 Q 221.905 630.96 222.305 630.767 L 222.305 630.767 L 222.305 630.767 Q 222.704 630.574 223.195 630.574 L 223.195 630.574 L 223.195 630.574 Q 224.055 630.574 224.49 630.988 L 224.49 630.988 L 224.49 630.988 Q 224.924 631.403 224.924 632.314 L 224.924 632.314 L 224.924 635.418 Z  M 226.354 630.661 L 227.084 630.661 L 227.084 633.747 L 227.084 633.747 Q 227.084 634.328 227.349 634.615 L 227.349 634.615 L 227.349 634.615 Q 227.614 634.901 228.179 634.901 L 228.179 634.901 L 228.179 634.901 Q 228.926 634.901 229.271 634.493 L 229.271 634.493 L 229.271 634.493 Q 229.617 634.085 229.617 633.161 L 229.617 633.161 L 229.617 630.661 L 230.338 630.661 L 230.338 635.418 L 229.743 635.418 L 229.639 634.78 L 229.599 634.78 L 229.599 634.78 Q 229.378 635.131 228.985 635.318 L 228.985 635.318 L 228.985 635.318 Q 228.591 635.504 228.087 635.504 L 228.087 635.504 L 228.087 635.504 Q 227.218 635.504 226.786 635.092 L 226.786 635.092 L 226.786 635.092 Q 226.354 634.68 226.354 633.773 L 226.354 633.773 L 226.354 630.661 Z " fill-rule="evenodd" fill="rgb(250,250,250)" />
            <g id="Show and Hide">
                <rect x="234.978" y="626.414" width="11.123" height="11.111" transform="matrix(1,0,0,1,0,0)" fill="rgb(104,159,56)" />
                <rect x="234.978" y="626.414" width="11.123" height="1.389" transform="matrix(1,0,0,1,0,0)" fill="rgb(207,216,220)" />
                <rect x="236.948" y="634.654" width="7.183" height="2.87" transform="matrix(1,0,0,1,0,0)" fill="rgb(85,139,47)" />
            </g>
            <clipPath id="_clipPath_i8LJwFDAKMjyD3GuV2PFqnsakmmBnckC">
                <rect x="251.607" y="625.303" width="13.347" height="13.333" transform="matrix(1,0,0,1,0,0)" fill="rgb(255,255,255)" />
            </clipPath>
            <g clip-path="url(#_clipPath_i8LJwFDAKMjyD3GuV2PFqnsakmmBnckC)">
                <g id="Group">
                    <rect x="252.741" y="626.435" width="11.079" height="11.068" transform="matrix(1,0,0,1,0,0)" fill="rgb(30,136,229)" />
                    <g id="firefox-quantum">
                        <path d=" M 261.197 627.995 C 260.959 628.272 260.848 628.895 261.089 629.526 C 261.331 630.157 261.7 630.02 261.931 630.664 C 262.235 631.514 262.094 632.655 262.094 632.655 C 262.094 632.655 262.459 633.713 262.714 632.589 C 263.278 630.478 261.197 628.515 261.197 627.995 Z " fill="rgb(255,152,0)" />
                        <path d=" M 258.294 636.759 C 260.73 636.759 262.704 634.777 262.704 632.333 C 262.704 629.888 260.73 627.906 258.296 627.906 C 255.862 627.906 253.889 629.888 253.889 632.333 C 253.884 634.779 255.86 636.759 258.294 636.759 Z " fill="rgb(21,101,192)" />
                        <path d=" M 261.598 635.062 C 261.503 635.129 261.403 635.19 261.299 635.243 C 261.437 635.041 261.564 634.832 261.679 634.618 C 261.773 634.514 261.86 634.413 261.93 634.304 C 261.964 634.25 262.002 634.184 262.043 634.107 C 262.291 633.661 262.564 632.94 262.571 632.199 L 262.571 632.198 C 262.572 632.179 262.572 632.161 262.572 632.143 C 262.573 631.957 262.554 631.771 262.515 631.59 C 262.517 631.604 262.519 631.618 262.52 631.632 C 262.518 631.621 262.516 631.61 262.514 631.599 C 262.518 631.619 262.52 631.639 262.524 631.659 C 262.574 632.088 262.538 632.506 262.358 632.814 C 262.355 632.819 262.352 632.823 262.349 632.827 C 262.443 632.359 262.474 631.841 262.37 631.323 C 262.37 631.323 262.328 631.071 262.019 630.306 C 261.84 629.866 261.523 629.505 261.244 629.242 C 260.998 628.939 260.776 628.736 260.653 628.607 C 260.396 628.337 260.289 628.134 260.245 628.002 C 260.206 627.983 259.717 627.508 259.678 627.49 C 259.464 627.821 258.792 628.856 259.112 629.824 C 259.257 630.262 259.623 630.717 260.007 630.972 C 260.023 630.992 260.235 631.221 260.335 631.738 C 260.439 632.272 260.384 632.689 260.171 633.306 C 259.92 633.847 259.276 634.382 258.673 634.436 C 257.385 634.553 256.914 633.79 256.914 633.79 C 257.374 633.974 257.883 633.936 258.192 633.745 C 258.504 633.552 258.693 633.409 258.846 633.466 C 258.997 633.522 259.117 633.359 259.009 633.19 C 258.839 632.928 258.529 632.793 258.221 632.847 C 257.908 632.898 257.622 633.145 257.213 632.905 C 257.187 632.89 257.161 632.873 257.136 632.855 C 257.109 632.838 257.224 632.882 257.197 632.862 C 257.118 632.819 256.977 632.725 256.94 632.691 C 256.934 632.686 257.002 632.713 256.996 632.707 C 256.613 632.393 256.661 632.18 256.673 632.047 C 256.683 631.94 256.752 631.803 256.869 631.748 C 256.926 631.779 256.961 631.802 256.961 631.802 C 256.961 631.802 256.937 631.753 256.924 631.727 C 256.929 631.725 256.933 631.725 256.937 631.724 C 256.984 631.746 257.086 631.804 257.14 631.839 C 257.21 631.889 257.233 631.933 257.233 631.933 C 257.233 631.933 257.251 631.923 257.238 631.88 C 257.233 631.862 257.211 631.806 257.142 631.749 L 257.146 631.749 C 257.188 631.773 257.227 631.8 257.264 631.831 C 257.284 631.76 257.319 631.685 257.311 631.552 C 257.306 631.459 257.309 631.435 257.292 631.398 C 257.277 631.367 257.3 631.355 257.326 631.387 C 257.322 631.362 257.314 631.338 257.304 631.314 L 257.304 631.312 C 257.336 631.2 257.982 630.91 258.029 630.876 C 258.107 630.822 258.171 630.751 258.219 630.67 C 258.255 630.613 258.282 630.532 258.289 630.411 C 258.293 630.323 258.252 630.264 257.598 630.196 C 257.42 630.178 257.315 630.049 257.255 629.93 C 257.245 629.904 257.234 629.881 257.222 629.858 C 257.212 629.83 257.203 629.802 257.197 629.774 C 257.304 629.467 257.483 629.208 257.747 629.013 C 257.761 629 257.69 629.016 257.704 629.003 C 257.721 628.988 257.83 628.944 257.851 628.934 C 257.876 628.922 257.743 628.865 257.625 628.879 C 257.505 628.893 257.48 628.907 257.416 628.934 C 257.442 628.907 257.527 628.873 257.507 628.873 C 257.378 628.893 257.217 628.968 257.08 629.053 C 257.079 629.038 257.082 629.023 257.088 629.01 C 257.024 629.037 256.867 629.147 256.821 629.239 C 256.823 629.222 256.824 629.204 256.824 629.186 C 256.775 629.227 256.731 629.273 256.693 629.323 L 256.69 629.325 C 256.319 629.176 255.993 629.166 255.716 629.233 C 255.656 629.172 255.626 629.217 255.489 628.915 C 255.479 628.897 255.496 628.933 255.489 628.915 C 255.466 628.856 255.502 628.993 255.489 628.915 C 255.257 629.097 254.953 629.304 254.807 629.45 C 254.805 629.456 254.977 629.401 254.807 629.45 C 254.747 629.467 254.751 629.502 254.742 629.822 C 254.74 629.846 254.742 629.873 254.74 629.895 C 254.623 630.044 254.544 630.169 254.514 630.235 C 254.363 630.494 254.196 630.899 254.035 631.54 C 254.106 631.367 254.192 631.199 254.291 631.04 C 254.157 631.38 254.028 631.914 254.002 632.737 C 254.034 632.567 254.076 632.399 254.127 632.234 C 254.095 632.916 254.213 633.597 254.472 634.229 C 254.564 634.456 254.718 634.799 254.979 635.176 C 255.799 636.038 256.955 636.574 258.236 636.574 C 259.573 636.574 260.773 635.99 261.598 635.062 Z " fill="rgb(13,71,161)" />
                        <path d=" M 260.609 635.688 C 262.227 635.501 262.943 633.835 262.023 633.802 C 261.193 633.776 259.843 635.776 260.609 635.688 Z " fill="rgb(211,47,47)" />
                        <path d=" M 262.14 633.462 C 263.253 632.815 262.963 631.417 262.963 631.417 C 262.963 631.417 262.533 631.915 262.241 632.71 C 261.953 633.497 261.471 633.853 262.14 633.462 Z " fill="rgb(229,57,53)" />
                        <path d=" M 258.606 636.515 C 260.158 637.01 261.492 635.789 260.67 635.381 C 259.922 635.013 257.869 636.281 258.606 636.515 Z " fill="rgb(198,40,40)" />
                        <path d=" M 262.256 634.056 C 262.293 634.002 262.344 633.832 262.39 633.756 C 262.664 633.314 262.665 632.962 262.665 632.954 C 262.831 632.128 262.816 631.79 262.714 631.167 C 262.632 630.665 262.274 629.945 261.963 629.599 C 261.644 629.242 261.869 629.358 261.559 629.097 C 261.288 628.797 261.024 628.499 260.881 628.379 C 259.845 627.514 259.869 627.33 259.888 627.299 C 259.885 627.303 259.88 627.308 259.874 627.315 C 259.862 627.266 259.853 627.225 259.853 627.225 C 259.853 627.225 259.287 627.791 259.167 628.734 C 259.09 629.349 259.32 629.991 259.654 630.401 C 259.828 630.614 260.025 630.807 260.24 630.977 L 260.24 630.977 C 260.493 631.339 260.632 631.785 260.632 632.266 C 260.632 633.469 259.655 634.445 258.449 634.445 C 258.285 634.445 258.121 634.426 257.961 634.39 C 257.393 634.282 257.064 633.995 256.901 633.8 C 256.807 633.689 256.767 633.608 256.767 633.608 C 257.276 633.79 257.84 633.752 258.182 633.563 C 258.527 633.372 258.736 633.23 258.906 633.286 C 259.073 633.341 259.206 633.18 259.087 633.013 C 258.97 632.845 258.665 632.606 258.214 632.672 C 257.868 632.723 257.551 632.968 257.098 632.73 C 257.069 632.715 257.041 632.698 257.014 632.68 C 256.984 632.663 257.111 632.707 257.081 632.687 C 256.993 632.644 256.837 632.551 256.796 632.518 C 256.79 632.512 256.865 632.539 256.858 632.534 C 256.435 632.222 256.487 632.011 256.501 631.878 C 256.511 631.773 256.588 631.637 256.718 631.582 C 256.78 631.613 256.819 631.636 256.819 631.636 C 256.819 631.636 256.793 631.587 256.778 631.561 C 256.783 631.56 256.788 631.56 256.793 631.558 C 256.845 631.58 256.958 631.638 257.018 631.673 C 257.095 631.722 257.12 631.766 257.12 631.766 C 257.12 631.766 257.141 631.756 257.126 631.713 C 257.12 631.695 257.096 631.64 257.019 631.583 L 257.024 631.584 C 257.07 631.607 257.114 631.634 257.155 631.665 C 257.176 631.594 257.215 631.52 257.207 631.388 C 257.202 631.296 257.204 631.271 257.186 631.236 C 257.169 631.205 257.195 631.193 257.223 631.225 C 257.218 631.2 257.21 631.175 257.199 631.152 L 257.199 631.15 C 257.235 631.039 257.95 630.751 258.002 630.718 C 258.086 630.665 258.157 630.595 258.212 630.513 C 258.252 630.456 258.282 630.377 258.289 630.256 C 258.292 630.202 258.275 630.159 258.085 630.117 C 257.972 630.093 257.796 630.069 257.525 630.043 C 257.327 630.026 257.211 629.898 257.145 629.779 C 257.133 629.754 257.121 629.731 257.109 629.708 C 257.097 629.681 257.088 629.653 257.08 629.625 C 257.199 629.315 257.412 629.051 257.689 628.87 C 257.705 628.857 257.626 628.873 257.642 628.86 C 257.66 628.845 257.781 628.801 257.804 628.791 C 257.832 628.78 257.685 628.724 257.554 628.737 C 257.422 628.751 257.393 628.765 257.323 628.792 C 257.352 628.765 257.445 628.731 257.423 628.731 C 257.28 628.751 257.103 628.825 256.951 628.91 C 256.95 628.895 256.953 628.88 256.96 628.867 C 256.889 628.894 256.715 629.003 256.664 629.095 C 256.667 629.077 256.668 629.059 256.667 629.042 C 256.614 629.081 256.565 629.127 256.522 629.177 L 256.52 629.18 C 256.109 629.032 255.747 629.022 255.441 629.088 C 255.375 629.028 255.267 628.937 255.115 628.638 C 255.104 628.62 255.099 628.675 255.091 628.657 C 255.032 628.52 254.996 628.296 255.002 628.141 C 255.002 628.141 254.879 628.196 254.778 628.429 C 254.759 628.471 254.747 628.494 254.735 628.517 C 254.73 628.524 254.748 628.441 254.745 628.445 C 254.727 628.475 254.682 628.517 254.662 628.57 C 254.648 628.61 254.629 628.633 254.616 628.682 L 254.614 628.687 C 254.613 628.672 254.617 628.627 254.614 628.636 C 254.566 628.732 254.525 628.831 254.492 628.932 C 254.437 629.111 254.373 629.355 254.363 629.672 C 254.361 629.696 254.363 629.723 254.361 629.745 C 254.232 629.892 254.144 630.017 254.111 630.082 C 253.944 630.339 253.76 630.741 253.581 631.376 C 253.661 631.203 253.755 631.037 253.865 630.88 C 253.716 631.218 253.573 631.747 253.544 632.563 C 253.58 632.394 253.626 632.227 253.682 632.064 C 253.657 632.608 253.72 633.282 254.064 634.043 C 254.269 634.49 254.739 635.399 255.888 636.108 L 255.888 636.108 C 255.888 636.108 256.279 636.399 256.951 636.617 C 257.001 636.635 257.051 636.653 257.103 636.67 C 257.087 636.663 257.071 636.657 257.056 636.65 C 257.503 636.784 257.968 636.852 258.435 636.852 C 260.175 636.854 260.689 636.155 260.689 636.155 C 260.689 636.155 260.687 636.157 260.683 636.159 Q 260.72 636.124 260.754 636.087 C 260.48 636.346 259.853 636.363 259.619 636.345 C 260.018 636.227 260.281 636.128 260.793 635.933 Q 260.883 635.899 260.977 635.857 C 260.983 635.854 260.99 635.851 260.997 635.847 C 261.009 635.842 261.022 635.836 261.034 635.83 C 261.283 635.713 261.518 635.566 261.732 635.394 C 262.246 634.984 262.358 634.584 262.416 634.321 C 262.408 634.346 262.382 634.405 262.365 634.443 C 262.232 634.726 261.939 634.899 261.62 635.048 C 261.772 634.849 261.913 634.642 262.042 634.428 C 262.146 634.325 262.178 634.164 262.256 634.056 Z " fill="rgb(230,81,0)" />
                        <path d=" M 261.63 635.036 C 261.84 634.805 262.028 634.541 262.17 634.242 C 262.537 633.472 263.104 632.192 262.657 630.855 C 262.305 629.798 261.82 629.22 261.205 628.656 C 260.206 627.739 259.927 627.33 259.927 627.086 C 259.927 627.086 258.774 628.371 259.274 629.71 C 259.774 631.05 260.799 631.001 261.476 632.399 C 262.274 634.043 260.831 635.838 259.638 636.341 C 259.711 636.325 262.29 635.742 262.426 634.268 C 262.423 634.295 262.365 634.703 261.63 635.036 Z " fill="rgb(255,152,0)" />
                        <path d=" M 258.289 630.256 C 258.293 630.169 258.248 630.111 257.527 630.043 C 257.231 630.016 257.117 629.742 257.083 629.627 C 256.977 629.9 256.934 630.187 256.957 630.535 C 256.973 630.762 257.126 631.006 257.199 631.15 C 257.199 631.15 257.216 631.129 257.223 631.121 C 257.361 630.977 257.938 630.759 257.992 630.728 C 258.052 630.691 258.279 630.525 258.289 630.256 Z " fill="rgb(255,143,0)" />
                        <path d=" M 255.117 628.639 C 255.107 628.621 255.101 628.677 255.093 628.659 C 255.034 628.522 254.998 628.3 255.007 628.143 C 255.007 628.143 254.884 628.198 254.783 628.431 C 254.764 628.473 254.752 628.496 254.74 628.519 C 254.735 628.526 254.753 628.442 254.75 628.447 C 254.732 628.477 254.687 628.518 254.667 628.57 C 254.651 628.612 254.634 628.634 254.621 628.687 C 254.617 628.701 254.625 628.624 254.622 628.633 C 254.386 629.088 254.341 629.776 254.366 629.747 C 254.867 629.212 255.442 629.085 255.442 629.085 C 255.381 629.04 255.248 628.91 255.117 628.639 L 255.117 628.639 Z " fill="rgb(211,47,47)" />
                        <path d=" M 261.629 635.042 C 262.663 634.027 263.187 632.794 262.966 631.41 C 262.966 631.41 263.054 632.119 262.719 632.845 C 262.88 632.137 262.899 631.256 262.471 630.344 C 261.9 629.127 260.96 628.487 260.602 628.22 C 260.058 627.815 259.833 627.403 259.829 627.318 C 259.667 627.65 259.175 628.788 259.776 629.769 C 260.339 630.688 261.225 630.96 261.846 631.803 C 262.989 633.355 261.629 635.042 261.629 635.042 Z " fill="rgb(253,216,53)" />
                        <path d=" M 261.48 632.401 C 261.119 631.655 260.667 631.33 260.24 630.977 C 260.29 631.046 260.302 631.071 260.33 631.116 C 260.706 631.516 261.26 632.492 260.857 633.717 C 260.1 636.023 257.071 634.937 256.753 634.632 C 256.882 635.967 259.118 636.606 260.574 635.74 C 261.403 634.957 262.073 633.625 261.48 632.401 Z " fill="rgb(255,111,0)" />
                    </g>
                </g>
            </g>
            <g id="Terminal">
                <rect x="270.571" y="626.414" width="11.123" height="11.111" transform="matrix(1,0,0,1,0,0)" fill="rgb(33,33,33)" />
                <path d=" M 270.571 626.414 L 281.693 626.414 L 281.693 637.525 L 270.571 637.525 L 270.571 626.414 Z  M 271.227 627.08 L 281.015 627.08 L 281.015 636.858 L 271.227 636.858 L 271.227 627.08 Z " fill-rule="evenodd" fill="rgb(250,250,250)" />
                <path d=" M 273.674 630.014 C 273.451 629.925 273.362 629.658 273.451 629.436 C 273.54 629.214 273.807 629.125 274.03 629.214 L 278.873 631.413 C 279.171 631.548 279.176 631.778 278.884 631.927 L 273.985 634.414 C 273.807 634.547 273.54 634.458 273.407 634.236 C 273.318 634.014 273.362 633.747 273.585 633.614 L 277.19 631.792 C 277.287 631.743 277.286 631.666 277.187 631.62 L 273.674 630.014 Z " fill="rgb(250,250,250)" />
            </g>
            <clipPath id="_clipPath_2RkfrzNDTYEMD0AWk93Kh5rJNY8l1kmx">
                <rect x="287.244" y="625.599" width="13.347" height="13.333" transform="matrix(1,0,0,1,0,0)" fill="rgb(255,255,255)" />
            </clipPath>
            <g clip-path="url(#_clipPath_2RkfrzNDTYEMD0AWk93Kh5rJNY8l1kmx)">
                <g id="Group">
                    <path d=" M 288.378 626.732 L 288.378 637.799 L 299.457 637.799 L 299.457 626.732 L 288.378 626.732 Z " fill-rule="evenodd" fill="rgb(21,101,192)" />
                    <path d=" M 291.963 628.555 Q 290.969 628.538 288.378 628.545 L 288.378 631.016 L 299.457 631.016 L 299.457 630.312 Q 296.14 630.336 294.677 630.318 C 293.214 630.299 292.956 628.572 291.963 628.555 Z " fill-rule="evenodd" fill="rgb(30,136,229)" />
                    <path d=" M 291.754 628.958 Q 290.76 628.941 288.378 628.949 L 288.378 637.799 L 299.457 637.799 L 299.457 630.716 Q 295.944 630.74 294.481 630.722 C 293.018 630.703 292.748 628.975 291.754 628.958 Z " fill-rule="evenodd" fill="rgb(100,181,246)" />
                </g>
            </g>
            <g id="Settings">
                <path d=" M 817.083 629.88 L 831.409 629.88 L 831.409 638.814 L 817.083 638.814 L 817.083 629.88 Z  M 817.75 630.547 L 830.742 630.547 L 830.742 638.147 L 817.75 638.147 L 817.75 630.547 Z " fill-rule="evenodd" fill="rgb(250,250,250)" />
                <rect x="813.791" y="625.997" width="13.18" height="7.778" transform="matrix(1,0,0,1,0,0)" fill="rgb(97,97,97)" />
                <path d=" M 813.257 625.436 L 827.538 625.436 L 827.538 634.369 L 813.257 634.369 L 813.257 625.436 Z  M 813.924 626.103 L 826.871 626.103 L 826.871 633.703 L 813.924 633.703 L 813.924 626.103 Z " fill-rule="evenodd" fill="rgb(250,250,250)" />
            </g>
            <path d=" M 789.579 634.802 L 789.579 635.47 L 785.403 635.47 L 785.403 634.849 L 787.076 633.17 L 787.076 633.17 Q 787.841 632.397 788.084 632.067 L 788.084 632.067 L 788.084 632.067 Q 788.327 631.737 788.449 631.425 L 788.449 631.425 L 788.449 631.425 Q 788.571 631.112 788.571 630.752 L 788.571 630.752 L 788.571 630.752 Q 788.571 630.244 788.262 629.947 L 788.262 629.947 L 788.262 629.947 Q 787.954 629.65 787.406 629.65 L 787.406 629.65 L 787.406 629.65 Q 787.011 629.65 786.657 629.78 L 786.657 629.78 L 786.657 629.78 Q 786.303 629.91 785.868 630.253 L 785.868 630.253 L 785.486 629.763 L 785.486 629.763 Q 786.364 629.033 787.398 629.033 L 787.398 629.033 L 787.398 629.033 Q 788.293 629.033 788.801 629.491 L 788.801 629.491 L 788.801 629.491 Q 789.309 629.949 789.309 630.722 L 789.309 630.722 L 789.309 630.722 Q 789.309 631.325 788.97 631.915 L 788.97 631.915 L 788.97 631.915 Q 788.631 632.506 787.702 633.408 L 787.702 633.408 L 786.311 634.767 L 786.311 634.802 L 789.579 634.802 Z  M 794.701 632.289 L 794.701 632.289 L 794.701 632.289 Q 794.701 633.934 794.182 634.745 L 794.182 634.745 L 794.182 634.745 Q 793.663 635.557 792.594 635.557 L 792.594 635.557 L 792.594 635.557 Q 791.569 635.557 791.034 634.726 L 791.034 634.726 L 791.034 634.726 Q 790.5 633.895 790.5 632.289 L 790.5 632.289 L 790.5 632.289 Q 790.5 630.631 791.017 629.828 L 791.017 629.828 L 791.017 629.828 Q 791.534 629.025 792.594 629.025 L 792.594 629.025 L 792.594 629.025 Q 793.628 629.025 794.165 629.862 L 794.165 629.862 L 794.165 629.862 Q 794.701 630.7 794.701 632.289 Z  M 791.23 632.289 L 791.23 632.289 L 791.23 632.289 Q 791.23 633.673 791.556 634.305 L 791.556 634.305 L 791.556 634.305 Q 791.881 634.936 792.594 634.936 L 792.594 634.936 L 792.594 634.936 Q 793.315 634.936 793.639 634.296 L 793.639 634.296 L 793.639 634.296 Q 793.963 633.656 793.963 632.289 L 793.963 632.289 L 793.963 632.289 Q 793.963 630.922 793.639 630.286 L 793.639 630.286 L 793.639 630.286 Q 793.315 629.65 792.594 629.65 L 792.594 629.65 L 792.594 629.65 Q 791.881 629.65 791.556 630.277 L 791.556 630.277 L 791.556 630.277 Q 791.23 630.904 791.23 632.289 Z  M 795.805 635.01 L 795.805 635.01 L 795.805 635.01 Q 795.805 634.719 795.937 634.57 L 795.937 634.57 L 795.937 634.57 Q 796.07 634.42 796.317 634.42 L 796.317 634.42 L 796.317 634.42 Q 796.569 634.42 796.711 634.57 L 796.711 634.57 L 796.711 634.57 Q 796.852 634.719 796.852 635.01 L 796.852 635.01 L 796.852 635.01 Q 796.852 635.292 796.708 635.444 L 796.708 635.444 L 796.708 635.444 Q 796.565 635.596 796.317 635.596 L 796.317 635.596 L 796.317 635.596 Q 796.096 635.596 795.95 635.459 L 795.95 635.459 L 795.95 635.459 Q 795.805 635.323 795.805 635.01 Z  M 795.805 631.178 L 795.805 631.178 L 795.805 631.178 Q 795.805 630.592 796.317 630.592 L 796.317 630.592 L 796.317 630.592 Q 796.852 630.592 796.852 631.178 L 796.852 631.178 L 796.852 631.178 Q 796.852 631.46 796.708 631.612 L 796.708 631.612 L 796.708 631.612 Q 796.565 631.764 796.317 631.764 L 796.317 631.764 L 796.317 631.764 Q 796.096 631.764 795.95 631.627 L 795.95 631.627 L 795.95 631.627 Q 795.805 631.49 795.805 631.178 Z  M 801.883 630.618 L 801.883 630.618 L 801.883 630.618 Q 801.883 631.225 801.542 631.612 L 801.542 631.612 L 801.542 631.612 Q 801.201 631.998 800.575 632.128 L 800.575 632.128 L 800.575 632.163 L 800.575 632.163 Q 801.34 632.258 801.709 632.649 L 801.709 632.649 L 801.709 632.649 Q 802.079 633.04 802.079 633.673 L 802.079 633.673 L 802.079 633.673 Q 802.079 634.58 801.449 635.069 L 801.449 635.069 L 801.449 635.069 Q 800.819 635.557 799.659 635.557 L 799.659 635.557 L 799.659 635.557 Q 799.155 635.557 798.735 635.481 L 798.735 635.481 L 798.735 635.481 Q 798.316 635.405 797.921 635.214 L 797.921 635.214 L 797.921 634.528 L 797.921 634.528 Q 798.333 634.732 798.8 634.839 L 798.8 634.839 L 798.8 634.839 Q 799.267 634.945 799.685 634.945 L 799.685 634.945 L 799.685 634.945 Q 801.331 634.945 801.331 633.656 L 801.331 633.656 L 801.331 633.656 Q 801.331 632.501 799.515 632.501 L 799.515 632.501 L 798.889 632.501 L 798.889 631.881 L 799.524 631.881 L 799.524 631.881 Q 800.267 631.881 800.701 631.553 L 800.701 631.553 L 800.701 631.553 Q 801.136 631.225 801.136 630.644 L 801.136 630.644 L 801.136 630.644 Q 801.136 630.179 800.816 629.915 L 800.816 629.915 L 800.816 629.915 Q 800.497 629.65 799.95 629.65 L 799.95 629.65 L 799.95 629.65 Q 799.533 629.65 799.163 629.763 L 799.163 629.763 L 799.163 629.763 Q 798.794 629.876 798.32 630.179 L 798.32 630.179 L 797.955 629.693 L 797.955 629.693 Q 798.346 629.385 798.857 629.209 L 798.857 629.209 L 798.857 629.209 Q 799.367 629.033 799.932 629.033 L 799.932 629.033 L 799.932 629.033 Q 800.858 629.033 801.37 629.457 L 801.37 629.457 L 801.37 629.457 Q 801.883 629.88 801.883 630.618 Z  M 807.244 632.289 L 807.244 632.289 L 807.244 632.289 Q 807.244 633.934 806.725 634.745 L 806.725 634.745 L 806.725 634.745 Q 806.206 635.557 805.137 635.557 L 805.137 635.557 L 805.137 635.557 Q 804.112 635.557 803.577 634.726 L 803.577 634.726 L 803.577 634.726 Q 803.043 633.895 803.043 632.289 L 803.043 632.289 L 803.043 632.289 Q 803.043 630.631 803.56 629.828 L 803.56 629.828 L 803.56 629.828 Q 804.077 629.025 805.137 629.025 L 805.137 629.025 L 805.137 629.025 Q 806.171 629.025 806.708 629.862 L 806.708 629.862 L 806.708 629.862 Q 807.244 630.7 807.244 632.289 Z  M 803.773 632.289 L 803.773 632.289 L 803.773 632.289 Q 803.773 633.673 804.099 634.305 L 804.099 634.305 L 804.099 634.305 Q 804.425 634.936 805.137 634.936 L 805.137 634.936 L 805.137 634.936 Q 805.858 634.936 806.182 634.296 L 806.182 634.296 L 806.182 634.296 Q 806.506 633.656 806.506 632.289 L 806.506 632.289 L 806.506 632.289 Q 806.506 630.922 806.182 630.286 L 806.182 630.286 L 806.182 630.286 Q 805.858 629.65 805.137 629.65 L 805.137 629.65 L 805.137 629.65 Q 804.425 629.65 804.099 630.277 L 804.099 630.277 L 804.099 630.277 Q 803.773 630.904 803.773 632.289 Z " fill-rule="evenodd" fill="rgb(250,250,250)" />
            <path d=" M 778.965 630.25 L 778.714 630.501 C 779.327 630.926 779.691 631.621 779.691 632.367 C 779.691 633.113 779.327 633.808 778.714 634.233 L 778.965 634.485 C 779.64 633.991 780.041 633.208 780.041 632.368 C 780.04 631.528 779.64 630.744 778.965 630.25 L 778.965 630.25 Z  M 777.714 631.5 L 777.415 631.799 C 777.728 631.799 777.984 632.054 777.984 632.367 C 777.984 632.68 777.728 632.935 777.415 632.935 L 777.714 633.234 C 778.084 633.106 778.333 632.757 778.334 632.366 C 778.334 631.966 778.074 631.624 777.714 631.5 L 777.714 631.5 Z  M 778.335 630.88 L 778.078 631.136 C 778.533 631.379 778.817 631.853 778.815 632.368 C 778.815 632.887 778.533 633.355 778.078 633.601 L 778.335 633.857 C 778.851 633.54 779.165 632.983 779.165 632.37 C 779.165 631.754 778.85 631.197 778.335 630.88 L 778.335 630.88 Z  M 773.651 631.056 L 774.701 631.056 L 774.701 633.68 L 773.651 633.68 L 773.651 631.056 Z  M 774.876 633.731 L 776.801 635.654 L 776.801 629.08 L 774.876 631.005 L 774.876 633.731 L 774.876 633.731 Z " fill="rgb(250,250,250)" />
        </g>
    </g>
</svg>