<?xml version="1.0" standalone="no"?>
<!-- Generator: Gravit.io -->
<svg xmlns="http://www.w3.org/2000/svg" xmlns:xlink="http://www.w3.org/1999/xlink" style="isolation:isolate" viewBox="0 0 1024 1024" width="1024" height="1024">
    <defs>
        <clipPath id="_clipPath_5ZNpQraayi1qnrs6tHdpW9gOG1ROogj6">
            <rect width="1024" height="1024" />
        </clipPath>
    </defs>
    <g clip-path="url(#_clipPath_5ZNpQraayi1qnrs6tHdpW9gOG1ROogj6)">
        <rect x="85.333" y="85.897" width="850" height="850" transform="matrix(1,0,0,1,0,0)" fill="rgb(144,164,174)" />
        <rect x="86" y="709" width="850" height="229.897" transform="matrix(1,0,0,1,0,0)" fill="rgb(84,110,122)" />
        <g id="macbook pro retina">
            <g id="monitor">
                <path d=" M 226.991 382.245 L 226.991 737.76 L 798.435 737.76 L 798.435 382.245 C 798.435 367.845 786.745 356.154 772.345 356.154 L 253.082 356.154 C 238.682 356.154 226.991 367.845 226.991 382.245 Z " fill-rule="evenodd" fill="rgb(18,18,18)" />
                <mask id="_mask_dltyuAGHWlAIBlLd9J7qFpc83tjr4i1g">
                    <path d=" M 226.991 381.281 L 226.991 744.505 L 798.435 744.505 L 798.435 381.281 C 798.435 366.882 786.745 355.191 772.345 355.191 L 253.082 355.191 C 238.682 355.191 226.991 366.882 226.991 381.281 Z " fill-rule="evenodd" fill="white" stroke="none" />
                </mask>
                <path d=" M 226.991 381.281 L 226.991 744.505 L 798.435 744.505 L 798.435 381.281 C 798.435 366.882 786.745 355.191 772.345 355.191 L 253.082 355.191 C 238.682 355.191 226.991 366.882 226.991 381.281 Z " fill-rule="evenodd" fill="none" mask="url(#_mask_dltyuAGHWlAIBlLd9J7qFpc83tjr4i1g)" vector-effect="non-scaling-stroke" stroke-width="3.855" stroke="rgb(197,197,197)" stroke-linejoin="miter" stroke-linecap="square" stroke-miterlimit="10" />
                <path d=" M 245.3 380.246 L 245.3 715.596 L 781.09 715.596 L 781.09 380.246 L 245.3 380.246 Z " fill-rule="evenodd" fill="rgb(40,40,40)" />
            </g>
            <g id="camera">
                <path d=" M 513.195 374.464 C 515.324 374.464 517.05 372.738 517.05 370.609 C 517.05 368.48 515.324 366.754 513.195 366.754 C 511.066 366.754 509.34 368.48 509.34 370.609 C 509.34 372.738 511.066 374.464 513.195 374.464 Z " fill-rule="evenodd" fill="rgb(31,31,31)" />
                <path d=" M 513.195 372.536 C 514.259 372.536 515.122 371.673 515.122 370.609 C 515.122 369.545 514.259 368.682 513.195 368.682 C 512.131 368.682 511.268 369.545 511.268 370.609 C 511.268 371.673 512.131 372.536 513.195 372.536 Z " fill-rule="evenodd" fill="rgb(16,52,112)" />
            </g>
            <g id="bottom">
                <path d=" M 163 750.886 Q 170.301 758.179 190.976 760.105 Q 211.652 762.031 834.448 760.105 Q 851.602 758.815 862.729 751.204 Q 873.856 743.592 179.213 751.204 L 163 750.886 Z " fill-rule="evenodd" fill="rgb(154,154,154)" />
                <path d=" M 163.39 737.76 L 163.39 751.251 L 863 751.251 L 863 737.76 L 163.39 737.76 Z " fill-rule="evenodd" fill="rgb(204,204,204)" />
                <path d=" M 463.497 738.206 L 465.951 741.778 C 467.723 744.358 471.704 746.453 474.834 746.453 L 550.36 746.453 C 553.49 746.453 557.501 744.379 559.311 741.825 L 561.874 738.206" fill-rule="evenodd" fill="rgb(216,216,216)" />
            </g>
        </g>
        <g id="Windows">
            <path d=" M 245.302 698.666 L 780.889 698.666 L 780.889 716.11 L 245.302 716.11 L 245.302 698.666 Z " fill="rgb(0,0,0)" />
            <path d=" M 245.383 698.666 L 262.827 698.666 L 262.827 716.11 L 245.383 716.11 L 245.383 698.666 Z " fill="rgb(33,33,33)" />
            <g id="windows logo">
                <path d=" M 253.911 709.863 L 253.911 707.582 L 257.012 707.582 L 257.012 710.295 L 253.911 709.862 L 253.911 709.863 Z  M 253.911 704.914 L 257.012 704.48 L 257.012 707.194 L 253.911 707.194 L 253.911 704.914 L 253.911 704.914 Z  M 251.197 709.484 L 251.197 707.582 L 253.523 707.582 L 253.523 709.808 L 251.197 709.484 L 251.197 709.484 Z  M 251.197 707.194 L 251.197 705.292 L 253.523 704.968 L 253.523 707.194 L 251.197 707.194 L 251.197 707.194 Z " fill-rule="evenodd" fill="rgb(250,250,250)" />
            </g>
            <mask id="_mask_c886L0fRM68ihHdBHFERJnWW0o0SAoMI" x="-200%" y="-200%" width="400%" height="400%">
                <rect x="0" y="0" width="100%" height="100%" style="fill:white;" />
                <path d=" M 268.642 707.388 C 268.642 705.462 270.205 703.899 272.131 703.899 C 274.056 703.899 275.62 705.462 275.62 707.388 C 275.62 709.313 274.056 710.877 272.131 710.877 C 270.205 710.877 268.642 709.313 268.642 707.388 Z " fill="black" stroke="none" />
            </mask>
            <path d=" M 268.642 707.388 C 268.642 705.462 270.205 703.899 272.131 703.899 C 274.056 703.899 275.62 705.462 275.62 707.388 C 275.62 709.313 274.056 710.877 272.131 710.877 C 270.205 710.877 268.642 709.313 268.642 707.388 Z " fill="none" mask="url(#_mask_c886L0fRM68ihHdBHFERJnWW0o0SAoMI)" vector-effect="non-scaling-stroke" stroke-width="1.861" stroke="rgb(250,250,250)" stroke-linejoin="miter" stroke-linecap="square" stroke-miterlimit="3" />
            <g id="preview and hide">
                <mask id="_mask_mjZNKY0mlMQrqh0bg9VMl4JksKzcx8J8" x="-200%" y="-200%" width="400%" height="400%">
                    <rect x="0" y="0" width="100%" height="100%" style="fill:white;" />
                    <rect x="283.179" y="705.062" width="9.885" height="4.652" transform="matrix(1,0,0,1,0,0)" fill="black" stroke="none" />
                </mask>
                <rect x="283.179" y="705.062" width="9.885" height="4.652" transform="matrix(1,0,0,1,0,0)" fill="rgb(0,0,0)" mask="url(#_mask_mjZNKY0mlMQrqh0bg9VMl4JksKzcx8J8)" vector-effect="non-scaling-stroke" stroke-width="1.163" stroke="rgb(250,250,250)" stroke-linejoin="miter" stroke-linecap="square" stroke-miterlimit="3" />
                <mask id="_mask_gVwjHeEKd9OQY7LFCJTnESZaHkVEcP1m" x="-200%" y="-200%" width="400%" height="400%">
                    <rect x="0" y="0" width="100%" height="100%" style="fill:white;" />
                    <rect x="284.633" y="703.899" width="6.978" height="6.978" transform="matrix(1,0,0,1,0,0)" fill="black" stroke="none" />
                </mask>
                <rect x="284.633" y="703.899" width="6.978" height="6.978" transform="matrix(1,0,0,1,0,0)" fill="rgb(0,0,0)" mask="url(#_mask_gVwjHeEKd9OQY7LFCJTnESZaHkVEcP1m)" vector-effect="non-scaling-stroke" stroke-width="1.163" stroke="rgb(250,250,250)" stroke-linejoin="miter" stroke-linecap="square" stroke-miterlimit="3" />
            </g>
            <g id="Edge">
                <path d=" M 308.654 704.195 C 308.642 704.178 308.63 704.161 308.618 704.145 C 307.719 702.937 306.285 702.154 304.669 702.154 C 302.055 702.154 299.917 704.201 299.751 706.786 C 300.149 706.06 301.968 704.144 304.383 704.144 C 306.798 704.144 306.573 706.393 306.573 706.393 L 302.789 706.393 C 302.859 705.507 303.506 704.749 303.506 704.749 C 300.833 705.823 300.953 708.53 300.953 708.53 C 301.018 709.795 301.438 710.67 301.995 711.274 C 303.316 712.705 305.413 712.62 305.413 712.62 C 307.3 712.62 308.573 711.869 308.573 711.869 L 308.573 709.677 C 308.573 709.677 307.48 710.437 305.683 710.466 C 302.688 710.407 302.832 708.233 302.832 708.233 L 309.469 708.233 L 309.47 708.233 L 309.47 707.069 C 309.47 707.069 309.529 705.415 308.654 704.195 L 308.654 704.195 Z " fill="rgb(33,150,243)" />
            </g>
            <g id="windows explorer">
                <path d=" M 315.165 703.292 L 326.975 703.292 C 327.312 703.292 327.585 703.565 327.585 703.902 L 327.585 711.468 C 327.585 711.804 327.312 712.077 326.975 712.077 L 315.775 712.068 C 315.439 712.068 315.165 711.795 315.165 711.458 L 315.165 703.292 Z " fill="rgb(255,224,130)" />
                <path d=" M 315.951 702.154 L 319.836 702.154 C 320.105 702.154 320.469 702.317 320.649 702.518 L 321.289 703.235 L 320.67 703.93 C 320.491 704.13 320.127 704.294 319.857 704.294 L 315.165 704.301 L 315.161 702.947 C 315.159 702.51 315.513 702.154 315.951 702.154 Z " fill="rgb(255,202,40)" />
                <rect x="315.888" y="702.92" width="2.647" height="0.601" transform="matrix(1,0,0,1,0,0)" fill="rgb(250,250,250)" />
                <rect x="315.888" y="702.92" width="0.601" height="0.601" transform="matrix(1,0,0,1,0,0)" fill="rgb(66,165,245)" />
                <path d=" M 318.342 707.413 L 324.438 707.413 C 325.077 707.413 325.596 707.932 325.596 708.572 L 325.596 712.607 L 323.421 712.621 L 323.45 709.473 L 319.329 709.473 L 319.315 712.607 L 317.183 712.607 L 317.183 708.572 C 317.183 707.932 317.702 707.413 318.342 707.413 Z " fill="rgb(66,165,245)" />
            </g>
            <g id="windows store">
                <path d=" M 342.472 705.106 L 343.398 705.439 L 343.398 711.463 L 342.483 711.765 L 335.862 710.838 L 335.862 706.031 L 342.472 705.106 Z  M 342.56 704.248 L 335.025 705.303 L 335.025 711.566 L 342.56 712.621 L 344.235 712.069 L 344.235 704.85 L 342.56 704.248 Z " fill="rgb(250,250,250)" />
                <path d=" M 335.551 711.126 L 335.551 705.767 L 342.25 704.874 L 343.589 705.32 L 343.589 711.572 L 342.25 712.019 L 335.551 711.126 Z " fill="rgb(250,250,250)" />
                <path d=" M 338.374 708.016 L 338.374 706.526 L 336.699 706.76 L 336.699 708.016 L 338.374 708.016 Z " fill="rgb(0,0,0)" />
                <path d=" M 338.793 708.016 L 340.886 708.016 L 340.886 706.174 L 338.793 706.467 L 338.793 708.016 Z " fill="rgb(0,0,0)" />
                <path d=" M 338.793 708.435 L 338.793 709.984 L 340.886 710.277 L 340.886 708.435 L 338.793 708.435 Z " fill="rgb(0,0,0)" />
                <path d=" M 338.374 708.435 L 336.699 708.435 L 336.699 709.691 L 338.374 709.925 L 338.374 708.435 Z " fill="rgb(0,0,0)" />
                <path d=" M 337.539 705.182 L 336.699 705.182 L 336.699 703.691 C 336.699 703.691 336.699 703.691 336.699 703.691 C 336.699 703.15 337.047 702.668 337.556 702.498 L 338.427 702.208 L 338.726 702.163 C 338.749 702.159 338.771 702.154 338.793 702.154 C 339.057 702.154 339.311 702.239 339.526 702.391 C 339.856 702.628 340.048 703.007 340.048 703.414 C 340.048 703.414 340.048 703.414 340.048 703.414 L 340.048 703.414 L 340.048 705.182 L 340.048 705.182 L 339.213 705.182 L 339.213 703.414 L 339.213 703.414 C 339.213 703.275 339.146 703.15 339.039 703.074 C 338.972 703.025 338.901 702.998 338.82 702.994 L 338.628 703.025 L 337.824 703.293 C 337.824 703.293 337.824 703.293 337.824 703.293 C 337.655 703.351 337.539 703.512 337.539 703.691" fill="rgb(250,250,250)" />
                <path d=" M 341.723 704.669 L 340.888 704.669 L 340.888 703.829 C 340.888 703.695 340.821 703.57 340.714 703.49 C 340.647 703.445 340.575 703.418 340.495 703.414 L 340.303 703.445 L 339.762 703.624 L 339.499 702.829 L 340.102 702.628 L 340.401 702.579 C 340.423 702.579 340.446 702.574 340.468 702.574 C 340.731 702.574 340.986 702.659 341.2 702.811 C 341.531 703.048 341.723 703.427 341.723 703.829 C 341.723 703.829 341.723 703.829 341.723 703.829 L 341.723 704.669 Z " fill="rgb(250,250,250)" />
            </g>
            <g id="wifi">
                <path d=" M 694.342 711.297 C 694.342 710.495 694.447 709.722 694.655 708.981 C 694.858 708.251 695.154 707.551 695.535 706.897 C 695.912 706.252 696.37 705.658 696.898 705.131 C 697.426 704.602 698.019 704.144 698.664 703.768 C 699.318 703.386 700.018 703.09 700.748 702.887 C 701.502 702.678 702.281 702.573 703.064 702.575 L 703.064 703.302 C 702.33 703.302 701.623 703.398 700.944 703.589 C 700.276 703.775 699.635 704.046 699.036 704.395 C 698.444 704.741 697.899 705.162 697.414 705.647 C 696.929 706.132 696.508 706.677 696.163 707.269 C 695.814 707.868 695.543 708.509 695.356 709.176 C 695.164 709.867 695.067 710.58 695.069 711.297 L 694.343 711.297 L 694.342 711.297 Z " fill-rule="evenodd" fill="rgb(35,31,32)" />
                <path d=" M 696.523 711.297 C 696.523 710.695 696.6 710.115 696.756 709.557 C 696.907 709.009 697.128 708.483 697.415 707.992 C 697.697 707.51 698.041 707.065 698.437 706.669 C 698.832 706.273 699.277 705.93 699.76 705.647 C 700.25 705.361 700.776 705.139 701.324 704.988 C 701.891 704.832 702.477 704.754 703.065 704.756 L 703.065 705.482 C 702.544 705.481 702.025 705.55 701.523 705.69 C 700.553 705.959 699.668 706.476 698.957 707.189 C 698.604 707.541 698.298 707.937 698.046 708.367 C 697.79 708.802 697.593 709.269 697.458 709.755 C 697.318 710.257 697.248 710.776 697.25 711.297 L 696.523 711.297 L 696.523 711.297 Z " fill-rule="evenodd" fill="rgb(238,238,238)" />
                <path d=" M 698.703 711.297 C 698.703 710.896 698.755 710.51 698.859 710.139 C 698.961 709.774 699.109 709.424 699.299 709.097 C 699.488 708.775 699.717 708.478 699.981 708.214 C 700.245 707.95 700.541 707.721 700.864 707.532 C 701.191 707.342 701.541 707.194 701.906 707.093 C 702.283 706.988 702.673 706.935 703.064 706.936 L 703.064 707.663 C 702.731 707.663 702.41 707.707 702.099 707.794 C 701.789 707.881 701.499 708.003 701.231 708.16 C 700.691 708.475 700.243 708.924 699.927 709.463 C 699.769 709.736 699.646 710.028 699.561 710.332 C 699.474 710.642 699.43 710.964 699.43 711.298 L 698.703 711.298 L 698.703 711.297 Z " fill-rule="evenodd" fill="rgb(238,238,238)" />
                <path d=" M 701.974 709.117 C 702.264 709.116 702.541 709.231 702.746 709.435 C 702.95 709.64 703.065 709.918 703.064 710.207 C 703.065 710.496 702.951 710.774 702.746 710.979 C 702.647 711.078 702.529 711.157 702.4 711.212 C 702.268 711.269 702.125 711.297 701.974 711.297 C 701.685 711.298 701.407 711.183 701.202 710.979 C 701.103 710.879 701.024 710.762 700.969 710.633 C 700.912 710.498 700.883 710.353 700.884 710.207 C 700.883 709.918 700.998 709.64 701.202 709.435 C 701.302 709.336 701.419 709.257 701.548 709.202 C 701.681 709.145 701.823 709.117 701.974 709.117 Z " fill-rule="evenodd" fill="rgb(238,238,238)" />
            </g>
            <g id="sound">
                <path d=" M 715.221 705.643 C 715.456 705.871 715.642 706.143 715.77 706.444 C 715.899 706.746 715.963 707.06 715.963 707.388 C 715.963 707.715 715.899 708.03 715.77 708.332 C 715.642 708.633 715.456 708.905 715.221 709.132 L 714.776 708.699 C 714.954 708.525 715.091 708.325 715.187 708.098 C 715.282 707.874 715.331 707.632 715.33 707.388 C 715.331 707.144 715.282 706.902 715.187 706.677 C 715.092 706.451 714.952 706.247 714.776 706.077 L 715.221 705.643 L 715.221 705.643 Z " fill-rule="evenodd" fill="rgb(250,250,250)" />
                <path d=" M 716.566 704.333 C 716.772 704.533 716.957 704.753 717.118 704.99 C 717.438 705.46 717.661 705.988 717.776 706.545 C 717.891 707.102 717.891 707.676 717.776 708.233 C 717.718 708.51 717.634 708.78 717.523 709.04 C 717.413 709.301 717.277 709.551 717.118 709.785 C 716.957 710.022 716.772 710.243 716.566 710.443 L 716.116 710.004 C 716.468 709.663 716.748 709.255 716.94 708.804 C 717.131 708.356 717.23 707.874 717.229 707.387 C 717.23 706.9 717.131 706.418 716.94 705.971 C 716.748 705.519 716.468 705.111 716.116 704.77 L 716.566 704.333 L 716.566 704.333 Z " fill-rule="evenodd" fill="rgb(250,250,250)" />
                <path d=" M 717.907 703.027 C 718.201 703.313 718.465 703.627 718.696 703.966 C 718.925 704.304 719.119 704.658 719.277 705.029 C 719.435 705.4 719.554 705.784 719.635 706.181 C 719.716 706.578 719.756 706.98 719.756 707.388 C 719.756 707.796 719.716 708.198 719.635 708.595 C 719.555 708.99 719.435 709.376 719.277 709.747 C 719.118 710.119 718.923 710.475 718.696 710.809 C 718.465 711.148 718.201 711.463 717.907 711.749 L 717.462 711.315 C 717.726 711.058 717.964 710.775 718.171 710.47 C 718.582 709.867 718.87 709.189 719.017 708.475 C 719.165 707.758 719.165 707.018 719.017 706.301 C 718.87 705.587 718.582 704.909 718.171 704.306 C 717.964 704.001 717.726 703.718 717.462 703.46 L 717.907 703.027 Z " fill-rule="evenodd" fill="rgb(35,31,32)" />
                <path d=" M 712.98 703.687 L 713.431 703.687 L 713.431 711.089 L 712.98 711.089 L 711.081 709.238 L 709.633 709.238 L 709.633 705.537 L 711.081 705.537 L 712.981 703.687 L 712.98 703.687 Z  M 712.798 704.742 L 711.349 706.154 L 710.265 706.154 L 710.265 708.621 L 711.349 708.621 L 712.798 710.033 L 712.798 704.742 Z " fill-rule="evenodd" fill="rgb(250,250,250)" />
            </g>
            <g id="notifications">
                <path d=" M 727.252 703.027 L 737.954 703.027 L 737.954 710.35 L 733.949 710.35 L 732.603 711.749 L 731.422 710.35 L 727.252 710.35 L 727.252 703.027 L 727.252 703.027 Z " fill-rule="evenodd" fill="rgb(238,238,238)" />
                <rect x="728.027" y="704.001" width="9.249" height="0.761" transform="matrix(1,0,0,1,0,0)" fill="rgb(33,33,33)" />
                <rect x="728.027" y="705.523" width="9.249" height="0.761" transform="matrix(1,0,0,1,0,0)" fill="rgb(33,33,33)" />
                <rect x="728.027" y="707.045" width="9.249" height="0.761" transform="matrix(1,0,0,1,0,0)" fill="rgb(33,33,33)" />
                <rect x="728.027" y="708.567" width="9.249" height="0.761" transform="matrix(1,0,0,1,0,0)" fill="rgb(33,33,33)" />
            </g>
            <path d=" M 748.991 708.745 L 748.991 712.72 L 748.725 712.72 L 748.725 709.824 L 748.725 709.824 Q 748.725 709.43 748.757 709.006 L 748.757 709.006 L 748.757 709.006 Q 748.717 709.046 748.673 709.084 L 748.673 709.084 L 748.673 709.084 Q 748.63 709.123 747.833 709.745 L 747.833 709.745 L 747.678 709.552 L 748.757 708.745 L 748.991 708.745 Z  M 751.863 708.745 L 752.148 708.745 L 750.666 712.72 L 750.383 712.72 L 751.863 708.745 Z  M 755.008 712.459 L 755.008 712.72 L 752.521 712.72 L 752.521 712.481 L 753.578 711.377 L 753.578 711.377 Q 754.024 710.914 754.204 710.67 L 754.204 710.67 L 754.204 710.67 Q 754.383 710.425 754.467 710.202 L 754.467 710.202 L 754.467 710.202 Q 754.552 709.979 754.552 709.734 L 754.552 709.734 L 754.552 709.734 Q 754.552 709.378 754.318 709.155 L 754.318 709.155 L 754.318 709.155 Q 754.084 708.932 753.711 708.932 L 753.711 708.932 L 753.711 708.932 Q 753.214 708.932 752.76 709.294 L 752.76 709.294 L 752.613 709.106 L 752.613 709.106 Q 753.111 708.687 753.717 708.687 L 753.717 708.687 L 753.717 708.687 Q 754.236 708.687 754.534 708.965 L 754.534 708.965 L 754.534 708.965 Q 754.832 709.242 754.832 709.729 L 754.832 709.729 L 754.832 709.729 Q 754.832 710.123 754.632 710.492 L 754.632 710.492 L 754.632 710.492 Q 754.432 710.86 753.902 711.401 L 753.902 711.401 L 752.882 712.448 L 752.882 712.459 L 755.008 712.459 Z  M 756.852 710.33 L 756.852 710.33 L 756.852 710.33 Q 757.488 710.33 757.854 710.637 L 757.854 710.637 L 757.854 710.637 Q 758.22 710.944 758.22 711.483 L 758.22 711.483 L 758.22 711.483 Q 758.22 712.094 757.839 712.434 L 757.839 712.434 L 757.839 712.434 Q 757.458 712.774 756.789 712.774 L 756.789 712.774 L 756.789 712.774 Q 756.493 712.774 756.227 712.716 L 756.227 712.716 L 756.227 712.716 Q 755.96 712.657 755.781 712.549 L 755.781 712.549 L 755.781 712.269 L 755.781 712.269 Q 756.074 712.418 756.303 712.477 L 756.303 712.477 L 756.303 712.477 Q 756.531 712.535 756.789 712.535 L 756.789 712.535 L 756.789 712.535 Q 757.312 712.535 757.627 712.259 L 757.627 712.259 L 757.627 712.259 Q 757.942 711.983 757.942 711.513 L 757.942 711.513 L 757.942 711.513 Q 757.942 711.069 757.635 710.817 L 757.635 710.817 L 757.635 710.817 Q 757.328 710.564 756.8 710.564 L 756.8 710.564 L 756.8 710.564 Q 756.447 710.564 756.061 710.67 L 756.061 710.67 L 755.898 710.564 L 756.055 708.745 L 757.97 708.745 L 757.97 709.006 L 756.311 709.006 L 756.189 710.409 L 756.189 710.409 Q 756.613 710.33 756.852 710.33 Z  M 760.118 708.745 L 760.403 708.745 L 758.921 712.72 L 758.638 712.72 L 760.118 708.745 Z  M 763.264 712.459 L 763.264 712.72 L 760.776 712.72 L 760.776 712.481 L 761.833 711.377 L 761.833 711.377 Q 762.279 710.914 762.459 710.67 L 762.459 710.67 L 762.459 710.67 Q 762.638 710.425 762.723 710.202 L 762.723 710.202 L 762.723 710.202 Q 762.807 709.979 762.807 709.734 L 762.807 709.734 L 762.807 709.734 Q 762.807 709.378 762.573 709.155 L 762.573 709.155 L 762.573 709.155 Q 762.339 708.932 761.967 708.932 L 761.967 708.932 L 761.967 708.932 Q 761.469 708.932 761.015 709.294 L 761.015 709.294 L 760.868 709.106 L 760.868 709.106 Q 761.366 708.687 761.972 708.687 L 761.972 708.687 L 761.972 708.687 Q 762.491 708.687 762.789 708.965 L 762.789 708.965 L 762.789 708.965 Q 763.087 709.242 763.087 709.729 L 763.087 709.729 L 763.087 709.729 Q 763.087 710.123 762.887 710.492 L 762.887 710.492 L 762.887 710.492 Q 762.687 710.86 762.157 711.401 L 762.157 711.401 L 761.137 712.448 L 761.137 712.459 L 763.264 712.459 Z  M 766.516 710.721 L 766.516 710.721 L 766.516 710.721 Q 766.516 711.768 766.196 712.271 L 766.196 712.271 L 766.196 712.271 Q 765.877 712.774 765.23 712.774 L 765.23 712.774 L 765.23 712.774 Q 764.607 712.774 764.283 712.256 L 764.283 712.256 L 764.283 712.256 Q 763.96 711.738 763.96 710.721 L 763.96 710.721 L 763.96 710.721 Q 763.96 709.683 764.274 709.182 L 764.274 709.182 L 764.274 709.182 Q 764.588 708.682 765.23 708.682 L 765.23 708.682 L 765.23 708.682 Q 765.858 708.682 766.187 709.2 L 766.187 709.2 L 766.187 709.2 Q 766.516 709.718 766.516 710.721 Z  M 764.253 710.721 L 764.253 710.721 L 764.253 710.721 Q 764.253 711.646 764.495 712.088 L 764.495 712.088 L 764.495 712.088 Q 764.737 712.53 765.23 712.53 L 765.23 712.53 L 765.23 712.53 Q 765.743 712.53 765.979 712.073 L 765.979 712.073 L 765.979 712.073 Q 766.214 711.616 766.214 710.721 L 766.214 710.721 L 766.214 710.721 Q 766.214 709.84 765.979 709.384 L 765.979 709.384 L 765.979 709.384 Q 765.743 708.927 765.23 708.927 L 765.23 708.927 L 765.23 708.927 Q 764.716 708.927 764.485 709.384 L 764.485 709.384 L 764.485 709.384 Q 764.253 709.84 764.253 710.721 Z  M 768.68 708.745 L 768.68 712.72 L 768.414 712.72 L 768.414 709.824 L 768.414 709.824 Q 768.414 709.43 768.446 709.006 L 768.446 709.006 L 768.446 709.006 Q 768.405 709.046 768.362 709.084 L 768.362 709.084 L 768.362 709.084 Q 768.318 709.123 767.522 709.745 L 767.522 709.745 L 767.367 709.552 L 768.446 708.745 L 768.68 708.745 Z  M 771.587 708.677 L 771.587 708.677 L 771.587 708.677 Q 772.092 708.677 772.401 708.935 L 772.401 708.935 L 772.401 708.935 Q 772.71 709.193 772.71 709.634 L 772.71 709.634 L 772.71 709.634 Q 772.71 709.938 772.518 710.172 L 772.518 710.172 L 772.518 710.172 Q 772.326 710.406 771.897 710.604 L 771.897 710.604 L 771.897 710.604 Q 772.419 710.819 772.631 711.075 L 772.631 711.075 L 772.631 711.075 Q 772.843 711.33 772.843 711.695 L 772.843 711.695 L 772.843 711.695 Q 772.843 712.187 772.499 712.481 L 772.499 712.481 L 772.499 712.481 Q 772.155 712.774 771.576 712.774 L 771.576 712.774 L 771.576 712.774 Q 770.975 712.774 770.654 712.5 L 770.654 712.5 L 770.654 712.5 Q 770.333 712.225 770.333 711.7 L 770.333 711.7 L 770.333 711.7 Q 770.333 711.344 770.559 711.075 L 770.559 711.075 L 770.559 711.075 Q 770.785 710.806 771.258 710.615 L 771.258 710.615 L 771.258 710.615 Q 770.82 710.409 770.641 710.179 L 770.641 710.179 L 770.641 710.179 Q 770.461 709.949 770.461 709.628 L 770.461 709.628 L 770.461 709.628 Q 770.461 709.343 770.605 709.127 L 770.605 709.127 L 770.605 709.127 Q 770.749 708.91 771.009 708.794 L 771.009 708.794 L 771.009 708.794 Q 771.269 708.677 771.587 708.677 Z  M 770.611 711.741 L 770.611 711.741 L 770.611 711.741 Q 770.611 712.116 770.865 712.323 L 770.865 712.323 L 770.865 712.323 Q 771.119 712.53 771.576 712.53 L 771.576 712.53 L 771.576 712.53 Q 772.022 712.53 772.294 712.311 L 772.294 712.311 L 772.294 712.311 Q 772.566 712.092 772.566 711.717 L 772.566 711.717 L 772.566 711.717 Q 772.566 711.379 772.352 711.169 L 772.352 711.169 L 772.352 711.169 Q 772.139 710.958 771.53 710.727 L 771.53 710.727 L 771.53 710.727 Q 771.029 710.92 770.82 711.154 L 770.82 711.154 L 770.82 711.154 Q 770.611 711.388 770.611 711.741 Z  M 771.581 708.921 L 771.581 708.921 L 771.581 708.921 Q 771.198 708.921 770.965 709.11 L 770.965 709.11 L 770.965 709.11 Q 770.733 709.299 770.733 709.628 L 770.733 709.628 L 770.733 709.628 Q 770.733 709.819 770.819 709.964 L 770.819 709.964 L 770.819 709.964 Q 770.904 710.11 771.066 710.228 L 771.066 710.228 L 771.066 710.228 Q 771.228 710.346 771.609 710.504 L 771.609 710.504 L 771.609 710.504 Q 772.052 710.333 772.245 710.126 L 772.245 710.126 L 772.245 710.126 Q 772.438 709.919 772.438 709.628 L 772.438 709.628 L 772.438 709.628 Q 772.438 709.302 772.208 709.112 L 772.208 709.112 L 772.208 709.112 Q 771.978 708.921 771.581 708.921 Z  M 765.269 705.136 L 764.717 703.733 L 763.102 703.733 L 762.547 705.136 L 762.24 705.136 L 763.839 701.145 L 764.015 701.145 L 765.582 705.136 L 765.269 705.136 Z  M 763.76 702.056 L 763.202 703.483 L 764.625 703.483 L 764.083 702.05 L 764.083 702.05 Q 764.015 701.882 763.92 701.583 L 763.92 701.583 L 763.92 701.583 Q 763.847 701.844 763.76 702.056 L 763.76 702.056 Z  M 768.07 705.136 L 767.893 705.136 L 766.411 701.466 L 766.389 701.466 L 766.389 701.466 Q 766.411 701.803 766.411 702.156 L 766.411 702.156 L 766.411 705.136 L 766.145 705.136 L 766.145 701.161 L 766.574 701.161 L 767.983 704.658 L 767.999 704.658 L 769.407 701.161 L 769.826 701.161 L 769.826 705.136 L 769.546 705.136 L 769.546 702.124 L 769.546 702.124 Q 769.546 701.808 769.579 701.471 L 769.579 701.471 L 769.557 701.471 L 768.07 705.136 Z  M 750.29 703.442 L 750.29 703.442 L 750.29 703.442 Q 750.29 702.667 750.5 702.139 L 750.5 702.139 L 750.5 702.139 Q 750.711 701.61 751.098 701.354 L 751.098 701.354 L 751.098 701.354 Q 751.486 701.099 752.032 701.099 L 752.032 701.099 L 752.032 701.099 Q 752.288 701.099 752.5 701.161 L 752.5 701.161 L 752.5 701.4 L 752.5 701.4 Q 752.302 701.327 752.022 701.327 L 752.022 701.327 L 752.022 701.327 Q 751.35 701.327 750.976 701.811 L 750.976 701.811 L 750.976 701.811 Q 750.602 702.295 750.556 703.219 L 750.556 703.219 L 750.591 703.219 L 750.591 703.219 Q 750.798 702.953 751.064 702.817 L 751.064 702.817 L 751.064 702.817 Q 751.331 702.681 751.627 702.681 L 751.627 702.681 L 751.627 702.681 Q 752.185 702.681 752.499 702.999 L 752.499 702.999 L 752.499 702.999 Q 752.813 703.317 752.813 703.877 L 752.813 703.877 L 752.813 703.877 Q 752.813 704.487 752.482 704.839 L 752.482 704.839 L 752.482 704.839 Q 752.152 705.191 751.592 705.191 L 751.592 705.191 L 751.592 705.191 Q 750.988 705.191 750.639 704.73 L 750.639 704.73 L 750.639 704.73 Q 750.29 704.269 750.29 703.442 Z  M 751.592 704.951 L 751.592 704.951 L 751.592 704.951 Q 752.038 704.951 752.285 704.671 L 752.285 704.671 L 752.285 704.671 Q 752.533 704.391 752.533 703.872 L 752.533 703.872 L 752.533 703.872 Q 752.533 703.415 752.288 703.16 L 752.288 703.16 L 752.288 703.16 Q 752.043 702.904 751.622 702.904 L 751.622 702.904 L 751.622 702.904 Q 751.345 702.904 751.107 703.026 L 751.107 703.026 L 751.107 703.026 Q 750.869 703.149 750.727 703.351 L 750.727 703.351 L 750.727 703.351 Q 750.586 703.554 750.586 703.766 L 750.586 703.766 L 750.586 703.766 Q 750.586 704.068 750.721 704.346 L 750.721 704.346 L 750.721 704.346 Q 750.855 704.625 751.085 704.788 L 751.085 704.788 L 751.085 704.788 Q 751.315 704.951 751.592 704.951 Z  M 753.552 704.924 L 753.552 704.924 L 753.552 704.924 Q 753.552 704.658 753.77 704.658 L 753.77 704.658 L 753.77 704.658 Q 753.993 704.658 753.993 704.924 L 753.993 704.924 L 753.993 704.924 Q 753.993 705.191 753.77 705.191 L 753.77 705.191 L 753.77 705.191 Q 753.552 705.191 753.552 704.924 Z  M 753.552 702.496 L 753.552 702.496 L 753.552 702.496 Q 753.552 702.23 753.77 702.23 L 753.77 702.23 L 753.77 702.23 Q 753.993 702.23 753.993 702.496 L 753.993 702.496 L 753.993 702.496 Q 753.993 702.64 753.929 702.703 L 753.929 702.703 L 753.929 702.703 Q 753.865 702.765 753.77 702.765 L 753.77 702.765 L 753.77 702.765 Q 753.678 702.765 753.615 702.703 L 753.615 702.703 L 753.615 702.703 Q 753.552 702.64 753.552 702.496 Z  M 757.098 702.096 L 757.098 702.096 L 757.098 702.096 Q 757.098 702.466 756.866 702.719 L 756.866 702.719 L 756.866 702.719 Q 756.633 702.972 756.242 703.043 L 756.242 703.043 L 756.242 703.059 L 756.242 703.059 Q 756.72 703.119 756.97 703.364 L 756.97 703.364 L 756.97 703.364 Q 757.22 703.608 757.22 704.022 L 757.22 704.022 L 757.22 704.022 Q 757.22 704.579 756.841 704.885 L 756.841 704.885 L 756.841 704.885 Q 756.462 705.191 755.749 705.191 L 755.749 705.191 L 755.749 705.191 Q 755.143 705.191 754.692 704.965 L 754.692 704.965 L 754.692 704.696 L 754.692 704.696 Q 754.92 704.816 755.204 704.883 L 755.204 704.883 L 755.204 704.883 Q 755.488 704.951 755.739 704.951 L 755.739 704.951 L 755.739 704.951 Q 756.339 704.951 756.641 704.708 L 756.641 704.708 L 756.641 704.708 Q 756.943 704.465 756.943 704.022 L 756.943 704.022 L 756.943 704.022 Q 756.943 703.627 756.635 703.415 L 756.635 703.415 L 756.635 703.415 Q 756.326 703.203 755.728 703.203 L 755.728 703.203 L 755.298 703.203 L 755.298 702.942 L 755.733 702.942 L 755.733 702.942 Q 756.228 702.942 756.518 702.707 L 756.518 702.707 L 756.518 702.707 Q 756.807 702.472 756.807 702.069 L 756.807 702.069 L 756.807 702.069 Q 756.807 701.738 756.572 701.538 L 756.572 701.538 L 756.572 701.538 Q 756.337 701.338 755.956 701.338 L 755.956 701.338 L 755.956 701.338 Q 755.66 701.338 755.415 701.421 L 755.415 701.421 L 755.415 701.421 Q 755.17 701.504 754.866 701.705 L 754.866 701.705 L 754.733 701.523 L 754.733 701.523 Q 754.964 701.33 755.29 701.217 L 755.29 701.217 L 755.29 701.217 Q 755.616 701.104 755.951 701.104 L 755.951 701.104 L 755.951 701.104 Q 756.5 701.104 756.799 701.364 L 756.799 701.364 L 756.799 701.364 Q 757.098 701.623 757.098 702.096 Z  M 760.483 703.138 L 760.483 703.138 L 760.483 703.138 Q 760.483 704.185 760.164 704.688 L 760.164 704.688 L 760.164 704.688 Q 759.844 705.191 759.197 705.191 L 759.197 705.191 L 759.197 705.191 Q 758.575 705.191 758.251 704.673 L 758.251 704.673 L 758.251 704.673 Q 757.927 704.155 757.927 703.138 L 757.927 703.138 L 757.927 703.138 Q 757.927 702.099 758.241 701.599 L 758.241 701.599 L 758.241 701.599 Q 758.556 701.099 759.197 701.099 L 759.197 701.099 L 759.197 701.099 Q 759.825 701.099 760.154 701.617 L 760.154 701.617 L 760.154 701.617 Q 760.483 702.134 760.483 703.138 Z  M 758.221 703.138 L 758.221 703.138 L 758.221 703.138 Q 758.221 704.062 758.463 704.504 L 758.463 704.504 L 758.463 704.504 Q 758.705 704.946 759.197 704.946 L 759.197 704.946 L 759.197 704.946 Q 759.711 704.946 759.946 704.489 L 759.946 704.489 L 759.946 704.489 Q 760.182 704.032 760.182 703.138 L 760.182 703.138 L 760.182 703.138 Q 760.182 702.257 759.946 701.8 L 759.946 701.8 L 759.946 701.8 Q 759.711 701.343 759.197 701.343 L 759.197 701.343 L 759.197 701.343 Q 758.683 701.343 758.452 701.8 L 758.452 701.8 L 758.452 701.8 Q 758.221 702.257 758.221 703.138 Z " fill-rule="evenodd" fill="rgb(250,250,250)" />
            <g id="windows logo">
                <path d=" M 654.721 587.924 L 654.721 535.818 L 723.023 535.818 L 723.023 597.81 L 654.721 587.92 L 654.721 587.924 Z  M 654.721 474.87 L 723.023 464.975 L 723.023 526.967 L 654.721 526.967 L 654.721 474.875 L 654.721 474.87 Z  M 594.956 579.278 L 594.956 535.818 L 646.183 535.818 L 646.183 586.67 L 594.956 579.269 L 594.956 579.278 Z  M 594.956 526.972 L 594.956 483.517 L 646.183 476.115 L 646.183 526.967 L 594.956 526.967 L 594.956 526.972 Z " fill-rule="evenodd" fill="rgb(250,250,250)" />
            </g>
        </g>
    </g>
</svg>