<?xml version="1.0" standalone="no"?><!-- Generator: Gravit.io --><svg xmlns="http://www.w3.org/2000/svg" xmlns:xlink="http://www.w3.org/1999/xlink" style="isolation:isolate" viewBox="0 0 1024 1024" width="1024" height="1024"><defs><clipPath id="_clipPath_gYX5wR2SuDX003MaZbjrIP2UfCdDA6GU"><rect width="1024" height="1024"/></clipPath></defs><g clip-path="url(#_clipPath_gYX5wR2SuDX003MaZbjrIP2UfCdDA6GU)"><rect x="87" y="87" width="850" height="850" transform="matrix(1,0,0,1,0,0)" fill="rgb(255,255,255)"/><clipPath id="_clipPath_wixeKFLSJ4GNcHkOkSv4qqEDPEmvHlRY"><rect x="87" y="87" width="850" height="850" transform="matrix(1,0,0,1,0,0)" fill="rgb(255,255,255)"/></clipPath><g clip-path="url(#_clipPath_wixeKFLSJ4GNcHkOkSv4qqEDPEmvHlRY)"><path d=" M 620 953.333 C 575.966 831.352 578.667 632 578 584 C 577.333 536 584.667 505.333 564 504.667 C 537.333 502.667 520 506 492 506 C 444.667 509.333 452.667 488.667 454.004 471.337 C 468.667 337.333 474 229.333 555.333 64.667 L 65.152 63.636 L 63.636 954.545 L 620 953.333 Z " fill="rgb(30,136,229)"/></g><path d="M 329.5 301.5 L 329.5 301.5 C 339.159 301.5 347 309.341 347 319 L 347 384 C 347 393.659 339.159 401.5 329.5 401.5 L 329.5 401.5 C 319.841 401.5 312 393.659 312 384 L 312 319 C 312 309.341 319.841 301.5 329.5 301.5 Z" style="stroke:none;fill:#212121;stroke-miterlimit:10;"/><path d="M 714.5 301.5 L 714.5 301.5 C 724.159 301.5 732 309.341 732 319 L 732 384 C 732 393.659 724.159 401.5 714.5 401.5 L 714.5 401.5 C 704.841 401.5 697 393.659 697 384 L 697 319 C 697 309.341 704.841 301.5 714.5 301.5 Z" style="stroke:none;fill:#212121;stroke-miterlimit:10;"/><path d=" M 258 641.5 C 254.9 638 253.3 633.5 253.5 628.8 C 253.8 624.2 255.9 619.9 259.3 616.8 C 262.8 613.7 267.3 612 271.9 612.3 C 276.6 612.5 280.9 614.6 284 618.1 C 298.8 634.5 315.2 649.4 332.9 662.5 C 349.2 674.3 366.8 684.1 385.3 691.6 C 405 699.4 425.5 705 446.3 708.3 C 471 712.2 495.9 714.3 520.8 714.5 L 526.4 714.5 C 575.7 714.3 624.4 703.3 669 682.2 C 687.5 673.7 705 663.3 721.3 651.2 C 733.3 642.6 743.9 632.2 752.5 620.3 C 755.3 616.6 759.4 614.1 764 613.4 C 768.6 612.7 773.2 613.8 777 616.5 C 780.7 619.3 783.2 623.4 784 628 C 784.7 632.6 783.5 637.2 780.8 641 C 770 655.8 756.9 668.8 742 679.4 C 723.8 693 704.3 704.5 683.7 713.9 C 634.5 737.1 580.8 749.3 526.4 749.6 C 526.4 749.6 526.3 749.6 526.2 749.5 L 520.5 749.5 C 520.5 749.5 520.5 749.5 520.5 749.5 C 493.8 749.2 467.2 747 440.9 742.9 C 417.4 739.1 394.4 732.8 372.4 724.1 C 351 715.5 330.8 704.3 312.3 690.8 C 292.5 676.2 274.3 659.7 258 641.5 Z " fill="rgb(33,33,33)"/></g></svg>