<?xml version="1.0" standalone="no"?><!-- Generator: Gravit.io --><svg xmlns="http://www.w3.org/2000/svg" xmlns:xlink="http://www.w3.org/1999/xlink" style="isolation:isolate" viewBox="0 0 1024 1024" width="1024" height="1024"><defs><clipPath id="_clipPath_FBPAgE6pnahPkupWdTHDJiIEAlopcHjj"><rect width="1024" height="1024"/></clipPath></defs><g clip-path="url(#_clipPath_FBPAgE6pnahPkupWdTHDJiIEAlopcHjj)"><rect x="87" y="87" width="850" height="850" transform="matrix(1,0,0,1,0,0)" fill="rgb(255,255,255)"/><clipPath id="_clipPath_D7xaZPdwr5Li1quBjdu9D2DPTx4SafSF"><rect x="87" y="87" width="850" height="850" transform="matrix(1,0,0,1,0,0)" fill="rgb(255,255,255)"/></clipPath><g clip-path="url(#_clipPath_D7xaZPdwr5Li1quBjdu9D2DPTx4SafSF)"><path d=" M 620 953.333 C 575.966 831.352 578.667 632 578 584 C 577.333 536 584.667 505.333 564 504.667 C 537.333 502.667 520 506 492 506 C 444.667 509.333 452.667 488.667 454.004 471.337 C 468.667 337.333 474 229.333 555.333 64.667 L 65.152 63.636 L 63.636 954.545 L 620 953.333 Z " fill="rgb(30,136,229)"/><path d="M 320.5 301.5 L 320.5 301.5 C 330.159 301.5 338 309.341 338 319 L 338 384 C 338 393.659 330.159 401.5 320.5 401.5 L 320.5 401.5 C 310.841 401.5 303 393.659 303 384 L 303 319 C 303 309.341 310.841 301.5 320.5 301.5 Z" style="stroke:none;fill:#212121;stroke-miterlimit:10;"/><path d="M 705.5 301.5 L 705.5 301.5 C 715.159 301.5 723 309.341 723 319 L 723 384 C 723 393.659 715.159 401.5 705.5 401.5 L 705.5 401.5 C 695.841 401.5 688 393.659 688 384 L 688 319 C 688 309.341 695.841 301.5 705.5 301.5 Z" style="stroke:none;fill:#212121;stroke-miterlimit:10;"/><path d=" M 258 641.5 C 254.9 638 253.3 633.5 253.5 628.8 C 253.8 624.2 255.9 619.9 259.3 616.8 C 262.8 613.7 267.3 612 271.9 612.3 C 276.6 612.5 280.9 614.6 284 618.1 C 298.8 634.5 315.2 649.4 332.9 662.5 C 349.2 674.3 366.8 684.1 385.3 691.6 C 405 699.4 425.5 705 446.3 708.3 C 471 712.2 495.9 714.3 520.8 714.5 L 526.4 714.5 C 575.7 714.3 624.4 703.3 669 682.2 C 687.5 673.7 705 663.3 721.3 651.2 C 733.3 642.6 743.9 632.2 752.5 620.3 C 755.3 616.6 759.4 614.1 764 613.4 C 768.6 612.7 773.2 613.8 777 616.5 C 780.7 619.3 783.2 623.4 784 628 C 784.7 632.6 783.5 637.2 780.8 641 C 770 655.8 756.9 668.8 742 679.4 C 723.8 693 704.3 704.5 683.7 713.9 C 634.5 737.1 580.8 749.3 526.4 749.6 C 526.4 749.6 526.3 749.6 526.2 749.5 L 520.5 749.5 C 520.5 749.5 520.5 749.5 520.5 749.5 C 493.8 749.2 467.2 747 440.9 742.9 C 417.4 739.1 394.4 732.8 372.4 724.1 C 351 715.5 330.8 704.3 312.3 690.8 C 292.5 676.2 274.3 659.7 258 641.5 Z " fill="rgb(33,33,33)"/><g id="Group"><g opacity="0.42"><path d=" M 140.143 421.33 Q 344.245 505.207 395.97 501.013 C 447.694 496.82 461.674 326.269 510.602 326.269 C 559.531 326.269 581.898 499.615 629.428 503.809 Q 676.959 508.003 888.05 419.932 L 879.663 235.402 L 520.388 222.82 L 151.327 235.402 L 140.143 421.33 Z " fill="rgb(207,216,220)"/></g><path d=" M 435.427 458.869 L 418.337 450.687 C 466.548 352.36 496.649 305.165 508.974 307.04 C 523.462 309.244 556.646 358.314 608.459 454.182 L 589.587 461.172 Q 522.485 329.065 509.204 328.366 Q 495.923 327.667 435.427 458.869 Z " fill="rgb(66,66,66)"/><path d=" M 102.399 186.473 Q 341.279 169.587 516.194 169.698 Q 688.162 169.806 921.601 186.473 L 910.418 410.146 L 883.857 421.33 L 875.469 240.993 Q 572.648 228.448 516.194 228.412 Q 459.739 228.376 156.403 241.573 L 142.939 424.126 L 119.174 412.942 L 102.399 186.473 Z " fill="rgb(66,66,66)"/></g><g id="Group"><path d=" M 717.708 692.557 L 624.323 884.87 C 615.632 902.768 624.729 917.281 644.626 917.258 L 883.742 916.989 C 903.638 916.967 912.851 902.362 904.303 884.395 L 812.988 692.478 L 717.708 692.557 Z " fill="rgb(156,39,176)"/><path d=" M 717.575 525.16 L 717.679 656.507 C 717.695 676.403 710.652 707.088 701.961 724.986 L 624.323 884.87 C 615.632 902.768 624.729 917.281 644.626 917.258 L 883.742 916.989 C 903.638 916.967 912.851 902.362 904.303 884.396 L 828.476 725.031 C 819.928 707.065 812.887 676.325 812.764 656.429 L 811.949 524.992 C 811.912 519.023 816.728 514.215 822.697 514.261 L 854.412 514.509 C 860.381 514.555 865.145 509.748 865.043 503.78 L 864.146 450.813 C 864.044 444.845 859.116 440 853.147 440 L 668.698 440 C 662.729 440 657.965 444.845 658.066 450.813 L 658.964 503.78 C 659.065 509.748 663.993 514.573 669.962 514.547 L 706.752 514.391 C 712.721 514.365 717.571 519.191 717.575 525.16 Z " fill="rgb(129,212,250)" fill-opacity="0.5" vector-effect="non-scaling-stroke" stroke-width="20.139" stroke="rgb(129,212,250)" stroke-linejoin="miter" stroke-linecap="square" stroke-miterlimit="3"/></g></g></g></svg>