<?xml version="1.0" standalone="no"?><!-- Generator: Gravit.io --><svg xmlns="http://www.w3.org/2000/svg" xmlns:xlink="http://www.w3.org/1999/xlink" style="isolation:isolate" viewBox="0 0 1024 1024" width="1024" height="1024"><defs><clipPath id="_clipPath_cnglZ4Xnx7GfRvMzFtKyOqWqzYukAW6m"><rect width="1024" height="1024"/></clipPath></defs><g clip-path="url(#_clipPath_cnglZ4Xnx7GfRvMzFtKyOqWqzYukAW6m)"><rect x="87" y="87" width="850" height="850" transform="matrix(1,0,0,1,0,0)" fill="rgb(255,255,255)"/><clipPath id="_clipPath_c7nKQ0tpOtOxzhTroeNqoMMkMf90DlZw"><rect x="87" y="87" width="850" height="850" transform="matrix(1,0,0,1,0,0)" fill="rgb(255,255,255)"/></clipPath><g clip-path="url(#_clipPath_c7nKQ0tpOtOxzhTroeNqoMMkMf90DlZw)"><path d=" M 620 953.333 C 575.966 831.352 578.667 632 578 584 C 577.333 536 584.667 505.333 564 504.667 C 537.333 502.667 520 506 492 506 C 444.667 509.333 452.667 488.667 454.004 471.337 C 468.667 337.333 474 229.333 555.333 64.667 L 65.152 63.636 L 63.636 954.545 L 620 953.333 Z " fill="rgb(30,136,229)"/></g><path d="M 329.5 301.5 L 329.5 301.5 C 339.159 301.5 347 309.341 347 319 L 347 384 C 347 393.659 339.159 401.5 329.5 401.5 L 329.5 401.5 C 319.841 401.5 312 393.659 312 384 L 312 319 C 312 309.341 319.841 301.5 329.5 301.5 Z" style="stroke:none;fill:#212121;stroke-miterlimit:10;"/><path d="M 714.5 301.5 L 714.5 301.5 C 724.159 301.5 732 309.341 732 319 L 732 384 C 732 393.659 724.159 401.5 714.5 401.5 L 714.5 401.5 C 704.841 401.5 697 393.659 697 384 L 697 319 C 697 309.341 704.841 301.5 714.5 301.5 Z" style="stroke:none;fill:#212121;stroke-miterlimit:10;"/><path d=" M 271 629.773 C 338.386 703.66 408 730 520.667 732 C 633.333 734 735.333 676 766.667 630.667" fill="none" vector-effect="non-scaling-stroke" stroke-width="35" stroke="rgb(33,33,33)" stroke-linejoin="round" stroke-linecap="round" stroke-miterlimit="3"/></g></svg>