<?xml version="1.0" standalone="no"?>
<!-- Generator: Gravit.io -->
<svg xmlns="http://www.w3.org/2000/svg" xmlns:xlink="http://www.w3.org/1999/xlink" style="isolation:isolate" viewBox="0 0 1024 1024" width="1024" height="1024">
    <defs>
        <clipPath id="_clipPath_rtMyy9OVxph1tEF0JM6Uk1K6ozgJ5vU4">
            <rect width="1024" height="1024" />
        </clipPath>
    </defs>
    <g clip-path="url(#_clipPath_rtMyy9OVxph1tEF0JM6Uk1K6ozgJ5vU4)">
        <rect x="87" y="87" width="850" height="849.999" transform="matrix(1,0,0,1,0,0)" fill="rgb(30,136,229)" />
        <g id="firefox-quantum">
            <path d=" M 735.782 206.785 C 717.53 228.038 709.029 275.87 727.537 324.358 C 746.044 372.847 774.412 362.316 792.094 411.761 C 815.435 477.005 804.571 564.649 804.571 564.649 C 804.571 564.649 832.63 645.906 852.184 559.594 C 895.463 397.472 735.782 246.708 735.782 206.785 Z " fill="rgb(140,158,255)" />
            <g id="Coruscant">
                <path d=" M 857.132 537.899 C 857.132 725.528 704.801 877.859 517.172 877.859 C 329.543 877.859 177.212 725.528 177.212 537.899 C 177.212 350.27 329.543 197.939 517.172 197.939 C 704.801 197.939 857.132 350.27 857.132 537.899 Z " fill="rgb(62,39,35)" />
                <g id="megacity 1">
                    <path d=" M 632.952 395.591 L 633.83 395.591 L 633.83 397.347 L 632.952 397.347 L 631.195 397.347 C 631.195 397.347 631.195 397.347 631.195 397.347 C 612.572 397.172 595.003 389.266 582.529 375.738 C 571.285 364.493 564.784 349.56 564.081 333.572 C 564.081 333.572 564.081 333.572 564.081 333.572 L 564.257 332.342 C 564.257 332.342 564.257 332.342 564.257 332.342 C 564.784 324.612 566.541 317.233 569.703 310.381 C 573.569 302.826 579.542 296.677 587.097 292.636 C 595.706 288.771 605.193 286.839 614.68 286.839 C 635.763 287.366 655.791 296.326 670.374 311.611 C 680.915 322.504 686.537 337.437 686.186 352.547 C 686.186 369.764 675.996 385.225 660.184 391.725 L 659.481 392.077 L 658.778 390.496 L 659.657 390.144 C 674.59 383.819 684.429 368.886 684.429 352.547 C 684.78 337.789 679.334 323.382 669.144 312.665 C 654.913 297.731 635.236 289.122 614.68 288.595 C 605.368 288.595 596.233 290.528 587.799 294.217 C 580.772 298.083 574.974 303.88 571.285 311.084 C 568.298 317.76 566.541 324.963 565.838 332.342 L 565.838 333.572 C 566.541 349.033 572.866 363.615 583.759 374.508 C 596.057 387.685 613.099 395.415 631.195 395.591 L 632.952 395.591 Z " fill="rgb(188,170,164)" />
                    <path d=" M 642.79 404.024 L 643.669 403.848 L 643.669 405.605 L 642.79 405.605 C 623.113 405.781 603.787 399.631 587.624 388.387 C 572.339 376.44 561.27 359.75 556 341.127 L 555.824 340.248 L 557.581 339.897 L 557.757 340.6 C 562.852 359.047 573.744 375.211 588.502 386.982 C 604.49 398.05 623.465 404.024 642.79 404.024 Z " fill="rgb(188,170,164)" />
                    <path d=" M 623.465 277.527 L 624.87 277.527 L 624.694 280.162 L 623.465 279.987 L 618.018 279.987 C 618.018 279.987 618.018 279.987 618.018 279.987 C 604.49 279.46 591.138 282.973 579.718 290.177 C 572.339 296.15 566.365 303.705 561.973 312.138 L 561.446 313.192 L 559.162 312.138 L 559.689 310.908 C 564.257 302.123 570.582 294.393 578.137 288.068 C 590.083 280.514 604.139 276.824 618.194 277.351 L 623.465 277.527 Z " fill="rgb(188,170,164)" />
                    <path d=" M 645.074 284.555 L 643.845 284.027 L 645.074 281.568 L 646.129 282.095 C 668.441 292.461 685.834 310.908 694.795 333.572 L 695.146 334.802 L 692.862 335.856 L 692.335 334.626 C 683.55 312.489 666.684 294.569 645.074 284.555 Z " fill="rgb(188,170,164)" />
                    <path d=" M 694.795 344.465 L 694.795 343.586 L 696.552 343.411 L 696.552 344.289 L 696.903 351.317 C 696.903 351.317 696.903 351.317 696.903 351.317 C 696.552 370.116 686.713 387.509 670.901 397.699 L 670.198 398.05 L 669.32 396.645 L 670.022 396.118 C 685.307 386.455 694.795 369.588 695.146 351.317 L 694.795 344.465 Z " fill="rgb(188,170,164)" />
                    <path d=" M 659.152 375.716 L 660.359 374.947 L 682.979 403.936 L 690.007 402.399 L 719.874 448.407 C 718.216 450.056 715.856 451.539 712.847 452.909 L 722.729 470.478 L 715.702 473.114 L 707.137 457.631 C 704.172 459.827 700.878 461.255 696.705 462.902 L 700.329 466.745 L 685.615 475.31 L 670.242 468.941 C 683.565 465.354 696.212 460.322 705.16 454.996 L 702.635 450.494 C 684.463 460.147 665.796 464.229 649.653 462.353 L 649.763 468.008 L 660.799 468.172 L 660.799 474.761 L 646.414 474.816 L 646.469 469.655 Q 644.017 469.802 639.606 469.71 L 639.716 475.749 L 632.524 475.475 L 632.524 469.6 C 622.202 469.435 614.021 467.129 607.707 465.263 L 597.989 499.687 L 594.695 498.589 L 604.084 463.945 C 599.746 461.95 595.648 459.901 591.84 457.851 L 589.205 464.329 L 584.813 462.792 L 587.887 455.545 C 583.66 453.788 568.489 443.558 564.718 440.941 L 570.263 439.403 C 576.345 443.696 582.348 447.338 588.327 450.384 L 593.158 439.293 L 582.617 433.803 L 579.542 437.537 L 572.185 437.537 L 571.087 432.101 L 567.903 429.85 L 566.146 432.101 L 567.793 433.584 L 565.377 436.329 L 560.216 432.705 L 552.969 443.905 L 548.796 441.27 L 556.263 429.74 L 553.738 427.489 L 550.114 431.827 L 547.643 430.07 L 556.044 419.089 L 553.079 416.344 L 551.267 417.936 L 549.016 416.069 L 550.334 414.038 L 544.239 406.297 L 541.055 406.187 L 541.11 402.618 L 546.381 402.453 L 546.6 405.473 C 552.164 410.458 558.937 415.127 567.024 419.583 L 570.812 416.124 C 573.248 418.237 575.665 419.776 578.169 420.846 L 576.632 422.713 C 586.122 430.267 596.847 435.41 608.311 438.854 L 605.676 444.125 L 602.382 443.686 L 603.26 440.831 L 601.064 439.952 Q 594.283 453.52 594.367 453.612 C 595.629 454.227 597.55 455.709 602.217 457.741 L 604.688 451.427 L 606.774 452.47 L 604.797 458.949 C 615.064 463.945 628.134 465.643 643.943 465.263 L 643.23 450.494 C 638.175 451.041 630.69 450.584 620.829 449.176 L 615.119 444.015 L 617.974 441.27 L 623.465 444.564 C 629.638 445.399 634.506 445.729 638.124 445.607 L 638.014 434.187 C 629.53 433.943 620.453 432.516 611.825 430.729 L 613.143 426.776 C 621.721 428.497 631.22 429.651 641.692 430.289 L 641.637 409.316 C 642.882 409.609 644.328 409.72 645.59 409.591 L 646.085 428.313 L 649.379 431.387 L 654.869 431.058 L 655.089 434.242 L 651.795 434.462 L 648.281 437.317 L 642.79 437.537 L 642.571 445.443 C 653.383 444.809 667.055 441.79 683.638 436.438 L 686.933 441.27 C 674.68 445.007 662.127 448.155 649.214 449.78 L 649.489 458.07 C 669.803 459.734 688.601 454.666 706.698 443.246 L 693.756 421.89 C 689.456 427.073 682.506 429.161 677.05 431.058 L 671.999 421.944 C 677.699 421.233 683.154 418.27 688.47 413.16 L 684.956 407.559 L 681.223 406.901 L 659.152 375.716 Z " fill="rgb(188,170,164)" />
                    <path d=" M 534.082 404.595 L 532.325 409.316 C 520.731 405.262 519.269 397.431 528.043 385.928 C 515.123 366.713 508.591 343.49 508.497 316.31 L 513.549 318.177 C 513.672 332.168 515.239 344.949 518.595 356.391 C 521.645 366.787 526.171 376.079 532.435 384.171 L 532.984 387.685 C 524.309 396.685 525.156 401.484 534.082 404.595 Z " fill="rgb(188,170,164)" />
                    <path d=" M 513.768 369.676 Q 516.815 376.09 525.408 387.794 L 485.658 406.132 L 485.219 403.826 L 522.443 387.026 Q 518.602 383.052 510.913 370.116 L 513.768 369.676 Z " fill="rgb(188,170,164)" />
                    <path d=" M 514.756 415.136 C 504.128 404.172 497.27 390.506 494.552 374.508 L 492.356 375.935 C 494.947 391.547 501.517 404.962 512.121 416.234 L 514.756 415.136 Z " fill="rgb(188,170,164)" />
                    <path d=" M 642.966 329.004 L 642.439 328.301 L 643.669 327.071 L 644.372 327.774 C 647.534 331.112 649.291 335.68 649.467 340.248 C 649.467 340.248 649.467 340.424 649.467 340.424 L 648.237 346.573 L 648.061 347.452 L 646.304 347.1 L 646.48 346.222 L 647.71 340.248 C 647.534 336.032 645.777 331.991 642.966 329.004 Z " fill="rgb(188,170,164)" />
                    <path d=" M 649.994 358.169 L 649.291 358.696 L 648.061 357.29 L 648.764 356.763 C 652.629 353.601 654.913 349.033 655.264 344.113 C 655.089 340.951 654.386 337.964 652.805 335.153 C 652.629 334.802 652.805 334.275 653.156 334.099 L 661.941 327.599 L 662.643 327.247 L 663.698 328.653 L 662.995 329.18 L 654.737 334.978 C 656.143 337.789 656.846 340.951 657.021 344.113 C 656.67 349.56 654.21 354.655 649.994 358.169 Z " fill="rgb(188,170,164)" />
                    <path d=" M 619.599 297.556 L 619.424 296.677 L 621.005 296.15 L 621.356 297.028 L 626.803 313.543 C 629.789 313.895 632.952 314.422 635.939 315.125 C 637.695 315.652 639.452 316.53 641.034 317.76 L 641.736 318.287 L 640.682 319.692 L 639.979 319.165 C 638.574 318.111 636.993 317.233 635.411 316.881 C 632.425 316.003 629.262 315.476 626.1 315.3 C 625.748 315.3 625.397 315.125 625.221 314.773 L 619.599 297.556 Z " fill="rgb(188,170,164)" />
                    <path d=" M 647.885 316.354 L 647.007 315.827 L 647.885 314.422 L 648.764 314.773 C 654.562 317.936 659.481 322.504 663.346 327.95 L 663.873 328.653 L 662.468 329.531 L 661.941 328.828 C 658.251 323.733 653.507 319.341 647.885 316.354 Z " fill="rgb(188,170,164)" />
                    <path d=" M 587.338 289.957 L 611.166 316.42 L 609.3 317.958 L 601.064 309.393 L 598.868 310.93 L 594.585 306.648 L 590.413 310.161 L 588.217 307.965 L 592.389 304.451 L 584.044 295.118 L 587.338 293.361 L 585.581 291.384 L 587.338 289.957 Z " fill="rgb(188,170,164)" />
                    <path d=" M 663.873 369.566 C 659.097 374.588 653.7 377.756 647.842 379.229 L 646.524 385.379 L 642.681 385.598 Q 643.217 393.16 642.351 396.908 L 637.08 397.457 L 636.971 394.932 L 640.594 394.492 C 640.625 387.168 639.619 379.5 637.63 371.543 C 641.498 370.591 644.501 369.275 646.743 367.7 L 647.402 370.116 C 645.279 371.689 643.285 372.733 641.473 373.3 L 642.461 381.096 L 644.767 380.986 L 645.426 377.582 C 653.582 374.931 658.927 371.529 662.446 367.919 L 663.873 369.566 Z " fill="rgb(188,170,164)" />
                    <path d=" M 655.857 348.154 L 667.826 351.668 L 666.179 355.511 L 653.991 351.778 L 655.857 348.154 Z " fill="rgb(188,170,164)" />
                    <path d=" M 627.088 342.993 C 624.028 348.624 621.741 352.011 620.28 353.205 C 624.607 357.733 627.811 360.241 629.943 360.782 L 636.312 360.672 L 636.751 366.382 L 632.359 366.602 C 631.261 369.64 630.694 371.818 627.857 373.849 L 625.112 371.982 C 626.744 371.267 630.091 364.777 628.296 363.088 Q 625.268 361.756 618.304 355.401 C 617.645 356.317 616.676 357.287 615.449 358.366 L 613.033 356.28 C 617.121 352.612 620.874 347.544 624.343 341.127 L 627.088 342.993 Z " fill="rgb(188,170,164)" />
                    <path d=" M 614.68 362.868 L 603.37 380.657 L 597.989 376.924 L 611.496 360.672 L 614.68 362.868 Z " fill="rgb(188,170,164)" />
                    <path d=" M 608.201 396.958 C 608.201 407.527 599.419 416.108 588.601 416.108 C 577.783 416.108 569.001 407.527 569.001 396.958 C 569.001 386.388 577.783 377.807 588.601 377.807 C 599.419 377.807 608.201 386.388 608.201 396.958 Z  M 613.45 396.996 C 613.45 403.497 610.815 409.821 606.071 414.389 C 601.328 418.957 595.003 421.417 588.502 421.417 C 582.002 421.417 575.853 418.957 571.109 414.389 C 566.365 409.821 563.73 403.497 563.73 396.996 C 563.73 390.496 566.365 384.171 571.109 379.603 C 575.853 375.035 582.002 372.399 588.678 372.575 C 595.178 372.399 601.503 375.035 606.071 379.603 C 610.815 384.171 613.45 390.496 613.45 396.996 Z " fill-rule="evenodd" fill="rgb(188,170,164)" />
                    <path d=" M 579.366 262.769 L 580.245 262.593 L 580.596 264.175 L 579.718 264.526 C 563.554 268.742 549.148 278.23 538.958 291.582 L 538.431 292.285 L 537.025 291.231 L 537.552 290.528 C 548.094 276.824 562.676 267.161 579.366 262.769 Z " fill="rgb(188,170,164)" />
                    <path d=" M 528.768 316.881 L 528.768 316.003 L 530.525 316.179 L 530.525 317.057 L 530.173 326.72 C 530.173 337.964 531.93 349.208 535.62 359.926 L 535.795 360.804 L 534.214 361.331 L 533.863 360.453 C 530.349 349.56 528.416 338.14 528.416 326.72 C 528.416 326.72 528.416 326.72 528.416 326.72 L 528.768 316.881 Z " fill="rgb(188,170,164)" />
                    <path d=" M 556.878 254.336 L 559.513 253.457 L 561.095 258.377 L 558.635 259.255 C 543.701 264.526 531.227 274.892 523.673 288.771 L 522.443 291.055 L 517.699 288.595 L 519.105 286.311 C 527.186 271.378 540.715 259.958 556.878 254.336 Z " fill="rgb(188,170,164)" />
                    <path d=" M 565.838 253.633 L 564.96 253.809 L 564.784 252.052 L 565.487 252.052 C 574.974 250.471 584.461 249.768 594.124 249.768 C 614.856 249.592 635.587 253.809 654.562 262.066 C 674.415 270.851 692.335 283.5 707.269 298.961 L 707.971 299.664 L 706.742 300.894 L 706.039 300.191 C 691.105 284.906 673.536 272.432 653.859 263.647 C 635.06 255.566 614.68 251.349 594.124 251.525 C 584.637 251.525 575.15 252.228 565.838 253.633 Z " fill="rgb(188,170,164)" />
                    <path d=" M 637.871 267.513 L 636.993 267.337 L 637.52 265.58 L 638.398 265.756 C 662.292 273.31 683.55 287.366 699.538 306.516 C 713.242 325.315 720.445 348.154 719.918 371.345 L 719.918 373.454 L 719.918 374.332 L 718.161 374.332 L 718.161 373.454 L 718.161 371.345 C 718.161 371.345 718.161 371.345 718.161 371.345 C 718.688 348.506 711.661 326.017 698.133 307.57 C 682.321 288.771 661.414 274.892 637.871 267.513 Z " fill="rgb(188,170,164)" />
                    <path d=" M 683.199 291.275 L 673.756 302.255 L 666.069 294.569 L 674.854 285.126 L 683.199 291.275 Z " fill="rgb(188,170,164)" />
                    <path d=" M 717.986 378.373 L 717.986 377.495 L 719.743 377.67 L 719.567 378.549 C 718.337 388.739 714.121 398.402 707.444 406.308 L 706.742 407.01 L 705.512 405.781 L 706.039 405.078 C 712.539 397.523 716.58 388.212 717.986 378.373 Z " fill="rgb(188,170,164)" />
                    <path d=" M 703.755 341.127 L 703.403 340.424 L 704.985 339.721 L 705.336 340.6 C 707.093 346.046 708.147 351.492 708.147 357.114 C 708.323 365.021 705.863 372.575 701.295 378.9 L 700.768 379.603 L 699.363 378.724 L 699.89 378.022 C 704.106 371.872 706.566 364.669 706.39 357.29 C 706.39 351.844 705.512 346.397 703.755 341.127 Z " fill="rgb(188,170,164)" />
                    <path d=" M 568.561 366.821 L 557.142 376.265 L 555.604 372.97 L 561.753 368.139 C 557.436 360.475 553.521 353.705 551.871 346.617 L 557.581 343.982 C 560.929 352.412 564.571 360.008 568.561 366.821 Z " fill="rgb(188,170,164)" />
                    <path d=" M 609.19 365.943 L 601.723 359.574 L 596.013 366.162" fill="none" vector-effect="non-scaling-stroke" stroke-width="2.635" stroke="rgb(188,170,164)" stroke-linejoin="miter" stroke-linecap="square" stroke-miterlimit="3" />
                    <path d=" M 715.482 390.759 L 768.628 412.281 L 770.824 406.791 L 718.117 381.975 L 715.482 390.759 Z " fill="rgb(188,170,164)" />
                    <path d=" M 693.012 292.049 L 692.203 292.812 C 715.536 317.023 725.928 347.495 722.729 385.708 L 734.149 390.539 C 741.34 378.109 742.312 364.66 740.298 352.547 L 751.938 354.962 L 751.279 349.033 L 735.028 344.201 L 727.78 345.519 L 726.902 349.252 L 723.169 348.813 L 722.07 344.421 L 732.612 340.687 L 732.173 335.197 L 735.906 333.221 L 740.957 337.832 L 743.812 335.636 L 737.443 327.511 L 739.2 324.656 L 768.628 325.534 L 763.358 316.75 L 738.541 317.189 L 729.537 321.801 L 723.169 313.895 L 738.761 305.989 L 737.004 303.353 L 730.196 305.989 C 725.012 299.165 720.25 293.452 715.921 288.859 C 712.932 285.688 710.149 283.052 707.576 280.953 L 703.623 283.369 C 708.114 286.541 712.855 291.868 717.898 299.4 L 705.551 304.987 C 701.239 300.216 697.665 295.682 693.012 292.049 Z " fill="rgb(188,170,164)" />
                    <path d=" M 803.547 423.525 C 803.722 425.458 803.02 427.215 801.79 428.62 C 800.56 430.026 798.803 430.904 796.87 431.08 C 794.938 430.904 793.181 430.026 791.951 428.62 C 790.721 427.215 790.019 425.458 790.194 423.525 C 790.019 421.593 790.721 419.836 791.951 418.43 C 793.181 417.025 794.938 416.146 796.87 415.971 C 798.803 416.146 800.56 417.025 801.79 418.43 C 803.02 419.836 803.722 421.593 803.547 423.525 Z  M 801.79 423.525 C 801.965 424.931 801.438 426.336 800.56 427.39 C 799.506 428.445 798.276 429.147 796.87 429.323 C 793.884 428.972 791.6 426.512 791.951 423.525 C 791.775 422.12 792.303 420.714 793.181 419.66 C 794.059 418.606 795.465 417.903 796.87 417.727 C 798.276 417.903 799.682 418.606 800.56 419.66 C 801.438 420.714 801.965 422.12 801.79 423.525 Z " fill-rule="evenodd" fill="rgb(188,170,164)" />
                    <path d=" M 806.182 423.525 C 806.358 426.512 805.304 429.323 803.371 431.607 C 801.263 433.715 798.627 435.121 795.641 435.296 C 792.654 435.121 789.843 433.715 787.735 431.607 C 785.802 429.323 784.748 426.512 784.924 423.525 C 784.748 420.539 785.802 417.552 787.735 415.443 C 789.843 413.16 792.654 411.93 795.465 411.754 C 798.452 411.93 801.263 413.16 803.195 415.443 C 805.304 417.552 806.358 420.539 806.182 423.525 Z  M 804.425 423.525 C 804.601 425.985 803.722 428.445 801.965 430.377 C 800.384 432.31 797.925 433.364 795.465 433.54 C 793.005 433.364 790.721 432.31 789.14 430.377 C 787.383 428.445 786.505 425.985 786.68 423.525 C 786.505 421.066 787.383 418.606 789.14 416.673 C 790.721 414.741 793.005 413.687 795.465 413.511 C 798.1 413.687 800.384 414.741 801.965 416.673 C 803.722 418.606 804.601 421.066 804.425 423.525 Z " fill-rule="evenodd" fill="rgb(188,170,164)" />
                    <path d=" M 808.817 423.525 C 808.993 427.566 807.588 431.607 804.952 434.594 C 802.141 437.756 798.452 439.513 794.235 439.864 C 790.194 439.513 786.329 437.756 783.518 434.594 C 780.883 431.607 779.477 427.566 779.653 423.525 C 779.477 419.484 780.883 415.443 783.518 412.281 C 786.329 409.294 790.194 407.362 794.235 407.186 C 798.276 407.362 802.141 409.294 804.952 412.281 C 807.588 415.443 808.993 419.484 808.817 423.525 Z  M 807.06 423.525 C 807.236 427.215 806.006 430.729 803.722 433.54 C 801.263 436.175 797.749 437.756 794.235 438.108 C 790.546 437.756 787.208 436.175 784.748 433.364 C 782.464 430.729 781.234 427.215 781.41 423.525 C 781.234 419.836 782.464 416.322 784.748 413.511 C 787.208 410.876 790.546 409.119 794.235 408.943 C 797.925 409.119 801.263 410.876 803.722 413.511 C 806.006 416.322 807.236 419.836 807.06 423.525 Z " fill-rule="evenodd" fill="rgb(188,170,164)" />
                    <path d=" M 811.628 422.998 C 811.804 428.62 810.047 434.067 806.358 438.108 C 802.668 442.324 797.398 444.784 791.951 445.135 C 786.329 444.784 781.234 442.324 777.545 438.108 C 773.855 434.067 771.923 428.62 772.274 422.998 C 771.923 417.552 773.855 412.105 777.545 407.889 C 781.234 403.848 786.329 401.388 791.951 401.037 C 797.398 401.388 802.668 403.848 806.358 407.889 C 810.047 412.105 811.804 417.552 811.628 422.998 Z  M 809.872 422.998 C 810.047 428.093 808.466 433.188 804.952 436.878 C 801.614 440.743 796.87 443.027 791.775 443.378 C 786.856 443.027 782.113 440.743 778.774 436.878 C 775.436 433.188 773.679 428.093 774.031 422.998 C 773.679 418.079 775.436 412.984 778.774 409.294 C 782.113 405.429 786.856 403.145 791.951 402.794 C 796.87 403.145 801.614 405.429 804.952 409.294 C 808.466 412.984 810.047 418.079 809.872 422.998 Z " fill-rule="evenodd" fill="rgb(188,170,164)" />
                    <path d=" M 790.194 395.239 C 797.046 395.766 803.722 398.929 808.29 404.024 C 812.858 409.294 815.318 416.146 814.967 422.998 C 815.318 430.026 812.858 436.878 808.29 441.973 C 803.722 447.243 797.046 450.406 790.194 450.757 C 783.167 450.406 776.666 447.243 771.923 442.148 C 767.355 436.878 764.895 430.026 765.422 422.998 C 764.895 416.146 767.355 409.294 771.923 404.024 C 776.666 398.929 783.167 395.766 790.019 395.239 C 790.019 395.239 790.019 395.239 790.194 395.239 L 790.194 395.239 L 790.194 395.239 C 790.194 395.239 790.019 395.239 790.019 395.239 M 790.019 396.996 C 790.019 396.996 790.019 396.996 790.194 396.996 L 790.194 396.996 L 790.019 396.996 Z  M 790.019 396.996 C 790.019 396.996 790.019 396.996 790.194 396.996 C 796.695 397.523 802.668 400.51 807.06 405.254 C 811.277 410.173 813.561 416.498 813.21 422.998 C 813.561 429.499 811.277 435.999 807.06 440.919 C 802.668 445.662 796.519 448.649 790.019 449 C 783.694 448.649 777.545 445.662 773.152 440.919 C 768.936 435.999 766.652 429.499 767.179 422.998 C 766.652 416.498 768.936 410.173 773.152 405.254 C 777.545 400.51 783.694 397.523 790.194 396.996" fill-rule="evenodd" fill="rgb(188,170,164)" />
                    <path d=" M 792.907 450.534 L 800.986 470.951 L 803.042 469.923 L 799.076 459.053 C 801.556 458.13 803.693 457.084 804.952 455.969 L 807.742 461.11 L 810.093 458.906 L 806.861 452.59 C 807.996 452.256 809.087 450.752 810.827 449.065 L 809.064 445.392 C 805.269 448.949 800.908 451.687 795.551 452.59 L 794.669 449.946 L 792.907 450.534 Z " fill="rgb(188,170,164)" />
                    <path d=" M 782.771 449.212 L 784.975 446.274 L 787.325 447.302 C 787.129 448.918 786.132 450.81 784.387 453.031 C 781.743 452.933 778.885 452.426 775.867 451.562 C 774.447 454.647 770.464 458.252 766.907 461.55 L 762.06 459.641 C 767.438 455.386 772.251 449.426 776.602 441.867 L 781.008 444.511 L 779.393 447.743 L 782.771 449.212 Z " fill="rgb(188,170,164)" />
                    <path d=" M 776.666 422.295 L 777.545 422.295 L 777.72 424.052 L 776.842 424.052 L 746.799 424.404 C 744.515 429.147 741.704 433.364 738.014 437.053 L 737.312 437.756 L 736.082 436.526 L 736.785 435.824 C 740.298 432.134 743.285 427.917 745.393 423.174 C 745.569 422.822 745.92 422.647 746.272 422.647 L 776.666 422.295 Z " fill="rgb(188,170,164)" />
                    <path d=" M 746.975 382.59 L 747.15 381.711 L 748.907 382.062 L 748.731 382.941 C 746.975 391.55 744.163 399.807 740.65 407.889 L 740.298 408.592 L 738.717 407.889 L 739.068 407.186 C 742.582 399.28 745.218 391.023 746.975 382.59 Z " fill="rgb(188,170,164)" />
                    <path d=" M 737.487 401.564 L 737.839 400.686 L 739.42 401.388 L 739.068 402.267 C 736.433 408.592 732.744 414.565 728.176 419.66 C 728 419.836 727.824 420.011 727.473 420.011 C 727.297 420.011 727.122 419.836 726.946 419.66 L 719.04 411.403 C 714.823 417.552 709.728 422.998 703.931 427.742 L 703.403 428.269 L 702.174 426.863 L 702.876 426.336 C 708.674 421.417 713.945 415.795 718.161 409.47 C 718.337 409.294 718.513 409.119 718.864 409.119 C 719.04 409.119 719.391 409.119 719.567 409.47 L 727.473 417.727 C 731.69 412.984 735.028 407.537 737.487 401.564 Z " fill="rgb(188,170,164)" />
                    <path d=" M 683.474 393.981 C 680.921 396.907 678.351 399.777 673.981 401.662 L 677.304 406.026 C 673.965 409.416 669.193 410.943 663.87 412.501 L 662.585 410.231 C 665.986 409.445 669.121 408.139 672.096 406.418 L 670.211 403.419 C 668.26 404.106 666.641 404.517 665.406 404.704 L 663.937 402.354 C 669.591 401.316 675.539 398.059 681.858 391.484 L 683.474 393.981 Z " fill="rgb(188,170,164)" />
                    <path d=" M 537.904 267.337 L 539.133 268.391 L 536.849 271.202 L 535.62 269.972 L 514.361 252.052 L 512.956 250.822 L 515.24 248.187 L 516.469 249.241 L 537.904 267.337 Z " fill="rgb(188,170,164)" />
                </g>
                <g id="megacity 2">
                    <path d=" M 441.45 441.27 C 441.45 447.419 438.99 453.217 434.598 457.433 C 430.206 461.826 424.408 464.11 418.259 464.11 C 412.11 464.11 406.312 461.826 401.92 457.433 C 397.527 453.217 395.068 447.419 395.068 441.27 C 395.068 435.121 397.527 429.323 401.92 425.106 C 406.312 420.714 412.11 418.43 418.259 418.43 C 424.408 418.43 430.206 420.714 434.598 425.106 C 438.99 429.323 441.45 435.121 441.45 441.27 Z  M 439.693 441.27 C 439.693 446.892 437.409 452.338 433.368 456.204 C 429.327 460.244 423.881 462.353 418.259 462.353 C 412.637 462.353 407.19 460.244 403.149 456.204 C 399.108 452.338 396.825 446.892 396.825 441.27 C 396.825 435.648 399.108 430.201 403.149 426.336 C 407.19 422.295 412.637 420.187 418.259 420.187 C 423.881 420.187 429.327 422.295 433.368 426.336 C 437.409 430.201 439.693 435.648 439.693 441.27 Z " fill-rule="evenodd" fill="rgb(188,170,164)" />
                    <path d=" M 452.167 441.27 C 452.167 450.23 448.477 458.663 442.153 464.988 C 435.828 471.313 427.219 474.651 418.259 474.651 C 409.299 474.651 400.69 471.313 394.365 464.988 C 388.04 458.663 384.351 450.23 384.351 441.27 C 384.351 432.31 388.04 423.877 394.365 417.552 C 400.69 411.227 409.299 407.889 418.259 407.889 C 427.219 407.889 435.828 411.227 442.153 417.552 C 448.477 423.877 452.167 432.31 452.167 441.27 Z  M 450.41 441.27 C 450.41 449.703 446.896 457.785 440.923 463.758 C 434.949 469.732 426.692 472.894 418.259 472.894 C 409.826 472.894 401.744 469.732 395.595 463.758 C 389.621 457.785 386.107 449.703 386.107 441.27 C 386.107 432.837 389.621 424.755 395.595 418.782 C 401.744 412.808 409.826 409.646 418.259 409.646 C 426.692 409.646 434.949 412.808 440.923 418.782 C 446.896 424.755 450.41 432.837 450.41 441.27 Z " fill-rule="evenodd" fill="rgb(188,170,164)" />
                    <path d=" M 442.389 362.209 C 442.389 386.936 422.366 407.01 397.703 407.01 C 373.04 407.01 353.017 386.936 353.017 362.209 C 353.017 337.483 373.04 317.409 397.703 317.409 C 422.366 317.409 442.389 337.483 442.389 362.209 Z  M 452.87 362.209 C 452.87 376.792 447.072 391.023 436.706 401.388 C 426.516 411.754 412.285 417.552 397.703 417.552 C 383.121 417.552 369.066 411.754 358.7 401.388 C 348.334 391.023 342.536 376.792 342.536 362.209 C 342.536 347.627 348.334 333.396 358.7 323.031 C 369.066 312.665 383.121 306.867 397.703 306.867 C 412.285 306.867 426.34 312.665 436.706 323.031 C 447.072 333.396 452.87 347.627 452.87 362.209 Z " fill-rule="evenodd" fill="rgb(188,170,164)" />
                    <path d=" M 440.301 441.416 C 440.081 446.478 437.807 451.547 433.646 457.521 L 437.233 463.231 L 446.018 466.745 L 447.775 464.988 L 438.99 461.474 L 440.747 456.204 L 442.504 457.96 L 444.261 454.447 L 440.747 450.933 L 440.747 449.176 L 442.504 449.176 L 444.261 443.905 L 449.532 443.905 L 451.288 449.176 L 453.045 449.176 L 454.802 445.662 L 475.885 466.745 L 465.344 477.286 L 467.1 479.043 L 477.642 468.502 L 479.399 470.259 L 470.468 478.824 L 472.518 481.093 L 482.107 472.455 L 485.987 475.969 L 481.156 475.529 L 478.96 477.286 L 483.352 478.092 L 482.986 482.337 L 477.788 482.191 L 474.641 487.242 L 476.324 488.194 L 478.594 484.607 L 483.498 484.68 L 486.426 486.071 L 488.183 484.314 L 484.962 482.85 L 485.328 478.238 L 488.476 478.677 L 491.697 475.529 L 460.073 443.905 L 460.073 442.148 L 463.587 442.148 L 463.587 438.635 L 460.073 438.635 L 460.073 435.121 L 467.247 432.925 L 474.128 436.878 L 475.885 435.121 L 471.786 432.339 L 479.399 426.336 L 489.94 436.878 L 479.399 447.419 L 481.156 449.176 L 491.99 439.074 L 500.408 447.565 L 502.604 445.443 L 484.669 426.336 L 489.94 421.066 L 477.642 421.066 L 468.125 429.411 L 460.073 424.579 L 458.316 419.309 L 461.83 417.552 L 461.83 414.038 L 454.802 417.552 L 451.288 415.795 L 435.476 428.093 C 438.91 432.139 440.512 436.573 440.301 441.416 Z " fill="rgb(188,170,164)" />
                    <path d=" M 462.625 359.574 C 462.625 394.482 433.534 422.822 397.703 422.822 C 361.872 422.822 332.781 394.482 332.781 359.574 C 332.781 324.666 361.872 296.326 397.703 296.326 C 433.534 296.326 462.625 324.666 462.625 359.574 Z  M 467.979 359.574 C 467.628 378.022 460.073 395.591 446.896 408.416 C 433.719 421.241 415.975 428.269 397.703 428.093 C 379.256 428.269 361.511 421.241 348.334 408.416 C 335.333 395.591 327.778 378.022 327.427 359.574 C 327.778 341.127 335.333 323.558 348.334 310.732 C 361.511 297.907 379.256 290.879 397.703 291.055 C 416.15 290.879 433.895 297.907 447.072 310.732 C 460.073 323.558 467.628 341.127 467.979 359.574 Z " fill-rule="evenodd" fill="rgb(188,170,164)" />
                    <path d=" M 498.725 349.911 C 498.725 352.335 496.757 354.303 494.332 354.303 C 491.908 354.303 489.94 352.335 489.94 349.911 C 489.94 347.487 491.908 345.519 494.332 345.519 C 496.757 345.519 498.725 347.487 498.725 349.911 Z " fill="rgb(188,170,164)" />
                    <path d=" M 510.145 349.911 C 510.145 354.128 508.563 358.169 505.577 361.155 C 502.59 364.142 498.549 365.723 494.332 365.723 C 490.116 365.723 486.075 364.142 483.088 361.155 C 480.102 358.169 478.52 354.128 478.52 349.911 C 478.52 345.695 480.102 341.654 483.088 338.667 C 486.075 335.68 490.116 334.099 494.332 334.099 C 498.549 334.099 502.59 335.68 505.577 338.667 C 508.563 341.654 510.145 345.695 510.145 349.911 Z  M 504.874 349.911 C 504.874 352.722 503.82 355.358 501.711 357.29 C 499.779 359.398 497.143 360.453 494.332 360.453 C 491.521 360.453 488.886 359.398 486.953 357.29 C 484.845 355.358 483.791 352.722 483.791 349.911 C 483.791 347.1 484.845 344.465 486.953 342.532 C 488.886 340.424 491.521 339.37 494.332 339.37 C 497.143 339.37 499.779 340.424 501.711 342.532 C 503.82 344.465 504.874 347.1 504.874 349.911 Z " fill-rule="evenodd" fill="rgb(188,170,164)" />
                    <path d=" M 447.775 464.988 C 443.693 470.862 437.198 474.909 428.449 477.286 L 428.449 484.314 L 431.963 484.314 Q 434.488 479.043 433.719 479.043 Q 432.951 479.043 442.504 477.286 L 444.261 479.043 L 446.018 479.043 L 446.018 477.286 Q 459.414 464.768 460.073 464.988 Q 460.732 465.208 458.316 463.231 Q 453.814 466.525 453.045 466.745 Q 452.277 466.965 447.775 464.988 Z " fill="rgb(188,170,164)" />
                    <path d=" M 457.613 441.27 C 457.438 451.636 453.397 461.474 446.018 468.678 C 438.639 476.057 428.624 480.097 418.259 479.922 C 407.893 479.922 398.054 476.057 390.675 468.678 C 383.296 461.474 379.08 451.636 378.904 441.27 C 379.08 430.904 383.296 421.066 390.675 413.862 C 398.054 406.483 407.893 402.618 418.259 402.618 C 428.624 402.618 438.639 406.483 446.018 413.862 C 453.397 421.066 457.438 430.904 457.613 441.27 Z  M 455.856 441.27 C 455.681 451.109 451.815 460.596 444.788 467.448 C 437.585 474.475 428.097 478.165 418.259 478.165 C 408.42 478.165 398.933 474.475 391.905 467.448 C 384.878 460.596 380.837 451.109 380.661 441.27 C 380.837 431.431 384.878 421.944 391.905 415.092 C 398.933 408.065 408.42 404.375 418.259 404.375 C 428.097 404.375 437.585 408.065 444.788 415.092 C 451.815 421.944 455.681 431.431 455.856 441.27 Z " fill-rule="evenodd" fill="rgb(62,39,35)" />
                    <path d=" M 394.72 367.387 C 394.2 367.657 393.609 367.81 392.981 367.81 C 390.921 367.81 389.248 366.161 389.248 364.131 C 389.248 362.101 390.921 360.453 392.981 360.453 C 394.947 360.453 396.56 361.952 396.704 363.853 L 392.981 364.131 L 394.72 367.387 Z " fill="rgb(188,170,164)" />
                    <path d=" M 456.779 319.495 C 467.559 335.673 472.446 351.724 469.955 364.845 L 473.799 365.284 L 473.908 357.049 L 481.046 355.182 L 482.034 341.566 L 475.556 340.687 L 456.779 319.495 Z " fill="rgb(188,170,164)" />
                    <path d=" M 467.65 375.276 L 436.684 365.394 L 433.939 372.861 L 464.904 385.269 L 467.65 375.276 Z " fill="rgb(62,39,35)" />
                    <path d=" M 384.526 327.511 L 371.569 308.624 L 356.855 318.067 L 371.789 335.197 L 384.526 327.511 Z " fill="rgb(62,39,35)" />
                </g>
                <g id="megacity 3">
                    <path d=" M 236.947 584.457 C 237.122 590.255 235.893 596.053 233.433 601.323 C 232.027 605.54 228.162 608.527 223.77 609.054 C 219.378 608.527 215.513 605.54 214.107 601.323 C 211.647 596.053 210.418 590.255 210.593 584.457 C 210.418 578.659 211.647 572.862 214.107 567.591 C 215.513 563.374 219.378 560.388 223.77 559.861 C 228.162 560.388 232.027 563.374 233.433 567.591 C 235.893 572.862 237.122 578.659 236.947 584.457 Z  M 233.433 584.457 C 233.609 589.728 232.554 594.999 230.27 599.918 C 229.216 602.905 226.757 605.013 223.77 605.54 C 220.783 605.013 218.324 602.905 217.269 599.918 C 214.985 595.174 213.931 589.728 214.107 584.457 C 213.931 579.187 214.985 573.74 217.269 568.997 C 218.324 566.01 220.783 563.902 223.77 563.374 C 226.757 563.902 229.216 566.01 230.27 568.997 C 232.554 573.74 233.609 579.187 233.433 584.457 Z " fill-rule="evenodd" fill="rgb(161,136,127)" />
                    <path d=" M 243.974 584.457 C 244.15 593.944 242.217 603.432 238.177 612.216 C 236.068 618.541 230.446 623.109 223.77 623.987 C 217.094 623.109 211.472 618.541 209.363 612.041 C 205.323 603.432 203.39 593.944 203.566 584.457 C 203.39 574.97 205.323 565.483 209.363 556.874 C 211.472 550.373 217.094 545.805 223.77 544.927 C 230.446 545.805 236.068 550.373 238.177 556.874 C 242.217 565.483 244.15 574.97 243.974 584.457 Z  M 242.217 584.457 C 242.393 593.769 240.636 602.905 236.595 611.338 C 234.663 617.136 229.743 621.352 223.77 622.231 C 217.797 621.352 212.877 617.136 210.945 611.513 C 206.904 603.08 205.147 593.769 205.323 584.457 C 205.147 575.146 206.904 565.834 210.945 557.401 C 212.877 551.779 217.797 547.562 223.77 546.684 C 229.743 547.562 234.663 551.779 236.595 557.401 C 240.636 565.834 242.393 575.146 242.217 584.457 Z " fill-rule="evenodd" fill="rgb(161,136,127)" />
                    <path d=" M 251.88 584.457 C 252.232 597.107 249.596 609.581 244.15 620.825 C 240.988 629.258 233.433 635.232 224.648 636.286 C 215.864 635.232 208.309 629.258 205.147 620.825 C 199.7 609.581 197.065 597.107 197.416 584.457 C 197.065 571.808 199.7 559.334 205.147 548.089 C 208.309 539.656 215.864 533.683 224.648 532.629 C 233.433 533.683 240.988 539.656 244.15 548.089 C 249.596 559.334 252.232 571.808 251.88 584.457 Z  M 250.123 584.457 C 250.475 596.756 247.839 609.054 242.569 620.122 C 239.758 627.853 232.73 633.475 224.648 634.529 C 216.567 633.475 209.539 627.853 206.904 620.122 C 201.457 609.054 198.822 596.756 199.173 584.457 C 198.822 572.159 201.457 559.861 206.904 548.792 C 209.539 541.062 216.567 535.44 224.648 534.386 C 232.73 535.44 239.758 541.062 242.393 548.792 C 247.839 559.861 250.475 572.159 250.123 584.457 Z " fill-rule="evenodd" fill="rgb(161,136,127)" />
                    <path d=" M 267.692 584.457 C 268.044 599.742 264.354 615.027 256.8 628.38 C 251.705 638.745 241.339 645.773 229.743 646.827 C 218.324 645.773 207.958 638.745 202.863 628.38 C 195.308 615.027 191.619 599.742 191.97 584.457 C 191.619 569.172 195.308 553.887 202.863 540.535 C 207.958 530.169 218.324 523.141 229.743 522.087 C 241.339 523.141 251.705 530.169 256.8 540.535 C 264.354 553.887 268.044 569.172 267.692 584.457 Z  M 265.936 584.457 C 266.287 599.567 262.597 614.325 255.218 627.501 C 250.475 637.34 240.812 644.016 229.743 645.07 C 218.851 644.016 209.188 637.34 204.444 627.501 C 197.065 614.325 193.376 599.567 193.727 584.457 C 193.376 569.348 197.065 554.59 204.444 541.413 C 209.188 531.575 218.851 524.898 229.743 523.844 C 240.812 524.898 250.475 531.575 255.218 541.413 C 262.597 554.59 266.287 569.348 265.936 584.457 Z " fill-rule="evenodd" fill="rgb(161,136,127)" />
                    <path d=" M 280.869 583.93 C 281.396 602.202 276.653 619.947 267.341 635.583 C 260.665 648.057 248.015 656.314 233.784 657.369 C 219.729 656.314 207.079 648.057 200.403 635.407 C 191.092 619.947 186.348 602.026 186.875 583.93 C 186.348 566.01 191.092 548.089 200.403 532.629 C 207.079 519.979 219.729 511.722 233.784 510.667 C 248.015 511.722 260.665 519.979 267.341 532.629 C 276.653 548.089 281.396 566.01 280.869 584.106 M 277.355 583.93 C 277.882 601.499 273.315 618.717 264.354 633.65 C 258.205 645.246 246.785 652.801 233.784 653.855 C 220.959 652.801 209.363 645.246 203.39 633.826 C 194.43 618.717 189.862 601.499 190.389 584.106 C 189.862 566.537 194.43 549.319 203.39 534.21 C 209.363 522.79 220.959 515.235 233.784 514.181 C 246.785 515.235 258.205 522.79 264.354 534.21 C 273.315 549.319 277.882 566.537 277.355 583.93 Z " fill-rule="evenodd" fill="rgb(161,136,127)" />
                </g>
                <g id="megacity 4">
                    <path d=" M 766.652 588.849 C 767.355 597.985 764.368 606.946 758.57 613.797 C 752.597 620.649 744.163 625.042 735.028 625.744 C 725.892 625.042 717.459 620.825 711.485 613.797 C 705.687 606.946 702.701 597.985 703.403 588.849 C 702.701 579.714 705.687 570.753 711.485 563.902 C 717.459 556.874 725.892 552.657 735.028 551.955 C 744.163 552.657 752.597 556.874 758.57 563.902 C 764.368 570.753 767.355 579.714 766.652 588.849 Z  M 764.895 588.849 C 765.598 597.458 762.787 606.067 757.165 612.568 C 751.542 619.244 743.636 623.285 735.028 623.987 C 726.419 623.285 718.337 619.244 712.891 612.568 C 707.269 606.067 704.458 597.458 705.16 588.849 C 704.458 580.241 707.269 571.632 712.891 565.131 C 718.337 558.455 726.419 554.414 735.028 553.711 C 743.636 554.414 751.718 558.455 757.165 565.131 C 762.787 571.632 765.598 580.241 764.895 588.849 Z " fill-rule="evenodd" fill="rgb(188,170,164)" />
                    <path d=" M 772.625 588.849 C 772.801 600.094 768.936 611.162 761.732 619.771 C 755.056 627.853 745.393 632.596 735.028 632.772 C 724.662 632.596 714.999 627.853 708.323 619.771 C 701.119 611.162 697.254 600.094 697.43 588.849 C 697.254 577.605 701.119 566.537 708.323 557.928 C 714.999 549.846 724.662 545.103 735.028 544.927 C 745.393 545.103 755.056 549.846 761.732 557.928 C 768.936 566.537 772.801 577.605 772.625 588.849 Z  M 770.868 588.849 C 771.044 599.742 767.355 610.284 760.327 618.717 C 754.178 626.271 744.866 630.839 735.028 631.015 C 725.189 630.839 715.877 626.271 709.728 618.717 C 702.701 610.284 699.011 599.742 699.187 588.849 C 699.011 577.957 702.701 567.415 709.728 558.982 C 715.877 551.428 725.189 546.86 735.028 546.684 C 744.866 546.86 754.178 551.428 760.327 558.982 C 767.355 567.415 771.044 577.957 770.868 588.849 Z " fill-rule="evenodd" fill="rgb(188,170,164)" />
                    <path d=" M 763.198 547.786 L 759.614 553.107 C 755.149 549.242 750.425 546.509 745.93 544.745 L 744.193 546.808 C 734.958 543.77 725.385 545.129 715.63 551.044 L 712.698 538.337 L 705.639 541.813 L 703.467 539.098 L 708.028 533.559 L 702.924 528.455 L 698.797 531.17 L 692.933 530.735 L 693.584 527.043 L 697.928 527.369 L 704.444 523.133 L 708.68 526.5 L 716.173 522.264 L 709.006 513.685 L 713.35 510.861 L 719.106 515.64 L 722.798 516.508 L 721.169 520.201 L 723.124 522.481 L 733.115 523.568 L 734.527 533.993 L 731.704 535.948 L 737.785 540.727 L 742.781 539.423 C 748.758 541.735 754.535 544.326 759.071 548.763 L 761.135 545.831 L 763.198 547.786 Z " fill="rgb(188,170,164)" />
                    <path d=" M 729.097 527.26 L 722.472 526.174 L 726.382 531.604 L 723.124 533.559 L 717.694 526.608 L 714.544 528.672 L 717.477 541.813 L 731.052 540.184 L 726.165 536.165 L 729.966 533.342 L 729.097 527.26 Z " fill="rgb(62,39,35)" />
                </g>
                <g id="megacity 5">
                    <path d=" M 674.063 669.667 C 674.239 681.789 669.495 693.561 660.886 702.345 C 652.453 711.13 640.682 716.049 628.56 716.225 C 616.261 716.049 604.666 711.13 596.233 702.345 C 587.624 693.561 582.88 681.789 583.056 669.667 C 582.88 657.544 587.624 645.773 596.233 636.988 C 604.666 628.204 616.261 623.285 628.56 623.109 C 640.682 623.285 652.453 628.204 660.886 636.988 C 669.495 645.773 674.239 657.544 674.063 669.667 Z  M 670.549 669.667 C 670.725 680.911 666.333 691.804 658.427 699.885 C 650.521 707.967 639.804 712.535 628.56 712.711 C 617.315 712.535 606.598 707.967 598.692 699.885 C 590.786 691.804 586.394 680.911 586.57 669.667 C 586.394 658.423 590.786 647.53 598.692 639.448 C 606.598 631.366 617.315 626.799 628.56 626.623 C 639.804 626.799 650.521 631.366 658.427 639.448 C 666.333 647.53 670.725 658.423 670.549 669.667 Z " fill-rule="evenodd" fill="rgb(161,136,127)" />
                    <path d=" M 628.56 616.081 M 628.56 616.081 C 642.615 616.257 655.967 622.055 665.806 632.069 C 675.644 642.084 681.091 655.612 680.915 669.667 C 681.091 683.722 675.644 697.25 665.806 707.264 C 655.967 717.279 642.615 723.077 628.56 723.252 C 614.504 723.077 601.152 717.279 591.313 707.264 C 581.475 697.25 576.028 683.722 576.204 669.667 C 576.028 655.612 581.475 642.084 591.313 632.069 C 601.152 622.055 614.504 616.257 628.56 616.081 C 628.56 616.081 628.56 616.081 628.56 616.081 L 628.56 616.081 Z  M 628.56 616.081 M 628.56 619.595 M 628.56 619.595 L 628.56 619.595 C 628.56 619.595 628.56 619.595 628.56 619.595 Z  M 628.56 619.595 C 641.736 619.771 654.21 625.217 663.346 634.529 C 672.482 643.84 677.577 656.49 677.401 669.667 C 677.577 682.844 672.482 695.493 663.346 704.805 C 654.21 714.292 641.561 719.563 628.56 719.738 C 615.383 719.563 602.909 714.116 593.773 704.805 C 584.637 695.493 579.542 682.844 579.718 669.667 C 579.542 656.49 584.637 643.84 593.773 634.529 C 602.909 625.217 615.383 619.771 628.56 619.595 Z " fill-rule="evenodd" fill="rgb(161,136,127)" />
                    <path d=" M 629.088 594.73 L 629.01 598.319 L 631.975 598.397 L 632.053 603.546 L 628.62 603.702 L 628.62 613.923 L 630.804 614.001 L 630.882 616.732 L 628.698 616.81 L 628.698 621.725 L 632.911 621.725 L 633.067 628.669 L 628.932 628.669 L 629.01 636.315 C 635.104 635.179 639.802 631.087 643.209 624.144 L 646.954 624.612 C 642.183 634.53 635.361 639.93 626.591 640.918 L 626.357 628.669 L 621.988 628.669 L 621.988 631.867 L 617.931 631.711 L 617.541 622.427 L 614.264 622.349 L 614.264 631.867 L 609.037 632.102 L 609.505 622.271 C 612.503 620.029 616.751 618.607 622.3 618.058 L 622.3 621.881 L 624.563 621.881 L 624.251 614.001 L 626.279 613.923 L 626.279 611.816 L 622.69 611.66 L 622.612 607.915 L 624.641 607.915 L 624.719 601.362 L 626.591 601.362 L 626.669 594.73 L 629.088 594.73 Z " fill="rgb(161,136,127)" />
                    <path d=" M 623.236 641.23 L 623.002 636.705 C 620.444 636.447 618.034 635.077 615.824 632.648 L 612.547 634.208 C 615.449 637.813 618.995 640.136 623.236 641.23 Z " fill="rgb(161,136,127)" />
                </g>
                <g id="megacity 6">
                    <path d=" M 437.233 603.783 C 437.409 614.852 433.017 625.569 425.286 633.475 C 417.556 641.381 407.015 645.773 395.946 645.949 C 384.878 645.773 374.336 641.381 366.606 633.475 C 358.875 625.569 354.483 614.852 354.659 603.783 C 354.483 592.715 358.875 581.998 366.606 574.092 C 374.336 566.185 384.878 561.793 395.946 561.618 C 407.015 561.793 417.556 566.185 425.286 574.092 C 433.017 581.998 437.409 592.715 437.233 603.783 Z  M 433.719 603.783 C 433.895 613.973 429.854 623.636 422.827 631.015 C 415.799 638.218 406.136 642.259 395.946 642.435 C 385.756 642.259 376.093 638.218 369.066 631.015 C 362.038 623.636 357.997 613.973 358.173 603.783 C 357.997 593.593 362.038 583.93 369.066 576.551 C 376.093 569.348 385.756 565.307 395.946 565.131 C 406.136 565.307 415.799 569.348 422.827 576.551 C 429.854 583.93 433.895 593.593 433.719 603.783 Z " fill-rule="evenodd" fill="rgb(188,170,164)" />
                    <path d=" M 442.328 603.783 C 442.504 616.257 437.76 628.204 428.976 637.164 C 420.367 645.949 408.42 651.044 395.946 651.219 C 383.472 651.044 371.525 645.949 362.916 637.164 C 354.132 628.204 349.388 616.257 349.564 603.783 C 349.388 591.309 354.132 579.362 362.916 570.402 C 371.525 561.618 383.472 556.523 395.946 556.347 C 408.42 556.523 420.367 561.618 428.976 570.402 C 437.76 579.362 442.504 591.309 442.328 603.783 Z  M 438.814 603.783 C 438.99 615.379 434.598 626.447 426.516 634.705 C 418.434 642.962 407.366 647.53 395.946 647.706 C 384.351 647.53 373.458 642.786 365.376 634.705 C 357.294 626.447 352.902 615.379 353.078 603.783 C 352.902 592.188 357.294 581.119 365.376 572.862 C 373.458 564.78 384.351 560.036 395.946 559.861 C 407.542 560.036 418.434 564.78 426.516 572.862 C 434.598 581.119 438.99 592.188 438.814 603.783 Z " fill-rule="evenodd" fill="rgb(188,170,164)" />
                    <path d=" M 423.178 486.071 L 412.909 490.551 L 400.338 587.971 L 393.311 596.756 L 393.311 594.999 L 398.581 587.971 L 407.946 491.203 L 396.825 484.314 L 398.581 473.773 C 406.452 478.016 415.83 480.451 423.178 479.043 L 423.178 486.071 Z " fill="rgb(188,170,164)" />
                    <path d=" M 395.068 599.391 C 395.068 601.499 394.189 603.432 392.784 605.013 C 391.202 606.418 389.27 607.297 387.162 607.297 C 385.053 607.297 383.121 606.418 381.539 605.013 C 380.134 603.432 379.256 601.499 379.256 599.391 C 379.256 597.283 380.134 595.35 381.539 593.769 C 383.121 592.363 385.053 591.485 387.162 591.485 C 389.27 591.485 391.202 592.363 392.784 593.769 C 394.189 595.35 395.068 597.283 395.068 599.391 Z  M 391.554 599.391 C 391.554 600.621 391.027 601.675 390.324 602.553 C 389.446 603.256 388.391 603.783 387.162 603.783 C 384.702 603.783 382.769 601.851 382.769 599.391 C 382.769 596.931 384.702 594.999 387.162 594.999 C 388.391 594.999 389.446 595.526 390.324 596.228 C 391.027 597.107 391.554 598.161 391.554 599.391 Z " fill-rule="evenodd" fill="rgb(188,170,164)" />
                    <path d=" M 395.287 650.561 L 395.507 739.504 L 406.268 746.751 L 406.268 753.12 L 402.315 753.339 L 402.315 748.508 L 391.773 741.919 L 390.236 650.121 L 395.287 650.561 Z " fill="rgb(188,170,164)" />
                </g>
                <g id="megacity 7">
                    <path d=" M 522.443 620.122 C 522.619 628.38 519.456 636.461 513.658 642.435 C 508.036 648.408 499.955 651.922 491.697 652.098 C 483.44 651.922 475.534 648.408 469.736 642.435 C 463.938 636.461 460.776 628.38 460.951 620.122 C 460.776 611.689 463.938 603.607 469.736 597.634 C 475.534 591.661 483.44 588.147 491.697 587.971 C 499.955 588.147 507.861 591.661 513.658 597.634 C 519.456 603.607 522.619 611.689 522.443 620.122 Z  M 520.686 620.122 C 520.862 627.853 517.875 635.583 512.428 641.205 C 506.982 646.827 499.603 650.165 491.697 650.341 C 483.791 650.165 476.412 646.827 470.966 641.205 C 465.519 635.583 462.533 627.853 462.708 620.122 C 462.533 612.216 465.519 604.486 470.966 598.864 C 476.412 593.242 483.791 589.904 491.697 589.728 C 499.603 589.904 506.982 593.242 512.428 598.864 C 517.875 604.486 520.862 612.216 520.686 620.122 Z " fill-rule="evenodd" fill="rgb(161,136,127)" />
                    <path d=" M 491.697 583.579 C 491.697 583.579 491.697 583.579 491.697 583.579 L 491.697 583.579 L 491.697 583.579 Z  M 491.697 583.579 C 501.184 583.754 510.145 587.795 516.645 594.647 C 523.321 601.323 526.835 610.635 526.659 620.122 C 526.835 629.434 523.321 638.745 516.645 645.422 C 510.145 652.274 501.184 656.314 491.697 656.49 C 482.21 656.314 473.25 652.274 466.749 645.422 C 460.073 638.745 456.559 629.434 456.735 620.122 C 456.559 610.635 460.073 601.323 466.749 594.647 C 473.25 587.795 482.21 583.754 491.697 583.579 Z  M 491.697 583.579 M 491.697 585.336 C 500.657 585.511 509.266 589.377 515.415 595.877 C 521.74 602.378 525.078 610.986 524.902 619.947 C 525.078 629.082 521.74 637.691 515.415 644.192 C 509.266 650.692 500.657 654.557 491.697 654.733 C 482.737 654.557 474.128 650.692 467.979 644.192 C 461.654 637.691 458.316 629.082 458.492 620.122 C 458.316 610.986 461.654 602.378 467.979 595.877 C 474.128 589.377 482.737 585.511 491.697 585.336 Z " fill-rule="evenodd" fill="rgb(161,136,127)" />
                    <path d=" M 531.754 619.947 C 531.93 630.839 527.889 641.381 520.335 649.111 C 512.78 657.017 502.59 661.585 491.697 661.761 C 480.804 661.585 470.614 657.017 463.06 649.111 C 455.505 641.381 451.464 630.839 451.64 620.122 C 451.464 609.23 455.505 598.688 463.06 590.958 C 470.614 583.052 480.804 578.484 491.697 578.308 C 502.59 578.484 512.78 583.052 520.335 590.958 C 527.889 598.688 531.93 609.23 531.754 619.947 Z  M 529.997 619.947 C 530.173 630.488 526.308 640.502 519.105 647.881 C 511.901 655.436 502.063 659.828 491.697 660.004 C 481.331 659.828 471.493 655.436 464.289 647.881 C 457.086 640.502 453.221 630.488 453.397 620.122 C 453.221 609.581 457.086 599.567 464.289 592.188 C 471.493 584.633 481.331 580.241 491.697 580.065 C 502.063 580.241 511.901 584.633 519.105 592.188 C 526.308 599.567 530.173 609.581 529.997 619.947 Z " fill-rule="evenodd" fill="rgb(161,136,127)" />
                    <path d=" M 465.168 661.234 L 463.762 660.18 L 465.871 657.369 L 467.276 658.423 C 474.304 663.869 482.913 666.504 491.873 666.329 L 502.766 665.626 L 504.522 688.817 L 488.183 687.763 L 487.832 676.87 L 476.588 676.167 L 460.073 666.504 L 458.492 665.626 L 460.249 662.464 L 461.83 663.342 L 477.642 672.654 L 491.346 673.708 L 491.521 684.425 L 500.657 684.952 L 499.603 669.315 L 492.048 669.843 C 492.048 669.843 491.873 669.843 491.873 669.843 C 482.386 670.018 472.898 667.031 465.168 661.234 Z " fill="rgb(161,136,127)" />
                </g>
                <g id="small city 1">
                    <path d=" M 649.642 543.697 L 649.642 544.576 L 647.885 544.4 L 647.885 543.521 L 648.061 540.008 C 648.061 534.034 646.656 528.061 643.669 522.966 L 643.317 522.087 L 644.723 521.209 L 645.25 522.087 C 648.237 527.534 649.818 533.683 649.818 540.008 C 649.818 540.008 649.818 540.008 649.818 540.008 L 649.642 543.697 Z " fill="rgb(188,170,164)" />
                    <path d=" M 635.939 533.331 L 635.06 533.507 L 634.709 531.75 L 635.587 531.575 C 635.763 531.575 635.939 531.399 636.114 531.399 C 644.02 529.993 651.751 528.412 659.657 527.007 L 660.535 526.831 L 660.886 528.588 L 660.008 528.588 C 652.102 530.169 644.196 531.575 636.466 533.156 C 636.29 533.156 636.114 533.156 635.939 533.331 Z " fill="rgb(188,170,164)" />
                    <path d=" M 663.17 546.333 L 662.995 548.089 L 659.481 547.914 L 659.657 546.157 L 659.832 540.71 C 659.832 531.399 657.724 522.087 653.507 513.83 L 652.805 512.249 L 655.967 510.667 L 656.67 512.249 C 661.238 521.033 663.346 530.872 663.346 540.886 C 663.346 540.886 663.346 540.886 663.346 540.886 L 663.17 546.333 Z " fill="rgb(188,170,164)" />
                </g>
                <g id="small city 2">
                    <path d=" M 603.084 544.927 C 603.084 549.144 601.503 553.184 598.517 555.995 C 595.706 558.982 591.665 560.563 587.448 560.563 C 583.232 560.563 579.191 558.982 576.38 555.995 C 573.393 553.184 571.812 549.144 571.812 544.927 C 571.812 540.71 573.393 536.67 576.38 533.859 C 579.191 530.872 583.232 529.291 587.448 529.291 C 591.665 529.291 595.706 530.872 598.517 533.859 C 601.503 536.67 603.084 540.71 603.084 544.927 Z  M 598.165 544.927 C 598.165 547.738 596.935 550.373 595.003 552.482 C 592.894 554.414 590.259 555.644 587.448 555.644 C 584.637 555.644 582.002 554.414 579.893 552.482 C 577.961 550.373 576.731 547.738 576.731 544.927 C 576.731 542.116 577.961 539.481 579.893 537.372 C 582.002 535.44 584.637 534.21 587.448 534.21 C 590.259 534.21 592.894 535.44 595.003 537.372 C 596.935 539.481 598.165 542.116 598.165 544.927 Z " fill-rule="evenodd" fill="rgb(188,170,164)" />
                    <path d=" M 614.68 544.927 C 614.68 552.13 611.869 559.158 606.774 564.253 C 601.679 569.348 594.651 572.159 587.448 572.159 C 580.245 572.159 573.217 569.348 568.122 564.253 C 563.027 559.158 560.216 552.13 560.216 544.927 C 560.216 537.724 563.027 530.696 568.122 525.601 C 573.217 520.506 580.245 517.695 587.448 517.695 L 587.448 517.695 C 594.651 517.695 601.679 520.506 606.774 525.601 C 611.869 530.696 614.68 537.724 614.68 544.927 Z  M 611.166 544.927 C 611.166 551.252 608.707 557.225 604.139 561.618 C 599.746 566.185 593.773 568.645 587.448 568.645 C 581.123 568.645 575.15 566.185 570.758 561.618 C 566.19 557.225 563.73 551.252 563.73 544.927 C 563.73 538.602 566.19 532.629 570.758 528.236 C 575.15 523.668 581.123 521.209 587.448 521.209 L 587.448 521.209 C 593.773 521.209 599.746 523.668 604.139 528.236 C 608.707 532.629 611.166 538.602 611.166 544.927 Z " fill-rule="evenodd" fill="rgb(188,170,164)" />
                    <path d=" M 551.432 515.06 C 551.432 519.979 549.499 524.723 545.985 528.061 C 542.647 531.575 537.904 533.507 532.984 533.507 C 528.065 533.507 523.321 531.575 519.983 528.061 C 516.469 524.723 514.537 519.979 514.537 515.06 C 514.537 510.14 516.469 505.397 519.983 502.059 C 523.321 498.545 528.065 496.612 532.984 496.612 C 537.904 496.612 542.647 498.545 545.985 502.059 C 549.499 505.397 551.432 510.14 551.432 515.06 Z  M 547.918 515.06 C 547.918 519.101 546.337 522.79 543.526 525.601 C 540.715 528.412 537.025 529.993 532.984 529.993 C 528.943 529.993 525.254 528.412 522.443 525.601 C 519.632 522.79 518.051 519.101 518.051 515.06 C 518.051 511.019 519.632 507.329 522.443 504.518 C 525.254 501.707 528.943 500.126 532.984 500.126 C 537.025 500.126 540.715 501.707 543.526 504.518 C 546.337 507.329 547.918 511.019 547.918 515.06 Z " fill-rule="evenodd" fill="rgb(188,170,164)" />
                    <path d=" M 570.977 537.57 L 542.098 520.66 L 536.718 522.417 L 535.839 520.44 L 539.133 519.123 L 538.145 516.158 L 540.451 515.499 L 542.537 519.123 L 571.856 535.484 L 570.977 537.57 Z " fill="rgb(188,170,164)" />
                    <path d=" M 565.487 517.805 L 566.695 518.464 C 559.329 520.547 556.439 526.735 557.91 537.57 L 553.079 537.68 L 552.42 535.484 L 556.593 535.484 C 555.986 525.327 558.934 519.417 565.487 517.805 Z " fill="rgb(188,170,164)" />
                    <path d=" M 561.095 524.393 L 562.302 521.758 L 554.836 518.024 C 555.202 515.792 555.001 513.175 554.506 511.107 L 557.142 510.997 L 557.032 508.362 L 551.651 508.581 C 553.042 512.388 553.391 516.177 552.749 520.001 L 561.095 524.393 Z " fill="rgb(188,170,164)" />
                    <path d=" M 571.307 536.252 C 580.868 526.219 589.711 524.447 601.833 533.617 L 602.052 532.189 C 590.017 522.394 579.222 524.849 569.44 535.374 L 571.307 536.252 Z " fill="rgb(188,170,164)" />
                    <path d=" M 573.942 522.966 L 566.695 507.593 L 568.781 506.495 L 577.126 521.648 L 573.942 522.966 Z " fill="rgb(188,170,164)" />
                    <path d=" M 577.346 521.319 L 571.526 503.75 L 575.369 502.652 L 580.091 514.73 C 584.42 513.35 588.831 513.076 593.378 513.962 L 599.637 510.338 L 597.001 519.781 Q 582.697 518.071 577.346 521.319 Z " fill="rgb(188,170,164)" />
                </g>
                <path d=" M 307.574 751.89 C 313.372 757.863 316.71 765.769 317.237 774.027 C 317.413 777.892 316.007 781.581 313.196 784.041 C 311.088 785.974 308.277 786.852 305.466 786.676 C 296.154 785.974 287.721 781.23 282.275 773.675 C 276.477 767.702 273.139 759.796 272.612 751.538 C 272.436 747.673 273.842 743.984 276.653 741.524 C 278.761 739.591 281.572 738.713 284.383 738.889 C 293.695 739.591 302.128 744.335 307.574 751.89 Z  M 306.169 753.12 C 311.791 758.742 314.953 766.296 315.48 774.202 C 315.656 777.365 314.426 780.527 312.142 782.811 C 310.209 784.217 307.925 785.095 305.466 784.919 C 296.681 784.217 288.775 779.649 283.68 772.445 C 278.058 766.823 274.896 759.269 274.369 751.363 C 274.193 748.2 275.423 745.038 277.707 742.754 C 279.639 741.348 281.923 740.47 284.383 740.646 C 293.167 741.348 301.074 745.916 306.169 753.12 Z " fill-rule="evenodd" fill="rgb(141,110,99)" />
                <path d=" M 857.132 537.899 C 857.132 725.528 704.801 877.859 517.172 877.859 C 329.543 877.859 177.212 725.528 177.212 537.899 C 177.212 350.27 329.543 197.939 517.172 197.939 C 704.801 197.939 857.132 350.27 857.132 537.899 Z " fill="rgb(26,35,126)" style="mix-blend-mode:color;" />
            </g>
            <path d=" M 766.567 749.527 C 759.253 754.687 751.581 759.319 743.607 763.386 C 754.169 747.911 763.913 731.893 772.8 715.398 C 780.01 707.418 786.615 699.66 791.998 691.272 C 794.617 687.151 797.572 682.065 800.699 676.166 C 819.694 641.943 840.638 586.56 841.232 529.672 L 841.232 529.535 C 841.245 528.135 841.254 526.734 841.242 525.331 C 841.341 511.052 839.881 496.804 836.889 482.841 C 837.041 483.931 837.175 485.021 837.312 486.111 C 837.144 485.273 837.002 484.425 836.822 483.585 C 837.101 485.136 837.325 486.634 837.566 488.145 C 841.448 521.085 838.683 553.216 824.851 576.903 C 824.633 577.249 824.409 577.573 824.188 577.911 C 831.361 541.91 833.76 502.159 825.78 462.363 C 825.78 462.363 822.588 443.016 798.816 384.283 C 785.133 350.477 760.834 322.761 739.365 302.57 C 720.547 279.288 703.455 263.664 694.034 253.744 C 674.353 233.021 666.104 217.487 662.717 207.351 C 659.78 205.879 622.218 169.389 619.234 167.998 C 602.838 193.419 551.275 272.934 575.803 347.226 C 586.919 380.893 615.031 415.836 644.452 435.439 C 645.744 436.915 661.959 454.526 669.67 494.248 C 677.632 535.286 673.446 567.308 657.059 614.661 C 637.786 656.205 588.41 697.274 542.178 701.475 C 443.339 710.455 407.156 651.85 407.156 651.85 C 442.473 665.97 481.521 663.017 505.268 648.378 C 529.201 633.572 543.678 622.595 555.428 626.924 C 567.014 631.232 576.236 618.725 567.96 605.76 C 554.896 585.637 531.074 575.264 507.442 579.408 C 483.484 583.302 461.538 602.281 430.146 583.901 C 428.115 582.722 426.148 581.434 424.255 580.043 C 422.186 578.682 430.983 582.113 428.93 580.567 C 422.821 577.248 412.009 570.017 409.204 567.444 C 408.737 567.016 413.944 569.105 413.477 568.676 C 384.125 544.505 387.791 528.177 388.713 517.937 C 389.452 509.744 394.784 499.245 403.768 494.987 C 408.107 497.355 410.81 499.163 410.81 499.163 C 410.81 499.163 408.96 495.382 407.959 493.389 C 408.31 493.236 408.645 493.277 408.994 493.128 C 412.549 494.844 420.409 499.302 424.548 502.021 C 429.938 505.822 431.656 509.213 431.656 509.213 C 431.656 509.213 433.076 508.431 432.026 505.116 C 431.645 503.756 430.008 499.435 424.669 495.075 L 425.003 495.112 C 428.199 496.933 431.226 499.035 434.048 501.393 C 435.553 495.92 438.261 490.205 437.665 479.982 C 437.302 472.793 437.47 470.932 436.203 468.156 C 435.069 465.772 436.838 464.842 438.808 467.318 C 438.471 465.378 437.906 463.485 437.125 461.678 L 437.142 461.492 C 439.6 452.928 489.16 430.652 492.768 428.049 C 498.695 423.855 503.665 418.451 507.35 412.195 C 510.107 407.803 512.18 401.64 512.685 392.293 C 512.956 385.552 509.82 381.062 459.707 375.815 C 446.002 374.466 437.961 364.535 433.392 355.371 C 432.558 353.397 431.708 351.608 430.858 349.821 C 430.046 347.731 429.394 345.583 428.908 343.395 C 437.101 319.864 450.867 299.967 471.108 284.934 C 472.211 283.93 466.701 285.192 467.803 284.187 C 469.089 283.015 477.488 279.632 479.074 278.87 C 481.011 277.955 470.78 273.61 461.748 274.668 C 452.549 275.705 450.595 276.803 445.686 278.884 C 447.723 276.856 454.202 274.197 452.683 274.215 C 442.766 275.735 430.443 281.5 419.909 288.029 C 419.888 286.892 420.105 285.763 420.545 284.715 C 415.636 286.797 403.579 295.224 400.069 302.354 C 400.22 300.987 400.288 299.613 400.271 298.238 C 396.532 301.357 393.158 304.89 390.214 308.77 L 390.031 308.937 C 361.556 297.466 336.499 296.723 315.295 301.867 C 310.656 297.208 308.39 300.614 297.835 277.424 C 297.118 276.027 298.386 278.803 297.835 277.424 C 296.099 272.927 298.894 283.424 297.835 277.424 C 280.089 291.427 256.738 307.296 245.529 318.498 C 245.39 318.945 258.605 314.764 245.529 318.498 C 240.95 319.806 241.261 322.524 240.565 347.081 C 240.397 348.943 240.546 351.028 240.395 352.704 C 231.441 364.113 225.342 373.774 223.036 378.78 C 211.456 398.734 198.702 429.841 186.339 479.047 C 191.792 465.71 198.367 452.858 205.992 440.632 C 195.711 466.75 185.773 507.764 183.786 570.925 C 186.273 557.892 189.462 545.002 193.339 532.312 C 190.912 584.713 199.948 637.012 219.817 685.56 C 226.928 702.954 238.689 729.352 258.711 758.273 C 321.617 824.462 410.346 865.667 508.598 865.667 C 611.168 865.668 703.274 820.79 766.567 749.527 Z " fill="rgb(26,35,126)" />
            <path d=" M 690.671 797.6 C 814.81 783.225 869.764 655.299 799.194 652.783 C 735.449 650.746 631.871 804.384 690.671 797.6 Z " fill="rgb(40,53,147)" />
            <path d=" M 808.131 626.652 C 893.54 576.947 871.271 469.579 871.271 469.579 C 871.271 469.579 838.309 507.87 815.916 568.908 C 793.796 629.35 756.782 656.674 808.131 626.652 Z " fill="rgb(40,53,147)" />
            <path d=" M 536.993 861.132 C 656.069 899.129 758.411 805.325 695.326 773.998 C 637.97 745.747 480.476 843.166 536.993 861.132 Z " fill="rgb(40,53,147)" />
            <path d=" M 817.005 672.239 C 819.901 668.152 823.819 655.063 827.279 649.213 C 848.302 615.277 848.45 588.219 848.45 587.6 C 861.148 524.171 859.996 498.27 852.185 450.372 C 845.896 411.805 818.403 356.552 794.586 329.945 C 770.043 302.533 787.335 311.464 763.571 291.441 C 742.742 268.351 722.547 245.487 711.549 236.292 C 632.07 169.846 633.866 155.732 635.396 153.326 C 635.138 153.609 634.758 154.029 634.274 154.579 C 633.333 150.826 632.668 147.671 632.668 147.671 C 632.668 147.671 589.223 191.116 580.077 263.524 C 574.106 310.796 591.802 360.076 617.425 391.573 C 630.767 407.896 645.845 422.719 662.394 435.78 L 662.394 435.761 C 681.754 463.563 692.409 497.871 692.409 534.777 C 692.409 627.188 617.454 702.102 524.992 702.102 C 512.39 702.109 499.828 700.697 487.542 697.895 C 443.917 689.581 418.725 667.575 406.161 652.635 C 398.96 644.072 395.899 637.831 395.899 637.831 C 434.986 651.833 478.205 648.904 504.487 634.387 C 530.973 619.703 546.998 608.818 560.003 613.11 C 572.823 617.383 583.03 604.98 573.875 592.123 C 564.903 579.283 541.558 560.895 506.895 565.99 C 480.379 569.852 456.089 588.673 421.346 570.445 C 419.109 569.282 416.932 568.005 414.826 566.619 C 412.536 565.269 422.271 568.673 419.999 567.139 C 413.239 563.847 401.27 556.675 398.168 554.125 C 397.65 553.7 403.414 555.772 402.893 555.344 C 370.408 531.374 374.463 515.182 375.486 505.026 C 376.303 496.901 382.204 486.489 392.146 482.267 C 396.948 484.615 399.941 486.408 399.941 486.408 C 399.941 486.408 397.892 482.658 396.784 480.681 C 397.172 480.533 397.542 480.571 397.928 480.423 C 401.862 482.124 410.562 486.543 415.143 489.242 C 421.108 493.012 423.01 496.374 423.01 496.374 C 423.01 496.374 424.581 495.6 423.419 492.312 C 422.994 490.963 421.186 486.678 415.277 482.354 L 415.646 482.391 C 419.154 484.179 422.503 486.263 425.657 488.62 C 427.323 483.193 430.32 477.525 429.661 467.386 C 429.258 460.258 429.444 458.411 428.042 455.659 C 426.787 453.296 428.746 452.373 430.925 454.83 C 430.548 452.892 429.921 451.011 429.062 449.233 L 429.081 449.049 C 431.802 440.556 486.653 418.466 490.646 415.883 C 497.079 411.845 502.58 406.485 506.785 400.159 C 509.834 395.803 512.131 389.692 512.691 380.422 C 512.878 376.245 511.592 372.94 497.066 369.778 C 488.347 367.88 474.858 366.033 454.053 364.082 C 438.885 362.743 429.985 352.896 424.928 343.807 C 424.005 341.849 423.064 340.072 422.123 338.303 C 421.228 336.242 420.506 334.111 419.965 331.931 C 429.041 308.17 445.387 287.881 466.672 273.956 C 467.891 272.959 461.794 274.211 463.013 273.215 C 464.437 272.053 473.732 268.697 475.488 267.941 C 477.632 267.037 466.308 262.728 456.312 263.775 C 446.131 264.803 443.969 265.891 438.535 267.957 C 440.79 265.945 447.96 263.307 446.28 263.326 C 435.304 264.834 421.661 270.551 409.999 277.025 C 409.978 275.89 410.219 274.765 410.704 273.739 C 405.27 275.803 391.925 284.161 388.04 291.231 C 388.208 289.877 388.282 288.514 388.265 287.15 C 384.173 290.2 380.44 293.703 377.137 297.592 L 376.933 297.758 C 345.419 286.383 317.686 285.646 294.218 290.746 C 289.084 286.126 280.829 279.141 269.148 256.143 C 268.355 254.758 267.928 259.005 267.319 257.637 C 262.78 247.109 260.037 229.86 260.488 217.968 C 260.488 217.968 251.099 222.247 243.329 240.117 C 241.886 243.33 240.96 245.102 240.036 246.874 C 239.611 247.391 241 241.005 240.778 241.353 C 239.428 243.639 235.934 246.835 234.398 250.97 C 233.343 254.035 231.864 255.751 230.919 259.574 L 230.698 259.925 C 230.621 258.798 230.977 255.29 230.718 256.009 C 227.076 263.368 223.941 270.967 221.337 278.754 C 217.153 292.508 212.283 311.231 211.511 335.587 C 211.325 337.434 211.49 339.501 211.323 341.164 C 201.414 352.478 194.662 362.058 192.11 367.024 C 179.3 386.819 165.184 417.668 151.5 466.466 C 157.588 453.136 164.868 440.384 173.252 428.364 C 161.873 454.266 150.874 494.94 148.675 557.579 C 151.437 544.617 154.967 531.83 159.248 519.286 C 157.283 561.055 162.148 612.838 188.553 671.263 C 204.232 705.628 240.323 775.416 328.508 829.876 L 328.5 829.881 C 328.5 829.881 358.5 852.213 410.068 868.95 C 413.879 870.333 417.739 871.694 421.679 873.015 C 420.443 872.516 419.247 871.991 418.085 871.451 C 452.409 881.735 488.047 886.973 523.878 887 C 657.399 887.113 696.779 833.494 696.779 833.494 C 696.779 833.494 696.64 833.598 696.388 833.781 Q 699.214 831.12 701.832 828.25 C 680.766 848.143 632.69 849.463 614.713 848.028 C 645.371 839.024 665.545 831.408 704.786 816.382 Q 711.674 813.829 718.873 810.559 C 719.392 810.331 719.915 810.083 720.437 809.846 C 721.389 809.402 722.332 808.983 723.293 808.517 C 742.412 799.507 760.389 788.252 776.846 774.99 C 816.252 743.511 824.825 712.828 829.307 692.597 C 828.682 694.536 826.735 699.056 825.367 701.984 C 815.218 723.693 792.713 737.014 768.272 748.438 C 779.903 733.178 790.688 717.292 800.58 700.851 C 808.558 692.937 811.047 680.558 817.005 672.239 Z " fill="rgb(48,79,254)" />
            <path d=" M 769.041 747.504 C 785.108 729.79 799.537 709.529 810.466 686.553 C 838.591 627.421 882.075 529.099 847.827 426.412 C 820.759 345.251 783.595 300.872 736.409 257.52 C 659.774 187.119 638.371 155.69 638.371 137 C 638.371 137 549.889 235.635 588.263 338.51 C 626.637 441.385 705.229 437.613 757.226 544.969 C 818.411 671.299 707.722 809.156 616.186 847.741 C 621.79 846.497 819.669 801.718 830.069 688.533 C 829.833 690.614 825.374 721.919 769.041 747.504 Z " fill="rgb(140,158,255)" />
            <path d=" M 512.693 380.424 C 512.992 373.74 509.525 369.251 454.246 364.065 C 431.503 361.966 422.794 340.945 420.14 332.098 C 412.053 353.108 408.713 375.155 410.508 401.822 C 411.736 419.291 423.473 438.042 429.083 449.051 C 429.083 449.051 430.33 447.431 430.906 446.831 C 441.47 435.832 485.735 419.073 489.893 416.694 C 494.477 413.798 511.923 401.051 512.693 380.424 Z " fill="rgb(83,109,254)" />
            <path d=" M 269.341 256.261 C 268.547 254.876 268.121 259.123 267.512 257.756 C 262.973 247.228 260.211 230.165 260.865 218.105 C 260.865 218.105 251.476 222.384 243.706 240.255 C 242.263 243.467 241.338 245.239 240.413 247.011 C 239.988 247.528 241.377 241.143 241.156 241.49 C 239.806 243.777 236.312 246.972 234.794 250.922 C 233.536 254.153 232.242 255.888 231.278 259.895 C 230.982 260.984 231.577 255.075 231.318 255.795 C 213.246 290.723 209.796 343.534 211.701 341.301 C 250.175 300.219 294.265 290.476 294.265 290.476 C 289.574 287.02 279.381 277.042 269.342 256.261 L 269.341 256.261 Z " fill="rgb(40,53,147)" />
            <path d=" M 768.902 748.011 C 848.293 670.061 888.461 575.309 871.48 469.033 C 871.48 469.033 878.264 523.53 852.541 579.267 C 864.899 524.852 866.337 457.229 833.505 387.203 C 789.684 293.735 717.615 244.553 690.101 224.034 C 648.412 192.945 631.131 161.291 630.819 154.759 C 618.366 180.275 580.693 267.716 626.772 343.021 C 669.943 413.573 737.95 434.514 785.559 499.231 C 873.268 618.453 768.902 748.011 768.902 748.011 Z " fill="rgb(197,202,233)" />
            <path d=" M 757.527 545.194 C 729.781 487.876 695.152 462.876 662.394 435.78 C 666.205 441.116 667.144 443.001 669.254 446.451 C 698.085 477.18 740.601 552.134 709.734 646.228 C 651.633 823.343 419.229 739.94 394.864 716.511 C 404.72 819.018 576.293 868.07 688.004 801.595 C 751.571 741.421 802.995 639.125 757.527 545.194 Z " fill="rgb(83,109,254)" />
        </g>
    </g>
</svg>