<?xml version="1.0" standalone="no"?>
<!-- Generator: Gravit.io -->
<svg xmlns="http://www.w3.org/2000/svg" xmlns:xlink="http://www.w3.org/1999/xlink" style="isolation:isolate" viewBox="0 0 1024 1024" width="1024" height="1024">
    <defs>
        <clipPath id="_clipPath_XSi3lUZvdpLm3DJalohExKUa8FyulN0B">
            <rect width="1024" height="1024" />
        </clipPath>
    </defs>
    <g clip-path="url(#_clipPath_XSi3lUZvdpLm3DJalohExKUa8FyulN0B)">
        <rect x="87" y="87" width="850" height="849.999" transform="matrix(1,0,0,1,0,0)" fill="rgb(30,136,229)" />
        <g id="firefox-quantum">
            <path d=" M 735.782 206.785 C 717.53 228.038 709.029 275.87 727.537 324.358 C 746.044 372.847 774.412 362.315 792.094 411.761 C 815.435 477.005 804.571 564.649 804.571 564.649 C 804.571 564.649 832.63 645.906 852.184 559.594 C 895.463 397.472 735.782 246.708 735.782 206.785 Z " fill="rgb(255,152,0)" />
            <path d=" M 513.059 879.864 C 699.976 879.864 851.397 727.624 851.397 539.904 C 851.397 352.184 699.976 199.944 513.24 199.944 C 326.504 199.944 175.085 352.184 175.085 539.904 C 174.723 727.805 326.322 879.864 513.059 879.864 Z " fill="rgb(21,101,192)" />
            <path d=" M 766.567 749.527 C 759.253 754.687 751.581 759.319 743.607 763.386 C 754.169 747.911 763.913 731.893 772.8 715.398 C 780.01 707.418 786.615 699.66 791.998 691.272 C 794.617 687.151 797.572 682.065 800.699 676.166 C 819.694 641.943 840.638 586.56 841.232 529.672 L 841.232 529.535 C 841.245 528.135 841.254 526.734 841.242 525.331 C 841.341 511.052 839.881 496.804 836.889 482.841 C 837.041 483.931 837.175 485.021 837.312 486.111 C 837.144 485.273 837.002 484.425 836.822 483.585 C 837.101 485.136 837.325 486.634 837.566 488.145 C 841.448 521.085 838.683 553.216 824.851 576.903 C 824.633 577.249 824.409 577.573 824.188 577.911 C 831.36 541.91 833.76 502.159 825.78 462.363 C 825.78 462.363 822.588 443.016 798.816 384.283 C 785.133 350.477 760.834 322.761 739.365 302.57 C 720.546 279.288 703.455 263.664 694.034 253.744 C 674.353 233.021 666.104 217.487 662.717 207.351 C 659.78 205.879 622.218 169.389 619.234 167.998 C 602.838 193.419 551.275 272.934 575.803 347.226 C 586.919 380.893 615.031 415.836 644.452 435.439 C 645.744 436.915 661.959 454.526 669.67 494.248 C 677.632 535.286 673.446 567.308 657.059 614.661 C 637.786 656.205 588.41 697.274 542.178 701.475 C 443.339 710.455 407.156 651.85 407.156 651.85 C 442.473 665.97 481.521 663.017 505.268 648.378 C 529.201 633.572 543.678 622.595 555.428 626.924 C 567.014 631.232 576.236 618.725 567.96 605.76 C 554.896 585.637 531.074 575.264 507.442 579.408 C 483.484 583.302 461.538 602.281 430.146 583.901 C 428.115 582.722 426.148 581.434 424.255 580.043 C 422.186 578.682 430.983 582.113 428.93 580.567 C 422.821 577.248 412.009 570.017 409.204 567.444 C 408.737 567.016 413.944 569.105 413.477 568.676 C 384.125 544.505 387.791 528.177 388.713 517.937 C 389.452 509.744 394.784 499.245 403.768 494.987 C 408.107 497.355 410.81 499.163 410.81 499.163 C 410.81 499.163 408.96 495.382 407.959 493.389 C 408.31 493.236 408.645 493.277 408.994 493.128 C 412.549 494.844 420.409 499.302 424.548 502.02 C 429.938 505.822 431.656 509.213 431.656 509.213 C 431.656 509.213 433.076 508.431 432.026 505.116 C 431.645 503.756 430.008 499.435 424.669 495.075 L 425.003 495.112 C 428.199 496.933 431.226 499.035 434.048 501.393 C 435.553 495.92 438.261 490.205 437.665 479.982 C 437.302 472.793 437.47 470.932 436.203 468.156 C 435.069 465.772 436.838 464.842 438.808 467.318 C 438.471 465.378 437.906 463.485 437.125 461.678 L 437.142 461.492 C 439.6 452.928 489.16 430.652 492.768 428.049 C 498.695 423.855 503.665 418.451 507.35 412.195 C 510.107 407.803 512.18 401.64 512.685 392.293 C 512.956 385.552 509.82 381.062 459.707 375.815 C 446.002 374.466 437.961 364.535 433.392 355.371 C 432.558 353.397 431.708 351.608 430.858 349.821 C 430.046 347.731 429.394 345.583 428.908 343.395 C 437.101 319.864 450.867 299.967 471.108 284.934 C 472.211 283.93 466.701 285.192 467.803 284.187 C 469.089 283.015 477.488 279.632 479.074 278.87 C 481.011 277.955 470.78 273.61 461.748 274.668 C 452.549 275.705 450.595 276.803 445.686 278.884 C 447.723 276.856 454.202 274.197 452.683 274.215 C 442.766 275.735 430.443 281.5 419.909 288.029 C 419.888 286.892 420.105 285.763 420.545 284.715 C 415.636 286.797 403.579 295.224 400.069 302.354 C 400.22 300.987 400.288 299.613 400.271 298.238 C 396.532 301.357 393.158 304.89 390.214 308.77 L 390.031 308.937 C 361.556 297.466 336.499 296.723 315.295 301.867 C 310.656 297.208 308.39 300.614 297.835 277.424 C 297.118 276.027 298.386 278.803 297.835 277.424 C 296.099 272.927 298.894 283.424 297.835 277.424 C 280.089 291.427 256.738 307.296 245.529 318.498 C 245.39 318.945 258.605 314.764 245.529 318.498 C 240.95 319.806 241.261 322.524 240.565 347.081 C 240.397 348.943 240.546 351.028 240.395 352.704 C 231.441 364.113 225.342 373.774 223.036 378.78 C 211.456 398.734 198.702 429.841 186.339 479.047 C 191.792 465.709 198.367 452.858 205.992 440.632 C 195.711 466.75 185.773 507.764 183.786 570.925 C 186.273 557.892 189.462 545.002 193.339 532.312 C 190.912 584.713 199.948 637.012 219.817 685.56 C 226.928 702.954 238.689 729.352 258.711 758.273 C 321.617 824.462 410.346 865.667 508.598 865.667 C 611.168 865.668 703.274 820.79 766.567 749.527 Z " fill="rgb(13,71,161)" />
            <path d=" M 690.671 797.6 C 814.81 783.225 869.764 655.299 799.194 652.783 C 735.449 650.746 631.871 804.384 690.671 797.6 Z " fill="rgb(211,47,47)" />
            <path d=" M 808.131 626.652 C 893.54 576.947 871.271 469.579 871.271 469.579 C 871.271 469.579 838.309 507.87 815.916 568.908 C 793.796 629.35 756.782 656.674 808.131 626.652 Z " fill="rgb(229,57,53)" />
            <path d=" M 536.993 861.132 C 656.069 899.129 758.411 805.325 695.326 773.998 C 637.97 745.747 480.476 843.166 536.993 861.132 Z " fill="rgb(198,40,40)" />
            <path d=" M 817.005 672.239 C 819.901 668.152 823.819 655.063 827.279 649.213 C 848.302 615.277 848.45 588.219 848.45 587.6 C 861.148 524.171 859.996 498.27 852.185 450.372 C 845.896 411.805 818.403 356.552 794.586 329.945 C 770.043 302.533 787.335 311.464 763.571 291.441 C 742.742 268.351 722.547 245.487 711.549 236.292 C 632.07 169.846 633.866 155.732 635.396 153.326 C 635.138 153.609 634.758 154.029 634.274 154.579 C 633.333 150.826 632.668 147.671 632.668 147.671 C 632.668 147.671 589.223 191.116 580.077 263.524 C 574.106 310.796 591.802 360.076 617.425 391.573 C 630.767 407.896 645.845 422.719 662.394 435.78 L 662.394 435.761 C 681.754 463.563 692.409 497.871 692.409 534.777 C 692.409 627.188 617.454 702.102 524.992 702.102 C 512.39 702.109 499.828 700.697 487.542 697.895 C 443.917 689.581 418.725 667.575 406.161 652.635 C 398.96 644.072 395.899 637.831 395.899 637.831 C 434.986 651.833 478.205 648.904 504.487 634.387 C 530.973 619.703 546.998 608.818 560.003 613.11 C 572.823 617.383 583.03 604.98 573.875 592.123 C 564.903 579.283 541.558 560.895 506.895 565.99 C 480.379 569.852 456.089 588.673 421.346 570.445 C 419.109 569.282 416.932 568.005 414.826 566.619 C 412.536 565.269 422.271 568.673 419.999 567.139 C 413.239 563.847 401.27 556.675 398.168 554.125 C 397.65 553.7 403.414 555.772 402.893 555.344 C 370.408 531.374 374.463 515.182 375.486 505.026 C 376.303 496.901 382.204 486.489 392.146 482.267 C 396.948 484.615 399.941 486.408 399.941 486.408 C 399.941 486.408 397.892 482.658 396.784 480.681 C 397.172 480.533 397.542 480.571 397.928 480.423 C 401.862 482.124 410.562 486.543 415.143 489.242 C 421.108 493.012 423.01 496.374 423.01 496.374 C 423.01 496.374 424.581 495.6 423.419 492.312 C 422.994 490.963 421.186 486.678 415.277 482.354 L 415.646 482.391 C 419.154 484.179 422.503 486.263 425.657 488.62 C 427.323 483.193 430.32 477.525 429.661 467.386 C 429.258 460.258 429.444 458.412 428.042 455.659 C 426.787 453.296 428.746 452.373 430.925 454.83 C 430.548 452.892 429.921 451.011 429.062 449.233 L 429.081 449.049 C 431.802 440.556 486.653 418.466 490.646 415.883 C 497.079 411.845 502.58 406.485 506.785 400.159 C 509.834 395.803 512.131 389.692 512.691 380.422 C 512.878 376.245 511.592 372.94 497.066 369.778 C 488.347 367.88 474.858 366.033 454.053 364.082 C 438.885 362.743 429.985 352.896 424.928 343.807 C 424.005 341.849 423.064 340.072 422.123 338.303 C 421.228 336.242 420.506 334.111 419.965 331.931 C 429.041 308.17 445.387 287.881 466.672 273.956 C 467.891 272.959 461.794 274.211 463.013 273.215 C 464.437 272.053 473.732 268.697 475.488 267.941 C 477.632 267.037 466.308 262.728 456.312 263.775 C 446.131 264.803 443.969 265.891 438.535 267.957 C 440.79 265.945 447.96 263.307 446.28 263.326 C 435.304 264.834 421.661 270.551 409.999 277.025 C 409.978 275.89 410.219 274.765 410.704 273.739 C 405.27 275.803 391.925 284.161 388.04 291.231 C 388.208 289.877 388.282 288.514 388.265 287.15 C 384.173 290.2 380.44 293.703 377.137 297.592 L 376.933 297.758 C 345.419 286.383 317.686 285.646 294.218 290.746 C 289.084 286.126 280.829 279.141 269.148 256.143 C 268.355 254.758 267.928 259.005 267.319 257.637 C 262.78 247.109 260.037 229.86 260.488 217.968 C 260.488 217.968 251.099 222.247 243.329 240.117 C 241.886 243.33 240.96 245.102 240.036 246.874 C 239.611 247.391 241 241.005 240.778 241.353 C 239.428 243.639 235.934 246.835 234.398 250.97 C 233.343 254.035 231.864 255.751 230.919 259.574 L 230.698 259.925 C 230.621 258.798 230.977 255.29 230.718 256.009 C 227.076 263.368 223.941 270.967 221.337 278.754 C 217.153 292.508 212.283 311.231 211.511 335.587 C 211.325 337.434 211.49 339.501 211.323 341.164 C 201.414 352.478 194.662 362.058 192.11 367.024 C 179.3 386.819 165.184 417.668 151.5 466.466 C 157.588 453.136 164.868 440.384 173.252 428.364 C 161.873 454.266 150.874 494.94 148.675 557.579 C 151.437 544.617 154.967 531.83 159.248 519.286 C 157.283 561.055 162.148 612.838 188.553 671.263 C 204.232 705.628 240.323 775.416 328.508 829.876 L 328.5 829.881 C 328.5 829.881 358.5 852.213 410.068 868.95 C 413.879 870.333 417.739 871.694 421.679 873.015 C 420.443 872.516 419.247 871.991 418.085 871.451 C 452.409 881.735 488.047 886.973 523.878 887 C 657.399 887.113 696.779 833.494 696.779 833.494 C 696.779 833.494 696.64 833.598 696.388 833.781 Q 699.214 831.12 701.832 828.25 C 680.766 848.143 632.69 849.463 614.713 848.028 C 645.371 839.024 665.545 831.408 704.786 816.382 Q 711.674 813.829 718.873 810.559 C 719.392 810.331 719.915 810.083 720.437 809.846 C 721.389 809.402 722.332 808.983 723.293 808.517 C 742.412 799.507 760.389 788.252 776.846 774.99 C 816.251 743.511 824.825 712.828 829.307 692.597 C 828.682 694.536 826.735 699.056 825.367 701.984 C 815.218 723.693 792.713 737.014 768.272 748.438 C 779.903 733.178 790.688 717.292 800.58 700.851 C 808.558 692.937 811.047 680.558 817.005 672.239 Z " fill="rgb(230,81,0)" />
            <path d=" M 769.041 747.504 C 785.108 729.79 799.537 709.529 810.466 686.553 C 838.591 627.421 882.075 529.099 847.827 426.412 C 820.759 345.251 783.595 300.872 736.409 257.52 C 659.774 187.119 638.371 155.69 638.371 137 C 638.371 137 549.889 235.635 588.263 338.51 C 626.637 441.385 705.229 437.613 757.226 544.969 C 818.411 671.299 707.722 809.156 616.186 847.741 C 621.79 846.497 819.669 801.718 830.069 688.533 C 829.833 690.614 825.374 721.919 769.041 747.504 Z " fill="rgb(255,152,0)" />
            <path d=" M 512.693 380.424 C 512.992 373.74 509.525 369.251 454.246 364.065 C 431.503 361.966 422.794 340.945 420.14 332.098 C 412.053 353.108 408.713 375.155 410.508 401.822 C 411.736 419.291 423.473 438.042 429.083 449.051 C 429.083 449.051 430.33 447.431 430.906 446.831 C 441.47 435.832 485.735 419.073 489.893 416.694 C 494.477 413.798 511.923 401.051 512.693 380.424 Z " fill="rgb(255,143,0)" />
            <path d=" M 269.341 256.261 C 268.547 254.876 268.121 259.123 267.512 257.756 C 262.973 247.228 260.211 230.165 260.865 218.105 C 260.865 218.105 251.476 222.384 243.706 240.255 C 242.263 243.467 241.338 245.239 240.413 247.011 C 239.988 247.528 241.377 241.143 241.156 241.49 C 239.806 243.777 236.312 246.972 234.794 250.922 C 233.536 254.153 232.242 255.888 231.278 259.895 C 230.982 260.984 231.577 255.075 231.318 255.795 C 213.246 290.723 209.796 343.534 211.701 341.301 C 250.175 300.219 294.265 290.476 294.265 290.476 C 289.574 287.02 279.381 277.042 269.342 256.261 L 269.341 256.261 Z " fill="rgb(211,47,47)" />
            <path d=" M 768.902 748.011 C 848.293 670.061 888.461 575.309 871.48 469.033 C 871.48 469.033 878.264 523.53 852.541 579.267 C 864.899 524.852 866.337 457.229 833.505 387.203 C 789.684 293.735 717.615 244.553 690.101 224.034 C 648.412 192.945 631.131 161.291 630.819 154.759 C 618.366 180.275 580.693 267.716 626.772 343.021 C 669.943 413.573 737.95 434.514 785.559 499.231 C 873.268 618.453 768.902 748.011 768.902 748.011 Z " fill="rgb(253,216,53)" />
            <path d=" M 757.527 545.194 C 729.781 487.876 695.152 462.876 662.394 435.78 C 666.205 441.116 667.144 443.001 669.254 446.451 C 698.085 477.18 740.601 552.134 709.734 646.228 C 651.633 823.343 419.229 739.94 394.864 716.511 C 404.72 819.018 576.293 868.07 688.004 801.595 C 751.571 741.421 802.995 639.125 757.527 545.194 Z " fill="rgb(255,111,0)" />
        </g>
    </g>
</svg>