<?xml version="1.0" standalone="no"?><!-- Generator: Gravit.io --><svg xmlns="http://www.w3.org/2000/svg" xmlns:xlink="http://www.w3.org/1999/xlink" style="isolation:isolate" viewBox="0 0 1024 1024" width="1024" height="1024"><defs><clipPath id="_clipPath_US1jLdLykJGNrRxZlHPJzxMk7knvEZ78"><rect width="1024" height="1024"/></clipPath></defs><g clip-path="url(#_clipPath_US1jLdLykJGNrRxZlHPJzxMk7knvEZ78)"><path d=" M 87 87 L 87 937 L 937 937 L 937 87 L 87 87 Z " fill-rule="evenodd" fill="rgb(66,66,66)"/><path d=" M 362 227 Q 285.772 225.688 87 226.294 L 87 416 L 937 416 L 937 362 Q 682.485 363.848 570.242 362.424 C 458 361 438.228 228.312 362 227 Z " fill-rule="evenodd" fill="rgb(255,202,40)"/><path d=" M 346 258 Q 269.772 256.688 87 257.294 L 87 937 L 937 937 L 937 393 Q 667.485 394.848 555.242 393.424 C 443 392 422.228 259.312 346 258 Z " fill-rule="evenodd" fill="rgb(224,224,224)"/><g id="python-logo-generic"><path d=" M 510.055 472.73 C 494.529 472.803 479.703 474.127 466.657 476.435 C 428.226 483.225 421.248 497.436 421.248 523.643 L 421.248 558.255 L 512.066 558.255 L 512.066 569.793 L 421.248 569.793 L 387.165 569.793 C 360.771 569.793 337.66 585.657 330.431 615.837 C 322.092 650.429 321.723 672.016 330.431 708.136 C 336.886 735.022 352.303 754.18 378.697 754.18 L 409.923 754.18 L 409.923 712.687 C 409.923 682.711 435.858 656.27 466.657 656.27 L 557.368 656.27 C 582.619 656.27 602.777 635.48 602.777 610.121 L 602.777 523.643 C 602.777 499.031 582.014 480.543 557.368 476.435 C 541.767 473.838 525.58 472.658 510.055 472.73 Z  M 460.941 500.568 C 470.322 500.568 477.983 508.354 477.983 517.927 C 477.983 527.467 470.322 535.181 460.941 535.181 C 451.527 535.181 443.9 527.467 443.9 517.927 C 443.9 508.354 451.527 500.568 460.941 500.568 Z " fill="rgb(63,81,181)"/><path d=" M 614.103 569.793 L 614.103 610.121 C 614.103 641.387 587.596 667.702 557.368 667.702 L 466.657 667.702 C 441.81 667.702 421.248 688.968 421.248 713.852 L 421.248 800.329 C 421.248 824.941 442.65 839.418 466.657 846.479 C 495.405 854.932 522.972 856.459 557.368 846.479 C 580.232 839.859 602.777 826.537 602.777 800.329 L 602.777 765.717 L 512.066 765.717 L 512.066 754.18 L 602.777 754.18 L 648.186 754.18 C 674.58 754.18 684.415 735.769 693.594 708.136 C 703.076 679.688 702.673 652.33 693.594 615.837 C 687.072 589.561 674.613 569.793 648.186 569.793 L 614.103 569.793 Z  M 563.084 788.792 C 572.499 788.792 580.126 796.506 580.126 806.045 C 580.126 815.618 572.499 823.404 563.084 823.404 C 553.703 823.404 546.043 815.618 546.043 806.045 C 546.043 796.506 553.703 788.792 563.084 788.792 Z " fill="rgb(255,202,40)"/></g></g></svg>