<?xml version="1.0" standalone="no"?><!-- Generator: Gravit.io --><svg xmlns="http://www.w3.org/2000/svg" xmlns:xlink="http://www.w3.org/1999/xlink" style="isolation:isolate" viewBox="0 0 1024 1024" width="1024" height="1024"><defs><clipPath id="_clipPath_KkgbNtND3zytTOlyEu6j5XwlnSXojxDE"><rect width="1024" height="1024"/></clipPath></defs><g clip-path="url(#_clipPath_KkgbNtND3zytTOlyEu6j5XwlnSXojxDE)"><rect x="119.484" y="86.333" width="785.032" height="850" transform="matrix(1,0,0,1,0,0)" fill="rgb(255,255,255)"/><clipPath id="_clipPath_pwrqKqhnzhU1AjvkHTMU8jU8f5b5GNIu"><rect x="119.484" y="86.333" width="785.032" height="850" transform="matrix(1,0,0,1,0,0)" fill="rgb(255,255,255)"/></clipPath><g clip-path="url(#_clipPath_pwrqKqhnzhU1AjvkHTMU8jU8f5b5GNIu)"><g id="Group"><path d=" M 400 948.485 L 527.825 733.082 Q 366.579 373.46 173.583 44.436 L 107.576 43.939 L 107.576 950 L 400 948.485 Z " fill="rgb(67,160,71)"/><path d=" M 338.344 440.033 L 181.818 69.697 L 928.788 68.182 L 928.788 439.394 L 338.344 440.033 Z " fill="rgb(229,57,53)"/><path d=" M 392.424 948.485 L 686.707 381.188 L 922.727 380.303 L 922.727 948.485 L 392.424 948.485 Z " fill="rgb(253,216,53)"/><path d=" M 294.506 510.235 C 294.506 386.496 394.966 286.035 518.706 286.035 C 642.445 286.035 742.906 386.496 742.906 510.235 C 742.906 633.975 642.445 734.435 518.706 734.435 C 394.966 734.435 294.506 633.975 294.506 510.235 Z " fill="rgb(238,238,238)"/><path d=" M 386.304 510.235 C 386.304 437.161 445.631 377.834 518.706 377.834 C 591.78 377.834 651.107 437.161 651.107 510.235 C 651.107 583.31 591.78 642.637 518.706 642.637 C 445.631 642.637 386.304 583.31 386.304 510.235 Z " fill="rgb(30,136,229)"/></g></g></g></svg>