<?xml version="1.0" standalone="no"?>
<!-- Generator: Gravit.io -->
<svg xmlns="http://www.w3.org/2000/svg" xmlns:xlink="http://www.w3.org/1999/xlink" style="isolation:isolate" viewBox="0 0 1024 1024" width="1024" height="1024">
    <defs>
        <clipPath id="_clipPath_WtsbAGF0rHj7fbxOhqAqrm5btqiq1HUs">
            <rect width="1024" height="1024" />
        </clipPath>
    </defs>
    <g clip-path="url(#_clipPath_WtsbAGF0rHj7fbxOhqAqrm5btqiq1HUs)">
        <g id="App without icon">
            <rect x="90" y="85" width="850" height="850" transform="matrix(1,0,0,1,0,0)" fill="rgb(227,242,253)" />
            <path d=" M 90 85 L 940 85 L 940 935 L 90 935 L 90 85 Z  M 118.977 113.977 L 911.023 113.977 L 911.023 906.023 L 118.977 906.023 L 118.977 113.977 Z " fill-rule="evenodd" fill="rgb(25,118,210)" />
            <g id="Accessories">
                <g id="Ruler">
                    <path d=" M 245 374.583 L 245 474.203 L 785 474.203 L 785 374.583 L 245 374.583 Z " fill-rule="evenodd" fill="rgb(139,104,69)" fill-opacity="0.8369715073529411" />
                    <path d=" M 265 398.937 L 265 399.468 C 265 402.081 267.121 404.203 269.735 404.203 L 760.265 404.203 C 762.879 404.203 765 402.081 765 399.468 L 765 398.937 C 765 396.324 762.879 394.203 760.265 394.203 L 269.735 394.203 C 267.121 394.203 265 396.324 265 398.937 Z " fill-rule="evenodd" fill="rgb(118,89,60)" fill-opacity="0.8256261488970589" />
                </g>
                <g id="Pen">
                    <path d=" M 285.443 588.435 L 295.334 515.794 C 326.969 504.007 350.454 519.271 354.041 553.919 L 290.922 591.993 Q 287.107 594.111 285.953 593.362 Q 284.8 592.613 285.443 588.435 Z " fill="rgb(255,204,128)" />
                    <path d=" M 420.601 322.9 L 479.308 361.025 L 354.041 553.919 C 338.268 531.471 314.794 516.263 295.334 515.794 L 420.601 322.9 Z " fill="rgb(66,165,245)" />
                    <rect x="416.029" y="302.409" width="90" height="45" transform="matrix(0.839,0.545,-0.545,0.839,251.336,-198.677)" fill="rgb(189,189,189)" />
                    <path d=" M 483.462 268.333 L 503.59 281.404 C 514.236 288.318 517.266 302.574 510.353 313.22 L 501.094 327.478 L 442.387 289.353 L 451.646 275.096 C 458.559 264.45 472.816 261.419 483.462 268.333 Z " fill="rgb(139,195,74)" />
                </g>
                <g id="Paint Pencil">
                    <path d=" M 736.769 596.879 Q 713.719 602.756 703.13 604.328 C 700.4 604.733 697.369 602.975 696.365 600.405 L 653.918 491.746 L 696.866 466.144 L 772.259 555.163 C 774.043 557.269 774.095 560.731 772.376 562.89 Q 764.963 572.202 749.875 588.958 C 746.92 592.239 741.048 595.788 736.769 596.879 Z " fill="rgb(121,85,72)" />
                    <path d=" M 617.992 430.56 Q 481.575 187.014 496.177 178.309 Q 510.78 169.604 661.023 406.017 C 651.734 421.673 635.63 430.176 617.992 430.56 Z " fill="rgb(136,14,79)" />
                    <path d=" M 617.992 430.56 C 633.453 428.07 649.584 419.574 661.023 406.017 L 696.866 466.144 C 685.859 478.924 669.839 488.486 653.918 491.746 L 617.992 430.56 Z " fill="rgb(235,235,235)" />
                </g>
            </g>
            <path d=" M 579.3 792.24 C 581.62 792.24 583.38 791.6 584.74 790.24 C 586.1 788.96 586.74 787.2 586.74 784.96 L 586.74 742.16 C 586.74 740 586.1 738.24 584.74 736.88 C 583.38 735.6 581.62 734.96 579.3 734.96 C 577.06 734.96 575.3 735.6 574.02 736.88 C 572.66 738.24 572.02 740 572.02 742.16 L 572.02 784.96 C 572.02 787.2 572.66 788.96 574.02 790.24 C 575.3 791.6 577.06 792.24 579.3 792.24 Z  M 635.3 780.72 L 625.38 771.2 L 634.1 762.56 C 635.46 761.2 636.18 759.68 636.18 758 C 636.18 756.32 635.54 754.88 634.26 753.52 C 632.9 752.24 631.38 751.6 629.7 751.6 C 627.94 751.6 626.42 752.32 625.06 753.68 L 610.26 768.72 L 610.26 741.6 C 610.26 739.44 609.62 737.76 608.26 736.64 C 606.9 735.52 605.14 734.96 603.14 734.96 C 601.14 734.96 599.46 735.52 598.1 736.64 C 596.74 737.76 596.02 739.44 596.02 741.6 L 596.02 785.52 C 596.02 787.68 596.74 789.36 598.1 790.48 C 599.46 791.6 601.14 792.16 603.14 792.16 C 605.14 792.16 606.9 791.6 608.26 790.48 C 609.62 789.36 610.26 787.68 610.26 785.52 L 610.26 774.72 L 626.5 790.16 C 628.02 791.52 629.46 792.16 630.98 792.16 C 632.74 792.16 634.26 791.44 635.54 790.08 C 636.74 788.72 637.38 787.12 637.38 785.36 C 637.38 783.6 636.66 782.08 635.3 780.72 Z  M 662.26 792.4 C 666.66 792.4 670.42 791.52 673.7 789.84 C 676.98 788.16 679.46 785.84 681.3 782.72 C 683.06 779.6 683.94 776 683.94 771.84 C 683.94 767.68 683.06 764.08 681.3 760.96 C 679.46 757.92 676.98 755.6 673.7 753.92 C 670.42 752.24 666.66 751.44 662.26 751.44 C 657.86 751.44 654.1 752.24 650.82 753.92 C 647.54 755.6 645.06 757.92 643.3 760.96 C 641.46 764.08 640.58 767.68 640.58 771.84 C 640.58 776 641.46 779.6 643.3 782.72 C 645.06 785.84 647.62 788.16 650.9 789.84 C 654.18 791.52 657.94 792.4 662.26 792.4 Z  M 662.26 781.76 C 657.22 781.76 654.66 778.48 654.66 771.84 C 654.66 765.2 657.22 761.92 662.26 761.92 C 667.3 761.92 669.86 765.2 669.86 771.84 C 669.86 778.48 667.3 781.76 662.26 781.76 Z  M 716.9 751.44 C 714.26 751.44 711.78 752 709.62 753.04 C 707.46 754.08 705.62 755.68 704.26 757.68 C 704.26 755.84 703.7 754.4 702.5 753.28 C 701.3 752.16 699.62 751.6 697.62 751.6 C 695.46 751.6 693.78 752.16 692.42 753.36 C 691.06 754.56 690.42 756.16 690.42 758 L 690.42 785.68 C 690.42 787.68 691.06 789.28 692.34 790.48 C 693.62 791.68 695.38 792.24 697.54 792.24 C 699.7 792.24 701.46 791.68 702.74 790.48 C 704.02 789.28 704.66 787.68 704.66 785.68 L 704.66 769.84 C 704.66 767.52 705.3 765.68 706.58 764.32 C 707.78 762.96 709.46 762.32 711.62 762.32 C 713.3 762.32 714.5 762.88 715.38 763.92 C 716.18 764.96 716.58 766.72 716.58 769.04 L 716.58 785.68 C 716.58 787.68 717.22 789.28 718.5 790.48 C 719.78 791.68 721.54 792.24 723.7 792.24 C 725.86 792.24 727.62 791.68 728.9 790.48 C 730.18 789.28 730.82 787.68 730.82 785.68 L 730.82 768.4 C 730.82 762.72 729.7 758.4 727.38 755.6 C 725.06 752.8 721.62 751.44 716.9 751.44 Z  M 345.22 780.72 L 327.46 762.48 L 343.86 746.4 C 345.38 744.88 346.18 743.28 346.18 741.52 C 346.18 739.76 345.54 738.24 344.18 736.88 C 342.82 735.6 341.3 734.96 339.54 734.96 C 337.78 734.96 336.18 735.68 334.82 737.12 L 312.34 759.76 L 312.34 742.16 C 312.34 740 311.7 738.24 310.34 736.88 C 308.98 735.6 307.22 734.96 304.9 734.96 C 302.66 734.96 300.9 735.6 299.62 736.88 C 298.26 738.24 297.62 740 297.62 742.16 L 297.62 784.96 C 297.62 787.2 298.26 788.96 299.62 790.24 C 300.9 791.6 302.66 792.24 304.9 792.24 C 307.22 792.24 308.98 791.6 310.34 790.24 C 311.7 788.96 312.34 787.2 312.34 784.96 L 312.34 766.08 L 335.14 789.44 C 336.82 791.12 338.58 792 340.58 792 C 342.42 792 343.94 791.36 345.3 790 C 346.66 788.64 347.3 787.12 347.3 785.36 C 347.3 783.6 346.58 782.08 345.22 780.72 Z  M 384.5 779.12 C 383.86 779.12 383.14 779.2 382.42 779.44 C 381.62 779.68 380.82 780 380.02 780.32 C 378.66 780.88 377.38 781.28 376.26 781.52 C 375.14 781.84 373.94 782 372.58 782 C 370.1 782 368.18 781.44 366.9 780.32 C 365.62 779.2 364.82 777.36 364.42 774.8 L 385.54 774.8 C 386.58 774.8 387.46 774.48 388.02 773.76 C 388.58 773.12 388.82 772.16 388.82 770.96 C 388.82 767.04 388.1 763.6 386.58 760.64 C 385.06 757.68 382.9 755.44 380.1 753.84 C 377.3 752.24 374.1 751.44 370.42 751.44 C 366.66 751.44 363.22 752.32 360.26 754 C 357.22 755.76 354.9 758.16 353.22 761.28 C 351.54 764.4 350.66 768 350.66 771.92 C 350.66 776.08 351.54 779.68 353.3 782.8 C 355.06 785.92 357.54 788.24 360.82 789.92 C 364.1 791.6 367.86 792.4 372.26 792.4 C 374.34 792.4 376.66 792.08 379.14 791.44 C 381.62 790.88 383.7 790.08 385.54 789.2 C 387.62 788.08 388.66 786.48 388.66 784.32 C 388.66 782.8 388.26 781.52 387.54 780.56 C 386.74 779.6 385.7 779.12 384.5 779.12 Z  M 370.82 761.04 C 374.58 761.04 376.58 763.36 376.9 768.08 L 364.34 768.08 C 364.58 765.76 365.22 764 366.34 762.8 C 367.46 761.6 368.98 761.04 370.82 761.04 Z  M 402.42 792.24 C 404.42 792.24 406.18 791.68 407.54 790.56 C 408.9 789.52 409.54 787.84 409.54 785.68 L 409.54 758.16 C 409.54 756 408.9 754.32 407.54 753.2 C 406.18 752.16 404.42 751.6 402.42 751.6 C 400.42 751.6 398.74 752.16 397.38 753.2 C 396.02 754.32 395.3 756 395.3 758.16 L 395.3 785.68 C 395.3 787.84 396.02 789.52 397.38 790.56 C 398.74 791.68 400.42 792.24 402.42 792.24 Z  M 402.42 746 C 404.82 746 406.74 745.36 408.1 744.08 C 409.54 742.88 410.26 741.2 410.26 739.12 C 410.26 737.04 409.54 735.36 408.1 734.16 C 406.66 732.96 404.74 732.32 402.42 732.32 C 400.02 732.32 398.1 732.96 396.66 734.16 C 395.3 735.36 394.58 737.04 394.58 739.12 C 394.58 741.2 395.3 742.88 396.66 744.08 C 398.1 745.36 400.02 746 402.42 746 Z  M 444.26 751.44 C 441.62 751.44 439.14 752 436.98 753.04 C 434.82 754.08 432.98 755.68 431.62 757.68 C 431.62 755.84 431.06 754.4 429.86 753.28 C 428.66 752.16 426.98 751.6 424.98 751.6 C 422.82 751.6 421.14 752.16 419.78 753.36 C 418.42 754.56 417.78 756.16 417.78 758 L 417.78 785.68 C 417.78 787.68 418.42 789.28 419.7 790.48 C 420.98 791.68 422.74 792.24 424.9 792.24 C 427.06 792.24 428.82 791.68 430.1 790.48 C 431.38 789.28 432.02 787.68 432.02 785.68 L 432.02 769.84 C 432.02 767.52 432.66 765.68 433.94 764.32 C 435.14 762.96 436.82 762.32 438.98 762.32 C 440.66 762.32 441.86 762.88 442.74 763.92 C 443.54 764.96 443.94 766.72 443.94 769.04 L 443.94 785.68 C 443.94 787.68 444.58 789.28 445.86 790.48 C 447.14 791.68 448.9 792.24 451.06 792.24 C 453.22 792.24 454.98 791.68 456.26 790.48 C 457.54 789.28 458.18 787.68 458.18 785.68 L 458.18 768.4 C 458.18 762.72 457.06 758.4 454.74 755.6 C 452.42 752.8 448.98 751.44 444.26 751.44 Z  M 498.18 779.12 C 497.54 779.12 496.82 779.2 496.1 779.44 C 495.3 779.68 494.5 780 493.7 780.32 C 492.34 780.88 491.06 781.28 489.94 781.52 C 488.82 781.84 487.62 782 486.26 782 C 483.78 782 481.86 781.44 480.58 780.32 C 479.3 779.2 478.5 777.36 478.1 774.8 L 499.22 774.8 C 500.26 774.8 501.14 774.48 501.7 773.76 C 502.26 773.12 502.5 772.16 502.5 770.96 C 502.5 767.04 501.78 763.6 500.26 760.64 C 498.74 757.68 496.58 755.44 493.78 753.84 C 490.98 752.24 487.78 751.44 484.1 751.44 C 480.34 751.44 476.9 752.32 473.94 754 C 470.9 755.76 468.58 758.16 466.9 761.28 C 465.22 764.4 464.34 768 464.34 771.92 C 464.34 776.08 465.22 779.68 466.98 782.8 C 468.74 785.92 471.22 788.24 474.5 789.92 C 477.78 791.6 481.54 792.4 485.94 792.4 C 488.02 792.4 490.34 792.08 492.82 791.44 C 495.3 790.88 497.38 790.08 499.22 789.2 C 501.3 788.08 502.34 786.48 502.34 784.32 C 502.34 782.8 501.94 781.52 501.22 780.56 C 500.42 779.6 499.38 779.12 498.18 779.12 Z  M 484.5 761.04 C 488.26 761.04 490.26 763.36 490.58 768.08 L 478.02 768.08 C 478.26 765.76 478.9 764 480.02 762.8 C 481.14 761.6 482.66 761.04 484.5 761.04 Z  M 524.5 792.4 C 529.94 792.4 534.26 791.2 537.54 788.88 C 540.74 786.56 542.34 783.52 542.34 779.6 C 542.34 776.16 541.3 773.44 539.14 771.6 C 536.98 769.76 533.38 768.4 528.18 767.52 C 525.06 766.96 523.06 766.4 522.02 765.92 C 520.98 765.44 520.42 764.8 520.42 763.92 C 520.42 763.2 520.82 762.56 521.54 762.16 C 522.26 761.76 523.3 761.6 524.66 761.6 C 526.02 761.6 527.14 761.76 528.18 762 C 529.14 762.32 530.26 762.8 531.54 763.36 C 533.46 764.24 535.14 764.72 536.5 764.72 C 537.7 764.72 538.66 764.24 539.46 763.2 C 540.26 762.16 540.66 760.96 540.66 759.44 C 540.66 757.28 539.86 755.76 538.18 754.8 C 536.42 753.76 534.42 752.88 532.18 752.32 C 529.86 751.76 527.54 751.44 525.14 751.44 C 521.86 751.44 518.82 752 516.18 753.12 C 513.54 754.24 511.46 755.76 509.94 757.76 C 508.42 759.76 507.62 761.92 507.62 764.4 C 507.62 767.76 508.66 770.32 510.82 772.16 C 512.9 774 516.34 775.44 521.06 776.32 C 523.7 776.88 525.62 777.28 526.74 777.52 C 527.86 777.84 528.66 778.16 529.06 778.48 C 529.46 778.8 529.62 779.28 529.62 779.84 C 529.62 780.56 529.22 781.12 528.42 781.52 C 527.54 781.92 526.42 782.16 524.98 782.16 C 522.98 782.16 521.3 782 520.02 781.68 C 518.66 781.36 517.14 780.88 515.46 780.32 C 514.42 779.92 513.62 779.6 512.9 779.36 C 512.18 779.2 511.46 779.12 510.66 779.12 C 509.46 779.12 508.5 779.6 507.78 780.48 C 506.98 781.44 506.58 782.64 506.58 784.08 C 506.58 785.2 506.82 786.24 507.22 787.12 C 507.62 788 508.26 788.64 508.98 789.04 C 510.82 790.24 512.98 791.04 515.46 791.6 C 517.94 792.16 520.9 792.4 524.5 792.4 Z " fill-rule="evenodd" fill="rgb(25,118,210)" />
        </g>
    </g>
</svg>