<?xml version="1.0" standalone="no"?>
<!-- Generator: Gravit.io -->
<svg xmlns="http://www.w3.org/2000/svg" xmlns:xlink="http://www.w3.org/1999/xlink" style="isolation:isolate" viewBox="0 0 1024 1024" width="1024" height="1024">
    <defs>
        <clipPath id="_clipPath_p3fudrgyEt0JvRwnN728IwUbZ5jbP9MO">
            <rect width="1024" height="1024" />
        </clipPath>
    </defs>
    <g clip-path="url(#_clipPath_p3fudrgyEt0JvRwnN728IwUbZ5jbP9MO)">
        <path d=" M 87 87 L 87 937 L 937 937 L 937 87 L 87 87 Z " fill-rule="evenodd" fill="rgb(158,158,158)" />
        <g id="password">
            <rect x="746.875" y="360.333" width="152.667" height="335.667" transform="matrix(1,0,0,1,0,0)" fill="rgb(224,224,224)" />
            <path d=" M 747.718 370.923 L 747.718 684.919 C 747.718 690.777 752.474 695.533 758.332 695.533 L 888.353 695.533 C 894.211 695.533 898.967 690.777 898.967 684.919 L 898.967 370.923 C 898.967 365.065 894.211 360.309 888.353 360.309 L 758.332 360.309 C 752.474 360.309 747.718 365.065 747.718 370.923 Z  M 741.7 370.9 L 741.7 684.9 C 741.7 689.3 743.5 693.6 746.6 696.7 C 749.7 699.8 753.9 701.5 758.3 701.5 L 888.4 701.5 C 892.8 701.5 897 699.8 900.1 696.7 C 903.2 693.6 905 689.3 905 684.9 L 905 370.9 C 905 366.5 903.2 362.3 900.1 359.2 C 897 356.1 892.8 354.3 888.4 354.3 L 758.3 354.3 C 753.9 354.3 749.7 356.1 746.6 359.2 C 743.5 362.3 741.7 366.5 741.7 370.9 Z " fill-rule="evenodd" fill="rgb(101,101,101)" />
            <path d=" M 778.675 520.403 L 778.675 537.208 C 778.675 540.137 781.053 542.515 783.982 542.515 L 796.365 542.515 C 799.294 542.515 801.672 540.137 801.672 537.208 L 801.672 520.403 C 801.672 517.474 799.294 515.096 796.365 515.096 L 783.982 515.096 C 781.053 515.096 778.675 517.474 778.675 520.403 Z " fill-rule="evenodd" fill="rgb(117,117,117)" />
            <path d=" M 814.055 520.403 L 814.055 537.208 C 814.055 540.137 816.433 542.515 819.362 542.515 L 831.745 542.515 C 834.674 542.515 837.052 540.137 837.052 537.208 L 837.052 520.403 C 837.052 517.474 834.674 515.096 831.745 515.096 L 819.362 515.096 C 816.433 515.096 814.055 517.474 814.055 520.403 Z " fill-rule="evenodd" fill="rgb(117,117,117)" />
            <path d=" M 849.435 520.403 L 849.435 537.208 C 849.435 540.137 851.813 542.515 854.742 542.515 L 867.125 542.515 C 870.054 542.515 872.432 540.137 872.432 537.208 L 872.432 520.403 C 872.432 517.474 870.054 515.096 867.125 515.096 L 854.742 515.096 C 851.813 515.096 849.435 517.474 849.435 520.403 Z " fill-rule="evenodd" fill="rgb(117,117,117)" />
            <path d=" M 778.675 564.627 L 778.675 581.433 C 778.675 584.362 781.053 586.74 783.982 586.74 L 796.365 586.74 C 799.294 586.74 801.672 584.362 801.672 581.433 L 801.672 564.627 C 801.672 561.698 799.294 559.32 796.365 559.32 L 783.982 559.32 C 781.053 559.32 778.675 561.698 778.675 564.627 Z " fill-rule="evenodd" fill="rgb(117,117,117)" />
            <path d=" M 814.055 564.627 L 814.055 581.433 C 814.055 584.362 816.433 586.74 819.362 586.74 L 831.745 586.74 C 834.674 586.74 837.052 584.362 837.052 581.433 L 837.052 564.627 C 837.052 561.698 834.674 559.32 831.745 559.32 L 819.362 559.32 C 816.433 559.32 814.055 561.698 814.055 564.627 Z " fill-rule="evenodd" fill="rgb(117,117,117)" />
            <path d=" M 849.435 564.627 L 849.435 581.433 C 849.435 584.362 851.813 586.74 854.742 586.74 L 867.125 586.74 C 870.054 586.74 872.432 584.362 872.432 581.433 L 872.432 564.627 C 872.432 561.698 870.054 559.32 867.125 559.32 L 854.742 559.32 C 851.813 559.32 849.435 561.698 849.435 564.627 Z " fill-rule="evenodd" fill="rgb(117,117,117)" />
            <path d=" M 778.675 609.186 L 778.675 625.991 C 778.675 628.92 781.053 631.298 783.982 631.298 L 796.365 631.298 C 799.294 631.298 801.672 628.92 801.672 625.991 L 801.672 609.186 C 801.672 606.257 799.294 603.879 796.365 603.879 L 783.982 603.879 C 781.053 603.879 778.675 606.257 778.675 609.186 Z " fill-rule="evenodd" fill="rgb(117,117,117)" />
            <path d=" M 814.055 608.852 L 814.055 625.658 C 814.055 628.587 816.433 630.965 819.362 630.965 L 831.745 630.965 C 834.674 630.965 837.052 628.587 837.052 625.658 L 837.052 608.852 C 837.052 605.923 834.674 603.545 831.745 603.545 L 819.362 603.545 C 816.433 603.545 814.055 605.923 814.055 608.852 Z " fill-rule="evenodd" fill="rgb(117,117,117)" />
            <path d=" M 849.435 608.852 L 849.435 625.658 C 849.435 628.587 851.813 630.965 854.742 630.965 L 867.125 630.965 C 870.054 630.965 872.432 628.587 872.432 625.658 L 872.432 608.852 C 872.432 605.923 870.054 603.545 867.125 603.545 L 854.742 603.545 C 851.813 603.545 849.435 605.923 849.435 608.852 Z " fill-rule="evenodd" fill="rgb(117,117,117)" />
            <path d=" M 778.675 653.077 L 778.675 669.882 C 778.675 672.811 781.053 675.189 783.982 675.189 L 796.365 675.189 C 799.294 675.189 801.672 672.811 801.672 669.882 L 801.672 653.077 C 801.672 650.148 799.294 647.77 796.365 647.77 L 783.982 647.77 C 781.053 647.77 778.675 650.148 778.675 653.077 Z " fill-rule="evenodd" fill="rgb(117,117,117)" />
            <path d=" M 814.055 653.077 L 814.055 669.882 C 814.055 672.811 816.433 675.189 819.362 675.189 L 831.745 675.189 C 834.674 675.189 837.052 672.811 837.052 669.882 L 837.052 653.077 C 837.052 650.148 834.674 647.77 831.745 647.77 L 819.362 647.77 C 816.433 647.77 814.055 650.148 814.055 653.077 Z " fill-rule="evenodd" fill="rgb(76,175,80)" />
            <path d=" M 849.435 653.077 L 849.435 669.882 C 849.435 672.811 851.813 675.189 854.742 675.189 L 867.125 675.189 C 870.054 675.189 872.432 672.811 872.432 669.882 L 872.432 653.077 C 872.432 650.148 870.054 647.77 867.125 647.77 L 854.742 647.77 C 851.813 647.77 849.435 650.148 849.435 653.077 Z " fill-rule="evenodd" fill="rgb(255,152,0)" />
            <path d=" M 791.504 521.591 L 791.504 534.349 L 794.752 534.349 L 794.752 536.557 L 785.518 536.557 L 785.518 534.349 L 788.766 534.349 L 788.766 524.712 L 786.197 526.262 L 785.114 524.266 L 789.551 521.591 L 791.504 521.591 Z " fill="rgb(231,231,231)" />
            <path d=" M 823.445 534.349 L 830.089 534.349 L 830.089 536.557 L 820.027 536.557 L 820.027 534.54 L 825.122 529.064 L 825.122 529.064 Q 826.014 528.087 826.427 527.27 L 826.427 527.27 L 826.427 527.27 Q 826.841 526.453 826.841 525.646 L 826.841 525.646 L 826.841 525.646 Q 826.841 524.627 826.258 524.107 L 826.258 524.107 L 826.258 524.107 Q 825.674 523.587 824.549 523.587 L 824.549 523.587 L 824.549 523.587 Q 822.532 523.587 820.494 525.137 L 820.494 525.137 L 819.581 523.141 L 819.581 523.141 Q 820.473 522.356 821.863 521.878 L 821.863 521.878 L 821.863 521.878 Q 823.254 521.4 824.655 521.4 L 824.655 521.4 L 824.655 521.4 Q 826.905 521.4 828.221 522.504 L 828.221 522.504 L 828.221 522.504 Q 829.537 523.608 829.537 525.476 L 829.537 525.476 L 829.537 525.476 Q 829.537 526.771 828.985 527.907 L 828.985 527.907 L 828.985 527.907 Q 828.434 529.042 827.117 530.443 L 827.117 530.443 L 823.445 534.349 Z " fill="rgb(231,231,231)" />
            <path d=" M 862.54 528.873 L 862.54 528.873 Q 863.856 529.212 864.567 530.157 L 864.567 530.157 L 864.567 530.157 Q 865.278 531.102 865.278 532.503 L 865.278 532.503 L 865.278 532.503 Q 865.278 534.456 863.845 535.591 L 863.845 535.591 L 863.845 535.591 Q 862.412 536.727 859.95 536.727 L 859.95 536.727 L 859.95 536.727 Q 858.443 536.727 857.052 536.26 L 857.052 536.26 L 857.052 536.26 Q 855.662 535.793 854.749 534.986 L 854.749 534.986 L 855.662 532.991 L 855.662 532.991 Q 857.615 534.54 859.844 534.54 L 859.844 534.54 L 859.844 534.54 Q 861.266 534.54 861.966 533.978 L 861.966 533.978 L 861.966 533.978 Q 862.667 533.415 862.667 532.269 L 862.667 532.269 L 862.667 532.269 Q 862.667 531.144 861.956 530.603 L 861.956 530.603 L 861.956 530.603 Q 861.245 530.061 859.759 530.061 L 859.759 530.061 L 857.785 530.061 L 857.785 527.896 L 859.398 527.896 L 859.398 527.896 Q 862.306 527.896 862.306 525.71 L 862.306 525.71 L 862.306 525.71 Q 862.306 524.691 861.68 524.139 L 861.68 524.139 L 861.68 524.139 Q 861.054 523.587 859.907 523.587 L 859.907 523.587 L 859.907 523.587 Q 858.91 523.587 857.88 523.98 L 857.88 523.98 L 857.88 523.98 Q 856.851 524.372 855.874 525.137 L 855.874 525.137 L 854.961 523.141 L 854.961 523.141 Q 855.853 522.334 857.243 521.867 L 857.243 521.867 L 857.243 521.867 Q 858.634 521.4 860.077 521.4 L 860.077 521.4 L 860.077 521.4 Q 862.285 521.4 863.601 522.472 L 863.601 522.472 L 863.601 522.472 Q 864.917 523.544 864.917 525.37 L 864.917 525.37 L 864.917 525.37 Q 864.896 526.622 864.27 527.546 L 864.27 527.546 L 864.27 527.546 Q 863.643 528.469 862.54 528.873 L 862.54 528.873 Z " fill="rgb(231,231,231)" />
            <path d=" M 793.16 575.73 L 795.261 575.73 L 795.261 577.852 L 793.16 577.852 L 793.16 580.782 L 790.485 580.782 L 790.485 577.852 L 783.989 577.852 L 783.989 575.836 L 790.952 565.816 L 793.16 565.816 L 793.16 575.73 Z  M 790.485 570.019 L 786.537 575.73 L 790.485 575.73 L 790.485 570.019 Z " fill-rule="evenodd" fill="rgb(231,231,231)" />
            <path d=" M 825.653 571.208 L 825.653 571.208 Q 827.054 571.208 828.126 571.813 L 828.126 571.813 L 828.126 571.813 Q 829.198 572.418 829.781 573.501 L 829.781 573.501 L 829.781 573.501 Q 830.365 574.583 830.365 575.984 L 830.365 575.984 L 830.365 575.984 Q 830.365 577.47 829.686 578.595 L 829.686 578.595 L 829.686 578.595 Q 829.007 579.721 827.765 580.336 L 827.765 580.336 L 827.765 580.336 Q 826.523 580.952 824.846 580.952 L 824.846 580.952 L 824.846 580.952 Q 823.445 580.952 822.076 580.474 L 822.076 580.474 L 822.076 580.474 Q 820.707 579.996 819.815 579.211 L 819.815 579.211 L 820.728 577.216 L 820.728 577.216 Q 822.766 578.765 824.888 578.765 L 824.888 578.765 L 824.888 578.765 Q 826.289 578.765 827.032 578.065 L 827.032 578.065 L 827.032 578.065 Q 827.775 577.364 827.775 576.069 L 827.775 576.069 L 827.775 576.069 Q 827.775 574.817 827.022 574.084 L 827.022 574.084 L 827.022 574.084 Q 826.268 573.352 824.973 573.352 L 824.973 573.352 L 824.973 573.352 Q 824.103 573.352 823.328 573.681 L 823.328 573.681 L 823.328 573.681 Q 822.553 574.01 821.938 574.626 L 821.938 574.626 L 820.303 574.626 L 820.303 565.816 L 829.686 565.816 L 829.686 567.939 L 822.978 567.939 L 822.978 571.972 L 822.978 571.972 Q 824.061 571.208 825.653 571.208 L 825.653 571.208 Z " fill="rgb(231,231,231)" />
            <path d=" M 861.16 571.187 L 861.16 571.187 Q 862.476 571.187 863.516 571.792 L 863.516 571.792 L 863.516 571.792 Q 864.556 572.397 865.14 573.49 L 865.14 573.49 L 865.14 573.49 Q 865.724 574.583 865.724 575.984 L 865.724 575.984 L 865.724 575.984 Q 865.724 577.428 865.087 578.564 L 865.087 578.564 L 865.087 578.564 Q 864.45 579.699 863.304 580.336 L 863.304 580.336 L 863.304 580.336 Q 862.158 580.973 860.714 580.973 L 860.714 580.973 L 860.714 580.973 Q 857.87 580.973 856.331 579.052 L 856.331 579.052 L 856.331 579.052 Q 854.791 577.131 854.791 573.564 L 854.791 573.564 L 854.791 573.564 Q 854.791 571.102 855.524 569.308 L 855.524 569.308 L 855.524 569.308 Q 856.256 567.514 857.636 566.57 L 857.636 566.57 L 857.636 566.57 Q 859.016 565.625 860.905 565.625 L 860.905 565.625 L 860.905 565.625 Q 862.242 565.625 863.516 566.082 L 863.516 566.082 L 863.516 566.082 Q 864.79 566.538 865.724 567.366 L 865.724 567.366 L 864.811 569.361 L 864.811 569.361 Q 862.837 567.812 861.011 567.812 L 861.011 567.812 L 861.011 567.812 Q 859.377 567.812 858.464 569.202 L 858.464 569.202 L 858.464 569.202 Q 857.551 570.593 857.509 573.225 L 857.509 573.225 L 857.509 573.225 Q 857.997 572.27 858.973 571.728 L 858.973 571.728 L 858.973 571.728 Q 859.95 571.187 861.16 571.187 L 861.16 571.187 Z  M 860.587 578.808 L 860.587 578.808 Q 861.754 578.808 862.444 578.065 L 862.444 578.065 L 862.444 578.065 Q 863.134 577.322 863.134 576.069 L 863.134 576.069 L 863.134 576.069 Q 863.134 574.838 862.434 574.095 L 862.434 574.095 L 862.434 574.095 Q 861.733 573.352 860.565 573.352 L 860.565 573.352 L 860.565 573.352 Q 859.398 573.352 858.666 574.106 L 858.666 574.106 L 858.666 574.106 Q 857.933 574.859 857.933 576.069 L 857.933 576.069 L 857.933 576.069 Q 857.933 577.301 858.666 578.054 L 858.666 578.054 L 858.666 578.054 Q 859.398 578.808 860.587 578.808 L 860.587 578.808 Z " fill-rule="evenodd" fill="rgb(231,231,231)" />
            <path d=" M 784.265 612.249 L 784.265 610.041 L 794.688 610.041 L 794.688 612.079 L 787.895 625.007 L 784.987 625.007 L 791.759 612.249 L 784.265 612.249 Z " fill="rgb(231,231,231)" />
            <path d=" M 827.712 617.322 L 827.712 617.322 Q 829.028 617.683 829.739 618.638 L 829.739 618.638 L 829.739 618.638 Q 830.45 619.594 830.45 620.973 L 830.45 620.973 L 830.45 620.973 Q 830.45 622.948 828.964 624.062 L 828.964 624.062 L 828.964 624.062 Q 827.478 625.176 824.846 625.176 L 824.846 625.176 L 824.846 625.176 Q 822.214 625.176 820.728 624.062 L 820.728 624.062 L 820.728 624.062 Q 819.242 622.948 819.242 620.973 L 819.242 620.973 L 819.242 620.973 Q 819.242 619.594 819.964 618.628 L 819.964 618.628 L 819.964 618.628 Q 820.685 617.662 822.001 617.322 L 822.001 617.322 L 822.001 617.322 Q 820.876 616.898 820.24 615.995 L 820.24 615.995 L 820.24 615.995 Q 819.603 615.093 819.603 613.883 L 819.603 613.883 L 819.603 613.883 Q 819.603 612.015 821.004 610.933 L 821.004 610.933 L 821.004 610.933 Q 822.405 609.85 824.846 609.85 L 824.846 609.85 L 824.846 609.85 Q 827.287 609.85 828.688 610.933 L 828.688 610.933 L 828.688 610.933 Q 830.089 612.015 830.089 613.883 L 830.089 613.883 L 830.089 613.883 Q 830.089 615.114 829.452 616.027 L 829.452 616.027 L 829.452 616.027 Q 828.816 616.94 827.712 617.322 L 827.712 617.322 Z  M 824.846 611.994 L 824.846 611.994 Q 822.193 611.994 822.193 614.159 L 822.193 614.159 L 822.193 614.159 Q 822.193 615.242 822.861 615.804 L 822.861 615.804 L 822.861 615.804 Q 823.53 616.367 824.846 616.367 L 824.846 616.367 L 824.846 616.367 Q 826.162 616.367 826.831 615.804 L 826.831 615.804 L 826.831 615.804 Q 827.499 615.242 827.499 614.159 L 827.499 614.159 L 827.499 614.159 Q 827.499 611.994 824.846 611.994 L 824.846 611.994 Z  M 824.846 623.032 L 824.846 623.032 Q 827.882 623.032 827.882 620.761 L 827.882 620.761 L 827.882 620.761 Q 827.882 618.49 824.846 618.49 L 824.846 618.49 L 824.846 618.49 Q 821.81 618.49 821.81 620.761 L 821.81 620.761 L 821.81 620.761 Q 821.81 623.032 824.846 623.032 L 824.846 623.032 Z " fill-rule="evenodd" fill="rgb(231,231,231)" />
            <path d=" M 865.238 617.549 L 865.238 617.549 L 865.238 617.549 Q 865.238 622.026 863.352 624.234 L 863.352 624.234 L 863.352 624.234 Q 861.465 626.442 857.641 626.442 L 857.641 626.442 L 857.641 626.442 Q 856.293 626.442 855.599 626.297 L 855.599 626.297 L 855.599 623.726 L 855.599 623.726 Q 856.469 623.944 857.423 623.944 L 857.423 623.944 L 857.423 623.944 Q 859.03 623.944 860.066 623.472 L 860.066 623.472 L 860.066 623.472 Q 861.103 623.001 861.652 621.99 L 861.652 621.99 L 861.652 621.99 Q 862.201 620.979 862.284 619.207 L 862.284 619.207 L 862.16 619.207 L 862.16 619.207 Q 861.559 620.181 860.771 620.575 L 860.771 620.575 L 860.771 620.575 Q 859.983 620.969 858.802 620.969 L 858.802 620.969 L 858.802 620.969 Q 856.822 620.969 855.682 619.699 L 855.682 619.699 L 855.682 619.699 Q 854.542 618.43 854.542 616.17 L 854.542 616.17 L 854.542 616.17 Q 854.542 613.734 855.925 612.319 L 855.925 612.319 L 855.925 612.319 Q 857.309 610.905 859.693 610.905 L 859.693 610.905 L 859.693 610.905 Q 861.372 610.905 862.632 611.692 L 862.632 611.692 L 862.632 611.692 Q 863.891 612.48 864.565 613.978 L 864.565 613.978 L 864.565 613.978 Q 865.238 615.476 865.238 617.549 Z  M 859.755 613.475 L 859.755 613.475 L 859.755 613.475 Q 858.76 613.475 858.2 614.159 L 858.2 614.159 L 858.2 614.159 Q 857.641 614.843 857.641 616.129 L 857.641 616.129 L 857.641 616.129 Q 857.641 617.227 858.149 617.87 L 858.149 617.87 L 858.149 617.87 Q 858.656 618.513 859.693 618.513 L 859.693 618.513 L 859.693 618.513 Q 860.667 618.513 861.362 617.875 L 861.362 617.875 L 861.362 617.875 Q 862.056 617.238 862.056 616.408 L 862.056 616.408 L 862.056 616.408 Q 862.056 615.175 861.408 614.325 L 861.408 614.325 L 861.408 614.325 Q 860.761 613.475 859.755 613.475 Z " fill-rule="evenodd" fill="rgb(231,231,231)" />
            <path d=" M 789.466 668.538 L 789.466 668.538 Q 786.813 668.538 785.412 666.574 L 785.412 666.574 L 785.412 666.574 Q 784.011 664.611 784.011 660.854 L 784.011 660.854 L 784.011 660.854 Q 784.011 657.117 785.412 655.154 L 785.412 655.154 L 785.412 655.154 Q 786.813 653.19 789.466 653.19 L 789.466 653.19 L 789.466 653.19 Q 792.12 653.19 793.521 655.154 L 793.521 655.154 L 793.521 655.154 Q 794.922 657.117 794.922 660.854 L 794.922 660.854 L 794.922 660.854 Q 794.922 664.59 793.521 666.564 L 793.521 666.564 L 793.521 666.564 Q 792.12 668.538 789.466 668.538 L 789.466 668.538 Z  M 789.466 666.394 L 789.466 666.394 Q 790.91 666.394 791.568 665.067 L 791.568 665.067 L 791.568 665.067 Q 792.226 663.74 792.226 660.854 L 792.226 660.854 L 792.226 660.854 Q 792.226 657.945 791.568 656.64 L 791.568 656.64 L 791.568 656.64 Q 790.91 655.334 789.466 655.334 L 789.466 655.334 L 789.466 655.334 Q 788.023 655.334 787.365 656.65 L 787.365 656.65 L 787.365 656.65 Q 786.707 657.966 786.707 660.854 L 786.707 660.854 L 786.707 660.854 Q 786.707 663.74 787.365 665.067 L 787.365 665.067 L 787.365 665.067 Q 788.023 666.394 789.466 666.394 L 789.466 666.394 Z " fill-rule="evenodd" fill="rgb(231,231,231)" />
            <path d=" M 795.536 432.693 L 795.536 493.807 C 795.536 495.293 796.743 496.5 798.229 496.5 L 853.817 496.5 C 855.304 496.5 856.511 495.293 856.511 493.807 L 856.511 432.693 C 856.511 431.207 855.304 430 853.817 430 L 798.229 430 C 796.743 430 795.536 431.207 795.536 432.693 Z " fill-rule="evenodd" fill="rgb(46,91,150)" />
            <path d=" M 800.422 435.329 L 800.422 491.171 L 851.625 491.171 L 851.625 435.329 L 800.422 435.329 Z " fill-rule="evenodd" fill="rgb(250,250,250)" />
            <path d=" M 838.248 447.215 C 841.91 449.687 844.931 455.911 845.572 461.861 M 820.032 443.553 C 824.06 442.18 829.461 442.455 833.763 444.377 M 808.59 453.714 C 810.329 450.785 812.617 448.13 815.364 446.3 M 812.617 479.254 C 816.554 477.423 822.687 474.951 825.433 465.523 M 819.025 467.354 C 816.187 471.29 811.153 473.761 808.04 473.761 M 830.01 462.868 C 829.369 461.037 827.904 459.115 825.433 459.115 C 822.87 459.115 821.863 460.946 820.947 462.777 M 820.856 482 C 820.856 482 828.545 478.705 830.01 468.269 M 817.194 459.115 C 815.913 462.868 812.617 467.354 807.125 467.354 M 827.264 453.623 C 824.06 453.348 822.229 454.355 820.856 455.454 M 835.502 470.1 C 835.868 465.614 835.411 458.566 831.841 455.454 M 830.01 482 C 830.01 482 833.397 480.169 834.587 475.592 M 810.787 460.031 C 810.42 460.854 809.597 461.587 808.223 461.861 M 821.863 448.68 C 818.384 449.87 815.547 452.433 813.533 455.454 M 840.079 474.677 C 841.635 468.178 842.917 449.137 826.348 448.13" fill="none" vector-effect="non-scaling-stroke" stroke-width="3.662" stroke="rgb(0,0,0)" stroke-linejoin="round" stroke-linecap="round" stroke-miterlimit="10" />
            <rect x="771.75" y="384.25" width="103.5" height="30.5" transform="matrix(1,0,0,1,0,0)" fill="rgb(224,242,241)" />
            <path d=" M 771.745 388.699 L 771.745 410.368 C 771.745 412.559 773.524 414.337 775.714 414.337 L 870.972 414.337 C 873.163 414.337 874.941 412.559 874.941 410.368 L 874.941 388.699 C 874.941 386.508 873.163 384.729 870.972 384.729 L 775.714 384.729 C 773.524 384.729 771.745 386.508 771.745 388.699 Z  M 768.2 388.73 L 768.2 410.359 C 768.2 412.334 768.918 414.308 770.354 415.744 C 771.79 417.091 773.675 417.898 775.739 417.898 L 870.961 417.898 C 872.936 417.898 874.91 417.091 876.346 415.744 C 877.692 414.308 878.5 412.334 878.5 410.359 L 878.5 388.73 C 878.5 386.666 877.692 384.781 876.346 383.345 C 874.91 381.909 872.936 381.102 870.961 381.102 L 775.739 381.102 C 773.675 381.102 771.79 381.909 770.354 383.345 C 768.918 384.781 768.2 386.666 768.2 388.73 Z " fill-rule="evenodd" fill="rgb(151,151,151)" />
            <path d=" M 777.66 392.923 L 778.147 392.645 L 784.673 392.645 L 785.081 393.052 L 783.918 393.966 L 778.435 393.966 L 777.66 392.923 Z  M 784.097 394.085 L 785.229 393.201 L 785.577 393.619 L 784.743 398.903 L 783.978 399.529 L 783.422 398.903 L 784.097 394.085 Z  M 776.895 399.668 L 777.73 399.042 L 783.243 399.042 L 783.839 399.698 L 783.054 400.423 L 777.591 400.423 L 776.895 399.668 Z  M 776.061 400.353 L 776.756 399.867 L 777.313 400.562 L 776.588 405.35 L 775.435 406.264 L 775.157 405.846 L 776.061 400.353 Z  M 775.644 406.472 L 776.786 405.489 L 782.22 405.499 L 783.004 406.542 L 782.448 406.889 L 775.992 406.889 L 775.644 406.472 Z  M 789.044 393.34 L 789.392 393.062 L 790.226 394.105 L 789.392 398.973 L 788.746 399.469 L 788.14 398.764 L 789.044 393.34 Z  M 796.037 394.085 L 797.169 393.201 L 797.517 393.619 L 796.683 398.903 L 795.918 399.529 L 795.361 398.903 L 796.037 394.085 Z  M 788.835 399.668 L 789.67 399.042 L 795.183 399.042 L 795.779 399.698 L 794.994 400.423 L 789.531 400.423 L 788.835 399.668 Z  M 795.163 400.552 L 795.848 399.936 L 796.474 400.631 L 795.57 406.075 L 795.153 406.333 L 794.338 405.35 L 795.163 400.552 Z  M 807.947 394.085 L 809.079 393.201 L 809.427 393.619 L 808.593 398.903 L 807.828 399.529 L 807.271 398.903 L 807.947 394.085 Z  M 807.073 400.552 L 807.758 399.936 L 808.384 400.631 L 807.48 406.075 L 807.063 406.333 L 806.248 405.35 L 807.073 400.552 Z  M 813.45 392.923 L 813.937 392.645 L 820.463 392.645 L 820.87 393.052 L 819.708 393.966 L 814.225 393.966 L 813.45 392.923 Z  M 812.894 393.34 L 813.241 393.062 L 814.076 394.105 L 813.241 398.973 L 812.596 399.469 L 811.99 398.764 L 812.894 393.34 Z  M 819.887 394.085 L 821.019 393.201 L 821.367 393.619 L 820.532 398.903 L 819.768 399.529 L 819.211 398.903 L 819.887 394.085 Z  M 812.685 399.668 L 813.52 399.042 L 819.032 399.042 L 819.628 399.698 L 818.844 400.423 L 813.38 400.423 L 812.685 399.668 Z  M 819.013 400.552 L 819.698 399.936 L 820.324 400.631 L 819.42 406.075 L 819.003 406.333 L 818.188 405.35 L 819.013 400.552 Z  M 811.434 406.472 L 812.576 405.489 L 818.009 405.499 L 818.794 406.542 L 818.238 406.889 L 811.781 406.889 L 811.434 406.472 Z  M 825.36 392.923 L 825.847 392.645 L 832.373 392.645 L 832.78 393.052 L 831.618 393.966 L 826.135 393.966 L 825.36 392.923 Z  M 824.804 393.34 L 825.151 393.062 L 825.986 394.105 L 825.151 398.973 L 824.506 399.469 L 823.9 398.764 L 824.804 393.34 Z  M 824.595 399.668 L 825.43 399.042 L 830.943 399.042 L 831.539 399.698 L 830.754 400.423 L 825.29 400.423 L 824.595 399.668 Z  M 830.923 400.552 L 831.608 399.936 L 832.234 400.631 L 831.33 406.075 L 830.913 406.333 L 830.098 405.35 L 830.923 400.552 Z  M 823.344 406.472 L 824.486 405.489 L 829.919 405.499 L 830.704 406.542 L 830.148 406.889 L 823.691 406.889 L 823.344 406.472 Z  M 837.27 392.923 L 837.757 392.645 L 844.283 392.645 L 844.69 393.052 L 843.528 393.966 L 838.045 393.966 L 837.27 392.923 Z  M 836.714 393.34 L 837.061 393.062 L 837.896 394.105 L 837.061 398.973 L 836.416 399.469 L 835.81 398.764 L 836.714 393.34 Z  M 836.505 399.668 L 837.34 399.042 L 842.853 399.042 L 843.449 399.698 L 842.664 400.423 L 837.201 400.423 L 836.505 399.668 Z  M 842.833 400.552 L 843.518 399.936 L 844.144 400.631 L 843.24 406.075 L 842.823 406.333 L 842.008 405.35 L 842.833 400.552 Z  M 835.254 406.472 L 836.396 405.489 L 841.829 405.499 L 842.614 406.542 L 842.058 406.889 L 835.601 406.889 L 835.254 406.472 Z  M 849.18 392.923 L 849.667 392.645 L 856.193 392.645 L 856.6 393.052 L 855.438 393.966 L 849.955 393.966 L 849.18 392.923 Z  M 848.624 393.34 L 848.971 393.062 L 849.806 394.105 L 848.971 398.973 L 848.326 399.469 L 847.72 398.764 L 848.624 393.34 Z  M 855.617 394.085 L 856.749 393.201 L 857.097 393.619 L 856.263 398.903 L 855.498 399.529 L 854.941 398.903 L 855.617 394.085 Z  M 847.581 400.353 L 848.276 399.867 L 848.832 400.562 L 848.107 405.35 L 846.955 406.264 L 846.677 405.846 L 847.581 400.353 Z  M 854.743 400.552 L 855.428 399.936 L 856.054 400.631 L 855.15 406.075 L 854.733 406.333 L 853.918 405.35 L 854.743 400.552 Z  M 847.164 406.472 L 848.306 405.489 L 853.739 405.499 L 854.524 406.542 L 853.968 406.889 L 847.511 406.889 L 847.164 406.472 Z  M 861.12 392.923 L 861.607 392.645 L 868.133 392.645 L 868.54 393.052 L 867.378 393.966 L 861.895 393.966 L 861.12 392.923 Z  M 867.557 394.085 L 868.689 393.201 L 869.037 393.619 L 868.202 398.903 L 867.437 399.529 L 866.881 398.903 L 867.557 394.085 Z  M 860.355 399.668 L 861.189 399.042 L 866.702 399.042 L 867.298 399.698 L 866.514 400.423 L 861.05 400.423 L 860.355 399.668 Z  M 859.521 400.353 L 860.216 399.867 L 860.772 400.562 L 860.047 405.35 L 858.895 406.264 L 858.617 405.846 L 859.521 400.353 Z  M 859.103 406.472 L 860.246 405.489 L 865.679 405.499 L 866.464 406.542 L 865.908 406.889 L 859.451 406.889 L 859.103 406.472 Z " fill-rule="evenodd" fill="rgb(0,105,92)" />
        </g>
        <g id="lock">
            <path d=" M 424.877 399.227 L 424.877 636.272 L 431.953 636.272 L 431.953 399.227 L 424.877 399.227 Z " fill-rule="evenodd" fill="rgb(216,216,216)" />
            <path d=" M 625.311 782.428 L 637.694 789.289 L 637.694 243.556 L 625.311 250.417 L 625.311 782.428 Z " fill-rule="evenodd" fill="rgb(66,66,66)" />
            <path d=" M 637.156 243.556 L 637.156 789.289 L 702.609 789.289 L 702.609 243.556 L 637.156 243.556 Z " fill-rule="evenodd" fill="rgb(117,117,117)" />
            <g id="Group 1">
                <path d=" M 401.88 706.207 L 454.95 706.207 L 453.147 699.955 L 403.683 699.955 L 401.88 706.207 Z " fill-rule="evenodd" fill="rgb(56,56,56)" />
                <path d=" M 401.88 707.916 L 401.88 737.104 C 401.88 738.569 403.069 739.758 404.534 739.758 L 453.181 739.758 C 454.646 739.758 455.835 738.569 455.835 737.104 L 455.835 707.916 C 455.835 706.451 454.646 705.262 453.181 705.262 L 404.534 705.262 C 403.069 705.262 401.88 706.451 401.88 707.916 Z " fill-rule="evenodd" fill="rgb(89,89,89)" />
                <path d=" M 428.857 702.204 Q 425.923 702.204 421.219 703.081 C 417.38 703.797 414.263 707.548 414.263 711.454 L 414.263 737.989 C 414.263 741.894 417.367 745.712 421.19 746.509 Q 426.419 747.599 428.857 747.599 Q 431.296 747.599 436.525 746.509 C 440.348 745.712 443.452 741.894 443.452 737.989 L 443.452 711.454 C 443.452 707.548 440.335 703.797 436.495 703.081 Q 431.791 702.204 428.857 702.204 Z " fill-rule="evenodd" fill="rgb(84,84,84)" />
                <path d=" M 408.072 717.645 C 410.026 717.645 411.61 716.061 411.61 714.107 C 411.61 712.153 410.026 710.569 408.072 710.569 C 406.118 710.569 404.534 712.153 404.534 714.107 C 404.534 716.061 406.118 717.645 408.072 717.645 Z " fill-rule="evenodd" fill="rgb(138,138,138)" />
                <path d=" M 408.072 734.451 C 410.026 734.451 411.61 732.867 411.61 730.913 C 411.61 728.959 410.026 727.375 408.072 727.375 C 406.118 727.375 404.534 728.959 404.534 730.913 C 404.534 732.867 406.118 734.451 408.072 734.451 Z " fill-rule="evenodd" fill="rgb(138,138,138)" />
                <path d=" M 449.643 717.645 C 451.597 717.645 453.181 716.061 453.181 714.107 C 453.181 712.153 451.597 710.569 449.643 710.569 C 447.689 710.569 446.105 712.153 446.105 714.107 C 446.105 716.061 447.689 717.645 449.643 717.645 Z " fill-rule="evenodd" fill="rgb(138,138,138)" />
                <path d=" M 449.643 734.451 C 451.597 734.451 453.181 732.867 453.181 730.913 C 453.181 728.959 451.597 727.375 449.643 727.375 C 447.689 727.375 446.105 728.959 446.105 730.913 C 446.105 732.867 447.689 734.451 449.643 734.451 Z " fill-rule="evenodd" fill="rgb(138,138,138)" />
            </g>
            <g id="Group 4">
                <path d=" M 401.88 332.829 L 454.95 332.829 L 453.147 339.081 L 403.683 339.081 L 401.88 332.829 Z " fill-rule="evenodd" fill="rgb(56,56,56)" />
                <path d=" M 401.88 331.121 L 401.88 301.932 C 401.88 300.468 403.069 299.279 404.534 299.279 L 453.181 299.279 C 454.646 299.279 455.835 300.468 455.835 301.932 L 455.835 331.121 C 455.835 332.585 454.646 333.774 453.181 333.774 L 404.534 333.774 C 403.069 333.774 401.88 332.585 401.88 331.121 Z " fill-rule="evenodd" fill="rgb(89,89,89)" />
                <path d=" M 428.857 336.832 Q 425.923 336.832 421.219 335.955 C 417.38 335.24 414.263 331.488 414.263 327.583 L 414.263 301.048 C 414.263 297.143 417.367 293.325 421.19 292.528 Q 426.419 291.438 428.857 291.438 Q 431.296 291.438 436.525 292.528 C 440.348 293.325 443.452 297.143 443.452 301.048 L 443.452 327.583 C 443.452 331.488 440.335 335.24 436.495 335.955 Q 431.791 336.832 428.857 336.832 Z " fill-rule="evenodd" fill="rgb(84,84,84)" />
                <path d=" M 408.072 321.391 C 410.026 321.391 411.61 322.975 411.61 324.929 C 411.61 326.883 410.026 328.467 408.072 328.467 C 406.118 328.467 404.534 326.883 404.534 324.929 C 404.534 322.975 406.118 321.391 408.072 321.391 Z " fill-rule="evenodd" fill="rgb(138,138,138)" />
                <path d=" M 408.072 304.586 C 410.026 304.586 411.61 306.17 411.61 308.124 C 411.61 310.078 410.026 311.662 408.072 311.662 C 406.118 311.662 404.534 310.078 404.534 308.124 C 404.534 306.17 406.118 304.586 408.072 304.586 Z " fill-rule="evenodd" fill="rgb(138,138,138)" />
                <path d=" M 449.643 321.391 C 451.597 321.391 453.181 322.975 453.181 324.929 C 453.181 326.883 451.597 328.467 449.643 328.467 C 447.689 328.467 446.105 326.883 446.105 324.929 C 446.105 322.975 447.689 321.391 449.643 321.391 Z " fill-rule="evenodd" fill="rgb(138,138,138)" />
                <path d=" M 449.643 304.586 C 451.597 304.586 453.181 306.17 453.181 308.124 C 453.181 310.078 451.597 311.662 449.643 311.662 C 447.689 311.662 446.105 310.078 446.105 308.124 C 446.105 306.17 447.689 304.586 449.643 304.586 Z " fill-rule="evenodd" fill="rgb(138,138,138)" />
            </g>
            <g id="Group 2">
                <path d=" M 642.463 737.165 L 695.533 737.165 L 693.73 730.913 L 644.266 730.913 L 642.463 737.165 Z " fill-rule="evenodd" fill="rgb(33,33,33)" />
                <path d=" M 642.463 738.873 L 642.463 768.061 C 642.463 769.526 643.652 770.715 645.117 770.715 L 693.764 770.715 C 695.228 770.715 696.417 769.526 696.417 768.061 L 696.417 738.873 C 696.417 737.409 695.228 736.22 693.764 736.22 L 645.117 736.22 C 643.652 736.22 642.463 737.409 642.463 738.873 Z " fill-rule="evenodd" fill="rgb(66,66,66)" />
                <path d=" M 669.44 733.162 Q 666.506 733.162 661.802 734.039 C 657.963 734.754 654.846 738.506 654.846 742.411 L 654.846 768.946 C 654.846 772.851 657.95 776.669 661.773 777.466 Q 667.001 778.556 669.44 778.556 Q 671.879 778.556 677.107 777.466 C 680.93 776.669 684.034 772.851 684.034 768.946 L 684.034 742.411 C 684.034 738.506 680.917 734.754 677.078 734.039 Q 672.374 733.162 669.44 733.162 Z " fill-rule="evenodd" fill="rgb(97,97,97)" />
                <path d=" M 648.655 748.602 C 650.609 748.602 652.193 747.019 652.193 745.065 C 652.193 743.111 650.609 741.527 648.655 741.527 C 646.701 741.527 645.117 743.111 645.117 745.065 C 645.117 747.019 646.701 748.602 648.655 748.602 Z " fill-rule="evenodd" fill="rgb(158,158,158)" />
                <path d=" M 648.655 765.408 C 650.609 765.408 652.193 763.824 652.193 761.87 C 652.193 759.916 650.609 758.332 648.655 758.332 C 646.701 758.332 645.117 759.916 645.117 761.87 C 645.117 763.824 646.701 765.408 648.655 765.408 Z " fill-rule="evenodd" fill="rgb(158,158,158)" />
                <path d=" M 690.226 748.602 C 692.18 748.602 693.764 747.019 693.764 745.065 C 693.764 743.111 692.18 741.527 690.226 741.527 C 688.272 741.527 686.688 743.111 686.688 745.065 C 686.688 747.019 688.272 748.602 690.226 748.602 Z " fill-rule="evenodd" fill="rgb(158,158,158)" />
                <path d=" M 690.226 765.408 C 692.18 765.408 693.764 763.824 693.764 761.87 C 693.764 759.916 692.18 758.332 690.226 758.332 C 688.272 758.332 686.688 759.916 686.688 761.87 C 686.688 763.824 688.272 765.408 690.226 765.408 Z " fill-rule="evenodd" fill="rgb(158,158,158)" />
            </g>
            <g id="Group 3">
                <path d=" M 643.348 299.218 L 696.417 299.218 L 694.615 305.47 L 645.15 305.47 L 643.348 299.218 Z " fill-rule="evenodd" fill="rgb(33,33,33)" />
                <path d=" M 643.348 297.51 L 643.348 268.322 C 643.348 266.857 644.537 265.668 646.001 265.668 L 694.648 265.668 C 696.113 265.668 697.302 266.857 697.302 268.322 L 697.302 297.51 C 697.302 298.974 696.113 300.163 694.648 300.163 L 646.001 300.163 C 644.537 300.163 643.348 298.974 643.348 297.51 Z " fill-rule="evenodd" fill="rgb(66,66,66)" />
                <path d=" M 670.325 303.221 Q 667.391 303.221 662.687 302.344 C 658.847 301.629 655.73 297.877 655.73 293.972 L 655.73 267.437 C 655.73 263.532 658.834 259.714 662.657 258.917 Q 667.886 257.827 670.325 257.827 Q 672.763 257.827 677.992 258.917 C 681.815 259.714 684.919 263.532 684.919 267.437 L 684.919 293.972 C 684.919 297.877 681.802 301.629 677.963 302.344 Q 673.259 303.221 670.325 303.221 Z " fill-rule="evenodd" fill="rgb(97,97,97)" />
                <path d=" M 649.539 287.78 C 651.493 287.78 653.077 289.364 653.077 291.318 C 653.077 293.272 651.493 294.856 649.539 294.856 C 647.585 294.856 646.001 293.272 646.001 291.318 C 646.001 289.364 647.585 287.78 649.539 287.78 Z " fill-rule="evenodd" fill="rgb(158,158,158)" />
                <path d=" M 649.539 270.975 C 651.493 270.975 653.077 272.559 653.077 274.513 C 653.077 276.467 651.493 278.051 649.539 278.051 C 647.585 278.051 646.001 276.467 646.001 274.513 C 646.001 272.559 647.585 270.975 649.539 270.975 Z " fill-rule="evenodd" fill="rgb(158,158,158)" />
                <path d=" M 691.11 287.78 C 693.064 287.78 694.648 289.364 694.648 291.318 C 694.648 293.272 693.064 294.856 691.11 294.856 C 689.156 294.856 687.572 293.272 687.572 291.318 C 687.572 289.364 689.156 287.78 691.11 287.78 Z " fill-rule="evenodd" fill="rgb(158,158,158)" />
                <path d=" M 691.11 270.975 C 693.064 270.975 694.648 272.559 694.648 274.513 C 694.648 276.467 693.064 278.051 691.11 278.051 C 689.156 278.051 687.572 276.467 687.572 274.513 C 687.572 272.559 689.156 270.975 691.11 270.975 Z " fill-rule="evenodd" fill="rgb(158,158,158)" />
            </g>
            <g id="Group - Circles">
                <path d=" M 427.531 799.019 C 582.383 799.019 707.916 673.486 707.916 518.634 C 707.916 363.781 582.383 238.249 427.531 238.249 C 272.678 238.249 147.146 363.781 147.146 518.634 C 147.146 673.486 272.678 799.019 427.531 799.019 Z " fill-rule="evenodd" fill="rgb(97,97,97)" />
                <path d=" M 427.973 765.333 C 563.977 765.333 674.23 655.08 674.23 519.076 C 674.23 383.072 563.977 272.819 427.973 272.819 C 291.969 272.819 181.716 383.072 181.716 519.076 C 181.716 655.08 291.969 765.333 427.973 765.333 Z " fill-rule="evenodd" fill="rgb(66,66,66)" />
                <path d=" M 427.973 759.77 C 560.904 759.77 668.667 652.007 668.667 519.076 C 668.667 386.144 560.904 278.382 427.973 278.382 C 295.041 278.382 187.279 386.144 187.279 519.076 C 187.279 652.007 295.041 759.77 427.973 759.77 Z " fill-rule="evenodd" fill="rgb(97,97,97)" />
                <path d=" M 428.857 740 C 551.359 740 650.666 640.693 650.666 518.191 C 650.666 395.69 551.359 296.383 428.857 296.383 C 306.356 296.383 207.049 395.69 207.049 518.191 C 207.049 640.693 306.356 740 428.857 740 Z " fill-rule="evenodd" fill="rgb(66,66,66)" />
                <path d=" M 428.857 732.667 C 547.309 732.667 643.333 636.643 643.333 518.191 C 643.333 399.74 547.309 303.716 428.857 303.716 C 310.406 303.716 214.382 399.74 214.382 518.191 C 214.382 636.643 310.406 732.667 428.857 732.667 Z " fill-rule="evenodd" fill="rgb(33,33,33)" />
                <path d=" M 428.857 727.333 C 544.363 727.333 637.999 633.697 637.999 518.191 C 637.999 402.686 544.363 309.05 428.857 309.05 C 313.352 309.05 219.716 402.686 219.716 518.191 C 219.716 633.697 313.352 727.333 428.857 727.333 Z " fill-rule="evenodd" fill="rgb(117,117,117)" />
                <path d=" M 428.857 714.667 C 537.368 714.667 625.333 626.702 625.333 518.191 C 625.333 409.681 537.368 321.716 428.857 321.716 C 320.347 321.716 232.382 409.681 232.382 518.191 C 232.382 626.702 320.347 714.667 428.857 714.667 Z " fill-rule="evenodd" fill="rgb(97,97,97)" />
                <path d=" M 428.413 688.165 C 522.045 688.165 597.95 612.261 597.95 518.628 C 597.95 424.996 522.045 349.091 428.413 349.091 C 334.78 349.091 258.876 424.996 258.876 518.628 C 258.876 612.261 334.78 688.165 428.413 688.165 Z  M 428.4 701.533 C 476.908 701.533 523.482 682.282 557.782 647.982 C 592.082 613.682 611.333 567.108 611.333 518.6 C 611.333 470.092 592.082 423.602 557.782 389.302 C 523.482 355.002 476.908 335.667 428.4 335.667 C 379.892 335.667 333.318 355.002 299.102 389.302 C 264.802 423.602 245.467 470.092 245.467 518.6 C 245.467 567.108 264.802 613.682 299.102 647.982 C 333.318 682.282 379.892 701.533 428.4 701.533 Z " fill-rule="evenodd" fill="rgb(117,117,117)" />
                <path d=" M 428.415 688.219 C 522.074 688.219 598 612.293 598 518.634 C 598 424.975 522.074 349.049 428.415 349.049 C 334.756 349.049 258.83 424.975 258.83 518.634 C 258.83 612.293 334.756 688.219 428.415 688.219 Z " fill-rule="evenodd" fill="rgb(158,158,158)" />
                <path d=" M 428.415 624 C 486.607 624 533.781 576.826 533.781 518.634 C 533.781 460.442 486.607 413.267 428.415 413.267 C 370.223 413.267 323.049 460.442 323.049 518.634 C 323.049 576.826 370.223 624 428.415 624 Z " fill-rule="evenodd" fill="rgb(66,66,66)" />
                <path d=" M 428.415 620 C 484.398 620 529.781 574.617 529.781 518.634 C 529.781 462.651 484.398 417.267 428.415 417.267 C 372.432 417.267 327.049 462.651 327.049 518.634 C 327.049 574.617 372.432 620 428.415 620 Z " fill-rule="evenodd" fill="rgb(158,158,158)" />
                <path d=" M 428.415 615.333 C 481.821 615.333 525.115 572.039 525.115 518.634 C 525.115 465.228 481.821 421.934 428.415 421.934 C 375.009 421.934 331.716 465.228 331.716 518.634 C 331.716 572.039 375.009 615.333 428.415 615.333 Z " fill-rule="evenodd" fill="rgb(66,66,66)" />
                <path d=" M 428.415 610.885 C 479.364 610.885 520.667 569.583 520.667 518.634 C 520.667 467.685 479.364 426.382 428.415 426.382 C 377.466 426.382 336.164 467.685 336.164 518.634 C 336.164 569.583 377.466 610.885 428.415 610.885 Z " fill-rule="evenodd" fill="rgb(117,117,117)" />
            </g>
            <path d=" M 422.224 452.297 L 422.224 587.624 L 433.722 587.624 L 433.722 452.297 L 422.224 452.297 Z " fill-rule="evenodd" fill="rgb(97,97,97)" />
            <path d=" M 483.697 558.771 L 366.5 491.107 L 372.249 481.15 L 489.446 548.813 L 483.697 558.771 Z " fill-rule="evenodd" fill="rgb(97,97,97)" />
            <path d=" M 372.249 558.771 L 489.446 491.107 L 483.697 481.15 L 366.5 548.813 L 372.249 558.771 Z " fill-rule="evenodd" fill="rgb(97,97,97)" />
            <path d=" M 242.25 456 L 255.5 461 C 243.5 503.5 245.51 542.927 257.5 582.75 L 243.75 587 C 229.75 546.5 228.26 497.843 242.25 456 Z " fill="rgb(33,33,33)" />
            <g id="Group 2">
                <path d=" M 170.668 456.42 L 180.136 458.405 L 198.429 410.798 L 191.51 404.211 L 170.668 456.42 Z " fill-rule="evenodd" fill="rgb(33,33,33)" />
                <path d=" M 183.98 429.77 Q 182.074 433.906 183.98 438.492 L 218.705 452.217 L 404.273 525.563 L 410.76 510.288 L 190.308 424.758 Q 185.886 425.633 183.98 429.77 Z " fill-rule="evenodd" fill="rgb(66,66,66)" />
                <path d=" M 215.098 442.064 Q 213.581 445.886 211.05 456.683 L 231.145 463.714 Q 232.666 453.939 234.388 449.322 Q 236.11 444.705 240.534 438.539 L 221.267 430.941 Q 216.615 438.243 215.098 442.064 Z " fill-rule="evenodd" fill="rgb(33,33,33)" />
                <path d=" M 149.189 447.995 L 170.702 456.703 L 191.84 404.358 L 169.716 395.672 L 149.189 447.995 Z " fill-rule="evenodd" fill="rgb(66,66,66)" />
            </g>
            <g id="Group 1">
                <path d=" M 170.668 584.814 L 180.136 582.829 L 198.429 630.437 L 191.51 637.024 L 170.668 584.814 Z " fill-rule="evenodd" fill="rgb(33,33,33)" />
                <path d=" M 183.98 611.465 Q 182.074 607.328 183.98 602.743 L 218.705 589.018 L 404.273 515.672 L 410.76 530.946 L 190.308 616.476 Q 185.886 615.602 183.98 611.465 Z " fill-rule="evenodd" fill="rgb(66,66,66)" />
                <path d=" M 215.098 599.17 Q 213.581 595.348 211.05 584.552 L 231.145 577.521 Q 232.666 587.296 234.388 591.913 Q 236.11 596.529 240.534 602.696 L 221.267 610.294 Q 216.615 602.992 215.098 599.17 Z " fill-rule="evenodd" fill="rgb(33,33,33)" />
                <path d=" M 149.189 593.239 L 170.702 584.531 L 191.84 636.877 L 169.716 645.563 L 149.189 593.239 Z " fill-rule="evenodd" fill="rgb(66,66,66)" />
            </g>
            <path d=" M 411.903 699.351 L 515.414 737.498 L 687.333 726 L 687.628 683.951 L 611.734 687.655 C 607.834 687.845 604.677 684.829 604.689 680.924 L 605.707 355.085 C 605.719 351.18 608.898 348.116 612.801 348.247 L 684.667 350.667 L 684.677 308.59 L 517.798 299.655 L 414.035 336.079 L 414.284 402.101 L 508.566 403.114 C 512.471 403.156 515.635 406.36 515.627 410.266 L 515.203 621.601 C 515.195 625.507 512.018 628.677 508.113 628.677 L 412.743 628.677 L 411.903 699.351 Z " fill-rule="evenodd" fill="rgb(189,189,189)" />
            <g id="Push Circle">
                <path d=" M 428.414 585.229 C 465.682 585.229 495.894 555.017 495.894 517.749 C 495.894 480.481 465.682 450.269 428.414 450.269 C 391.145 450.269 360.934 480.481 360.934 517.749 C 360.934 555.017 391.145 585.229 428.414 585.229 Z  M 428.4 595.972 C 449.133 595.972 469.059 587.714 483.779 573.084 C 498.409 558.454 506.667 538.528 506.667 517.705 C 506.667 496.972 498.409 477.046 483.779 462.416 C 469.059 447.786 449.133 439.528 428.4 439.528 C 407.667 439.528 387.741 447.786 373.111 462.416 C 358.391 477.046 350.133 496.972 350.133 517.705 C 350.133 538.528 358.391 558.454 373.111 573.084 C 387.741 587.714 407.667 595.972 428.4 595.972 Z " fill-rule="evenodd" fill="rgb(158,158,158)" />
                <path d=" M 428.415 556.667 C 449.42 556.667 466.448 539.639 466.448 518.634 C 466.448 497.629 449.42 480.6 428.415 480.6 C 407.41 480.6 390.382 497.629 390.382 518.634 C 390.382 539.639 407.41 556.667 428.415 556.667 Z  M 428.4 559.7 C 439.3 559.7 449.7 555.3 457.4 547.6 C 465.1 540 469.4 529.5 469.4 518.6 C 469.4 507.8 465.1 497.3 457.4 489.6 C 449.7 481.9 439.3 477.6 428.4 477.6 C 417.5 477.6 407.1 481.9 399.4 489.6 C 391.7 497.3 387.4 507.8 387.4 518.6 C 387.4 529.5 391.7 540 399.4 547.6 C 407.1 555.3 417.5 559.7 428.4 559.7 Z " fill-rule="evenodd" fill="rgb(117,117,117)" />
                <path d=" M 428.415 556.667 C 449.42 556.667 466.448 539.639 466.448 518.634 C 466.448 497.629 449.42 480.6 428.415 480.6 C 407.41 480.6 390.382 497.629 390.382 518.634 C 390.382 539.639 407.41 556.667 428.415 556.667 Z " fill-rule="evenodd" fill="rgb(189,189,189)" />
                <path d=" M 427.531 530.132 C 433.881 530.132 439.029 524.984 439.029 518.634 C 439.029 512.283 433.881 507.135 427.531 507.135 C 421.18 507.135 416.032 512.283 416.032 518.634 C 416.032 524.984 421.18 530.132 427.531 530.132 Z  M 427.5 532.1 C 431.1 532.1 434.5 530.7 437.1 528.2 C 439.6 525.6 441 522.2 441 518.6 C 441 515.1 439.6 511.6 437.1 509.1 C 434.5 506.6 431.1 505.1 427.5 505.1 C 424 505.1 420.5 506.6 418 509.1 C 415.5 511.6 414 515.1 414 518.6 C 414 522.2 415.5 525.6 418 528.2 C 420.5 530.7 424 532.1 427.5 532.1 Z " fill-rule="evenodd" fill="rgb(117,117,117)" />
                <path d=" M 427.531 530.132 C 433.881 530.132 439.029 524.984 439.029 518.634 C 439.029 512.283 433.881 507.135 427.531 507.135 C 421.18 507.135 416.032 512.283 416.032 518.634 C 416.032 524.984 421.18 530.132 427.531 530.132 Z " fill-rule="evenodd" fill="rgb(158,158,158)" />
            </g>
        </g>
    </g>
</svg>