<?xml version="1.0" standalone="no"?>
<!-- Generator: Gravit.io -->
<svg xmlns="http://www.w3.org/2000/svg" xmlns:xlink="http://www.w3.org/1999/xlink" style="isolation:isolate" viewBox="0 0 1024 1024" width="1024" height="1024">
    <defs>
        <clipPath id="_clipPath_z5E4H269s4iUcNQFkcj3TSjx9srWb9fu">
            <rect width="1024" height="1024" />
        </clipPath>
    </defs>
    <g clip-path="url(#_clipPath_z5E4H269s4iUcNQFkcj3TSjx9srWb9fu)">
        <rect x="87" y="87" width="850" height="850" transform="matrix(1,0,0,1,0,0)" fill="rgb(235,235,235)" />
        <path d="M 146.18 110 L 877.82 110 C 897.788 110 914 126.212 914 146.18 L 914 877.82 C 914 897.788 897.788 914 877.82 914 L 146.18 914 C 126.212 914 110 897.788 110 877.82 L 110 146.18 C 110 126.212 126.212 110 146.18 110 Z" style="stroke:none;fill:#424242;stroke-miterlimit:10;" />
        <path d="M 169.28 155 L 854.72 155 C 862.601 155 869 161.399 869 169.28 L 869 854.72 C 869 862.601 862.601 869 854.72 869 L 169.28 869 C 161.399 869 155 862.601 155 854.72 L 155 169.28 C 155 161.399 161.399 155 169.28 155 Z" style="stroke:none;fill:#212121;stroke-miterlimit:10;" />
        <path d=" M 720.4 591.5 L 712.1 553.5 L 711.9 553.5 L 703.6 591.5 L 720.4 591.5 Z  M 726.6 619.5 L 722 598.5 L 702 598.5 L 697.4 619.5 L 689.2 619.5 L 707.2 546.5 L 717.2 546.5 L 735.2 619.5 L 726.6 619.5 Z  M 775 619.5 L 775 565.5 L 774.8 565.5 L 766 599.5 L 758 599.5 L 749.2 565.5 L 749 565.5 L 749 619.5 L 741.2 619.5 L 741.2 546.5 L 750.4 546.5 L 762.3 591.5 L 762.5 591.5 L 774.4 546.5 L 783.2 546.5 L 783.2 619.5 L 775 619.5 Z  M 471.7 553.9 L 471.7 553.9 L 471.7 553.7 L 444.7 553.7 L 444.7 546.5 L 479.7 546.5 L 479.7 553.7 L 479.7 553.7 Q 466.9 583.3 458.7 619.5 L 458.7 619.5 L 449.9 619.5 L 449.9 619.5 Q 458.3 584.2 471.7 553.9 Z  M 518.2 580.5 L 506.2 580.5 L 506.2 565.5 L 518.2 565.5 L 518.2 580.5 Z  M 518.2 619.5 L 506.2 619.5 L 506.2 604.5 L 518.2 604.5 L 518.2 619.5 Z  M 552.2 576.8 L 570.2 553.9 L 570.2 553.7 L 545.2 553.7 L 545.2 546.5 L 579.7 546.5 L 579.7 553.7 L 561.7 576.6 L 561.7 576.8 L 562.7 576.8 L 562.7 576.8 Q 571.8 576.8 576 581.9 L 576 581.9 L 576 581.9 Q 580.2 587 580.2 598.5 L 580.2 598.5 L 580.2 598.5 Q 580.2 620.5 560.7 620.5 L 560.7 620.5 L 560.7 620.5 Q 553.4 620.5 546.2 617.5 L 546.2 617.5 L 546.2 608.8 L 546.2 608.8 Q 553.9 613.1 559.2 613.1 L 559.2 613.1 L 559.2 613.1 Q 565.6 613.1 568.7 609.65 L 568.7 609.65 L 568.7 609.65 Q 571.8 606.2 571.8 598.5 L 571.8 598.5 L 571.8 598.5 Q 571.8 589.6 569.3 586.8 L 569.3 586.8 L 569.3 586.8 Q 566.8 584 559.2 584 L 559.2 584 L 552.2 584 L 552.2 576.8 Z  M 615.7 545.5 L 615.7 545.5 L 615.7 545.5 Q 621.8 545.5 627.2 547.5 L 627.2 547.5 L 627.2 555.2 L 627.2 555.2 Q 622.2 552.7 616.7 552.7 L 616.7 552.7 L 616.7 552.7 Q 609.7 552.7 606.6 557.55 L 606.6 557.55 L 606.6 557.55 Q 603.5 562.4 602.7 576 L 602.7 576 L 602.9 576 L 602.9 576 Q 607.9 571 614.2 571 L 614.2 571 L 614.2 571 Q 622.9 571 627.05 576.6 L 627.05 576.6 L 627.05 576.6 Q 631.2 582.2 631.2 595 L 631.2 595 L 631.2 595 Q 631.2 608.4 626.55 614.45 L 626.55 614.45 L 626.55 614.45 Q 621.9 620.5 612.7 620.5 L 612.7 620.5 L 612.7 620.5 Q 606.2 620.5 602.3 617.65 L 602.3 617.65 L 602.3 617.65 Q 598.4 614.8 596.3 607.5 L 596.3 607.5 L 596.3 607.5 Q 594.2 600.2 594.2 587.5 L 594.2 587.5 L 594.2 587.5 Q 594.2 571.7 596.75 562.3 L 596.75 562.3 L 596.75 562.3 Q 599.3 552.9 603.85 549.2 L 603.85 549.2 L 603.85 549.2 Q 608.4 545.5 615.7 545.5 Z  M 612.7 613.3 L 612.7 613.3 L 612.7 613.3 Q 618.1 613.3 620.55 609.4 L 620.55 609.4 L 620.55 609.4 Q 623 605.5 623 595 L 623 595 L 623 595 Q 623 585.6 620.65 581.8 L 620.65 581.8 L 620.65 581.8 Q 618.3 578 613.2 578 L 613.2 578 L 613.2 578 Q 602.6 578 602.6 594 L 602.6 594 L 602.6 594 Q 602.6 604.7 605.1 609 L 605.1 609 L 605.1 609 Q 607.6 613.3 612.7 613.3 Z  M 255.9 553.7 L 255.2 576.5 L 255.4 576.5 L 255.4 576.5 Q 258.7 573.5 264.2 573.5 L 264.2 573.5 L 264.2 573.5 Q 280.2 573.5 280.2 596.5 L 280.2 596.5 L 280.2 596.5 Q 280.2 609 275.25 614.75 L 275.25 614.75 L 275.25 614.75 Q 270.3 620.5 260.7 620.5 L 260.7 620.5 L 260.7 620.5 Q 253.3 620.5 246.2 617.5 L 246.2 617.5 L 246.2 608.8 L 246.2 608.8 Q 253.7 613.1 260.2 613.1 L 260.2 613.1 L 260.2 613.1 Q 271.8 613.1 271.8 596.5 L 271.8 596.5 L 271.8 596.5 Q 271.8 580.9 262.2 580.9 L 262.2 580.9 L 262.2 580.9 Q 257.6 580.9 254.2 585 L 254.2 585 L 246.7 585 L 247.7 546.5 L 278.2 546.5 L 278.2 553.7 L 255.9 553.7 Z  M 364.4 571.3 L 314 571.3 L 314 581 L 314 581 Q 314 585.6 313.7 589.8 L 313.7 589.8 L 364.4 589.8 L 364.4 571.3 Z  M 314 547.8 L 314 564.8 L 364.4 564.8 L 364.4 547.8 L 314 547.8 Z  M 306.2 578.2 L 306.2 541.2 L 372.2 541.2 L 372.2 614.5 L 372.2 614.5 Q 372.2 623.1 370.2 625.15 L 370.2 625.15 L 370.2 625.15 Q 368.2 627.2 360 627.2 L 360 627.2 L 360 627.2 Q 357.5 627.2 344 626.7 L 344 626.7 L 343.7 619.8 L 343.7 619.8 Q 357 620.3 358.5 620.3 L 358.5 620.3 L 358.5 620.3 Q 362.8 620.3 363.6 619.55 L 363.6 619.55 L 363.6 619.55 Q 364.4 618.8 364.4 614.5 L 364.4 614.5 L 364.4 596.3 L 313.1 596.3 L 313.1 596.3 Q 310.5 615.1 297.5 628.1 L 297.5 628.1 L 291.4 623.5 L 291.4 623.5 Q 299.7 615 302.95 605.15 L 302.95 605.15 L 302.95 605.15 Q 306.2 595.3 306.2 578.2 L 306.2 578.2 Z  M 313.4 486.2 L 261 486.2 L 261 489.2 L 253 489.2 L 253 471 L 321.4 471 L 321.4 489.2 L 313.4 489.2 L 313.4 486.2 Z  M 260.2 408.4 L 260.2 412.3 L 271.8 412.3 L 271.8 408.4 L 260.2 408.4 Z  M 274.6 419.5 L 274.6 431.2 L 274.7 431.2 L 274.7 431.2 Q 276.2 431.2 276.8 431 L 276.8 431 L 276.8 431 Q 277.4 430.8 278.05 429.25 L 278.05 429.25 L 278.05 429.25 Q 278.7 427.7 278.95 425.2 L 278.95 425.2 L 278.95 425.2 Q 279.2 422.7 279.7 417.1 L 279.7 417.1 L 254.4 417.1 L 253.2 419.5 L 274.6 419.5 Z  M 256.1 423.3 L 256.1 428 L 268.4 428 L 268.4 423.3 L 256.1 423.3 Z  M 321.4 443 L 253 443 L 253 438.7 L 321.4 438.7 L 321.4 443 Z  M 330.5 451.8 L 243.9 451.8 L 243.9 446.4 L 330.5 446.4 L 330.5 451.8 Z  M 320 459.6 L 254.4 459.6 L 254.4 455.3 L 320 455.3 L 320 459.6 Z  M 320 467.5 L 254.4 467.5 L 254.4 463.2 L 320 463.2 L 320 467.5 Z  M 261 481.2 L 313.4 481.2 L 313.4 475.5 L 261 475.5 L 261 481.2 Z  M 295 415.2 L 295 415.2 L 300.8 412.7 L 300.8 412.7 Q 304.4 418.1 308.9 421.8 L 308.9 421.8 L 308.9 421.8 Q 314.4 417.4 317.8 411 L 317.8 411 L 297.8 411 L 297.8 411 Q 294.1 416.7 289.5 421.3 L 289.5 421.3 L 286.5 419.2 L 286.5 419.2 Q 285.9 427.5 284.75 431.15 L 284.75 431.15 L 284.75 431.15 Q 283.6 434.8 281.75 435.75 L 281.75 435.75 L 281.75 435.75 Q 279.9 436.7 275.7 436.7 L 275.7 436.7 L 268.7 436.7 L 268.5 432.3 L 256.1 432.3 L 256.1 434.9 L 249.4 434.9 L 249.4 425.4 L 249.4 425.4 Q 247.7 427.6 246.4 428.9 L 246.4 428.9 L 240.8 426 L 240.8 426 Q 247.7 418.3 250.1 410 L 250.1 410 L 253.2 410.3 L 253.2 408.4 L 242.7 408.4 L 242.7 403.2 L 253.2 403.2 L 253.2 398 L 260.2 398 L 260.2 403.2 L 271.8 403.2 L 271.8 398 L 278.8 398 L 278.8 403.2 L 289.1 403.2 L 289.1 408.4 L 278.8 408.4 L 278.8 412.3 L 286.9 412.3 L 286.9 412.3 Q 286.9 412.8 286.85 413.6 L 286.85 413.6 L 286.85 413.6 Q 286.8 414.4 286.8 414.8 L 286.8 414.8 L 286.8 414.8 Q 293.5 407.2 297.2 397.5 L 297.2 397.5 L 303.9 398.2 L 303.9 398.2 Q 302.7 402.1 301.1 405.2 L 301.1 405.2 L 331.7 405.2 L 331.7 411 L 325.1 411 L 325.1 411 Q 321.1 419.6 314.1 425.4 L 314.1 425.4 L 314.1 425.4 Q 321.3 429.6 331.9 432.1 L 331.9 432.1 L 330.2 438 L 330.2 438 Q 317.1 434.7 308.6 429.2 L 308.6 429.2 L 308.6 429.2 Q 300.1 434.2 288 436.7 L 288 436.7 L 285.8 431.3 L 285.8 431.3 Q 296.2 429.2 303.5 425.3 L 303.5 425.3 L 303.5 425.3 Q 298.7 421.1 295 415.2 Z  M 362.4 455.8 L 362.4 476.2 L 412 476.2 L 412 455.8 L 362.4 455.8 Z  M 392.4 409.7 L 425.9 409.7 L 425.9 416 L 392.4 416 L 392.4 434.8 L 431.2 434.8 L 431.2 441.5 L 343.2 441.5 L 343.2 434.8 L 384.4 434.8 L 384.4 416 L 361.4 416 L 361.4 416 Q 357.2 424 350.7 431.8 L 350.7 431.8 L 344 427.8 L 344 427.8 Q 354.7 414.4 360.4 399 L 360.4 399 L 367.8 401 L 367.8 401 Q 365.8 406.8 364.5 409.7 L 364.5 409.7 L 384.4 409.7 L 384.4 398.7 L 392.4 398.7 L 392.4 409.7 Z  M 419.9 449.5 L 419.9 487.7 L 412 487.7 L 412 482.3 L 362.4 482.3 L 362.4 487.7 L 354.5 487.7 L 354.5 449.5 L 419.9 449.5 Z " fill-rule="evenodd" fill="rgb(255,202,40)" />
    </g>
</svg>