<?xml version="1.0" standalone="no"?>
<!-- Generator: Gravit.io -->
<svg xmlns="http://www.w3.org/2000/svg" xmlns:xlink="http://www.w3.org/1999/xlink" style="isolation:isolate" viewBox="0 0 1024 1024" width="1024" height="1024">
    <defs>
        <clipPath id="_clipPath_PCUpaLwG3D00UqE8nlk43gwMwOgQ4syx">
            <rect width="1024" height="1024" />
        </clipPath>
    </defs>
    <g clip-path="url(#_clipPath_PCUpaLwG3D00UqE8nlk43gwMwOgQ4syx)">
        <rect x="87" y="87" width="850" height="850" transform="matrix(1,0,0,1,0,0)" fill="rgb(33,33,33)" />
        <path d=" M 547.9 251.1 L 799.9 755.1 C 803.7 762.3 805.7 770.3 805.9 778.4 C 806.1 790.4 800.9 801.9 791.7 809.6 C 782.5 816.8 771.2 820.4 759.6 820 L 264.4 820 C 252.8 820.4 241.5 816.8 232.3 809.6 C 223.1 801.9 217.9 790.4 218.1 778.4 C 218.3 770.3 220.3 762.3 224.1 755.1 L 476.1 251.1 C 479.3 244.4 483.8 238.4 489.4 233.5 C 495.7 228.1 503.7 225.1 512 225 C 520.3 225.1 528.3 228.1 534.6 233.5 C 540.2 238.4 544.7 244.4 547.9 251.1 Z " fill="rgb(255,143,0)" />
        <path d=" M 529.889 259.777 L 782.111 764.223 C 791.984 783.969 782.077 800 760 800 L 264 800 C 241.923 800 232.016 783.969 241.889 764.223 L 494.111 259.777 C 503.984 240.031 520.016 240.031 529.889 259.777 Z " fill="rgb(255,202,40)" />
        <path d=" M 512 620.402 C 516.972 620.402 521.234 618.626 524.785 615.43 C 527.981 612.233 530.112 607.262 530.823 601.224 L 549.645 491.131 C 550 489.71 550 487.934 550 485.449 C 550 474.794 546.449 466.271 539.346 460.233 C 532.243 454.196 523.01 451 512 451 C 500.991 451 492.113 453.841 485.01 459.879 C 477.552 465.915 474 474.439 474 485.093 C 474 487.579 474 489.355 474.355 490.776 L 492.823 601.224 C 493.888 607.262 496.019 612.233 499.57 615.43 C 502.767 618.626 507.028 620.402 512 620.402 Z  M 512 705.281 C 521.589 705.281 529.757 702.083 536.505 695.337 C 542.897 688.589 546.094 680.42 546.094 670.832 C 546.094 661.242 542.897 653.075 536.505 646.327 C 529.757 639.579 521.589 636.383 512 636.383 C 502.056 636.383 493.888 639.579 487.496 646.327 C 480.748 653.075 477.552 661.242 477.552 670.832 C 477.552 680.42 480.748 688.589 487.496 695.337 C 493.888 702.083 502.056 705.281 512 705.281 Z " fill-rule="evenodd" fill="rgb(33,33,33)" />
    </g>
</svg>