<?xml version="1.0" standalone="no"?>
<!-- Generator: Gravit.io -->
<svg xmlns="http://www.w3.org/2000/svg" xmlns:xlink="http://www.w3.org/1999/xlink" style="isolation:isolate" viewBox="0 0 1024 1024" width="1024" height="1024">
    <defs>
        <clipPath id="_clipPath_dxCZ58a9WelIL4yLb30mEhJLLNvOTgg9">
            <rect width="1024" height="1024" />
        </clipPath>
    </defs>
    <g clip-path="url(#_clipPath_dxCZ58a9WelIL4yLb30mEhJLLNvOTgg9)">
        <rect x="87" y="87" width="850" height="850" transform="matrix(1,0,0,1,0,0)" fill="rgb(235,235,235)" />
        <path d="M 146.18 110 L 877.82 110 C 897.788 110 914 126.212 914 146.18 L 914 877.82 C 914 897.788 897.788 914 877.82 914 L 146.18 914 C 126.212 914 110 897.788 110 877.82 L 110 146.18 C 110 126.212 126.212 110 146.18 110 Z" style="stroke:none;fill:#424242;stroke-miterlimit:10;" />
        <path d="M 169.28 155 L 854.72 155 C 862.601 155 869 161.399 869 169.28 L 869 854.72 C 869 862.601 862.601 869 854.72 869 L 169.28 869 C 161.399 869 155 862.601 155 854.72 L 155 169.28 C 155 161.399 161.399 155 169.28 155 Z" style="stroke:none;fill:#212121;stroke-miterlimit:10;" />
        <path d=" M 753.315 576.515 L 730.11 576.515 L 725.435 591.475 L 718.125 591.475 L 737.25 532.91 L 746.6 532.91 L 765.64 591.475 L 757.99 591.475 L 753.315 576.515 Z  M 732.065 570.395 L 751.36 570.395 L 741.755 539.2 L 732.065 570.395 Z  M 812.56 532.91 L 815.875 591.475 L 808.735 591.475 L 806.95 560.875 L 806.95 560.875 Q 806.44 552.8 806.44 539.71 L 806.44 539.71 L 796.58 580.935 L 789.185 580.935 L 778.645 539.71 L 778.645 539.71 Q 778.815 542.77 778.815 547.87 L 778.815 547.87 L 778.815 547.87 Q 778.815 555.69 778.475 560.875 L 778.475 560.875 L 776.945 591.475 L 769.975 591.475 L 773.29 532.91 L 783.575 532.91 L 793.095 573.03 L 802.19 532.91 L 812.56 532.91 Z  M 480.975 592.24 L 474.345 590.285 L 497.125 538.86 L 469.67 538.86 L 469.67 532.91 L 504.35 532.91 L 504.35 538.435 L 480.975 592.24 Z  M 531.04 554.84 L 531.04 554.84 Q 531.04 552.035 532.995 550.038 L 532.995 550.038 L 532.995 550.038 Q 534.95 548.04 537.84 548.04 L 537.84 548.04 L 537.84 548.04 Q 540.815 548.04 542.77 550.038 L 542.77 550.038 L 542.77 550.038 Q 544.725 552.035 544.725 554.84 L 544.725 554.84 L 544.725 554.84 Q 544.725 557.73 542.77 559.77 L 542.77 559.77 L 542.77 559.77 Q 540.815 561.81 537.84 561.81 L 537.84 561.81 L 537.84 561.81 Q 534.95 561.81 532.995 559.77 L 532.995 559.77 L 532.995 559.77 Q 531.04 557.73 531.04 554.84 L 531.04 554.84 Z  M 531.04 585.525 L 531.04 585.525 Q 531.04 582.72 532.995 580.68 L 532.995 580.68 L 532.995 580.68 Q 534.95 578.64 537.84 578.64 L 537.84 578.64 L 537.84 578.64 Q 540.815 578.64 542.77 580.638 L 542.77 580.638 L 542.77 580.638 Q 544.725 582.635 544.725 585.525 L 544.725 585.525 L 544.725 585.525 Q 544.725 588.5 542.77 590.455 L 542.77 590.455 L 542.77 590.455 Q 540.815 592.41 537.84 592.41 L 537.84 592.41 L 537.84 592.41 Q 534.95 592.41 532.995 590.455 L 532.995 590.455 L 532.995 590.455 Q 531.04 588.5 531.04 585.525 L 531.04 585.525 Z  M 586.29 531.975 L 586.29 531.975 Q 591.645 531.975 595.725 533.973 L 595.725 533.973 L 595.725 533.973 Q 599.805 535.97 602.015 539.328 L 602.015 539.328 L 602.015 539.328 Q 604.225 542.685 604.225 546.68 L 604.225 546.68 L 604.225 546.68 Q 604.225 551.78 600.91 555.563 L 600.91 555.563 L 600.91 555.563 Q 597.595 559.345 592.835 560.28 L 592.835 560.28 L 592.835 560.28 Q 598.36 560.705 602.228 564.445 L 602.228 564.445 L 602.228 564.445 Q 606.095 568.185 606.095 574.645 L 606.095 574.645 L 606.095 574.645 Q 606.095 579.66 603.545 583.74 L 603.545 583.74 L 603.545 583.74 Q 600.995 587.82 596.363 590.115 L 596.363 590.115 L 596.363 590.115 Q 591.73 592.41 585.78 592.41 L 585.78 592.41 L 585.78 592.41 Q 580.595 592.41 575.793 590.455 L 575.793 590.455 L 575.793 590.455 Q 570.99 588.5 567.845 584.675 L 567.845 584.675 L 572.605 580.765 L 572.605 580.765 Q 574.985 583.57 578.428 585.058 L 578.428 585.058 L 578.428 585.058 Q 581.87 586.545 585.61 586.545 L 585.61 586.545 L 585.61 586.545 Q 591.73 586.545 595.173 583.358 L 595.173 583.358 L 595.173 583.358 Q 598.615 580.17 598.615 574.645 L 598.615 574.645 L 598.615 574.645 Q 598.615 563.51 586.46 563.51 L 586.46 563.51 L 581.615 563.51 L 582.465 557.815 L 585.95 557.815 L 585.95 557.815 Q 590.54 557.815 593.77 555.223 L 593.77 555.223 L 593.77 555.223 Q 597 552.63 597 547.615 L 597 547.615 L 597 547.615 Q 597 542.94 593.898 540.348 L 593.898 540.348 L 593.898 540.348 Q 590.795 537.755 585.95 537.755 L 585.95 537.755 L 585.95 537.755 Q 582.295 537.755 579.448 539.03 L 579.448 539.03 L 579.448 539.03 Q 576.6 540.305 573.54 543.11 L 573.54 543.11 L 569.63 538.775 L 569.63 538.775 Q 576.77 531.975 586.29 531.975 L 586.29 531.975 Z  M 642.475 553.395 L 642.475 553.395 Q 647.065 553.395 650.848 555.435 L 650.848 555.435 L 650.848 555.435 Q 654.63 557.475 656.84 561.598 L 656.84 561.598 L 656.84 561.598 Q 659.05 565.72 659.05 571.755 L 659.05 571.755 L 659.05 571.755 Q 659.05 578.045 656.585 582.763 L 656.585 582.763 L 656.585 582.763 Q 654.12 587.48 649.955 589.945 L 649.955 589.945 L 649.955 589.945 Q 645.79 592.41 640.605 592.41 L 640.605 592.41 L 640.605 592.41 Q 630.405 592.41 625.773 585.015 L 625.773 585.015 L 625.773 585.015 Q 621.14 577.62 621.14 563.85 L 621.14 563.85 L 621.14 563.85 Q 621.14 554.16 623.733 546.978 L 623.733 546.978 L 623.733 546.978 Q 626.325 539.795 631.213 535.885 L 631.213 535.885 L 631.213 535.885 Q 636.1 531.975 642.9 531.975 L 642.9 531.975 L 642.9 531.975 Q 649.275 531.975 654.545 535.46 L 654.545 535.46 L 651.74 540.22 L 651.74 540.22 Q 647.575 537.755 642.815 537.755 L 642.815 537.755 L 642.815 537.755 Q 636.185 537.755 632.36 544.088 L 632.36 544.088 L 632.36 544.088 Q 628.535 550.42 628.365 561.215 L 628.365 561.215 L 628.365 561.215 Q 631.085 557.135 634.57 555.265 L 634.57 555.265 L 634.57 555.265 Q 638.055 553.395 642.475 553.395 L 642.475 553.395 Z  M 640.605 586.63 L 640.605 586.63 Q 646.045 586.63 648.893 582.763 L 648.893 582.763 L 648.893 582.763 Q 651.74 578.895 651.74 572.01 L 651.74 572.01 L 651.74 572.01 Q 651.74 559.175 641.37 559.175 L 641.37 559.175 L 641.37 559.175 Q 637.29 559.175 634.018 561.385 L 634.018 561.385 L 634.018 561.385 Q 630.745 563.595 628.45 567.42 L 628.45 567.42 L 628.45 567.42 Q 628.62 577.45 631.51 582.04 L 631.51 582.04 L 631.51 582.04 Q 634.4 586.63 640.605 586.63 L 640.605 586.63 Z  M 251.56 532.91 L 254.875 591.475 L 247.735 591.475 L 245.95 560.875 L 245.95 560.875 Q 245.44 552.8 245.44 539.71 L 245.44 539.71 L 235.58 580.935 L 228.185 580.935 L 217.645 539.71 L 217.645 539.71 Q 217.815 542.77 217.815 547.87 L 217.815 547.87 L 217.815 547.87 Q 217.815 555.69 217.475 560.875 L 217.475 560.875 L 215.945 591.475 L 208.975 591.475 L 212.29 532.91 L 222.575 532.91 L 232.095 573.03 L 241.19 532.91 L 251.56 532.91 Z  M 294.315 576.515 L 271.11 576.515 L 266.435 591.475 L 259.125 591.475 L 278.25 532.91 L 287.6 532.91 L 306.64 591.475 L 298.99 591.475 L 294.315 576.515 Z  M 273.065 570.395 L 292.36 570.395 L 282.755 539.2 L 273.065 570.395 Z  M 350.67 532.91 L 350.67 538.86 L 337.665 538.86 L 337.665 585.61 L 350.67 585.61 L 350.67 591.475 L 317.18 591.475 L 317.18 585.61 L 330.185 585.61 L 330.185 538.86 L 317.18 538.86 L 317.18 532.91 L 350.67 532.91 Z  M 386.115 592.41 L 386.115 592.41 Q 375.405 592.41 369.328 584.718 L 369.328 584.718 L 369.328 584.718 Q 363.25 577.025 363.25 562.15 L 363.25 562.15 L 363.25 562.15 Q 363.25 552.46 366.65 545.66 L 366.65 545.66 L 366.65 545.66 Q 370.05 538.86 375.66 535.418 L 375.66 535.418 L 375.66 535.418 Q 381.27 531.975 387.815 531.975 L 387.815 531.975 L 387.815 531.975 Q 393.34 531.975 397.08 533.505 L 397.08 533.505 L 397.08 533.505 Q 400.82 535.035 404.475 538.435 L 404.475 538.435 L 400.055 543.025 L 400.055 543.025 Q 397.335 540.56 394.403 539.37 L 394.403 539.37 L 394.403 539.37 Q 391.47 538.18 387.815 538.18 L 387.815 538.18 L 387.815 538.18 Q 380.675 538.18 375.915 543.875 L 375.915 543.875 L 375.915 543.875 Q 371.155 549.57 371.155 562.15 L 371.155 562.15 L 371.155 562.15 Q 371.155 574.645 375.023 580.425 L 375.023 580.425 L 375.023 580.425 Q 378.89 586.205 386.71 586.205 L 386.71 586.205 L 386.71 586.205 Q 392.915 586.205 397.845 583.4 L 397.845 583.4 L 397.845 565.635 L 386.37 565.635 L 385.52 559.43 L 405.24 559.43 L 405.24 587.31 L 405.24 587.31 Q 400.82 589.775 396.358 591.093 L 396.358 591.093 L 396.358 591.093 Q 391.895 592.41 386.115 592.41 L 386.115 592.41 Z  M 243.315 474.515 L 220.11 474.515 L 215.435 489.475 L 208.125 489.475 L 227.25 430.91 L 236.6 430.91 L 255.64 489.475 L 247.99 489.475 L 243.315 474.515 Z  M 222.065 468.395 L 241.36 468.395 L 231.755 437.2 L 222.065 468.395 Z  M 304.43 459.895 L 304.43 459.895 Q 304.43 476.555 296.78 483.015 L 296.78 483.015 L 296.78 483.015 Q 289.13 489.475 277.91 489.475 L 277.91 489.475 L 264.48 489.475 L 264.48 430.91 L 276.975 430.91 L 276.975 430.91 Q 289.3 430.91 296.865 437.115 L 296.865 437.115 L 296.865 437.115 Q 304.43 443.32 304.43 459.895 L 304.43 459.895 Z  M 296.525 459.895 L 296.525 459.895 Q 296.525 450.375 293.933 445.318 L 293.933 445.318 L 293.933 445.318 Q 291.34 440.26 287.515 438.603 L 287.515 438.603 L 287.515 438.603 Q 283.69 436.945 278.76 436.945 L 278.76 436.945 L 271.875 436.945 L 271.875 483.525 L 278.845 483.525 L 278.845 483.525 Q 286.41 483.525 291.468 478.298 L 291.468 478.298 L 291.468 478.298 Q 296.525 473.07 296.525 459.895 L 296.525 459.895 Z  M 334.095 481.06 L 349.905 430.91 L 357.3 430.91 L 337.75 489.475 L 330.1 489.475 L 310.55 430.91 L 318.455 430.91 L 334.095 481.06 Z  M 377.445 437.03 L 377.445 456.75 L 399.205 456.75 L 399.205 462.785 L 377.445 462.785 L 377.445 483.525 L 404.135 483.525 L 404.135 489.475 L 370.135 489.475 L 370.135 430.91 L 403.37 430.91 L 402.52 437.03 L 377.445 437.03 Z  M 456.07 447.4 L 456.07 447.4 Q 456.07 453.69 452.16 457.813 L 452.16 457.813 L 452.16 457.813 Q 448.25 461.935 441.79 463.55 L 441.79 463.55 L 459.215 489.475 L 450.375 489.475 L 434.31 464.4 L 426.405 464.4 L 426.405 489.475 L 419.095 489.475 L 419.095 430.91 L 434.055 430.91 L 434.055 430.91 Q 444.935 430.91 450.503 435.075 L 450.503 435.075 L 450.503 435.075 Q 456.07 439.24 456.07 447.4 L 456.07 447.4 Z  M 448.25 447.4 L 448.25 447.4 Q 448.25 441.79 445.02 439.325 L 445.02 439.325 L 445.02 439.325 Q 441.79 436.86 434.905 436.86 L 434.905 436.86 L 426.405 436.86 L 426.405 458.62 L 434.99 458.62 L 434.99 458.62 Q 441.535 458.62 444.893 455.943 L 444.893 455.943 L 444.893 455.943 Q 448.25 453.265 448.25 447.4 L 448.25 447.4 Z  M 490.495 437.285 L 490.495 489.475 L 483.1 489.475 L 483.1 437.285 L 464.825 437.285 L 464.825 430.91 L 508.94 430.91 L 508.175 437.285 L 490.495 437.285 Z  M 530.445 437.03 L 530.445 456.75 L 552.205 456.75 L 552.205 462.785 L 530.445 462.785 L 530.445 483.525 L 557.135 483.525 L 557.135 489.475 L 523.135 489.475 L 523.135 430.91 L 556.37 430.91 L 555.52 437.03 L 530.445 437.03 Z  M 533.845 412.21 L 549.57 421.39 L 547.36 425.3 L 529.935 418.33 L 533.845 412.21 Z  M 597 489.475 L 576.345 438.05 L 576.345 438.05 Q 576.345 438.645 576.855 445.445 L 576.855 445.445 L 576.855 445.445 Q 577.365 452.245 577.365 460.15 L 577.365 460.15 L 577.365 489.475 L 570.48 489.475 L 570.48 430.91 L 580.51 430.91 L 601.505 482.59 L 601.335 479.53 L 601.335 479.53 Q 600.485 469.075 600.485 460.235 L 600.485 460.235 L 600.485 430.91 L 607.37 430.91 L 607.37 489.475 L 597 489.475 Z  M 644.855 429.975 L 644.855 429.975 Q 650.295 429.975 654.205 431.378 L 654.205 431.378 L 654.205 431.378 Q 658.115 432.78 661.855 435.67 L 661.855 435.67 L 657.69 440.515 L 657.69 440.515 Q 652.505 436.18 645.365 436.18 L 645.365 436.18 L 645.365 436.18 Q 637.46 436.18 632.488 441.918 L 632.488 441.918 L 632.488 441.918 Q 627.515 447.655 627.515 460.15 L 627.515 460.15 L 627.515 460.15 Q 627.515 472.56 632.36 478.34 L 632.36 478.34 L 632.36 478.34 Q 637.205 484.12 645.28 484.12 L 645.28 484.12 L 645.28 484.12 Q 649.7 484.12 652.845 482.845 L 652.845 482.845 L 652.845 482.845 Q 655.99 481.57 658.88 479.275 L 658.88 479.275 L 662.705 484.035 L 662.705 484.035 Q 656.16 490.41 645.195 490.41 L 645.195 490.41 L 645.195 490.41 Q 637.97 490.41 632.19 486.883 L 632.19 486.883 L 632.19 486.883 Q 626.41 483.355 623.095 476.555 L 623.095 476.555 L 623.095 476.555 Q 619.78 469.755 619.78 460.15 L 619.78 460.15 L 619.78 460.15 Q 619.78 450.63 623.138 443.788 L 623.138 443.788 L 623.138 443.788 Q 626.495 436.945 632.233 433.46 L 632.233 433.46 L 632.233 433.46 Q 637.97 429.975 644.855 429.975 L 644.855 429.975 Z  M 707.67 430.91 L 707.67 436.86 L 694.665 436.86 L 694.665 483.61 L 707.67 483.61 L 707.67 489.475 L 674.18 489.475 L 674.18 483.61 L 687.185 483.61 L 687.185 436.86 L 674.18 436.86 L 674.18 430.91 L 707.67 430.91 Z  M 753.315 474.515 L 730.11 474.515 L 725.435 489.475 L 718.125 489.475 L 737.25 430.91 L 746.6 430.91 L 765.64 489.475 L 757.99 489.475 L 753.315 474.515 Z  M 732.065 468.395 L 751.36 468.395 L 741.755 437.2 L 732.065 468.395 Z " fill-rule="evenodd" fill="rgb(255,202,40)" />
    </g>
</svg>