<?xml version="1.0" standalone="no"?>
<!-- Generator: Gravit.io -->
<svg xmlns="http://www.w3.org/2000/svg" xmlns:xlink="http://www.w3.org/1999/xlink" style="isolation:isolate" viewBox="0 0 1024 1024" width="1024" height="1024">
    <defs>
        <clipPath id="_clipPath_FFZof3e0oTB37Z4p9E4OpgATT5CauRu4">
            <rect width="1024" height="1024" />
        </clipPath>
    </defs>
    <g clip-path="url(#_clipPath_FFZof3e0oTB37Z4p9E4OpgATT5CauRu4)">
        <rect x="87" y="87" width="850" height="850" transform="matrix(1,0,0,1,0,0)" fill="rgb(235,235,235)" />
        <path d="M 146.18 110 L 877.82 110 C 897.788 110 914 126.212 914 146.18 L 914 877.82 C 914 897.788 897.788 914 877.82 914 L 146.18 914 C 126.212 914 110 897.788 110 877.82 L 110 146.18 C 110 126.212 126.212 110 146.18 110 Z" style="stroke:none;fill:#424242;stroke-miterlimit:10;" />
        <path d="M 169.28 155 L 854.72 155 C 862.601 155 869 161.399 869 169.28 L 869 854.72 C 869 862.601 862.601 869 854.72 869 L 169.28 869 C 161.399 869 155 862.601 155 854.72 L 155 169.28 C 155 161.399 161.399 155 169.28 155 Z" style="stroke:none;fill:#212121;stroke-miterlimit:10;" />
        <path d=" M 453.55 592.24 L 446.92 590.285 L 469.7 538.86 L 442.245 538.86 L 442.245 532.91 L 476.925 532.91 L 476.925 538.435 L 453.55 592.24 Z  M 503.615 554.84 L 503.615 554.84 Q 503.615 552.035 505.57 550.038 L 505.57 550.038 L 505.57 550.038 Q 507.525 548.04 510.415 548.04 L 510.415 548.04 L 510.415 548.04 Q 513.39 548.04 515.345 550.038 L 515.345 550.038 L 515.345 550.038 Q 517.3 552.035 517.3 554.84 L 517.3 554.84 L 517.3 554.84 Q 517.3 557.73 515.345 559.77 L 515.345 559.77 L 515.345 559.77 Q 513.39 561.81 510.415 561.81 L 510.415 561.81 L 510.415 561.81 Q 507.525 561.81 505.57 559.77 L 505.57 559.77 L 505.57 559.77 Q 503.615 557.73 503.615 554.84 L 503.615 554.84 Z  M 503.615 585.525 L 503.615 585.525 Q 503.615 582.72 505.57 580.68 L 505.57 580.68 L 505.57 580.68 Q 507.525 578.64 510.415 578.64 L 510.415 578.64 L 510.415 578.64 Q 513.39 578.64 515.345 580.638 L 515.345 580.638 L 515.345 580.638 Q 517.3 582.635 517.3 585.525 L 517.3 585.525 L 517.3 585.525 Q 517.3 588.5 515.345 590.455 L 515.345 590.455 L 515.345 590.455 Q 513.39 592.41 510.415 592.41 L 510.415 592.41 L 510.415 592.41 Q 507.525 592.41 505.57 590.455 L 505.57 590.455 L 505.57 590.455 Q 503.615 588.5 503.615 585.525 L 503.615 585.525 Z  M 558.865 531.975 L 558.865 531.975 Q 564.22 531.975 568.3 533.973 L 568.3 533.973 L 568.3 533.973 Q 572.38 535.97 574.59 539.328 L 574.59 539.328 L 574.59 539.328 Q 576.8 542.685 576.8 546.68 L 576.8 546.68 L 576.8 546.68 Q 576.8 551.78 573.485 555.563 L 573.485 555.563 L 573.485 555.563 Q 570.17 559.345 565.41 560.28 L 565.41 560.28 L 565.41 560.28 Q 570.935 560.705 574.803 564.445 L 574.803 564.445 L 574.803 564.445 Q 578.67 568.185 578.67 574.645 L 578.67 574.645 L 578.67 574.645 Q 578.67 579.66 576.12 583.74 L 576.12 583.74 L 576.12 583.74 Q 573.57 587.82 568.938 590.115 L 568.938 590.115 L 568.938 590.115 Q 564.305 592.41 558.355 592.41 L 558.355 592.41 L 558.355 592.41 Q 553.17 592.41 548.368 590.455 L 548.368 590.455 L 548.368 590.455 Q 543.565 588.5 540.42 584.675 L 540.42 584.675 L 545.18 580.765 L 545.18 580.765 Q 547.56 583.57 551.003 585.058 L 551.003 585.058 L 551.003 585.058 Q 554.445 586.545 558.185 586.545 L 558.185 586.545 L 558.185 586.545 Q 564.305 586.545 567.748 583.358 L 567.748 583.358 L 567.748 583.358 Q 571.19 580.17 571.19 574.645 L 571.19 574.645 L 571.19 574.645 Q 571.19 563.51 559.035 563.51 L 559.035 563.51 L 554.19 563.51 L 555.04 557.815 L 558.525 557.815 L 558.525 557.815 Q 563.115 557.815 566.345 555.223 L 566.345 555.223 L 566.345 555.223 Q 569.575 552.63 569.575 547.615 L 569.575 547.615 L 569.575 547.615 Q 569.575 542.94 566.473 540.348 L 566.473 540.348 L 566.473 540.348 Q 563.37 537.755 558.525 537.755 L 558.525 537.755 L 558.525 537.755 Q 554.87 537.755 552.023 539.03 L 552.023 539.03 L 552.023 539.03 Q 549.175 540.305 546.115 543.11 L 546.115 543.11 L 542.205 538.775 L 542.205 538.775 Q 549.345 531.975 558.865 531.975 L 558.865 531.975 Z  M 615.05 553.395 L 615.05 553.395 Q 619.64 553.395 623.423 555.435 L 623.423 555.435 L 623.423 555.435 Q 627.205 557.475 629.415 561.598 L 629.415 561.598 L 629.415 561.598 Q 631.625 565.72 631.625 571.755 L 631.625 571.755 L 631.625 571.755 Q 631.625 578.045 629.16 582.763 L 629.16 582.763 L 629.16 582.763 Q 626.695 587.48 622.53 589.945 L 622.53 589.945 L 622.53 589.945 Q 618.365 592.41 613.18 592.41 L 613.18 592.41 L 613.18 592.41 Q 602.98 592.41 598.348 585.015 L 598.348 585.015 L 598.348 585.015 Q 593.715 577.62 593.715 563.85 L 593.715 563.85 L 593.715 563.85 Q 593.715 554.16 596.308 546.978 L 596.308 546.978 L 596.308 546.978 Q 598.9 539.795 603.788 535.885 L 603.788 535.885 L 603.788 535.885 Q 608.675 531.975 615.475 531.975 L 615.475 531.975 L 615.475 531.975 Q 621.85 531.975 627.12 535.46 L 627.12 535.46 L 624.315 540.22 L 624.315 540.22 Q 620.15 537.755 615.39 537.755 L 615.39 537.755 L 615.39 537.755 Q 608.76 537.755 604.935 544.088 L 604.935 544.088 L 604.935 544.088 Q 601.11 550.42 600.94 561.215 L 600.94 561.215 L 600.94 561.215 Q 603.66 557.135 607.145 555.265 L 607.145 555.265 L 607.145 555.265 Q 610.63 553.395 615.05 553.395 L 615.05 553.395 Z  M 613.18 586.63 L 613.18 586.63 Q 618.62 586.63 621.468 582.763 L 621.468 582.763 L 621.468 582.763 Q 624.315 578.895 624.315 572.01 L 624.315 572.01 L 624.315 572.01 Q 624.315 559.175 613.945 559.175 L 613.945 559.175 L 613.945 559.175 Q 609.865 559.175 606.593 561.385 L 606.593 561.385 L 606.593 561.385 Q 603.32 563.595 601.025 567.42 L 601.025 567.42 L 601.025 567.42 Q 601.195 577.45 604.085 582.04 L 604.085 582.04 L 604.085 582.04 Q 606.975 586.63 613.18 586.63 L 613.18 586.63 Z  M 275.135 532.91 L 278.45 591.475 L 271.31 591.475 L 269.525 560.875 L 269.525 560.875 Q 269.015 552.8 269.015 539.71 L 269.015 539.71 L 259.155 580.935 L 251.76 580.935 L 241.22 539.71 L 241.22 539.71 Q 241.39 542.77 241.39 547.87 L 241.39 547.87 L 241.39 547.87 Q 241.39 555.69 241.05 560.875 L 241.05 560.875 L 239.52 591.475 L 232.55 591.475 L 235.865 532.91 L 246.15 532.91 L 255.67 573.03 L 264.765 532.91 L 275.135 532.91 Z  M 317.89 576.515 L 294.685 576.515 L 290.01 591.475 L 282.7 591.475 L 301.825 532.91 L 311.175 532.91 L 330.215 591.475 L 322.565 591.475 L 317.89 576.515 Z  M 296.64 570.395 L 315.935 570.395 L 306.33 539.2 L 296.64 570.395 Z  M 374.245 532.91 L 374.245 538.86 L 361.24 538.86 L 361.24 585.61 L 374.245 585.61 L 374.245 591.475 L 340.755 591.475 L 340.755 585.61 L 353.76 585.61 L 353.76 538.86 L 340.755 538.86 L 340.755 532.91 L 374.245 532.91 Z  M 266.89 474.515 L 243.685 474.515 L 239.01 489.475 L 231.7 489.475 L 250.825 430.91 L 260.175 430.91 L 279.215 489.475 L 271.565 489.475 L 266.89 474.515 Z  M 245.64 468.395 L 264.935 468.395 L 255.33 437.2 L 245.64 468.395 Z  M 292.56 489.475 L 292.56 430.91 L 299.87 430.91 L 299.87 482.93 L 326.645 482.93 L 325.71 489.475 L 292.56 489.475 Z  M 350.02 437.03 L 350.02 456.75 L 371.78 456.75 L 371.78 462.785 L 350.02 462.785 L 350.02 483.525 L 376.71 483.525 L 376.71 489.475 L 342.71 489.475 L 342.71 430.91 L 375.945 430.91 L 375.095 437.03 L 350.02 437.03 Z  M 428.645 447.4 L 428.645 447.4 Q 428.645 453.69 424.735 457.813 L 424.735 457.813 L 424.735 457.813 Q 420.825 461.935 414.365 463.55 L 414.365 463.55 L 431.79 489.475 L 422.95 489.475 L 406.885 464.4 L 398.98 464.4 L 398.98 489.475 L 391.67 489.475 L 391.67 430.91 L 406.63 430.91 L 406.63 430.91 Q 417.51 430.91 423.078 435.075 L 423.078 435.075 L 423.078 435.075 Q 428.645 439.24 428.645 447.4 L 428.645 447.4 Z  M 420.825 447.4 L 420.825 447.4 Q 420.825 441.79 417.595 439.325 L 417.595 439.325 L 417.595 439.325 Q 414.365 436.86 407.48 436.86 L 407.48 436.86 L 398.98 436.86 L 398.98 458.62 L 407.565 458.62 L 407.565 458.62 Q 414.11 458.62 417.468 455.943 L 417.468 455.943 L 417.468 455.943 Q 420.825 453.265 420.825 447.4 L 420.825 447.4 Z  M 463.07 437.285 L 463.07 489.475 L 455.675 489.475 L 455.675 437.285 L 437.4 437.285 L 437.4 430.91 L 481.515 430.91 L 480.75 437.285 L 463.07 437.285 Z  M 503.02 437.03 L 503.02 456.75 L 524.78 456.75 L 524.78 462.785 L 503.02 462.785 L 503.02 483.525 L 529.71 483.525 L 529.71 489.475 L 495.71 489.475 L 495.71 430.91 L 528.945 430.91 L 528.095 437.03 L 503.02 437.03 Z " fill-rule="evenodd" fill="rgb(255,202,40)" />
    </g>
</svg>