<?xml version="1.0" standalone="no"?>
<!-- Generator: Gravit.io -->
<svg xmlns="http://www.w3.org/2000/svg" xmlns:xlink="http://www.w3.org/1999/xlink" style="isolation:isolate" viewBox="0 0 1024 1024" width="1024" height="1024">
    <defs>
        <clipPath id="_clipPath_WmShmVMdK6vmSVnEEuWNCRhFpJl68kuk">
            <rect width="1024" height="1024" />
        </clipPath>
    </defs>
    <g clip-path="url(#_clipPath_WmShmVMdK6vmSVnEEuWNCRhFpJl68kuk)">
        <rect x="87" y="87" width="850" height="850" transform="matrix(1,0,0,1,0,0)" fill="rgb(235,235,235)" />
        <path d="M 146.18 110 L 877.82 110 C 897.788 110 914 126.212 914 146.18 L 914 877.82 C 914 897.788 897.788 914 877.82 914 L 146.18 914 C 126.212 914 110 897.788 110 877.82 L 110 146.18 C 110 126.212 126.212 110 146.18 110 Z" style="stroke:none;fill:#424242;stroke-miterlimit:10;" />
        <path d="M 169.28 155 L 854.72 155 C 862.601 155 869 161.399 869 169.28 L 869 854.72 C 869 862.601 862.601 869 854.72 869 L 169.28 869 C 161.399 869 155 862.601 155 854.72 L 155 169.28 C 155 161.399 161.399 155 169.28 155 Z" style="stroke:none;fill:#212121;stroke-miterlimit:10;" />
        <path d=" M 763.941 556.275 L 743.941 556.275 L 739.912 569.169 L 733.612 569.169 L 750.095 518.693 L 758.154 518.693 L 774.564 569.169 L 767.971 569.169 L 763.941 556.275 Z  M 745.626 551.001 L 762.256 551.001 L 753.978 524.114 L 745.626 551.001 Z  M 815.004 518.693 L 817.861 569.169 L 811.707 569.169 L 810.168 542.796 L 810.168 542.796 Q 809.729 535.836 809.729 524.554 L 809.729 524.554 L 801.231 560.085 L 794.857 560.085 L 785.773 524.554 L 785.773 524.554 Q 785.919 527.191 785.919 531.587 L 785.919 531.587 L 785.919 531.587 Q 785.919 538.327 785.626 542.796 L 785.626 542.796 L 784.308 569.169 L 778.3 569.169 L 781.158 518.693 L 790.022 518.693 L 798.227 553.272 L 806.066 518.693 L 815.004 518.693 Z  M 529.216 569.828 L 523.502 568.143 L 543.136 523.821 L 519.473 523.821 L 519.473 518.693 L 549.363 518.693 L 549.363 523.455 L 529.216 569.828 Z  M 572.366 537.594 L 572.366 537.594 Q 572.366 535.176 574.051 533.455 L 574.051 533.455 L 574.051 533.455 Q 575.736 531.733 578.227 531.733 L 578.227 531.733 L 578.227 531.733 Q 580.791 531.733 582.476 533.455 L 582.476 533.455 L 582.476 533.455 Q 584.161 535.176 584.161 537.594 L 584.161 537.594 L 584.161 537.594 Q 584.161 540.085 582.476 541.843 L 582.476 541.843 L 582.476 541.843 Q 580.791 543.601 578.227 543.601 L 578.227 543.601 L 578.227 543.601 Q 575.736 543.601 574.051 541.843 L 574.051 541.843 L 574.051 541.843 Q 572.366 540.085 572.366 537.594 L 572.366 537.594 Z  M 572.366 564.041 L 572.366 564.041 Q 572.366 561.623 574.051 559.865 L 574.051 559.865 L 574.051 559.865 Q 575.736 558.107 578.227 558.107 L 578.227 558.107 L 578.227 558.107 Q 580.791 558.107 582.476 559.828 L 582.476 559.828 L 582.476 559.828 Q 584.161 561.55 584.161 564.041 L 584.161 564.041 L 584.161 564.041 Q 584.161 566.605 582.476 568.29 L 582.476 568.29 L 582.476 568.29 Q 580.791 569.975 578.227 569.975 L 578.227 569.975 L 578.227 569.975 Q 575.736 569.975 574.051 568.29 L 574.051 568.29 L 574.051 568.29 Q 572.366 566.605 572.366 564.041 L 572.366 564.041 Z  M 619.985 517.887 L 619.985 517.887 Q 624.601 517.887 628.117 519.609 L 628.117 519.609 L 628.117 519.609 Q 631.634 521.33 633.538 524.224 L 633.538 524.224 L 633.538 524.224 Q 635.443 527.118 635.443 530.561 L 635.443 530.561 L 635.443 530.561 Q 635.443 534.957 632.586 538.217 L 632.586 538.217 L 632.586 538.217 Q 629.729 541.477 625.626 542.283 L 625.626 542.283 L 625.626 542.283 Q 630.388 542.649 633.722 545.872 L 633.722 545.872 L 633.722 545.872 Q 637.055 549.096 637.055 554.664 L 637.055 554.664 L 637.055 554.664 Q 637.055 558.986 634.857 562.502 L 634.857 562.502 L 634.857 562.502 Q 632.659 566.019 628.667 567.997 L 628.667 567.997 L 628.667 567.997 Q 624.674 569.975 619.546 569.975 L 619.546 569.975 L 619.546 569.975 Q 615.077 569.975 610.938 568.29 L 610.938 568.29 L 610.938 568.29 Q 606.799 566.605 604.088 563.308 L 604.088 563.308 L 608.19 559.938 L 608.19 559.938 Q 610.242 562.356 613.209 563.638 L 613.209 563.638 L 613.209 563.638 Q 616.176 564.92 619.399 564.92 L 619.399 564.92 L 619.399 564.92 Q 624.674 564.92 627.641 562.173 L 627.641 562.173 L 627.641 562.173 Q 630.608 559.426 630.608 554.664 L 630.608 554.664 L 630.608 554.664 Q 630.608 545.067 620.132 545.067 L 620.132 545.067 L 615.956 545.067 L 616.689 540.158 L 619.692 540.158 L 619.692 540.158 Q 623.648 540.158 626.432 537.924 L 626.432 537.924 L 626.432 537.924 Q 629.216 535.689 629.216 531.367 L 629.216 531.367 L 629.216 531.367 Q 629.216 527.338 626.542 525.103 L 626.542 525.103 L 626.542 525.103 Q 623.868 522.869 619.692 522.869 L 619.692 522.869 L 619.692 522.869 Q 616.542 522.869 614.088 523.968 L 614.088 523.968 L 614.088 523.968 Q 611.634 525.067 608.996 527.484 L 608.996 527.484 L 605.626 523.748 L 605.626 523.748 Q 611.78 517.887 619.985 517.887 L 619.985 517.887 Z  M 668.41 536.349 L 668.41 536.349 Q 672.366 536.349 675.626 538.107 L 675.626 538.107 L 675.626 538.107 Q 678.886 539.865 680.791 543.418 L 680.791 543.418 L 680.791 543.418 Q 682.696 546.971 682.696 552.173 L 682.696 552.173 L 682.696 552.173 Q 682.696 557.594 680.571 561.66 L 680.571 561.66 L 680.571 561.66 Q 678.447 565.726 674.857 567.85 L 674.857 567.85 L 674.857 567.85 Q 671.267 569.975 666.799 569.975 L 666.799 569.975 L 666.799 569.975 Q 658.007 569.975 654.015 563.601 L 654.015 563.601 L 654.015 563.601 Q 650.022 557.228 650.022 545.36 L 650.022 545.36 L 650.022 545.36 Q 650.022 537.008 652.256 530.817 L 652.256 530.817 L 652.256 530.817 Q 654.491 524.627 658.703 521.257 L 658.703 521.257 L 658.703 521.257 Q 662.916 517.887 668.777 517.887 L 668.777 517.887 L 668.777 517.887 Q 674.271 517.887 678.813 520.891 L 678.813 520.891 L 676.396 524.993 L 676.396 524.993 Q 672.806 522.869 668.703 522.869 L 668.703 522.869 L 668.703 522.869 Q 662.989 522.869 659.692 528.327 L 659.692 528.327 L 659.692 528.327 Q 656.396 533.785 656.249 543.089 L 656.249 543.089 L 656.249 543.089 Q 658.593 539.572 661.597 537.96 L 661.597 537.96 L 661.597 537.96 Q 664.601 536.349 668.41 536.349 L 668.41 536.349 Z  M 666.799 564.993 L 666.799 564.993 Q 671.487 564.993 673.941 561.66 L 673.941 561.66 L 673.941 561.66 Q 676.396 558.327 676.396 552.393 L 676.396 552.393 L 676.396 552.393 Q 676.396 541.33 667.458 541.33 L 667.458 541.33 L 667.458 541.33 Q 663.941 541.33 661.121 543.235 L 661.121 543.235 L 661.121 543.235 Q 658.3 545.14 656.322 548.437 L 656.322 548.437 L 656.322 548.437 Q 656.469 557.081 658.96 561.037 L 658.96 561.037 L 658.96 561.037 Q 661.451 564.993 666.799 564.993 L 666.799 564.993 Z  M 243.575 518.693 L 246.432 569.169 L 240.278 569.169 L 238.74 542.796 L 238.74 542.796 Q 238.3 535.836 238.3 524.554 L 238.3 524.554 L 229.802 560.085 L 223.429 560.085 L 214.344 524.554 L 214.344 524.554 Q 214.491 527.191 214.491 531.587 L 214.491 531.587 L 214.491 531.587 Q 214.491 538.327 214.198 542.796 L 214.198 542.796 L 212.879 569.169 L 206.872 569.169 L 209.729 518.693 L 218.593 518.693 L 226.799 553.272 L 234.637 518.693 L 243.575 518.693 Z  M 280.425 556.275 L 260.425 556.275 L 256.396 569.169 L 250.095 569.169 L 266.579 518.693 L 274.637 518.693 L 291.048 569.169 L 284.454 569.169 L 280.425 556.275 Z  M 262.11 551.001 L 278.74 551.001 L 270.462 524.114 L 262.11 551.001 Z  M 315.59 569.975 L 315.59 569.975 Q 306.359 569.975 301.121 563.345 L 301.121 563.345 L 301.121 563.345 Q 295.883 556.715 295.883 543.894 L 295.883 543.894 L 295.883 543.894 Q 295.883 535.543 298.813 529.682 L 298.813 529.682 L 298.813 529.682 Q 301.744 523.821 306.579 520.854 L 306.579 520.854 L 306.579 520.854 Q 311.414 517.887 317.055 517.887 L 317.055 517.887 L 317.055 517.887 Q 321.817 517.887 325.04 519.206 L 325.04 519.206 L 325.04 519.206 Q 328.264 520.524 331.414 523.455 L 331.414 523.455 L 327.604 527.411 L 327.604 527.411 Q 325.26 525.286 322.733 524.261 L 322.733 524.261 L 322.733 524.261 Q 320.205 523.235 317.055 523.235 L 317.055 523.235 L 317.055 523.235 Q 310.901 523.235 306.799 528.143 L 306.799 528.143 L 306.799 528.143 Q 302.696 533.052 302.696 543.894 L 302.696 543.894 L 302.696 543.894 Q 302.696 554.664 306.029 559.645 L 306.029 559.645 L 306.029 559.645 Q 309.363 564.627 316.103 564.627 L 316.103 564.627 L 316.103 564.627 Q 321.451 564.627 325.7 562.209 L 325.7 562.209 L 325.7 546.898 L 315.81 546.898 L 315.077 541.55 L 332.073 541.55 L 332.073 565.579 L 332.073 565.579 Q 328.264 567.704 324.418 568.839 L 324.418 568.839 L 324.418 568.839 Q 320.571 569.975 315.59 569.975 L 315.59 569.975 Z  M 359.546 569.975 L 359.546 569.975 Q 350.315 569.975 345.077 563.345 L 345.077 563.345 L 345.077 563.345 Q 339.839 556.715 339.839 543.894 L 339.839 543.894 L 339.839 543.894 Q 339.839 535.543 342.769 529.682 L 342.769 529.682 L 342.769 529.682 Q 345.7 523.821 350.535 520.854 L 350.535 520.854 L 350.535 520.854 Q 355.37 517.887 361.011 517.887 L 361.011 517.887 L 361.011 517.887 Q 365.773 517.887 368.996 519.206 L 368.996 519.206 L 368.996 519.206 Q 372.22 520.524 375.37 523.455 L 375.37 523.455 L 371.56 527.411 L 371.56 527.411 Q 369.216 525.286 366.689 524.261 L 366.689 524.261 L 366.689 524.261 Q 364.161 523.235 361.011 523.235 L 361.011 523.235 L 361.011 523.235 Q 354.857 523.235 350.755 528.143 L 350.755 528.143 L 350.755 528.143 Q 346.652 533.052 346.652 543.894 L 346.652 543.894 L 346.652 543.894 Q 346.652 554.664 349.985 559.645 L 349.985 559.645 L 349.985 559.645 Q 353.319 564.627 360.059 564.627 L 360.059 564.627 L 360.059 564.627 Q 365.407 564.627 369.656 562.209 L 369.656 562.209 L 369.656 546.898 L 359.766 546.898 L 359.033 541.55 L 376.029 541.55 L 376.029 565.579 L 376.029 565.579 Q 372.22 567.704 368.374 568.839 L 368.374 568.839 L 368.374 568.839 Q 364.527 569.975 359.546 569.975 L 359.546 569.975 Z  M 416.908 518.693 L 416.908 523.821 L 405.7 523.821 L 405.7 564.114 L 416.908 564.114 L 416.908 569.169 L 388.044 569.169 L 388.044 564.114 L 399.253 564.114 L 399.253 523.821 L 388.044 523.821 L 388.044 518.693 L 416.908 518.693 Z  M 464.967 543.968 L 464.967 543.968 Q 464.967 555.763 460.168 562.869 L 460.168 562.869 L 460.168 562.869 Q 455.37 569.975 446.432 569.975 L 446.432 569.975 L 446.432 569.975 Q 437.421 569.975 432.659 563.015 L 432.659 563.015 L 432.659 563.015 Q 427.897 556.056 427.897 544.041 L 427.897 544.041 L 427.897 544.041 Q 427.897 536.349 430.022 530.415 L 430.022 530.415 L 430.022 530.415 Q 432.147 524.48 436.322 521.184 L 436.322 521.184 L 436.322 521.184 Q 440.498 517.887 446.432 517.887 L 446.432 517.887 L 446.432 517.887 Q 455.37 517.887 460.168 524.957 L 460.168 524.957 L 460.168 524.957 Q 464.967 532.026 464.967 543.968 L 464.967 543.968 Z  M 458.374 543.968 L 458.374 543.968 Q 458.374 533.638 455.516 528.437 L 455.516 528.437 L 455.516 528.437 Q 452.659 523.235 446.432 523.235 L 446.432 523.235 L 446.432 523.235 Q 440.205 523.235 437.348 528.473 L 437.348 528.473 L 437.348 528.473 Q 434.491 533.711 434.491 544.041 L 434.491 544.041 L 434.491 544.041 Q 434.491 554.297 437.385 559.462 L 437.385 559.462 L 437.385 559.462 Q 440.278 564.627 446.432 564.627 L 446.432 564.627 L 446.432 564.627 Q 452.659 564.627 455.516 559.462 L 455.516 559.462 L 455.516 559.462 Q 458.374 554.297 458.374 543.968 L 458.374 543.968 Z  M 236.469 468.363 L 216.469 468.363 L 212.44 481.257 L 206.139 481.257 L 222.623 430.781 L 230.681 430.781 L 247.092 481.257 L 240.498 481.257 L 236.469 468.363 Z  M 218.154 463.089 L 234.784 463.089 L 226.505 436.202 L 218.154 463.089 Z  M 270.755 474.004 L 284.381 430.781 L 290.755 430.781 L 273.905 481.257 L 267.311 481.257 L 250.462 430.781 L 257.275 430.781 L 270.755 474.004 Z  M 314.711 474.004 L 328.337 430.781 L 334.711 430.781 L 317.861 481.257 L 311.267 481.257 L 294.418 430.781 L 301.231 430.781 L 314.711 474.004 Z  M 352.073 436.056 L 352.073 453.052 L 370.828 453.052 L 370.828 458.253 L 352.073 458.253 L 352.073 476.129 L 375.077 476.129 L 375.077 481.257 L 345.773 481.257 L 345.773 430.781 L 374.418 430.781 L 373.685 436.056 L 352.073 436.056 Z  M 419.839 444.993 L 419.839 444.993 Q 419.839 450.415 416.469 453.968 L 416.469 453.968 L 416.469 453.968 Q 413.099 457.521 407.531 458.913 L 407.531 458.913 L 422.549 481.257 L 414.93 481.257 L 401.084 459.645 L 394.271 459.645 L 394.271 481.257 L 387.971 481.257 L 387.971 430.781 L 400.864 430.781 L 400.864 430.781 Q 410.242 430.781 415.04 434.371 L 415.04 434.371 L 415.04 434.371 Q 419.839 437.96 419.839 444.993 L 419.839 444.993 Z  M 413.099 444.993 L 413.099 444.993 Q 413.099 440.158 410.315 438.034 L 410.315 438.034 L 410.315 438.034 Q 407.531 435.909 401.597 435.909 L 401.597 435.909 L 394.271 435.909 L 394.271 454.664 L 401.67 454.664 L 401.67 454.664 Q 407.311 454.664 410.205 452.356 L 410.205 452.356 L 410.205 452.356 Q 413.099 450.048 413.099 444.993 L 413.099 444.993 Z  M 449.509 436.275 L 449.509 481.257 L 443.136 481.257 L 443.136 436.275 L 427.385 436.275 L 427.385 430.781 L 465.407 430.781 L 464.747 436.275 L 449.509 436.275 Z  M 504.821 430.781 L 504.821 435.909 L 493.612 435.909 L 493.612 476.202 L 504.821 476.202 L 504.821 481.257 L 475.956 481.257 L 475.956 476.202 L 487.165 476.202 L 487.165 435.909 L 475.956 435.909 L 475.956 430.781 L 504.821 430.781 Z  M 551.267 430.781 L 554.125 481.257 L 547.971 481.257 L 546.432 454.883 L 546.432 454.883 Q 545.993 447.924 545.993 436.642 L 545.993 436.642 L 537.495 472.173 L 531.121 472.173 L 522.037 436.642 L 522.037 436.642 Q 522.183 439.279 522.183 443.675 L 522.183 443.675 L 522.183 443.675 Q 522.183 450.415 521.89 454.883 L 521.89 454.883 L 520.571 481.257 L 514.564 481.257 L 517.421 430.781 L 526.286 430.781 L 534.491 465.36 L 542.33 430.781 L 551.267 430.781 Z  M 571.853 436.056 L 571.853 453.052 L 590.608 453.052 L 590.608 458.253 L 571.853 458.253 L 571.853 476.129 L 594.857 476.129 L 594.857 481.257 L 565.553 481.257 L 565.553 430.781 L 594.198 430.781 L 593.465 436.056 L 571.853 436.056 Z  M 629.216 481.257 L 611.414 436.935 L 611.414 436.935 Q 611.414 437.448 611.853 443.308 L 611.853 443.308 L 611.853 443.308 Q 612.293 449.169 612.293 455.982 L 612.293 455.982 L 612.293 481.257 L 606.359 481.257 L 606.359 430.781 L 615.004 430.781 L 633.099 475.323 L 632.952 472.686 L 632.952 472.686 Q 632.22 463.675 632.22 456.056 L 632.22 456.056 L 632.22 430.781 L 638.154 430.781 L 638.154 481.257 L 629.216 481.257 Z  M 669.289 436.275 L 669.289 481.257 L 662.916 481.257 L 662.916 436.275 L 647.165 436.275 L 647.165 430.781 L 685.187 430.781 L 684.527 436.275 L 669.289 436.275 Z  M 728.703 456.056 L 728.703 456.056 Q 728.703 467.85 723.905 474.957 L 723.905 474.957 L 723.905 474.957 Q 719.106 482.063 710.168 482.063 L 710.168 482.063 L 710.168 482.063 Q 701.158 482.063 696.396 475.103 L 696.396 475.103 L 696.396 475.103 Q 691.634 468.143 691.634 456.129 L 691.634 456.129 L 691.634 456.129 Q 691.634 448.437 693.758 442.502 L 693.758 442.502 L 693.758 442.502 Q 695.883 436.568 700.059 433.272 L 700.059 433.272 L 700.059 433.272 Q 704.234 429.975 710.168 429.975 L 710.168 429.975 L 710.168 429.975 Q 719.106 429.975 723.905 437.045 L 723.905 437.045 L 723.905 437.045 Q 728.703 444.114 728.703 456.056 L 728.703 456.056 Z  M 722.11 456.056 L 722.11 456.056 Q 722.11 445.726 719.253 440.524 L 719.253 440.524 L 719.253 440.524 Q 716.396 435.323 710.168 435.323 L 710.168 435.323 L 710.168 435.323 Q 703.941 435.323 701.084 440.561 L 701.084 440.561 L 701.084 440.561 Q 698.227 445.799 698.227 456.129 L 698.227 456.129 L 698.227 456.129 Q 698.227 466.385 701.121 471.55 L 701.121 471.55 L 701.121 471.55 Q 704.015 476.715 710.168 476.715 L 710.168 476.715 L 710.168 476.715 Q 716.396 476.715 719.253 471.55 L 719.253 471.55 L 719.253 471.55 Q 722.11 466.385 722.11 456.056 L 722.11 456.056 Z " fill-rule="evenodd" fill="rgb(255,202,40)" />
    </g>
</svg>