<?xml version="1.0" standalone="no"?>
<!-- Generator: Gravit.io -->
<svg xmlns="http://www.w3.org/2000/svg" xmlns:xlink="http://www.w3.org/1999/xlink" style="isolation:isolate" viewBox="0 0 1024 1024" width="1024" height="1024">
    <defs>
        <clipPath id="_clipPath_KiOxp8WAQL3taeSpnK1KmXTJm5eYrDbt">
            <rect width="1024" height="1024" />
        </clipPath>
    </defs>
    <g clip-path="url(#_clipPath_KiOxp8WAQL3taeSpnK1KmXTJm5eYrDbt)">
        <rect x="87" y="87" width="850" height="850" transform="matrix(1,0,0,1,0,0)" fill="rgb(235,235,235)" />
        <path d="M 146.18 110 L 877.82 110 C 897.788 110 914 126.212 914 146.18 L 914 877.82 C 914 897.788 897.788 914 877.82 914 L 146.18 914 C 126.212 914 110 897.788 110 877.82 L 110 146.18 C 110 126.212 126.212 110 146.18 110 Z" style="stroke:none;fill:#424242;stroke-miterlimit:10;" />
        <path d="M 169.28 155 L 854.72 155 C 862.601 155 869 161.399 869 169.28 L 869 854.72 C 869 862.601 862.601 869 854.72 869 L 169.28 869 C 161.399 869 155 862.601 155 854.72 L 155 169.28 C 155 161.399 161.399 155 169.28 155 Z" style="stroke:none;fill:#212121;stroke-miterlimit:10;" />
        <path d=" M 751.39 576.515 L 728.185 576.515 L 723.51 591.475 L 716.2 591.475 L 735.325 532.91 L 744.675 532.91 L 763.715 591.475 L 756.065 591.475 L 751.39 576.515 Z  M 730.14 570.395 L 749.435 570.395 L 739.83 539.2 L 730.14 570.395 Z  M 810.635 532.91 L 813.95 591.475 L 806.81 591.475 L 805.025 560.875 L 805.025 560.875 Q 804.515 552.8 804.515 539.71 L 804.515 539.71 L 794.655 580.935 L 787.26 580.935 L 776.72 539.71 L 776.72 539.71 Q 776.89 542.77 776.89 547.87 L 776.89 547.87 L 776.89 547.87 Q 776.89 555.69 776.55 560.875 L 776.55 560.875 L 775.02 591.475 L 768.05 591.475 L 771.365 532.91 L 781.65 532.91 L 791.17 573.03 L 800.265 532.91 L 810.635 532.91 Z  M 479.05 592.24 L 472.42 590.285 L 495.2 538.86 L 467.745 538.86 L 467.745 532.91 L 502.425 532.91 L 502.425 538.435 L 479.05 592.24 Z  M 529.115 554.84 L 529.115 554.84 Q 529.115 552.035 531.07 550.038 L 531.07 550.038 L 531.07 550.038 Q 533.025 548.04 535.915 548.04 L 535.915 548.04 L 535.915 548.04 Q 538.89 548.04 540.845 550.038 L 540.845 550.038 L 540.845 550.038 Q 542.8 552.035 542.8 554.84 L 542.8 554.84 L 542.8 554.84 Q 542.8 557.73 540.845 559.77 L 540.845 559.77 L 540.845 559.77 Q 538.89 561.81 535.915 561.81 L 535.915 561.81 L 535.915 561.81 Q 533.025 561.81 531.07 559.77 L 531.07 559.77 L 531.07 559.77 Q 529.115 557.73 529.115 554.84 L 529.115 554.84 Z  M 529.115 585.525 L 529.115 585.525 Q 529.115 582.72 531.07 580.68 L 531.07 580.68 L 531.07 580.68 Q 533.025 578.64 535.915 578.64 L 535.915 578.64 L 535.915 578.64 Q 538.89 578.64 540.845 580.638 L 540.845 580.638 L 540.845 580.638 Q 542.8 582.635 542.8 585.525 L 542.8 585.525 L 542.8 585.525 Q 542.8 588.5 540.845 590.455 L 540.845 590.455 L 540.845 590.455 Q 538.89 592.41 535.915 592.41 L 535.915 592.41 L 535.915 592.41 Q 533.025 592.41 531.07 590.455 L 531.07 590.455 L 531.07 590.455 Q 529.115 588.5 529.115 585.525 L 529.115 585.525 Z  M 584.365 531.975 L 584.365 531.975 Q 589.72 531.975 593.8 533.973 L 593.8 533.973 L 593.8 533.973 Q 597.88 535.97 600.09 539.328 L 600.09 539.328 L 600.09 539.328 Q 602.3 542.685 602.3 546.68 L 602.3 546.68 L 602.3 546.68 Q 602.3 551.78 598.985 555.563 L 598.985 555.563 L 598.985 555.563 Q 595.67 559.345 590.91 560.28 L 590.91 560.28 L 590.91 560.28 Q 596.435 560.705 600.303 564.445 L 600.303 564.445 L 600.303 564.445 Q 604.17 568.185 604.17 574.645 L 604.17 574.645 L 604.17 574.645 Q 604.17 579.66 601.62 583.74 L 601.62 583.74 L 601.62 583.74 Q 599.07 587.82 594.438 590.115 L 594.438 590.115 L 594.438 590.115 Q 589.805 592.41 583.855 592.41 L 583.855 592.41 L 583.855 592.41 Q 578.67 592.41 573.868 590.455 L 573.868 590.455 L 573.868 590.455 Q 569.065 588.5 565.92 584.675 L 565.92 584.675 L 570.68 580.765 L 570.68 580.765 Q 573.06 583.57 576.503 585.058 L 576.503 585.058 L 576.503 585.058 Q 579.945 586.545 583.685 586.545 L 583.685 586.545 L 583.685 586.545 Q 589.805 586.545 593.248 583.358 L 593.248 583.358 L 593.248 583.358 Q 596.69 580.17 596.69 574.645 L 596.69 574.645 L 596.69 574.645 Q 596.69 563.51 584.535 563.51 L 584.535 563.51 L 579.69 563.51 L 580.54 557.815 L 584.025 557.815 L 584.025 557.815 Q 588.615 557.815 591.845 555.223 L 591.845 555.223 L 591.845 555.223 Q 595.075 552.63 595.075 547.615 L 595.075 547.615 L 595.075 547.615 Q 595.075 542.94 591.973 540.348 L 591.973 540.348 L 591.973 540.348 Q 588.87 537.755 584.025 537.755 L 584.025 537.755 L 584.025 537.755 Q 580.37 537.755 577.523 539.03 L 577.523 539.03 L 577.523 539.03 Q 574.675 540.305 571.615 543.11 L 571.615 543.11 L 567.705 538.775 L 567.705 538.775 Q 574.845 531.975 584.365 531.975 L 584.365 531.975 Z  M 640.55 553.395 L 640.55 553.395 Q 645.14 553.395 648.923 555.435 L 648.923 555.435 L 648.923 555.435 Q 652.705 557.475 654.915 561.598 L 654.915 561.598 L 654.915 561.598 Q 657.125 565.72 657.125 571.755 L 657.125 571.755 L 657.125 571.755 Q 657.125 578.045 654.66 582.763 L 654.66 582.763 L 654.66 582.763 Q 652.195 587.48 648.03 589.945 L 648.03 589.945 L 648.03 589.945 Q 643.865 592.41 638.68 592.41 L 638.68 592.41 L 638.68 592.41 Q 628.48 592.41 623.848 585.015 L 623.848 585.015 L 623.848 585.015 Q 619.215 577.62 619.215 563.85 L 619.215 563.85 L 619.215 563.85 Q 619.215 554.16 621.808 546.978 L 621.808 546.978 L 621.808 546.978 Q 624.4 539.795 629.288 535.885 L 629.288 535.885 L 629.288 535.885 Q 634.175 531.975 640.975 531.975 L 640.975 531.975 L 640.975 531.975 Q 647.35 531.975 652.62 535.46 L 652.62 535.46 L 649.815 540.22 L 649.815 540.22 Q 645.65 537.755 640.89 537.755 L 640.89 537.755 L 640.89 537.755 Q 634.26 537.755 630.435 544.088 L 630.435 544.088 L 630.435 544.088 Q 626.61 550.42 626.44 561.215 L 626.44 561.215 L 626.44 561.215 Q 629.16 557.135 632.645 555.265 L 632.645 555.265 L 632.645 555.265 Q 636.13 553.395 640.55 553.395 L 640.55 553.395 Z  M 638.68 586.63 L 638.68 586.63 Q 644.12 586.63 646.968 582.763 L 646.968 582.763 L 646.968 582.763 Q 649.815 578.895 649.815 572.01 L 649.815 572.01 L 649.815 572.01 Q 649.815 559.175 639.445 559.175 L 639.445 559.175 L 639.445 559.175 Q 635.365 559.175 632.093 561.385 L 632.093 561.385 L 632.093 561.385 Q 628.82 563.595 626.525 567.42 L 626.525 567.42 L 626.525 567.42 Q 626.695 577.45 629.585 582.04 L 629.585 582.04 L 629.585 582.04 Q 632.475 586.63 638.68 586.63 L 638.68 586.63 Z  M 249.635 532.91 L 252.95 591.475 L 245.81 591.475 L 244.025 560.875 L 244.025 560.875 Q 243.515 552.8 243.515 539.71 L 243.515 539.71 L 233.655 580.935 L 226.26 580.935 L 215.72 539.71 L 215.72 539.71 Q 215.89 542.77 215.89 547.87 L 215.89 547.87 L 215.89 547.87 Q 215.89 555.69 215.55 560.875 L 215.55 560.875 L 214.02 591.475 L 207.05 591.475 L 210.365 532.91 L 220.65 532.91 L 230.17 573.03 L 239.265 532.91 L 249.635 532.91 Z  M 292.39 576.515 L 269.185 576.515 L 264.51 591.475 L 257.2 591.475 L 276.325 532.91 L 285.675 532.91 L 304.715 591.475 L 297.065 591.475 L 292.39 576.515 Z  M 271.14 570.395 L 290.435 570.395 L 280.83 539.2 L 271.14 570.395 Z  M 348.745 532.91 L 348.745 538.86 L 335.74 538.86 L 335.74 585.61 L 348.745 585.61 L 348.745 591.475 L 315.255 591.475 L 315.255 585.61 L 328.26 585.61 L 328.26 538.86 L 315.255 538.86 L 315.255 532.91 L 348.745 532.91 Z  M 404.505 562.235 L 404.505 562.235 Q 404.505 575.92 398.938 584.165 L 398.938 584.165 L 398.938 584.165 Q 393.37 592.41 383 592.41 L 383 592.41 L 383 592.41 Q 372.545 592.41 367.02 584.335 L 367.02 584.335 L 367.02 584.335 Q 361.495 576.26 361.495 562.32 L 361.495 562.32 L 361.495 562.32 Q 361.495 553.395 363.96 546.51 L 363.96 546.51 L 363.96 546.51 Q 366.425 539.625 371.27 535.8 L 371.27 535.8 L 371.27 535.8 Q 376.115 531.975 383 531.975 L 383 531.975 L 383 531.975 Q 393.37 531.975 398.938 540.178 L 398.938 540.178 L 398.938 540.178 Q 404.505 548.38 404.505 562.235 L 404.505 562.235 Z  M 396.855 562.235 L 396.855 562.235 Q 396.855 550.25 393.54 544.215 L 393.54 544.215 L 393.54 544.215 Q 390.225 538.18 383 538.18 L 383 538.18 L 383 538.18 Q 375.775 538.18 372.46 544.258 L 372.46 544.258 L 372.46 544.258 Q 369.145 550.335 369.145 562.32 L 369.145 562.32 L 369.145 562.32 Q 369.145 574.22 372.503 580.213 L 372.503 580.213 L 372.503 580.213 Q 375.86 586.205 383 586.205 L 383 586.205 L 383 586.205 Q 390.225 586.205 393.54 580.213 L 393.54 580.213 L 393.54 580.213 Q 396.855 574.22 396.855 562.235 L 396.855 562.235 Z  M 241.39 474.515 L 218.185 474.515 L 213.51 489.475 L 206.2 489.475 L 225.325 430.91 L 234.675 430.91 L 253.715 489.475 L 246.065 489.475 L 241.39 474.515 Z  M 220.14 468.395 L 239.435 468.395 L 229.83 437.2 L 220.14 468.395 Z  M 284.57 437.285 L 284.57 489.475 L 277.175 489.475 L 277.175 437.285 L 258.9 437.285 L 258.9 430.91 L 303.015 430.91 L 302.25 437.285 L 284.57 437.285 Z  M 324.52 437.03 L 324.52 456.75 L 346.28 456.75 L 346.28 462.785 L 324.52 462.785 L 324.52 483.525 L 351.21 483.525 L 351.21 489.475 L 317.21 489.475 L 317.21 430.91 L 350.445 430.91 L 349.595 437.03 L 324.52 437.03 Z  M 391.075 489.475 L 370.42 438.05 L 370.42 438.05 Q 370.42 438.645 370.93 445.445 L 370.93 445.445 L 370.93 445.445 Q 371.44 452.245 371.44 460.15 L 371.44 460.15 L 371.44 489.475 L 364.555 489.475 L 364.555 430.91 L 374.585 430.91 L 395.58 482.59 L 395.41 479.53 L 395.41 479.53 Q 394.56 469.075 394.56 460.235 L 394.56 460.235 L 394.56 430.91 L 401.445 430.91 L 401.445 489.475 L 391.075 489.475 Z  M 439.95 494.32 L 439.95 494.32 Q 443.86 494.66 445.858 496.658 L 445.858 496.658 L 445.858 496.658 Q 447.855 498.655 447.855 501.375 L 447.855 501.375 L 447.855 501.375 Q 447.855 505.37 444.838 507.538 L 444.838 507.538 L 444.838 507.538 Q 441.82 509.705 437.485 509.705 L 437.485 509.705 L 437.485 509.705 Q 434.935 509.705 432.598 509.153 L 432.598 509.153 L 432.598 509.153 Q 430.26 508.6 428.56 507.665 L 428.56 507.665 L 430.855 503.585 L 430.855 503.585 Q 433.405 504.945 436.55 504.945 L 436.55 504.945 L 436.55 504.945 Q 441.65 504.945 441.65 501.46 L 441.65 501.46 L 441.65 501.46 Q 441.65 499.25 439.865 498.485 L 439.865 498.485 L 439.865 498.485 Q 438.08 497.72 434.34 497.72 L 434.34 497.72 L 434.85 490.07 L 434.85 490.07 Q 428.73 489.05 423.97 485.31 L 423.97 485.31 L 423.97 485.31 Q 419.21 481.57 416.533 475.153 L 416.533 475.153 L 416.533 475.153 Q 413.855 468.735 413.855 460.15 L 413.855 460.15 L 413.855 460.15 Q 413.855 450.63 417.213 443.788 L 417.213 443.788 L 417.213 443.788 Q 420.57 436.945 426.308 433.46 L 426.308 433.46 L 426.308 433.46 Q 432.045 429.975 438.93 429.975 L 438.93 429.975 L 438.93 429.975 Q 444.37 429.975 448.28 431.378 L 448.28 431.378 L 448.28 431.378 Q 452.19 432.78 455.93 435.67 L 455.93 435.67 L 451.765 440.515 L 451.765 440.515 Q 446.58 436.18 439.44 436.18 L 439.44 436.18 L 439.44 436.18 Q 431.535 436.18 426.563 441.918 L 426.563 441.918 L 426.563 441.918 Q 421.59 447.655 421.59 460.15 L 421.59 460.15 L 421.59 460.15 Q 421.59 472.56 426.435 478.34 L 426.435 478.34 L 426.435 478.34 Q 431.28 484.12 439.355 484.12 L 439.355 484.12 L 439.355 484.12 Q 443.775 484.12 446.92 482.845 L 446.92 482.845 L 446.92 482.845 Q 450.065 481.57 452.955 479.275 L 452.955 479.275 L 456.78 484.035 L 456.78 484.035 Q 450.49 490.155 439.95 490.41 L 439.95 490.41 L 439.95 494.32 Z  M 496.39 474.515 L 473.185 474.515 L 468.51 489.475 L 461.2 489.475 L 480.325 430.91 L 489.675 430.91 L 508.715 489.475 L 501.065 489.475 L 496.39 474.515 Z  M 475.14 468.395 L 494.435 468.395 L 484.83 437.2 L 475.14 468.395 Z  M 489.93 423.345 L 489.93 423.345 Q 488.315 423.345 486.998 422.75 L 486.998 422.75 L 486.998 422.75 Q 485.68 422.155 484.065 421.05 L 484.065 421.05 L 484.065 421.05 Q 482.79 420.115 481.898 419.69 L 481.898 419.69 L 481.898 419.69 Q 481.005 419.265 480.07 419.265 L 480.07 419.265 L 480.07 419.265 Q 478.71 419.265 477.69 420.2 L 477.69 420.2 L 477.69 420.2 Q 476.67 421.135 475.565 423.175 L 475.565 423.175 L 471.06 420.965 L 471.06 420.965 Q 472.675 417.65 474.928 415.695 L 474.928 415.695 L 474.928 415.695 Q 477.18 413.74 480.07 413.74 L 480.07 413.74 L 480.07 413.74 Q 481.855 413.74 483.13 414.378 L 483.13 414.378 L 483.13 414.378 Q 484.405 415.015 486.02 416.12 L 486.02 416.12 L 486.02 416.12 Q 487.465 417.14 488.23 417.523 L 488.23 417.523 L 488.23 417.523 Q 488.995 417.905 489.93 417.905 L 489.93 417.905 L 489.93 417.905 Q 491.205 417.905 492.225 417.013 L 492.225 417.013 L 492.225 417.013 Q 493.245 416.12 494.435 414.08 L 494.435 414.08 L 499.025 416.375 L 499.025 416.375 Q 497.41 419.86 495.073 421.603 L 495.073 421.603 L 495.073 421.603 Q 492.735 423.345 489.93 423.345 L 489.93 423.345 Z  M 557.505 460.235 L 557.505 460.235 Q 557.505 473.92 551.938 482.165 L 551.938 482.165 L 551.938 482.165 Q 546.37 490.41 536 490.41 L 536 490.41 L 536 490.41 Q 525.545 490.41 520.02 482.335 L 520.02 482.335 L 520.02 482.335 Q 514.495 474.26 514.495 460.32 L 514.495 460.32 L 514.495 460.32 Q 514.495 451.395 516.96 444.51 L 516.96 444.51 L 516.96 444.51 Q 519.425 437.625 524.27 433.8 L 524.27 433.8 L 524.27 433.8 Q 529.115 429.975 536 429.975 L 536 429.975 L 536 429.975 Q 546.37 429.975 551.938 438.178 L 551.938 438.178 L 551.938 438.178 Q 557.505 446.38 557.505 460.235 L 557.505 460.235 Z  M 549.855 460.235 L 549.855 460.235 Q 549.855 448.25 546.54 442.215 L 546.54 442.215 L 546.54 442.215 Q 543.225 436.18 536 436.18 L 536 436.18 L 536 436.18 Q 528.775 436.18 525.46 442.258 L 525.46 442.258 L 525.46 442.258 Q 522.145 448.335 522.145 460.32 L 522.145 460.32 L 522.145 460.32 Q 522.145 472.22 525.503 478.213 L 525.503 478.213 L 525.503 478.213 Q 528.86 484.205 536 484.205 L 536 484.205 L 536 484.205 Q 543.225 484.205 546.54 478.213 L 546.54 478.213 L 546.54 478.213 Q 549.855 472.22 549.855 460.235 L 549.855 460.235 Z " fill-rule="evenodd" fill="rgb(255,202,40)" />
    </g>
</svg>