<?xml version="1.0" standalone="no"?>
<!-- Generator: Gravit.io -->
<svg xmlns="http://www.w3.org/2000/svg" xmlns:xlink="http://www.w3.org/1999/xlink" style="isolation:isolate" viewBox="0 0 1024 1024" width="1024" height="1024">
    <defs>
        <clipPath id="_clipPath_ltUkempZCSHxJ4zZk4KCoFlBi1Yiyyoy">
            <rect width="1024" height="1024" />
        </clipPath>
    </defs>
    <g clip-path="url(#_clipPath_ltUkempZCSHxJ4zZk4KCoFlBi1Yiyyoy)">
        <rect x="87" y="87" width="850" height="850" transform="matrix(1,0,0,1,0,0)" fill="rgb(235,235,235)" />
        <path d="M 146.18 110 L 877.82 110 C 897.788 110 914 126.212 914 146.18 L 914 877.82 C 914 897.788 897.788 914 877.82 914 L 146.18 914 C 126.212 914 110 897.788 110 877.82 L 110 146.18 C 110 126.212 126.212 110 146.18 110 Z" style="stroke:none;fill:#424242;stroke-miterlimit:10;" />
        <path d="M 169.28 155 L 854.72 155 C 862.601 155 869 161.399 869 169.28 L 869 854.72 C 869 862.601 862.601 869 854.72 869 L 169.28 869 C 161.399 869 155 862.601 155 854.72 L 155 169.28 C 155 161.399 161.399 155 169.28 155 Z" style="stroke:none;fill:#212121;stroke-miterlimit:10;" />
        <path d=" M 778.39 576.515 L 755.185 576.515 L 750.51 591.475 L 743.2 591.475 L 762.325 532.91 L 771.675 532.91 L 790.715 591.475 L 783.065 591.475 L 778.39 576.515 Z  M 757.14 570.395 L 776.435 570.395 L 766.83 539.2 L 757.14 570.395 Z  M 837.635 532.91 L 840.95 591.475 L 833.81 591.475 L 832.025 560.875 L 832.025 560.875 Q 831.515 552.8 831.515 539.71 L 831.515 539.71 L 821.655 580.935 L 814.26 580.935 L 803.72 539.71 L 803.72 539.71 Q 803.89 542.77 803.89 547.87 L 803.89 547.87 L 803.89 547.87 Q 803.89 555.69 803.55 560.875 L 803.55 560.875 L 802.02 591.475 L 795.05 591.475 L 798.365 532.91 L 808.65 532.91 L 818.17 573.03 L 827.265 532.91 L 837.635 532.91 Z  M 506.05 592.24 L 499.42 590.285 L 522.2 538.86 L 494.745 538.86 L 494.745 532.91 L 529.425 532.91 L 529.425 538.435 L 506.05 592.24 Z  M 556.115 554.84 L 556.115 554.84 Q 556.115 552.035 558.07 550.038 L 558.07 550.038 L 558.07 550.038 Q 560.025 548.04 562.915 548.04 L 562.915 548.04 L 562.915 548.04 Q 565.89 548.04 567.845 550.038 L 567.845 550.038 L 567.845 550.038 Q 569.8 552.035 569.8 554.84 L 569.8 554.84 L 569.8 554.84 Q 569.8 557.73 567.845 559.77 L 567.845 559.77 L 567.845 559.77 Q 565.89 561.81 562.915 561.81 L 562.915 561.81 L 562.915 561.81 Q 560.025 561.81 558.07 559.77 L 558.07 559.77 L 558.07 559.77 Q 556.115 557.73 556.115 554.84 L 556.115 554.84 Z  M 556.115 585.525 L 556.115 585.525 Q 556.115 582.72 558.07 580.68 L 558.07 580.68 L 558.07 580.68 Q 560.025 578.64 562.915 578.64 L 562.915 578.64 L 562.915 578.64 Q 565.89 578.64 567.845 580.638 L 567.845 580.638 L 567.845 580.638 Q 569.8 582.635 569.8 585.525 L 569.8 585.525 L 569.8 585.525 Q 569.8 588.5 567.845 590.455 L 567.845 590.455 L 567.845 590.455 Q 565.89 592.41 562.915 592.41 L 562.915 592.41 L 562.915 592.41 Q 560.025 592.41 558.07 590.455 L 558.07 590.455 L 558.07 590.455 Q 556.115 588.5 556.115 585.525 L 556.115 585.525 Z  M 611.365 531.975 L 611.365 531.975 Q 616.72 531.975 620.8 533.973 L 620.8 533.973 L 620.8 533.973 Q 624.88 535.97 627.09 539.328 L 627.09 539.328 L 627.09 539.328 Q 629.3 542.685 629.3 546.68 L 629.3 546.68 L 629.3 546.68 Q 629.3 551.78 625.985 555.563 L 625.985 555.563 L 625.985 555.563 Q 622.67 559.345 617.91 560.28 L 617.91 560.28 L 617.91 560.28 Q 623.435 560.705 627.303 564.445 L 627.303 564.445 L 627.303 564.445 Q 631.17 568.185 631.17 574.645 L 631.17 574.645 L 631.17 574.645 Q 631.17 579.66 628.62 583.74 L 628.62 583.74 L 628.62 583.74 Q 626.07 587.82 621.438 590.115 L 621.438 590.115 L 621.438 590.115 Q 616.805 592.41 610.855 592.41 L 610.855 592.41 L 610.855 592.41 Q 605.67 592.41 600.868 590.455 L 600.868 590.455 L 600.868 590.455 Q 596.065 588.5 592.92 584.675 L 592.92 584.675 L 597.68 580.765 L 597.68 580.765 Q 600.06 583.57 603.503 585.058 L 603.503 585.058 L 603.503 585.058 Q 606.945 586.545 610.685 586.545 L 610.685 586.545 L 610.685 586.545 Q 616.805 586.545 620.248 583.358 L 620.248 583.358 L 620.248 583.358 Q 623.69 580.17 623.69 574.645 L 623.69 574.645 L 623.69 574.645 Q 623.69 563.51 611.535 563.51 L 611.535 563.51 L 606.69 563.51 L 607.54 557.815 L 611.025 557.815 L 611.025 557.815 Q 615.615 557.815 618.845 555.223 L 618.845 555.223 L 618.845 555.223 Q 622.075 552.63 622.075 547.615 L 622.075 547.615 L 622.075 547.615 Q 622.075 542.94 618.973 540.348 L 618.973 540.348 L 618.973 540.348 Q 615.87 537.755 611.025 537.755 L 611.025 537.755 L 611.025 537.755 Q 607.37 537.755 604.523 539.03 L 604.523 539.03 L 604.523 539.03 Q 601.675 540.305 598.615 543.11 L 598.615 543.11 L 594.705 538.775 L 594.705 538.775 Q 601.845 531.975 611.365 531.975 L 611.365 531.975 Z  M 667.55 553.395 L 667.55 553.395 Q 672.14 553.395 675.923 555.435 L 675.923 555.435 L 675.923 555.435 Q 679.705 557.475 681.915 561.598 L 681.915 561.598 L 681.915 561.598 Q 684.125 565.72 684.125 571.755 L 684.125 571.755 L 684.125 571.755 Q 684.125 578.045 681.66 582.763 L 681.66 582.763 L 681.66 582.763 Q 679.195 587.48 675.03 589.945 L 675.03 589.945 L 675.03 589.945 Q 670.865 592.41 665.68 592.41 L 665.68 592.41 L 665.68 592.41 Q 655.48 592.41 650.848 585.015 L 650.848 585.015 L 650.848 585.015 Q 646.215 577.62 646.215 563.85 L 646.215 563.85 L 646.215 563.85 Q 646.215 554.16 648.808 546.978 L 648.808 546.978 L 648.808 546.978 Q 651.4 539.795 656.288 535.885 L 656.288 535.885 L 656.288 535.885 Q 661.175 531.975 667.975 531.975 L 667.975 531.975 L 667.975 531.975 Q 674.35 531.975 679.62 535.46 L 679.62 535.46 L 676.815 540.22 L 676.815 540.22 Q 672.65 537.755 667.89 537.755 L 667.89 537.755 L 667.89 537.755 Q 661.26 537.755 657.435 544.088 L 657.435 544.088 L 657.435 544.088 Q 653.61 550.42 653.44 561.215 L 653.44 561.215 L 653.44 561.215 Q 656.16 557.135 659.645 555.265 L 659.645 555.265 L 659.645 555.265 Q 663.13 553.395 667.55 553.395 L 667.55 553.395 Z  M 665.68 586.63 L 665.68 586.63 Q 671.12 586.63 673.968 582.763 L 673.968 582.763 L 673.968 582.763 Q 676.815 578.895 676.815 572.01 L 676.815 572.01 L 676.815 572.01 Q 676.815 559.175 666.445 559.175 L 666.445 559.175 L 666.445 559.175 Q 662.365 559.175 659.093 561.385 L 659.093 561.385 L 659.093 561.385 Q 655.82 563.595 653.525 567.42 L 653.525 567.42 L 653.525 567.42 Q 653.695 577.45 656.585 582.04 L 656.585 582.04 L 656.585 582.04 Q 659.475 586.63 665.68 586.63 L 665.68 586.63 Z  M 225.635 532.91 L 228.95 591.475 L 221.81 591.475 L 220.025 560.875 L 220.025 560.875 Q 219.515 552.8 219.515 539.71 L 219.515 539.71 L 209.655 580.935 L 202.26 580.935 L 191.72 539.71 L 191.72 539.71 Q 191.89 542.77 191.89 547.87 L 191.89 547.87 L 191.89 547.87 Q 191.89 555.69 191.55 560.875 L 191.55 560.875 L 190.02 591.475 L 183.05 591.475 L 186.365 532.91 L 196.65 532.91 L 206.17 573.03 L 215.265 532.91 L 225.635 532.91 Z  M 268.39 576.515 L 245.185 576.515 L 240.51 591.475 L 233.2 591.475 L 252.325 532.91 L 261.675 532.91 L 280.715 591.475 L 273.065 591.475 L 268.39 576.515 Z  M 247.14 570.395 L 266.435 570.395 L 256.83 539.2 L 247.14 570.395 Z  M 324.745 532.91 L 324.745 538.86 L 311.74 538.86 L 311.74 585.61 L 324.745 585.61 L 324.745 591.475 L 291.255 591.475 L 291.255 585.61 L 304.26 585.61 L 304.26 538.86 L 291.255 538.86 L 291.255 532.91 L 324.745 532.91 Z  M 380.505 562.235 L 380.505 562.235 Q 380.505 575.92 374.937 584.165 L 374.937 584.165 L 374.937 584.165 Q 369.37 592.41 359 592.41 L 359 592.41 L 359 592.41 Q 348.545 592.41 343.02 584.335 L 343.02 584.335 L 343.02 584.335 Q 337.495 576.26 337.495 562.32 L 337.495 562.32 L 337.495 562.32 Q 337.495 553.395 339.96 546.51 L 339.96 546.51 L 339.96 546.51 Q 342.425 539.625 347.27 535.8 L 347.27 535.8 L 347.27 535.8 Q 352.115 531.975 359 531.975 L 359 531.975 L 359 531.975 Q 369.37 531.975 374.937 540.178 L 374.937 540.178 L 374.937 540.178 Q 380.505 548.38 380.505 562.235 L 380.505 562.235 Z  M 372.855 562.235 L 372.855 562.235 Q 372.855 550.25 369.54 544.215 L 369.54 544.215 L 369.54 544.215 Q 366.225 538.18 359 538.18 L 359 538.18 L 359 538.18 Q 351.775 538.18 348.46 544.258 L 348.46 544.258 L 348.46 544.258 Q 345.145 550.335 345.145 562.32 L 345.145 562.32 L 345.145 562.32 Q 345.145 574.22 348.503 580.213 L 348.503 580.213 L 348.503 580.213 Q 351.86 586.205 359 586.205 L 359 586.205 L 359 586.205 Q 366.225 586.205 369.54 580.213 L 369.54 580.213 L 369.54 580.213 Q 372.855 574.22 372.855 562.235 L 372.855 562.235 Z  M 333.245 531.55 L 341.66 532.91 L 335.625 549.57 L 330.1 548.72 L 333.245 531.55 Z  M 418.84 564.7 L 399.375 585.27 L 429.295 585.27 L 429.295 591.475 L 390.705 591.475 L 390.705 585.27 L 412.38 562.235 L 390.705 539.285 L 390.705 532.91 L 429.295 532.91 L 429.295 539.2 L 399.205 539.2 L 418.84 559.43 L 418.84 564.7 Z  M 217.05 489.475 L 217.05 437.37 L 194.95 437.37 L 194.95 489.475 L 187.555 489.475 L 187.555 430.91 L 224.445 430.91 L 224.445 489.475 L 217.05 489.475 Z  M 278.845 448.93 L 278.845 448.93 Q 278.845 458.705 272.81 463.21 L 272.81 463.21 L 272.81 463.21 Q 266.775 467.715 256.235 467.715 L 256.235 467.715 L 248.67 467.715 L 248.67 489.475 L 241.36 489.475 L 241.36 430.91 L 256.235 430.91 L 256.235 430.91 Q 267.03 430.91 272.937 435.415 L 272.937 435.415 L 272.937 435.415 Q 278.845 439.92 278.845 448.93 L 278.845 448.93 Z  M 270.94 449.015 L 270.94 449.015 Q 270.94 442.64 267.242 439.708 L 267.242 439.708 L 267.242 439.708 Q 263.545 436.775 257.17 436.775 L 257.17 436.775 L 248.67 436.775 L 248.67 461.85 L 256.915 461.85 L 256.915 461.85 Q 263.545 461.85 267.242 458.96 L 267.242 458.96 L 267.242 458.96 Q 270.94 456.07 270.94 449.015 L 270.94 449.015 Z  M 329.505 460.235 L 329.505 460.235 Q 329.505 473.92 323.937 482.165 L 323.937 482.165 L 323.937 482.165 Q 318.37 490.41 308 490.41 L 308 490.41 L 308 490.41 Q 297.545 490.41 292.02 482.335 L 292.02 482.335 L 292.02 482.335 Q 286.495 474.26 286.495 460.32 L 286.495 460.32 L 286.495 460.32 Q 286.495 451.395 288.96 444.51 L 288.96 444.51 L 288.96 444.51 Q 291.425 437.625 296.27 433.8 L 296.27 433.8 L 296.27 433.8 Q 301.115 429.975 308 429.975 L 308 429.975 L 308 429.975 Q 318.37 429.975 323.937 438.178 L 323.937 438.178 L 323.937 438.178 Q 329.505 446.38 329.505 460.235 L 329.505 460.235 Z  M 321.855 460.235 L 321.855 460.235 Q 321.855 448.25 318.54 442.215 L 318.54 442.215 L 318.54 442.215 Q 315.225 436.18 308 436.18 L 308 436.18 L 308 436.18 Q 300.775 436.18 297.46 442.258 L 297.46 442.258 L 297.46 442.258 Q 294.145 448.335 294.145 460.32 L 294.145 460.32 L 294.145 460.32 Q 294.145 472.22 297.502 478.213 L 297.502 478.213 L 297.502 478.213 Q 300.86 484.205 308 484.205 L 308 484.205 L 308 484.205 Q 315.225 484.205 318.54 478.213 L 318.54 478.213 L 318.54 478.213 Q 321.855 472.22 321.855 460.235 L 321.855 460.235 Z  M 351.52 437.03 L 351.52 456.75 L 373.28 456.75 L 373.28 462.785 L 351.52 462.785 L 351.52 483.525 L 378.21 483.525 L 378.21 489.475 L 344.21 489.475 L 344.21 430.91 L 377.445 430.91 L 376.595 437.03 L 351.52 437.03 Z  M 426.745 430.91 L 426.745 436.86 L 413.74 436.86 L 413.74 483.61 L 426.745 483.61 L 426.745 489.475 L 393.255 489.475 L 393.255 483.61 L 406.26 483.61 L 406.26 436.86 L 393.255 436.86 L 393.255 430.91 L 426.745 430.91 Z  M 465.675 430.91 L 484.715 489.475 L 437.2 489.475 L 456.325 430.91 L 465.675 430.91 Z  M 460.83 437.37 L 446.465 483.44 L 475.11 483.44 L 460.83 437.37 Z  M 533.505 460.235 L 533.505 460.235 Q 533.505 473.92 527.938 482.165 L 527.938 482.165 L 527.938 482.165 Q 522.37 490.41 512 490.41 L 512 490.41 L 512 490.41 Q 501.545 490.41 496.02 482.335 L 496.02 482.335 L 496.02 482.335 Q 490.495 474.26 490.495 460.32 L 490.495 460.32 L 490.495 460.32 Q 490.495 451.395 492.96 444.51 L 492.96 444.51 L 492.96 444.51 Q 495.425 437.625 500.27 433.8 L 500.27 433.8 L 500.27 433.8 Q 505.115 429.975 512 429.975 L 512 429.975 L 512 429.975 Q 522.37 429.975 527.938 438.178 L 527.938 438.178 L 527.938 438.178 Q 533.505 446.38 533.505 460.235 L 533.505 460.235 Z  M 525.855 460.235 L 525.855 460.235 Q 525.855 448.25 522.54 442.215 L 522.54 442.215 L 522.54 442.215 Q 519.225 436.18 512 436.18 L 512 436.18 L 512 436.18 Q 504.775 436.18 501.46 442.258 L 501.46 442.258 L 501.46 442.258 Q 498.145 448.335 498.145 460.32 L 498.145 460.32 L 498.145 460.32 Q 498.145 472.22 501.503 478.213 L 501.503 478.213 L 501.503 478.213 Q 504.86 484.205 512 484.205 L 512 484.205 L 512 484.205 Q 519.225 484.205 522.54 478.213 L 522.54 478.213 L 522.54 478.213 Q 525.855 472.22 525.855 460.235 L 525.855 460.235 Z  M 574.05 489.475 L 574.05 437.37 L 551.95 437.37 L 551.95 489.475 L 544.555 489.475 L 544.555 430.91 L 581.445 430.91 L 581.445 489.475 L 574.05 489.475 Z  M 635.505 460.235 L 635.505 460.235 Q 635.505 473.92 629.938 482.165 L 629.938 482.165 L 629.938 482.165 Q 624.37 490.41 614 490.41 L 614 490.41 L 614 490.41 Q 603.545 490.41 598.02 482.335 L 598.02 482.335 L 598.02 482.335 Q 592.495 474.26 592.495 460.32 L 592.495 460.32 L 592.495 460.32 Q 592.495 451.395 594.96 444.51 L 594.96 444.51 L 594.96 444.51 Q 597.425 437.625 602.27 433.8 L 602.27 433.8 L 602.27 433.8 Q 607.115 429.975 614 429.975 L 614 429.975 L 614 429.975 Q 624.37 429.975 629.938 438.178 L 629.938 438.178 L 629.938 438.178 Q 635.505 446.38 635.505 460.235 L 635.505 460.235 Z  M 627.855 460.235 L 627.855 460.235 Q 627.855 448.25 624.54 442.215 L 624.54 442.215 L 624.54 442.215 Q 621.225 436.18 614 436.18 L 614 436.18 L 614 436.18 Q 606.775 436.18 603.46 442.258 L 603.46 442.258 L 603.46 442.258 Q 600.145 448.335 600.145 460.32 L 600.145 460.32 L 600.145 460.32 Q 600.145 472.22 603.503 478.213 L 603.503 478.213 L 603.503 478.213 Q 606.86 484.205 614 484.205 L 614 484.205 L 614 484.205 Q 621.225 484.205 624.54 478.213 L 624.54 478.213 L 624.54 478.213 Q 627.855 472.22 627.855 460.235 L 627.855 460.235 Z  M 681.745 430.91 L 681.745 436.86 L 668.74 436.86 L 668.74 483.61 L 681.745 483.61 L 681.745 489.475 L 648.255 489.475 L 648.255 483.61 L 661.26 483.61 L 661.26 436.86 L 648.255 436.86 L 648.255 430.91 L 681.745 430.91 Z  M 638.225 429.55 L 646.64 430.91 L 640.605 447.57 L 635.08 446.72 L 638.225 429.55 Z  M 727.05 489.475 L 727.05 461.68 L 704.95 461.68 L 704.95 489.475 L 697.555 489.475 L 697.555 430.91 L 704.95 430.91 L 704.95 455.645 L 727.05 455.645 L 727.05 430.91 L 734.445 430.91 L 734.445 489.475 L 727.05 489.475 Z  M 775.84 462.7 L 756.375 483.27 L 786.295 483.27 L 786.295 489.475 L 747.705 489.475 L 747.705 483.27 L 769.38 460.235 L 747.705 437.285 L 747.705 430.91 L 786.295 430.91 L 786.295 437.2 L 756.205 437.2 L 775.84 457.43 L 775.84 462.7 Z  M 829.05 489.475 L 829.05 461.68 L 806.95 461.68 L 806.95 489.475 L 799.555 489.475 L 799.555 430.91 L 806.95 430.91 L 806.95 455.645 L 829.05 455.645 L 829.05 430.91 L 836.445 430.91 L 836.445 489.475 L 829.05 489.475 Z " fill-rule="evenodd" fill="rgb(255,202,40)" />
    </g>
</svg>