<?xml version="1.0" standalone="no"?>
<!-- Generator: Gravit.io -->
<svg xmlns="http://www.w3.org/2000/svg" xmlns:xlink="http://www.w3.org/1999/xlink" style="isolation:isolate" viewBox="0 0 1024 1024" width="1024" height="1024">
    <defs>
        <clipPath id="_clipPath_l8sadbqvYJpg0aCw7KrlDJIHkXc0MHjm">
            <rect width="1024" height="1024" />
        </clipPath>
    </defs>
    <g clip-path="url(#_clipPath_l8sadbqvYJpg0aCw7KrlDJIHkXc0MHjm)">
        <rect x="87" y="87" width="850" height="850" transform="matrix(1,0,0,1,0,0)" fill="rgb(235,235,235)" />
        <path d="M 146.18 110 L 877.82 110 C 897.788 110 914 126.212 914 146.18 L 914 877.82 C 914 897.788 897.788 914 877.82 914 L 146.18 914 C 126.212 914 110 897.788 110 877.82 L 110 146.18 C 110 126.212 126.212 110 146.18 110 Z" style="stroke:none;fill:#424242;stroke-miterlimit:10;" />
        <path d="M 169.28 155 L 854.72 155 C 862.601 155 869 161.399 869 169.28 L 869 854.72 C 869 862.601 862.601 869 854.72 869 L 169.28 869 C 161.399 869 155 862.601 155 854.72 L 155 169.28 C 155 161.399 161.399 155 169.28 155 Z" style="stroke:none;fill:#212121;stroke-miterlimit:10;" />
        <path d=" M 775.324 568.03 L 766.484 536.321 L 757.644 568.03 L 775.324 568.03 Z  M 742.453 590.899 L 761.42 528.934 L 771.589 528.934 L 790.556 590.899 L 781.882 590.899 L 777.316 574.754 L 755.61 574.754 L 751.127 590.899 L 742.453 590.899 Z  M 795.661 590.899 L 795.661 528.934 L 806.867 528.934 L 817.575 560.477 L 828.366 528.934 L 839.614 528.934 L 839.614 590.899 L 831.853 590.899 L 831.853 536.155 L 820.813 568.819 L 814.462 568.819 L 803.381 536.155 L 803.381 590.899 L 795.661 590.899 Z  M 490.815 535.989 L 490.815 528.934 L 529.829 528.934 L 529.829 532.503 L 507.666 590.899 L 498.908 590.899 L 520.49 535.989 L 490.815 535.989 Z  M 556.516 559.356 L 556.516 546.78 L 566.975 546.78 L 566.975 559.356 L 556.516 559.356 Z  M 556.516 590.899 L 556.516 578.24 L 566.975 578.24 L 566.975 590.899 L 556.516 590.899 Z  M 619.602 557.737 L 619.602 557.737 L 619.602 557.737 Q 625.786 559.356 628.981 563.444 L 628.981 563.444 L 628.981 563.444 Q 632.177 567.532 632.177 573.799 L 632.177 573.799 L 632.177 573.799 Q 632.177 578.033 630.704 581.436 L 630.704 581.436 L 630.704 581.436 Q 629.23 584.839 626.429 587.205 L 626.429 587.205 L 626.429 587.205 Q 623.627 589.571 619.622 590.837 L 619.622 590.837 L 619.622 590.837 Q 615.617 592.103 610.512 592.103 L 610.512 592.103 L 610.512 592.103 Q 606.237 592.103 601.796 591.314 L 601.796 591.314 L 601.796 591.314 Q 597.355 590.525 593.081 589.031 L 593.081 589.031 L 593.081 580.689 L 593.081 580.689 Q 597.355 582.93 601.402 583.989 L 601.402 583.989 L 601.402 583.989 Q 605.449 585.047 609.599 585.047 L 609.599 585.047 L 609.599 585.047 Q 616.572 585.047 620.224 581.976 L 620.224 581.976 L 620.224 581.976 Q 623.876 578.904 623.876 572.969 L 623.876 572.969 L 623.876 572.969 Q 623.876 570.271 622.901 568.093 L 622.901 568.093 L 622.901 568.093 Q 621.926 565.914 620.141 564.399 L 620.141 564.399 L 620.141 564.399 Q 618.356 562.884 615.825 562.054 L 615.825 562.054 L 615.825 562.054 Q 613.293 561.224 610.18 561.224 L 610.18 561.224 L 603.789 561.224 L 603.789 554.334 L 610.18 554.334 L 610.18 554.334 Q 615.949 554.334 619.187 551.802 L 619.187 551.802 L 619.187 551.802 Q 622.424 549.271 622.424 544.747 L 622.424 544.747 L 622.424 544.747 Q 622.424 539.974 619.456 537.421 L 619.456 537.421 L 619.456 537.421 Q 616.489 534.869 610.844 534.869 L 610.844 534.869 L 610.844 534.869 Q 607.067 534.869 603.208 535.699 L 603.208 535.699 L 603.208 535.699 Q 599.348 536.529 594.948 538.189 L 594.948 538.189 L 594.948 530.469 L 594.948 530.469 Q 604.826 527.813 610.844 527.813 L 610.844 527.813 L 610.844 527.813 Q 615.327 527.813 618.979 529.017 L 618.979 529.017 L 618.979 529.017 Q 622.631 530.22 625.246 532.399 L 625.246 532.399 L 625.246 532.399 Q 627.861 534.578 629.293 537.629 L 629.293 537.629 L 629.293 537.629 Q 630.725 540.679 630.725 544.415 L 630.725 544.415 L 630.725 544.415 Q 630.725 549.603 627.923 552.964 L 627.923 552.964 L 627.923 552.964 Q 625.122 556.326 619.602 557.737 Z  M 679.699 530.303 L 679.699 530.303 L 679.699 538.023 L 679.699 538.023 Q 677.084 536.487 674.158 535.678 L 674.158 535.678 L 674.158 535.678 Q 671.232 534.869 667.995 534.869 L 667.995 534.869 L 667.995 534.869 Q 659.943 534.869 655.876 540.804 L 655.876 540.804 L 655.876 540.804 Q 651.809 546.739 651.809 558.526 L 651.809 558.526 L 651.809 558.526 Q 653.801 554.375 657.287 552.155 L 657.287 552.155 L 657.287 552.155 Q 660.773 549.935 665.422 549.935 L 665.422 549.935 L 665.422 549.935 Q 669.863 549.935 673.37 551.346 L 673.37 551.346 L 673.37 551.346 Q 676.877 552.757 679.284 555.455 L 679.284 555.455 L 679.284 555.455 Q 681.691 558.152 682.957 562.074 L 682.957 562.074 L 682.957 562.074 Q 684.223 565.997 684.223 571.019 L 684.223 571.019 L 684.223 571.019 Q 684.223 575.999 682.937 579.921 L 682.937 579.921 L 682.937 579.921 Q 681.65 583.843 679.18 586.562 L 679.18 586.562 L 679.18 586.562 Q 676.711 589.28 673.121 590.691 L 673.121 590.691 L 673.121 590.691 Q 669.531 592.103 664.924 592.103 L 664.924 592.103 L 664.924 592.103 Q 659.487 592.103 655.565 590.193 L 655.565 590.193 L 655.565 590.193 Q 651.643 588.284 649.09 584.341 L 649.09 584.341 L 649.09 584.341 Q 646.538 580.398 645.313 574.339 L 645.313 574.339 L 645.313 574.339 Q 644.089 568.279 644.089 559.979 L 644.089 559.979 L 644.089 559.979 Q 644.089 552.134 645.625 546.137 L 645.625 546.137 L 645.625 546.137 Q 647.16 540.14 650.128 536.052 L 650.128 536.052 L 650.128 536.052 Q 653.095 531.963 657.495 529.888 L 657.495 529.888 L 657.495 529.888 Q 661.894 527.813 667.622 527.813 L 667.622 527.813 L 667.622 527.813 Q 670.734 527.813 673.785 528.456 L 673.785 528.456 L 673.785 528.456 Q 676.835 529.1 679.699 530.303 Z  M 664.758 556.492 L 664.758 556.492 L 664.758 556.492 Q 662.06 556.492 659.923 557.488 L 659.923 557.488 L 659.923 557.488 Q 657.785 558.484 656.312 560.373 L 656.312 560.373 L 656.312 560.373 Q 654.838 562.261 654.05 564.959 L 654.05 564.959 L 654.05 564.959 Q 653.261 567.657 653.261 571.019 L 653.261 571.019 L 653.261 571.019 Q 653.261 574.38 654.05 577.078 L 654.05 577.078 L 654.05 577.078 Q 654.838 579.776 656.312 581.664 L 656.312 581.664 L 656.312 581.664 Q 657.785 583.553 659.923 584.549 L 659.923 584.549 L 659.923 584.549 Q 662.06 585.545 664.758 585.545 L 664.758 585.545 L 664.758 585.545 Q 675.964 585.545 675.964 571.019 L 675.964 571.019 L 675.964 571.019 Q 675.964 556.492 664.758 556.492 Z  M 222.658 541.966 L 222.658 570.354 L 222.658 570.354 Q 222.658 590.899 204.272 590.899 L 204.272 590.899 L 204.272 590.899 Q 184.558 590.899 184.558 569.109 L 184.558 569.109 L 184.558 569.109 Q 184.558 547.486 203.608 547.486 L 203.608 547.486 L 203.608 547.486 Q 211.743 547.486 214.565 552.674 L 214.565 552.674 L 215.395 552.674 L 215.395 541.966 L 215.395 541.966 Q 215.395 532.129 203.608 532.129 L 203.608 532.129 L 203.608 532.129 Q 198.71 532.129 196.345 533.748 L 196.345 533.748 L 196.345 533.748 Q 193.979 535.367 193.979 538.479 L 193.979 538.479 L 193.979 541.053 L 186.218 541.053 L 186.218 538.479 L 186.218 538.479 Q 186.218 526.277 203.608 526.277 L 203.608 526.277 L 203.608 526.277 Q 222.658 526.277 222.658 541.966 L 222.658 541.966 Z  M 214.855 570.354 L 214.855 570.354 L 214.855 570.354 Q 214.855 553.462 203.608 553.462 L 203.608 553.462 L 203.608 553.462 Q 197.839 553.462 195.1 557.343 L 195.1 557.343 L 195.1 557.343 Q 192.36 561.224 192.36 569.192 L 192.36 569.192 L 192.36 569.192 Q 192.36 584.881 204.189 584.881 L 204.189 584.881 L 204.189 584.881 Q 214.855 584.881 214.855 570.354 Z  M 273.791 566.744 L 273.791 566.744 L 273.791 566.744 Q 273.708 590.899 254.533 590.899 L 254.533 590.899 L 254.533 590.899 Q 235.815 590.899 235.815 565.167 L 235.815 565.167 L 235.815 565.167 Q 235.815 559.356 237.89 553.711 L 237.89 553.711 L 245.776 553.711 L 245.776 553.711 Q 243.493 559.19 243.493 564.212 L 243.493 564.212 L 243.493 564.212 Q 243.493 584.881 254.699 584.881 L 254.699 584.881 L 254.699 584.881 Q 266.071 584.881 266.071 567.615 L 266.071 567.615 L 266.071 567.615 Q 266.071 553.089 259.887 547.652 L 259.887 547.652 L 259.887 547.652 Q 247.727 539.434 247.685 526.36 L 247.685 526.36 L 255.197 526.36 L 255.197 526.36 Q 255.239 535.325 260.468 540.804 L 260.468 540.804 L 260.468 540.804 Q 273.791 549.354 273.791 566.744 Z  M 324.924 550.599 L 324.924 550.599 L 324.924 555.123 L 324.924 555.123 Q 324.924 582.266 314.963 590.899 L 314.963 590.899 L 308.903 590.899 L 308.903 590.899 Q 317.204 578.614 317.204 554.998 L 317.204 554.998 L 317.204 550.848 L 317.204 550.848 Q 317.204 532.171 306.413 532.171 L 306.413 532.171 L 306.413 532.171 Q 294.75 532.171 294.75 550.765 L 294.75 550.765 L 294.75 555.247 L 294.75 555.247 Q 294.75 566.702 296.763 575.584 L 296.763 575.584 L 296.763 575.584 Q 298.776 584.466 302.927 590.899 L 302.927 590.899 L 296.784 590.899 L 296.784 590.899 Q 291.762 586.375 289.376 577.493 L 289.376 577.493 L 289.376 577.493 Q 286.989 568.611 286.989 555.247 L 286.989 555.247 L 286.989 550.433 L 286.989 550.433 Q 286.989 538.313 291.741 532.316 L 291.741 532.316 L 291.741 532.316 Q 296.494 526.319 306.247 526.319 L 306.247 526.319 L 306.247 526.319 Q 315.71 526.319 320.317 532.358 L 320.317 532.358 L 320.317 532.358 Q 324.924 538.396 324.924 550.599 Z  M 376.14 570.894 L 376.14 570.894 L 376.14 570.894 Q 376.14 580.938 371.533 585.918 L 371.533 585.918 L 371.533 585.918 Q 366.926 590.899 357.463 590.899 L 357.463 590.899 L 357.463 590.899 Q 338.122 590.899 338.122 567.906 L 338.122 567.906 L 338.122 526.775 L 345.676 526.775 L 345.676 567.906 L 345.676 567.906 Q 345.676 584.922 357.463 584.922 L 357.463 584.922 L 357.463 584.922 Q 363.149 584.922 365.784 581.415 L 365.784 581.415 L 365.784 581.415 Q 368.42 577.908 368.42 570.687 L 368.42 570.687 L 368.42 570.687 Q 368.42 561.805 362.817 557.364 L 362.817 557.364 L 362.817 557.364 Q 357.214 552.964 357.214 547.071 L 357.214 547.071 L 357.214 547.071 Q 357.214 541.675 359.497 538.895 L 359.497 538.895 L 365.639 540.14 L 365.639 540.14 Q 363.647 543.377 363.481 546.78 L 363.481 546.78 L 363.481 546.78 Q 363.481 549.769 369.831 554.791 L 369.831 554.791 L 369.831 554.791 Q 376.14 559.854 376.14 570.894 Z  M 427.272 550.599 L 427.272 550.599 L 427.272 555.123 L 427.272 555.123 Q 427.272 582.266 417.312 590.899 L 417.312 590.899 L 411.252 590.899 L 411.252 590.899 Q 419.553 578.614 419.553 554.998 L 419.553 554.998 L 419.553 550.848 L 419.553 550.848 Q 419.553 532.171 408.762 532.171 L 408.762 532.171 L 408.762 532.171 Q 397.099 532.171 397.099 550.765 L 397.099 550.765 L 397.099 555.247 L 397.099 555.247 Q 397.099 566.702 399.112 575.584 L 399.112 575.584 L 399.112 575.584 Q 401.125 584.466 405.275 590.899 L 405.275 590.899 L 399.133 590.899 L 399.133 590.899 Q 394.111 586.375 391.724 577.493 L 391.724 577.493 L 391.724 577.493 Q 389.338 568.611 389.338 555.247 L 389.338 555.247 L 389.338 550.433 L 389.338 550.433 Q 389.338 538.313 394.09 532.316 L 394.09 532.316 L 394.09 532.316 Q 398.842 526.319 408.596 526.319 L 408.596 526.319 L 408.596 526.319 Q 418.059 526.319 422.666 532.358 L 422.666 532.358 L 422.666 532.358 Q 427.272 538.396 427.272 550.599 Z  M 224.028 468.96 L 224.028 468.96 L 224.028 468.96 Q 223.239 491.165 203.649 492.037 L 203.649 492.037 L 203.649 492.037 Q 183.811 491.165 182.98 468.919 L 182.98 468.919 L 182.98 468.919 Q 183.769 447.337 203.691 446.382 L 203.691 446.382 L 203.691 446.382 Q 206.306 444.141 207.468 442.356 L 207.468 442.356 L 207.468 442.356 Q 208.63 440.572 208.63 438.912 L 208.63 438.912 L 208.63 438.912 Q 208.63 433.226 201.657 433.226 L 201.657 433.226 L 201.657 433.226 Q 194.56 433.226 194.56 438.455 L 194.56 438.455 L 194.56 438.455 Q 194.56 440.489 195.183 442.398 L 195.183 442.398 L 188.708 442.522 L 188.708 442.522 Q 187.546 439.783 187.546 437.791 L 187.546 437.791 L 187.546 437.791 Q 187.546 427.374 201.657 427.374 L 201.657 427.374 L 201.657 427.374 Q 209.252 427.374 212.76 430.113 L 212.76 430.113 L 212.76 430.113 Q 216.267 432.852 216.267 438.414 L 216.267 438.414 L 216.267 438.414 Q 216.267 442.564 210.249 446.922 L 210.249 446.922 L 210.249 446.922 Q 224.028 451.363 224.028 468.96 Z  M 216.557 468.96 L 216.557 468.96 L 216.557 468.96 Q 216.557 452.359 203.649 452.359 L 203.649 452.359 L 203.649 452.359 Q 190.493 452.359 190.493 468.919 L 190.493 468.919 L 190.493 468.919 Q 190.493 477.593 193.792 481.764 L 193.792 481.764 L 193.792 481.764 Q 197.092 485.936 203.691 485.936 L 203.691 485.936 L 203.691 485.936 Q 216.557 485.936 216.557 468.96 Z  M 273.791 467.798 L 273.791 467.798 L 273.791 467.798 Q 273.708 491.954 254.533 491.954 L 254.533 491.954 L 254.533 491.954 Q 235.815 491.954 235.815 466.221 L 235.815 466.221 L 235.815 466.221 Q 235.815 460.411 237.89 454.766 L 237.89 454.766 L 245.776 454.766 L 245.776 454.766 Q 243.493 460.245 243.493 465.267 L 243.493 465.267 L 243.493 465.267 Q 243.493 485.936 254.699 485.936 L 254.699 485.936 L 254.699 485.936 Q 266.071 485.936 266.071 468.67 L 266.071 468.67 L 266.071 468.67 Q 266.071 454.144 259.887 448.707 L 259.887 448.707 L 259.887 448.707 Q 247.727 440.489 247.685 427.415 L 247.685 427.415 L 255.197 427.415 L 255.197 427.415 Q 255.239 436.38 260.468 441.858 L 260.468 441.858 L 260.468 441.858 Q 273.791 450.408 273.791 467.798 Z  M 328.784 472.53 L 328.784 475.892 L 328.784 475.892 Q 328.784 492.037 310.148 492.037 L 310.148 492.037 L 307.824 492.037 L 307.824 492.037 Q 290.019 492.037 290.019 476.016 L 290.019 476.016 L 297.573 476.016 L 297.573 476.016 Q 297.573 485.936 307.907 485.936 L 307.907 485.936 L 309.858 485.936 L 309.858 485.936 Q 321.354 485.936 321.354 475.892 L 321.354 475.892 L 321.354 472.654 L 321.354 472.654 Q 321.354 464.935 318.989 464.81 L 318.989 464.81 L 315.668 464.81 L 315.668 458.958 L 318.989 458.958 L 318.989 458.958 Q 321.23 458.958 321.23 451.944 L 321.23 451.944 L 321.23 442.647 L 321.23 442.647 Q 321.23 433.267 317.08 433.267 L 317.08 433.267 L 313.676 433.267 L 313.676 433.267 Q 311.228 433.267 311.228 439.036 L 311.228 439.036 L 311.228 452.566 L 311.228 452.566 Q 311.228 461.697 307.907 466.097 L 307.907 466.097 L 307.907 466.097 Q 304.587 470.496 297.739 470.496 L 297.739 470.496 L 297.739 470.496 Q 283.42 470.496 283.42 452.442 L 283.42 452.442 L 283.42 445.511 L 283.42 445.511 Q 283.42 427.415 297.697 427.415 L 297.697 427.415 L 297.697 427.415 Q 303.923 427.415 307.036 432.146 L 307.036 432.146 L 307.036 432.146 Q 311.269 427.374 316.997 427.374 L 316.997 427.374 L 316.997 427.374 Q 328.618 427.374 328.618 445.22 L 328.618 445.22 L 328.618 445.22 Q 328.618 457.588 322.143 461.863 L 322.143 461.863 L 322.143 461.863 Q 328.784 466.221 328.784 472.53 L 328.784 472.53 Z  M 304.213 453.355 L 304.213 441.028 L 304.213 441.028 Q 304.213 433.267 300.312 433.267 L 300.312 433.267 L 297.116 433.267 L 297.116 433.267 Q 291.264 433.267 291.264 445.22 L 291.264 445.22 L 291.264 451.736 L 291.264 451.736 Q 291.264 464.893 297.697 464.893 L 297.697 464.893 L 297.697 464.893 Q 304.213 464.893 304.213 453.355 L 304.213 453.355 Z  M 379.543 464.354 L 379.543 464.354 L 379.543 472.198 L 379.543 472.198 Q 379.543 482.781 371.74 491.954 L 371.74 491.954 L 363.564 491.954 L 363.564 491.954 Q 371.699 483.943 371.699 474.439 L 371.699 474.439 L 371.699 464.354 L 371.699 464.354 Q 371.699 451.238 367.05 451.238 L 367.05 451.238 L 363.398 451.238 L 363.398 451.238 Q 360.7 451.238 360.7 458.667 L 360.7 458.667 L 360.7 474.107 L 354.101 474.107 L 354.143 458.667 L 354.143 458.667 Q 354.143 451.238 351.113 451.238 L 351.113 451.238 L 345.966 451.238 L 345.966 451.238 Q 342.314 451.238 342.314 464.146 L 342.314 464.146 L 342.314 472.986 L 342.314 472.986 Q 342.314 483.902 351.237 491.954 L 351.237 491.954 L 342.521 491.954 L 342.521 491.954 Q 334.428 482.823 334.428 470.621 L 334.428 470.621 L 334.428 464.478 L 334.428 464.478 Q 334.428 451.238 340.156 441.153 L 340.156 441.153 L 340.156 441.153 Q 345.883 431.067 365.722 427.332 L 365.722 427.332 L 366.677 434.471 L 366.677 434.471 Q 349.951 435.135 343.393 447.254 L 343.393 447.254 L 344.306 447.918 L 347.253 445.262 L 347.253 445.262 Q 354.101 445.262 357.421 449.495 L 357.421 449.495 L 357.421 449.495 Q 360.7 445.262 367.341 445.262 L 367.341 445.262 L 367.341 445.262 Q 379.543 445.262 379.543 464.354 Z  M 430.842 447.586 L 430.842 447.586 L 430.842 468.421 L 430.842 468.421 Q 430.842 484.566 421.628 491.954 L 421.628 491.954 L 414.904 491.954 L 414.904 491.954 Q 423.288 484.109 423.288 469.708 L 423.288 469.708 L 423.288 448.707 L 423.288 448.707 Q 423.288 433.226 419.553 433.226 L 419.553 433.226 L 417.229 433.226 L 417.229 433.226 Q 413.369 433.226 413.369 442.107 L 413.369 442.107 L 413.369 467.881 L 413.369 467.881 Q 413.369 491.954 400.585 491.954 L 400.585 491.954 L 400.585 491.954 Q 385.727 491.954 385.727 468.753 L 385.727 468.753 L 385.727 449.246 L 385.727 449.246 Q 385.727 427.332 399.921 427.332 L 399.921 427.332 L 399.921 427.332 Q 406.022 427.332 409.675 432.479 L 409.675 432.479 L 409.675 432.479 Q 413.327 427.332 418.225 427.332 L 418.225 427.332 L 418.225 427.332 Q 430.842 427.332 430.842 447.586 Z  M 406.77 474.356 L 406.77 474.356 L 406.77 439.825 L 406.77 439.825 Q 406.77 436.463 405.358 434.844 L 405.358 434.844 L 405.358 434.844 Q 403.947 433.226 400.959 433.226 L 400.959 433.226 L 400.253 433.226 L 400.253 433.226 Q 393.239 433.226 393.239 447.793 L 393.239 447.793 L 393.239 471.617 L 393.239 471.617 Q 393.239 485.894 399.672 485.894 L 399.672 485.894 L 399.672 485.894 Q 403.325 485.894 405.047 483.051 L 405.047 483.051 L 405.047 483.051 Q 406.77 480.208 406.77 474.356 Z  M 478.488 469.375 L 478.488 469.375 L 478.488 469.375 Q 478.447 491.954 459.563 491.954 L 459.563 491.954 L 459.563 491.954 Q 440.471 491.954 440.471 469.375 L 440.471 469.375 L 440.471 427.872 L 447.568 427.872 L 447.568 452.608 L 449.27 452.608 L 449.27 452.608 Q 452.341 446.922 459.563 446.922 L 459.563 446.922 L 459.563 446.922 Q 478.488 446.922 478.488 469.375 Z  M 470.727 469.375 L 470.727 469.375 L 470.727 469.375 Q 470.727 453.064 459.521 453.064 L 459.521 453.064 L 459.521 453.064 Q 448.19 453.064 448.19 469.458 L 448.19 469.458 L 448.19 469.458 Q 448.19 485.728 459.604 485.728 L 459.604 485.728 L 459.604 485.728 Q 470.727 485.728 470.727 469.375 Z  M 529.621 451.653 L 529.621 451.653 L 529.621 456.177 L 529.621 456.177 Q 529.621 483.321 519.66 491.954 L 519.66 491.954 L 513.601 491.954 L 513.601 491.954 Q 521.901 479.668 521.901 456.053 L 521.901 456.053 L 521.901 451.902 L 521.901 451.902 Q 521.901 433.226 511.11 433.226 L 511.11 433.226 L 511.11 433.226 Q 499.448 433.226 499.448 451.819 L 499.448 451.819 L 499.448 456.302 L 499.448 456.302 Q 499.448 467.757 501.461 476.639 L 501.461 476.639 L 501.461 476.639 Q 503.474 485.521 507.624 491.954 L 507.624 491.954 L 501.481 491.954 L 501.481 491.954 Q 496.459 487.43 494.073 478.548 L 494.073 478.548 L 494.073 478.548 Q 491.687 469.666 491.687 456.302 L 491.687 456.302 L 491.687 451.487 L 491.687 451.487 Q 491.687 439.368 496.439 433.371 L 496.439 433.371 L 496.439 433.371 Q 501.191 427.374 510.944 427.374 L 510.944 427.374 L 510.944 427.374 Q 520.407 427.374 525.014 433.412 L 525.014 433.412 L 525.014 433.412 Q 529.621 439.451 529.621 451.653 Z  M 561.994 433.267 L 561.994 433.267 L 561.994 433.267 Q 556.267 433.267 553.403 437.21 L 553.403 437.21 L 553.403 437.21 Q 550.539 441.153 550.539 449.246 L 550.539 449.246 L 550.539 449.246 Q 550.539 467.881 563.073 475.975 L 563.073 475.975 L 563.073 475.975 Q 575.524 484.026 575.607 491.954 L 575.607 491.954 L 568.178 491.954 L 568.178 491.954 Q 566.684 481.91 560.292 481.91 L 560.292 481.91 L 560.292 481.91 Q 556.516 481.91 553.61 483.279 L 553.61 483.279 L 553.61 483.279 Q 550.705 484.649 548.713 487.015 L 548.713 487.015 L 545.268 482.325 L 545.268 482.325 Q 547.924 478.299 555.354 477.178 L 555.354 477.178 L 555.354 477.178 Q 542.861 464.935 542.861 449.039 L 542.861 449.039 L 542.861 449.039 Q 542.861 438.206 547.675 432.79 L 547.675 432.79 L 547.675 432.79 Q 552.49 427.374 561.994 427.374 L 561.994 427.374 L 561.994 427.374 Q 580.837 427.374 580.837 449.205 L 580.837 449.205 L 580.837 449.205 Q 580.837 454.932 578.969 458.543 L 578.969 458.543 L 578.969 458.543 Q 578.015 460.452 578.015 463.15 L 578.015 463.15 L 578.015 463.15 Q 578.015 465.723 578.803 468.628 L 578.803 468.628 L 571.997 468.628 L 571.997 468.628 Q 571.083 465.225 571.083 462.486 L 571.083 462.486 L 571.083 462.486 Q 571.083 460.328 571.706 458.833 L 571.706 458.833 L 571.706 458.833 Q 573.117 455.638 573.117 449.08 L 573.117 449.08 L 573.117 449.08 Q 573.117 433.267 561.994 433.267 Z  M 632.011 445.552 L 632.011 474.729 L 632.011 474.729 Q 632.011 491.954 613.75 491.954 L 613.75 491.954 L 613.75 491.954 Q 594.035 491.954 594.035 474.314 L 594.035 474.314 L 594.035 474.314 Q 594.035 468.047 597.812 463.399 L 597.812 463.399 L 605.615 463.399 L 605.615 463.399 Q 601.713 468.421 601.713 474.314 L 601.713 474.314 L 601.713 474.314 Q 601.713 485.687 613.833 485.687 L 613.833 485.687 L 613.833 485.687 Q 624.707 485.687 624.707 475.145 L 624.707 475.145 L 624.707 445.469 L 624.707 445.469 Q 624.707 433.724 614.87 433.724 L 614.87 433.724 L 614.87 433.724 Q 605.034 433.724 605.034 441.402 L 605.034 441.402 L 605.034 441.402 Q 605.034 446.175 607.607 450.616 L 607.607 450.616 L 600.302 450.699 L 600.302 450.699 Q 597.978 447.378 597.978 441.526 L 597.978 441.526 L 597.978 441.526 Q 597.978 434.346 602.149 430.922 L 602.149 430.922 L 602.149 430.922 Q 606.32 427.498 614.829 427.498 L 614.829 427.498 L 614.829 427.498 Q 623.461 427.498 627.736 431.96 L 627.736 431.96 L 627.736 431.96 Q 632.011 436.421 632.011 445.552 L 632.011 445.552 Z  M 683.227 469.375 L 683.227 469.375 L 683.227 469.375 Q 683.227 491.954 664.467 491.954 L 664.467 491.954 L 664.467 491.954 Q 645.251 491.954 645.126 469.334 L 645.126 469.334 L 645.126 469.334 Q 645.251 451.612 661.313 448.125 L 661.313 448.125 L 661.313 442.398 L 661.313 442.398 Q 661.313 439.866 659.694 438.372 L 659.694 438.372 L 659.694 438.372 Q 658.076 436.878 654.589 436.255 L 654.589 436.255 L 654.589 436.255 Q 651.601 435.716 650.169 433.454 L 650.169 433.454 L 650.169 433.454 Q 648.737 431.192 648.737 427.291 L 648.737 427.291 L 656.25 427.291 L 656.25 427.291 Q 656.25 430.984 661.479 432.105 L 661.479 432.105 L 661.479 432.105 Q 668.161 434.471 668.161 442.149 L 668.161 442.149 L 668.161 448.125 L 668.161 448.125 Q 683.227 453.064 683.227 469.375 Z  M 675.424 469.334 L 675.424 469.334 L 675.424 469.334 Q 675.424 453.936 664.135 453.936 L 664.135 453.936 L 664.135 453.936 Q 658.408 453.936 655.648 457.754 L 655.648 457.754 L 655.648 457.754 Q 652.888 461.573 652.888 469.126 L 652.888 469.126 L 652.888 469.126 Q 652.888 485.936 664.426 485.936 L 664.426 485.936 L 664.426 485.936 Q 675.424 485.936 675.424 469.334 Z  M 734.36 467.798 L 734.36 467.798 L 734.36 467.798 Q 734.277 491.954 715.102 491.954 L 715.102 491.954 L 715.102 491.954 Q 696.384 491.954 696.384 466.221 L 696.384 466.221 L 696.384 466.221 Q 696.384 460.411 698.459 454.766 L 698.459 454.766 L 706.345 454.766 L 706.345 454.766 Q 704.062 460.245 704.062 465.267 L 704.062 465.267 L 704.062 465.267 Q 704.062 485.936 715.268 485.936 L 715.268 485.936 L 715.268 485.936 Q 726.64 485.936 726.64 468.67 L 726.64 468.67 L 726.64 468.67 Q 726.64 454.144 720.456 448.707 L 720.456 448.707 L 720.456 448.707 Q 708.295 440.489 708.254 427.415 L 708.254 427.415 L 715.766 427.415 L 715.766 427.415 Q 715.808 436.38 721.037 441.858 L 721.037 441.858 L 721.037 441.858 Q 734.36 450.408 734.36 467.798 Z " fill-rule="evenodd" fill="rgb(255,202,40)" />
    </g>
</svg>