<?xml version="1.0" standalone="no"?>
<!-- Generator: Gravit.io -->
<svg xmlns="http://www.w3.org/2000/svg" xmlns:xlink="http://www.w3.org/1999/xlink" style="isolation:isolate" viewBox="0 0 1024 1024" width="1024" height="1024">
    <defs>
        <clipPath id="_clipPath_pcXGwwt6LdZZHrS2bKyaDG9qU2WTP9tu">
            <rect width="1024" height="1024" />
        </clipPath>
    </defs>
    <g clip-path="url(#_clipPath_pcXGwwt6LdZZHrS2bKyaDG9qU2WTP9tu)">
        <rect x="87" y="87" width="850" height="850" transform="matrix(1,0,0,1,0,0)" fill="rgb(235,235,235)" />
        <path d="M 146.18 110 L 877.82 110 C 897.788 110 914 126.212 914 146.18 L 914 877.82 C 914 897.788 897.788 914 877.82 914 L 146.18 914 C 126.212 914 110 897.788 110 877.82 L 110 146.18 C 110 126.212 126.212 110 146.18 110 Z" style="stroke:none;fill:#424242;stroke-miterlimit:10;" />
        <path d="M 169.28 155 L 854.72 155 C 862.601 155 869 161.399 869 169.28 L 869 854.72 C 869 862.601 862.601 869 854.72 869 L 169.28 869 C 161.399 869 155 862.601 155 854.72 L 155 169.28 C 155 161.399 161.399 155 169.28 155 Z" style="stroke:none;fill:#212121;stroke-miterlimit:10;" />
        <path d=" M 704.27 576.515 L 681.065 576.515 L 676.39 591.475 L 669.08 591.475 L 688.205 532.91 L 697.555 532.91 L 716.595 591.475 L 708.945 591.475 L 704.27 576.515 Z  M 683.02 570.395 L 702.315 570.395 L 692.71 539.2 L 683.02 570.395 Z  M 763.515 532.91 L 766.83 591.475 L 759.69 591.475 L 757.905 560.875 L 757.905 560.875 Q 757.395 552.8 757.395 539.71 L 757.395 539.71 L 747.535 580.935 L 740.14 580.935 L 729.6 539.71 L 729.6 539.71 Q 729.77 542.77 729.77 547.87 L 729.77 547.87 L 729.77 547.87 Q 729.77 555.69 729.43 560.875 L 729.43 560.875 L 727.9 591.475 L 720.93 591.475 L 724.245 532.91 L 734.53 532.91 L 744.05 573.03 L 753.145 532.91 L 763.515 532.91 Z  M 431.93 592.24 L 425.3 590.285 L 448.08 538.86 L 420.625 538.86 L 420.625 532.91 L 455.305 532.91 L 455.305 538.435 L 431.93 592.24 Z  M 481.995 554.84 L 481.995 554.84 Q 481.995 552.035 483.95 550.038 L 483.95 550.038 L 483.95 550.038 Q 485.905 548.04 488.795 548.04 L 488.795 548.04 L 488.795 548.04 Q 491.77 548.04 493.725 550.038 L 493.725 550.038 L 493.725 550.038 Q 495.68 552.035 495.68 554.84 L 495.68 554.84 L 495.68 554.84 Q 495.68 557.73 493.725 559.77 L 493.725 559.77 L 493.725 559.77 Q 491.77 561.81 488.795 561.81 L 488.795 561.81 L 488.795 561.81 Q 485.905 561.81 483.95 559.77 L 483.95 559.77 L 483.95 559.77 Q 481.995 557.73 481.995 554.84 L 481.995 554.84 Z  M 481.995 585.525 L 481.995 585.525 Q 481.995 582.72 483.95 580.68 L 483.95 580.68 L 483.95 580.68 Q 485.905 578.64 488.795 578.64 L 488.795 578.64 L 488.795 578.64 Q 491.77 578.64 493.725 580.638 L 493.725 580.638 L 493.725 580.638 Q 495.68 582.635 495.68 585.525 L 495.68 585.525 L 495.68 585.525 Q 495.68 588.5 493.725 590.455 L 493.725 590.455 L 493.725 590.455 Q 491.77 592.41 488.795 592.41 L 488.795 592.41 L 488.795 592.41 Q 485.905 592.41 483.95 590.455 L 483.95 590.455 L 483.95 590.455 Q 481.995 588.5 481.995 585.525 L 481.995 585.525 Z  M 537.245 531.975 L 537.245 531.975 Q 542.6 531.975 546.68 533.973 L 546.68 533.973 L 546.68 533.973 Q 550.76 535.97 552.97 539.328 L 552.97 539.328 L 552.97 539.328 Q 555.18 542.685 555.18 546.68 L 555.18 546.68 L 555.18 546.68 Q 555.18 551.78 551.865 555.563 L 551.865 555.563 L 551.865 555.563 Q 548.55 559.345 543.79 560.28 L 543.79 560.28 L 543.79 560.28 Q 549.315 560.705 553.182 564.445 L 553.182 564.445 L 553.182 564.445 Q 557.05 568.185 557.05 574.645 L 557.05 574.645 L 557.05 574.645 Q 557.05 579.66 554.5 583.74 L 554.5 583.74 L 554.5 583.74 Q 551.95 587.82 547.317 590.115 L 547.317 590.115 L 547.317 590.115 Q 542.685 592.41 536.735 592.41 L 536.735 592.41 L 536.735 592.41 Q 531.55 592.41 526.748 590.455 L 526.748 590.455 L 526.748 590.455 Q 521.945 588.5 518.8 584.675 L 518.8 584.675 L 523.56 580.765 L 523.56 580.765 Q 525.94 583.57 529.382 585.058 L 529.382 585.058 L 529.382 585.058 Q 532.825 586.545 536.565 586.545 L 536.565 586.545 L 536.565 586.545 Q 542.685 586.545 546.128 583.358 L 546.128 583.358 L 546.128 583.358 Q 549.57 580.17 549.57 574.645 L 549.57 574.645 L 549.57 574.645 Q 549.57 563.51 537.415 563.51 L 537.415 563.51 L 532.57 563.51 L 533.42 557.815 L 536.905 557.815 L 536.905 557.815 Q 541.495 557.815 544.725 555.223 L 544.725 555.223 L 544.725 555.223 Q 547.955 552.63 547.955 547.615 L 547.955 547.615 L 547.955 547.615 Q 547.955 542.94 544.853 540.348 L 544.853 540.348 L 544.853 540.348 Q 541.75 537.755 536.905 537.755 L 536.905 537.755 L 536.905 537.755 Q 533.25 537.755 530.402 539.03 L 530.402 539.03 L 530.402 539.03 Q 527.555 540.305 524.495 543.11 L 524.495 543.11 L 520.585 538.775 L 520.585 538.775 Q 527.725 531.975 537.245 531.975 L 537.245 531.975 Z  M 593.43 553.395 L 593.43 553.395 Q 598.02 553.395 601.803 555.435 L 601.803 555.435 L 601.803 555.435 Q 605.585 557.475 607.795 561.598 L 607.795 561.598 L 607.795 561.598 Q 610.005 565.72 610.005 571.755 L 610.005 571.755 L 610.005 571.755 Q 610.005 578.045 607.54 582.763 L 607.54 582.763 L 607.54 582.763 Q 605.075 587.48 600.91 589.945 L 600.91 589.945 L 600.91 589.945 Q 596.745 592.41 591.56 592.41 L 591.56 592.41 L 591.56 592.41 Q 581.36 592.41 576.728 585.015 L 576.728 585.015 L 576.728 585.015 Q 572.095 577.62 572.095 563.85 L 572.095 563.85 L 572.095 563.85 Q 572.095 554.16 574.688 546.978 L 574.688 546.978 L 574.688 546.978 Q 577.28 539.795 582.168 535.885 L 582.168 535.885 L 582.168 535.885 Q 587.055 531.975 593.855 531.975 L 593.855 531.975 L 593.855 531.975 Q 600.23 531.975 605.5 535.46 L 605.5 535.46 L 602.695 540.22 L 602.695 540.22 Q 598.53 537.755 593.77 537.755 L 593.77 537.755 L 593.77 537.755 Q 587.14 537.755 583.315 544.088 L 583.315 544.088 L 583.315 544.088 Q 579.49 550.42 579.32 561.215 L 579.32 561.215 L 579.32 561.215 Q 582.04 557.135 585.525 555.265 L 585.525 555.265 L 585.525 555.265 Q 589.01 553.395 593.43 553.395 L 593.43 553.395 Z  M 591.56 586.63 L 591.56 586.63 Q 597 586.63 599.848 582.763 L 599.848 582.763 L 599.848 582.763 Q 602.695 578.895 602.695 572.01 L 602.695 572.01 L 602.695 572.01 Q 602.695 559.175 592.325 559.175 L 592.325 559.175 L 592.325 559.175 Q 588.245 559.175 584.973 561.385 L 584.973 561.385 L 584.973 561.385 Q 581.7 563.595 579.405 567.42 L 579.405 567.42 L 579.405 567.42 Q 579.575 577.45 582.465 582.04 L 582.465 582.04 L 582.465 582.04 Q 585.355 586.63 591.56 586.63 L 591.56 586.63 Z  M 253.515 532.91 L 256.83 591.475 L 249.69 591.475 L 247.905 560.875 L 247.905 560.875 Q 247.395 552.8 247.395 539.71 L 247.395 539.71 L 237.535 580.935 L 230.14 580.935 L 219.6 539.71 L 219.6 539.71 Q 219.77 542.77 219.77 547.87 L 219.77 547.87 L 219.77 547.87 Q 219.77 555.69 219.43 560.875 L 219.43 560.875 L 217.9 591.475 L 210.93 591.475 L 214.245 532.91 L 224.53 532.91 L 234.05 573.03 L 243.145 532.91 L 253.515 532.91 Z  M 277.4 539.03 L 277.4 558.75 L 299.16 558.75 L 299.16 564.785 L 277.4 564.785 L 277.4 585.525 L 304.09 585.525 L 304.09 591.475 L 270.09 591.475 L 270.09 532.91 L 303.325 532.91 L 302.475 539.03 L 277.4 539.03 Z  M 352.625 532.91 L 352.625 538.86 L 339.62 538.86 L 339.62 585.61 L 352.625 585.61 L 352.625 591.475 L 319.135 591.475 L 319.135 585.61 L 332.14 585.61 L 332.14 538.86 L 319.135 538.86 L 319.135 532.91 L 352.625 532.91 Z  M 258.955 430.91 L 250.115 489.475 L 240.425 489.475 L 233.71 445.275 L 226.91 489.475 L 216.965 489.475 L 208.805 430.91 L 216.2 430.91 L 222.405 481.4 L 229.46 437.71 L 238.47 437.71 L 245.185 481.4 L 252.155 430.91 L 258.955 430.91 Z  M 296.27 474.515 L 273.065 474.515 L 268.39 489.475 L 261.08 489.475 L 280.205 430.91 L 289.555 430.91 L 308.595 489.475 L 300.945 489.475 L 296.27 474.515 Z  M 275.02 468.395 L 294.315 468.395 L 284.71 437.2 L 275.02 468.395 Z  M 347.27 474.515 L 324.065 474.515 L 319.39 489.475 L 312.08 489.475 L 331.205 430.91 L 340.555 430.91 L 359.595 489.475 L 351.945 489.475 L 347.27 474.515 Z  M 326.02 468.395 L 345.315 468.395 L 335.71 437.2 L 326.02 468.395 Z  M 407.025 447.4 L 407.025 447.4 Q 407.025 453.69 403.115 457.813 L 403.115 457.813 L 403.115 457.813 Q 399.205 461.935 392.745 463.55 L 392.745 463.55 L 410.17 489.475 L 401.33 489.475 L 385.265 464.4 L 377.36 464.4 L 377.36 489.475 L 370.05 489.475 L 370.05 430.91 L 385.01 430.91 L 385.01 430.91 Q 395.89 430.91 401.458 435.075 L 401.458 435.075 L 401.458 435.075 Q 407.025 439.24 407.025 447.4 L 407.025 447.4 Z  M 399.205 447.4 L 399.205 447.4 Q 399.205 441.79 395.975 439.325 L 395.975 439.325 L 395.975 439.325 Q 392.745 436.86 385.86 436.86 L 385.86 436.86 L 377.36 436.86 L 377.36 458.62 L 385.945 458.62 L 385.945 458.62 Q 392.49 458.62 395.847 455.943 L 395.847 455.943 L 395.847 455.943 Q 399.205 453.265 399.205 447.4 L 399.205 447.4 Z  M 458.025 473.24 L 458.025 473.24 Q 458.025 478.34 455.475 482.208 L 455.475 482.208 L 455.475 482.208 Q 452.925 486.075 448.08 488.243 L 448.08 488.243 L 448.08 488.243 Q 443.235 490.41 436.605 490.41 L 436.605 490.41 L 436.605 490.41 Q 430.23 490.41 425.003 488.498 L 425.003 488.498 L 425.003 488.498 Q 419.775 486.585 416.035 483.015 L 416.035 483.015 L 420.455 478 L 420.455 478 Q 423.685 481.06 427.638 482.675 L 427.638 482.675 L 427.638 482.675 Q 431.59 484.29 436.69 484.29 L 436.69 484.29 L 436.69 484.29 Q 442.47 484.29 446.38 481.485 L 446.38 481.485 L 446.38 481.485 Q 450.29 478.68 450.29 473.41 L 450.29 473.41 L 450.29 473.41 Q 450.29 470.435 449.185 468.48 L 449.185 468.48 L 449.185 468.48 Q 448.08 466.525 445.317 464.995 L 445.317 464.995 L 445.317 464.995 Q 442.555 463.465 437.54 462.02 L 437.54 462.02 L 437.54 462.02 Q 428.02 459.215 423.345 455.433 L 423.345 455.433 L 423.345 455.433 Q 418.67 451.65 418.67 445.105 L 418.67 445.105 L 418.67 445.105 Q 418.67 440.77 421.05 437.285 L 421.05 437.285 L 421.05 437.285 Q 423.43 433.8 427.765 431.888 L 427.765 431.888 L 427.765 431.888 Q 432.1 429.975 437.625 429.975 L 437.625 429.975 L 437.625 429.975 Q 443.405 429.975 447.953 431.675 L 447.953 431.675 L 447.953 431.675 Q 452.5 433.375 456.325 436.69 L 456.325 436.69 L 451.905 441.45 L 451.905 441.45 Q 445.87 436.18 437.88 436.18 L 437.88 436.18 L 437.88 436.18 Q 432.78 436.18 429.465 438.39 L 429.465 438.39 L 429.465 438.39 Q 426.15 440.6 426.15 444.85 L 426.15 444.85 L 426.15 444.85 Q 426.15 447.4 427.51 449.185 L 427.51 449.185 L 427.51 449.185 Q 428.87 450.97 432.015 452.5 L 432.015 452.5 L 432.015 452.5 Q 435.16 454.03 440.855 455.645 L 440.855 455.645 L 440.855 455.645 Q 449.1 458.025 453.562 461.85 L 453.562 461.85 L 453.562 461.85 Q 458.025 465.675 458.025 473.24 L 458.025 473.24 Z  M 493.81 429.975 L 493.81 429.975 Q 499.25 429.975 503.16 431.378 L 503.16 431.378 L 503.16 431.378 Q 507.07 432.78 510.81 435.67 L 510.81 435.67 L 506.645 440.515 L 506.645 440.515 Q 501.46 436.18 494.32 436.18 L 494.32 436.18 L 494.32 436.18 Q 486.415 436.18 481.442 441.918 L 481.442 441.918 L 481.442 441.918 Q 476.47 447.655 476.47 460.15 L 476.47 460.15 L 476.47 460.15 Q 476.47 472.56 481.315 478.34 L 481.315 478.34 L 481.315 478.34 Q 486.16 484.12 494.235 484.12 L 494.235 484.12 L 494.235 484.12 Q 498.655 484.12 501.8 482.845 L 501.8 482.845 L 501.8 482.845 Q 504.945 481.57 507.835 479.275 L 507.835 479.275 L 511.66 484.035 L 511.66 484.035 Q 505.115 490.41 494.15 490.41 L 494.15 490.41 L 494.15 490.41 Q 486.925 490.41 481.145 486.883 L 481.145 486.883 L 481.145 486.883 Q 475.365 483.355 472.05 476.555 L 472.05 476.555 L 472.05 476.555 Q 468.735 469.755 468.735 460.15 L 468.735 460.15 L 468.735 460.15 Q 468.735 450.63 472.093 443.788 L 472.093 443.788 L 472.093 443.788 Q 475.45 436.945 481.187 433.46 L 481.187 433.46 L 481.187 433.46 Q 486.925 429.975 493.81 429.975 L 493.81 429.975 Z  M 550.93 489.475 L 550.93 461.68 L 528.83 461.68 L 528.83 489.475 L 521.435 489.475 L 521.435 430.91 L 528.83 430.91 L 528.83 455.645 L 550.93 455.645 L 550.93 430.91 L 558.325 430.91 L 558.325 489.475 L 550.93 489.475 Z  M 610.26 430.91 L 610.26 470.52 L 610.26 470.52 Q 610.26 476.385 607.837 480.933 L 607.837 480.933 L 607.837 480.933 Q 605.415 485.48 601.037 487.945 L 601.037 487.945 L 601.037 487.945 Q 596.66 490.41 590.795 490.41 L 590.795 490.41 L 590.795 490.41 Q 584.845 490.41 580.51 487.903 L 580.51 487.903 L 580.51 487.903 Q 576.175 485.395 573.837 480.89 L 573.837 480.89 L 573.837 480.89 Q 571.5 476.385 571.5 470.52 L 571.5 470.52 L 571.5 430.91 L 578.895 430.91 L 578.895 470.775 L 578.895 470.775 Q 578.895 477.405 581.955 480.72 L 581.955 480.72 L 581.955 480.72 Q 585.015 484.035 590.795 484.035 L 590.795 484.035 L 590.795 484.035 Q 596.575 484.035 599.678 480.72 L 599.678 480.72 L 599.678 480.72 Q 602.78 477.405 602.78 470.775 L 602.78 470.775 L 602.78 430.91 L 610.26 430.91 Z  M 666.955 430.91 L 658.115 489.475 L 648.425 489.475 L 641.71 445.275 L 634.91 489.475 L 624.965 489.475 L 616.805 430.91 L 624.2 430.91 L 630.405 481.4 L 637.46 437.71 L 646.47 437.71 L 653.185 481.4 L 660.155 430.91 L 666.955 430.91 Z  M 709.625 430.91 L 709.625 436.86 L 696.62 436.86 L 696.62 483.61 L 709.625 483.61 L 709.625 489.475 L 676.135 489.475 L 676.135 483.61 L 689.14 483.61 L 689.14 436.86 L 676.135 436.86 L 676.135 430.91 L 709.625 430.91 Z  M 751.955 489.475 L 731.3 438.05 L 731.3 438.05 Q 731.3 438.645 731.81 445.445 L 731.81 445.445 L 731.81 445.445 Q 732.32 452.245 732.32 460.15 L 732.32 460.15 L 732.32 489.475 L 725.435 489.475 L 725.435 430.91 L 735.465 430.91 L 756.46 482.59 L 756.29 479.53 L 756.29 479.53 Q 755.44 469.075 755.44 460.235 L 755.44 460.235 L 755.44 430.91 L 762.325 430.91 L 762.325 489.475 L 751.955 489.475 Z  M 796.07 490.41 L 796.07 490.41 Q 785.36 490.41 779.283 482.718 L 779.283 482.718 L 779.283 482.718 Q 773.205 475.025 773.205 460.15 L 773.205 460.15 L 773.205 460.15 Q 773.205 450.46 776.605 443.66 L 776.605 443.66 L 776.605 443.66 Q 780.005 436.86 785.615 433.418 L 785.615 433.418 L 785.615 433.418 Q 791.225 429.975 797.77 429.975 L 797.77 429.975 L 797.77 429.975 Q 803.295 429.975 807.035 431.505 L 807.035 431.505 L 807.035 431.505 Q 810.775 433.035 814.43 436.435 L 814.43 436.435 L 810.01 441.025 L 810.01 441.025 Q 807.29 438.56 804.358 437.37 L 804.358 437.37 L 804.358 437.37 Q 801.425 436.18 797.77 436.18 L 797.77 436.18 L 797.77 436.18 Q 790.63 436.18 785.87 441.875 L 785.87 441.875 L 785.87 441.875 Q 781.11 447.57 781.11 460.15 L 781.11 460.15 L 781.11 460.15 Q 781.11 472.645 784.978 478.425 L 784.978 478.425 L 784.978 478.425 Q 788.845 484.205 796.665 484.205 L 796.665 484.205 L 796.665 484.205 Q 802.87 484.205 807.8 481.4 L 807.8 481.4 L 807.8 463.635 L 796.325 463.635 L 795.475 457.43 L 815.195 457.43 L 815.195 485.31 L 815.195 485.31 Q 810.775 487.775 806.313 489.093 L 806.313 489.093 L 806.313 489.093 Q 801.85 490.41 796.07 490.41 L 796.07 490.41 Z " fill-rule="evenodd" fill="rgb(255,202,40)" />
    </g>
</svg>