<?xml version="1.0" standalone="no"?>
<!-- Generator: Gravit.io -->
<svg xmlns="http://www.w3.org/2000/svg" xmlns:xlink="http://www.w3.org/1999/xlink" style="isolation:isolate" viewBox="0 0 1024 1024" width="1024" height="1024">
    <defs>
        <clipPath id="_clipPath_1taqwtMnREzcEjqbCPq5GCXF6Zy34Gz5">
            <rect width="1024" height="1024" />
        </clipPath>
    </defs>
    <g clip-path="url(#_clipPath_1taqwtMnREzcEjqbCPq5GCXF6Zy34Gz5)">
        <rect x="87" y="87" width="850" height="850" transform="matrix(1,0,0,1,0,0)" fill="rgb(141,110,99)" />
        <rect x="87" y="87" width="42" height="850" transform="matrix(1,0,0,1,0,0)" fill="rgb(93,64,55)" />
        <g id="alphabetical list">
            <rect x="737" y="87" width="200" height="212.5" transform="matrix(1,0,0,1,0,0)" fill="rgb(38,166,154)" />
            <rect x="737" y="299.5" width="200" height="212.5" transform="matrix(1,0,0,1,0,0)" fill="rgb(239,83,80)" />
            <rect x="737" y="512" width="200" height="212.5" transform="matrix(1,0,0,1,0,0)" fill="rgb(255,167,38)" />
            <rect x="737" y="724.5" width="200" height="212.5" transform="matrix(1,0,0,1,0,0)" fill="rgb(66,165,245)" />
            <path d=" M 878.68 219.17 L 847 154.13 C 845.92 151.97 844.36 150.29 842.32 149.09 C 840.28 148.01 838 147.41 835.6 147.41 C 833.08 147.41 830.92 148.01 828.88 149.09 C 826.84 150.29 825.28 151.97 824.2 154.13 L 792.52 219.17 C 791.8 220.73 791.44 222.17 791.44 223.61 C 791.44 226.25 792.52 228.53 794.8 230.33 C 796.96 232.13 799.36 233.09 802.12 233.09 C 803.92 233.09 805.72 232.61 807.28 231.65 C 808.84 230.69 810.04 229.25 810.88 227.33 L 816.4 215.21 L 855.28 215.21 L 860.68 227.33 C 861.52 229.25 862.72 230.69 864.28 231.65 C 865.84 232.61 867.52 233.09 869.32 233.09 C 872.08 233.09 874.48 232.13 876.64 230.33 C 878.68 228.53 879.76 226.25 879.76 223.61 C 879.76 222.17 879.4 220.73 878.68 219.17 Z  M 835.84 171.89 L 847.84 198.65 L 823.84 198.65 L 835.84 171.89 Z " fill-rule="evenodd" fill="rgb(0,0,0)" />
            <path d=" M 854.44 401.31 C 858.64 399.75 861.88 397.35 864.16 393.99 C 866.44 390.75 867.64 386.91 867.64 382.59 C 867.64 375.87 865 370.47 859.84 366.51 C 854.56 362.55 847.48 360.63 838.6 360.63 L 807.88 360.63 C 804.64 360.63 802.12 361.47 800.32 363.27 C 798.52 365.07 797.68 367.59 797.68 370.83 L 797.68 435.03 C 797.68 438.27 798.52 440.79 800.32 442.59 C 802.12 444.39 804.64 445.23 807.88 445.23 L 839.8 445.23 C 845.92 445.23 851.2 444.27 855.76 442.35 C 860.2 440.43 863.68 437.67 866.2 434.19 C 868.6 430.71 869.8 426.75 869.8 422.07 C 869.8 416.91 868.48 412.47 865.84 408.87 C 863.2 405.39 859.36 402.87 854.44 401.31 Z  M 819.16 377.31 L 834.88 377.31 C 839.08 377.31 842.08 378.03 844 379.35 C 845.92 380.67 846.88 382.83 846.88 385.83 C 846.88 388.59 845.92 390.63 844 391.95 C 842.08 393.27 839.08 393.87 834.88 393.87 L 819.16 393.87 L 819.16 377.31 Z  M 837.04 428.55 L 819.16 428.55 L 819.16 410.55 L 837.04 410.55 C 841.48 410.55 844.6 411.27 846.52 412.59 C 848.32 414.03 849.28 416.31 849.28 419.55 C 849.28 422.79 848.32 425.07 846.52 426.39 C 844.6 427.83 841.48 428.55 837.04 428.55 Z " fill-rule="evenodd" fill="rgb(0,0,0)" />
            <path d=" M 845.76 658.81 C 855.96 658.81 864.84 656.17 872.52 650.77 C 873.84 649.81 874.92 648.73 875.52 647.53 C 876.12 646.45 876.36 645.01 876.36 643.33 C 876.36 640.81 875.64 638.77 874.32 636.97 C 872.88 635.29 871.2 634.45 869.16 634.45 C 868.08 634.45 867.12 634.57 866.28 634.93 C 865.44 635.29 864.24 635.89 862.56 636.73 C 859.08 638.29 856.2 639.49 853.92 640.21 C 851.64 641.05 849.36 641.41 846.96 641.41 C 839.88 641.41 834.6 639.25 831.12 634.93 C 827.64 630.73 825.84 624.13 825.84 615.37 C 825.84 606.61 827.64 600.13 831.12 595.81 C 834.6 591.61 839.88 589.45 846.96 589.45 C 849.6 589.45 852.12 589.81 854.64 590.53 C 857.16 591.25 859.8 592.45 862.56 594.13 C 863.88 594.97 864.96 595.45 865.92 595.81 C 866.88 596.17 867.96 596.41 869.16 596.41 C 871.2 596.41 872.88 595.57 874.32 593.77 C 875.64 592.09 876.36 590.05 876.36 587.53 C 876.36 585.73 876.12 584.29 875.52 583.21 C 874.92 582.13 873.84 581.05 872.52 580.09 C 864.84 574.69 855.96 572.05 845.76 572.05 C 837.24 572.05 829.92 573.85 823.56 577.33 C 817.2 580.81 812.28 585.85 808.8 592.45 C 805.32 599.05 803.52 606.61 803.52 615.37 C 803.52 624.13 805.32 631.81 808.8 638.41 C 812.28 645.01 817.2 650.05 823.56 653.53 C 829.92 657.01 837.24 658.81 845.76 658.81 Z " fill="rgb(0,0,0)" />
            <path d=" M 815.88 870.23 L 840.12 870.23 C 849.6 870.23 857.64 868.55 864.48 865.19 C 871.2 861.83 876.36 856.91 879.96 850.55 C 883.44 844.19 885.24 836.63 885.24 827.87 C 885.24 819.11 883.44 811.67 879.84 805.31 C 876.24 798.95 871.08 794.15 864.36 790.67 C 857.52 787.31 849.48 785.63 840.12 785.63 L 815.88 785.63 C 812.64 785.63 810.12 786.47 808.32 788.27 C 806.52 790.07 805.68 792.59 805.68 795.83 L 805.68 860.03 C 805.68 863.27 806.52 865.79 808.32 867.59 C 810.12 869.39 812.64 870.23 815.88 870.23 Z  M 827.76 852.47 L 827.76 803.39 L 838.56 803.39 C 846.84 803.39 852.96 805.43 857.16 809.39 C 861.24 813.35 863.28 819.59 863.28 827.87 C 863.28 836.15 861.24 842.39 857.16 846.35 C 852.96 850.43 846.84 852.47 838.56 852.47 L 827.76 852.47 Z " fill-rule="evenodd" fill="rgb(0,0,0)" />
        </g>
        <path d=" M 443.8 708 C 465 708 484.2 705.6 501.8 701.2 C 519.4 696.8 533.4 691.2 543.8 685.2 C 551.4 680 555 673.6 555 666 C 555 660.4 553 655.6 548.6 651.2 C 544.2 646.8 539.4 644.8 533.4 644.8 C 529.8 644.8 525.4 646 521 648.4 C 508.6 654.8 497 659.6 485.4 662.4 C 473.8 665.2 459.8 666.4 443.8 666.4 C 417.4 666.4 394.6 661.2 375.4 650.8 C 355.8 640 341 625.2 331 606 C 321 587.2 315.8 564.8 315.8 539.2 C 315.8 510 321.4 484.8 332.2 463.6 C 343 442.8 358.6 426.8 378.2 416 C 397.8 405.2 419.8 400 445 400 C 484.6 400 515 409.2 536.2 428 C 557 446.8 567.4 473.2 567.4 508 C 567.4 524.4 565.8 538 563 548.8 C 559.8 559.6 556.2 567.2 551.8 572 C 547.4 576.8 543 579.2 538.6 579.2 C 531.8 579.2 527.4 577.2 524.6 573.6 C 521.8 570 520.2 564.4 520.2 556.8 C 520.2 551.6 521 544.4 522.2 535.6 L 532.6 477.6 C 533 474.4 533.4 472 533.4 470.8 C 533.4 464 531.4 458.4 527.4 454 C 523 450 517.4 448 510.2 448 C 503 448 497.4 449.6 493 452.8 C 488.6 456 486.2 460.4 485 466.4 L 485 467.2 L 483.8 467.2 C 479.8 459.2 473.8 453.2 466.2 449.2 C 458.6 445.6 449.4 443.6 439 443.6 C 423 443.6 408.6 448 396.2 456.8 C 383.4 465.6 373.4 477.6 366.2 493.2 C 359 508.8 355.4 526 355.4 545.2 C 355.4 567.2 361 584.8 372.2 598 C 383 611.6 399 618.4 419.8 618.4 C 433.4 618.4 444.6 615.6 453 609.6 C 461.4 604 469 596 476.6 585.6 L 477.4 585.6 C 480.2 595.6 486.2 603.2 495.4 609.2 C 504.6 615.2 515.8 618.4 529.8 618.4 C 547 618.4 561.8 614 574.6 604.8 C 587 595.6 597 582.8 603.8 566 C 610.6 549.6 613.8 530 613.8 508 C 613.8 478.8 607 452.8 593.8 430.4 C 580.6 408 561 390.4 535.8 377.6 C 510.6 365.2 480.2 358.8 445 358.8 C 410.2 358.8 379.4 366 352.6 380 C 325.4 394 304.2 414.8 289 441.6 C 273.4 468.8 265.8 501.2 265.8 539.2 C 265.8 572 273 601.2 287.4 626.8 C 301.8 652.4 322.6 672.4 349.4 686.8 C 376.2 700.8 407.8 708 443.8 708 Z  M 431 579.2 C 423 579.2 417 576 412.6 569.6 C 408.2 563.6 406.2 555.6 406.2 545.6 C 406.2 529.2 409.8 514.8 417.4 502 C 425 489.2 435.4 482.8 448.6 482.8 C 457 482.8 463.8 485.6 468.6 491.2 C 473.4 496.8 475.8 505.2 475.8 516 C 475.8 532.8 471.8 547.6 464.2 560 C 456.2 572.8 445 579.2 431 579.2 Z " fill-rule="evenodd" fill="rgb(188,170,164)" />
    </g>
</svg>