<?xml version="1.0" standalone="no"?>
<!-- Generator: Gravit.io -->
<svg xmlns="http://www.w3.org/2000/svg" xmlns:xlink="http://www.w3.org/1999/xlink" style="isolation:isolate" viewBox="0 0 1024 1024" width="1024" height="1024">
    <defs>
        <clipPath id="_clipPath_G0yxxi0Zm12IdSIuXkgGbbpVoqi5VG50">
            <rect width="1024" height="1024" />
        </clipPath>
    </defs>
    <g clip-path="url(#_clipPath_G0yxxi0Zm12IdSIuXkgGbbpVoqi5VG50)">
        <rect x="87" y="87" width="850" height="850" transform="matrix(1,0,0,1,0,0)" fill="rgb(120,144,156)" />
        <g id="CrossOver">
            <path d=" M 164 530 C 164 337.934 319.934 182 512 182 C 704.066 182 860 337.934 860 530 C 860 722.066 704.066 878 512 878 C 319.934 878 164 722.066 164 530 Z " fill="rgb(207,216,220)" />
            <path d=" M 187 530 C 187 350.628 332.628 205 512 205 C 691.372 205 837 350.628 837 530 C 837 709.372 691.372 855 512 855 C 332.628 855 187 709.372 187 530 Z " fill="rgb(84,110,122)" />
            <path d=" M 528.885 427.459 L 581.335 435.882 C 539.955 390.823 474.072 334.703 394.314 277 C 456.752 339.258 505.244 392.662 528.885 427.459 Z " fill="rgb(255,143,0)" />
            <path d=" M 403.438 691.242 L 458.569 691.242 C 384.994 532.811 484.055 465.461 743.408 489.098 C 385.29 324.45 210.359 495.996 403.438 691.242 Z " fill="rgb(40,53,147)" />
            <path d=" M 439.171 727.995 L 475.924 734.121 L 497.364 777 L 439.171 727.995 Z " fill="rgb(40,53,147)" />
            <path d=" M 693.382 682.054 C 659.916 746.794 541.684 755.568 466.736 734.121 C 391.788 712.674 335.036 702.727 264.592 669.802 C 527.834 721.112 629.541 663.555 568.382 489.672 C 584.95 486.622 605.558 485.343 630.021 484.887 C 690.674 567.89 715.475 639.315 693.382 682.054 Z " fill="rgb(255,143,0)" />
        </g>
    </g>
</svg>