<?xml version="1.0" standalone="no"?>
<!-- Generator: Gravit.io -->
<svg xmlns="http://www.w3.org/2000/svg" xmlns:xlink="http://www.w3.org/1999/xlink" style="isolation:isolate" viewBox="0 0 1024 1024" width="1024" height="1024">
    <defs>
        <clipPath id="_clipPath_9DKXS4y2XGxry4igKVW8eEnWbnv8OKiy">
            <rect width="1024" height="1024" />
        </clipPath>
    </defs>
    <g clip-path="url(#_clipPath_9DKXS4y2XGxry4igKVW8eEnWbnv8OKiy)">
        <rect x="87" y="87" width="850" height="850" transform="matrix(1,0,0,1,0,0)" fill="rgb(69,90,100)" />
        <path d="M 212.7 147 L 811.3 147 C 847.561 147 877 176.439 877 212.7 L 877 811.3 C 877 847.561 847.561 877 811.3 877 L 212.7 877 C 176.439 877 147 847.561 147 811.3 L 147 212.7 C 147 176.439 176.439 147 212.7 147 Z" style="stroke:none;fill:#000000;stroke-miterlimit:10;" />
        <path d=" M 212.7 137 L 811.3 137 C 831.4 137 850.6 145 864.8 159.2 C 879 173.4 887 192.6 887 212.7 L 887 811.3 C 887 831.4 879 850.6 864.8 864.8 C 850.6 879 831.4 887 811.3 887 L 212.7 887 C 192.6 887 173.4 879 159.2 864.8 C 145 850.6 137 831.4 137 811.3 L 137 212.7 C 137 192.6 145 173.4 159.2 159.2 C 173.4 145 192.6 137 212.7 137 Z  M 212.7 157 L 811.3 157 C 826.1 157 840.2 162.9 850.7 173.3 C 861.1 183.8 867 197.9 867 212.7 L 867 811.3 C 867 826.1 861.1 840.2 850.7 850.7 C 840.2 861.1 826.1 867 811.3 867 L 212.7 867 C 197.9 867 183.8 861.1 173.3 850.7 C 162.9 840.2 157 826.1 157 811.3 L 157 212.7 C 157 197.9 162.9 183.8 173.3 173.3 C 183.8 162.9 197.9 157 212.7 157 Z " fill-rule="evenodd" fill="rgb(189,189,189)" />
        <g id="cloud">
            <path d=" M 222.7 601.3 L 422.7 601.3 L 422.7 801.3 L 222.7 801.3 L 222.7 601.3 Z " fill="none" />
            <path d=" M 383.95 684.967 C 378.177 655.712 352.519 634.627 322.7 634.633 C 298.617 634.633 277.7 648.3 267.283 668.3 C 241.919 671.041 222.697 692.455 222.7 717.967 C 222.7 745.55 245.117 767.967 272.7 767.967 L 381.033 767.967 C 404.033 767.967 422.7 749.3 422.7 726.3 C 422.7 704.3 405.617 686.467 383.95 684.967 Z " fill="rgb(224,224,224)" />
        </g>
        <path d=" M 339.646 354.523 L 338.923 354.523 C 333.4 370.062 323.385 377.808 308.846 377.808 C 297.938 377.808 289.169 373.754 282.492 365.608 C 275.8 357.492 272.462 346.223 272.462 331.838 C 272.462 313.238 277.085 298.092 286.338 286.4 C 295.569 274.746 306.715 268.915 319.723 268.915 C 331.508 268.915 338.892 273.662 341.9 283.185 L 342.385 283.185 L 343.554 271.108 L 370.208 271.108 C 366.662 305.754 364.854 328.377 364.854 339.046 C 364.854 350.431 367.862 356.115 373.869 356.115 C 380.215 356.115 385.408 351.785 389.523 343.192 C 393.615 334.569 395.685 323.3 395.685 309.423 C 395.685 290.4 389.8 274.808 378.015 262.631 C 366.246 250.492 349.831 244.4 328.738 244.4 C 306.146 244.4 287.362 252.508 272.4 268.731 C 257.438 284.962 249.954 304.731 249.954 328.077 C 249.954 350.677 256.569 368.462 269.785 381.477 C 283.038 394.485 301.277 401.008 324.592 401.008 C 342.385 401.008 358.638 397.523 373.423 390.515 L 373.423 413.808 C 359.9 419.731 342.531 422.7 321.285 422.7 C 292.108 422.7 268.4 414.108 250.131 396.915 C 231.838 379.7 222.7 356.592 222.7 327.569 C 222.7 297.969 232.469 273.123 251.969 252.954 C 271.469 232.808 296.585 222.7 327.331 222.7 C 355.754 222.7 378.769 230.515 396.346 246.162 C 413.931 261.831 422.7 282.469 422.7 308.077 C 422.7 329.138 417.315 346.023 406.592 358.769 C 395.838 371.477 382.523 377.846 366.662 377.846 C 358.846 377.846 352.477 375.685 347.585 371.385 C 342.685 367.062 340.038 361.438 339.646 354.531 L 339.646 354.523 Z  M 323.877 290.131 C 316.777 290.131 310.985 294.308 306.531 302.631 C 302.054 310.985 299.838 320.631 299.838 331.592 C 299.838 339.408 301.369 345.477 304.4 349.831 C 307.438 354.192 311.338 356.354 316.177 356.354 C 323.6 356.354 329.462 352.269 333.731 344.031 C 337.962 335.831 340.1 324.862 340.1 311.131 C 340.1 304.608 338.623 299.5 335.654 295.746 C 332.708 292.023 328.769 290.131 323.869 290.131 L 323.877 290.131 Z " fill="rgb(224,224,224)" />
        <path d=" M 801.3 226.667 C 801.3 226.548 801.256 226.429 801.212 226.31 C 801.212 226.231 801.168 226.152 801.125 226.112 C 801.081 225.993 801.081 225.914 801.037 225.795 C 800.993 225.715 800.949 225.636 800.949 225.596 C 800.905 225.517 800.862 225.398 800.818 225.319 C 800.774 225.239 800.73 225.2 800.686 225.12 C 800.642 225.041 800.599 224.961 800.511 224.842 C 800.467 224.763 800.423 224.723 800.379 224.644 C 800.336 224.565 800.248 224.485 800.16 224.406 C 800.116 224.366 800.072 224.287 799.985 224.247 L 799.722 224.009 C 799.678 223.97 799.59 223.93 799.546 223.89 L 799.283 223.652 C 799.24 223.613 799.152 223.573 799.108 223.533 C 799.02 223.454 798.889 223.414 798.801 223.335 L 798.538 223.216 L 798.275 223.097 C 798.187 223.057 798.056 223.017 797.968 222.978 C 797.88 222.938 797.793 222.898 797.749 222.898 C 797.617 222.859 797.53 222.819 797.398 222.819 C 797.311 222.819 797.267 222.779 797.179 222.779 C 797.047 222.74 796.916 222.74 796.784 222.74 C 796.697 222.74 796.653 222.7 796.565 222.7 L 795.951 222.7 C 795.82 222.7 795.732 222.7 795.601 222.74 L 795.338 222.74 C 795.25 222.74 795.162 222.779 795.031 222.779 C 794.943 222.779 794.855 222.819 794.768 222.819 L 663.203 251.385 C 660.832 251.9 659.163 253.821 659.169 256.027 L 659.169 369.457 C 652.816 363.904 644.328 360.803 635.496 360.808 C 616.644 360.808 601.3 374.694 601.3 391.754 C 601.3 408.814 616.644 422.7 635.496 422.7 C 654.347 422.7 669.691 408.814 669.691 391.754 L 669.691 300.224 L 790.734 273.92 L 790.734 340.851 C 784.382 335.298 775.893 332.197 767.061 332.202 C 748.209 332.202 732.865 346.088 732.865 363.148 C 732.865 380.208 748.209 394.095 767.061 394.095 C 785.912 394.095 801.256 380.208 801.256 363.148 L 801.256 227.421 C 801.256 227.223 801.256 227.064 801.212 226.866 C 801.3 226.786 801.3 226.747 801.3 226.667 Z " fill="rgb(224,224,224)" />
        <path d=" M 709 601.3 C 653.737 601.3 609 646.037 609 701.3 C 609 756.563 653.737 801.3 709 801.3 C 764.263 801.3 809 756.563 809 701.3 C 809 646.037 764.263 601.3 709 601.3 Z  M 700.973 623.443 C 701.277 623.411 701.642 623.474 701.946 623.443 L 701.946 627.336 C 702.123 631.103 705.229 634.066 709 634.066 C 712.771 634.066 715.877 631.103 716.054 627.336 L 716.054 623.443 C 753.581 626.791 783.509 656.711 786.857 694.246 L 782.233 694.246 C 778.459 694.599 775.635 697.866 775.831 701.651 C 776.028 705.436 779.174 708.393 782.964 708.354 L 786.857 708.354 C 783.444 745.953 753.653 775.744 716.054 779.157 L 716.054 775.264 C 716.09 773.252 715.255 771.321 713.763 769.97 C 712.271 768.618 710.268 767.977 708.268 768.211 C 704.643 768.552 701.889 771.624 701.946 775.264 L 701.946 779.157 C 664.347 775.744 634.556 745.953 631.143 708.354 L 635.036 708.354 C 638.803 708.177 641.766 705.071 641.766 701.3 C 641.766 697.529 638.803 694.423 635.036 694.246 L 631.143 694.246 C 634.491 657.023 663.866 627.211 700.973 623.443 Z  M 709 642.424 C 705.169 642.424 703.527 645.827 703.402 647.773 L 701.214 688.89 C 697.049 691.506 694.16 696.006 694.16 701.3 C 694.16 709.452 700.856 716.14 709 716.14 C 709.428 716.14 709.794 715.929 710.215 715.898 L 743.304 745.585 C 744.83 746.917 748.777 748.139 752.312 744.612 C 755.87 741.077 754.835 736.881 753.527 735.363 L 723.84 701.541 L 723.84 701.3 C 723.84 695.827 720.741 691.202 716.295 688.648 L 714.598 647.773 C 714.505 645.827 712.807 642.416 709 642.416 L 709 642.424 Z " fill="rgb(224,224,224)" />
    </g>
</svg>