<?xml version="1.0" standalone="no"?><!-- Generator: Gravit.io --><svg xmlns="http://www.w3.org/2000/svg" xmlns:xlink="http://www.w3.org/1999/xlink" style="isolation:isolate" viewBox="0 0 1024 1024" width="1024" height="1024"><defs><clipPath id="_clipPath_0ovrgwMe5zwLI8QmA0JueQKlgJooprlh"><rect width="1024" height="1024"/></clipPath></defs><g clip-path="url(#_clipPath_0ovrgwMe5zwLI8QmA0JueQKlgJooprlh)"><rect x="85.877" y="85.877" width="850" height="850" transform="matrix(1,0,0,1,0,0)" fill="rgb(144,164,174)"/><g id="Dash"><path d=" M 208.159 403.256 L 566.522 215.701 C 581.456 207.885 599.392 213.928 606.552 229.187 L 807.174 656.782 C 814.334 672.041 807.011 688.267 790.832 692.993 L 423.901 800.176 C 407.722 804.902 388.033 796.726 379.961 781.929 L 195.727 444.227 C 187.655 429.43 193.226 411.072 208.159 403.256 Z " fill="rgb(67,160,71)"/><path d=" M 245.164 330.235 L 627.362 197.852 C 643.289 192.335 660.496 200.855 665.764 216.866 L 798.898 621.53 C 804.166 637.541 795.601 655.269 779.784 661.094 L 423.35 792.36 C 407.533 798.185 389.769 790.146 383.705 774.419 L 227.292 368.726 C 221.229 352.999 229.237 335.752 245.164 330.235 Z " fill="rgb(255,143,0)"/><path d=" M 319.178 283.19 L 718.508 218.875 C 735.149 216.195 750.835 227.529 753.515 244.17 L 830.467 721.961 C 833.147 738.602 821.813 754.288 805.172 756.968 L 405.842 821.283 C 389.201 823.964 373.515 812.629 370.835 795.988 L 293.883 318.197 C 291.203 301.556 302.537 285.87 319.178 283.19 Z " fill="rgb(81,45,168)"/><path d=" M 474.47 481.692 L 542.493 470.573 L 559.499 562.796 C 577.163 556.991 590.295 548.905 598.743 537.942 C 618.898 511.786 613.314 475.392 585.661 458.8 C 561.575 445.665 518.293 455.53 464.005 465.341 L 414.297 405.821 C 482.497 392.222 532.778 381.609 571.926 383.583 C 634.794 386.753 658.917 418.902 672.652 469.265 C 695.544 568.029 629.69 639.73 500.633 636.706 L 474.47 481.692 Z " fill="rgb(238,238,238)"/></g></g></svg>