<?xml version="1.0" standalone="no"?>
<!-- Generator: Gravit.io -->
<svg xmlns="http://www.w3.org/2000/svg" xmlns:xlink="http://www.w3.org/1999/xlink" style="isolation:isolate" viewBox="0 0 1024 1024" width="1024" height="1024">
    <defs>
        <clipPath id="_clipPath_SYTlt4ekwfhjgM0Js9AcucCl2DYxYdI3">
            <rect width="1024" height="1024" />
        </clipPath>
    </defs>
    <g clip-path="url(#_clipPath_SYTlt4ekwfhjgM0Js9AcucCl2DYxYdI3)">
        <rect x="88" y="87" width="850" height="850" transform="matrix(1,0,0,1,0,0)" fill="rgb(33,150,243)" />
        <rect x="87" y="719" width="850" height="218" transform="matrix(1,0,0,1,0,0)" fill="rgb(30,136,229)" />
        <rect x="87" y="719" width="89" height="218" transform="matrix(1,0,0,1,0,0)" fill="rgb(25,118,210)" />
        <rect x="119" y="749.5" width="819" height="157" transform="matrix(1,0,0,1,0,0)" fill="rgb(238,238,238)" />
        <rect x="119" y="749.5" width="57" height="157" transform="matrix(1,0,0,1,0,0)" fill="rgb(224,224,224)" />
        <path d=" M 575.36 627.47 L 575.36 627.47 Q 562.88 627.47 553.65 621.815 L 553.65 621.815 L 553.65 621.815 Q 544.42 616.16 539.48 605.565 L 539.48 605.565 L 539.48 605.565 Q 534.54 594.97 534.54 580.67 L 534.54 580.67 L 534.54 580.67 Q 534.54 566.24 539.48 555.645 L 539.48 555.645 L 539.48 555.645 Q 544.42 545.05 553.585 539.395 L 553.585 539.395 L 553.585 539.395 Q 562.75 533.74 575.36 533.74 L 575.36 533.74 L 575.36 533.74 Q 587.97 533.74 597.2 539.395 L 597.2 539.395 L 597.2 539.395 Q 606.43 545.05 611.37 555.58 L 611.37 555.58 L 611.37 555.58 Q 616.31 566.11 616.31 580.54 L 616.31 580.54 L 616.31 580.54 Q 616.31 594.97 611.37 605.565 L 611.37 605.565 L 611.37 605.565 Q 606.43 616.16 597.2 621.815 L 597.2 621.815 L 597.2 621.815 Q 587.97 627.47 575.36 627.47 L 575.36 627.47 Z  M 575.36 620.32 L 575.36 620.32 Q 590.83 620.32 599.41 609.92 L 599.41 609.92 L 599.41 609.92 Q 607.99 599.52 607.99 580.54 L 607.99 580.54 L 607.99 580.54 Q 607.99 561.56 599.475 551.225 L 599.475 551.225 L 599.475 551.225 Q 590.96 540.89 575.36 540.89 L 575.36 540.89 L 575.36 540.89 Q 559.89 540.89 551.375 551.29 L 551.375 551.29 L 551.375 551.29 Q 542.86 561.69 542.86 580.54 L 542.86 580.54 L 542.86 580.54 Q 542.86 599.39 551.375 609.855 L 551.375 609.855 L 551.375 609.855 Q 559.89 620.32 575.36 620.32 L 575.36 620.32 Z  M 704.58 534.13 L 704.58 534.13 Q 706.4 534.13 707.375 535.235 L 707.375 535.235 L 707.375 535.235 Q 708.35 536.34 708.35 538.29 L 708.35 538.29 L 708.35 622.92 L 708.35 622.92 Q 708.35 624.74 707.31 625.91 L 707.31 625.91 L 707.31 625.91 Q 706.27 627.08 704.45 627.08 L 704.45 627.08 L 704.45 627.08 Q 702.5 627.08 700.94 625.13 L 700.94 625.13 L 644 548.3 L 644 622.92 L 644 622.92 Q 644 624.74 642.96 625.91 L 642.96 625.91 L 642.96 625.91 Q 641.92 627.08 640.23 627.08 L 640.23 627.08 L 640.23 627.08 Q 638.28 627.08 637.37 625.975 L 637.37 625.975 L 637.37 625.975 Q 636.46 624.87 636.46 622.92 L 636.46 622.92 L 636.46 538.29 L 636.46 538.29 Q 636.46 536.47 637.565 535.3 L 637.565 535.3 L 637.565 535.3 Q 638.67 534.13 640.62 534.13 L 640.62 534.13 L 640.62 534.13 Q 642.7 534.13 644 536.08 L 644 536.08 L 700.81 612.78 L 700.81 538.29 L 700.81 538.29 Q 700.81 536.47 701.85 535.3 L 701.85 535.3 L 701.85 535.3 Q 702.89 534.13 704.58 534.13 L 704.58 534.13 Z  M 736.3 626.43 L 736.3 626.43 Q 734.48 626.43 733.245 625.26 L 733.245 625.26 L 733.245 625.26 Q 732.01 624.09 732.01 622.4 L 732.01 622.4 L 732.01 538.81 L 732.01 538.81 Q 732.01 537.12 733.245 535.95 L 733.245 535.95 L 733.245 535.95 Q 734.48 534.78 736.3 534.78 L 736.3 534.78 L 785.7 534.78 L 785.7 534.78 Q 787.39 534.78 788.365 535.69 L 788.365 535.69 L 788.365 535.69 Q 789.34 536.6 789.34 538.29 L 789.34 538.29 L 789.34 538.29 Q 789.34 539.85 788.365 540.76 L 788.365 540.76 L 788.365 540.76 Q 787.39 541.67 785.7 541.67 L 785.7 541.67 L 739.94 541.67 L 739.94 576.38 L 783.1 576.38 L 783.1 576.38 Q 784.79 576.38 785.765 577.29 L 785.765 577.29 L 785.765 577.29 Q 786.74 578.2 786.74 579.89 L 786.74 579.89 L 786.74 579.89 Q 786.74 581.58 785.765 582.49 L 785.765 582.49 L 785.765 582.49 Q 784.79 583.4 783.1 583.4 L 783.1 583.4 L 739.94 583.4 L 739.94 619.54 L 785.7 619.54 L 785.7 619.54 Q 787.39 619.54 788.365 620.385 L 788.365 620.385 L 788.365 620.385 Q 789.34 621.23 789.34 622.92 L 789.34 622.92 L 789.34 622.92 Q 789.34 624.61 788.365 625.52 L 788.365 625.52 L 788.365 625.52 Q 787.39 626.43 785.7 626.43 L 785.7 626.43 L 736.3 626.43 Z  M 244.12 626.43 L 244.12 626.43 Q 242.3 626.43 241.065 625.26 L 241.065 625.26 L 241.065 625.26 Q 239.83 624.09 239.83 622.4 L 239.83 622.4 L 239.83 538.81 L 239.83 538.81 Q 239.83 537.12 241.065 535.95 L 241.065 535.95 L 241.065 535.95 Q 242.3 534.78 244.12 534.78 L 244.12 534.78 L 269.34 534.78 L 269.34 534.78 Q 291.05 534.78 302.945 546.61 L 302.945 546.61 L 302.945 546.61 Q 314.84 558.44 314.84 580.54 L 314.84 580.54 L 314.84 580.54 Q 314.84 602.64 302.945 614.535 L 302.945 614.535 L 302.945 614.535 Q 291.05 626.43 269.34 626.43 L 269.34 626.43 L 244.12 626.43 Z  M 247.89 619.41 L 268.95 619.41 L 268.95 619.41 Q 306.39 619.41 306.39 580.54 L 306.39 580.54 L 306.39 580.54 Q 306.39 541.8 268.95 541.8 L 268.95 541.8 L 247.89 541.8 L 247.89 619.41 Z  M 412.08 622.14 L 412.08 622.14 Q 412.47 622.92 412.47 623.7 L 412.47 623.7 L 412.47 623.7 Q 412.47 625.13 411.3 626.105 L 411.3 626.105 L 411.3 626.105 Q 410.13 627.08 408.57 627.08 L 408.57 627.08 L 408.57 627.08 Q 407.53 627.08 406.555 626.43 L 406.555 626.43 L 406.555 626.43 Q 405.58 625.78 405.06 624.61 L 405.06 624.61 L 395.18 601.99 L 344.74 601.99 L 334.73 624.61 L 334.73 624.61 Q 333.56 627.08 331.09 627.08 L 331.09 627.08 L 331.09 627.08 Q 329.53 627.08 328.425 626.105 L 328.425 626.105 L 328.425 626.105 Q 327.32 625.13 327.32 623.57 L 327.32 623.57 L 327.32 623.57 Q 327.32 622.66 327.58 622.14 L 327.58 622.14 L 365.54 536.86 L 365.54 536.86 Q 366.71 534 369.83 534 L 369.83 534 L 369.83 534 Q 371.26 534 372.495 534.78 L 372.495 534.78 L 372.495 534.78 Q 373.73 535.56 374.25 536.86 L 374.25 536.86 L 412.08 622.14 Z  M 369.96 544.66 L 347.73 594.97 L 392.06 594.97 L 369.96 544.66 Z  M 485.92 535.82 L 485.92 535.82 Q 487.09 534.26 488.78 534.26 L 488.78 534.26 L 488.78 534.26 Q 490.21 534.26 491.25 535.3 L 491.25 535.3 L 491.25 535.3 Q 492.29 536.34 492.29 537.9 L 492.29 537.9 L 492.29 537.9 Q 492.29 539.33 491.38 540.37 L 491.38 540.37 L 458.88 582.23 L 458.88 622.92 L 458.88 622.92 Q 458.88 624.74 457.84 625.91 L 457.84 625.91 L 457.84 625.91 Q 456.8 627.08 454.98 627.08 L 454.98 627.08 L 454.98 627.08 Q 453.16 627.08 452.055 625.91 L 452.055 625.91 L 452.055 625.91 Q 450.95 624.74 450.95 622.92 L 450.95 622.92 L 450.95 581.97 L 418.58 540.37 L 418.58 540.37 Q 417.67 539.33 417.67 537.9 L 417.67 537.9 L 417.67 537.9 Q 417.67 536.47 418.71 535.365 L 418.71 535.365 L 418.71 535.365 Q 419.75 534.26 421.18 534.26 L 421.18 534.26 L 421.18 534.26 Q 422.87 534.26 424.04 535.82 L 424.04 535.82 L 454.98 575.86 L 485.92 535.82 Z " fill-rule="evenodd" fill="rgb(238,238,238)" />
        <path d=" M 405.5 87 L 618.5 87 L 618.5 444 L 513 381 L 405.5 444 L 405.5 87 Z " fill="rgb(235,235,235)" />
    </g>
</svg>