<?xml version="1.0" standalone="no"?><!-- Generator: Gravit.io --><svg xmlns="http://www.w3.org/2000/svg" xmlns:xlink="http://www.w3.org/1999/xlink" style="isolation:isolate" viewBox="0 0 1024 1024" width="1024" height="1024"><defs><clipPath id="_clipPath_dldzIr6LVJLN4SuYA70s22ExD2BPFddy"><rect width="1024" height="1024"/></clipPath></defs><g clip-path="url(#_clipPath_dldzIr6LVJLN4SuYA70s22ExD2BPFddy)"><g id="App without icon"><rect x="90" y="85" width="850" height="850" transform="matrix(1,0,0,1,0,0)" fill="rgb(227,242,253)"/><path d=" M 90 85 L 940 85 L 940 935 L 90 935 L 90 85 Z  M 118.977 113.977 L 911.023 113.977 L 911.023 906.023 L 118.977 906.023 L 118.977 113.977 Z " fill-rule="evenodd" fill="rgb(25,118,210)"/><g id="Accessories"><g id="Ruler"><path d=" M 245 374.583 L 245 474.203 L 785 474.203 L 785 374.583 L 245 374.583 Z " fill-rule="evenodd" fill="rgb(139,104,69)" fill-opacity="0.8369715073529411"/><path d=" M 265 398.937 L 265 399.468 C 265 402.081 267.121 404.203 269.735 404.203 L 760.265 404.203 C 762.879 404.203 765 402.081 765 399.468 L 765 398.937 C 765 396.324 762.879 394.203 760.265 394.203 L 269.735 394.203 C 267.121 394.203 265 396.324 265 398.937 Z " fill-rule="evenodd" fill="rgb(118,89,60)" fill-opacity="0.8256261488970589"/></g><g id="Pen"><path d=" M 285.443 588.435 L 295.334 515.794 C 326.969 504.007 350.454 519.271 354.041 553.919 L 290.922 591.993 Q 287.107 594.111 285.953 593.362 Q 284.8 592.613 285.443 588.435 Z " fill="rgb(255,204,128)"/><path d=" M 420.601 322.9 L 479.308 361.025 L 354.041 553.919 C 338.268 531.471 314.794 516.263 295.334 515.794 L 420.601 322.9 Z " fill="rgb(66,165,245)"/><rect x="416.029" y="302.409" width="90" height="45" transform="matrix(0.839,0.545,-0.545,0.839,251.336,-198.677)" fill="rgb(189,189,189)"/><path d=" M 483.462 268.333 L 503.59 281.404 C 514.236 288.318 517.266 302.574 510.353 313.22 L 501.094 327.478 L 442.387 289.353 L 451.646 275.096 C 458.559 264.45 472.816 261.419 483.462 268.333 Z " fill="rgb(139,195,74)"/></g><g id="Paint Pencil"><path d=" M 736.769 596.879 Q 713.719 602.756 703.13 604.328 C 700.4 604.733 697.369 602.975 696.365 600.405 L 653.918 491.746 L 696.866 466.144 L 772.259 555.163 C 774.043 557.269 774.095 560.731 772.376 562.89 Q 764.963 572.202 749.875 588.958 C 746.92 592.239 741.048 595.788 736.769 596.879 Z " fill="rgb(121,85,72)"/><path d=" M 617.992 430.56 Q 481.575 187.014 496.177 178.309 Q 510.78 169.604 661.023 406.017 C 651.734 421.673 635.63 430.176 617.992 430.56 Z " fill="rgb(136,14,79)"/><path d=" M 617.992 430.56 C 633.453 428.07 649.584 419.574 661.023 406.017 L 696.866 466.144 C 685.859 478.924 669.839 488.486 653.918 491.746 L 617.992 430.56 Z " fill="rgb(235,235,235)"/></g></g><path d=" M 508.38 784.8 C 508.38 783.6 507.98 782.64 507.1 781.92 C 506.3 781.2 505.1 780.8 503.5 780.8 C 502.3 780.8 500.94 781.04 499.42 781.44 C 497.34 781.92 495.98 782.16 494.86 782.16 C 493.26 782.16 492.06 781.76 491.18 781.04 C 490.3 780.32 489.82 779.44 489.82 778.32 C 489.82 777.28 490.14 776.4 490.94 775.68 C 491.66 774.96 492.78 774.16 494.38 774.24 L 497.34 774.4 C 501.1 774.4 503.02 773.84 503.02 770.56 C 503.02 766.8 501.02 766.16 497.18 766.16 L 493.66 766.4 C 492.7 766.4 491.98 766.16 491.42 765.68 C 490.86 765.2 490.54 764.56 490.54 763.84 C 490.54 762.96 491.02 762.16 491.98 761.44 C 492.86 760.8 494.22 760.48 495.74 760.48 C 497.26 760.48 498.46 760.56 499.5 760.8 C 500.86 760.96 501.82 761.12 502.46 761.12 C 505.58 761.12 507.1 759.76 507.1 757.04 C 507.1 755.52 506.46 754.24 505.02 753.2 C 503.58 752.24 502.14 751.6 500.54 751.36 C 498.94 751.12 497.18 750.96 495.26 750.96 C 490.94 750.96 485.58 751.12 482.78 753.52 C 479.82 755.92 478.78 758.64 478.78 761.68 C 478.78 764.72 481.34 768.16 485.26 770.32 C 482.86 771.52 481.02 772.88 479.74 774.56 C 478.38 776.24 477.98 777.6 477.98 779.44 C 477.98 782.56 479.42 786 482.46 788.4 C 485.5 790.88 489.82 791.76 494.38 791.76 C 495.82 791.76 497.26 791.68 498.62 791.52 C 499.98 791.36 501.5 791.04 503.1 790.56 C 504.62 790.08 505.9 789.44 506.94 788.4 C 507.9 787.44 508.38 786.24 508.38 784.8 Z  M 523.02 792.24 C 525.02 792.24 526.78 791.68 528.14 790.56 C 529.5 789.52 530.14 787.84 530.14 785.68 L 530.14 758.16 C 530.14 756 529.5 754.32 528.14 753.2 C 526.78 752.16 525.02 751.6 523.02 751.6 C 521.02 751.6 519.34 752.16 517.98 753.2 C 516.62 754.32 515.9 756 515.9 758.16 L 515.9 785.68 C 515.9 787.84 516.62 789.52 517.98 790.56 C 519.34 791.68 521.02 792.24 523.02 792.24 Z  M 580.14 780.72 L 570.22 771.2 L 578.94 762.56 C 580.3 761.2 581.02 759.68 581.02 758 C 581.02 756.32 580.38 754.88 579.1 753.52 C 577.74 752.24 576.22 751.6 574.54 751.6 C 572.78 751.6 571.26 752.32 569.9 753.68 L 555.1 768.72 L 555.1 758.16 C 555.1 756 554.46 754.32 553.1 753.2 C 551.74 752.16 549.98 751.6 547.98 751.6 C 545.98 751.6 544.3 752.16 542.94 753.2 C 541.58 754.32 540.86 756 540.86 758.16 L 540.86 785.52 C 540.86 787.68 541.58 789.36 542.94 790.48 C 544.3 791.6 545.98 792.16 547.98 792.16 C 549.98 792.16 551.74 791.6 553.1 790.48 C 554.46 789.36 555.1 787.68 555.1 785.52 L 555.1 774.72 L 571.34 790.16 C 572.86 791.52 574.3 792.16 575.82 792.16 C 577.58 792.16 579.1 791.44 580.38 790.08 C 581.58 788.72 582.22 787.12 582.22 785.36 C 582.22 783.6 581.5 782.08 580.14 780.72 Z  M 609.26 792.4 C 613.66 792.4 617.42 791.52 620.7 789.84 C 623.98 788.16 626.46 785.84 628.3 782.72 C 630.06 779.6 630.94 776 630.94 771.84 C 630.94 767.68 630.06 764.08 628.3 760.96 C 626.46 757.92 623.98 755.6 620.7 753.92 C 617.42 752.24 613.66 751.44 609.26 751.44 C 604.86 751.44 601.1 752.24 597.82 753.92 C 594.54 755.6 592.06 757.92 590.3 760.96 C 588.46 764.08 587.58 767.68 587.58 771.84 C 587.58 776 588.46 779.6 590.3 782.72 C 592.06 785.84 594.62 788.16 597.9 789.84 C 601.18 791.52 604.94 792.4 609.26 792.4 Z  M 609.26 781.76 C 604.22 781.76 601.66 778.48 601.66 771.84 C 601.66 765.2 604.22 761.92 609.26 761.92 C 614.3 761.92 616.86 765.2 616.86 771.84 C 616.86 778.48 614.3 781.76 609.26 781.76 Z  M 665.66 755.6 L 657.26 773.92 L 648.78 755.6 C 648.22 754.24 647.34 753.28 646.3 752.56 C 645.18 751.92 643.98 751.6 642.7 751.6 C 640.78 751.6 639.1 752.16 637.66 753.36 C 636.14 754.56 635.42 756.08 635.42 757.76 C 635.42 758.48 635.66 759.36 636.06 760.32 L 650.06 788.16 C 650.7 789.52 651.66 790.48 652.86 791.2 C 654.06 792 655.42 792.32 656.86 792.32 C 658.3 792.32 659.66 792 660.86 791.2 C 662.06 790.48 662.94 789.52 663.58 788.16 L 677.58 760.32 C 677.98 759.44 678.22 758.56 678.22 757.68 C 678.22 756 677.58 754.64 676.22 753.44 C 674.86 752.24 673.26 751.68 671.5 751.68 C 670.3 751.68 669.18 752 668.14 752.64 C 667.1 753.28 666.22 754.24 665.66 755.6 Z  M 696.86 792.24 C 698.86 792.24 700.62 791.68 701.98 790.56 C 703.34 789.52 703.98 787.84 703.98 785.68 L 703.98 758.16 C 703.98 756 703.34 754.32 701.98 753.2 C 700.62 752.16 698.86 751.6 696.86 751.6 C 694.86 751.6 693.18 752.16 691.82 753.2 C 690.46 754.32 689.74 756 689.74 758.16 L 689.74 785.68 C 689.74 787.84 690.46 789.52 691.82 790.56 C 693.18 791.68 694.86 792.24 696.86 792.24 Z  M 700.7 744.16 L 706.62 735.12 C 707.9 733.12 708.14 731.28 707.42 729.6 C 706.78 728.16 705.74 727.2 704.22 726.64 C 702.7 726.24 701.26 726.24 699.82 726.88 C 698.94 727.2 698.14 727.84 697.5 728.64 C 696.94 729.52 696.38 730.56 696.14 731.76 L 693.98 741.6 C 693.74 742.48 693.82 743.36 694.14 744.16 C 694.46 744.96 695.1 745.6 696.06 746 C 697.02 746.32 697.9 746.32 698.86 745.92 C 699.66 745.52 700.3 744.96 700.7 744.16 Z  M 741.26 773.44 C 741.26 775.68 740.62 777.52 739.42 778.88 C 738.22 780.32 736.62 780.96 734.46 780.96 C 732.38 780.96 730.7 780.16 729.58 778.48 C 728.38 776.8 727.74 774.88 727.74 772.56 C 727.74 770.56 728.38 768.8 729.58 767.2 C 730.78 765.6 732.38 764.8 734.38 764.8 C 736.46 764.8 738.14 765.6 739.34 767.28 C 740.62 768.96 741.26 770.96 741.26 773.44 Z  M 736.46 737.2 C 731.9 737.2 728.22 738.24 725.5 740.32 C 722.78 742.4 721.5 744.96 721.5 747.84 C 721.5 749.44 722.14 751.04 723.26 752.72 C 724.46 754.48 726.06 756 728.22 757.12 C 724.38 758.16 721.58 760.32 719.5 763.28 C 717.5 766.32 716.46 769.52 716.46 772.64 C 716.46 777.92 718.06 782.48 721.34 786.16 C 724.62 789.84 729.02 791.76 734.54 791.76 C 740.06 791.76 744.46 789.92 747.66 786.4 C 750.78 782.8 752.38 778.32 752.38 773.04 C 752.38 763.84 747.42 757.6 737.58 754.32 C 735.82 753.68 734.54 752.96 733.58 752.16 C 732.54 751.36 731.98 750.56 731.98 749.68 C 731.98 747.52 733.58 746.48 736.86 746.48 C 738.62 746.48 740.14 746.72 741.58 747.28 C 742.94 747.84 744.06 748 744.86 748 C 746.14 748 747.18 747.68 747.98 747.04 C 748.78 746.4 749.1 745.52 749.1 744.4 C 749.1 742.08 747.9 740.24 745.58 739.04 C 743.18 737.84 740.14 737.2 736.46 737.2 Z  M 767.58 792.24 C 769.58 792.24 771.34 791.68 772.7 790.56 C 774.06 789.52 774.7 787.84 774.7 785.68 L 774.7 758.16 C 774.7 756 774.06 754.32 772.7 753.2 C 771.34 752.16 769.58 751.6 767.58 751.6 C 765.58 751.6 763.9 752.16 762.54 753.2 C 761.18 754.32 760.46 756 760.46 758.16 L 760.46 785.68 C 760.46 787.84 761.18 789.52 762.54 790.56 C 763.9 791.68 765.58 792.24 767.58 792.24 Z  M 804.62 792.4 C 809.02 792.4 812.78 791.52 816.06 789.84 C 819.34 788.16 821.82 785.84 823.66 782.72 C 825.42 779.6 826.3 776 826.3 771.84 C 826.3 767.68 825.42 764.08 823.66 760.96 C 821.82 757.92 819.34 755.6 816.06 753.92 C 812.78 752.24 809.02 751.44 804.62 751.44 C 800.22 751.44 796.46 752.24 793.18 753.92 C 789.9 755.6 787.42 757.92 785.66 760.96 C 783.82 764.08 782.94 767.68 782.94 771.84 C 782.94 776 783.82 779.6 785.66 782.72 C 787.42 785.84 789.98 788.16 793.26 789.84 C 796.54 791.52 800.3 792.4 804.62 792.4 Z  M 804.62 781.76 C 799.58 781.76 797.02 778.48 797.02 771.84 C 797.02 765.2 799.58 761.92 804.62 761.92 C 809.66 761.92 812.22 765.2 812.22 771.84 C 812.22 778.48 809.66 781.76 804.62 781.76 Z  M 270.78 781.12 L 255.5 763.36 L 270.46 746 C 271.58 744.64 272.14 743.2 272.14 741.68 C 272.14 739.84 271.42 738.24 270.06 736.88 C 268.62 735.52 267.02 734.88 265.18 734.88 C 263.34 734.88 261.74 735.68 260.46 737.28 L 247.02 753.28 L 233.5 737.28 C 232.14 735.68 230.46 734.88 228.62 734.88 C 226.78 734.88 225.18 735.52 223.82 736.88 C 222.38 738.24 221.66 739.84 221.66 741.68 C 221.66 743.2 222.22 744.64 223.42 746 L 238.38 763.36 L 223.02 781.12 C 221.9 782.48 221.34 783.92 221.34 785.44 C 221.34 787.28 222.06 788.88 223.5 790.24 C 224.86 791.6 226.46 792.32 228.22 792.32 C 230.06 792.32 231.66 791.52 233.02 789.92 L 247.02 773.44 L 260.78 789.92 C 262.14 791.52 263.82 792.32 265.66 792.32 C 267.42 792.32 269.02 791.6 270.46 790.24 C 271.82 788.88 272.54 787.36 272.54 785.52 C 272.54 783.92 271.98 782.48 270.78 781.12 Z  M 327.1 774.16 C 327.1 769.04 326.14 764.48 324.22 760.4 C 322.22 756.4 319.66 753.2 316.38 750.72 C 315.18 749.76 313.58 749.36 311.9 749.36 C 310.14 749.36 308.78 749.84 307.74 750.8 C 306.62 751.76 306.06 752.96 306.06 754.4 C 306.06 755.6 306.7 756.88 308.06 758.32 C 312.3 762.88 314.38 768.08 314.38 774.16 C 314.38 776.24 313.9 777.84 313.1 779.04 C 312.3 780.24 311.26 780.88 310.22 780.88 C 309.34 780.88 308.7 780.48 308.14 779.68 C 307.58 778.88 307.26 777.76 307.26 776.32 L 307.26 770.64 C 307.26 766.88 305.66 764.96 302.46 764.96 C 299.1 764.96 297.42 766.96 297.42 770.88 L 297.42 776.32 C 297.42 777.76 297.18 778.88 296.62 779.68 C 296.06 780.48 295.34 780.88 294.46 780.88 C 293.42 780.88 292.38 780.32 291.66 779.12 C 290.86 777.92 290.38 776.24 290.38 774.24 C 290.38 767.52 292.54 762.16 296.86 758 C 297.98 756.8 298.54 755.68 298.54 754.48 C 298.54 753.12 298.06 751.92 296.94 750.96 C 295.9 750 294.54 749.52 292.78 749.52 C 290.94 749.52 289.42 749.92 288.22 750.88 C 285.1 753.44 282.54 756.72 280.54 760.88 C 278.46 765.04 277.5 769.6 277.5 774.56 C 277.5 779.44 279.02 783.6 282.06 786.8 C 285.1 790.08 288.62 791.68 292.46 791.68 C 294.7 791.68 296.7 790.8 298.62 789.04 C 300.46 787.36 301.58 783.92 302.14 781.2 C 302.78 784.24 303.98 787.68 305.82 789.36 C 307.58 790.96 309.66 791.76 311.98 791.76 C 315.9 791.76 319.5 790.16 322.54 786.88 C 325.58 783.68 327.1 779.44 327.1 774.16 Z  M 362.46 773.6 C 362.46 778.8 359.74 782.72 355.9 782.72 C 351.9 782.72 348.78 779.2 348.78 773.12 C 348.78 766.96 351.74 763.12 356.06 763.12 C 360.22 763.12 362.46 767.36 362.46 773.6 Z  M 341.34 807.76 C 345.02 807.76 348.7 805.76 348.7 802.16 L 348.7 788.08 C 349.66 789.84 350.94 791.12 352.62 792.08 C 354.3 793.04 356.06 793.52 357.98 793.52 C 367.1 793.52 373.1 784.4 373.1 773.6 C 373.1 761.44 367.66 752.4 355.74 752.4 C 341.9 752.4 334.38 761.44 334.38 775.84 L 334.38 802.16 C 334.38 805.76 337.9 807.76 341.34 807.76 Z  M 393.42 792.24 C 395.42 792.24 397.18 791.68 398.54 790.56 C 399.9 789.52 400.54 787.84 400.54 785.68 L 400.54 758.16 C 400.54 756 399.9 754.32 398.54 753.2 C 397.18 752.16 395.42 751.6 393.42 751.6 C 391.42 751.6 389.74 752.16 388.38 753.2 C 387.02 754.32 386.3 756 386.3 758.16 L 386.3 785.68 C 386.3 787.84 387.02 789.52 388.38 790.56 C 389.74 791.68 391.42 792.24 393.42 792.24 Z  M 397.26 744.16 L 403.18 735.12 C 404.46 733.12 404.7 731.28 403.98 729.6 C 403.34 728.16 402.3 727.2 400.78 726.64 C 399.26 726.24 397.82 726.24 396.38 726.88 C 395.5 727.2 394.7 727.84 394.06 728.64 C 393.5 729.52 392.94 730.56 392.7 731.76 L 390.54 741.6 C 390.3 742.48 390.38 743.36 390.7 744.16 C 391.02 744.96 391.66 745.6 392.62 746 C 393.58 746.32 394.46 746.32 395.42 745.92 C 396.22 745.52 396.86 744.96 397.26 744.16 Z  M 444.78 764.88 C 446.38 764.88 447.82 764.48 448.94 763.2 C 449.98 762.08 450.14 760.56 450.14 758.96 C 450.14 757.92 449.82 756.88 449.02 755.84 C 446.78 752.88 441.26 751.52 437.18 751.52 C 431.5 751.52 424.78 753.6 420.3 757.76 C 415.82 762 413.5 767.2 413.5 773.44 C 413.5 775.84 413.74 777.92 414.22 779.92 C 414.62 781.84 415.1 783.44 415.82 784.88 C 416.7 787.04 419.42 789.84 421.34 791.12 C 423.5 792.64 426.22 793.84 430.06 794.56 C 432.54 795.04 433.98 797.12 433.98 798.56 C 433.98 798.8 433.98 799.36 433.9 800.08 C 433.82 800.8 433.74 801.44 433.74 802 C 433.74 805.28 436.86 807.36 440.86 807.36 C 445.9 807.36 448.94 801.2 448.94 795.76 C 448.94 792.72 447.42 789.6 445.1 787.68 C 442.62 785.68 439.1 784.96 435.58 784.16 C 432.38 783.28 429.42 782.56 427.74 780.64 C 427.26 780.08 426.78 779.2 426.38 778.08 C 425.98 776.96 425.74 774.96 425.74 773.44 C 425.74 770.16 426.7 767.76 428.62 765.84 C 430.54 763.84 432.86 762.8 435.58 762.8 C 439.1 762.8 441.34 764.88 444.78 764.88 Z " fill-rule="evenodd" fill="rgb(25,118,210)"/></g></g></svg>