<?xml version="1.0" standalone="no"?><!-- Generator: Gravit.io --><svg xmlns="http://www.w3.org/2000/svg" xmlns:xlink="http://www.w3.org/1999/xlink" style="isolation:isolate" viewBox="0 0 1024 1024" width="1024" height="1024"><defs><clipPath id="_clipPath_8GvEBPL2MWF8rgYqRZnYITraR7uHYbP5"><rect width="1024" height="1024"/></clipPath></defs><g clip-path="url(#_clipPath_8GvEBPL2MWF8rgYqRZnYITraR7uHYbP5)"><rect x="87" y="87" width="850" height="850" transform="matrix(1,0,0,1,0,0)" fill="rgb(238,238,238)"/><g id="Group"><rect x="136.818" y="137" width="750" height="750" transform="matrix(1,0,0,1,0,0)" fill="none" vector-effect="non-scaling-stroke" stroke-width="25" stroke="rgb(21,101,192)" stroke-linejoin="miter" stroke-linecap="square" stroke-miterlimit="3"/><path d=" M 137.182 273.795 L 518.515 463.636 L 887.182 274.242" fill="none" vector-effect="non-scaling-stroke" stroke-width="25" stroke="rgb(21,101,192)" stroke-linejoin="bevel" stroke-linecap="butt" stroke-miterlimit="3"/></g><g transform="matrix(1,0,0,1,199.121,693.697)"><text transform="matrix(1,0,0,1,0,28.564)" style="font-family:&quot;.SF Compact Rounded&quot;;font-weight:700;font-size:30px;font-style:normal;fill:#212121;stroke:none;">From:</text><text transform="matrix(1,0,0,1,0,64.365)" style="font-family:&quot;.SF Compact Rounded&quot;;font-weight:400;font-size:30px;font-style:normal;fill:#212121;stroke:none;">Sir Jonathan Paul Ive</text><text transform="matrix(1,0,0,1,0,100.166)" style="font-family:&quot;.SF Compact Rounded&quot;;font-weight:400;font-size:30px;font-style:normal;fill:#212121;stroke:none;">Pacific Heights</text><text transform="matrix(1,0,0,1,0,135.967)" style="font-family:&quot;.SF Compact Rounded&quot;;font-weight:400;font-size:30px;font-style:normal;fill:#212121;stroke:none;">San Francisco, California, USA</text></g></g></svg>