<?xml version="1.0" standalone="no"?><!-- Generator: Gravit.io --><svg xmlns="http://www.w3.org/2000/svg" xmlns:xlink="http://www.w3.org/1999/xlink" style="isolation:isolate" viewBox="0 0 1024 1024" width="1024" height="1024"><defs><clipPath id="_clipPath_Ab2XenTvT6Un5d38S93leRJXOeW7B1DA"><rect width="1024" height="1024"/></clipPath></defs><g clip-path="url(#_clipPath_Ab2XenTvT6Un5d38S93leRJXOeW7B1DA)"><g id="App without icon"><rect x="87" y="87" width="850" height="850" transform="matrix(1,0,0,1,0,0)" fill="rgb(227,242,253)"/><path d=" M 87 87 L 937 87 L 937 937 L 87 937 L 87 87 Z  M 115.977 115.977 L 908.023 115.977 L 908.023 908.023 L 115.977 908.023 L 115.977 115.977 Z " fill-rule="evenodd" fill="rgb(25,118,210)"/><g id="Accessories"><g id="Ruler"><path d=" M 242 376.583 L 242 476.203 L 782 476.203 L 782 376.583 L 242 376.583 Z " fill-rule="evenodd" fill="rgb(139,104,69)" fill-opacity="0.8369715073529411"/><path d=" M 262 400.937 L 262 401.468 C 262 404.081 264.121 406.203 266.735 406.203 L 757.265 406.203 C 759.879 406.203 762 404.081 762 401.468 L 762 400.937 C 762 398.324 759.879 396.203 757.265 396.203 L 266.735 396.203 C 264.121 396.203 262 398.324 262 400.937 Z " fill-rule="evenodd" fill="rgb(118,89,60)" fill-opacity="0.8256261488970589"/></g><g id="Pen"><path d=" M 282.443 590.435 L 292.334 517.794 C 323.969 506.007 347.454 521.271 351.041 555.919 L 287.922 593.993 Q 284.107 596.111 282.953 595.362 Q 281.8 594.613 282.443 590.435 Z " fill="rgb(255,204,128)"/><path d=" M 417.601 324.9 L 476.308 363.025 L 351.041 555.919 C 335.268 533.471 311.794 518.263 292.334 517.794 L 417.601 324.9 Z " fill="rgb(66,165,245)"/><rect x="413.029" y="304.409" width="90" height="45" transform="matrix(0.839,0.545,-0.545,0.839,251.941,-196.721)" fill="rgb(189,189,189)"/><path d=" M 480.462 270.333 L 500.59 283.404 C 511.236 290.318 514.266 304.574 507.353 315.22 L 498.094 329.478 L 439.387 291.353 L 448.646 277.096 C 455.559 266.45 469.816 263.419 480.462 270.333 Z " fill="rgb(139,195,74)"/></g><g id="Paint Pencil"><path d=" M 733.769 598.879 Q 710.719 604.756 700.13 606.328 C 697.4 606.733 694.369 604.975 693.365 602.405 L 650.918 493.746 L 693.866 468.144 L 769.259 557.163 C 771.043 559.269 771.095 562.731 769.376 564.89 Q 761.963 574.202 746.875 590.958 C 743.92 594.239 738.048 597.788 733.769 598.879 Z " fill="rgb(121,85,72)"/><path d=" M 614.992 432.56 Q 478.575 189.014 493.177 180.309 Q 507.78 171.604 658.023 408.017 C 648.734 423.673 632.63 432.176 614.992 432.56 Z " fill="rgb(136,14,79)"/><path d=" M 614.992 432.56 C 630.453 430.07 646.584 421.574 658.023 408.017 L 693.866 468.144 C 682.859 480.924 666.839 490.486 650.918 493.746 L 614.992 432.56 Z " fill="rgb(235,235,235)"/></g></g><path d=" M 492.16 796.8 L 492.16 796.8 Q 489.12 796.8 487.08 795.16 L 487.08 795.16 L 487.08 795.16 Q 485.04 793.52 485.04 790.24 L 485.04 790.24 L 485.04 762.72 L 485.04 762.72 Q 485.04 759.44 487.08 757.8 L 487.08 757.8 L 487.08 757.8 Q 489.12 756.16 492.16 756.16 L 492.16 756.16 L 492.16 756.16 Q 495.2 756.16 497.24 757.8 L 497.24 757.8 L 497.24 757.8 Q 499.28 759.44 499.28 762.72 L 499.28 762.72 L 499.28 790.24 L 499.28 790.24 Q 499.28 793.52 497.24 795.16 L 497.24 795.16 L 497.24 795.16 Q 495.2 796.8 492.16 796.8 L 492.16 796.8 Z  M 492.16 750.56 L 492.16 750.56 Q 488.56 750.56 486.44 748.68 L 486.44 748.68 L 486.44 748.68 Q 484.32 746.8 484.32 743.68 L 484.32 743.68 L 484.32 743.68 Q 484.32 740.56 486.44 738.72 L 486.44 738.72 L 486.44 738.72 Q 488.56 736.88 492.16 736.88 L 492.16 736.88 L 492.16 736.88 Q 495.68 736.88 497.84 738.72 L 497.84 738.72 L 497.84 738.72 Q 500 740.56 500 743.68 L 500 743.68 L 500 743.68 Q 500 746.8 497.88 748.68 L 497.88 748.68 L 497.88 748.68 Q 495.76 750.56 492.16 750.56 L 492.16 750.56 Z  M 526.48 796.96 L 526.48 796.96 Q 516.88 796.96 511.28 791.52 L 511.28 791.52 L 511.28 791.52 Q 505.68 786.08 505.68 776.72 L 505.68 776.72 L 505.68 776.72 Q 505.68 770.56 508.4 765.84 L 508.4 765.84 L 508.4 765.84 Q 511.12 761.12 516.04 758.56 L 516.04 758.56 L 516.04 758.56 Q 520.96 756 527.28 756 L 527.28 756 L 527.28 756 Q 530.64 756 534 756.88 L 534 756.88 L 534 756.88 Q 537.36 757.76 539.92 759.36 L 539.92 759.36 L 539.92 759.36 Q 542.4 760.88 542.4 764 L 542.4 764 L 542.4 764 Q 542.4 766.48 541.24 768.04 L 541.24 768.04 L 541.24 768.04 Q 540.08 769.6 538.24 769.6 L 538.24 769.6 L 538.24 769.6 Q 537.04 769.6 535.92 769.24 L 535.92 769.24 L 535.92 769.24 Q 534.8 768.88 533.44 768.16 L 533.44 768.16 L 533.44 768.16 Q 531.84 767.44 530.72 767.08 L 530.72 767.08 L 530.72 767.08 Q 529.6 766.72 528.24 766.72 L 528.24 766.72 L 528.24 766.72 Q 520.32 766.72 520.32 776.4 L 520.32 776.4 L 520.32 776.4 Q 520.32 781.2 522.36 783.72 L 522.36 783.72 L 522.36 783.72 Q 524.4 786.24 528.24 786.24 L 528.24 786.24 L 528.24 786.24 Q 529.6 786.24 530.76 785.88 L 530.76 785.88 L 530.76 785.88 Q 531.92 785.52 533.36 784.8 L 533.36 784.8 L 533.36 784.8 Q 534.96 784.08 535.96 783.72 L 535.96 783.72 L 535.96 783.72 Q 536.96 783.36 538.16 783.36 L 538.16 783.36 L 538.16 783.36 Q 540 783.36 541.16 784.92 L 541.16 784.92 L 541.16 784.92 Q 542.32 786.48 542.32 788.96 L 542.32 788.96 L 542.32 788.96 Q 542.32 790.48 541.68 791.72 L 541.68 791.72 L 541.68 791.72 Q 541.04 792.96 539.92 793.6 L 539.92 793.6 L 539.92 793.6 Q 534.4 796.96 526.48 796.96 L 526.48 796.96 Z  M 567.36 796.96 L 567.36 796.96 Q 560.88 796.96 555.96 794.44 L 555.96 794.44 L 555.96 794.44 Q 551.04 791.92 548.36 787.28 L 548.36 787.28 L 548.36 787.28 Q 545.68 782.64 545.68 776.4 L 545.68 776.4 L 545.68 776.4 Q 545.68 770.16 548.36 765.56 L 548.36 765.56 L 548.36 765.56 Q 551.04 760.96 555.92 758.48 L 555.92 758.48 L 555.92 758.48 Q 560.8 756 567.36 756 L 567.36 756 L 567.36 756 Q 573.92 756 578.8 758.48 L 578.8 758.48 L 578.8 758.48 Q 583.68 760.96 586.36 765.56 L 586.36 765.56 L 586.36 765.56 Q 589.04 770.16 589.04 776.4 L 589.04 776.4 L 589.04 776.4 Q 589.04 782.64 586.36 787.28 L 586.36 787.28 L 586.36 787.28 Q 583.68 791.92 578.8 794.44 L 578.8 794.44 L 578.8 794.44 Q 573.92 796.96 567.36 796.96 L 567.36 796.96 Z  M 567.36 786.32 L 567.36 786.32 Q 574.96 786.32 574.96 776.4 L 574.96 776.4 L 574.96 776.4 Q 574.96 766.48 567.36 766.48 L 567.36 766.48 L 567.36 766.48 Q 559.76 766.48 559.76 776.4 L 559.76 776.4 L 559.76 776.4 Q 559.76 786.32 567.36 786.32 L 567.36 786.32 Z  M 622 756 L 622 756 Q 629.04 756 632.48 760.2 L 632.48 760.2 L 632.48 760.2 Q 635.92 764.4 635.92 772.96 L 635.92 772.96 L 635.92 790.24 L 635.92 790.24 Q 635.92 793.28 634 795.04 L 634 795.04 L 634 795.04 Q 632.08 796.8 628.8 796.8 L 628.8 796.8 L 628.8 796.8 Q 625.52 796.8 623.6 795.04 L 623.6 795.04 L 623.6 795.04 Q 621.68 793.28 621.68 790.24 L 621.68 790.24 L 621.68 773.6 L 621.68 773.6 Q 621.68 770.08 620.44 768.48 L 620.44 768.48 L 620.44 768.48 Q 619.2 766.88 616.72 766.88 L 616.72 766.88 L 616.72 766.88 Q 613.52 766.88 611.64 768.92 L 611.64 768.92 L 611.64 768.92 Q 609.76 770.96 609.76 774.4 L 609.76 774.4 L 609.76 790.24 L 609.76 790.24 Q 609.76 793.28 607.84 795.04 L 607.84 795.04 L 607.84 795.04 Q 605.92 796.8 602.64 796.8 L 602.64 796.8 L 602.64 796.8 Q 599.36 796.8 597.44 795.04 L 597.44 795.04 L 597.44 795.04 Q 595.52 793.28 595.52 790.24 L 595.52 790.24 L 595.52 762.56 L 595.52 762.56 Q 595.52 759.76 597.52 757.96 L 597.52 757.96 L 597.52 757.96 Q 599.52 756.16 602.72 756.16 L 602.72 756.16 L 602.72 756.16 Q 605.76 756.16 607.56 757.84 L 607.56 757.84 L 607.56 757.84 Q 609.36 759.52 609.36 762.24 L 609.36 762.24 L 609.36 762.24 Q 611.44 759.2 614.72 757.6 L 614.72 757.6 L 614.72 757.6 Q 618 756 622 756 L 622 756 Z  M 663.76 796.96 L 663.76 796.96 Q 657.28 796.96 652.36 794.44 L 652.36 794.44 L 652.36 794.44 Q 647.44 791.92 644.76 787.28 L 644.76 787.28 L 644.76 787.28 Q 642.08 782.64 642.08 776.4 L 642.08 776.4 L 642.08 776.4 Q 642.08 770.16 644.76 765.56 L 644.76 765.56 L 644.76 765.56 Q 647.44 760.96 652.32 758.48 L 652.32 758.48 L 652.32 758.48 Q 657.2 756 663.76 756 L 663.76 756 L 663.76 756 Q 670.32 756 675.2 758.48 L 675.2 758.48 L 675.2 758.48 Q 680.08 760.96 682.76 765.56 L 682.76 765.56 L 682.76 765.56 Q 685.44 770.16 685.44 776.4 L 685.44 776.4 L 685.44 776.4 Q 685.44 782.64 682.76 787.28 L 682.76 787.28 L 682.76 787.28 Q 680.08 791.92 675.2 794.44 L 675.2 794.44 L 675.2 794.44 Q 670.32 796.96 663.76 796.96 L 663.76 796.96 Z  M 663.76 786.32 L 663.76 786.32 Q 671.36 786.32 671.36 776.4 L 671.36 776.4 L 671.36 776.4 Q 671.36 766.48 663.76 766.48 L 663.76 766.48 L 663.76 766.48 Q 656.16 766.48 656.16 776.4 L 656.16 776.4 L 656.16 776.4 Q 656.16 786.32 663.76 786.32 L 663.76 786.32 Z  M 360.32 797.04 L 360.32 797.04 Q 353.92 797.04 348.44 795.64 L 348.44 795.64 L 348.44 795.64 Q 342.96 794.24 339.44 791.76 L 339.44 791.76 L 339.44 791.76 Q 338.08 790.72 337.48 789.6 L 337.48 789.6 L 337.48 789.6 Q 336.88 788.48 336.88 786.72 L 336.88 786.72 L 336.88 786.72 Q 336.88 784.32 338.32 782.56 L 338.32 782.56 L 338.32 782.56 Q 339.76 780.8 341.68 780.8 L 341.68 780.8 L 341.68 780.8 Q 342.72 780.8 343.68 781.12 L 343.68 781.12 L 343.68 781.12 Q 344.64 781.44 346.08 782.32 L 346.08 782.32 L 346.08 782.32 Q 349.36 784.16 352.6 784.96 L 352.6 784.96 L 352.6 784.96 Q 355.84 785.76 359.92 785.76 L 359.92 785.76 L 359.92 785.76 Q 364.64 785.76 367.08 784.36 L 367.08 784.36 L 367.08 784.36 Q 369.52 782.96 369.52 780.24 L 369.52 780.24 L 369.52 780.24 Q 369.52 778.4 367.24 777.08 L 367.24 777.08 L 367.24 777.08 Q 364.96 775.76 358.56 774.48 L 358.56 774.48 L 358.56 774.48 Q 350.64 772.8 346.16 770.48 L 346.16 770.48 L 346.16 770.48 Q 341.68 768.16 339.88 765 L 339.88 765 L 339.88 765 Q 338.08 761.84 338.08 757.36 L 338.08 757.36 L 338.08 757.36 Q 338.08 752.24 341.12 748.08 L 341.12 748.08 L 341.12 748.08 Q 344.16 743.92 349.48 741.56 L 349.48 741.56 L 349.48 741.56 Q 354.8 739.2 361.44 739.2 L 361.44 739.2 L 361.44 739.2 Q 367.28 739.2 371.84 740.48 L 371.84 740.48 L 371.84 740.48 Q 376.4 741.76 380.16 744.48 L 380.16 744.48 L 380.16 744.48 Q 381.6 745.52 382.2 746.68 L 382.2 746.68 L 382.2 746.68 Q 382.8 747.84 382.8 749.52 L 382.8 749.52 L 382.8 749.52 Q 382.8 751.92 381.4 753.68 L 381.4 753.68 L 381.4 753.68 Q 380 755.44 378.08 755.44 L 378.08 755.44 L 378.08 755.44 Q 377.04 755.44 376.16 755.16 L 376.16 755.16 L 376.16 755.16 Q 375.28 754.88 373.68 753.92 L 373.68 753.92 L 373.68 753.92 Q 373.28 753.68 371.4 752.68 L 371.4 752.68 L 371.4 752.68 Q 369.52 751.68 367 751.08 L 367 751.08 L 367 751.08 Q 364.48 750.48 361.52 750.48 L 361.52 750.48 L 361.52 750.48 Q 357.44 750.48 354.96 752.04 L 354.96 752.04 L 354.96 752.04 Q 352.48 753.6 352.48 756.16 L 352.48 756.16 L 352.48 756.16 Q 352.48 757.68 353.36 758.64 L 353.36 758.64 L 353.36 758.64 Q 354.24 759.6 356.64 760.52 L 356.64 760.52 L 356.64 760.52 Q 359.04 761.44 363.76 762.4 L 363.76 762.4 L 363.76 762.4 Q 371.44 764.08 375.84 766.44 L 375.84 766.44 L 375.84 766.44 Q 380.24 768.8 382.08 771.92 L 382.08 771.92 L 382.08 771.92 Q 383.92 775.04 383.92 779.28 L 383.92 779.28 L 383.92 779.28 Q 383.92 784.56 380.96 788.6 L 380.96 788.6 L 380.96 788.6 Q 378 792.64 372.68 794.84 L 372.68 794.84 L 372.68 794.84 Q 367.36 797.04 360.32 797.04 L 360.32 797.04 Z  M 398.4 796.8 L 398.4 796.8 Q 395.36 796.8 393.32 795.16 L 393.32 795.16 L 393.32 795.16 Q 391.28 793.52 391.28 790.24 L 391.28 790.24 L 391.28 762.72 L 391.28 762.72 Q 391.28 759.44 393.32 757.8 L 393.32 757.8 L 393.32 757.8 Q 395.36 756.16 398.4 756.16 L 398.4 756.16 L 398.4 756.16 Q 401.44 756.16 403.48 757.8 L 403.48 757.8 L 403.48 757.8 Q 405.52 759.44 405.52 762.72 L 405.52 762.72 L 405.52 790.24 L 405.52 790.24 Q 405.52 793.52 403.48 795.16 L 403.48 795.16 L 403.48 795.16 Q 401.44 796.8 398.4 796.8 L 398.4 796.8 Z  M 398.4 750.56 L 398.4 750.56 Q 394.8 750.56 392.68 748.68 L 392.68 748.68 L 392.68 748.68 Q 390.56 746.8 390.56 743.68 L 390.56 743.68 L 390.56 743.68 Q 390.56 740.56 392.68 738.72 L 392.68 738.72 L 392.68 738.72 Q 394.8 736.88 398.4 736.88 L 398.4 736.88 L 398.4 736.88 Q 401.92 736.88 404.08 738.72 L 404.08 738.72 L 404.08 738.72 Q 406.24 740.56 406.24 743.68 L 406.24 743.68 L 406.24 743.68 Q 406.24 746.8 404.12 748.68 L 404.12 748.68 L 404.12 748.68 Q 402 750.56 398.4 750.56 L 398.4 750.56 Z  M 440.24 756 L 440.24 756 Q 447.28 756 450.72 760.2 L 450.72 760.2 L 450.72 760.2 Q 454.16 764.4 454.16 772.96 L 454.16 772.96 L 454.16 790.24 L 454.16 790.24 Q 454.16 793.28 452.24 795.04 L 452.24 795.04 L 452.24 795.04 Q 450.32 796.8 447.04 796.8 L 447.04 796.8 L 447.04 796.8 Q 443.76 796.8 441.84 795.04 L 441.84 795.04 L 441.84 795.04 Q 439.92 793.28 439.92 790.24 L 439.92 790.24 L 439.92 773.6 L 439.92 773.6 Q 439.92 770.08 438.68 768.48 L 438.68 768.48 L 438.68 768.48 Q 437.44 766.88 434.96 766.88 L 434.96 766.88 L 434.96 766.88 Q 431.76 766.88 429.88 768.92 L 429.88 768.92 L 429.88 768.92 Q 428 770.96 428 774.4 L 428 774.4 L 428 790.24 L 428 790.24 Q 428 793.28 426.08 795.04 L 426.08 795.04 L 426.08 795.04 Q 424.16 796.8 420.88 796.8 L 420.88 796.8 L 420.88 796.8 Q 417.6 796.8 415.68 795.04 L 415.68 795.04 L 415.68 795.04 Q 413.76 793.28 413.76 790.24 L 413.76 790.24 L 413.76 762.56 L 413.76 762.56 Q 413.76 759.76 415.76 757.96 L 415.76 757.96 L 415.76 757.96 Q 417.76 756.16 420.96 756.16 L 420.96 756.16 L 420.96 756.16 Q 424 756.16 425.8 757.84 L 425.8 757.84 L 425.8 757.84 Q 427.6 759.52 427.6 762.24 L 427.6 762.24 L 427.6 762.24 Q 429.68 759.2 432.96 757.6 L 432.96 757.6 L 432.96 757.6 Q 436.24 756 440.24 756 L 440.24 756 Z " fill-rule="evenodd" fill="rgb(25,118,210)"/></g></g></svg>