<?xml version="1.0" standalone="no"?><!-- Generator: Gravit.io --><svg xmlns="http://www.w3.org/2000/svg" xmlns:xlink="http://www.w3.org/1999/xlink" style="isolation:isolate" viewBox="0 0 1024 1024" width="1024" height="1024"><defs><clipPath id="_clipPath_jvjr9fcZ0fSj0Q00jcHWu8pFCfDV6Zgb"><rect width="1024" height="1024"/></clipPath></defs><g clip-path="url(#_clipPath_jvjr9fcZ0fSj0Q00jcHWu8pFCfDV6Zgb)"><g id="App without icon"><rect x="90" y="85" width="850" height="850" transform="matrix(1,0,0,1,0,0)" fill="rgb(227,242,253)"/><path d=" M 90 85 L 940 85 L 940 935 L 90 935 L 90 85 Z  M 118.977 113.977 L 911.023 113.977 L 911.023 906.023 L 118.977 906.023 L 118.977 113.977 Z " fill-rule="evenodd" fill="rgb(25,118,210)"/><g id="Accessories"><g id="Ruler"><path d=" M 245 374.583 L 245 474.203 L 785 474.203 L 785 374.583 L 245 374.583 Z " fill-rule="evenodd" fill="rgb(139,104,69)" fill-opacity="0.8369715073529411"/><path d=" M 265 398.937 L 265 399.468 C 265 402.081 267.121 404.203 269.735 404.203 L 760.265 404.203 C 762.879 404.203 765 402.081 765 399.468 L 765 398.937 C 765 396.324 762.879 394.203 760.265 394.203 L 269.735 394.203 C 267.121 394.203 265 396.324 265 398.937 Z " fill-rule="evenodd" fill="rgb(118,89,60)" fill-opacity="0.8256261488970589"/></g><g id="Pen"><path d=" M 285.443 588.435 L 295.334 515.794 C 326.969 504.007 350.454 519.271 354.041 553.919 L 290.922 591.993 Q 287.107 594.111 285.953 593.362 Q 284.8 592.613 285.443 588.435 Z " fill="rgb(255,204,128)"/><path d=" M 420.601 322.9 L 479.308 361.025 L 354.041 553.919 C 338.268 531.471 314.794 516.263 295.334 515.794 L 420.601 322.9 Z " fill="rgb(66,165,245)"/><rect x="416.029" y="302.409" width="90" height="45" transform="matrix(0.839,0.545,-0.545,0.839,251.336,-198.677)" fill="rgb(189,189,189)"/><path d=" M 483.462 268.333 L 503.59 281.404 C 514.236 288.318 517.266 302.574 510.353 313.22 L 501.094 327.478 L 442.387 289.353 L 451.646 275.096 C 458.559 264.45 472.816 261.419 483.462 268.333 Z " fill="rgb(139,195,74)"/></g><g id="Paint Pencil"><path d=" M 736.769 596.879 Q 713.719 602.756 703.13 604.328 C 700.4 604.733 697.369 602.975 696.365 600.405 L 653.918 491.746 L 696.866 466.144 L 772.259 555.163 C 774.043 557.269 774.095 560.731 772.376 562.89 Q 764.963 572.202 749.875 588.958 C 746.92 592.239 741.048 595.788 736.769 596.879 Z " fill="rgb(121,85,72)"/><path d=" M 617.992 430.56 Q 481.575 187.014 496.177 178.309 Q 510.78 169.604 661.023 406.017 C 651.734 421.673 635.63 430.176 617.992 430.56 Z " fill="rgb(136,14,79)"/><path d=" M 617.992 430.56 C 633.453 428.07 649.584 419.574 661.023 406.017 L 696.866 466.144 C 685.859 478.924 669.839 488.486 653.918 491.746 L 617.992 430.56 Z " fill="rgb(235,235,235)"/></g></g><path d=" M 290.24 740.32 C 300.24 740.32 309.92 737.76 319.92 737.76 C 322.24 737.76 328.88 737.68 328.88 740.96 C 328.88 744 319.92 749.68 319.92 752.32 C 319.92 755.36 325.84 760.72 328.88 760.72 C 336.88 760.72 349.68 743.52 349.68 736 C 349.68 734.24 349.2 730.56 348.4 729.04 C 345.36 723.44 329.28 722.8 323.6 722.8 C 321.04 722.8 318 722.8 315.44 722.8 C 309.76 722.8 289.2 721.28 285.04 724.48 C 282.88 726.16 281.76 728.96 282.16 733.12 C 282.88 740 287.04 740.32 290.24 740.32 Z  M 308 741.52 C 304.72 741.52 301.2 741.52 299.76 744.96 C 299.28 746.16 299.12 747.52 299.12 748.8 C 299.12 753.92 298.4 759.12 296 763.76 C 295.2 765.28 294.24 766.72 293.04 767.92 C 291.36 769.6 289.6 771.04 287.92 772.64 C 287.36 773.2 286.96 773.84 286.96 774.64 C 286.96 778.16 292.96 783.76 296.56 784.16 C 300.16 784.56 302.48 783.6 305.12 781.28 C 318.96 769.12 316.4 761.76 316.4 748.32 C 316.4 741.36 314 741.52 308 741.52 Z  M 427.44 733.68 C 426.8 730.96 421.28 724.88 418.48 724.88 C 416.32 724.88 410.96 728.64 409.04 729.92 L 409.04 729.84 C 403.52 733.36 397.92 736.88 391.84 739.28 C 387.6 740.96 362.32 748.48 361.12 749.6 C 360 750.64 359.44 752.08 359.44 753.6 C 359.44 757.28 362.08 764.88 366.32 764.88 C 372.72 764.88 379.76 759.36 384.32 758.08 C 389.76 756.56 389.2 764 389.2 768 C 389.2 771.28 388.8 782.56 391.36 784.64 C 393.2 786.16 395.28 786.08 397.6 786.08 C 399.36 786.08 403.36 786.72 407.12 784.96 C 410.88 783.2 408.56 771.6 408.56 767.52 C 408.56 761.68 406.72 752.24 410.96 747.76 C 413.28 745.36 415.76 745.76 419.36 744.32 C 425.2 743.2 429.2 740.88 427.44 733.68 Z  M 443.28 772.64 C 443.28 774 443.28 775.44 443.84 776.72 C 446.24 782.56 461.36 783.12 466.8 783.12 C 472.48 783.12 479.2 782.56 484.88 782.16 C 492.48 781.6 499.52 779.68 502.32 771.76 C 504.48 765.68 504.4 758.08 504.4 751.68 C 504.4 726.96 495.84 724.48 473.28 724.48 C 468.24 724.48 451.12 724.72 447.28 726.72 C 443.92 728.48 443.28 731.04 443.28 734.64 C 443.28 739.12 448.64 741.28 451.36 741.28 C 456.16 741.28 460.96 740.96 465.76 740.96 C 469.76 740.96 482.64 738.96 485.28 742 C 487.04 744 487.28 748.16 487.28 750.72 C 487.28 765.04 487.28 768 470.88 766.08 C 463.92 765.52 459.04 764.96 450.4 764.08 C 447.44 763.76 443.36 766.24 443.28 772.64 Z  M 526.56 737.6 C 529.04 739.04 543.36 745.84 545.68 745.84 C 549.12 745.84 554.24 738.56 554.24 735.36 C 554.24 730.88 537.44 723.68 533.36 723.68 C 529.6 723.68 524.24 730.56 524.24 734.16 C 524.24 735.6 525.44 736.96 526.56 737.6 Z  M 579.04 730.88 C 577.36 730.88 576.4 731.04 575.28 732.4 C 574.72 733.04 574.4 733.92 574.08 734.72 C 572.96 737.52 571.6 740.24 570.16 742.88 C 567.12 748.4 564.08 752.64 559.28 756.8 C 556.96 758.8 554.48 760.48 551.76 761.92 C 548.96 763.36 545.68 763.92 542.72 764.08 C 538.88 764.32 535.92 764.4 530.48 765.04 C 529.36 765.2 525.6 766.8 524.88 771.2 C 523.92 778.08 528.08 783.12 534.48 783.12 C 538.24 783.12 543.2 782.32 546.8 781.36 C 564.48 776.48 577.84 766.24 585.92 749.36 C 587.6 745.84 589.92 742.16 589.92 738.08 C 589.92 733.12 583.12 730.88 579.04 730.88 Z  M 656.88 770.8 C 655.28 771.76 652.08 772.64 652.08 775.04 C 652.08 777.12 658.24 787.68 660.32 787.68 C 663.6 787.68 669.36 784.08 669.36 780.48 C 669.36 777.04 664.64 772.8 664.64 770.48 C 664.64 768.4 668.32 769.12 669.6 768.24 C 670.8 767.36 670.88 764.56 670.88 763.2 C 670.88 760.32 671.2 758.48 667.68 758.48 C 665.36 758.48 664.4 758.08 664.4 755.52 C 664.4 749.6 670.08 752.88 671.92 751.28 C 672.72 750.64 672.56 748.96 672.56 748 C 672.56 746.24 672.64 741.04 670.24 740.56 C 668.56 740.24 664.08 740.48 664.08 737.92 C 664.08 737.28 664.24 734 664.88 734 C 667.84 734 668.4 734.24 668.4 731.12 C 668.4 729.68 668.32 728.16 667.84 726.72 C 667.36 725.2 666.08 724.32 664.64 723.84 C 659.92 722.08 642.72 722.16 636.8 722.16 C 632.96 722.16 629.12 722.4 625.36 721.76 C 624.96 721.68 623.52 721.44 623.52 720.88 L 624 719.6 C 624 717.52 617.04 716.64 615.52 716.64 C 614.32 716.64 613.04 716.88 612 717.6 C 610.96 718.32 609.92 719.2 609.12 720.16 C 607.2 722.48 598.32 732.88 598.32 735.36 C 598.32 738.32 603.68 737.28 603.68 739.44 C 603.68 742 595.52 737.76 595.52 744.88 L 595.52 749.04 C 595.52 751.36 596.96 751.84 599.04 751.84 C 601.76 751.84 603.76 752 603.76 755.28 C 603.76 760.56 600.48 757.36 598.16 759.2 C 597.76 759.52 597.6 759.92 597.52 760.4 C 597.36 761.12 597.36 761.92 597.36 762.64 C 597.36 764.08 597.68 768.4 599.36 768.8 C 600.8 769.2 603.76 768.72 603.76 770.88 C 603.76 773.2 598.96 777.76 598.96 781.36 C 598.96 784 605.12 787.84 607.52 787.84 C 611.04 787.84 616.32 778 616.32 774.88 C 616.32 772.8 612.4 772.24 611.12 770.96 L 610.96 770.56 C 611.52 769.28 612.96 769.44 614.08 769.44 C 627.6 769.44 641.2 769.6 654.72 769.6 C 655.28 769.6 656.88 769.52 656.88 770.4 L 656.88 770.8 Z  M 633.76 740 C 632.64 740 632.48 738.8 632.48 737.92 C 632.48 736.72 632.48 735.28 632.64 734.08 C 632.72 734 634.08 733.52 634.24 733.52 C 635.76 733.52 635.84 735.12 635.84 736.32 L 635.84 737.68 C 635.84 738.72 635.52 740 634.24 740 L 633.76 740 Z  M 618.24 740.08 C 616.88 740.08 616.96 738.56 616.96 737.52 C 616.96 736.4 617.04 733.6 618.56 733.6 C 620.32 733.6 620.4 735.12 620.4 736.48 C 620.4 738.08 620.32 740.08 618.24 740.08 Z  M 651.12 738.8 C 651.12 739.6 650 740 649.36 740 C 647.92 740 647.84 737.04 647.84 736 C 647.84 734.96 647.76 733.6 649.12 733.6 L 649.76 733.6 C 650.96 733.6 651.12 735.12 651.12 736 L 651.12 738.8 Z  M 616.72 754.56 C 616.72 753.12 617.04 751.84 618.72 751.84 C 620.16 751.84 620.24 753.6 620.24 754.72 L 620.24 756 C 620.24 757.28 619.92 758.88 618.32 758.88 C 617.04 758.88 616.72 756.72 616.72 755.76 L 616.72 754.56 Z  M 648 753.92 C 648 752.56 648.72 751.84 650.08 751.84 C 651.12 751.84 651.44 753.52 651.44 754.32 L 651.44 756.56 C 651.44 758.08 650.96 758.88 649.36 758.88 C 648.24 758.88 648 757.6 648 756.72 L 648 753.92 Z  M 632.4 754 C 632.4 752.56 632.96 751.92 634.4 751.92 C 635.12 751.92 635.52 752.24 635.68 752.96 C 635.84 754 635.92 755.2 635.92 756.24 C 635.92 757.76 635.52 758.88 633.76 758.88 C 632.64 758.88 632.4 757.76 632.4 756.8 L 632.4 754 Z  M 642 789.04 C 644.16 789.04 651.28 788.08 651.28 785.12 C 651.28 781.84 649.52 771.44 645.12 771.44 C 642.32 771.44 635.76 772.08 635.76 775.92 C 635.76 778.56 638.8 789.04 642 789.04 Z  M 626.8 789.36 C 629.76 789.44 633.84 788.96 633.84 785.12 C 633.84 781.36 633.68 772 628.24 772 L 625.6 772 C 623.12 772 619.28 772.72 619.28 775.84 C 619.28 779.28 620.32 789.28 625.04 789.36 L 626.8 789.36 Z  M 743.92 766.88 C 745.28 764.56 747.84 761.04 747.84 758.32 C 747.84 754.88 736.64 749.76 733.92 749.76 C 729.52 749.76 727.36 754.8 725.44 758 C 722.08 762.96 717.2 770.88 711.2 770.8 C 701.2 770.64 702.96 762.08 703.36 754.56 C 703.92 744.8 705.52 736.96 705.52 728.08 C 705.52 722.88 703.6 721.36 697.92 721.36 C 695.84 721.36 691.12 720.8 688.64 722.72 C 684.72 725.76 684.72 748.88 684.72 754 C 684.72 774 690.8 786.4 713.2 786.4 C 726.4 786.4 737.28 777.6 743.92 766.8 L 743.92 766.88 Z " fill-rule="evenodd" fill="rgb(25,118,210)"/></g></g></svg>