<?xml version="1.0" standalone="no"?><!-- Generator: Gravit.io --><svg xmlns="http://www.w3.org/2000/svg" xmlns:xlink="http://www.w3.org/1999/xlink" style="isolation:isolate" viewBox="0 0 1024 1024" width="1024" height="1024"><defs><clipPath id="_clipPath_Yt8jVnpyY2nxjwnIwqN0hOCiYwoGWpY8"><rect width="1024" height="1024"/></clipPath></defs><g clip-path="url(#_clipPath_Yt8jVnpyY2nxjwnIwqN0hOCiYwoGWpY8)"><g id="App without icon"><rect x="90" y="85" width="850" height="850" transform="matrix(1,0,0,1,0,0)" fill="rgb(227,242,253)"/><path d=" M 90 85 L 940 85 L 940 935 L 90 935 L 90 85 Z  M 118.977 113.977 L 911.023 113.977 L 911.023 906.023 L 118.977 906.023 L 118.977 113.977 Z " fill-rule="evenodd" fill="rgb(25,118,210)"/><g id="Accessories"><g id="Ruler"><path d=" M 245 374.583 L 245 474.203 L 785 474.203 L 785 374.583 L 245 374.583 Z " fill-rule="evenodd" fill="rgb(139,104,69)" fill-opacity="0.8369715073529411"/><path d=" M 265 398.937 L 265 399.468 C 265 402.081 267.121 404.203 269.735 404.203 L 760.265 404.203 C 762.879 404.203 765 402.081 765 399.468 L 765 398.937 C 765 396.324 762.879 394.203 760.265 394.203 L 269.735 394.203 C 267.121 394.203 265 396.324 265 398.937 Z " fill-rule="evenodd" fill="rgb(118,89,60)" fill-opacity="0.8256261488970589"/></g><g id="Pen"><path d=" M 285.443 588.435 L 295.334 515.794 C 326.969 504.007 350.454 519.271 354.041 553.919 L 290.922 591.993 Q 287.107 594.111 285.953 593.362 Q 284.8 592.613 285.443 588.435 Z " fill="rgb(255,204,128)"/><path d=" M 420.601 322.9 L 479.308 361.025 L 354.041 553.919 C 338.268 531.471 314.794 516.263 295.334 515.794 L 420.601 322.9 Z " fill="rgb(66,165,245)"/><rect x="416.029" y="302.409" width="90" height="45" transform="matrix(0.839,0.545,-0.545,0.839,251.336,-198.677)" fill="rgb(189,189,189)"/><path d=" M 483.462 268.333 L 503.59 281.404 C 514.236 288.318 517.266 302.574 510.353 313.22 L 501.094 327.478 L 442.387 289.353 L 451.646 275.096 C 458.559 264.45 472.816 261.419 483.462 268.333 Z " fill="rgb(139,195,74)"/></g><g id="Paint Pencil"><path d=" M 736.769 596.879 Q 713.719 602.756 703.13 604.328 C 700.4 604.733 697.369 602.975 696.365 600.405 L 653.918 491.746 L 696.866 466.144 L 772.259 555.163 C 774.043 557.269 774.095 560.731 772.376 562.89 Q 764.963 572.202 749.875 588.958 C 746.92 592.239 741.048 595.788 736.769 596.879 Z " fill="rgb(121,85,72)"/><path d=" M 617.992 430.56 Q 481.575 187.014 496.177 178.309 Q 510.78 169.604 661.023 406.017 C 651.734 421.673 635.63 430.176 617.992 430.56 Z " fill="rgb(136,14,79)"/><path d=" M 617.992 430.56 C 633.453 428.07 649.584 419.574 661.023 406.017 L 696.866 466.144 C 685.859 478.924 669.839 488.486 653.918 491.746 L 617.992 430.56 Z " fill="rgb(235,235,235)"/></g></g><path d=" M 529.68 792.24 C 531.68 792.24 533.44 791.68 534.8 790.56 C 536.16 789.52 536.8 787.84 536.8 785.68 L 536.8 758.16 C 536.8 756 536.16 754.32 534.8 753.2 C 533.44 752.16 531.68 751.6 529.68 751.6 C 527.68 751.6 526 752.16 524.64 753.2 C 523.28 754.32 522.56 756 522.56 758.16 L 522.56 785.68 C 522.56 787.84 523.28 789.52 524.64 790.56 C 526 791.68 527.68 792.24 529.68 792.24 Z  M 529.68 746 C 532.08 746 534 745.36 535.36 744.08 C 536.8 742.88 537.52 741.2 537.52 739.12 C 537.52 737.04 536.8 735.36 535.36 734.16 C 533.92 732.96 532 732.32 529.68 732.32 C 527.28 732.32 525.36 732.96 523.92 734.16 C 522.56 735.36 521.84 737.04 521.84 739.12 C 521.84 741.2 522.56 742.88 523.92 744.08 C 525.36 745.36 527.28 746 529.68 746 Z  M 564 792.4 C 569.28 792.4 573.76 791.28 577.44 789.04 C 578.16 788.64 578.8 788 579.2 787.12 C 579.6 786.32 579.84 785.44 579.84 784.4 C 579.84 782.72 579.44 781.36 578.72 780.32 C 577.92 779.28 576.88 778.8 575.68 778.8 C 574.88 778.8 574.16 778.88 573.52 779.12 C 572.8 779.36 571.92 779.76 570.88 780.24 C 569.92 780.72 569.04 781.04 568.32 781.28 C 567.52 781.52 566.64 781.68 565.76 781.68 C 563.2 781.68 561.28 780.8 559.92 779.12 C 558.56 777.44 557.84 775.04 557.84 771.84 C 557.84 765.36 560.48 762.16 565.76 762.16 C 566.64 762.16 567.52 762.24 568.24 762.48 C 568.96 762.72 569.92 763.12 570.96 763.6 C 571.84 764.08 572.72 764.4 573.44 764.64 C 574.16 764.88 574.96 765.04 575.76 765.04 C 576.96 765.04 578 764.48 578.8 763.44 C 579.52 762.4 579.92 761.12 579.92 759.44 C 579.92 757.36 579.12 755.84 577.44 754.8 C 575.76 753.76 573.76 752.88 571.52 752.32 C 569.28 751.76 567.04 751.44 564.8 751.44 C 560.56 751.44 556.88 752.32 553.6 754 C 550.32 755.68 547.76 758.16 545.92 761.28 C 544.08 764.4 543.2 768.08 543.2 772.16 C 543.2 778.4 545.04 783.36 548.8 786.96 C 552.56 790.56 557.6 792.4 564 792.4 Z  M 604.88 792.4 C 609.28 792.4 613.04 791.52 616.32 789.84 C 619.6 788.16 622.08 785.84 623.92 782.72 C 625.68 779.6 626.56 776 626.56 771.84 C 626.56 767.68 625.68 764.08 623.92 760.96 C 622.08 757.92 619.6 755.6 616.32 753.92 C 613.04 752.24 609.28 751.44 604.88 751.44 C 600.48 751.44 596.72 752.24 593.44 753.92 C 590.16 755.6 587.68 757.92 585.92 760.96 C 584.08 764.08 583.2 767.68 583.2 771.84 C 583.2 776 584.08 779.6 585.92 782.72 C 587.68 785.84 590.24 788.16 593.52 789.84 C 596.8 791.52 600.56 792.4 604.88 792.4 Z  M 604.88 781.76 C 599.84 781.76 597.28 778.48 597.28 771.84 C 597.28 765.2 599.84 761.92 604.88 761.92 C 609.92 761.92 612.48 765.2 612.48 771.84 C 612.48 778.48 609.92 781.76 604.88 781.76 Z  M 652.88 792.4 C 657.28 792.4 661.04 791.52 664.32 789.84 C 667.6 788.16 670.08 785.84 671.92 782.72 C 673.68 779.6 674.56 776 674.56 771.84 C 674.56 767.68 673.68 764.08 671.92 760.96 C 670.08 757.92 667.6 755.6 664.32 753.92 C 661.04 752.24 657.28 751.44 652.88 751.44 C 648.48 751.44 644.72 752.24 641.44 753.92 C 638.16 755.6 635.68 757.92 633.92 760.96 C 632.08 764.08 631.2 767.68 631.2 771.84 C 631.2 776 632.08 779.6 633.92 782.72 C 635.68 785.84 638.24 788.16 641.52 789.84 C 644.8 791.52 648.56 792.4 652.88 792.4 Z  M 652.88 781.76 C 647.84 781.76 645.28 778.48 645.28 771.84 C 645.28 765.2 647.84 761.92 652.88 761.92 C 657.92 761.92 660.48 765.2 660.48 771.84 C 660.48 778.48 657.92 781.76 652.88 781.76 Z  M 707.52 751.44 C 704.88 751.44 702.4 752 700.24 753.04 C 698.08 754.08 696.24 755.68 694.88 757.68 C 694.88 755.84 694.32 754.4 693.12 753.28 C 691.92 752.16 690.24 751.6 688.24 751.6 C 686.08 751.6 684.4 752.16 683.04 753.36 C 681.68 754.56 681.04 756.16 681.04 758 L 681.04 785.68 C 681.04 787.68 681.68 789.28 682.96 790.48 C 684.24 791.68 686 792.24 688.16 792.24 C 690.32 792.24 692.08 791.68 693.36 790.48 C 694.64 789.28 695.28 787.68 695.28 785.68 L 695.28 769.84 C 695.28 767.52 695.92 765.68 697.2 764.32 C 698.4 762.96 700.08 762.32 702.24 762.32 C 703.92 762.32 705.12 762.88 706 763.92 C 706.8 764.96 707.2 766.72 707.2 769.04 L 707.2 785.68 C 707.2 787.68 707.84 789.28 709.12 790.48 C 710.4 791.68 712.16 792.24 714.32 792.24 C 716.48 792.24 718.24 791.68 719.52 790.48 C 720.8 789.28 721.44 787.68 721.44 785.68 L 721.44 768.4 C 721.44 762.72 720.32 758.4 718 755.6 C 715.68 752.8 712.24 751.44 707.52 751.44 Z  M 351.28 759.92 L 338.08 759.92 C 336.32 759.92 334.96 760.32 334 761.2 C 333.04 762.08 332.56 763.36 332.56 764.96 C 332.56 766.56 333.04 767.76 334 768.64 C 334.96 769.52 336.32 770 338.08 770 L 343.84 770 L 343.84 780.48 C 341.36 781.04 338.8 781.28 336.24 781.28 C 330.88 781.28 326.96 779.84 324.4 776.88 C 321.76 774 320.48 769.52 320.48 763.52 C 320.48 757.68 321.76 753.28 324.24 750.48 C 326.72 747.68 330.48 746.24 335.52 746.24 C 337.52 746.24 339.44 746.48 341.2 746.96 C 342.88 747.44 344.72 748.24 346.72 749.28 C 347.68 749.84 348.48 750.24 349.12 750.48 C 349.68 750.72 350.4 750.88 351.28 750.88 C 352.56 750.88 353.68 750.32 354.56 749.12 C 355.44 748 355.92 746.64 355.92 744.96 C 355.92 743.76 355.76 742.8 355.36 742.08 C 354.96 741.36 354.24 740.64 353.36 740 C 350.8 738.16 348.08 736.8 345.12 735.92 C 342.16 735.04 338.8 734.64 335.04 734.64 C 329.12 734.64 323.92 735.84 319.52 738.16 C 315.12 740.48 311.68 743.84 309.28 748.16 C 306.88 752.56 305.68 757.68 305.68 763.52 C 305.68 769.52 306.88 774.64 309.28 778.96 C 311.68 783.36 315.12 786.64 319.68 788.96 C 324.16 791.28 329.44 792.48 335.6 792.48 C 337.76 792.48 340.16 792.32 342.72 792.08 C 345.2 791.76 347.52 791.36 349.6 790.8 C 351.68 790.24 353.28 789.52 354.32 788.72 C 355.36 787.92 356.08 786.8 356.48 785.36 C 356.88 784 357.04 781.92 357.04 779.28 L 357.04 765.36 C 357.04 763.68 356.56 762.4 355.52 761.36 C 354.48 760.4 353.04 759.92 351.28 759.92 Z  M 397.68 779.12 C 397.04 779.12 396.32 779.2 395.6 779.44 C 394.8 779.68 394 780 393.2 780.32 C 391.84 780.88 390.56 781.28 389.44 781.52 C 388.32 781.84 387.12 782 385.76 782 C 383.28 782 381.36 781.44 380.08 780.32 C 378.8 779.2 378 777.36 377.6 774.8 L 398.72 774.8 C 399.76 774.8 400.64 774.48 401.2 773.76 C 401.76 773.12 402 772.16 402 770.96 C 402 767.04 401.28 763.6 399.76 760.64 C 398.24 757.68 396.08 755.44 393.28 753.84 C 390.48 752.24 387.28 751.44 383.6 751.44 C 379.84 751.44 376.4 752.32 373.44 754 C 370.4 755.76 368.08 758.16 366.4 761.28 C 364.72 764.4 363.84 768 363.84 771.92 C 363.84 776.08 364.72 779.68 366.48 782.8 C 368.24 785.92 370.72 788.24 374 789.92 C 377.28 791.6 381.04 792.4 385.44 792.4 C 387.52 792.4 389.84 792.08 392.32 791.44 C 394.8 790.88 396.88 790.08 398.72 789.2 C 400.8 788.08 401.84 786.48 401.84 784.32 C 401.84 782.8 401.44 781.52 400.72 780.56 C 399.92 779.6 398.88 779.12 397.68 779.12 Z  M 384 761.04 C 387.76 761.04 389.76 763.36 390.08 768.08 L 377.52 768.08 C 377.76 765.76 378.4 764 379.52 762.8 C 380.64 761.6 382.16 761.04 384 761.04 Z  M 440.48 779.12 C 439.84 779.12 439.12 779.2 438.4 779.44 C 437.6 779.68 436.8 780 436 780.32 C 434.64 780.88 433.36 781.28 432.24 781.52 C 431.12 781.84 429.92 782 428.56 782 C 426.08 782 424.16 781.44 422.88 780.32 C 421.6 779.2 420.8 777.36 420.4 774.8 L 441.52 774.8 C 442.56 774.8 443.44 774.48 444 773.76 C 444.56 773.12 444.8 772.16 444.8 770.96 C 444.8 767.04 444.08 763.6 442.56 760.64 C 441.04 757.68 438.88 755.44 436.08 753.84 C 433.28 752.24 430.08 751.44 426.4 751.44 C 422.64 751.44 419.2 752.32 416.24 754 C 413.2 755.76 410.88 758.16 409.2 761.28 C 407.52 764.4 406.64 768 406.64 771.92 C 406.64 776.08 407.52 779.68 409.28 782.8 C 411.04 785.92 413.52 788.24 416.8 789.92 C 420.08 791.6 423.84 792.4 428.24 792.4 C 430.32 792.4 432.64 792.08 435.12 791.44 C 437.6 790.88 439.68 790.08 441.52 789.2 C 443.6 788.08 444.64 786.48 444.64 784.32 C 444.64 782.8 444.24 781.52 443.52 780.56 C 442.72 779.6 441.68 779.12 440.48 779.12 Z  M 426.8 761.04 C 430.56 761.04 432.56 763.36 432.88 768.08 L 420.32 768.08 C 420.56 765.76 421.2 764 422.32 762.8 C 423.44 761.6 424.96 761.04 426.8 761.04 Z  M 477.76 751.44 C 475.12 751.44 472.64 752 470.48 753.04 C 468.32 754.08 466.48 755.68 465.12 757.68 C 465.12 755.84 464.56 754.4 463.36 753.28 C 462.16 752.16 460.48 751.6 458.48 751.6 C 456.32 751.6 454.64 752.16 453.28 753.36 C 451.92 754.56 451.28 756.16 451.28 758 L 451.28 785.68 C 451.28 787.68 451.92 789.28 453.2 790.48 C 454.48 791.68 456.24 792.24 458.4 792.24 C 460.56 792.24 462.32 791.68 463.6 790.48 C 464.88 789.28 465.52 787.68 465.52 785.68 L 465.52 769.84 C 465.52 767.52 466.16 765.68 467.44 764.32 C 468.64 762.96 470.32 762.32 472.48 762.32 C 474.16 762.32 475.36 762.88 476.24 763.92 C 477.04 764.96 477.44 766.72 477.44 769.04 L 477.44 785.68 C 477.44 787.68 478.08 789.28 479.36 790.48 C 480.64 791.68 482.4 792.24 484.56 792.24 C 486.72 792.24 488.48 791.68 489.76 790.48 C 491.04 789.28 491.68 787.68 491.68 785.68 L 491.68 768.4 C 491.68 762.72 490.56 758.4 488.24 755.6 C 485.92 752.8 482.48 751.44 477.76 751.44 Z " fill-rule="evenodd" fill="rgb(25,118,210)"/></g></g></svg>