<?xml version="1.0" standalone="no"?><!-- Generator: Gravit.io --><svg xmlns="http://www.w3.org/2000/svg" xmlns:xlink="http://www.w3.org/1999/xlink" style="isolation:isolate" viewBox="0 0 1024 1024" width="1024" height="1024"><defs><clipPath id="_clipPath_J5SHlbrVWIPUed2eJRAg8MKVloKjcFGH"><rect width="1024" height="1024"/></clipPath></defs><g clip-path="url(#_clipPath_J5SHlbrVWIPUed2eJRAg8MKVloKjcFGH)"><g id="App without icon"><rect x="87" y="87" width="850" height="850" transform="matrix(1,0,0,1,0,0)" fill="rgb(227,242,253)"/><path d=" M 87 87 L 937 87 L 937 937 L 87 937 L 87 87 Z  M 115.977 115.977 L 908.023 115.977 L 908.023 908.023 L 115.977 908.023 L 115.977 115.977 Z " fill-rule="evenodd" fill="rgb(25,118,210)"/><g id="Accessories"><g id="Ruler"><path d=" M 242 376.583 L 242 476.203 L 782 476.203 L 782 376.583 L 242 376.583 Z " fill-rule="evenodd" fill="rgb(139,104,69)" fill-opacity="0.8369715073529411"/><path d=" M 262 400.937 L 262 401.468 C 262 404.081 264.121 406.203 266.735 406.203 L 757.265 406.203 C 759.879 406.203 762 404.081 762 401.468 L 762 400.937 C 762 398.324 759.879 396.203 757.265 396.203 L 266.735 396.203 C 264.121 396.203 262 398.324 262 400.937 Z " fill-rule="evenodd" fill="rgb(118,89,60)" fill-opacity="0.8256261488970589"/></g><g id="Pen"><path d=" M 282.443 590.435 L 292.334 517.794 C 323.969 506.007 347.454 521.271 351.041 555.919 L 287.922 593.993 Q 284.107 596.111 282.953 595.362 Q 281.8 594.613 282.443 590.435 Z " fill="rgb(255,204,128)"/><path d=" M 417.601 324.9 L 476.308 363.025 L 351.041 555.919 C 335.268 533.471 311.794 518.263 292.334 517.794 L 417.601 324.9 Z " fill="rgb(66,165,245)"/><rect x="413.029" y="304.409" width="90" height="45" transform="matrix(0.839,0.545,-0.545,0.839,251.941,-196.721)" fill="rgb(189,189,189)"/><path d=" M 480.462 270.333 L 500.59 283.404 C 511.236 290.318 514.266 304.574 507.353 315.22 L 498.094 329.478 L 439.387 291.353 L 448.646 277.096 C 455.559 266.45 469.816 263.419 480.462 270.333 Z " fill="rgb(139,195,74)"/></g><g id="Paint Pencil"><path d=" M 733.769 598.879 Q 710.719 604.756 700.13 606.328 C 697.4 606.733 694.369 604.975 693.365 602.405 L 650.918 493.746 L 693.866 468.144 L 769.259 557.163 C 771.043 559.269 771.095 562.731 769.376 564.89 Q 761.963 574.202 746.875 590.958 C 743.92 594.239 738.048 597.788 733.769 598.879 Z " fill="rgb(121,85,72)"/><path d=" M 614.992 432.56 Q 478.575 189.014 493.177 180.309 Q 507.78 171.604 658.023 408.017 C 648.734 423.673 632.63 432.176 614.992 432.56 Z " fill="rgb(136,14,79)"/><path d=" M 614.992 432.56 C 630.453 430.07 646.584 421.574 658.023 408.017 L 693.866 468.144 C 682.859 480.924 666.839 490.486 650.918 493.746 L 614.992 432.56 Z " fill="rgb(235,235,235)"/></g></g><path d=" M 547.16 796.8 L 547.16 796.8 Q 544.12 796.8 542.08 795.16 L 542.08 795.16 L 542.08 795.16 Q 540.04 793.52 540.04 790.24 L 540.04 790.24 L 540.04 762.72 L 540.04 762.72 Q 540.04 759.44 542.08 757.8 L 542.08 757.8 L 542.08 757.8 Q 544.12 756.16 547.16 756.16 L 547.16 756.16 L 547.16 756.16 Q 550.2 756.16 552.24 757.8 L 552.24 757.8 L 552.24 757.8 Q 554.28 759.44 554.28 762.72 L 554.28 762.72 L 554.28 790.24 L 554.28 790.24 Q 554.28 793.52 552.24 795.16 L 552.24 795.16 L 552.24 795.16 Q 550.2 796.8 547.16 796.8 L 547.16 796.8 Z  M 547.16 750.56 L 547.16 750.56 Q 543.56 750.56 541.44 748.68 L 541.44 748.68 L 541.44 748.68 Q 539.32 746.8 539.32 743.68 L 539.32 743.68 L 539.32 743.68 Q 539.32 740.56 541.44 738.72 L 541.44 738.72 L 541.44 738.72 Q 543.56 736.88 547.16 736.88 L 547.16 736.88 L 547.16 736.88 Q 550.68 736.88 552.84 738.72 L 552.84 738.72 L 552.84 738.72 Q 555 740.56 555 743.68 L 555 743.68 L 555 743.68 Q 555 746.8 552.88 748.68 L 552.88 748.68 L 552.88 748.68 Q 550.76 750.56 547.16 750.56 L 547.16 750.56 Z  M 581.48 796.96 L 581.48 796.96 Q 571.88 796.96 566.28 791.52 L 566.28 791.52 L 566.28 791.52 Q 560.68 786.08 560.68 776.72 L 560.68 776.72 L 560.68 776.72 Q 560.68 770.56 563.4 765.84 L 563.4 765.84 L 563.4 765.84 Q 566.12 761.12 571.04 758.56 L 571.04 758.56 L 571.04 758.56 Q 575.96 756 582.28 756 L 582.28 756 L 582.28 756 Q 585.64 756 589 756.88 L 589 756.88 L 589 756.88 Q 592.36 757.76 594.92 759.36 L 594.92 759.36 L 594.92 759.36 Q 597.4 760.88 597.4 764 L 597.4 764 L 597.4 764 Q 597.4 766.48 596.24 768.04 L 596.24 768.04 L 596.24 768.04 Q 595.08 769.6 593.24 769.6 L 593.24 769.6 L 593.24 769.6 Q 592.04 769.6 590.92 769.24 L 590.92 769.24 L 590.92 769.24 Q 589.8 768.88 588.44 768.16 L 588.44 768.16 L 588.44 768.16 Q 586.84 767.44 585.72 767.08 L 585.72 767.08 L 585.72 767.08 Q 584.6 766.72 583.24 766.72 L 583.24 766.72 L 583.24 766.72 Q 575.32 766.72 575.32 776.4 L 575.32 776.4 L 575.32 776.4 Q 575.32 781.2 577.36 783.72 L 577.36 783.72 L 577.36 783.72 Q 579.4 786.24 583.24 786.24 L 583.24 786.24 L 583.24 786.24 Q 584.6 786.24 585.76 785.88 L 585.76 785.88 L 585.76 785.88 Q 586.92 785.52 588.36 784.8 L 588.36 784.8 L 588.36 784.8 Q 589.96 784.08 590.96 783.72 L 590.96 783.72 L 590.96 783.72 Q 591.96 783.36 593.16 783.36 L 593.16 783.36 L 593.16 783.36 Q 595 783.36 596.16 784.92 L 596.16 784.92 L 596.16 784.92 Q 597.32 786.48 597.32 788.96 L 597.32 788.96 L 597.32 788.96 Q 597.32 790.48 596.68 791.72 L 596.68 791.72 L 596.68 791.72 Q 596.04 792.96 594.92 793.6 L 594.92 793.6 L 594.92 793.6 Q 589.4 796.96 581.48 796.96 L 581.48 796.96 Z  M 622.36 796.96 L 622.36 796.96 Q 615.88 796.96 610.96 794.44 L 610.96 794.44 L 610.96 794.44 Q 606.04 791.92 603.36 787.28 L 603.36 787.28 L 603.36 787.28 Q 600.68 782.64 600.68 776.4 L 600.68 776.4 L 600.68 776.4 Q 600.68 770.16 603.36 765.56 L 603.36 765.56 L 603.36 765.56 Q 606.04 760.96 610.92 758.48 L 610.92 758.48 L 610.92 758.48 Q 615.8 756 622.36 756 L 622.36 756 L 622.36 756 Q 628.92 756 633.8 758.48 L 633.8 758.48 L 633.8 758.48 Q 638.68 760.96 641.36 765.56 L 641.36 765.56 L 641.36 765.56 Q 644.04 770.16 644.04 776.4 L 644.04 776.4 L 644.04 776.4 Q 644.04 782.64 641.36 787.28 L 641.36 787.28 L 641.36 787.28 Q 638.68 791.92 633.8 794.44 L 633.8 794.44 L 633.8 794.44 Q 628.92 796.96 622.36 796.96 L 622.36 796.96 Z  M 622.36 786.32 L 622.36 786.32 Q 629.96 786.32 629.96 776.4 L 629.96 776.4 L 629.96 776.4 Q 629.96 766.48 622.36 766.48 L 622.36 766.48 L 622.36 766.48 Q 614.76 766.48 614.76 776.4 L 614.76 776.4 L 614.76 776.4 Q 614.76 786.32 622.36 786.32 L 622.36 786.32 Z  M 677 756 L 677 756 Q 684.04 756 687.48 760.2 L 687.48 760.2 L 687.48 760.2 Q 690.92 764.4 690.92 772.96 L 690.92 772.96 L 690.92 790.24 L 690.92 790.24 Q 690.92 793.28 689 795.04 L 689 795.04 L 689 795.04 Q 687.08 796.8 683.8 796.8 L 683.8 796.8 L 683.8 796.8 Q 680.52 796.8 678.6 795.04 L 678.6 795.04 L 678.6 795.04 Q 676.68 793.28 676.68 790.24 L 676.68 790.24 L 676.68 773.6 L 676.68 773.6 Q 676.68 770.08 675.44 768.48 L 675.44 768.48 L 675.44 768.48 Q 674.2 766.88 671.72 766.88 L 671.72 766.88 L 671.72 766.88 Q 668.52 766.88 666.64 768.92 L 666.64 768.92 L 666.64 768.92 Q 664.76 770.96 664.76 774.4 L 664.76 774.4 L 664.76 790.24 L 664.76 790.24 Q 664.76 793.28 662.84 795.04 L 662.84 795.04 L 662.84 795.04 Q 660.92 796.8 657.64 796.8 L 657.64 796.8 L 657.64 796.8 Q 654.36 796.8 652.44 795.04 L 652.44 795.04 L 652.44 795.04 Q 650.52 793.28 650.52 790.24 L 650.52 790.24 L 650.52 762.56 L 650.52 762.56 Q 650.52 759.76 652.52 757.96 L 652.52 757.96 L 652.52 757.96 Q 654.52 756.16 657.72 756.16 L 657.72 756.16 L 657.72 756.16 Q 660.76 756.16 662.56 757.84 L 662.56 757.84 L 662.56 757.84 Q 664.36 759.52 664.36 762.24 L 664.36 762.24 L 664.36 762.24 Q 666.44 759.2 669.72 757.6 L 669.72 757.6 L 669.72 757.6 Q 673 756 677 756 L 677 756 Z  M 717.24 756 L 717.24 756 Q 726.36 756 730.72 760.36 L 730.72 760.36 L 730.72 760.36 Q 735.08 764.72 735.08 773.6 L 735.08 773.6 L 735.08 790.32 L 735.08 790.32 Q 735.08 793.36 733.28 795.08 L 733.28 795.08 L 733.28 795.08 Q 731.48 796.8 728.28 796.8 L 728.28 796.8 L 728.28 796.8 Q 725.48 796.8 723.68 795.2 L 723.68 795.2 L 723.68 795.2 Q 721.88 793.6 721.72 790.88 L 721.72 790.88 L 721.72 790.88 Q 720.6 793.76 717.96 795.36 L 717.96 795.36 L 717.96 795.36 Q 715.32 796.96 711.64 796.96 L 711.64 796.96 L 711.64 796.96 Q 707.56 796.96 704.28 795.32 L 704.28 795.32 L 704.28 795.32 Q 701 793.68 699.12 790.76 L 699.12 790.76 L 699.12 790.76 Q 697.24 787.84 697.24 784.16 L 697.24 784.16 L 697.24 784.16 Q 697.24 779.92 699.44 777.4 L 699.44 777.4 L 699.44 777.4 Q 701.64 774.88 706.44 773.76 L 706.44 773.76 L 706.44 773.76 Q 711.24 772.64 719.4 772.64 L 719.4 772.64 L 721.56 772.64 L 721.56 771.68 L 721.56 771.68 Q 721.56 768.88 720.28 767.64 L 720.28 767.64 L 720.28 767.64 Q 719 766.4 715.96 766.4 L 715.96 766.4 L 715.96 766.4 Q 712.68 766.4 706.36 768.64 L 706.36 768.64 L 706.36 768.64 Q 704.52 769.28 703.24 769.28 L 703.24 769.28 L 703.24 769.28 Q 701.24 769.28 700.04 767.84 L 700.04 767.84 L 700.04 767.84 Q 698.84 766.4 698.84 764.08 L 698.84 764.08 L 698.84 764.08 Q 698.84 762.32 699.56 761.2 L 699.56 761.2 L 699.56 761.2 Q 700.28 760.08 701.88 759.2 L 701.88 759.2 L 701.88 759.2 Q 704.68 757.76 708.92 756.88 L 708.92 756.88 L 708.92 756.88 Q 713.16 756 717.24 756 L 717.24 756 Z  M 715 787.44 L 715 787.44 Q 717.88 787.44 719.72 785.4 L 719.72 785.4 L 719.72 785.4 Q 721.56 783.36 721.56 780.16 L 721.56 780.16 L 721.56 779.2 L 720.28 779.2 L 720.28 779.2 Q 715.16 779.2 713 780.12 L 713 780.12 L 713 780.12 Q 710.84 781.04 710.84 783.2 L 710.84 783.2 L 710.84 783.2 Q 710.84 785.04 712 786.24 L 712 786.24 L 712 786.24 Q 713.16 787.44 715 787.44 L 715 787.44 Z  M 309.32 797.04 L 309.32 797.04 Q 302.92 797.04 297.44 795.64 L 297.44 795.64 L 297.44 795.64 Q 291.96 794.24 288.44 791.76 L 288.44 791.76 L 288.44 791.76 Q 287.08 790.72 286.48 789.6 L 286.48 789.6 L 286.48 789.6 Q 285.88 788.48 285.88 786.72 L 285.88 786.72 L 285.88 786.72 Q 285.88 784.32 287.32 782.56 L 287.32 782.56 L 287.32 782.56 Q 288.76 780.8 290.68 780.8 L 290.68 780.8 L 290.68 780.8 Q 291.72 780.8 292.68 781.12 L 292.68 781.12 L 292.68 781.12 Q 293.64 781.44 295.08 782.32 L 295.08 782.32 L 295.08 782.32 Q 298.36 784.16 301.6 784.96 L 301.6 784.96 L 301.6 784.96 Q 304.84 785.76 308.92 785.76 L 308.92 785.76 L 308.92 785.76 Q 313.64 785.76 316.08 784.36 L 316.08 784.36 L 316.08 784.36 Q 318.52 782.96 318.52 780.24 L 318.52 780.24 L 318.52 780.24 Q 318.52 778.4 316.24 777.08 L 316.24 777.08 L 316.24 777.08 Q 313.96 775.76 307.56 774.48 L 307.56 774.48 L 307.56 774.48 Q 299.64 772.8 295.16 770.48 L 295.16 770.48 L 295.16 770.48 Q 290.68 768.16 288.88 765 L 288.88 765 L 288.88 765 Q 287.08 761.84 287.08 757.36 L 287.08 757.36 L 287.08 757.36 Q 287.08 752.24 290.12 748.08 L 290.12 748.08 L 290.12 748.08 Q 293.16 743.92 298.48 741.56 L 298.48 741.56 L 298.48 741.56 Q 303.8 739.2 310.44 739.2 L 310.44 739.2 L 310.44 739.2 Q 316.28 739.2 320.84 740.48 L 320.84 740.48 L 320.84 740.48 Q 325.4 741.76 329.16 744.48 L 329.16 744.48 L 329.16 744.48 Q 330.6 745.52 331.2 746.68 L 331.2 746.68 L 331.2 746.68 Q 331.8 747.84 331.8 749.52 L 331.8 749.52 L 331.8 749.52 Q 331.8 751.92 330.4 753.68 L 330.4 753.68 L 330.4 753.68 Q 329 755.44 327.08 755.44 L 327.08 755.44 L 327.08 755.44 Q 326.04 755.44 325.16 755.16 L 325.16 755.16 L 325.16 755.16 Q 324.28 754.88 322.68 753.92 L 322.68 753.92 L 322.68 753.92 Q 322.28 753.68 320.4 752.68 L 320.4 752.68 L 320.4 752.68 Q 318.52 751.68 316 751.08 L 316 751.08 L 316 751.08 Q 313.48 750.48 310.52 750.48 L 310.52 750.48 L 310.52 750.48 Q 306.44 750.48 303.96 752.04 L 303.96 752.04 L 303.96 752.04 Q 301.48 753.6 301.48 756.16 L 301.48 756.16 L 301.48 756.16 Q 301.48 757.68 302.36 758.64 L 302.36 758.64 L 302.36 758.64 Q 303.24 759.6 305.64 760.52 L 305.64 760.52 L 305.64 760.52 Q 308.04 761.44 312.76 762.4 L 312.76 762.4 L 312.76 762.4 Q 320.44 764.08 324.84 766.44 L 324.84 766.44 L 324.84 766.44 Q 329.24 768.8 331.08 771.92 L 331.08 771.92 L 331.08 771.92 Q 332.92 775.04 332.92 779.28 L 332.92 779.28 L 332.92 779.28 Q 332.92 784.56 329.96 788.6 L 329.96 788.6 L 329.96 788.6 Q 327 792.64 321.68 794.84 L 321.68 794.84 L 321.68 794.84 Q 316.36 797.04 309.32 797.04 L 309.32 797.04 Z  M 372.28 783.68 L 372.28 783.68 Q 374.12 783.68 375.28 785.12 L 375.28 785.12 L 375.28 785.12 Q 376.44 786.56 376.44 788.88 L 376.44 788.88 L 376.44 788.88 Q 376.44 792.08 373.32 793.76 L 373.32 793.76 L 373.32 793.76 Q 370.6 795.12 366.88 796.04 L 366.88 796.04 L 366.88 796.04 Q 363.16 796.96 360.04 796.96 L 360.04 796.96 L 360.04 796.96 Q 353.48 796.96 348.6 794.48 L 348.6 794.48 L 348.6 794.48 Q 343.72 792 341.08 787.36 L 341.08 787.36 L 341.08 787.36 Q 338.44 782.72 338.44 776.48 L 338.44 776.48 L 338.44 776.48 Q 338.44 770.56 340.96 765.88 L 340.96 765.88 L 340.96 765.88 Q 343.48 761.2 348 758.6 L 348 758.6 L 348 758.6 Q 352.52 756 358.2 756 L 358.2 756 L 358.2 756 Q 363.72 756 367.88 758.4 L 367.88 758.4 L 367.88 758.4 Q 372.04 760.8 374.32 765.2 L 374.32 765.2 L 374.32 765.2 Q 376.6 769.6 376.6 775.52 L 376.6 775.52 L 376.6 775.52 Q 376.6 777.36 375.76 778.36 L 375.76 778.36 L 375.76 778.36 Q 374.92 779.36 373.32 779.36 L 373.32 779.36 L 352.2 779.36 L 352.2 779.36 Q 352.76 783.2 354.68 784.88 L 354.68 784.88 L 354.68 784.88 Q 356.6 786.56 360.36 786.56 L 360.36 786.56 L 360.36 786.56 Q 362.36 786.56 364.04 786.12 L 364.04 786.12 L 364.04 786.12 Q 365.72 785.68 367.8 784.88 L 367.8 784.88 L 367.8 784.88 Q 369 784.4 370.16 784.04 L 370.16 784.04 L 370.16 784.04 Q 371.32 783.68 372.28 783.68 L 372.28 783.68 Z  M 358.6 765.6 L 358.6 765.6 Q 355.8 765.6 354.12 767.4 L 354.12 767.4 L 354.12 767.4 Q 352.44 769.2 352.12 772.64 L 352.12 772.64 L 364.68 772.64 L 364.68 772.64 Q 364.2 765.6 358.6 765.6 L 358.6 765.6 Z  M 409.56 756 L 409.56 756 Q 416.6 756 420.04 760.2 L 420.04 760.2 L 420.04 760.2 Q 423.48 764.4 423.48 772.96 L 423.48 772.96 L 423.48 790.24 L 423.48 790.24 Q 423.48 793.28 421.56 795.04 L 421.56 795.04 L 421.56 795.04 Q 419.64 796.8 416.36 796.8 L 416.36 796.8 L 416.36 796.8 Q 413.08 796.8 411.16 795.04 L 411.16 795.04 L 411.16 795.04 Q 409.24 793.28 409.24 790.24 L 409.24 790.24 L 409.24 773.6 L 409.24 773.6 Q 409.24 770.08 408 768.48 L 408 768.48 L 408 768.48 Q 406.76 766.88 404.28 766.88 L 404.28 766.88 L 404.28 766.88 Q 401.08 766.88 399.2 768.92 L 399.2 768.92 L 399.2 768.92 Q 397.32 770.96 397.32 774.4 L 397.32 774.4 L 397.32 790.24 L 397.32 790.24 Q 397.32 793.28 395.4 795.04 L 395.4 795.04 L 395.4 795.04 Q 393.48 796.8 390.2 796.8 L 390.2 796.8 L 390.2 796.8 Q 386.92 796.8 385 795.04 L 385 795.04 L 385 795.04 Q 383.08 793.28 383.08 790.24 L 383.08 790.24 L 383.08 762.56 L 383.08 762.56 Q 383.08 759.76 385.08 757.96 L 385.08 757.96 L 385.08 757.96 Q 387.08 756.16 390.28 756.16 L 390.28 756.16 L 390.28 756.16 Q 393.32 756.16 395.12 757.84 L 395.12 757.84 L 395.12 757.84 Q 396.92 759.52 396.92 762.24 L 396.92 762.24 L 396.92 762.24 Q 399 759.2 402.28 757.6 L 402.28 757.6 L 402.28 757.6 Q 405.56 756 409.56 756 L 409.56 756 Z  M 461.32 785.84 L 461.32 785.84 Q 467.72 785.84 467.72 791.04 L 467.72 791.04 L 467.72 791.04 Q 467.72 796.32 461.32 796.32 L 461.32 796.32 L 436.12 796.32 L 436.12 796.32 Q 433.32 796.32 431.56 794.56 L 431.56 794.56 L 431.56 794.56 Q 429.8 792.8 429.8 790.32 L 429.8 790.32 L 429.8 790.32 Q 429.8 787.68 431.8 785.44 L 431.8 785.44 L 448.6 767.44 L 435.72 767.44 L 435.72 767.44 Q 429.32 767.44 429.32 762.16 L 429.32 762.16 L 429.32 762.16 Q 429.32 756.96 435.72 756.96 L 435.72 756.96 L 459.96 756.96 L 459.96 756.96 Q 462.76 756.96 464.52 758.72 L 464.52 758.72 L 464.52 758.72 Q 466.28 760.48 466.28 762.96 L 466.28 762.96 L 466.28 762.96 Q 466.28 765.52 464.28 767.76 L 464.28 767.76 L 447.4 785.84 L 461.32 785.84 Z  M 491.32 756 L 491.32 756 Q 500.44 756 504.8 760.36 L 504.8 760.36 L 504.8 760.36 Q 509.16 764.72 509.16 773.6 L 509.16 773.6 L 509.16 790.32 L 509.16 790.32 Q 509.16 793.36 507.36 795.08 L 507.36 795.08 L 507.36 795.08 Q 505.56 796.8 502.36 796.8 L 502.36 796.8 L 502.36 796.8 Q 499.56 796.8 497.76 795.2 L 497.76 795.2 L 497.76 795.2 Q 495.96 793.6 495.8 790.88 L 495.8 790.88 L 495.8 790.88 Q 494.68 793.76 492.04 795.36 L 492.04 795.36 L 492.04 795.36 Q 489.4 796.96 485.72 796.96 L 485.72 796.96 L 485.72 796.96 Q 481.64 796.96 478.36 795.32 L 478.36 795.32 L 478.36 795.32 Q 475.08 793.68 473.2 790.76 L 473.2 790.76 L 473.2 790.76 Q 471.32 787.84 471.32 784.16 L 471.32 784.16 L 471.32 784.16 Q 471.32 779.92 473.52 777.4 L 473.52 777.4 L 473.52 777.4 Q 475.72 774.88 480.52 773.76 L 480.52 773.76 L 480.52 773.76 Q 485.32 772.64 493.48 772.64 L 493.48 772.64 L 495.64 772.64 L 495.64 771.68 L 495.64 771.68 Q 495.64 768.88 494.36 767.64 L 494.36 767.64 L 494.36 767.64 Q 493.08 766.4 490.04 766.4 L 490.04 766.4 L 490.04 766.4 Q 486.76 766.4 480.44 768.64 L 480.44 768.64 L 480.44 768.64 Q 478.6 769.28 477.32 769.28 L 477.32 769.28 L 477.32 769.28 Q 475.32 769.28 474.12 767.84 L 474.12 767.84 L 474.12 767.84 Q 472.92 766.4 472.92 764.08 L 472.92 764.08 L 472.92 764.08 Q 472.92 762.32 473.64 761.2 L 473.64 761.2 L 473.64 761.2 Q 474.36 760.08 475.96 759.2 L 475.96 759.2 L 475.96 759.2 Q 478.76 757.76 483 756.88 L 483 756.88 L 483 756.88 Q 487.24 756 491.32 756 L 491.32 756 Z  M 489.08 787.44 L 489.08 787.44 Q 491.96 787.44 493.8 785.4 L 493.8 785.4 L 493.8 785.4 Q 495.64 783.36 495.64 780.16 L 495.64 780.16 L 495.64 779.2 L 494.36 779.2 L 494.36 779.2 Q 489.24 779.2 487.08 780.12 L 487.08 780.12 L 487.08 780.12 Q 484.92 781.04 484.92 783.2 L 484.92 783.2 L 484.92 783.2 Q 484.92 785.04 486.08 786.24 L 486.08 786.24 L 486.08 786.24 Q 487.24 787.44 489.08 787.44 L 489.08 787.44 Z " fill-rule="evenodd" fill="rgb(25,118,210)"/></g></g></svg>