<?xml version="1.0" standalone="no"?><!-- Generator: Gravit.io --><svg xmlns="http://www.w3.org/2000/svg" xmlns:xlink="http://www.w3.org/1999/xlink" style="isolation:isolate" viewBox="0 0 1024 1024" width="1024" height="1024"><defs><clipPath id="_clipPath_rPN50uHINiSCrrWesciQB45sPgXME0cr"><rect width="1024" height="1024"/></clipPath></defs><g clip-path="url(#_clipPath_rPN50uHINiSCrrWesciQB45sPgXME0cr)"><g id="App without icon"><rect x="87" y="87" width="850" height="850" transform="matrix(1,0,0,1,0,0)" fill="rgb(227,242,253)"/><path d=" M 87 87 L 937 87 L 937 937 L 87 937 L 87 87 Z  M 115.977 115.977 L 908.023 115.977 L 908.023 908.023 L 115.977 908.023 L 115.977 115.977 Z " fill-rule="evenodd" fill="rgb(25,118,210)"/><g id="Accessories"><g id="Ruler"><path d=" M 242 376.583 L 242 476.203 L 782 476.203 L 782 376.583 L 242 376.583 Z " fill-rule="evenodd" fill="rgb(139,104,69)" fill-opacity="0.8369715073529411"/><path d=" M 262 400.937 L 262 401.468 C 262 404.081 264.121 406.203 266.735 406.203 L 757.265 406.203 C 759.879 406.203 762 404.081 762 401.468 L 762 400.937 C 762 398.324 759.879 396.203 757.265 396.203 L 266.735 396.203 C 264.121 396.203 262 398.324 262 400.937 Z " fill-rule="evenodd" fill="rgb(118,89,60)" fill-opacity="0.8256261488970589"/></g><g id="Pen"><path d=" M 282.443 590.435 L 292.334 517.794 C 323.969 506.007 347.454 521.271 351.041 555.919 L 287.922 593.993 Q 284.107 596.111 282.953 595.362 Q 281.8 594.613 282.443 590.435 Z " fill="rgb(255,204,128)"/><path d=" M 417.601 324.9 L 476.308 363.025 L 351.041 555.919 C 335.268 533.471 311.794 518.263 292.334 517.794 L 417.601 324.9 Z " fill="rgb(66,165,245)"/><rect x="413.029" y="304.409" width="90" height="45" transform="matrix(0.839,0.545,-0.545,0.839,251.941,-196.721)" fill="rgb(189,189,189)"/><path d=" M 480.462 270.333 L 500.59 283.404 C 511.236 290.318 514.266 304.574 507.353 315.22 L 498.094 329.478 L 439.387 291.353 L 448.646 277.096 C 455.559 266.45 469.816 263.419 480.462 270.333 Z " fill="rgb(139,195,74)"/></g><g id="Paint Pencil"><path d=" M 733.769 598.879 Q 710.719 604.756 700.13 606.328 C 697.4 606.733 694.369 604.975 693.365 602.405 L 650.918 493.746 L 693.866 468.144 L 769.259 557.163 C 771.043 559.269 771.095 562.731 769.376 564.89 Q 761.963 574.202 746.875 590.958 C 743.92 594.239 738.048 597.788 733.769 598.879 Z " fill="rgb(121,85,72)"/><path d=" M 614.992 432.56 Q 478.575 189.014 493.177 180.309 Q 507.78 171.604 658.023 408.017 C 648.734 423.673 632.63 432.176 614.992 432.56 Z " fill="rgb(136,14,79)"/><path d=" M 614.992 432.56 C 630.453 430.07 646.584 421.574 658.023 408.017 L 693.866 468.144 C 682.859 480.924 666.839 490.486 650.918 493.746 L 614.992 432.56 Z " fill="rgb(235,235,235)"/></g></g><path d=" M 525.04 796.8 L 525.04 796.8 Q 522 796.8 519.96 795.16 L 519.96 795.16 L 519.96 795.16 Q 517.92 793.52 517.92 790.24 L 517.92 790.24 L 517.92 762.72 L 517.92 762.72 Q 517.92 759.44 519.96 757.8 L 519.96 757.8 L 519.96 757.8 Q 522 756.16 525.04 756.16 L 525.04 756.16 L 525.04 756.16 Q 528.08 756.16 530.12 757.8 L 530.12 757.8 L 530.12 757.8 Q 532.16 759.44 532.16 762.72 L 532.16 762.72 L 532.16 790.24 L 532.16 790.24 Q 532.16 793.52 530.12 795.16 L 530.12 795.16 L 530.12 795.16 Q 528.08 796.8 525.04 796.8 L 525.04 796.8 Z  M 525.04 750.56 L 525.04 750.56 Q 521.44 750.56 519.32 748.68 L 519.32 748.68 L 519.32 748.68 Q 517.2 746.8 517.2 743.68 L 517.2 743.68 L 517.2 743.68 Q 517.2 740.56 519.32 738.72 L 519.32 738.72 L 519.32 738.72 Q 521.44 736.88 525.04 736.88 L 525.04 736.88 L 525.04 736.88 Q 528.56 736.88 530.72 738.72 L 530.72 738.72 L 530.72 738.72 Q 532.88 740.56 532.88 743.68 L 532.88 743.68 L 532.88 743.68 Q 532.88 746.8 530.76 748.68 L 530.76 748.68 L 530.76 748.68 Q 528.64 750.56 525.04 750.56 L 525.04 750.56 Z  M 559.36 796.96 L 559.36 796.96 Q 549.76 796.96 544.16 791.52 L 544.16 791.52 L 544.16 791.52 Q 538.56 786.08 538.56 776.72 L 538.56 776.72 L 538.56 776.72 Q 538.56 770.56 541.28 765.84 L 541.28 765.84 L 541.28 765.84 Q 544 761.12 548.92 758.56 L 548.92 758.56 L 548.92 758.56 Q 553.84 756 560.16 756 L 560.16 756 L 560.16 756 Q 563.52 756 566.88 756.88 L 566.88 756.88 L 566.88 756.88 Q 570.24 757.76 572.8 759.36 L 572.8 759.36 L 572.8 759.36 Q 575.28 760.88 575.28 764 L 575.28 764 L 575.28 764 Q 575.28 766.48 574.12 768.04 L 574.12 768.04 L 574.12 768.04 Q 572.96 769.6 571.12 769.6 L 571.12 769.6 L 571.12 769.6 Q 569.92 769.6 568.8 769.24 L 568.8 769.24 L 568.8 769.24 Q 567.68 768.88 566.32 768.16 L 566.32 768.16 L 566.32 768.16 Q 564.72 767.44 563.6 767.08 L 563.6 767.08 L 563.6 767.08 Q 562.48 766.72 561.12 766.72 L 561.12 766.72 L 561.12 766.72 Q 553.2 766.72 553.2 776.4 L 553.2 776.4 L 553.2 776.4 Q 553.2 781.2 555.24 783.72 L 555.24 783.72 L 555.24 783.72 Q 557.28 786.24 561.12 786.24 L 561.12 786.24 L 561.12 786.24 Q 562.48 786.24 563.64 785.88 L 563.64 785.88 L 563.64 785.88 Q 564.8 785.52 566.24 784.8 L 566.24 784.8 L 566.24 784.8 Q 567.84 784.08 568.84 783.72 L 568.84 783.72 L 568.84 783.72 Q 569.84 783.36 571.04 783.36 L 571.04 783.36 L 571.04 783.36 Q 572.88 783.36 574.04 784.92 L 574.04 784.92 L 574.04 784.92 Q 575.2 786.48 575.2 788.96 L 575.2 788.96 L 575.2 788.96 Q 575.2 790.48 574.56 791.72 L 574.56 791.72 L 574.56 791.72 Q 573.92 792.96 572.8 793.6 L 572.8 793.6 L 572.8 793.6 Q 567.28 796.96 559.36 796.96 L 559.36 796.96 Z  M 600.24 796.96 L 600.24 796.96 Q 593.76 796.96 588.84 794.44 L 588.84 794.44 L 588.84 794.44 Q 583.92 791.92 581.24 787.28 L 581.24 787.28 L 581.24 787.28 Q 578.56 782.64 578.56 776.4 L 578.56 776.4 L 578.56 776.4 Q 578.56 770.16 581.24 765.56 L 581.24 765.56 L 581.24 765.56 Q 583.92 760.96 588.8 758.48 L 588.8 758.48 L 588.8 758.48 Q 593.68 756 600.24 756 L 600.24 756 L 600.24 756 Q 606.8 756 611.68 758.48 L 611.68 758.48 L 611.68 758.48 Q 616.56 760.96 619.24 765.56 L 619.24 765.56 L 619.24 765.56 Q 621.92 770.16 621.92 776.4 L 621.92 776.4 L 621.92 776.4 Q 621.92 782.64 619.24 787.28 L 619.24 787.28 L 619.24 787.28 Q 616.56 791.92 611.68 794.44 L 611.68 794.44 L 611.68 794.44 Q 606.8 796.96 600.24 796.96 L 600.24 796.96 Z  M 600.24 786.32 L 600.24 786.32 Q 607.84 786.32 607.84 776.4 L 607.84 776.4 L 607.84 776.4 Q 607.84 766.48 600.24 766.48 L 600.24 766.48 L 600.24 766.48 Q 592.64 766.48 592.64 776.4 L 592.64 776.4 L 592.64 776.4 Q 592.64 786.32 600.24 786.32 L 600.24 786.32 Z  M 595.36 750.16 L 595.36 750.16 Q 593.84 752.24 591.76 752.24 L 591.76 752.24 L 591.76 752.24 Q 590.08 752.24 588.76 751.04 L 588.76 751.04 L 588.76 751.04 Q 587.44 749.84 587.44 748.16 L 587.44 748.16 L 587.44 748.16 Q 587.44 746.8 588.48 745.52 L 588.48 745.52 L 595.04 737.76 L 595.04 737.76 Q 596.24 736.24 597.4 735.6 L 597.4 735.6 L 597.4 735.6 Q 598.56 734.96 600.24 734.96 L 600.24 734.96 L 600.24 734.96 Q 602 734.96 603.08 735.64 L 603.08 735.64 L 603.08 735.64 Q 604.16 736.32 605.44 737.92 L 605.44 737.92 L 612 745.52 L 612 745.52 Q 612.96 746.72 612.96 748.16 L 612.96 748.16 L 612.96 748.16 Q 612.96 749.84 611.68 751.04 L 611.68 751.04 L 611.68 751.04 Q 610.4 752.24 608.72 752.24 L 608.72 752.24 L 608.72 752.24 Q 606.64 752.24 605.12 750.16 L 605.12 750.16 L 600.24 743.36 L 595.36 750.16 Z  M 654.88 756 L 654.88 756 Q 661.92 756 665.36 760.2 L 665.36 760.2 L 665.36 760.2 Q 668.8 764.4 668.8 772.96 L 668.8 772.96 L 668.8 790.24 L 668.8 790.24 Q 668.8 793.28 666.88 795.04 L 666.88 795.04 L 666.88 795.04 Q 664.96 796.8 661.68 796.8 L 661.68 796.8 L 661.68 796.8 Q 658.4 796.8 656.48 795.04 L 656.48 795.04 L 656.48 795.04 Q 654.56 793.28 654.56 790.24 L 654.56 790.24 L 654.56 773.6 L 654.56 773.6 Q 654.56 770.08 653.32 768.48 L 653.32 768.48 L 653.32 768.48 Q 652.08 766.88 649.6 766.88 L 649.6 766.88 L 649.6 766.88 Q 646.4 766.88 644.52 768.92 L 644.52 768.92 L 644.52 768.92 Q 642.64 770.96 642.64 774.4 L 642.64 774.4 L 642.64 790.24 L 642.64 790.24 Q 642.64 793.28 640.72 795.04 L 640.72 795.04 L 640.72 795.04 Q 638.8 796.8 635.52 796.8 L 635.52 796.8 L 635.52 796.8 Q 632.24 796.8 630.32 795.04 L 630.32 795.04 L 630.32 795.04 Q 628.4 793.28 628.4 790.24 L 628.4 790.24 L 628.4 762.56 L 628.4 762.56 Q 628.4 759.76 630.4 757.96 L 630.4 757.96 L 630.4 757.96 Q 632.4 756.16 635.6 756.16 L 635.6 756.16 L 635.6 756.16 Q 638.64 756.16 640.44 757.84 L 640.44 757.84 L 640.44 757.84 Q 642.24 759.52 642.24 762.24 L 642.24 762.24 L 642.24 762.24 Q 644.32 759.2 647.6 757.6 L 647.6 757.6 L 647.6 757.6 Q 650.88 756 654.88 756 L 654.88 756 Z  M 708.8 783.68 L 708.8 783.68 Q 710.64 783.68 711.8 785.12 L 711.8 785.12 L 711.8 785.12 Q 712.96 786.56 712.96 788.88 L 712.96 788.88 L 712.96 788.88 Q 712.96 792.08 709.84 793.76 L 709.84 793.76 L 709.84 793.76 Q 707.12 795.12 703.4 796.04 L 703.4 796.04 L 703.4 796.04 Q 699.68 796.96 696.56 796.96 L 696.56 796.96 L 696.56 796.96 Q 690 796.96 685.12 794.48 L 685.12 794.48 L 685.12 794.48 Q 680.24 792 677.6 787.36 L 677.6 787.36 L 677.6 787.36 Q 674.96 782.72 674.96 776.48 L 674.96 776.48 L 674.96 776.48 Q 674.96 770.56 677.48 765.88 L 677.48 765.88 L 677.48 765.88 Q 680 761.2 684.52 758.6 L 684.52 758.6 L 684.52 758.6 Q 689.04 756 694.72 756 L 694.72 756 L 694.72 756 Q 700.24 756 704.4 758.4 L 704.4 758.4 L 704.4 758.4 Q 708.56 760.8 710.84 765.2 L 710.84 765.2 L 710.84 765.2 Q 713.12 769.6 713.12 775.52 L 713.12 775.52 L 713.12 775.52 Q 713.12 777.36 712.28 778.36 L 712.28 778.36 L 712.28 778.36 Q 711.44 779.36 709.84 779.36 L 709.84 779.36 L 688.72 779.36 L 688.72 779.36 Q 689.28 783.2 691.2 784.88 L 691.2 784.88 L 691.2 784.88 Q 693.12 786.56 696.88 786.56 L 696.88 786.56 L 696.88 786.56 Q 698.88 786.56 700.56 786.12 L 700.56 786.12 L 700.56 786.12 Q 702.24 785.68 704.32 784.88 L 704.32 784.88 L 704.32 784.88 Q 705.52 784.4 706.68 784.04 L 706.68 784.04 L 706.68 784.04 Q 707.84 783.68 708.8 783.68 L 708.8 783.68 Z  M 695.12 765.6 L 695.12 765.6 Q 692.32 765.6 690.64 767.4 L 690.64 767.4 L 690.64 767.4 Q 688.96 769.2 688.64 772.64 L 688.64 772.64 L 701.2 772.64 L 701.2 772.64 Q 700.72 765.6 695.12 765.6 L 695.12 765.6 Z  M 332.32 797.04 L 332.32 797.04 Q 325.92 797.04 320.44 795.64 L 320.44 795.64 L 320.44 795.64 Q 314.96 794.24 311.44 791.76 L 311.44 791.76 L 311.44 791.76 Q 310.08 790.72 309.48 789.6 L 309.48 789.6 L 309.48 789.6 Q 308.88 788.48 308.88 786.72 L 308.88 786.72 L 308.88 786.72 Q 308.88 784.32 310.32 782.56 L 310.32 782.56 L 310.32 782.56 Q 311.76 780.8 313.68 780.8 L 313.68 780.8 L 313.68 780.8 Q 314.72 780.8 315.68 781.12 L 315.68 781.12 L 315.68 781.12 Q 316.64 781.44 318.08 782.32 L 318.08 782.32 L 318.08 782.32 Q 321.36 784.16 324.6 784.96 L 324.6 784.96 L 324.6 784.96 Q 327.84 785.76 331.92 785.76 L 331.92 785.76 L 331.92 785.76 Q 336.64 785.76 339.08 784.36 L 339.08 784.36 L 339.08 784.36 Q 341.52 782.96 341.52 780.24 L 341.52 780.24 L 341.52 780.24 Q 341.52 778.4 339.24 777.08 L 339.24 777.08 L 339.24 777.08 Q 336.96 775.76 330.56 774.48 L 330.56 774.48 L 330.56 774.48 Q 322.64 772.8 318.16 770.48 L 318.16 770.48 L 318.16 770.48 Q 313.68 768.16 311.88 765 L 311.88 765 L 311.88 765 Q 310.08 761.84 310.08 757.36 L 310.08 757.36 L 310.08 757.36 Q 310.08 752.24 313.12 748.08 L 313.12 748.08 L 313.12 748.08 Q 316.16 743.92 321.48 741.56 L 321.48 741.56 L 321.48 741.56 Q 326.8 739.2 333.44 739.2 L 333.44 739.2 L 333.44 739.2 Q 339.28 739.2 343.84 740.48 L 343.84 740.48 L 343.84 740.48 Q 348.4 741.76 352.16 744.48 L 352.16 744.48 L 352.16 744.48 Q 353.6 745.52 354.2 746.68 L 354.2 746.68 L 354.2 746.68 Q 354.8 747.84 354.8 749.52 L 354.8 749.52 L 354.8 749.52 Q 354.8 751.92 353.4 753.68 L 353.4 753.68 L 353.4 753.68 Q 352 755.44 350.08 755.44 L 350.08 755.44 L 350.08 755.44 Q 349.04 755.44 348.16 755.16 L 348.16 755.16 L 348.16 755.16 Q 347.28 754.88 345.68 753.92 L 345.68 753.92 L 345.68 753.92 Q 345.28 753.68 343.4 752.68 L 343.4 752.68 L 343.4 752.68 Q 341.52 751.68 339 751.08 L 339 751.08 L 339 751.08 Q 336.48 750.48 333.52 750.48 L 333.52 750.48 L 333.52 750.48 Q 329.44 750.48 326.96 752.04 L 326.96 752.04 L 326.96 752.04 Q 324.48 753.6 324.48 756.16 L 324.48 756.16 L 324.48 756.16 Q 324.48 757.68 325.36 758.64 L 325.36 758.64 L 325.36 758.64 Q 326.24 759.6 328.64 760.52 L 328.64 760.52 L 328.64 760.52 Q 331.04 761.44 335.76 762.4 L 335.76 762.4 L 335.76 762.4 Q 343.44 764.08 347.84 766.44 L 347.84 766.44 L 347.84 766.44 Q 352.24 768.8 354.08 771.92 L 354.08 771.92 L 354.08 771.92 Q 355.92 775.04 355.92 779.28 L 355.92 779.28 L 355.92 779.28 Q 355.92 784.56 352.96 788.6 L 352.96 788.6 L 352.96 788.6 Q 350 792.64 344.68 794.84 L 344.68 794.84 L 344.68 794.84 Q 339.36 797.04 332.32 797.04 L 332.32 797.04 Z  M 381.6 756 L 381.6 756 Q 390.72 756 395.08 760.36 L 395.08 760.36 L 395.08 760.36 Q 399.44 764.72 399.44 773.6 L 399.44 773.6 L 399.44 790.32 L 399.44 790.32 Q 399.44 793.36 397.64 795.08 L 397.64 795.08 L 397.64 795.08 Q 395.84 796.8 392.64 796.8 L 392.64 796.8 L 392.64 796.8 Q 389.84 796.8 388.04 795.2 L 388.04 795.2 L 388.04 795.2 Q 386.24 793.6 386.08 790.88 L 386.08 790.88 L 386.08 790.88 Q 384.96 793.76 382.32 795.36 L 382.32 795.36 L 382.32 795.36 Q 379.68 796.96 376 796.96 L 376 796.96 L 376 796.96 Q 371.92 796.96 368.64 795.32 L 368.64 795.32 L 368.64 795.32 Q 365.36 793.68 363.48 790.76 L 363.48 790.76 L 363.48 790.76 Q 361.6 787.84 361.6 784.16 L 361.6 784.16 L 361.6 784.16 Q 361.6 779.92 363.8 777.4 L 363.8 777.4 L 363.8 777.4 Q 366 774.88 370.8 773.76 L 370.8 773.76 L 370.8 773.76 Q 375.6 772.64 383.76 772.64 L 383.76 772.64 L 385.92 772.64 L 385.92 771.68 L 385.92 771.68 Q 385.92 768.88 384.64 767.64 L 384.64 767.64 L 384.64 767.64 Q 383.36 766.4 380.32 766.4 L 380.32 766.4 L 380.32 766.4 Q 377.04 766.4 370.72 768.64 L 370.72 768.64 L 370.72 768.64 Q 368.88 769.28 367.6 769.28 L 367.6 769.28 L 367.6 769.28 Q 365.6 769.28 364.4 767.84 L 364.4 767.84 L 364.4 767.84 Q 363.2 766.4 363.2 764.08 L 363.2 764.08 L 363.2 764.08 Q 363.2 762.32 363.92 761.2 L 363.92 761.2 L 363.92 761.2 Q 364.64 760.08 366.24 759.2 L 366.24 759.2 L 366.24 759.2 Q 369.04 757.76 373.28 756.88 L 373.28 756.88 L 373.28 756.88 Q 377.52 756 381.6 756 L 381.6 756 Z  M 379.36 787.44 L 379.36 787.44 Q 382.24 787.44 384.08 785.4 L 384.08 785.4 L 384.08 785.4 Q 385.92 783.36 385.92 780.16 L 385.92 780.16 L 385.92 779.2 L 384.64 779.2 L 384.64 779.2 Q 379.52 779.2 377.36 780.12 L 377.36 780.12 L 377.36 780.12 Q 375.2 781.04 375.2 783.2 L 375.2 783.2 L 375.2 783.2 Q 375.2 785.04 376.36 786.24 L 376.36 786.24 L 376.36 786.24 Q 377.52 787.44 379.36 787.44 L 379.36 787.44 Z  M 433.92 756 L 433.92 756 Q 440.96 756 444.4 760.2 L 444.4 760.2 L 444.4 760.2 Q 447.84 764.4 447.84 772.96 L 447.84 772.96 L 447.84 790.24 L 447.84 790.24 Q 447.84 793.28 445.92 795.04 L 445.92 795.04 L 445.92 795.04 Q 444 796.8 440.72 796.8 L 440.72 796.8 L 440.72 796.8 Q 437.44 796.8 435.52 795.04 L 435.52 795.04 L 435.52 795.04 Q 433.6 793.28 433.6 790.24 L 433.6 790.24 L 433.6 773.6 L 433.6 773.6 Q 433.6 770.08 432.36 768.48 L 432.36 768.48 L 432.36 768.48 Q 431.12 766.88 428.64 766.88 L 428.64 766.88 L 428.64 766.88 Q 425.44 766.88 423.56 768.92 L 423.56 768.92 L 423.56 768.92 Q 421.68 770.96 421.68 774.4 L 421.68 774.4 L 421.68 790.24 L 421.68 790.24 Q 421.68 793.28 419.76 795.04 L 419.76 795.04 L 419.76 795.04 Q 417.84 796.8 414.56 796.8 L 414.56 796.8 L 414.56 796.8 Q 411.28 796.8 409.36 795.04 L 409.36 795.04 L 409.36 795.04 Q 407.44 793.28 407.44 790.24 L 407.44 790.24 L 407.44 762.56 L 407.44 762.56 Q 407.44 759.76 409.44 757.96 L 409.44 757.96 L 409.44 757.96 Q 411.44 756.16 414.64 756.16 L 414.64 756.16 L 414.64 756.16 Q 417.68 756.16 419.48 757.84 L 419.48 757.84 L 419.48 757.84 Q 421.28 759.52 421.28 762.24 L 421.28 762.24 L 421.28 762.24 Q 423.36 759.2 426.64 757.6 L 426.64 757.6 L 426.64 757.6 Q 429.92 756 433.92 756 L 433.92 756 Z  M 471.36 796.96 L 471.36 796.96 Q 466 796.96 462.32 796.16 L 462.32 796.16 L 462.32 796.16 Q 458.64 795.36 455.84 793.6 L 455.84 793.6 L 455.84 793.6 Q 454.72 793.04 454.08 791.68 L 454.08 791.68 L 454.08 791.68 Q 453.44 790.32 453.44 788.64 L 453.44 788.64 L 453.44 788.64 Q 453.44 786.48 454.6 785.08 L 454.6 785.08 L 454.6 785.08 Q 455.76 783.68 457.52 783.68 L 457.52 783.68 L 457.52 783.68 Q 458.72 783.68 459.76 783.96 L 459.76 783.96 L 459.76 783.96 Q 460.8 784.24 462.32 784.88 L 462.32 784.88 L 462.32 784.88 Q 464.88 785.76 466.84 786.24 L 466.84 786.24 L 466.84 786.24 Q 468.8 786.72 471.84 786.72 L 471.84 786.72 L 471.84 786.72 Q 474 786.72 475.24 786.12 L 475.24 786.12 L 475.24 786.12 Q 476.48 785.52 476.48 784.4 L 476.48 784.4 L 476.48 784.4 Q 476.48 783.52 475.88 783.04 L 475.88 783.04 L 475.88 783.04 Q 475.28 782.56 473.6 782.12 L 473.6 782.12 L 473.6 782.12 Q 471.92 781.68 467.92 780.88 L 467.92 780.88 L 467.92 780.88 Q 460.8 779.52 457.64 776.76 L 457.64 776.76 L 457.64 776.76 Q 454.48 774 454.48 768.96 L 454.48 768.96 L 454.48 768.96 Q 454.48 765.28 456.76 762.32 L 456.76 762.32 L 456.76 762.32 Q 459.04 759.36 463.04 757.68 L 463.04 757.68 L 463.04 757.68 Q 467.04 756 472 756 L 472 756 L 472 756 Q 475.6 756 479 756.88 L 479 756.88 L 479 756.88 Q 482.4 757.76 485.04 759.36 L 485.04 759.36 L 485.04 759.36 Q 487.52 760.8 487.52 764 L 487.52 764 L 487.52 764 Q 487.52 766.24 486.32 767.76 L 486.32 767.76 L 486.32 767.76 Q 485.12 769.28 483.36 769.28 L 483.36 769.28 L 483.36 769.28 Q 481.28 769.28 478.4 767.92 L 478.4 767.92 L 478.4 767.92 Q 476.48 767.04 475 766.6 L 475 766.6 L 475 766.6 Q 473.52 766.16 471.52 766.16 L 471.52 766.16 L 471.52 766.16 Q 469.52 766.16 468.4 766.76 L 468.4 766.76 L 468.4 766.76 Q 467.28 767.36 467.28 768.48 L 467.28 768.48 L 467.28 768.48 Q 467.28 769.76 468.84 770.48 L 468.84 770.48 L 468.84 770.48 Q 470.4 771.2 475.04 772.08 L 475.04 772.08 L 475.04 772.08 Q 482.8 773.44 486 776.2 L 486 776.2 L 486 776.2 Q 489.2 778.96 489.2 784.16 L 489.2 784.16 L 489.2 784.16 Q 489.2 790 484.36 793.48 L 484.36 793.48 L 484.36 793.48 Q 479.52 796.96 471.36 796.96 L 471.36 796.96 Z " fill-rule="evenodd" fill="rgb(25,118,210)"/></g></g></svg>